<svg xmlns="http://www.w3.org/2000/svg" xmlns:xlink="http://www.w3.org/1999/xlink" xmlns:lucid="lucid" width="1105.33" height="377.93"><g transform="translate(-9034.47498422744 -2130.63282739614)" lucid:page-tab-id="0_0"><path d="M9467.14 2249.3a6 6 0 0 1 6-6h228a6 6 0 0 1 6 6v148a6 6 0 0 1-6 6h-228a6 6 0 0 1-6-6z" stroke="#3a414a" stroke-width="3" fill="#fff"/><use xlink:href="#a" transform="matrix(1,0,0,1,9475.13930752482,2251.3029947880314) translate(81.81481481481481 62.77777777777778)"/><use xlink:href="#b" transform="matrix(1,0,0,1,9475.13930752482,2251.3029947880314) translate(79.96296296296296 89.44444444444446)"/><path d="M9035.98 2138.13a6 6 0 0 1 6-6h228a6 6 0 0 1 6 6v148a6 6 0 0 1-6 6h-228a6 6 0 0 1-6-6z" stroke="#3a414a" stroke-width="3" fill="#fff"/><use xlink:href="#c" transform="matrix(1,0,0,1,9043.97498426726,2140.1328274219886) translate(17.771604938271608 62.77777777777778)"/><use xlink:href="#d" transform="matrix(1,0,0,1,9043.97498426726,2140.1328274219886) translate(140.85802469135803 62.77777777777778)"/><use xlink:href="#e" transform="matrix(1,0,0,1,9043.97498426726,2140.1328274219886) translate(89.80864197530865 89.44444444444446)"/><path d="M9392.15 2288.64l5.2 5.1 4.48 4.04 4.04 3.34 3.77 2.86 3.58 2.5 3.47 2.2 3.4 1.96 3.35 1.76 3.35 1.58 3.37 1.4 3.4 1.28 3.5 1.14 3.57 1 3.7.86 3.82.73 4 .58 2.55.27-.3 2.98-2.6-.27-4.14-.6-3.96-.77-3.8-.9-3.7-1.03-3.6-1.17-3.53-1.32-3.5-1.46-3.45-1.63-3.48-1.83-3.5-2.02-3.58-2.27-3.7-2.57-3.86-2.93-4.14-3.42-4.56-4.12-5.33-5.23-10.92-12.42h4zm-109.77-77.9l4.6.28 4.34.46 4.14.6 3.95.76 3.82.9 3.7 1.03 3.6 1.17 3.53 1.3 3.48 1.48 3.47 1.63 3.47 1.8 3.5 2.04 3.58 2.26 3.7 2.57 3.86 2.93 4.15 3.43 4.56 4.1 5.33 5.22 7 7.47 4.17 4.74h-4l-2.4-2.73-6.92-7.4-5.22-5.1-4.47-4.04-4.05-3.35-3.77-2.85-3.6-2.5-3.46-2.2-3.4-1.96-3.36-1.77-3.35-1.57-3.36-1.42-3.4-1.27-3.5-1.13-3.56-1-3.7-.86-3.83-.73-4-.6-4.23-.44-4.47-.27-3.3-.07.06-3z" stroke="#3a414a" stroke-width=".05" fill="#3a414a"/><path d="M9279.05 2210.66l-.06 3-1.52-.03v-3z" fill="#3a414a"/><path d="M9279.07 2210.64l-.06 3.05-1.55-.04v-3.05zm-1.57 2.97l1.46.04.06-2.95-1.52-.04z" stroke="#3a414a" stroke-width=".05" fill="#3a414a"/><path d="M9462.7 2323.1l-13.4 6.74 1.04-15.24z" fill="#3a414a"/><path d="M9465.64 2323.3l-18.02 9.06 1.4-20.5zm-14.67 4l8.8-4.4-8.1-5.57z" stroke="#3a414a" stroke-width=".05" fill="#3a414a"/><use xlink:href="#f" transform="matrix(1,0,0,1,9351.454809179211,2256.94441337966) translate(0 14.222222222222223)"/><path d="M9787.44 2324.8h-77.3v-3h77.3zm98.25 0H9818v-3h67.7z" stroke="#3a414a" stroke-width=".05" fill="#3a414a"/><path d="M9710.18 2324.8h-1.54v-3h1.54z" fill="#3a414a"/><path d="M9710.2 2324.83h-1.6v-3.05h1.6zm-1.54-3v2.95h1.5v-2.95z" stroke="#3a414a" stroke-width=".05" fill="#3a414a"/><path d="M9893.86 2323.3l-12.9 7.64v-15.27z" fill="#3a414a"/><path d="M9896.8 2323.3l-17.35 10.27v-20.53zm-14.35 5l8.46-5-8.45-5z" stroke="#3a414a" stroke-width=".05" fill="#3a414a"/><use xlink:href="#g" transform="matrix(1,0,0,1,9787.438929755377,2312.636328121365) translate(0 14.222222222222223)"/><path d="M9898.3 2249.3a6 6 0 0 1 6-6h228a6 6 0 0 1 6 6v148a6 6 0 0 1-6 6h-228a6 6 0 0 1-6-6z" stroke="#3a414a" stroke-width="3" fill="#fff"/><use xlink:href="#h" transform="matrix(1,0,0,1,9906.303630782379,2251.3029947880314) translate(66.41358024691358 62.77777777777778)"/><use xlink:href="#i" transform="matrix(1,0,0,1,9906.303630782379,2251.3029947880314) translate(61.444444444444436 89.44444444444446)"/><path d="M9035.98 2353.06a6 6 0 0 1 6-6h228a6 6 0 0 1 6 6v148a6 6 0 0 1-6 6h-228a6 6 0 0 1-6-6z" stroke="#3a414a" stroke-width="3" fill="#fff"/><use xlink:href="#c" transform="matrix(1,0,0,1,9043.97498426726,2355.061817663004) translate(17.771604938271608 62.77777777777778)"/><use xlink:href="#d" transform="matrix(1,0,0,1,9043.97498426726,2355.061817663004) translate(140.85802469135803 62.77777777777778)"/><use xlink:href="#j" transform="matrix(1,0,0,1,9043.97498426726,2355.061817663004) translate(89.80864197530865 89.44444444444446)"/><path d="M9352.07 2397.72l-5.17 4.66-4.5 3.74-4.16 3.15-3.9 2.72-3.76 2.37-3.67 2.12-3.62 1.9-3.6 1.7-3.65 1.52-3.68 1.37-3.76 1.2-3.88 1.1-4 .93-4.16.8-4.36.63-4.6.5-4.9.3-3.7.07-.05-3 3.63-.07 4.77-.3 4.47-.47 4.24-.64 4.04-.77 3.88-.92 3.74-1.04 3.64-1.18 3.57-1.33 3.52-1.48 3.5-1.65 3.5-1.84 3.57-2.05 3.65-2.3 3.8-2.66 4.05-3.07 4.42-3.66 3.56-3.2h4.4zm102.63-72.4l-3.4.36-4.25.62-4.04.77-3.86.9-3.74 1.06-3.65 1.18-3.56 1.34-3.53 1.48-3.5 1.64-3.52 1.84-3.56 2.06-3.66 2.32-3.8 2.64-4.05 3.07-4.43 3.65-5.05 4.56-19.64 20.77h-4.12l21.66-22.9 5.2-4.7 4.5-3.73 4.15-3.14 3.9-2.72 3.77-2.4 3.67-2.1 3.63-1.9 3.62-1.7 3.63-1.53 3.7-1.37 3.75-1.23 3.86-1.08 4-.93 4.15-.8 4.37-.64 3.47-.36z" stroke="#3a414a" stroke-width=".05" fill="#3a414a"/><path d="M9279.05 2428.53l-1.57.03v-3l1.5-.03z" fill="#3a414a"/><path d="M9279.07 2428.55l-1.62.04v-3.06l1.56-.03zm-1.57-2.96v2.94l1.52-.03-.06-2.94z" stroke="#3a414a" stroke-width=".05" fill="#3a414a"/><path d="M9462.7 2323.5l-12.4 8.43-.97-15.24z" fill="#3a414a"/><path d="M9465.64 2323.3l-16.67 11.35-1.3-20.5zm-14 5.9l8.12-5.52-8.77-4.46z" stroke="#3a414a" stroke-width=".05" fill="#3a414a"/><g><use xlink:href="#f" transform="matrix(1,0,0,1,9341.110909711426,2375.572480696171) translate(0 14.222222222222223)"/></g><defs><path fill="#3a414a" d="M199 0l-22-63H83L61 0H9l90-248h61L250 0h-51zm-33-102l-36-108c-10 38-24 72-36 108h72" id="k"/><path fill="#3a414a" d="M137-138c1-29-70-34-71-4 15 46 118 7 119 86 1 83-164 76-172 9l43-7c4 19 20 25 44 25 33 8 57-30 24-41C81-84 22-81 20-136c-2-80 154-74 161-7" id="l"/><path fill="#3a414a" d="M185-48c-13 30-37 53-82 52C43 2 14-33 14-96s30-98 90-98c62 0 83 45 84 108H66c0 31 8 55 39 56 18 0 30-7 34-22zm-45-69c5-46-57-63-70-21-2 6-4 13-4 21h74" id="m"/><path fill="#3a414a" d="M115-3C79 11 28 4 28-45v-112H4v-33h27l15-45h31v45h36v33H77v99c-1 23 16 31 38 25v30" id="n"/><g id="a"><use transform="matrix(0.06172839506172839,0,0,0.06172839506172839,0,0)" xlink:href="#k"/><use transform="matrix(0.06172839506172839,0,0,0.06172839506172839,15.987654320987653,0)" xlink:href="#l"/><use transform="matrix(0.06172839506172839,0,0,0.06172839506172839,28.333333333333332,0)" xlink:href="#l"/><use transform="matrix(0.06172839506172839,0,0,0.06172839506172839,40.67901234567901,0)" xlink:href="#m"/><use transform="matrix(0.06172839506172839,0,0,0.06172839506172839,53.02469135802469,0)" xlink:href="#n"/></g><path fill="#3a414a" d="M133-34C117-15 103 5 69 4 32 3 11-16 11-54c-1-60 55-63 116-61 1-26-3-47-28-47-18 1-26 9-28 27l-52-2c7-38 36-58 82-57s74 22 75 68l1 82c-1 14 12 18 25 15v27c-30 8-71 5-69-32zm-48 3c29 0 43-24 42-57-32 0-66-3-65 30 0 17 8 27 23 27" id="o"/><path fill="#3a414a" d="M14-72v-43h91v43H14" id="p"/><path fill="#3a414a" d="M23 0v-37h61v-169l-59 37v-38l62-41h46v211h57V0H23" id="q"/><path fill="#3a414a" d="M101-251c68 0 84 54 84 127C185-50 166 4 99 4S15-52 14-124c-1-75 17-127 87-127zm-1 216c37-5 36-46 36-89s4-89-36-89c-39 0-36 45-36 89 0 43-3 85 36 89" id="r"/><g id="b"><use transform="matrix(0.06172839506172839,0,0,0.06172839506172839,0,0)" xlink:href="#o"/><use transform="matrix(0.06172839506172839,0,0,0.06172839506172839,12.345679012345679,0)" xlink:href="#l"/><use transform="matrix(0.06172839506172839,0,0,0.06172839506172839,24.691358024691358,0)" xlink:href="#n"/><use transform="matrix(0.06172839506172839,0,0,0.06172839506172839,32.03703703703704,0)" xlink:href="#p"/><use transform="matrix(0.06172839506172839,0,0,0.06172839506172839,39.382716049382715,0)" xlink:href="#q"/><use transform="matrix(0.06172839506172839,0,0,0.06172839506172839,51.72839506172839,0)" xlink:href="#r"/></g><path fill="#3a414a" d="M24-248c93 1 206-16 204 79-1 75-69 88-152 82V0H24v-248zm52 121c47 0 100 7 100-41 0-47-54-39-100-39v80" id="s"/><path fill="#3a414a" d="M135-150c-39-12-60 13-60 57V0H25l-1-190h47c2 13-1 29 3 40 6-28 27-53 61-41v41" id="t"/><path fill="#3a414a" d="M110-194c64 0 96 36 96 99 0 64-35 99-97 99-61 0-95-36-95-99 0-62 34-99 96-99zm-1 164c35 0 45-28 45-65 0-40-10-65-43-65-34 0-45 26-45 65 0 36 10 65 43 65" id="u"/><path fill="#3a414a" d="M88-194c31-1 46 15 58 34l-1-101h50l1 261h-48c-2-10 0-23-3-31C134-8 116 4 84 4 32 4 16-41 15-95c0-56 19-97 73-99zm17 164c33 0 40-30 41-66 1-37-9-64-41-64s-38 30-39 65c0 43 13 65 39 65" id="v"/><path fill="#3a414a" d="M85 4C-2 5 27-109 22-190h50c7 57-23 150 33 157 60-5 35-97 40-157h50l1 190h-47c-2-12 1-28-3-38-12 25-28 42-61 42" id="w"/><path fill="#3a414a" d="M190-63c-7 42-38 67-86 67-59 0-84-38-90-98-12-110 154-137 174-36l-49 2c-2-19-15-32-35-32-30 0-35 28-38 64-6 74 65 87 74 30" id="x"/><path fill="#3a414a" d="M25-224v-37h50v37H25zM25 0v-190h50V0H25" id="y"/><path fill="#3a414a" d="M135-194c87-1 58 113 63 194h-50c-7-57 23-157-34-157-59 0-34 97-39 157H25l-1-190h47c2 12-1 28 3 38 12-26 28-41 61-42" id="z"/><g id="c"><use transform="matrix(0.06172839506172839,0,0,0.06172839506172839,0,0)" xlink:href="#s"/><use transform="matrix(0.06172839506172839,0,0,0.06172839506172839,14.814814814814813,0)" xlink:href="#t"/><use transform="matrix(0.06172839506172839,0,0,0.06172839506172839,23.456790123456788,0)" xlink:href="#u"/><use transform="matrix(0.06172839506172839,0,0,0.06172839506172839,36.9753086419753,0)" xlink:href="#v"/><use transform="matrix(0.06172839506172839,0,0,0.06172839506172839,50.49382716049382,0)" xlink:href="#w"/><use transform="matrix(0.06172839506172839,0,0,0.06172839506172839,64.01234567901234,0)" xlink:href="#x"/><use transform="matrix(0.06172839506172839,0,0,0.06172839506172839,76.35802469135803,0)" xlink:href="#n"/><use transform="matrix(0.06172839506172839,0,0,0.06172839506172839,83.70370370370371,0)" xlink:href="#y"/><use transform="matrix(0.06172839506172839,0,0,0.06172839506172839,89.87654320987654,0)" xlink:href="#u"/><use transform="matrix(0.06172839506172839,0,0,0.06172839506172839,103.39506172839506,0)" xlink:href="#z"/></g><path fill="#3a414a" d="M169-182c-1-43-94-46-97-3 18 66 151 10 154 114 3 95-165 93-204 36-6-8-10-19-12-30l50-8c3 46 112 56 116 5-17-69-150-10-154-114-4-87 153-88 188-35 5 8 8 18 10 28" id="A"/><g id="d"><use transform="matrix(0.06172839506172839,0,0,0.06172839506172839,0,0)" xlink:href="#A"/><use transform="matrix(0.06172839506172839,0,0,0.06172839506172839,14.814814814814813,0)" xlink:href="#x"/><use transform="matrix(0.06172839506172839,0,0,0.06172839506172839,27.160493827160494,0)" xlink:href="#m"/><use transform="matrix(0.06172839506172839,0,0,0.06172839506172839,39.50617283950617,0)" xlink:href="#z"/><use transform="matrix(0.06172839506172839,0,0,0.06172839506172839,53.02469135802469,0)" xlink:href="#m"/></g><g id="e"><use transform="matrix(0.06172839506172839,0,0,0.06172839506172839,0,0)" xlink:href="#l"/><use transform="matrix(0.06172839506172839,0,0,0.06172839506172839,12.345679012345679,0)" xlink:href="#x"/><use transform="matrix(0.06172839506172839,0,0,0.06172839506172839,24.691358024691358,0)" xlink:href="#p"/><use transform="matrix(0.06172839506172839,0,0,0.06172839506172839,32.03703703703704,0)" xlink:href="#q"/></g><path fill="#333" d="M85 4C-2 5 27-109 22-190h50c7 57-23 150 33 157 60-5 35-97 40-157h50l1 190h-47c-2-12 1-28-3-38-12 25-28 42-61 42" id="B"/><path fill="#333" d="M137-138c1-29-70-34-71-4 15 46 118 7 119 86 1 83-164 76-172 9l43-7c4 19 20 25 44 25 33 8 57-30 24-41C81-84 22-81 20-136c-2-80 154-74 161-7" id="C"/><path fill="#333" d="M185-48c-13 30-37 53-82 52C43 2 14-33 14-96s30-98 90-98c62 0 83 45 84 108H66c0 31 8 55 39 56 18 0 30-7 34-22zm-45-69c5-46-57-63-70-21-2 6-4 13-4 21h74" id="D"/><g id="f"><use transform="matrix(0.04938271604938272,0,0,0.04938271604938272,0,0)" xlink:href="#B"/><use transform="matrix(0.04938271604938272,0,0,0.04938271604938272,10.814814814814815,0)" xlink:href="#C"/><use transform="matrix(0.04938271604938272,0,0,0.04938271604938272,20.69135802469136,0)" xlink:href="#D"/><use transform="matrix(0.04938271604938272,0,0,0.04938271604938272,30.567901234567906,0)" xlink:href="#C"/></g><path fill="#333" d="M114-157C55-157 80-60 75 0H25v-261h50l-1 109c12-26 28-41 61-42 86-1 58 113 63 194h-50c-7-57 23-157-34-157" id="E"/><path fill="#333" d="M133-34C117-15 103 5 69 4 32 3 11-16 11-54c-1-60 55-63 116-61 1-26-3-47-28-47-18 1-26 9-28 27l-52-2c7-38 36-58 82-57s74 22 75 68l1 82c-1 14 12 18 25 15v27c-30 8-71 5-69-32zm-48 3c29 0 43-24 42-57-32 0-66-3-65 30 0 17 8 27 23 27" id="F"/><g id="g"><use transform="matrix(0.04938271604938272,0,0,0.04938271604938272,0,0)" xlink:href="#E"/><use transform="matrix(0.04938271604938272,0,0,0.04938271604938272,10.814814814814815,0)" xlink:href="#F"/><use transform="matrix(0.04938271604938272,0,0,0.04938271604938272,20.69135802469136,0)" xlink:href="#C"/></g><path fill="#3a414a" d="M67-125c0 53 21 87 73 88 37 1 54-22 65-47l45 17C233-25 199 4 140 4 58 4 20-42 15-125 8-235 124-281 211-232c18 10 29 29 36 50l-46 12c-8-25-30-41-62-41-52 0-71 34-72 86" id="G"/><g id="h"><use transform="matrix(0.06172839506172839,0,0,0.06172839506172839,0,0)" xlink:href="#k"/><use transform="matrix(0.06172839506172839,0,0,0.06172839506172839,15.987654320987653,0)" xlink:href="#l"/><use transform="matrix(0.06172839506172839,0,0,0.06172839506172839,28.333333333333332,0)" xlink:href="#l"/><use transform="matrix(0.06172839506172839,0,0,0.06172839506172839,40.67901234567901,0)" xlink:href="#m"/><use transform="matrix(0.06172839506172839,0,0,0.06172839506172839,53.02469135802469,0)" xlink:href="#n"/><use transform="matrix(0.06172839506172839,0,0,0.06172839506172839,60.37037037037037,0)" xlink:href="#A"/><use transform="matrix(0.06172839506172839,0,0,0.06172839506172839,75.18518518518518,0)" xlink:href="#G"/></g><g id="i"><use transform="matrix(0.06172839506172839,0,0,0.06172839506172839,0,0)" xlink:href="#o"/><use transform="matrix(0.06172839506172839,0,0,0.06172839506172839,12.345679012345679,0)" xlink:href="#l"/><use transform="matrix(0.06172839506172839,0,0,0.06172839506172839,24.691358024691358,0)" xlink:href="#n"/><use transform="matrix(0.06172839506172839,0,0,0.06172839506172839,32.03703703703704,0)" xlink:href="#l"/><use transform="matrix(0.06172839506172839,0,0,0.06172839506172839,44.382716049382715,0)" xlink:href="#x"/><use transform="matrix(0.06172839506172839,0,0,0.06172839506172839,56.72839506172839,0)" xlink:href="#p"/><use transform="matrix(0.06172839506172839,0,0,0.06172839506172839,64.07407407407408,0)" xlink:href="#q"/><use transform="matrix(0.06172839506172839,0,0,0.06172839506172839,76.41975308641976,0)" xlink:href="#r"/><use transform="matrix(0.06172839506172839,0,0,0.06172839506172839,88.76543209876544,0)" xlink:href="#o"/></g><path fill="#3a414a" d="M182-182c0 78-84 86-111 141h115V0H12c-6-101 99-100 120-180 1-22-12-31-33-32-23 0-32 14-35 34l-49-3c5-45 32-70 84-70 51 0 83 22 83 69" id="H"/><g id="j"><use transform="matrix(0.06172839506172839,0,0,0.06172839506172839,0,0)" xlink:href="#l"/><use transform="matrix(0.06172839506172839,0,0,0.06172839506172839,12.345679012345679,0)" xlink:href="#x"/><use transform="matrix(0.06172839506172839,0,0,0.06172839506172839,24.691358024691358,0)" xlink:href="#p"/><use transform="matrix(0.06172839506172839,0,0,0.06172839506172839,32.03703703703704,0)" xlink:href="#H"/></g></defs></g></svg>