<?xml version="1.0" encoding="utf-8"?>
<svg xmlns="http://www.w3.org/2000/svg" viewBox="-52.2988 472.8572 1080 315.6799" width="1080px" height="315.68px">
    <g transform="matrix(1, 0, 0, 1, 4147.701171875, 3532.857177734375)">
        <path d="M-4200-2875.32a5 5 0 0 1 5-5h390a5 5 0 0 1 5 5v126a5 5 0 0 1-5 5h-390a5 5 0 0 1-5-5z" fill="#fff"/>
        <path d="M-4200-2840.32v-35a5 5 0 0 1 5-5h390a5 5 0 0 1 5 5v35" fill="#ebdef0"/>
        <path d="M-4200-2875.32a5 5 0 0 1 5-5h390a5 5 0 0 1 5 5v126a5 5 0 0 1-5 5h-390a5 5 0 0 1-5-5zM-4200-2840.32h400M-4000-2840.32v96" stroke="#282c33" fill="none"/>
        <g transform="matrix(1, 0, 0, 1, -4190, -2856.7183589935303)">
            <use transform="matrix(0.05,0,0,0.05,0,0)" href="#p"/>
            <use transform="matrix(0.05,0,0,0.05,12,0)" href="#q"/>
            <use transform="matrix(0.05,0,0,0.05,21,0)" href="#q"/>
            <use transform="matrix(0.05,0,0,0.05,30,0)" href="#r"/>
            <use transform="matrix(0.05,0,0,0.05,40,0)" href="#s"/>
        </g>
        <g transform="matrix(1, 0, 0, 1, -4195, -2820.7183589935303)">
            <use transform="matrix(0.05,0,0,0.05,0,0)" href="#t"/>
            <use transform="matrix(0.05,0,0,0.05,3.95,0)" href="#u"/>
            <use transform="matrix(0.05,0,0,0.05,13.949999999999998,0)" href="#r"/>
            <use transform="matrix(0.05,0,0,0.05,23.95,0)" href="#v"/>
            <use transform="matrix(0.05,0,0,0.05,33.95,0)" href="#s"/>
            <use transform="matrix(0.05,0,0,0.05,38.95,0)" href="#t"/>
            <use transform="matrix(0.05,0,0,0.05,42.900000000000006,0)" href="#w"/>
            <use transform="matrix(0.05,0,0,0.05,47.900000000000006,0)" href="#t"/>
            <use transform="matrix(0.05,0,0,0.05,51.85,0)" href="#r"/>
            <use transform="matrix(0.05,0,0,0.05,61.85,0)" href="#x"/>
            <use transform="matrix(0.05,0,0,0.05,67.80000000000001,0)" href="#y"/>
            <use transform="matrix(0.05,0,0,0.05,78.45000000000002,0)" href="#z"/>
            <use transform="matrix(0.05,0,0,0.05,88.45000000000002,0)" href="#A"/>
            <use transform="matrix(0.05,0,0,0.05,92.40000000000002,0)" href="#B"/>
            <use transform="matrix(0.05,0,0,0.05,102.40000000000003,0)" href="#r"/>
        </g>
        <g transform="matrix(1, 0, 0, 1, -3995, -2820.7183589935303)">
            <use transform="matrix(0.05,0,0,0.05,0,0)" href="#z"/>
            <use transform="matrix(0.05,0,0,0.05,10,0)" href="#q"/>
            <use transform="matrix(0.05,0,0,0.05,19,0)" href="#s"/>
            <use transform="matrix(0.05,0,0,0.05,24,0)" href="#C"/>
            <use transform="matrix(0.05,0,0,0.05,29.950000000000003,0)" href="#D"/>
            <use transform="matrix(0.05,0,0,0.05,39.95,0)" href="#E"/>
        </g>
        <g transform="matrix(1, 0, 0, 1, -4195, -2788.7183589935303)">
            <use transform="matrix(0.05,0,0,0.05,0,0)" href="#z"/>
            <use transform="matrix(0.05,0,0,0.05,10,0)" href="#q"/>
            <use transform="matrix(0.05,0,0,0.05,19,0)" href="#q"/>
            <use transform="matrix(0.05,0,0,0.05,28,0)" href="#r"/>
            <use transform="matrix(0.05,0,0,0.05,38,0)" href="#s"/>
            <use transform="matrix(0.05,0,0,0.05,43,0)" href="#F"/>
            <use transform="matrix(0.05,0,0,0.05,53.95,0)" href="#G"/>
            <use transform="matrix(0.05,0,0,0.05,66.9,0)" href="#H"/>
            <use transform="matrix(0.05,0,0,0.05,71.9,0)" href="#w"/>
            <use transform="matrix(0.05,0,0,0.05,76.9,0)" href="#B"/>
            <use transform="matrix(0.05,0,0,0.05,86.9,0)" href="#v"/>
            <use transform="matrix(0.05,0,0,0.05,96.9,0)" href="#I"/>
            <use transform="matrix(0.05,0,0,0.05,105.9,0)" href="#s"/>
            <use transform="matrix(0.05,0,0,0.05,110.9,0)" href="#t"/>
            <use transform="matrix(0.05,0,0,0.05,114.85000000000001,0)" href="#J"/>
            <use transform="matrix(0.05,0,0,0.05,124.85000000000001,0)" href="#v"/>
            <use transform="matrix(0.05,0,0,0.05,134.85000000000002,0)" href="#z"/>
            <use transform="matrix(0.05,0,0,0.05,144.85000000000002,0)" href="#A"/>
            <use transform="matrix(0.05,0,0,0.05,148.8,0)" href="#K"/>
            <use transform="matrix(0.05,0,0,0.05,158.75,0)" href="#L"/>
            <use transform="matrix(0.05,0,0,0.05,167.75,0)" href="#M"/>
            <use transform="matrix(0.05,0,0,0.05,177.75,0)" href="#r"/>
        </g>
        <g transform="matrix(1, 0, 0, 1, -3995, -2788.7183589935303)">
            <use transform="matrix(0.05,0,0,0.05,0,0)" href="#N"/>
            <use transform="matrix(0.05,0,0,0.05,14.950000000000001,0)" href="#z"/>
            <use transform="matrix(0.05,0,0,0.05,24.950000000000003,0)" href="#M"/>
        </g>
        <g transform="matrix(1, 0, 0, 1, -4195, -2756.7183589935303)">
            <use transform="matrix(0.05,0,0,0.05,0,0)" href="#z"/>
            <use transform="matrix(0.05,0,0,0.05,10,0)" href="#q"/>
            <use transform="matrix(0.05,0,0,0.05,19,0)" href="#q"/>
            <use transform="matrix(0.05,0,0,0.05,28,0)" href="#r"/>
            <use transform="matrix(0.05,0,0,0.05,38,0)" href="#s"/>
            <use transform="matrix(0.05,0,0,0.05,43,0)" href="#F"/>
            <use transform="matrix(0.05,0,0,0.05,53.95,0)" href="#G"/>
            <use transform="matrix(0.05,0,0,0.05,66.9,0)" href="#H"/>
            <use transform="matrix(0.05,0,0,0.05,71.9,0)" href="#N"/>
            <use transform="matrix(0.05,0,0,0.05,86.85000000000001,0)" href="#z"/>
            <use transform="matrix(0.05,0,0,0.05,96.85000000000001,0)" href="#M"/>
            <use transform="matrix(0.05,0,0,0.05,106.85000000000001,0)" href="#F"/>
            <use transform="matrix(0.05,0,0,0.05,117.80000000000001,0)" href="#J"/>
            <use transform="matrix(0.05,0,0,0.05,127.80000000000001,0)" href="#x"/>
            <use transform="matrix(0.05,0,0,0.05,133.75,0)" href="#N"/>
            <use transform="matrix(0.05,0,0,0.05,148.7,0)" href="#z"/>
            <use transform="matrix(0.05,0,0,0.05,158.7,0)" href="#s"/>
        </g>
        <g transform="matrix(1, 0, 0, 1, -3995, -2756.7183589935303)">
            <use transform="matrix(0.05,0,0,0.05,0,0)" href="#v"/>
            <use transform="matrix(0.05,0,0,0.05,10,0)" href="#J"/>
            <use transform="matrix(0.05,0,0,0.05,20,0)" href="#x"/>
            <use transform="matrix(0.05,0,0,0.05,25.950000000000003,0)" href="#N"/>
            <use transform="matrix(0.05,0,0,0.05,40.9,0)" href="#z"/>
            <use transform="matrix(0.05,0,0,0.05,50.9,0)" href="#A"/>
        </g>
        <path d="M-3520-2975a5 5 0 0 1 5-5h390a5 5 0 0 1 5 5v94a5 5 0 0 1-5 5h-390a5 5 0 0 1-5-5z" fill="#fff"/>
        <path d="M-3520-2940v-35a5 5 0 0 1 5-5h390a5 5 0 0 1 5 5v35" fill="#c39bd3"/>
        <path d="M-3520-2975a5 5 0 0 1 5-5h390a5 5 0 0 1 5 5v94a5 5 0 0 1-5 5h-390a5 5 0 0 1-5-5zM-3520-2940h400M-3320-2940v64" stroke="#282c33" fill="none"/>
        <g transform="matrix(1, 0, 0, 1, -3510, -2956.3999996185303)">
            <use transform="matrix(0.05,0,0,0.05,0,0)" href="#p"/>
            <use transform="matrix(0.05,0,0,0.05,12,0)" href="#q"/>
            <use transform="matrix(0.05,0,0,0.05,21,0)" href="#q"/>
            <use transform="matrix(0.05,0,0,0.05,30,0)" href="#r"/>
            <use transform="matrix(0.05,0,0,0.05,40,0)" href="#s"/>
            <use transform="matrix(0.05,0,0,0.05,45,0)" href="#O"/>
            <use transform="matrix(0.05,0,0,0.05,57,0)" href="#G"/>
        </g>
        <g transform="matrix(1, 0, 0, 1, -3515, -2920.3999996185303)">
            <use transform="matrix(0.05,0,0,0.05,0,0)" href="#t"/>
            <use transform="matrix(0.05,0,0,0.05,3.95,0)" href="#u"/>
            <use transform="matrix(0.05,0,0,0.05,13.949999999999998,0)" href="#r"/>
            <use transform="matrix(0.05,0,0,0.05,23.95,0)" href="#v"/>
            <use transform="matrix(0.05,0,0,0.05,33.95,0)" href="#s"/>
            <use transform="matrix(0.05,0,0,0.05,38.95,0)" href="#t"/>
            <use transform="matrix(0.05,0,0,0.05,42.900000000000006,0)" href="#w"/>
            <use transform="matrix(0.05,0,0,0.05,47.900000000000006,0)" href="#t"/>
            <use transform="matrix(0.05,0,0,0.05,51.85,0)" href="#r"/>
            <use transform="matrix(0.05,0,0,0.05,61.85,0)" href="#x"/>
            <use transform="matrix(0.05,0,0,0.05,67.80000000000001,0)" href="#y"/>
            <use transform="matrix(0.05,0,0,0.05,78.45000000000002,0)" href="#z"/>
            <use transform="matrix(0.05,0,0,0.05,88.45000000000002,0)" href="#A"/>
            <use transform="matrix(0.05,0,0,0.05,92.40000000000002,0)" href="#B"/>
            <use transform="matrix(0.05,0,0,0.05,102.40000000000003,0)" href="#r"/>
        </g>
        <g transform="matrix(1, 0, 0, 1, -3315, -2920.3999996185303)">
            <use transform="matrix(0.05,0,0,0.05,0,0)" href="#z"/>
            <use transform="matrix(0.05,0,0,0.05,10,0)" href="#q"/>
            <use transform="matrix(0.05,0,0,0.05,19,0)" href="#s"/>
            <use transform="matrix(0.05,0,0,0.05,24,0)" href="#q"/>
            <use transform="matrix(0.05,0,0,0.05,33,0)" href="#I"/>
            <use transform="matrix(0.05,0,0,0.05,42,0)" href="#C"/>
            <use transform="matrix(0.05,0,0,0.05,47.95,0)" href="#D"/>
            <use transform="matrix(0.05,0,0,0.05,57.95,0)" href="#P"/>
        </g>
        <g transform="matrix(1, 0, 0, 1, -3515, -2888.3999996185303)">
            <use transform="matrix(0.05,0,0,0.05,0,0)" href="#q"/>
            <use transform="matrix(0.05,0,0,0.05,9,0)" href="#s"/>
            <use transform="matrix(0.05,0,0,0.05,14,0)" href="#x"/>
            <use transform="matrix(0.05,0,0,0.05,19.95,0)" href="#B"/>
            <use transform="matrix(0.05,0,0,0.05,29.950000000000003,0)" href="#I"/>
            <use transform="matrix(0.05,0,0,0.05,38.95,0)" href="#s"/>
            <use transform="matrix(0.05,0,0,0.05,43.95,0)" href="#B"/>
            <use transform="matrix(0.05,0,0,0.05,53.95,0)" href="#x"/>
            <use transform="matrix(0.05,0,0,0.05,59.900000000000006,0)" href="#z"/>
            <use transform="matrix(0.05,0,0,0.05,69.9,0)" href="#A"/>
            <use transform="matrix(0.05,0,0,0.05,73.85000000000001,0)" href="#K"/>
            <use transform="matrix(0.05,0,0,0.05,83.80000000000001,0)" href="#L"/>
            <use transform="matrix(0.05,0,0,0.05,92.80000000000001,0)" href="#M"/>
            <use transform="matrix(0.05,0,0,0.05,102.80000000000001,0)" href="#r"/>
        </g>
        <g transform="matrix(1, 0, 0, 1, -3315, -2888.3999996185303)">
            <use transform="matrix(0.05,0,0,0.05,0,0)" href="#u"/>
            <use transform="matrix(0.05,0,0,0.05,10,0)" href="#t"/>
            <use transform="matrix(0.05,0,0,0.05,13.949999999999998,0)" href="#Q"/>
            <use transform="matrix(0.05,0,0,0.05,23.95,0)" href="#t"/>
            <use transform="matrix(0.05,0,0,0.05,27.899999999999995,0)" href="#s"/>
            <use transform="matrix(0.05,0,0,0.05,32.9,0)" href="#z"/>
            <use transform="matrix(0.05,0,0,0.05,42.9,0)" href="#A"/>
            <use transform="matrix(0.05,0,0,0.05,46.85,0)" href="#H"/>
            <use transform="matrix(0.05,0,0,0.05,51.85,0)" href="#t"/>
            <use transform="matrix(0.05,0,0,0.05,55.800000000000004,0)" href="#N"/>
            <use transform="matrix(0.05,0,0,0.05,70.75,0)" href="#z"/>
            <use transform="matrix(0.05,0,0,0.05,80.75,0)" href="#Q"/>
            <use transform="matrix(0.05,0,0,0.05,90.75,0)" href="#r"/>
        </g>
        <path d="M-3773-2859.84h-26v-.95h26zm238-99.68h-118.98l-.88.06-.85.2-.8.34-.75.45-.66.56-.57.65-.45.74-.33.8-.2.84-.08.88v87.68l-.07 1-.24.98-.4.94-.52.87-.66.76-.77.66-.86.53-.94.4-1 .23-.98.08h-34.1v-.95h34.06l.88-.06.85-.2.8-.34.75-.45.66-.56.57-.67.45-.74.33-.8.2-.85.08-.9V-2954l.07-1 .24-.98.4-.94.52-.87.66-.78.77-.66.86-.53.94-.4 1-.23.98-.07H-3535z" stroke="#3a414a" stroke-width=".05" fill="#3a414a"/>
        <path d="M-3799-2859.84h-.5v-.95h.5z" fill="#3a414a"/>
        <path stroke="#3a414a" stroke-width=".05" fill="#3a414a"/>
        <path d="M-3521.5-2960l-13 7.5v-15z" fill="#3a414a"/>
        <path d="M-3520.55-2960l-14.4 8.32-.02-16.64zm-13.46 6.68l11.55-6.68-11.57-6.68z" stroke="#3a414a" stroke-width=".05" fill="#3a414a"/>
        <g transform="matrix(1, 0, 0, 1, -3773.003662109375, -2856.762885093689)">
            <use transform="matrix(0.04938271604938272,0,0,0.04938271604938272,0,0)" href="#R"/>
            <use transform="matrix(0.04938271604938272,0,0,0.04938271604938272,12.790123456790125,0)" href="#S"/>
            <use transform="matrix(0.04938271604938272,0,0,0.04938271604938272,22.66666666666667,0)" href="#S"/>
            <use transform="matrix(0.04938271604938272,0,0,0.04938271604938272,32.543209876543216,0)" href="#T"/>
            <use transform="matrix(0.04938271604938272,0,0,0.04938271604938272,42.41975308641976,0)" href="#U"/>
            <use transform="matrix(0.04938271604938272,0,0,0.04938271604938272,48.296296296296305,0)" href="#V"/>
            <use transform="matrix(0.04938271604938272,0,0,0.04938271604938272,60.14814814814817,0)" href="#W"/>
        </g>
        <path d="M-4200-3055a5 5 0 0 1 5-5h390a5 5 0 0 1 5 5v94a5 5 0 0 1-5 5h-390a5 5 0 0 1-5-5z" fill="#fff"/>
        <path d="M-4200-3020v-35a5 5 0 0 1 5-5h390a5 5 0 0 1 5 5v35" fill="#ebdef0"/>
        <path d="M-4200-3055a5 5 0 0 1 5-5h390a5 5 0 0 1 5 5v94a5 5 0 0 1-5 5h-390a5 5 0 0 1-5-5zM-4200-3020h400M-4000-3020v64" stroke="#282c33" fill="none"/>
        <g transform="matrix(1, 0, 0, 1, -4190, -3036.3999996185303)">
            <use transform="matrix(0.05,0,0,0.05,0,0)" href="#p"/>
            <use transform="matrix(0.05,0,0,0.05,12,0)" href="#q"/>
            <use transform="matrix(0.05,0,0,0.05,21,0)" href="#q"/>
            <use transform="matrix(0.05,0,0,0.05,30,0)" href="#r"/>
            <use transform="matrix(0.05,0,0,0.05,40,0)" href="#s"/>
        </g>
        <g transform="matrix(1, 0, 0, 1, -4195, -3000.3999996185303)">
            <use transform="matrix(0.05,0,0,0.05,0,0)" href="#t"/>
            <use transform="matrix(0.05,0,0,0.05,3.95,0)" href="#u"/>
            <use transform="matrix(0.05,0,0,0.05,13.949999999999998,0)" href="#r"/>
            <use transform="matrix(0.05,0,0,0.05,23.95,0)" href="#v"/>
            <use transform="matrix(0.05,0,0,0.05,33.95,0)" href="#s"/>
            <use transform="matrix(0.05,0,0,0.05,38.95,0)" href="#t"/>
            <use transform="matrix(0.05,0,0,0.05,42.900000000000006,0)" href="#w"/>
            <use transform="matrix(0.05,0,0,0.05,47.900000000000006,0)" href="#t"/>
            <use transform="matrix(0.05,0,0,0.05,51.85,0)" href="#r"/>
            <use transform="matrix(0.05,0,0,0.05,61.85,0)" href="#x"/>
            <use transform="matrix(0.05,0,0,0.05,67.80000000000001,0)" href="#y"/>
            <use transform="matrix(0.05,0,0,0.05,78.45000000000002,0)" href="#z"/>
            <use transform="matrix(0.05,0,0,0.05,88.45000000000002,0)" href="#A"/>
            <use transform="matrix(0.05,0,0,0.05,92.40000000000002,0)" href="#B"/>
            <use transform="matrix(0.05,0,0,0.05,102.40000000000003,0)" href="#r"/>
        </g>
        <g transform="matrix(1, 0, 0, 1, -3995, -3000.3999996185303)">
            <use transform="matrix(0.05,0,0,0.05,0,0)" href="#z"/>
            <use transform="matrix(0.05,0,0,0.05,10,0)" href="#q"/>
            <use transform="matrix(0.05,0,0,0.05,19,0)" href="#s"/>
            <use transform="matrix(0.05,0,0,0.05,24,0)" href="#C"/>
            <use transform="matrix(0.05,0,0,0.05,29.950000000000003,0)" href="#D"/>
            <use transform="matrix(0.05,0,0,0.05,39.95,0)" href="#P"/>
        </g>
        <g transform="matrix(1, 0, 0, 1, -4195, -2968.3999996185303)">
            <use transform="matrix(0.05,0,0,0.05,0,0)" href="#z"/>
            <use transform="matrix(0.05,0,0,0.05,10,0)" href="#q"/>
            <use transform="matrix(0.05,0,0,0.05,19,0)" href="#q"/>
            <use transform="matrix(0.05,0,0,0.05,28,0)" href="#r"/>
            <use transform="matrix(0.05,0,0,0.05,38,0)" href="#s"/>
            <use transform="matrix(0.05,0,0,0.05,43,0)" href="#F"/>
            <use transform="matrix(0.05,0,0,0.05,53.95,0)" href="#G"/>
            <use transform="matrix(0.05,0,0,0.05,66.9,0)" href="#H"/>
            <use transform="matrix(0.05,0,0,0.05,71.9,0)" href="#w"/>
            <use transform="matrix(0.05,0,0,0.05,76.9,0)" href="#B"/>
            <use transform="matrix(0.05,0,0,0.05,86.9,0)" href="#v"/>
            <use transform="matrix(0.05,0,0,0.05,96.9,0)" href="#I"/>
            <use transform="matrix(0.05,0,0,0.05,105.9,0)" href="#s"/>
            <use transform="matrix(0.05,0,0,0.05,110.9,0)" href="#t"/>
            <use transform="matrix(0.05,0,0,0.05,114.85000000000001,0)" href="#J"/>
            <use transform="matrix(0.05,0,0,0.05,124.85000000000001,0)" href="#v"/>
            <use transform="matrix(0.05,0,0,0.05,134.85000000000002,0)" href="#z"/>
            <use transform="matrix(0.05,0,0,0.05,144.85000000000002,0)" href="#A"/>
            <use transform="matrix(0.05,0,0,0.05,148.8,0)" href="#K"/>
            <use transform="matrix(0.05,0,0,0.05,158.75,0)" href="#L"/>
            <use transform="matrix(0.05,0,0,0.05,167.75,0)" href="#M"/>
            <use transform="matrix(0.05,0,0,0.05,177.75,0)" href="#r"/>
        </g>
        <g transform="matrix(1, 0, 0, 1, -3995, -2968.3999996185303)">
            <use transform="matrix(0.05,0,0,0.05,0,0)" href="#s"/>
            <use transform="matrix(0.05,0,0,0.05,5,0)" href="#r"/>
            <use transform="matrix(0.05,0,0,0.05,15,0)" href="#I"/>
            <use transform="matrix(0.05,0,0,0.05,24,0)" href="#X"/>
            <use transform="matrix(0.05,0,0,0.05,34,0)" href="#v"/>
            <use transform="matrix(0.05,0,0,0.05,44,0)" href="#t"/>
            <use transform="matrix(0.05,0,0,0.05,47.95,0)" href="#I"/>
            <use transform="matrix(0.05,0,0,0.05,56.95,0)" href="#z"/>
            <use transform="matrix(0.05,0,0,0.05,66.95,0)" href="#A"/>
            <use transform="matrix(0.05,0,0,0.05,70.9,0)" href="#Y"/>
            <use transform="matrix(0.05,0,0,0.05,83.85000000000001,0)" href="#r"/>
            <use transform="matrix(0.05,0,0,0.05,93.85000000000001,0)" href="#w"/>
            <use transform="matrix(0.05,0,0,0.05,98.85000000000001,0)" href="#r"/>
            <use transform="matrix(0.05,0,0,0.05,108.85000000000001,0)" href="#x"/>
            <use transform="matrix(0.05,0,0,0.05,114.80000000000001,0)" href="#r"/>
            <use transform="matrix(0.05,0,0,0.05,124.80000000000001,0)" href="#v"/>
            <use transform="matrix(0.05,0,0,0.05,134.8,0)" href="#I"/>
            <use transform="matrix(0.05,0,0,0.05,143.8,0)" href="#r"/>
        </g>
        <path d="M-3665-3040.4l1 .24.94.4.87.52.78.66.66.77.53.86.4.94.23 1 .07.98v67.92l.07.88.2.85.34.8.45.74.56.66.65.56.74.44.8.33.84.2.88.08h119v.95h-119.04l-1-.08-.98-.24-.94-.4-.87-.52-.78-.66-.66-.77-.53-.87-.4-.94-.23-1-.07-.98v-67.92l-.08-.88-.2-.85-.33-.8-.45-.75-.56-.66-.65-.57-.74-.45-.8-.33-.84-.2-.88-.08h-37.78v-.94h37.82zm-134 .88v-.95h26.1v.94z" stroke="#3a414a" stroke-width=".05" fill="#3a414a"/>
        <path d="M-3799-3039.53h-.5v-.94h.5z" fill="#3a414a"/>
        <path stroke="#3a414a" stroke-width=".05" fill="#3a414a"/>
        <path d="M-3521.5-2960.08l-13 7.5v-15z" fill="#3a414a"/>
        <path d="M-3520.55-2960.08l-14.4 8.32-.02-16.64zm-13.46 6.68l11.55-6.68-11.57-6.68z" stroke="#3a414a" stroke-width=".05" fill="#3a414a"/>
        <g transform="matrix(1, 0, 0, 1, -3772.890380859375, -3036.444525718689)">
            <use transform="matrix(0.04938271604938272,0,0,0.04938271604938272,0,0)" href="#p"/>
            <use transform="matrix(0.04938271604938272,0,0,0.04938271604938272,11.851851851851853,0)" href="#q"/>
            <use transform="matrix(0.04938271604938272,0,0,0.04938271604938272,20.74074074074074,0)" href="#q"/>
            <use transform="matrix(0.04938271604938272,0,0,0.04938271604938272,29.629629629629633,0)" href="#r"/>
            <use transform="matrix(0.04938271604938272,0,0,0.04938271604938272,39.50617283950618,0)" href="#s"/>
            <use transform="matrix(0.04938271604938272,0,0,0.04938271604938272,44.44444444444445,0)" href="#O"/>
            <use transform="matrix(0.04938271604938272,0,0,0.04938271604938272,56.2962962962963,0)" href="#G"/>
        </g>
        <defs>
            <path fill="#333" d="M205 0l-28-72H64L36 0H1l101-248h38L239 0h-34zm-38-99l-47-123c-12 45-31 82-46 123h93" id="p"/>
            <path fill="#333" d="M135-143c-3-34-86-38-87 0 15 53 115 12 119 90S17 21 10-45l28-5c4 36 97 45 98 0-10-56-113-15-118-90-4-57 82-63 122-42 12 7 21 19 24 35" id="q"/>
            <path fill="#333" d="M100-194c63 0 86 42 84 106H49c0 40 14 67 53 68 26 1 43-12 49-29l28 8c-11 28-37 45-77 45C44 4 14-33 15-96c1-61 26-98 85-98zm52 81c6-60-76-77-97-28-3 7-6 17-6 28h103" id="r"/>
            <path fill="#333" d="M59-47c-2 24 18 29 38 22v24C64 9 27 4 27-40v-127H5v-23h24l9-43h21v43h35v23H59v120" id="s"/>
            <g id="a">
                <path fill="#333" d="M205 0l-28-72H64L36 0H1l101-248h38L239 0h-34zm-38-99l-47-123c-12 45-31 82-46 123h93" transform="matrix(0.05000000447034836, 0, 0, 0.05000000447034836, 0, 0)"/>
                <path fill="#333" d="M135-143c-3-34-86-38-87 0 15 53 115 12 119 90S17 21 10-45l28-5c4 36 97 45 98 0-10-56-113-15-118-90-4-57 82-63 122-42 12 7 21 19 24 35" transform="matrix(0.05000000447034836, 0, 0, 0.05000000447034836, 12, 0)"/>
                <path fill="#333" d="M135-143c-3-34-86-38-87 0 15 53 115 12 119 90S17 21 10-45l28-5c4 36 97 45 98 0-10-56-113-15-118-90-4-57 82-63 122-42 12 7 21 19 24 35" transform="matrix(0.05000000447034836, 0, 0, 0.05000000447034836, 21, 0)"/>
                <path fill="#333" d="M100-194c63 0 86 42 84 106H49c0 40 14 67 53 68 26 1 43-12 49-29l28 8c-11 28-37 45-77 45C44 4 14-33 15-96c1-61 26-98 85-98zm52 81c6-60-76-77-97-28-3 7-6 17-6 28h103" transform="matrix(0.05000000447034836, 0, 0, 0.05000000447034836, 30, 0)"/>
                <path fill="#333" d="M59-47c-2 24 18 29 38 22v24C64 9 27 4 27-40v-127H5v-23h24l9-43h21v43h35v23H59v120" transform="matrix(0.05000000447034836, 0, 0, 0.05000000447034836, 40, 0)"/>
            </g>
            <path fill="#333" d="M24-231v-30h32v30H24zM24 0v-190h32V0H24" id="t"/>
            <path fill="#333" d="M85-194c31 0 48 13 60 33l-1-100h32l1 261h-30c-2-10 0-23-3-31C134-8 116 4 85 4 32 4 16-35 15-94c0-66 23-100 70-100zm9 24c-40 0-46 34-46 75 0 40 6 74 45 74 42 0 51-32 51-76 0-42-9-74-50-73" id="u"/>
            <path fill="#333" d="M117-194c89-4 53 116 60 194h-32v-121c0-31-8-49-39-48C34-167 62-67 57 0H25l-1-190h30c1 10-1 24 2 32 11-22 29-35 61-36" id="v"/>
            <path fill="#333" d="M101-234c-31-9-42 10-38 44h38v23H63V0H32v-167H5v-23h27c-7-52 17-82 69-68v24" id="w"/>
            <path fill="#333" d="M114-163C36-179 61-72 57 0H25l-1-190h30c1 12-1 29 2 39 6-27 23-49 58-41v29" id="x"/>
            <path fill="#333" d="M137 0h-34L2-248h35l83 218 83-218h36" id="y"/>
            <path fill="#333" d="M141-36C126-15 110 5 73 4 37 3 15-17 15-53c-1-64 63-63 125-63 3-35-9-54-41-54-24 1-41 7-42 31l-33-3c5-37 33-52 76-52 45 0 72 20 72 64v82c-1 20 7 32 28 27v20c-31 9-61-2-59-35zM48-53c0 20 12 33 32 33 41-3 63-29 60-74-43 2-92-5-92 41" id="z"/>
            <path fill="#333" d="M24 0v-261h32V0H24" id="A"/>
            <path fill="#333" d="M84 4C-5 8 30-112 23-190h32v120c0 31 7 50 39 49 72-2 45-101 50-169h31l1 190h-30c-1-10 1-25-2-33-11 22-28 36-60 37" id="B"/>
            <g id="b">
                <path fill="#333" d="M24-231v-30h32v30H24zM24 0v-190h32V0H24" transform="matrix(0.05000000447034836, 0, 0, 0.05000000447034836, 0, 0)"/>
                <path fill="#333" d="M85-194c31 0 48 13 60 33l-1-100h32l1 261h-30c-2-10 0-23-3-31C134-8 116 4 85 4 32 4 16-35 15-94c0-66 23-100 70-100zm9 24c-40 0-46 34-46 75 0 40 6 74 45 74 42 0 51-32 51-76 0-42-9-74-50-73" transform="matrix(0.05000000447034836, 0, 0, 0.05000000447034836, 3.950000047683716, 0)"/>
                <path fill="#333" d="M100-194c63 0 86 42 84 106H49c0 40 14 67 53 68 26 1 43-12 49-29l28 8c-11 28-37 45-77 45C44 4 14-33 15-96c1-61 26-98 85-98zm52 81c6-60-76-77-97-28-3 7-6 17-6 28h103" transform="matrix(0.05000000447034836, 0, 0, 0.05000000447034836, 13.949999809265137, 0)"/>
                <path fill="#333" d="M117-194c89-4 53 116 60 194h-32v-121c0-31-8-49-39-48C34-167 62-67 57 0H25l-1-190h30c1 10-1 24 2 32 11-22 29-35 61-36" transform="matrix(0.05000000447034836, 0, 0, 0.05000000447034836, 23.950000762939453, 0)"/>
                <path fill="#333" d="M59-47c-2 24 18 29 38 22v24C64 9 27 4 27-40v-127H5v-23h24l9-43h21v43h35v23H59v120" transform="matrix(0.05000000447034836, 0, 0, 0.05000000447034836, 33.95000076293945, 0)"/>
                <path fill="#333" d="M24-231v-30h32v30H24zM24 0v-190h32V0H24" transform="matrix(0.05000000447034836, 0, 0, 0.05000000447034836, 38.95000076293945, 0)"/>
                <path fill="#333" d="M101-234c-31-9-42 10-38 44h38v23H63V0H32v-167H5v-23h27c-7-52 17-82 69-68v24" transform="matrix(0.05000000447034836, 0, 0, 0.05000000447034836, 42.900001525878906, 0)"/>
                <path fill="#333" d="M24-231v-30h32v30H24zM24 0v-190h32V0H24" transform="matrix(0.05000000447034836, 0, 0, 0.05000000447034836, 47.900001525878906, 0)"/>
                <path fill="#333" d="M100-194c63 0 86 42 84 106H49c0 40 14 67 53 68 26 1 43-12 49-29l28 8c-11 28-37 45-77 45C44 4 14-33 15-96c1-61 26-98 85-98zm52 81c6-60-76-77-97-28-3 7-6 17-6 28h103" transform="matrix(0.05000000447034836, 0, 0, 0.05000000447034836, 51.849998474121094, 0)"/>
                <path fill="#333" d="M114-163C36-179 61-72 57 0H25l-1-190h30c1 12-1 29 2 39 6-27 23-49 58-41v29" transform="matrix(0.05000000447034836, 0, 0, 0.05000000447034836, 61.849998474121094, 0)"/>
                <path fill="#333" d="M137 0h-34L2-248h35l83 218 83-218h36" transform="matrix(0.05000000447034836, 0, 0, 0.05000000447034836, 67.80000305175781, 0)"/>
                <path fill="#333" d="M141-36C126-15 110 5 73 4 37 3 15-17 15-53c-1-64 63-63 125-63 3-35-9-54-41-54-24 1-41 7-42 31l-33-3c5-37 33-52 76-52 45 0 72 20 72 64v82c-1 20 7 32 28 27v20c-31 9-61-2-59-35zM48-53c0 20 12 33 32 33 41-3 63-29 60-74-43 2-92-5-92 41" transform="matrix(0.05000000447034836, 0, 0, 0.05000000447034836, 78.44999694824219, 0)"/>
                <path fill="#333" d="M24 0v-261h32V0H24" transform="matrix(0.05000000447034836, 0, 0, 0.05000000447034836, 88.44999694824219, 0)"/>
                <path fill="#333" d="M84 4C-5 8 30-112 23-190h32v120c0 31 7 50 39 49 72-2 45-101 50-169h31l1 190h-30c-1-10 1-25-2-33-11 22-28 36-60 37" transform="matrix(0.05000000447034836, 0, 0, 0.05000000447034836, 92.4000015258789, 0)"/>
                <path fill="#333" d="M100-194c63 0 86 42 84 106H49c0 40 14 67 53 68 26 1 43-12 49-29l28 8c-11 28-37 45-77 45C44 4 14-33 15-96c1-61 26-98 85-98zm52 81c6-60-76-77-97-28-3 7-6 17-6 28h103" transform="matrix(0.05000000447034836, 0, 0, 0.05000000447034836, 102.4000015258789, 0)"/>
            </g>
            <path fill="#333" d="M16-82v-28h88v28H16" id="C"/>
            <path fill="#333" d="M101-251c68 0 85 55 85 127S166 4 100 4C33 4 14-52 14-124c0-73 17-127 87-127zm-1 229c47 0 54-49 54-102s-4-102-53-102c-51 0-55 48-55 102 0 53 5 102 54 102" id="D"/>
            <path fill="#333" d="M101-251c82-7 93 87 43 132L82-64C71-53 59-42 53-27h129V0H18c2-99 128-94 128-182 0-28-16-43-45-43s-46 15-49 41l-32-3c6-41 34-60 81-64" id="E"/>
            <g id="c">
                <path fill="#333" d="M141-36C126-15 110 5 73 4 37 3 15-17 15-53c-1-64 63-63 125-63 3-35-9-54-41-54-24 1-41 7-42 31l-33-3c5-37 33-52 76-52 45 0 72 20 72 64v82c-1 20 7 32 28 27v20c-31 9-61-2-59-35zM48-53c0 20 12 33 32 33 41-3 63-29 60-74-43 2-92-5-92 41" transform="matrix(0.05000000447034836, 0, 0, 0.05000000447034836, 0, 0)"/>
                <path fill="#333" d="M135-143c-3-34-86-38-87 0 15 53 115 12 119 90S17 21 10-45l28-5c4 36 97 45 98 0-10-56-113-15-118-90-4-57 82-63 122-42 12 7 21 19 24 35" transform="matrix(0.05000000447034836, 0, 0, 0.05000000447034836, 10, 0)"/>
                <path fill="#333" d="M59-47c-2 24 18 29 38 22v24C64 9 27 4 27-40v-127H5v-23h24l9-43h21v43h35v23H59v120" transform="matrix(0.05000000447034836, 0, 0, 0.05000000447034836, 19, 0)"/>
                <path fill="#333" d="M16-82v-28h88v28H16" transform="matrix(0.05000000447034836, 0, 0, 0.05000000447034836, 24, 0)"/>
                <path fill="#333" d="M101-251c68 0 85 55 85 127S166 4 100 4C33 4 14-52 14-124c0-73 17-127 87-127zm-1 229c47 0 54-49 54-102s-4-102-53-102c-51 0-55 48-55 102 0 53 5 102 54 102" transform="matrix(0.05000000447034836, 0, 0, 0.05000000447034836, 29.950000762939453, 0)"/>
                <path fill="#333" d="M101-251c82-7 93 87 43 132L82-64C71-53 59-42 53-27h129V0H18c2-99 128-94 128-182 0-28-16-43-45-43s-46 15-49 41l-32-3c6-41 34-60 81-64" transform="matrix(0.05000000447034836, 0, 0, 0.05000000447034836, 39.95000076293945, 0)"/>
            </g>
            <path fill="#333" d="M63-220v92h138v28H63V0H30v-248h175v28H63" id="F"/>
            <path fill="#333" d="M212-179c-10-28-35-45-73-45-59 0-87 40-87 99 0 60 29 101 89 101 43 0 62-24 78-52l27 14C228-24 195 4 139 4 59 4 22-46 18-125c-6-104 99-153 187-111 19 9 31 26 39 46" id="G"/>
            <path fill="#333" d="M33 0v-38h34V0H33" id="H"/>
            <path fill="#333" d="M96-169c-40 0-48 33-48 73s9 75 48 75c24 0 41-14 43-38l32 2c-6 37-31 61-74 61-59 0-76-41-82-99-10-93 101-131 147-64 4 7 5 14 7 22l-32 3c-4-21-16-35-41-35" id="I"/>
            <path fill="#333" d="M100-194c62-1 85 37 85 99 1 63-27 99-86 99S16-35 15-95c0-66 28-99 85-99zM99-20c44 1 53-31 53-75 0-43-8-75-51-75s-53 32-53 75 10 74 51 75" id="J"/>
            <path fill="#333" d="M127-220V0H93v-220H8v-28h204v28h-85" id="K"/>
            <path fill="#333" d="M179-190L93 31C79 59 56 82 12 73V49c39 6 53-20 64-50L1-190h34L92-34l54-156h33" id="L"/>
            <path fill="#333" d="M115-194c55 1 70 41 70 98S169 2 115 4C84 4 66-9 55-30l1 105H24l-1-265h31l2 30c10-21 28-34 59-34zm-8 174c40 0 45-34 45-75s-6-73-45-74c-42 0-51 32-51 76 0 43 10 73 51 73" id="M"/>
            <g id="d">
                <path fill="#333" d="M141-36C126-15 110 5 73 4 37 3 15-17 15-53c-1-64 63-63 125-63 3-35-9-54-41-54-24 1-41 7-42 31l-33-3c5-37 33-52 76-52 45 0 72 20 72 64v82c-1 20 7 32 28 27v20c-31 9-61-2-59-35zM48-53c0 20 12 33 32 33 41-3 63-29 60-74-43 2-92-5-92 41" transform="matrix(0.05000000447034836, 0, 0, 0.05000000447034836, 0, 0)"/>
                <path fill="#333" d="M135-143c-3-34-86-38-87 0 15 53 115 12 119 90S17 21 10-45l28-5c4 36 97 45 98 0-10-56-113-15-118-90-4-57 82-63 122-42 12 7 21 19 24 35" transform="matrix(0.05000000447034836, 0, 0, 0.05000000447034836, 10, 0)"/>
                <path fill="#333" d="M135-143c-3-34-86-38-87 0 15 53 115 12 119 90S17 21 10-45l28-5c4 36 97 45 98 0-10-56-113-15-118-90-4-57 82-63 122-42 12 7 21 19 24 35" transform="matrix(0.05000000447034836, 0, 0, 0.05000000447034836, 19, 0)"/>
                <path fill="#333" d="M100-194c63 0 86 42 84 106H49c0 40 14 67 53 68 26 1 43-12 49-29l28 8c-11 28-37 45-77 45C44 4 14-33 15-96c1-61 26-98 85-98zm52 81c6-60-76-77-97-28-3 7-6 17-6 28h103" transform="matrix(0.05000000447034836, 0, 0, 0.05000000447034836, 28, 0)"/>
                <path fill="#333" d="M59-47c-2 24 18 29 38 22v24C64 9 27 4 27-40v-127H5v-23h24l9-43h21v43h35v23H59v120" transform="matrix(0.05000000447034836, 0, 0, 0.05000000447034836, 38, 0)"/>
                <path fill="#333" d="M63-220v92h138v28H63V0H30v-248h175v28H63" transform="matrix(0.05000000447034836, 0, 0, 0.05000000447034836, 43, 0)"/>
                <path fill="#333" d="M212-179c-10-28-35-45-73-45-59 0-87 40-87 99 0 60 29 101 89 101 43 0 62-24 78-52l27 14C228-24 195 4 139 4 59 4 22-46 18-125c-6-104 99-153 187-111 19 9 31 26 39 46" transform="matrix(0.05000000447034836, 0, 0, 0.05000000447034836, 53.95000076293945, 0)"/>
                <path fill="#333" d="M33 0v-38h34V0H33" transform="matrix(0.05000000447034836, 0, 0, 0.05000000447034836, 66.9000015258789, 0)"/>
                <path fill="#333" d="M101-234c-31-9-42 10-38 44h38v23H63V0H32v-167H5v-23h27c-7-52 17-82 69-68v24" transform="matrix(0.05000000447034836, 0, 0, 0.05000000447034836, 71.9000015258789, 0)"/>
                <path fill="#333" d="M84 4C-5 8 30-112 23-190h32v120c0 31 7 50 39 49 72-2 45-101 50-169h31l1 190h-30c-1-10 1-25-2-33-11 22-28 36-60 37" transform="matrix(0.05000000447034836, 0, 0, 0.05000000447034836, 76.9000015258789, 0)"/>
                <path fill="#333" d="M117-194c89-4 53 116 60 194h-32v-121c0-31-8-49-39-48C34-167 62-67 57 0H25l-1-190h30c1 10-1 24 2 32 11-22 29-35 61-36" transform="matrix(0.05000000447034836, 0, 0, 0.05000000447034836, 86.9000015258789, 0)"/>
                <path fill="#333" d="M96-169c-40 0-48 33-48 73s9 75 48 75c24 0 41-14 43-38l32 2c-6 37-31 61-74 61-59 0-76-41-82-99-10-93 101-131 147-64 4 7 5 14 7 22l-32 3c-4-21-16-35-41-35" transform="matrix(0.05000000447034836, 0, 0, 0.05000000447034836, 96.9000015258789, 0)"/>
                <path fill="#333" d="M59-47c-2 24 18 29 38 22v24C64 9 27 4 27-40v-127H5v-23h24l9-43h21v43h35v23H59v120" transform="matrix(0.05000000447034836, 0, 0, 0.05000000447034836, 105.9000015258789, 0)"/>
                <path fill="#333" d="M24-231v-30h32v30H24zM24 0v-190h32V0H24" transform="matrix(0.05000000447034836, 0, 0, 0.05000000447034836, 110.9000015258789, 0)"/>
                <path fill="#333" d="M100-194c62-1 85 37 85 99 1 63-27 99-86 99S16-35 15-95c0-66 28-99 85-99zM99-20c44 1 53-31 53-75 0-43-8-75-51-75s-53 32-53 75 10 74 51 75" transform="matrix(0.05000000447034836, 0, 0, 0.05000000447034836, 114.8499984741211, 0)"/>
                <path fill="#333" d="M117-194c89-4 53 116 60 194h-32v-121c0-31-8-49-39-48C34-167 62-67 57 0H25l-1-190h30c1 10-1 24 2 32 11-22 29-35 61-36" transform="matrix(0.05000000447034836, 0, 0, 0.05000000447034836, 124.8499984741211, 0)"/>
                <path fill="#333" d="M141-36C126-15 110 5 73 4 37 3 15-17 15-53c-1-64 63-63 125-63 3-35-9-54-41-54-24 1-41 7-42 31l-33-3c5-37 33-52 76-52 45 0 72 20 72 64v82c-1 20 7 32 28 27v20c-31 9-61-2-59-35zM48-53c0 20 12 33 32 33 41-3 63-29 60-74-43 2-92-5-92 41" transform="matrix(0.05000000447034836, 0, 0, 0.05000000447034836, 134.85000610351562, 0)"/>
                <path fill="#333" d="M24 0v-261h32V0H24" transform="matrix(0.05000000447034836, 0, 0, 0.05000000447034836, 144.85000610351562, 0)"/>
                <path fill="#333" d="M127-220V0H93v-220H8v-28h204v28h-85" transform="matrix(0.05000000447034836, 0, 0, 0.05000000447034836, 148.8000030517578, 0)"/>
                <path fill="#333" d="M179-190L93 31C79 59 56 82 12 73V49c39 6 53-20 64-50L1-190h34L92-34l54-156h33" transform="matrix(0.05000000447034836, 0, 0, 0.05000000447034836, 158.75, 0)"/>
                <path fill="#333" d="M115-194c55 1 70 41 70 98S169 2 115 4C84 4 66-9 55-30l1 105H24l-1-265h31l2 30c10-21 28-34 59-34zm-8 174c40 0 45-34 45-75s-6-73-45-74c-42 0-51 32-51 76 0 43 10 73 51 73" transform="matrix(0.05000000447034836, 0, 0, 0.05000000447034836, 167.75, 0)"/>
                <path fill="#333" d="M100-194c63 0 86 42 84 106H49c0 40 14 67 53 68 26 1 43-12 49-29l28 8c-11 28-37 45-77 45C44 4 14-33 15-96c1-61 26-98 85-98zm52 81c6-60-76-77-97-28-3 7-6 17-6 28h103" transform="matrix(0.05000000447034836, 0, 0, 0.05000000447034836, 177.75, 0)"/>
            </g>
            <path fill="#333" d="M210-169c-67 3-38 105-44 169h-31v-121c0-29-5-50-35-48C34-165 62-65 56 0H25l-1-190h30c1 10-1 24 2 32 10-44 99-50 107 0 11-21 27-35 58-36 85-2 47 119 55 194h-31v-121c0-29-5-49-35-48" id="N"/>
            <g id="e">
                <path fill="#333" d="M210-169c-67 3-38 105-44 169h-31v-121c0-29-5-50-35-48C34-165 62-65 56 0H25l-1-190h30c1 10-1 24 2 32 10-44 99-50 107 0 11-21 27-35 58-36 85-2 47 119 55 194h-31v-121c0-29-5-49-35-48" transform="matrix(0.05000000447034836, 0, 0, 0.05000000447034836, 0, 0)"/>
                <path fill="#333" d="M141-36C126-15 110 5 73 4 37 3 15-17 15-53c-1-64 63-63 125-63 3-35-9-54-41-54-24 1-41 7-42 31l-33-3c5-37 33-52 76-52 45 0 72 20 72 64v82c-1 20 7 32 28 27v20c-31 9-61-2-59-35zM48-53c0 20 12 33 32 33 41-3 63-29 60-74-43 2-92-5-92 41" transform="matrix(0.05000000447034836, 0, 0, 0.05000000447034836, 14.949999809265137, 0)"/>
                <path fill="#333" d="M115-194c55 1 70 41 70 98S169 2 115 4C84 4 66-9 55-30l1 105H24l-1-265h31l2 30c10-21 28-34 59-34zm-8 174c40 0 45-34 45-75s-6-73-45-74c-42 0-51 32-51 76 0 43 10 73 51 73" transform="matrix(0.05000000447034836, 0, 0, 0.05000000447034836, 24.950000762939453, 0)"/>
            </g>
            <g id="f">
                <path fill="#333" d="M141-36C126-15 110 5 73 4 37 3 15-17 15-53c-1-64 63-63 125-63 3-35-9-54-41-54-24 1-41 7-42 31l-33-3c5-37 33-52 76-52 45 0 72 20 72 64v82c-1 20 7 32 28 27v20c-31 9-61-2-59-35zM48-53c0 20 12 33 32 33 41-3 63-29 60-74-43 2-92-5-92 41" transform="matrix(0.05000000447034836, 0, 0, 0.05000000447034836, 0, 0)"/>
                <path fill="#333" d="M135-143c-3-34-86-38-87 0 15 53 115 12 119 90S17 21 10-45l28-5c4 36 97 45 98 0-10-56-113-15-118-90-4-57 82-63 122-42 12 7 21 19 24 35" transform="matrix(0.05000000447034836, 0, 0, 0.05000000447034836, 10, 0)"/>
                <path fill="#333" d="M135-143c-3-34-86-38-87 0 15 53 115 12 119 90S17 21 10-45l28-5c4 36 97 45 98 0-10-56-113-15-118-90-4-57 82-63 122-42 12 7 21 19 24 35" transform="matrix(0.05000000447034836, 0, 0, 0.05000000447034836, 19, 0)"/>
                <path fill="#333" d="M100-194c63 0 86 42 84 106H49c0 40 14 67 53 68 26 1 43-12 49-29l28 8c-11 28-37 45-77 45C44 4 14-33 15-96c1-61 26-98 85-98zm52 81c6-60-76-77-97-28-3 7-6 17-6 28h103" transform="matrix(0.05000000447034836, 0, 0, 0.05000000447034836, 28, 0)"/>
                <path fill="#333" d="M59-47c-2 24 18 29 38 22v24C64 9 27 4 27-40v-127H5v-23h24l9-43h21v43h35v23H59v120" transform="matrix(0.05000000447034836, 0, 0, 0.05000000447034836, 38, 0)"/>
                <path fill="#333" d="M63-220v92h138v28H63V0H30v-248h175v28H63" transform="matrix(0.05000000447034836, 0, 0, 0.05000000447034836, 43, 0)"/>
                <path fill="#333" d="M212-179c-10-28-35-45-73-45-59 0-87 40-87 99 0 60 29 101 89 101 43 0 62-24 78-52l27 14C228-24 195 4 139 4 59 4 22-46 18-125c-6-104 99-153 187-111 19 9 31 26 39 46" transform="matrix(0.05000000447034836, 0, 0, 0.05000000447034836, 53.95000076293945, 0)"/>
                <path fill="#333" d="M33 0v-38h34V0H33" transform="matrix(0.05000000447034836, 0, 0, 0.05000000447034836, 66.9000015258789, 0)"/>
                <path fill="#333" d="M210-169c-67 3-38 105-44 169h-31v-121c0-29-5-50-35-48C34-165 62-65 56 0H25l-1-190h30c1 10-1 24 2 32 10-44 99-50 107 0 11-21 27-35 58-36 85-2 47 119 55 194h-31v-121c0-29-5-49-35-48" transform="matrix(0.05000000447034836, 0, 0, 0.05000000447034836, 71.9000015258789, 0)"/>
                <path fill="#333" d="M141-36C126-15 110 5 73 4 37 3 15-17 15-53c-1-64 63-63 125-63 3-35-9-54-41-54-24 1-41 7-42 31l-33-3c5-37 33-52 76-52 45 0 72 20 72 64v82c-1 20 7 32 28 27v20c-31 9-61-2-59-35zM48-53c0 20 12 33 32 33 41-3 63-29 60-74-43 2-92-5-92 41" transform="matrix(0.05000000447034836, 0, 0, 0.05000000447034836, 86.8499984741211, 0)"/>
                <path fill="#333" d="M115-194c55 1 70 41 70 98S169 2 115 4C84 4 66-9 55-30l1 105H24l-1-265h31l2 30c10-21 28-34 59-34zm-8 174c40 0 45-34 45-75s-6-73-45-74c-42 0-51 32-51 76 0 43 10 73 51 73" transform="matrix(0.05000000447034836, 0, 0, 0.05000000447034836, 96.8499984741211, 0)"/>
                <path fill="#333" d="M63-220v92h138v28H63V0H30v-248h175v28H63" transform="matrix(0.05000000447034836, 0, 0, 0.05000000447034836, 106.8499984741211, 0)"/>
                <path fill="#333" d="M100-194c62-1 85 37 85 99 1 63-27 99-86 99S16-35 15-95c0-66 28-99 85-99zM99-20c44 1 53-31 53-75 0-43-8-75-51-75s-53 32-53 75 10 74 51 75" transform="matrix(0.05000000447034836, 0, 0, 0.05000000447034836, 117.80000305175781, 0)"/>
                <path fill="#333" d="M114-163C36-179 61-72 57 0H25l-1-190h30c1 12-1 29 2 39 6-27 23-49 58-41v29" transform="matrix(0.05000000447034836, 0, 0, 0.05000000447034836, 127.80000305175781, 0)"/>
                <path fill="#333" d="M210-169c-67 3-38 105-44 169h-31v-121c0-29-5-50-35-48C34-165 62-65 56 0H25l-1-190h30c1 10-1 24 2 32 10-44 99-50 107 0 11-21 27-35 58-36 85-2 47 119 55 194h-31v-121c0-29-5-49-35-48" transform="matrix(0.05000000447034836, 0, 0, 0.05000000447034836, 133.75, 0)"/>
                <path fill="#333" d="M141-36C126-15 110 5 73 4 37 3 15-17 15-53c-1-64 63-63 125-63 3-35-9-54-41-54-24 1-41 7-42 31l-33-3c5-37 33-52 76-52 45 0 72 20 72 64v82c-1 20 7 32 28 27v20c-31 9-61-2-59-35zM48-53c0 20 12 33 32 33 41-3 63-29 60-74-43 2-92-5-92 41" transform="matrix(0.05000000447034836, 0, 0, 0.05000000447034836, 148.6999969482422, 0)"/>
                <path fill="#333" d="M59-47c-2 24 18 29 38 22v24C64 9 27 4 27-40v-127H5v-23h24l9-43h21v43h35v23H59v120" transform="matrix(0.05000000447034836, 0, 0, 0.05000000447034836, 158.6999969482422, 0)"/>
            </g>
            <g id="g">
                <path fill="#333" d="M117-194c89-4 53 116 60 194h-32v-121c0-31-8-49-39-48C34-167 62-67 57 0H25l-1-190h30c1 10-1 24 2 32 11-22 29-35 61-36" transform="matrix(0.05000000447034836, 0, 0, 0.05000000447034836, 0, 0)"/>
                <path fill="#333" d="M100-194c62-1 85 37 85 99 1 63-27 99-86 99S16-35 15-95c0-66 28-99 85-99zM99-20c44 1 53-31 53-75 0-43-8-75-51-75s-53 32-53 75 10 74 51 75" transform="matrix(0.05000000447034836, 0, 0, 0.05000000447034836, 10, 0)"/>
                <path fill="#333" d="M114-163C36-179 61-72 57 0H25l-1-190h30c1 12-1 29 2 39 6-27 23-49 58-41v29" transform="matrix(0.05000000447034836, 0, 0, 0.05000000447034836, 20, 0)"/>
                <path fill="#333" d="M210-169c-67 3-38 105-44 169h-31v-121c0-29-5-50-35-48C34-165 62-65 56 0H25l-1-190h30c1 10-1 24 2 32 10-44 99-50 107 0 11-21 27-35 58-36 85-2 47 119 55 194h-31v-121c0-29-5-49-35-48" transform="matrix(0.05000000447034836, 0, 0, 0.05000000447034836, 25.950000762939453, 0)"/>
                <path fill="#333" d="M141-36C126-15 110 5 73 4 37 3 15-17 15-53c-1-64 63-63 125-63 3-35-9-54-41-54-24 1-41 7-42 31l-33-3c5-37 33-52 76-52 45 0 72 20 72 64v82c-1 20 7 32 28 27v20c-31 9-61-2-59-35zM48-53c0 20 12 33 32 33 41-3 63-29 60-74-43 2-92-5-92 41" transform="matrix(0.05000000447034836, 0, 0, 0.05000000447034836, 40.900001525878906, 0)"/>
                <path fill="#333" d="M24 0v-261h32V0H24" transform="matrix(0.05000000447034836, 0, 0, 0.05000000447034836, 50.900001525878906, 0)"/>
            </g>
            <path fill="#333" d="M185-189c-5-48-123-54-124 2 14 75 158 14 163 119 3 78-121 87-175 55-17-10-28-26-33-46l33-7c5 56 141 63 141-1 0-78-155-14-162-118-5-82 145-84 179-34 5 7 8 16 11 25" id="O"/>
            <g id="h">
                <path fill="#333" d="M205 0l-28-72H64L36 0H1l101-248h38L239 0h-34zm-38-99l-47-123c-12 45-31 82-46 123h93" transform="matrix(0.05000000447034836, 0, 0, 0.05000000447034836, 0, 0)"/>
                <path fill="#333" d="M135-143c-3-34-86-38-87 0 15 53 115 12 119 90S17 21 10-45l28-5c4 36 97 45 98 0-10-56-113-15-118-90-4-57 82-63 122-42 12 7 21 19 24 35" transform="matrix(0.05000000447034836, 0, 0, 0.05000000447034836, 12, 0)"/>
                <path fill="#333" d="M135-143c-3-34-86-38-87 0 15 53 115 12 119 90S17 21 10-45l28-5c4 36 97 45 98 0-10-56-113-15-118-90-4-57 82-63 122-42 12 7 21 19 24 35" transform="matrix(0.05000000447034836, 0, 0, 0.05000000447034836, 21, 0)"/>
                <path fill="#333" d="M100-194c63 0 86 42 84 106H49c0 40 14 67 53 68 26 1 43-12 49-29l28 8c-11 28-37 45-77 45C44 4 14-33 15-96c1-61 26-98 85-98zm52 81c6-60-76-77-97-28-3 7-6 17-6 28h103" transform="matrix(0.05000000447034836, 0, 0, 0.05000000447034836, 30, 0)"/>
                <path fill="#333" d="M59-47c-2 24 18 29 38 22v24C64 9 27 4 27-40v-127H5v-23h24l9-43h21v43h35v23H59v120" transform="matrix(0.05000000447034836, 0, 0, 0.05000000447034836, 40, 0)"/>
                <path fill="#333" d="M185-189c-5-48-123-54-124 2 14 75 158 14 163 119 3 78-121 87-175 55-17-10-28-26-33-46l33-7c5 56 141 63 141-1 0-78-155-14-162-118-5-82 145-84 179-34 5 7 8 16 11 25" transform="matrix(0.05000000447034836, 0, 0, 0.05000000447034836, 45, 0)"/>
                <path fill="#333" d="M212-179c-10-28-35-45-73-45-59 0-87 40-87 99 0 60 29 101 89 101 43 0 62-24 78-52l27 14C228-24 195 4 139 4 59 4 22-46 18-125c-6-104 99-153 187-111 19 9 31 26 39 46" transform="matrix(0.05000000447034836, 0, 0, 0.05000000447034836, 57, 0)"/>
            </g>
            <path fill="#333" d="M27 0v-27h64v-190l-56 39v-29l58-41h29v221h61V0H27" id="P"/>
            <g id="i">
                <path fill="#333" d="M141-36C126-15 110 5 73 4 37 3 15-17 15-53c-1-64 63-63 125-63 3-35-9-54-41-54-24 1-41 7-42 31l-33-3c5-37 33-52 76-52 45 0 72 20 72 64v82c-1 20 7 32 28 27v20c-31 9-61-2-59-35zM48-53c0 20 12 33 32 33 41-3 63-29 60-74-43 2-92-5-92 41" transform="matrix(0.05000000447034836, 0, 0, 0.05000000447034836, 0, 0)"/>
                <path fill="#333" d="M135-143c-3-34-86-38-87 0 15 53 115 12 119 90S17 21 10-45l28-5c4 36 97 45 98 0-10-56-113-15-118-90-4-57 82-63 122-42 12 7 21 19 24 35" transform="matrix(0.05000000447034836, 0, 0, 0.05000000447034836, 10, 0)"/>
                <path fill="#333" d="M59-47c-2 24 18 29 38 22v24C64 9 27 4 27-40v-127H5v-23h24l9-43h21v43h35v23H59v120" transform="matrix(0.05000000447034836, 0, 0, 0.05000000447034836, 19, 0)"/>
                <path fill="#333" d="M135-143c-3-34-86-38-87 0 15 53 115 12 119 90S17 21 10-45l28-5c4 36 97 45 98 0-10-56-113-15-118-90-4-57 82-63 122-42 12 7 21 19 24 35" transform="matrix(0.05000000447034836, 0, 0, 0.05000000447034836, 24, 0)"/>
                <path fill="#333" d="M96-169c-40 0-48 33-48 73s9 75 48 75c24 0 41-14 43-38l32 2c-6 37-31 61-74 61-59 0-76-41-82-99-10-93 101-131 147-64 4 7 5 14 7 22l-32 3c-4-21-16-35-41-35" transform="matrix(0.05000000447034836, 0, 0, 0.05000000447034836, 33, 0)"/>
                <path fill="#333" d="M16-82v-28h88v28H16" transform="matrix(0.05000000447034836, 0, 0, 0.05000000447034836, 42, 0)"/>
                <path fill="#333" d="M101-251c68 0 85 55 85 127S166 4 100 4C33 4 14-52 14-124c0-73 17-127 87-127zm-1 229c47 0 54-49 54-102s-4-102-53-102c-51 0-55 48-55 102 0 53 5 102 54 102" transform="matrix(0.05000000447034836, 0, 0, 0.05000000447034836, 47.95000076293945, 0)"/>
                <path fill="#333" d="M27 0v-27h64v-190l-56 39v-29l58-41h29v221h61V0H27" transform="matrix(0.05000000447034836, 0, 0, 0.05000000447034836, 57.95000076293945, 0)"/>
            </g>
            <g id="j">
                <path fill="#333" d="M135-143c-3-34-86-38-87 0 15 53 115 12 119 90S17 21 10-45l28-5c4 36 97 45 98 0-10-56-113-15-118-90-4-57 82-63 122-42 12 7 21 19 24 35" transform="matrix(0.05000000447034836, 0, 0, 0.05000000447034836, 0, 0)"/>
                <path fill="#333" d="M59-47c-2 24 18 29 38 22v24C64 9 27 4 27-40v-127H5v-23h24l9-43h21v43h35v23H59v120" transform="matrix(0.05000000447034836, 0, 0, 0.05000000447034836, 9, 0)"/>
                <path fill="#333" d="M114-163C36-179 61-72 57 0H25l-1-190h30c1 12-1 29 2 39 6-27 23-49 58-41v29" transform="matrix(0.05000000447034836, 0, 0, 0.05000000447034836, 14, 0)"/>
                <path fill="#333" d="M84 4C-5 8 30-112 23-190h32v120c0 31 7 50 39 49 72-2 45-101 50-169h31l1 190h-30c-1-10 1-25-2-33-11 22-28 36-60 37" transform="matrix(0.05000000447034836, 0, 0, 0.05000000447034836, 19.950000762939453, 0)"/>
                <path fill="#333" d="M96-169c-40 0-48 33-48 73s9 75 48 75c24 0 41-14 43-38l32 2c-6 37-31 61-74 61-59 0-76-41-82-99-10-93 101-131 147-64 4 7 5 14 7 22l-32 3c-4-21-16-35-41-35" transform="matrix(0.05000000447034836, 0, 0, 0.05000000447034836, 29.950000762939453, 0)"/>
                <path fill="#333" d="M59-47c-2 24 18 29 38 22v24C64 9 27 4 27-40v-127H5v-23h24l9-43h21v43h35v23H59v120" transform="matrix(0.05000000447034836, 0, 0, 0.05000000447034836, 38.95000076293945, 0)"/>
                <path fill="#333" d="M84 4C-5 8 30-112 23-190h32v120c0 31 7 50 39 49 72-2 45-101 50-169h31l1 190h-30c-1-10 1-25-2-33-11 22-28 36-60 37" transform="matrix(0.05000000447034836, 0, 0, 0.05000000447034836, 43.95000076293945, 0)"/>
                <path fill="#333" d="M114-163C36-179 61-72 57 0H25l-1-190h30c1 12-1 29 2 39 6-27 23-49 58-41v29" transform="matrix(0.05000000447034836, 0, 0, 0.05000000447034836, 53.95000076293945, 0)"/>
                <path fill="#333" d="M141-36C126-15 110 5 73 4 37 3 15-17 15-53c-1-64 63-63 125-63 3-35-9-54-41-54-24 1-41 7-42 31l-33-3c5-37 33-52 76-52 45 0 72 20 72 64v82c-1 20 7 32 28 27v20c-31 9-61-2-59-35zM48-53c0 20 12 33 32 33 41-3 63-29 60-74-43 2-92-5-92 41" transform="matrix(0.05000000447034836, 0, 0, 0.05000000447034836, 59.900001525878906, 0)"/>
                <path fill="#333" d="M24 0v-261h32V0H24" transform="matrix(0.05000000447034836, 0, 0, 0.05000000447034836, 69.9000015258789, 0)"/>
                <path fill="#333" d="M127-220V0H93v-220H8v-28h204v28h-85" transform="matrix(0.05000000447034836, 0, 0, 0.05000000447034836, 73.8499984741211, 0)"/>
                <path fill="#333" d="M179-190L93 31C79 59 56 82 12 73V49c39 6 53-20 64-50L1-190h34L92-34l54-156h33" transform="matrix(0.05000000447034836, 0, 0, 0.05000000447034836, 83.80000305175781, 0)"/>
                <path fill="#333" d="M115-194c55 1 70 41 70 98S169 2 115 4C84 4 66-9 55-30l1 105H24l-1-265h31l2 30c10-21 28-34 59-34zm-8 174c40 0 45-34 45-75s-6-73-45-74c-42 0-51 32-51 76 0 43 10 73 51 73" transform="matrix(0.05000000447034836, 0, 0, 0.05000000447034836, 92.80000305175781, 0)"/>
                <path fill="#333" d="M100-194c63 0 86 42 84 106H49c0 40 14 67 53 68 26 1 43-12 49-29l28 8c-11 28-37 45-77 45C44 4 14-33 15-96c1-61 26-98 85-98zm52 81c6-60-76-77-97-28-3 7-6 17-6 28h103" transform="matrix(0.05000000447034836, 0, 0, 0.05000000447034836, 102.80000305175781, 0)"/>
            </g>
            <path fill="#333" d="M177-190C167-65 218 103 67 71c-23-6-38-20-44-43l32-5c15 47 100 32 89-28v-30C133-14 115 1 83 1 29 1 15-40 15-95c0-56 16-97 71-98 29-1 48 16 59 35 1-10 0-23 2-32h30zM94-22c36 0 50-32 50-73 0-42-14-75-50-75-39 0-46 34-46 75s6 73 46 73" id="Q"/>
            <g id="k">
                <path fill="#333" d="M85-194c31 0 48 13 60 33l-1-100h32l1 261h-30c-2-10 0-23-3-31C134-8 116 4 85 4 32 4 16-35 15-94c0-66 23-100 70-100zm9 24c-40 0-46 34-46 75 0 40 6 74 45 74 42 0 51-32 51-76 0-42-9-74-50-73" transform="matrix(0.05000000447034836, 0, 0, 0.05000000447034836, 0, 0)"/>
                <path fill="#333" d="M24-231v-30h32v30H24zM24 0v-190h32V0H24" transform="matrix(0.05000000447034836, 0, 0, 0.05000000447034836, 10, 0)"/>
                <path fill="#333" d="M177-190C167-65 218 103 67 71c-23-6-38-20-44-43l32-5c15 47 100 32 89-28v-30C133-14 115 1 83 1 29 1 15-40 15-95c0-56 16-97 71-98 29-1 48 16 59 35 1-10 0-23 2-32h30zM94-22c36 0 50-32 50-73 0-42-14-75-50-75-39 0-46 34-46 75s6 73 46 73" transform="matrix(0.05000000447034836, 0, 0, 0.05000000447034836, 13.949999809265137, 0)"/>
                <path fill="#333" d="M24-231v-30h32v30H24zM24 0v-190h32V0H24" transform="matrix(0.05000000447034836, 0, 0, 0.05000000447034836, 23.950000762939453, 0)"/>
                <path fill="#333" d="M59-47c-2 24 18 29 38 22v24C64 9 27 4 27-40v-127H5v-23h24l9-43h21v43h35v23H59v120" transform="matrix(0.05000000447034836, 0, 0, 0.05000000447034836, 27.899999618530273, 0)"/>
                <path fill="#333" d="M141-36C126-15 110 5 73 4 37 3 15-17 15-53c-1-64 63-63 125-63 3-35-9-54-41-54-24 1-41 7-42 31l-33-3c5-37 33-52 76-52 45 0 72 20 72 64v82c-1 20 7 32 28 27v20c-31 9-61-2-59-35zM48-53c0 20 12 33 32 33 41-3 63-29 60-74-43 2-92-5-92 41" transform="matrix(0.05000000447034836, 0, 0, 0.05000000447034836, 32.900001525878906, 0)"/>
                <path fill="#333" d="M24 0v-261h32V0H24" transform="matrix(0.05000000447034836, 0, 0, 0.05000000447034836, 42.900001525878906, 0)"/>
                <path fill="#333" d="M33 0v-38h34V0H33" transform="matrix(0.05000000447034836, 0, 0, 0.05000000447034836, 46.849998474121094, 0)"/>
                <path fill="#333" d="M24-231v-30h32v30H24zM24 0v-190h32V0H24" transform="matrix(0.05000000447034836, 0, 0, 0.05000000447034836, 51.849998474121094, 0)"/>
                <path fill="#333" d="M210-169c-67 3-38 105-44 169h-31v-121c0-29-5-50-35-48C34-165 62-65 56 0H25l-1-190h30c1 10-1 24 2 32 10-44 99-50 107 0 11-21 27-35 58-36 85-2 47 119 55 194h-31v-121c0-29-5-49-35-48" transform="matrix(0.05000000447034836, 0, 0, 0.05000000447034836, 55.79999923706055, 0)"/>
                <path fill="#333" d="M141-36C126-15 110 5 73 4 37 3 15-17 15-53c-1-64 63-63 125-63 3-35-9-54-41-54-24 1-41 7-42 31l-33-3c5-37 33-52 76-52 45 0 72 20 72 64v82c-1 20 7 32 28 27v20c-31 9-61-2-59-35zM48-53c0 20 12 33 32 33 41-3 63-29 60-74-43 2-92-5-92 41" transform="matrix(0.05000000447034836, 0, 0, 0.05000000447034836, 70.75, 0)"/>
                <path fill="#333" d="M177-190C167-65 218 103 67 71c-23-6-38-20-44-43l32-5c15 47 100 32 89-28v-30C133-14 115 1 83 1 29 1 15-40 15-95c0-56 16-97 71-98 29-1 48 16 59 35 1-10 0-23 2-32h30zM94-22c36 0 50-32 50-73 0-42-14-75-50-75-39 0-46 34-46 75s6 73 46 73" transform="matrix(0.05000000447034836, 0, 0, 0.05000000447034836, 80.75, 0)"/>
                <path fill="#333" d="M100-194c63 0 86 42 84 106H49c0 40 14 67 53 68 26 1 43-12 49-29l28 8c-11 28-37 45-77 45C44 4 14-33 15-96c1-61 26-98 85-98zm52 81c6-60-76-77-97-28-3 7-6 17-6 28h103" transform="matrix(0.05000000447034836, 0, 0, 0.05000000447034836, 90.75, 0)"/>
            </g>
            <path fill="#333" d="M199 0l-22-63H83L61 0H9l90-248h61L250 0h-51zm-33-102l-36-108c-10 38-24 72-36 108h72" id="R"/>
            <path fill="#333" d="M137-138c1-29-70-34-71-4 15 46 118 7 119 86 1 83-164 76-172 9l43-7c4 19 20 25 44 25 33 8 57-30 24-41C81-84 22-81 20-136c-2-80 154-74 161-7" id="S"/>
            <path fill="#333" d="M185-48c-13 30-37 53-82 52C43 2 14-33 14-96s30-98 90-98c62 0 83 45 84 108H66c0 31 8 55 39 56 18 0 30-7 34-22zm-45-69c5-46-57-63-70-21-2 6-4 13-4 21h74" id="T"/>
            <path fill="#333" d="M115-3C79 11 28 4 28-45v-112H4v-33h27l15-45h31v45h36v33H77v99c-1 23 16 31 38 25v30" id="U"/>
            <path fill="#333" d="M169-182c-1-43-94-46-97-3 18 66 151 10 154 114 3 95-165 93-204 36-6-8-10-19-12-30l50-8c3 46 112 56 116 5-17-69-150-10-154-114-4-87 153-88 188-35 5 8 8 18 10 28" id="V"/>
            <path fill="#333" d="M67-125c0 53 21 87 73 88 37 1 54-22 65-47l45 17C233-25 199 4 140 4 58 4 20-42 15-125 8-235 124-281 211-232c18 10 29 29 36 50l-46 12c-8-25-30-41-62-41-52 0-71 34-72 86" id="W"/>
            <g id="l">
                <path fill="#333" d="M199 0l-22-63H83L61 0H9l90-248h61L250 0h-51zm-33-102l-36-108c-10 38-24 72-36 108h72" transform="matrix(0.04938272386789322, 0, 0, 0.04938272386789322, 0, 0)"/>
                <path fill="#333" d="M137-138c1-29-70-34-71-4 15 46 118 7 119 86 1 83-164 76-172 9l43-7c4 19 20 25 44 25 33 8 57-30 24-41C81-84 22-81 20-136c-2-80 154-74 161-7" transform="matrix(0.04938272386789322, 0, 0, 0.04938272386789322, 12.790122985839844, 0)"/>
                <path fill="#333" d="M137-138c1-29-70-34-71-4 15 46 118 7 119 86 1 83-164 76-172 9l43-7c4 19 20 25 44 25 33 8 57-30 24-41C81-84 22-81 20-136c-2-80 154-74 161-7" transform="matrix(0.04938272386789322, 0, 0, 0.04938272386789322, 22.66666603088379, 0)"/>
                <path fill="#333" d="M185-48c-13 30-37 53-82 52C43 2 14-33 14-96s30-98 90-98c62 0 83 45 84 108H66c0 31 8 55 39 56 18 0 30-7 34-22zm-45-69c5-46-57-63-70-21-2 6-4 13-4 21h74" transform="matrix(0.04938272386789322, 0, 0, 0.04938272386789322, 32.543209075927734, 0)"/>
                <path fill="#333" d="M115-3C79 11 28 4 28-45v-112H4v-33h27l15-45h31v45h36v33H77v99c-1 23 16 31 38 25v30" transform="matrix(0.04938272386789322, 0, 0, 0.04938272386789322, 42.41975402832031, 0)"/>
                <path fill="#333" d="M169-182c-1-43-94-46-97-3 18 66 151 10 154 114 3 95-165 93-204 36-6-8-10-19-12-30l50-8c3 46 112 56 116 5-17-69-150-10-154-114-4-87 153-88 188-35 5 8 8 18 10 28" transform="matrix(0.04938272386789322, 0, 0, 0.04938272386789322, 48.296295166015625, 0)"/>
                <path fill="#333" d="M67-125c0 53 21 87 73 88 37 1 54-22 65-47l45 17C233-25 199 4 140 4 58 4 20-42 15-125 8-235 124-281 211-232c18 10 29 29 36 50l-46 12c-8-25-30-41-62-41-52 0-71 34-72 86" transform="matrix(0.04938272386789322, 0, 0, 0.04938272386789322, 60.14814758300781, 0)"/>
            </g>
            <g id="m">
                <path fill="#333" d="M141-36C126-15 110 5 73 4 37 3 15-17 15-53c-1-64 63-63 125-63 3-35-9-54-41-54-24 1-41 7-42 31l-33-3c5-37 33-52 76-52 45 0 72 20 72 64v82c-1 20 7 32 28 27v20c-31 9-61-2-59-35zM48-53c0 20 12 33 32 33 41-3 63-29 60-74-43 2-92-5-92 41" transform="matrix(0.05000000447034836, 0, 0, 0.05000000447034836, 0, 0)"/>
                <path fill="#333" d="M135-143c-3-34-86-38-87 0 15 53 115 12 119 90S17 21 10-45l28-5c4 36 97 45 98 0-10-56-113-15-118-90-4-57 82-63 122-42 12 7 21 19 24 35" transform="matrix(0.05000000447034836, 0, 0, 0.05000000447034836, 10, 0)"/>
                <path fill="#333" d="M59-47c-2 24 18 29 38 22v24C64 9 27 4 27-40v-127H5v-23h24l9-43h21v43h35v23H59v120" transform="matrix(0.05000000447034836, 0, 0, 0.05000000447034836, 19, 0)"/>
                <path fill="#333" d="M16-82v-28h88v28H16" transform="matrix(0.05000000447034836, 0, 0, 0.05000000447034836, 24, 0)"/>
                <path fill="#333" d="M101-251c68 0 85 55 85 127S166 4 100 4C33 4 14-52 14-124c0-73 17-127 87-127zm-1 229c47 0 54-49 54-102s-4-102-53-102c-51 0-55 48-55 102 0 53 5 102 54 102" transform="matrix(0.05000000447034836, 0, 0, 0.05000000447034836, 29.950000762939453, 0)"/>
                <path fill="#333" d="M27 0v-27h64v-190l-56 39v-29l58-41h29v221h61V0H27" transform="matrix(0.05000000447034836, 0, 0, 0.05000000447034836, 39.95000076293945, 0)"/>
            </g>
            <path fill="#333" d="M106-169C34-169 62-67 57 0H25v-261h32l-1 103c12-21 28-36 61-36 89 0 53 116 60 194h-32v-121c2-32-8-49-39-48" id="X"/>
            <path fill="#333" d="M233-177c-1 41-23 64-60 70L243 0h-38l-65-103H63V0H30v-248c88 3 205-21 203 71zM63-129c60-2 137 13 137-47 0-61-80-42-137-45v92" id="Y"/>
            <g id="n">
                <path fill="#333" d="M59-47c-2 24 18 29 38 22v24C64 9 27 4 27-40v-127H5v-23h24l9-43h21v43h35v23H59v120" transform="matrix(0.05000000447034836, 0, 0, 0.05000000447034836, 0, 0)"/>
                <path fill="#333" d="M100-194c63 0 86 42 84 106H49c0 40 14 67 53 68 26 1 43-12 49-29l28 8c-11 28-37 45-77 45C44 4 14-33 15-96c1-61 26-98 85-98zm52 81c6-60-76-77-97-28-3 7-6 17-6 28h103" transform="matrix(0.05000000447034836, 0, 0, 0.05000000447034836, 5, 0)"/>
                <path fill="#333" d="M96-169c-40 0-48 33-48 73s9 75 48 75c24 0 41-14 43-38l32 2c-6 37-31 61-74 61-59 0-76-41-82-99-10-93 101-131 147-64 4 7 5 14 7 22l-32 3c-4-21-16-35-41-35" transform="matrix(0.05000000447034836, 0, 0, 0.05000000447034836, 15, 0)"/>
                <path fill="#333" d="M106-169C34-169 62-67 57 0H25v-261h32l-1 103c12-21 28-36 61-36 89 0 53 116 60 194h-32v-121c2-32-8-49-39-48" transform="matrix(0.05000000447034836, 0, 0, 0.05000000447034836, 24, 0)"/>
                <path fill="#333" d="M117-194c89-4 53 116 60 194h-32v-121c0-31-8-49-39-48C34-167 62-67 57 0H25l-1-190h30c1 10-1 24 2 32 11-22 29-35 61-36" transform="matrix(0.05000000447034836, 0, 0, 0.05000000447034836, 34, 0)"/>
                <path fill="#333" d="M24-231v-30h32v30H24zM24 0v-190h32V0H24" transform="matrix(0.05000000447034836, 0, 0, 0.05000000447034836, 44, 0)"/>
                <path fill="#333" d="M96-169c-40 0-48 33-48 73s9 75 48 75c24 0 41-14 43-38l32 2c-6 37-31 61-74 61-59 0-76-41-82-99-10-93 101-131 147-64 4 7 5 14 7 22l-32 3c-4-21-16-35-41-35" transform="matrix(0.05000000447034836, 0, 0, 0.05000000447034836, 47.95000076293945, 0)"/>
                <path fill="#333" d="M141-36C126-15 110 5 73 4 37 3 15-17 15-53c-1-64 63-63 125-63 3-35-9-54-41-54-24 1-41 7-42 31l-33-3c5-37 33-52 76-52 45 0 72 20 72 64v82c-1 20 7 32 28 27v20c-31 9-61-2-59-35zM48-53c0 20 12 33 32 33 41-3 63-29 60-74-43 2-92-5-92 41" transform="matrix(0.05000000447034836, 0, 0, 0.05000000447034836, 56.95000076293945, 0)"/>
                <path fill="#333" d="M24 0v-261h32V0H24" transform="matrix(0.05000000447034836, 0, 0, 0.05000000447034836, 66.94999694824219, 0)"/>
                <path fill="#333" d="M233-177c-1 41-23 64-60 70L243 0h-38l-65-103H63V0H30v-248c88 3 205-21 203 71zM63-129c60-2 137 13 137-47 0-61-80-42-137-45v92" transform="matrix(0.05000000447034836, 0, 0, 0.05000000447034836, 70.9000015258789, 0)"/>
                <path fill="#333" d="M100-194c63 0 86 42 84 106H49c0 40 14 67 53 68 26 1 43-12 49-29l28 8c-11 28-37 45-77 45C44 4 14-33 15-96c1-61 26-98 85-98zm52 81c6-60-76-77-97-28-3 7-6 17-6 28h103" transform="matrix(0.05000000447034836, 0, 0, 0.05000000447034836, 83.8499984741211, 0)"/>
                <path fill="#333" d="M101-234c-31-9-42 10-38 44h38v23H63V0H32v-167H5v-23h27c-7-52 17-82 69-68v24" transform="matrix(0.05000000447034836, 0, 0, 0.05000000447034836, 93.8499984741211, 0)"/>
                <path fill="#333" d="M100-194c63 0 86 42 84 106H49c0 40 14 67 53 68 26 1 43-12 49-29l28 8c-11 28-37 45-77 45C44 4 14-33 15-96c1-61 26-98 85-98zm52 81c6-60-76-77-97-28-3 7-6 17-6 28h103" transform="matrix(0.05000000447034836, 0, 0, 0.05000000447034836, 98.8499984741211, 0)"/>
                <path fill="#333" d="M114-163C36-179 61-72 57 0H25l-1-190h30c1 12-1 29 2 39 6-27 23-49 58-41v29" transform="matrix(0.05000000447034836, 0, 0, 0.05000000447034836, 108.8499984741211, 0)"/>
                <path fill="#333" d="M100-194c63 0 86 42 84 106H49c0 40 14 67 53 68 26 1 43-12 49-29l28 8c-11 28-37 45-77 45C44 4 14-33 15-96c1-61 26-98 85-98zm52 81c6-60-76-77-97-28-3 7-6 17-6 28h103" transform="matrix(0.05000000447034836, 0, 0, 0.05000000447034836, 114.80000305175781, 0)"/>
                <path fill="#333" d="M117-194c89-4 53 116 60 194h-32v-121c0-31-8-49-39-48C34-167 62-67 57 0H25l-1-190h30c1 10-1 24 2 32 11-22 29-35 61-36" transform="matrix(0.05000000447034836, 0, 0, 0.05000000447034836, 124.80000305175781, 0)"/>
                <path fill="#333" d="M96-169c-40 0-48 33-48 73s9 75 48 75c24 0 41-14 43-38l32 2c-6 37-31 61-74 61-59 0-76-41-82-99-10-93 101-131 147-64 4 7 5 14 7 22l-32 3c-4-21-16-35-41-35" transform="matrix(0.05000000447034836, 0, 0, 0.05000000447034836, 134.8000030517578, 0)"/>
                <path fill="#333" d="M100-194c63 0 86 42 84 106H49c0 40 14 67 53 68 26 1 43-12 49-29l28 8c-11 28-37 45-77 45C44 4 14-33 15-96c1-61 26-98 85-98zm52 81c6-60-76-77-97-28-3 7-6 17-6 28h103" transform="matrix(0.05000000447034836, 0, 0, 0.05000000447034836, 143.8000030517578, 0)"/>
            </g>
            <g id="o">
                <path fill="#333" d="M205 0l-28-72H64L36 0H1l101-248h38L239 0h-34zm-38-99l-47-123c-12 45-31 82-46 123h93" transform="matrix(0.04938272386789322, 0, 0, 0.04938272386789322, 0, 0)"/>
                <path fill="#333" d="M135-143c-3-34-86-38-87 0 15 53 115 12 119 90S17 21 10-45l28-5c4 36 97 45 98 0-10-56-113-15-118-90-4-57 82-63 122-42 12 7 21 19 24 35" transform="matrix(0.04938272386789322, 0, 0, 0.04938272386789322, 11.851851463317871, 0)"/>
                <path fill="#333" d="M135-143c-3-34-86-38-87 0 15 53 115 12 119 90S17 21 10-45l28-5c4 36 97 45 98 0-10-56-113-15-118-90-4-57 82-63 122-42 12 7 21 19 24 35" transform="matrix(0.04938272386789322, 0, 0, 0.04938272386789322, 20.740741729736328, 0)"/>
                <path fill="#333" d="M100-194c63 0 86 42 84 106H49c0 40 14 67 53 68 26 1 43-12 49-29l28 8c-11 28-37 45-77 45C44 4 14-33 15-96c1-61 26-98 85-98zm52 81c6-60-76-77-97-28-3 7-6 17-6 28h103" transform="matrix(0.04938272386789322, 0, 0, 0.04938272386789322, 29.629629135131836, 0)"/>
                <path fill="#333" d="M59-47c-2 24 18 29 38 22v24C64 9 27 4 27-40v-127H5v-23h24l9-43h21v43h35v23H59v120" transform="matrix(0.04938272386789322, 0, 0, 0.04938272386789322, 39.50617218017578, 0)"/>
                <path fill="#333" d="M185-189c-5-48-123-54-124 2 14 75 158 14 163 119 3 78-121 87-175 55-17-10-28-26-33-46l33-7c5 56 141 63 141-1 0-78-155-14-162-118-5-82 145-84 179-34 5 7 8 16 11 25" transform="matrix(0.04938272386789322, 0, 0, 0.04938272386789322, 44.44444274902344, 0)"/>
                <path fill="#333" d="M212-179c-10-28-35-45-73-45-59 0-87 40-87 99 0 60 29 101 89 101 43 0 62-24 78-52l27 14C228-24 195 4 139 4 59 4 22-46 18-125c-6-104 99-153 187-111 19 9 31 26 39 46" transform="matrix(0.04938272386789322, 0, 0, 0.04938272386789322, 56.296295166015625, 0)"/>
            </g>
        </defs>
    </g>
</svg>
