<svg xmlns="http://www.w3.org/2000/svg" xmlns:xlink="http://www.w3.org/1999/xlink" width="1763"
     height="1900">
    <g transform="translate(6719 525)">
        <path d="M-6273.03 155.22a5 5 0 0 1 5-5h390a5 5 0 0 1 5 5v94a5 5 0 0 1-5 5h-390a5 5 0 0 1-5-5z" fill="#fff"/>
        <path d="M-6273.03 190.22v-35a5 5 0 0 1 5-5h390a5 5 0 0 1 5 5v35" fill="#ebdef0"/>
        <path d="M-6273.03 155.22a5 5 0 0 1 5-5h390a5 5 0 0 1 5 5v94a5 5 0 0 1-5 5h-390a5 5 0 0 1-5-5zM-6273.03 190.22h400M-6073.03 190.22v64"
              stroke="#282c33" fill="none"/>
        <use xlink:href="#a" transform="matrix(1,0,0,1,-6263.028445953866,150.22274531341736) translate(0 23.6)"/>
        <use xlink:href="#b" transform="matrix(1,0,0,1,-6268.028445953866,192.72274531341736) translate(0 17.1)"/>
        <use xlink:href="#c" transform="matrix(1,0,0,1,-6068.028445953866,192.72274531341736) translate(0 17.1)"/>
        <use xlink:href="#d" transform="matrix(1,0,0,1,-6268.028445953866,224.72274531341736) translate(0 17.1)"/>
        <use xlink:href="#e" transform="matrix(1,0,0,1,-6068.028445953866,224.72274531341736) translate(0 17.1)"/>
        <path d="M-6273.03 344.62a5 5 0 0 1 5-5h390a5 5 0 0 1 5 5v94a5 5 0 0 1-5 5h-390a5 5 0 0 1-5-5z" fill="#fff"/>
        <path d="M-6273.03 379.62v-35a5 5 0 0 1 5-5h390a5 5 0 0 1 5 5v35" fill="#c39bd3"/>
        <path d="M-6273.03 344.62a5 5 0 0 1 5-5h390a5 5 0 0 1 5 5v94a5 5 0 0 1-5 5h-390a5 5 0 0 1-5-5zM-6273.03 379.62h400M-6073.03 379.62v64"
              stroke="#282c33" fill="none"/>
        <use xlink:href="#f" transform="matrix(1,0,0,1,-6263.028445953866,339.62175338073007) translate(0 23.6)"/>
        <use xlink:href="#b" transform="matrix(1,0,0,1,-6268.028445953866,382.12175338073007) translate(0 17.1)"/>
        <use xlink:href="#g" transform="matrix(1,0,0,1,-6068.028445953866,382.12175338073007) translate(0 17.1)"/>
        <use xlink:href="#h" transform="matrix(1,0,0,1,-6268.028445953866,414.12175338073007) translate(0 17.1)"/>
        <use xlink:href="#i" transform="matrix(1,0,0,1,-6068.028445953866,414.12175338073007) translate(0 17.1)"/>
        <path d="M-6073.03 255.22v41.22a.48.48 0 0 1-.48.48.48.48 0 0 0-.5.48v27.23" stroke="#3a414a" fill="none"/>
        <path d="M-6072.55 255.24h-.95v-.52h.95z" stroke="#3a414a" stroke-width=".05" fill="#3a414a"/>
        <path d="M-6074 338.12l-7.5-13h15z" stroke="#3a414a" fill="#3a414a"/>
        <path d="M-6569.68-126.42a5 5 0 0 1 5-5h390.96a5 5 0 0 1 5 5v126a5 5 0 0 1-5 5h-390.96a5 5 0 0 1-5-5z"
              fill="#fff"/>
        <path d="M-6569.68-91.42v-35a5 5 0 0 1 5-5h390.96a5 5 0 0 1 5 5v35" fill="#f5b041"/>
        <path d="M-6569.68-126.42a5 5 0 0 1 5-5h390.96a5 5 0 0 1 5 5v126a5 5 0 0 1-5 5h-390.96a5 5 0 0 1-5-5zM-6569.68-91.42h400.96M-6369.2-91.42v96"
              stroke="#282c33" fill="none"/>
        <use xlink:href="#j" transform="matrix(1,0,0,1,-6559.68383876957,-131.4226293730096) translate(0 23.6)"/>
        <use xlink:href="#b" transform="matrix(1,0,0,1,-6564.68383876957,-88.92262937300961) translate(0 17.1)"/>
        <use xlink:href="#k" transform="matrix(1,0,0,1,-6364.203481158118,-88.92262937300961) translate(0 17.1)"/>
        <use xlink:href="#l" transform="matrix(1,0,0,1,-6564.68383876957,-56.92262937300961) translate(0 17.1)"/>
        <use xlink:href="#m" transform="matrix(1,0,0,1,-6364.203481158118,-56.92262937300961) translate(0 17.1)"/>
        <use xlink:href="#n" transform="matrix(1,0,0,1,-6564.68383876957,-24.922629373009613) translate(0 17.1)"/>
        <use xlink:href="#o" transform="matrix(1,0,0,1,-6364.203481158118,-24.922629373009613) translate(0 17.1)"/>
        <path d="M-6010.65-352.84a5 5 0 0 1 5-5h390.97a5 5 0 0 1 5 5v94a5 5 0 0 1-5 5h-390.97a5 5 0 0 1-5-5z"
              fill="#fff"/>
        <path d="M-6010.65-317.84v-35a5 5 0 0 1 5-5h390.97a5 5 0 0 1 5 5v35" fill="#7dcea0"/>
        <path d="M-6010.65-352.84a5 5 0 0 1 5-5h390.97a5 5 0 0 1 5 5v94a5 5 0 0 1-5 5h-390.97a5 5 0 0 1-5-5zM-6010.65-317.84h400.97M-5810.16-317.84v64"
              stroke="#282c33" fill="none"/>
        <use xlink:href="#p" transform="matrix(1,0,0,1,-6000.644553992473,-357.84292942060006) translate(0 23.6)"/>
        <use xlink:href="#b" transform="matrix(1,0,0,1,-6005.644553992473,-315.34292942060006) translate(0 17.1)"/>
        <use xlink:href="#q" transform="matrix(1,0,0,1,-5805.164196381022,-315.34292942060006) translate(0 17.1)"/>
        <use xlink:href="#r" transform="matrix(1,0,0,1,-6005.644553992473,-283.34292942060006) translate(0 17.1)"/>
        <use xlink:href="#s" transform="matrix(1,0,0,1,-5805.164196381022,-283.34292942060006) translate(0 17.1)"/>
        <use xlink:href="#t" transform="matrix(1,0,0,1,-5805.164196381022,-283.34292942060006) translate(56 17.1)"/>
        <path d="M-6569.68-353.45a5 5 0 0 1 5-5h390.96a5 5 0 0 1 5 5v94a5 5 0 0 1-5 5h-390.96a5 5 0 0 1-5-5z"
              fill="#fff"/>
        <path d="M-6569.68-318.45v-35a5 5 0 0 1 5-5h390.96a5 5 0 0 1 5 5v35" fill="#7dcea0"/>
        <path d="M-6569.68-353.45a5 5 0 0 1 5-5h390.96a5 5 0 0 1 5 5v94a5 5 0 0 1-5 5h-390.96a5 5 0 0 1-5-5zM-6569.68-318.45h400.96M-6369.2-318.45v64"
              stroke="#282c33" fill="none"/>
        <use xlink:href="#p" transform="matrix(1,0,0,1,-6559.68383876957,-358.4505790453966) translate(0 23.6)"/>
        <use xlink:href="#b" transform="matrix(1,0,0,1,-6564.68383876957,-315.9505790453966) translate(0 17.1)"/>
        <use xlink:href="#u" transform="matrix(1,0,0,1,-6364.203481158118,-315.9505790453966) translate(0 17.1)"/>
        <use xlink:href="#r" transform="matrix(1,0,0,1,-6564.68383876957,-283.9505790453966) translate(0 17.1)"/>
        <use xlink:href="#s" transform="matrix(1,0,0,1,-6364.203481158118,-283.9505790453966) translate(0 17.1)"/>
        <use xlink:href="#v" transform="matrix(1,0,0,1,-6364.203481158118,-283.9505790453966) translate(56 17.1)"/>
        <path d="M-6368.73 71.38l.07.88.2.85.34.8.45.75.56.66.65.57.74.45.8.33.83.2.88.08h284.2l.98.07 1 .24.93.4.88.52.77.66.66.77.54.86.4.94.23 1 .08.98v51.85h-.95v-51.8l-.07-.9-.2-.84-.34-.8-.46-.75-.56-.66-.66-.57-.74-.45-.8-.33-.84-.2-.9-.08h-284.16l-1-.07-.98-.24-.94-.4-.87-.52-.78-.66-.66-.77-.53-.86-.4-.94-.23-1-.08-.98V40.9h.95zm0-51.82h-.95V5.58h.95z"
              stroke="#3a414a" stroke-width=".05" fill="#3a414a"/>
        <path d="M-6368.73 5.6h-.95v-.52h.95z" fill="#3a414a"/>
        <path stroke="#3a414a" stroke-width=".05" fill="#3a414a"/>
        <path d="M-6073.03 148.72l-7.5-13h15z" fill="#3a414a"/>
        <path d="M-6073.03 149.67l-8.32-14.4h16.64zm-6.68-13.46l6.67 11.57 6.68-11.56z" stroke="#3a414a"
              stroke-width=".05" fill="#3a414a"/>
        <use xlink:href="#w"
             transform="matrix(1,0,0,1,-6387.968913256884,19.55607864675117) translate(0 14.222222222222223)"/>
        <path d="M-6368.73-146.4h-.95v-75.54h.95zm0-96.88h-.95v-10.17h.95z" stroke="#3a414a" stroke-width=".05"
              fill="#3a414a"/>
        <path d="M-6368.73-253.44h-.95v-.5h.95z" fill="#3a414a"/>
        <path stroke="#3a414a" stroke-width=".05" fill="#3a414a"/>
        <path d="M-6369.2-132.92l-7.5-13h15z" fill="#3a414a"/>
        <path d="M-6369.2-131.97l-8.33-14.42h16.65zm-6.68-13.47l6.68 11.57 6.67-11.57z" stroke="#3a414a"
              stroke-width=".05" fill="#3a414a"/>
        <use xlink:href="#x"
             transform="matrix(1,0,0,1,-6399.79607375071,-243.27858565361782) translate(0 14.222222222222223)"/>
        <path d="M-5809.7-146.4h-.94v-74.04h.95zm0-95.38h-.94v-11.06h.95z" stroke="#3a414a" stroke-width=".05"
              fill="#3a414a"/>
        <path d="M-5809.7-252.83h-.94v-.5h.95z" fill="#3a414a"/>
        <path stroke="#3a414a" stroke-width=".05" fill="#3a414a"/>
        <path d="M-5810.16-132.92l-7.5-13h15z" fill="#3a414a"/>
        <path d="M-5810.16-131.97l-8.33-14.42h16.66zm-6.68-13.47l6.68 11.57 6.67-11.57z" stroke="#3a414a"
              stroke-width=".05" fill="#3a414a"/>
        <use xlink:href="#y"
             transform="matrix(1,0,0,1,-5840.756788973614,-241.77725468658244) translate(0 14.222222222222223)"/>
        <path d="M-6010.65-126.42a5 5 0 0 1 5-5h390.97a5 5 0 0 1 5 5v126a5 5 0 0 1-5 5h-390.97a5 5 0 0 1-5-5z"
              fill="#fff"/>
        <path d="M-6010.65-91.42v-35a5 5 0 0 1 5-5h390.97a5 5 0 0 1 5 5v35" fill="#f5b041"/>
        <path d="M-6010.65-126.42a5 5 0 0 1 5-5h390.97a5 5 0 0 1 5 5v126a5 5 0 0 1-5 5h-390.97a5 5 0 0 1-5-5zM-6010.65-91.42h400.97M-5810.16-91.42v96"
              stroke="#282c33" fill="none"/>
        <use xlink:href="#j" transform="matrix(1,0,0,1,-6000.644553992473,-131.4226293730096) translate(0 23.6)"/>
        <use xlink:href="#b" transform="matrix(1,0,0,1,-6005.644553992473,-88.92262937300961) translate(0 17.1)"/>
        <use xlink:href="#z" transform="matrix(1,0,0,1,-5805.164196381022,-88.92262937300961) translate(0 17.1)"/>
        <use xlink:href="#l" transform="matrix(1,0,0,1,-6005.644553992473,-56.92262937300961) translate(0 17.1)"/>
        <use xlink:href="#m" transform="matrix(1,0,0,1,-5805.164196381022,-56.92262937300961) translate(0 17.1)"/>
        <use xlink:href="#n" transform="matrix(1,0,0,1,-6005.644553992473,-24.922629373009613) translate(0 17.1)"/>
        <use xlink:href="#o" transform="matrix(1,0,0,1,-5805.164196381022,-24.922629373009613) translate(0 17.1)"/>
        <path d="M-5809.7 71.42l-.07 1-.23.98-.4.94-.53.87-.65.78-.78.66-.86.53-.94.4-1 .23-1 .08H-6067l-.9.06-.84.2-.8.34-.73.45-.66.56-.57.65-.45.74-.33.8-.2.84-.07.88v51.8h-.95V83.4l.07-1 .24-.98.4-.94.53-.87.66-.78.77-.66.86-.53.94-.4 1-.23.98-.08h250.87l.88-.06.84-.2.8-.34.74-.45.66-.56.56-.65.46-.74.33-.8.2-.84.06-.88v-29.5h.95zm0-50.86h-.94V5.58h.95z"
              stroke="#3a414a" stroke-width=".05" fill="#3a414a"/>
        <path d="M-5809.7 5.6h-.94v-.52h.95z" fill="#3a414a"/>
        <path stroke="#3a414a" stroke-width=".05" fill="#3a414a"/>
        <path d="M-6073.03 148.72l-7.5-13h15z" fill="#3a414a"/>
        <path d="M-6073.03 149.67l-8.32-14.4h16.64zm-6.68-13.46l6.67 11.57 6.68-11.56z" stroke="#3a414a"
              stroke-width=".05" fill="#3a414a"/>
        <use xlink:href="#A"
             transform="matrix(1,0,0,1,-5828.929628479787,20.556078646750667) translate(0 14.222222222222223)"/>
        <path d="M-5680 344.62a5 5 0 0 1 5-5h390a5 5 0 0 1 5 5v94a5 5 0 0 1-5 5h-390a5 5 0 0 1-5-5z" fill="#fff"/>
        <path d="M-5680 379.62v-35a5 5 0 0 1 5-5h390a5 5 0 0 1 5 5v35" fill="#c39bd3"/>
        <path d="M-5680 344.62a5 5 0 0 1 5-5h390a5 5 0 0 1 5 5v94a5 5 0 0 1-5 5h-390a5 5 0 0 1-5-5zM-5680 379.62h400M-5480 379.62v64"
              stroke="#282c33" fill="none"/>
        <use xlink:href="#f" transform="matrix(1,0,0,1,-5670,339.62175338073007) translate(0 23.6)"/>
        <use xlink:href="#b" transform="matrix(1,0,0,1,-5675,382.12175338073007) translate(0 17.1)"/>
        <use xlink:href="#B" transform="matrix(1,0,0,1,-5475,382.12175338073007) translate(0 17.1)"/>
        <use xlink:href="#h" transform="matrix(1,0,0,1,-5675,414.12175338073007) translate(0 17.1)"/>
        <use xlink:href="#i" transform="matrix(1,0,0,1,-5475,414.12175338073007) translate(0 17.1)"/>
        <path d="M-5860.53 360.02h-11.5v-.95h11.5zm165.54 0h-78.77v-.95h78.78z" stroke="#3a414a" stroke-width=".05"
              fill="#3a414a"/>
        <path d="M-5872.02 360.02h-.5v-.95h.5z" fill="#3a414a"/>
        <path stroke="#3a414a" stroke-width=".05" fill="#3a414a"/>
        <path d="M-5681.5 359.54l-13 7.5v-15z" fill="#3a414a"/>
        <path d="M-5680.55 359.54l-14.42 8.32v-16.64zm-13.47 6.68l11.57-6.68-11.57-6.68z" stroke="#3a414a"
              stroke-width=".05" fill="#3a414a"/>
        <g>
            <use xlink:href="#C"
                 transform="matrix(1,0,0,1,-5860.532135274693,348.87510017448676) translate(0 14.222222222222223)"/>
        </g>
        <defs>
            <path fill="#333" d="M205 0l-28-72H64L36 0H1l101-248h38L239 0h-34zm-38-99l-47-123c-12 45-31 82-46 123h93"
                  id="D"/>
            <path fill="#333"
                  d="M135-143c-3-34-86-38-87 0 15 53 115 12 119 90S17 21 10-45l28-5c4 36 97 45 98 0-10-56-113-15-118-90-4-57 82-63 122-42 12 7 21 19 24 35"
                  id="E"/>
            <path fill="#333"
                  d="M100-194c63 0 86 42 84 106H49c0 40 14 67 53 68 26 1 43-12 49-29l28 8c-11 28-37 45-77 45C44 4 14-33 15-96c1-61 26-98 85-98zm52 81c6-60-76-77-97-28-3 7-6 17-6 28h103"
                  id="F"/>
            <path fill="#333" d="M59-47c-2 24 18 29 38 22v24C64 9 27 4 27-40v-127H5v-23h24l9-43h21v43h35v23H59v120"
                  id="G"/>
            <g id="a">
                <use transform="matrix(0.05,0,0,0.05,0,0)" xlink:href="#D"/>
                <use transform="matrix(0.05,0,0,0.05,12,0)" xlink:href="#E"/>
                <use transform="matrix(0.05,0,0,0.05,21,0)" xlink:href="#E"/>
                <use transform="matrix(0.05,0,0,0.05,30,0)" xlink:href="#F"/>
                <use transform="matrix(0.05,0,0,0.05,40,0)" xlink:href="#G"/>
            </g>
            <path fill="#333" d="M24-231v-30h32v30H24zM24 0v-190h32V0H24" id="H"/>
            <path fill="#333"
                  d="M85-194c31 0 48 13 60 33l-1-100h32l1 261h-30c-2-10 0-23-3-31C134-8 116 4 85 4 32 4 16-35 15-94c0-66 23-100 70-100zm9 24c-40 0-46 34-46 75 0 40 6 74 45 74 42 0 51-32 51-76 0-42-9-74-50-73"
                  id="I"/>
            <path fill="#333"
                  d="M117-194c89-4 53 116 60 194h-32v-121c0-31-8-49-39-48C34-167 62-67 57 0H25l-1-190h30c1 10-1 24 2 32 11-22 29-35 61-36"
                  id="J"/>
            <path fill="#333" d="M101-234c-31-9-42 10-38 44h38v23H63V0H32v-167H5v-23h27c-7-52 17-82 69-68v24" id="K"/>
            <path fill="#333" d="M114-163C36-179 61-72 57 0H25l-1-190h30c1 12-1 29 2 39 6-27 23-49 58-41v29" id="L"/>
            <path fill="#333" d="M137 0h-34L2-248h35l83 218 83-218h36" id="M"/>
            <path fill="#333"
                  d="M141-36C126-15 110 5 73 4 37 3 15-17 15-53c-1-64 63-63 125-63 3-35-9-54-41-54-24 1-41 7-42 31l-33-3c5-37 33-52 76-52 45 0 72 20 72 64v82c-1 20 7 32 28 27v20c-31 9-61-2-59-35zM48-53c0 20 12 33 32 33 41-3 63-29 60-74-43 2-92-5-92 41"
                  id="N"/>
            <path fill="#333" d="M24 0v-261h32V0H24" id="O"/>
            <path fill="#333"
                  d="M84 4C-5 8 30-112 23-190h32v120c0 31 7 50 39 49 72-2 45-101 50-169h31l1 190h-30c-1-10 1-25-2-33-11 22-28 36-60 37"
                  id="P"/>
            <g id="b">
                <use transform="matrix(0.05,0,0,0.05,0,0)" xlink:href="#H"/>
                <use transform="matrix(0.05,0,0,0.05,3.95,0)" xlink:href="#I"/>
                <use transform="matrix(0.05,0,0,0.05,13.949999999999998,0)" xlink:href="#F"/>
                <use transform="matrix(0.05,0,0,0.05,23.95,0)" xlink:href="#J"/>
                <use transform="matrix(0.05,0,0,0.05,33.95,0)" xlink:href="#G"/>
                <use transform="matrix(0.05,0,0,0.05,38.95,0)" xlink:href="#H"/>
                <use transform="matrix(0.05,0,0,0.05,42.900000000000006,0)" xlink:href="#K"/>
                <use transform="matrix(0.05,0,0,0.05,47.900000000000006,0)" xlink:href="#H"/>
                <use transform="matrix(0.05,0,0,0.05,51.85,0)" xlink:href="#F"/>
                <use transform="matrix(0.05,0,0,0.05,61.85,0)" xlink:href="#L"/>
                <use transform="matrix(0.05,0,0,0.05,67.80000000000001,0)" xlink:href="#M"/>
                <use transform="matrix(0.05,0,0,0.05,78.45000000000002,0)" xlink:href="#N"/>
                <use transform="matrix(0.05,0,0,0.05,88.45000000000002,0)" xlink:href="#O"/>
                <use transform="matrix(0.05,0,0,0.05,92.40000000000002,0)" xlink:href="#P"/>
                <use transform="matrix(0.05,0,0,0.05,102.40000000000003,0)" xlink:href="#F"/>
            </g>
            <path fill="#333" d="M16-82v-28h88v28H16" id="Q"/>
            <path fill="#333"
                  d="M101-251c68 0 85 55 85 127S166 4 100 4C33 4 14-52 14-124c0-73 17-127 87-127zm-1 229c47 0 54-49 54-102s-4-102-53-102c-51 0-55 48-55 102 0 53 5 102 54 102"
                  id="R"/>
            <path fill="#333" d="M27 0v-27h64v-190l-56 39v-29l58-41h29v221h61V0H27" id="S"/>
            <g id="c">
                <use transform="matrix(0.05,0,0,0.05,0,0)" xlink:href="#N"/>
                <use transform="matrix(0.05,0,0,0.05,10,0)" xlink:href="#E"/>
                <use transform="matrix(0.05,0,0,0.05,19,0)" xlink:href="#G"/>
                <use transform="matrix(0.05,0,0,0.05,24,0)" xlink:href="#Q"/>
                <use transform="matrix(0.05,0,0,0.05,29.950000000000003,0)" xlink:href="#R"/>
                <use transform="matrix(0.05,0,0,0.05,39.95,0)" xlink:href="#S"/>
            </g>
            <path fill="#333" d="M63-220v92h138v28H63V0H30v-248h175v28H63" id="T"/>
            <path fill="#333"
                  d="M212-179c-10-28-35-45-73-45-59 0-87 40-87 99 0 60 29 101 89 101 43 0 62-24 78-52l27 14C228-24 195 4 139 4 59 4 22-46 18-125c-6-104 99-153 187-111 19 9 31 26 39 46"
                  id="U"/>
            <path fill="#333" d="M33 0v-38h34V0H33" id="V"/>
            <path fill="#333"
                  d="M96-169c-40 0-48 33-48 73s9 75 48 75c24 0 41-14 43-38l32 2c-6 37-31 61-74 61-59 0-76-41-82-99-10-93 101-131 147-64 4 7 5 14 7 22l-32 3c-4-21-16-35-41-35"
                  id="W"/>
            <path fill="#333"
                  d="M100-194c62-1 85 37 85 99 1 63-27 99-86 99S16-35 15-95c0-66 28-99 85-99zM99-20c44 1 53-31 53-75 0-43-8-75-51-75s-53 32-53 75 10 74 51 75"
                  id="X"/>
            <path fill="#333" d="M127-220V0H93v-220H8v-28h204v28h-85" id="Y"/>
            <path fill="#333" d="M179-190L93 31C79 59 56 82 12 73V49c39 6 53-20 64-50L1-190h34L92-34l54-156h33" id="Z"/>
            <path fill="#333"
                  d="M115-194c55 1 70 41 70 98S169 2 115 4C84 4 66-9 55-30l1 105H24l-1-265h31l2 30c10-21 28-34 59-34zm-8 174c40 0 45-34 45-75s-6-73-45-74c-42 0-51 32-51 76 0 43 10 73 51 73"
                  id="aa"/>
            <g id="d">
                <use transform="matrix(0.05,0,0,0.05,0,0)" xlink:href="#N"/>
                <use transform="matrix(0.05,0,0,0.05,10,0)" xlink:href="#E"/>
                <use transform="matrix(0.05,0,0,0.05,19,0)" xlink:href="#E"/>
                <use transform="matrix(0.05,0,0,0.05,28,0)" xlink:href="#F"/>
                <use transform="matrix(0.05,0,0,0.05,38,0)" xlink:href="#G"/>
                <use transform="matrix(0.05,0,0,0.05,43,0)" xlink:href="#T"/>
                <use transform="matrix(0.05,0,0,0.05,53.95,0)" xlink:href="#U"/>
                <use transform="matrix(0.05,0,0,0.05,66.9,0)" xlink:href="#V"/>
                <use transform="matrix(0.05,0,0,0.05,71.9,0)" xlink:href="#K"/>
                <use transform="matrix(0.05,0,0,0.05,76.9,0)" xlink:href="#P"/>
                <use transform="matrix(0.05,0,0,0.05,86.9,0)" xlink:href="#J"/>
                <use transform="matrix(0.05,0,0,0.05,96.9,0)" xlink:href="#W"/>
                <use transform="matrix(0.05,0,0,0.05,105.9,0)" xlink:href="#G"/>
                <use transform="matrix(0.05,0,0,0.05,110.9,0)" xlink:href="#H"/>
                <use transform="matrix(0.05,0,0,0.05,114.85000000000001,0)" xlink:href="#X"/>
                <use transform="matrix(0.05,0,0,0.05,124.85000000000001,0)" xlink:href="#J"/>
                <use transform="matrix(0.05,0,0,0.05,134.85000000000002,0)" xlink:href="#N"/>
                <use transform="matrix(0.05,0,0,0.05,144.85000000000002,0)" xlink:href="#O"/>
                <use transform="matrix(0.05,0,0,0.05,148.8,0)" xlink:href="#Y"/>
                <use transform="matrix(0.05,0,0,0.05,158.75,0)" xlink:href="#Z"/>
                <use transform="matrix(0.05,0,0,0.05,167.75,0)" xlink:href="#aa"/>
                <use transform="matrix(0.05,0,0,0.05,177.75,0)" xlink:href="#F"/>
            </g>
            <path fill="#333"
                  d="M30-248c87 1 191-15 191 75 0 78-77 80-158 76V0H30v-248zm33 125c57 0 124 11 124-50 0-59-68-47-124-48v98"
                  id="ab"/>
            <g id="e">
                <use transform="matrix(0.05,0,0,0.05,0,0)" xlink:href="#aa"/>
                <use transform="matrix(0.05,0,0,0.05,10,0)" xlink:href="#L"/>
                <use transform="matrix(0.05,0,0,0.05,15.949999999999998,0)" xlink:href="#X"/>
                <use transform="matrix(0.05,0,0,0.05,25.950000000000003,0)" xlink:href="#I"/>
                <use transform="matrix(0.05,0,0,0.05,35.95,0)" xlink:href="#P"/>
                <use transform="matrix(0.05,0,0,0.05,45.95,0)" xlink:href="#W"/>
                <use transform="matrix(0.05,0,0,0.05,54.95,0)" xlink:href="#G"/>
                <use transform="matrix(0.05,0,0,0.05,59.95,0)" xlink:href="#H"/>
                <use transform="matrix(0.05,0,0,0.05,63.900000000000006,0)" xlink:href="#X"/>
                <use transform="matrix(0.05,0,0,0.05,73.9,0)" xlink:href="#J"/>
                <use transform="matrix(0.05,0,0,0.05,83.9,0)" xlink:href="#ab"/>
                <use transform="matrix(0.05,0,0,0.05,95.9,0)" xlink:href="#L"/>
                <use transform="matrix(0.05,0,0,0.05,101.85000000000001,0)" xlink:href="#X"/>
                <use transform="matrix(0.05,0,0,0.05,111.85000000000001,0)" xlink:href="#aa"/>
            </g>
            <path fill="#333"
                  d="M185-189c-5-48-123-54-124 2 14 75 158 14 163 119 3 78-121 87-175 55-17-10-28-26-33-46l33-7c5 56 141 63 141-1 0-78-155-14-162-118-5-82 145-84 179-34 5 7 8 16 11 25"
                  id="ac"/>
            <g id="f">
                <use transform="matrix(0.05,0,0,0.05,0,0)" xlink:href="#D"/>
                <use transform="matrix(0.05,0,0,0.05,12,0)" xlink:href="#E"/>
                <use transform="matrix(0.05,0,0,0.05,21,0)" xlink:href="#E"/>
                <use transform="matrix(0.05,0,0,0.05,30,0)" xlink:href="#F"/>
                <use transform="matrix(0.05,0,0,0.05,40,0)" xlink:href="#G"/>
                <use transform="matrix(0.05,0,0,0.05,45,0)" xlink:href="#ac"/>
                <use transform="matrix(0.05,0,0,0.05,57,0)" xlink:href="#U"/>
            </g>
            <path fill="#333"
                  d="M101-251c82-7 93 87 43 132L82-64C71-53 59-42 53-27h129V0H18c2-99 128-94 128-182 0-28-16-43-45-43s-46 15-49 41l-32-3c6-41 34-60 81-64"
                  id="ad"/>
            <g id="g">
                <use transform="matrix(0.05,0,0,0.05,0,0)" xlink:href="#N"/>
                <use transform="matrix(0.05,0,0,0.05,10,0)" xlink:href="#E"/>
                <use transform="matrix(0.05,0,0,0.05,19,0)" xlink:href="#G"/>
                <use transform="matrix(0.05,0,0,0.05,24,0)" xlink:href="#E"/>
                <use transform="matrix(0.05,0,0,0.05,33,0)" xlink:href="#W"/>
                <use transform="matrix(0.05,0,0,0.05,42,0)" xlink:href="#Q"/>
                <use transform="matrix(0.05,0,0,0.05,47.95,0)" xlink:href="#R"/>
                <use transform="matrix(0.05,0,0,0.05,57.95,0)" xlink:href="#ad"/>
            </g>
            <g id="h">
                <use transform="matrix(0.05,0,0,0.05,0,0)" xlink:href="#E"/>
                <use transform="matrix(0.05,0,0,0.05,9,0)" xlink:href="#G"/>
                <use transform="matrix(0.05,0,0,0.05,14,0)" xlink:href="#L"/>
                <use transform="matrix(0.05,0,0,0.05,19.95,0)" xlink:href="#P"/>
                <use transform="matrix(0.05,0,0,0.05,29.950000000000003,0)" xlink:href="#W"/>
                <use transform="matrix(0.05,0,0,0.05,38.95,0)" xlink:href="#G"/>
                <use transform="matrix(0.05,0,0,0.05,43.95,0)" xlink:href="#P"/>
                <use transform="matrix(0.05,0,0,0.05,53.95,0)" xlink:href="#L"/>
                <use transform="matrix(0.05,0,0,0.05,59.900000000000006,0)" xlink:href="#N"/>
                <use transform="matrix(0.05,0,0,0.05,69.9,0)" xlink:href="#O"/>
                <use transform="matrix(0.05,0,0,0.05,73.85000000000001,0)" xlink:href="#Y"/>
                <use transform="matrix(0.05,0,0,0.05,83.80000000000001,0)" xlink:href="#Z"/>
                <use transform="matrix(0.05,0,0,0.05,92.80000000000001,0)" xlink:href="#aa"/>
                <use transform="matrix(0.05,0,0,0.05,102.80000000000001,0)" xlink:href="#F"/>
            </g>
            <path fill="#333"
                  d="M177-190C167-65 218 103 67 71c-23-6-38-20-44-43l32-5c15 47 100 32 89-28v-30C133-14 115 1 83 1 29 1 15-40 15-95c0-56 16-97 71-98 29-1 48 16 59 35 1-10 0-23 2-32h30zM94-22c36 0 50-32 50-73 0-42-14-75-50-75-39 0-46 34-46 75s6 73 46 73"
                  id="ae"/>
            <path fill="#333"
                  d="M210-169c-67 3-38 105-44 169h-31v-121c0-29-5-50-35-48C34-165 62-65 56 0H25l-1-190h30c1 10-1 24 2 32 10-44 99-50 107 0 11-21 27-35 58-36 85-2 47 119 55 194h-31v-121c0-29-5-49-35-48"
                  id="af"/>
            <g id="i">
                <use transform="matrix(0.05,0,0,0.05,0,0)" xlink:href="#I"/>
                <use transform="matrix(0.05,0,0,0.05,10,0)" xlink:href="#H"/>
                <use transform="matrix(0.05,0,0,0.05,13.949999999999998,0)" xlink:href="#ae"/>
                <use transform="matrix(0.05,0,0,0.05,23.95,0)" xlink:href="#H"/>
                <use transform="matrix(0.05,0,0,0.05,27.899999999999995,0)" xlink:href="#G"/>
                <use transform="matrix(0.05,0,0,0.05,32.9,0)" xlink:href="#N"/>
                <use transform="matrix(0.05,0,0,0.05,42.9,0)" xlink:href="#O"/>
                <use transform="matrix(0.05,0,0,0.05,46.85,0)" xlink:href="#V"/>
                <use transform="matrix(0.05,0,0,0.05,51.85,0)" xlink:href="#H"/>
                <use transform="matrix(0.05,0,0,0.05,55.800000000000004,0)" xlink:href="#af"/>
                <use transform="matrix(0.05,0,0,0.05,70.75,0)" xlink:href="#N"/>
                <use transform="matrix(0.05,0,0,0.05,80.75,0)" xlink:href="#ae"/>
                <use transform="matrix(0.05,0,0,0.05,90.75,0)" xlink:href="#F"/>
            </g>
            <path fill="#333" d="M141 0L90-78 38 0H4l68-98-65-92h35l48 74 47-74h35l-64 92 68 98h-35" id="ag"/>
            <g id="j">
                <use transform="matrix(0.05,0,0,0.05,0,0)" xlink:href="#U"/>
                <use transform="matrix(0.05,0,0,0.05,12.950000000000001,0)" xlink:href="#X"/>
                <use transform="matrix(0.05,0,0,0.05,22.950000000000003,0)" xlink:href="#J"/>
                <use transform="matrix(0.05,0,0,0.05,32.95,0)" xlink:href="#G"/>
                <use transform="matrix(0.05,0,0,0.05,37.95,0)" xlink:href="#F"/>
                <use transform="matrix(0.05,0,0,0.05,47.95,0)" xlink:href="#ag"/>
                <use transform="matrix(0.05,0,0,0.05,56.95,0)" xlink:href="#G"/>
            </g>
            <g id="k">
                <use transform="matrix(0.05,0,0,0.05,0,0)" xlink:href="#W"/>
                <use transform="matrix(0.05,0,0,0.05,9,0)" xlink:href="#ag"/>
                <use transform="matrix(0.05,0,0,0.05,18,0)" xlink:href="#G"/>
                <use transform="matrix(0.05,0,0,0.05,23,0)" xlink:href="#Q"/>
                <use transform="matrix(0.05,0,0,0.05,28.950000000000003,0)" xlink:href="#R"/>
                <use transform="matrix(0.05,0,0,0.05,38.95,0)" xlink:href="#S"/>
            </g>
            <g id="l">
                <use transform="matrix(0.05,0,0,0.05,0,0)" xlink:href="#W"/>
                <use transform="matrix(0.05,0,0,0.05,9,0)" xlink:href="#X"/>
                <use transform="matrix(0.05,0,0,0.05,19,0)" xlink:href="#J"/>
                <use transform="matrix(0.05,0,0,0.05,29,0)" xlink:href="#G"/>
                <use transform="matrix(0.05,0,0,0.05,34,0)" xlink:href="#F"/>
                <use transform="matrix(0.05,0,0,0.05,44,0)" xlink:href="#ag"/>
                <use transform="matrix(0.05,0,0,0.05,53,0)" xlink:href="#G"/>
                <use transform="matrix(0.05,0,0,0.05,58,0)" xlink:href="#O"/>
                <use transform="matrix(0.05,0,0,0.05,61.95,0)" xlink:href="#Y"/>
                <use transform="matrix(0.05,0,0,0.05,71.9,0)" xlink:href="#Z"/>
                <use transform="matrix(0.05,0,0,0.05,80.9,0)" xlink:href="#aa"/>
                <use transform="matrix(0.05,0,0,0.05,90.9,0)" xlink:href="#F"/>
            </g>
            <g id="m">
                <use transform="matrix(0.05,0,0,0.05,0,0)" xlink:href="#aa"/>
                <use transform="matrix(0.05,0,0,0.05,10,0)" xlink:href="#L"/>
                <use transform="matrix(0.05,0,0,0.05,15.949999999999998,0)" xlink:href="#X"/>
                <use transform="matrix(0.05,0,0,0.05,25.950000000000003,0)" xlink:href="#I"/>
                <use transform="matrix(0.05,0,0,0.05,35.95,0)" xlink:href="#P"/>
                <use transform="matrix(0.05,0,0,0.05,45.95,0)" xlink:href="#W"/>
                <use transform="matrix(0.05,0,0,0.05,54.95,0)" xlink:href="#G"/>
                <use transform="matrix(0.05,0,0,0.05,59.95,0)" xlink:href="#H"/>
                <use transform="matrix(0.05,0,0,0.05,63.900000000000006,0)" xlink:href="#X"/>
                <use transform="matrix(0.05,0,0,0.05,73.9,0)" xlink:href="#J"/>
            </g>
            <g id="n">
                <use transform="matrix(0.05,0,0,0.05,0,0)" xlink:href="#W"/>
                <use transform="matrix(0.05,0,0,0.05,9,0)" xlink:href="#X"/>
                <use transform="matrix(0.05,0,0,0.05,19,0)" xlink:href="#J"/>
                <use transform="matrix(0.05,0,0,0.05,29,0)" xlink:href="#G"/>
                <use transform="matrix(0.05,0,0,0.05,34,0)" xlink:href="#F"/>
                <use transform="matrix(0.05,0,0,0.05,44,0)" xlink:href="#ag"/>
                <use transform="matrix(0.05,0,0,0.05,53,0)" xlink:href="#G"/>
                <use transform="matrix(0.05,0,0,0.05,58,0)" xlink:href="#U"/>
                <use transform="matrix(0.05,0,0,0.05,70.95,0)" xlink:href="#N"/>
                <use transform="matrix(0.05,0,0,0.05,80.95,0)" xlink:href="#G"/>
                <use transform="matrix(0.05,0,0,0.05,85.95,0)" xlink:href="#F"/>
                <use transform="matrix(0.05,0,0,0.05,95.95,0)" xlink:href="#ae"/>
                <use transform="matrix(0.05,0,0,0.05,105.95,0)" xlink:href="#X"/>
                <use transform="matrix(0.05,0,0,0.05,115.95,0)" xlink:href="#L"/>
                <use transform="matrix(0.05,0,0,0.05,121.9,0)" xlink:href="#Z"/>
            </g>
            <g id="o">
                <use transform="matrix(0.05,0,0,0.05,0,0)" xlink:href="#aa"/>
                <use transform="matrix(0.05,0,0,0.05,10,0)" xlink:href="#L"/>
                <use transform="matrix(0.05,0,0,0.05,15.949999999999998,0)" xlink:href="#X"/>
                <use transform="matrix(0.05,0,0,0.05,25.950000000000003,0)" xlink:href="#I"/>
                <use transform="matrix(0.05,0,0,0.05,35.95,0)" xlink:href="#P"/>
                <use transform="matrix(0.05,0,0,0.05,45.95,0)" xlink:href="#W"/>
                <use transform="matrix(0.05,0,0,0.05,54.95,0)" xlink:href="#G"/>
                <use transform="matrix(0.05,0,0,0.05,59.95,0)" xlink:href="#H"/>
                <use transform="matrix(0.05,0,0,0.05,63.900000000000006,0)" xlink:href="#X"/>
                <use transform="matrix(0.05,0,0,0.05,73.9,0)" xlink:href="#J"/>
                <use transform="matrix(0.05,0,0,0.05,83.9,0)" xlink:href="#ac"/>
                <use transform="matrix(0.05,0,0,0.05,95.9,0)" xlink:href="#W"/>
                <use transform="matrix(0.05,0,0,0.05,104.9,0)" xlink:href="#F"/>
                <use transform="matrix(0.05,0,0,0.05,114.9,0)" xlink:href="#J"/>
                <use transform="matrix(0.05,0,0,0.05,124.9,0)" xlink:href="#F"/>
                <use transform="matrix(0.05,0,0,0.05,134.9,0)" xlink:href="#Q"/>
                <use transform="matrix(0.05,0,0,0.05,140.85,0)" xlink:href="#ab"/>
                <use transform="matrix(0.05,0,0,0.05,152.85,0)" xlink:href="#L"/>
                <use transform="matrix(0.05,0,0,0.05,158.79999999999998,0)" xlink:href="#X"/>
                <use transform="matrix(0.05,0,0,0.05,168.79999999999998,0)" xlink:href="#aa"/>
            </g>
            <g id="p">
                <use transform="matrix(0.05,0,0,0.05,0,0)" xlink:href="#ab"/>
                <use transform="matrix(0.05,0,0,0.05,12,0)" xlink:href="#L"/>
                <use transform="matrix(0.05,0,0,0.05,17.95,0)" xlink:href="#X"/>
                <use transform="matrix(0.05,0,0,0.05,27.950000000000003,0)" xlink:href="#I"/>
                <use transform="matrix(0.05,0,0,0.05,37.95,0)" xlink:href="#P"/>
                <use transform="matrix(0.05,0,0,0.05,47.95,0)" xlink:href="#W"/>
                <use transform="matrix(0.05,0,0,0.05,56.95,0)" xlink:href="#G"/>
                <use transform="matrix(0.05,0,0,0.05,61.95,0)" xlink:href="#H"/>
                <use transform="matrix(0.05,0,0,0.05,65.9,0)" xlink:href="#X"/>
                <use transform="matrix(0.05,0,0,0.05,75.9,0)" xlink:href="#J"/>
                <use transform="matrix(0.05,0,0,0.05,85.9,0)" xlink:href="#ac"/>
                <use transform="matrix(0.05,0,0,0.05,97.9,0)" xlink:href="#W"/>
                <use transform="matrix(0.05,0,0,0.05,106.9,0)" xlink:href="#F"/>
                <use transform="matrix(0.05,0,0,0.05,116.9,0)" xlink:href="#J"/>
                <use transform="matrix(0.05,0,0,0.05,126.9,0)" xlink:href="#F"/>
            </g>
            <g id="q">
                <use transform="matrix(0.05,0,0,0.05,0,0)" xlink:href="#aa"/>
                <use transform="matrix(0.05,0,0,0.05,10,0)" xlink:href="#E"/>
                <use transform="matrix(0.05,0,0,0.05,19,0)" xlink:href="#W"/>
                <use transform="matrix(0.05,0,0,0.05,28,0)" xlink:href="#J"/>
                <use transform="matrix(0.05,0,0,0.05,38,0)" xlink:href="#Q"/>
                <use transform="matrix(0.05,0,0,0.05,43.95,0)" xlink:href="#R"/>
                <use transform="matrix(0.05,0,0,0.05,53.95,0)" xlink:href="#ad"/>
            </g>
            <path fill="#333" d="M190 0L58-211 59 0H30v-248h39L202-35l-2-213h31V0h-41" id="ah"/>
            <g id="r">
                <use transform="matrix(0.05,0,0,0.05,0,0)" xlink:href="#E"/>
                <use transform="matrix(0.05,0,0,0.05,9,0)" xlink:href="#W"/>
                <use transform="matrix(0.05,0,0,0.05,18,0)" xlink:href="#F"/>
                <use transform="matrix(0.05,0,0,0.05,28,0)" xlink:href="#J"/>
                <use transform="matrix(0.05,0,0,0.05,38,0)" xlink:href="#F"/>
                <use transform="matrix(0.05,0,0,0.05,48,0)" xlink:href="#ah"/>
                <use transform="matrix(0.05,0,0,0.05,60.95,0)" xlink:href="#N"/>
                <use transform="matrix(0.05,0,0,0.05,70.95,0)" xlink:href="#af"/>
                <use transform="matrix(0.05,0,0,0.05,85.9,0)" xlink:href="#F"/>
            </g>
            <g id="s">
                <use transform="matrix(0.05,0,0,0.05,0,0)" xlink:href="#ac"/>
                <use transform="matrix(0.05,0,0,0.05,12,0)" xlink:href="#W"/>
                <use transform="matrix(0.05,0,0,0.05,21,0)" xlink:href="#F"/>
                <use transform="matrix(0.05,0,0,0.05,31,0)" xlink:href="#J"/>
                <use transform="matrix(0.05,0,0,0.05,41,0)" xlink:href="#F"/>
            </g>
            <use transform="matrix(0.05,0,0,0.05,0,0)" xlink:href="#ad" id="t"/>
            <g id="u">
                <use transform="matrix(0.05,0,0,0.05,0,0)" xlink:href="#aa"/>
                <use transform="matrix(0.05,0,0,0.05,10,0)" xlink:href="#E"/>
                <use transform="matrix(0.05,0,0,0.05,19,0)" xlink:href="#W"/>
                <use transform="matrix(0.05,0,0,0.05,28,0)" xlink:href="#J"/>
                <use transform="matrix(0.05,0,0,0.05,38,0)" xlink:href="#Q"/>
                <use transform="matrix(0.05,0,0,0.05,43.95,0)" xlink:href="#R"/>
                <use transform="matrix(0.05,0,0,0.05,53.95,0)" xlink:href="#S"/>
            </g>
            <use transform="matrix(0.05,0,0,0.05,0,0)" xlink:href="#S" id="v"/>
            <g id="w">
                <use transform="matrix(0.04938271604938272,0,0,0.04938271604938272,0,0)" xlink:href="#P"/>
                <use transform="matrix(0.04938271604938272,0,0,0.04938271604938272,9.876543209876544,0)"
                     xlink:href="#E"/>
                <use transform="matrix(0.04938271604938272,0,0,0.04938271604938272,18.765432098765434,0)"
                     xlink:href="#F"/>
                <use transform="matrix(0.04938271604938272,0,0,0.04938271604938272,28.641975308641978,0)"
                     xlink:href="#E"/>
            </g>
            <g id="x">
                <use transform="matrix(0.04938271604938272,0,0,0.04938271604938272,0,0)" xlink:href="#U"/>
                <use transform="matrix(0.04938271604938272,0,0,0.04938271604938272,12.790123456790125,0)"
                     xlink:href="#X"/>
                <use transform="matrix(0.04938271604938272,0,0,0.04938271604938272,22.66666666666667,0)"
                     xlink:href="#J"/>
                <use transform="matrix(0.04938271604938272,0,0,0.04938271604938272,32.543209876543216,0)"
                     xlink:href="#G"/>
                <use transform="matrix(0.04938271604938272,0,0,0.04938271604938272,37.48148148148149,0)"
                     xlink:href="#F"/>
                <use transform="matrix(0.04938271604938272,0,0,0.04938271604938272,47.35802469135803,0)"
                     xlink:href="#ag"/>
                <use transform="matrix(0.04938271604938272,0,0,0.04938271604938272,56.24691358024693,0)"
                     xlink:href="#G"/>
            </g>
            <g id="y">
                <use transform="matrix(0.04938271604938272,0,0,0.04938271604938272,0,0)" xlink:href="#U"/>
                <use transform="matrix(0.04938271604938272,0,0,0.04938271604938272,12.790123456790125,0)"
                     xlink:href="#X"/>
                <use transform="matrix(0.04938271604938272,0,0,0.04938271604938272,22.66666666666667,0)"
                     xlink:href="#J"/>
                <use transform="matrix(0.04938271604938272,0,0,0.04938271604938272,32.543209876543216,0)"
                     xlink:href="#G"/>
                <use transform="matrix(0.04938271604938272,0,0,0.04938271604938272,37.48148148148149,0)"
                     xlink:href="#F"/>
                <use transform="matrix(0.04938271604938272,0,0,0.04938271604938272,47.35802469135803,0)"
                     xlink:href="#ag"/>
                <use transform="matrix(0.04938271604938272,0,0,0.04938271604938272,56.24691358024693,0)"
                     xlink:href="#G"/>
            </g>
            <g id="z">
                <use transform="matrix(0.05,0,0,0.05,0,0)" xlink:href="#W"/>
                <use transform="matrix(0.05,0,0,0.05,9,0)" xlink:href="#ag"/>
                <use transform="matrix(0.05,0,0,0.05,18,0)" xlink:href="#G"/>
                <use transform="matrix(0.05,0,0,0.05,23,0)" xlink:href="#Q"/>
                <use transform="matrix(0.05,0,0,0.05,28.950000000000003,0)" xlink:href="#R"/>
                <use transform="matrix(0.05,0,0,0.05,38.95,0)" xlink:href="#ad"/>
            </g>
            <g id="A">
                <use transform="matrix(0.04938271604938272,0,0,0.04938271604938272,0,0)" xlink:href="#P"/>
                <use transform="matrix(0.04938271604938272,0,0,0.04938271604938272,9.876543209876544,0)"
                     xlink:href="#E"/>
                <use transform="matrix(0.04938271604938272,0,0,0.04938271604938272,18.765432098765434,0)"
                     xlink:href="#F"/>
                <use transform="matrix(0.04938271604938272,0,0,0.04938271604938272,28.641975308641978,0)"
                     xlink:href="#E"/>
            </g>
            <g id="B">
                <use transform="matrix(0.05,0,0,0.05,0,0)" xlink:href="#N"/>
                <use transform="matrix(0.05,0,0,0.05,10,0)" xlink:href="#E"/>
                <use transform="matrix(0.05,0,0,0.05,19,0)" xlink:href="#G"/>
                <use transform="matrix(0.05,0,0,0.05,24,0)" xlink:href="#E"/>
                <use transform="matrix(0.05,0,0,0.05,33,0)" xlink:href="#W"/>
                <use transform="matrix(0.05,0,0,0.05,42,0)" xlink:href="#Q"/>
                <use transform="matrix(0.05,0,0,0.05,47.95,0)" xlink:href="#R"/>
                <use transform="matrix(0.05,0,0,0.05,57.95,0)" xlink:href="#S"/>
            </g>
            <path fill="#333"
                  d="M233-177c-1 41-23 64-60 70L243 0h-38l-65-103H63V0H30v-248c88 3 205-21 203 71zM63-129c60-2 137 13 137-47 0-61-80-42-137-45v92"
                  id="ai"/>
            <path fill="#333" d="M108 0H70L1-190h34L89-25l56-165h34" id="aj"/>
            <path fill="#333"
                  d="M140-251c81 0 123 46 123 126C263-46 219 4 140 4 59 4 17-45 17-125s42-126 123-126zm0 227c63 0 89-41 89-101s-29-99-89-99c-61 0-89 39-89 99S79-25 140-24"
                  id="ak"/>
            <g id="C">
                <use transform="matrix(0.04938271604938272,0,0,0.04938271604938272,0,0)" xlink:href="#ai"/>
                <use transform="matrix(0.04938271604938272,0,0,0.04938271604938272,12.790123456790125,0)"
                     xlink:href="#F"/>
                <use transform="matrix(0.04938271604938272,0,0,0.04938271604938272,22.66666666666667,0)"
                     xlink:href="#aj"/>
                <use transform="matrix(0.04938271604938272,0,0,0.04938271604938272,31.555555555555557,0)"
                     xlink:href="#H"/>
                <use transform="matrix(0.04938271604938272,0,0,0.04938271604938272,35.4567901234568,0)"
                     xlink:href="#E"/>
                <use transform="matrix(0.04938271604938272,0,0,0.04938271604938272,44.345679012345684,0)"
                     xlink:href="#H"/>
                <use transform="matrix(0.04938271604938272,0,0,0.04938271604938272,48.24691358024692,0)"
                     xlink:href="#X"/>
                <use transform="matrix(0.04938271604938272,0,0,0.04938271604938272,58.12345679012346,0)"
                     xlink:href="#J"/>
                <use transform="matrix(0.04938271604938272,0,0,0.04938271604938272,68,0)" xlink:href="#ak"/>
                <use transform="matrix(0.04938271604938272,0,0,0.04938271604938272,81.82716049382717,0)"
                     xlink:href="#K"/>
            </g>
        </defs>
    </g>
</svg>
