<svg xmlns="http://www.w3.org/2000/svg" xmlns:xlink="http://www.w3.org/1999/xlink" xmlns:lucid="lucid" width="1072" height="362"><g transform="translate(2721.0000000265477 -2538.9999999734523)" lucid:page-tab-id="0_0"><path d="M-2720 2546a6 6 0 0 1 6-6h148a6 6 0 0 1 6 6v148a6 6 0 0 1-6 6h-148a6 6 0 0 1-6-6z" stroke="#000" stroke-width="2" fill="#fff"/><use xlink:href="#a" transform="matrix(1,0,0,1,-2715,2545) translate(-3.4777777777777885 63.955555555555556)"/><use xlink:href="#b" transform="matrix(1,0,0,1,-2715,2545) translate(50.34444444444444 92.3111111111111)"/><path d="M-2718.72 2746a6 6 0 0 1 6-6h148a6 6 0 0 1 6 6v148a6 6 0 0 1-6 6h-148a6 6 0 0 1-6-6z" stroke="#000" stroke-width="2" fill="#fff"/><use xlink:href="#a" transform="matrix(1,0,0,1,-2713.723927068641,2745) translate(-3.4777777777777885 63.955555555555556)"/><use xlink:href="#c" transform="matrix(1,0,0,1,-2713.723927068641,2745) translate(50.34444444444444 92.3111111111111)"/><path d="M-2440 2646a6 6 0 0 1 6-6h148a6 6 0 0 1 6 6v148a6 6 0 0 1-6 6h-148a6 6 0 0 1-6-6z" stroke="#000" stroke-width="2" fill="#fff"/><use xlink:href="#d" transform="matrix(1,0,0,1,-2435,2645) translate(39.75555555555555 64.1861111111111)"/><use xlink:href="#e" transform="matrix(1,0,0,1,-2435,2645) translate(46.71111111111111 92.54166666666666)"/><path d="M-2125 2646a6 6 0 0 1 6-6h148a6 6 0 0 1 6 6v148a6 6 0 0 1-6 6h-148a6 6 0 0 1-6-6z" stroke="#000" stroke-width="2" fill="#fff"/><use xlink:href="#f" transform="matrix(1,0,0,1,-2120,2645) translate(49.27777777777778 64.1861111111111)"/><use xlink:href="#g" transform="matrix(1,0,0,1,-2120,2645) translate(46.21111111111111 92.54166666666666)"/><path d="M-1810 2646a6 6 0 0 1 6-6h148a6 6 0 0 1 6 6v148a6 6 0 0 1-6 6h-148a6 6 0 0 1-6-6z" stroke="#000" stroke-width="2" fill="#fff"/><use xlink:href="#h" transform="matrix(1,0,0,1,-1805,2645) translate(36.51111111111111 64.1861111111111)"/><use xlink:href="#i" transform="matrix(1,0,0,1,-1805,2645) translate(30.755555555555553 92.54166666666666)"/><path d="M-2222.72 2721H-2278v-2h55.28zm78.22 0h-37.78v-2h37.78z" stroke="#3a414a" stroke-width=".05" fill="#3a414a"/><path d="M-2277.97 2721h-1.03v-2h1.03z" fill="#3a414a"/><path d="M-2277.95 2721.03h-1.08v-2.06h1.08zm-1.03-2v1.94h.98v-1.94z" stroke="#3a414a" stroke-width=".05" fill="#3a414a"/><path d="M-2129.24 2720l-14.26 4.64v-9.28z" fill="#3a414a"/><path d="M-2126 2720l-18.5 6v-12zm-16.5 3.26l10.03-3.26-10.03-3.26z" stroke="#3a414a" stroke-width=".05" fill="#3a414a"/><use xlink:href="#j" transform="matrix(1,0,0,1,-2222.7210747329473,2709.3333333333335) translate(0 14.222222222222223)"/><path d="M-2487.2 2688.8l3.53 5 2.92 3.75 2.54 3.02 2.3 2.5 2.13 2.13 2 1.84 1.92 1.6 1.84 1.43 1.77 1.26 1.74 1.12 1.73 1 1.7.9 1.68.8.78.33-.8 1.84-.8-.34-1.76-.84-1.77-.94-1.78-1.05-1.8-1.16-1.87-1.32-1.9-1.47-1.98-1.65-2.07-1.9-2.2-2.2-2.36-2.56-2.6-3.1-2.97-3.8-3.6-5.1-13.58-22.2h2.35zm-69.6-69.75l2.1.13 2.04.22 1.96.3 1.9.36 1.86.44 1.82.5 1.8.6 1.77.67 1.77.75 1.76.84 1.77.94 1.78 1.05 1.8 1.16 1.87 1.32 1.9 1.47 1.98 1.65 2.07 1.9 2.2 2.2 2.36 2.56 2.6 3.1 2.97 3.8.96 1.36h-2.45l-.12-.16-2.9-3.75-2.55-3.02-2.3-2.5-2.13-2.13-2-1.84-1.92-1.6-1.84-1.43-1.77-1.26-1.74-1.12-1.73-1-1.7-.9-1.68-.8-1.7-.72-1.7-.64-1.7-.58-1.74-.5-1.78-.4-1.82-.36-1.87-.28-1.96-.2-2.02-.13-1.14-.03.04-2z" stroke="#3a414a" stroke-width=".05" fill="#3a414a"/><path d="M-2557.95 2619.02l-.04 2-1-.02v-2z" fill="#3a414a"/><path d="M-2557.93 2619l-.04 2.05-1.06-.03v-2.05zm-1.05 1.98l.96.02.04-1.95-1-.03z" stroke="#3a414a" stroke-width=".05" fill="#3a414a"/><path d="M-2444.17 2719.37l-14.9 1.75 1.82-9.1z" fill="#3a414a"/><path d="M-2441 2720l-19.32 2.27 2.35-11.8zm-16.82-.04l10.47-1.23-9.2-5.16z" stroke="#3a414a" stroke-width=".05" fill="#3a414a"/><use xlink:href="#k" transform="matrix(1,0,0,1,-2540.8092415660394,2646.3610497939326) translate(0 14.222222222222223)"/><path d="M-2516.56 2798.45l-2.64 3.18-2.38 2.63-2.2 2.24-2.08 1.94-1.98 1.7-1.9 1.48-1.85 1.32-1.8 1.18-1.78 1.06-1.76.94-1.75.85-1.74.75-1.76.67-1.78.6-1.8.5-1.84.44-1.9.37-1.93.3-2 .22-2.1.13-1.15.03-.04-2 1.1-.03 2-.12 1.93-.2 1.85-.3 1.8-.34 1.76-.43 1.73-.5 1.7-.56 1.68-.63 1.68-.72 1.68-.8 1.68-.9 1.7-1.03 1.74-1.13 1.78-1.28 1.83-1.44 1.9-1.63 2.02-1.88 2.14-2.18 2.33-2.58 1.6-1.95h2.6zm57.96-73.86l-.6.25-1.68.8-1.68.9-1.7 1.03-1.74 1.13-1.78 1.28-1.84 1.44-1.9 1.63-2.02 1.88-2.15 2.18-2.3 2.58-2.6 3.1-2.97 3.93-3.66 5.3-15.08 25.03h-2.35l15.74-26.1 3.72-5.4 3.02-3.98 2.63-3.18 2.4-2.63 2.2-2.24 2.07-1.94 1.98-1.7 1.9-1.48 1.85-1.32 1.8-1.18 1.78-1.06 1.76-.94 1.76-.85.65-.28z" stroke="#3a414a" stroke-width=".05" fill="#3a414a"/><path d="M-2556.68 2820.98l-1.04.02v-2l1-.02z" fill="#3a414a"/><path d="M-2556.65 2821l-1.1.03v-2.06l1.06-.02zm-1.05-1.98v1.95l1-.02-.04-1.95z" stroke="#3a414a" stroke-width=".05" fill="#3a414a"/><path d="M-2444.17 2720.65l-13.05 7.4-1.86-9.1z" fill="#3a414a"/><path d="M-2441 2720l-16.93 9.6-2.4-11.8zm-15.52 6.5l9.18-5.2-10.48-1.2z" stroke="#3a414a" stroke-width=".05" fill="#3a414a"/><use xlink:href="#k" transform="matrix(1,0,0,1,-2543.0861960979796,2777.032404090837) translate(0 14.222222222222223)"/><path d="M-1923.97 2721H-1963v-2h39.03zm94.47 0h-21.53v-2h21.53z" stroke="#3a414a" stroke-width=".05" fill="#3a414a"/><path d="M-1962.97 2721h-1.03v-2h1.03z" fill="#3a414a"/><path d="M-1962.95 2721.03h-1.08v-2.06h1.08zm-1.02-2v1.94h.97v-1.94z" stroke="#3a414a" stroke-width=".05" fill="#3a414a"/><path d="M-1814.24 2720l-14.26 4.64v-9.28z" fill="#3a414a"/><path d="M-1811 2720l-18.5 6v-12zm-16.5 3.26l10.03-3.26-10.03-3.26z" stroke="#3a414a" stroke-width=".05" fill="#3a414a"/><g><use xlink:href="#l" transform="matrix(1,0,0,1,-1923.9679883131942,2709.3333333333335) translate(0 14.222222222222223)"/></g><defs><path d="M556-476c0 141-103 215-251 213H171V0H85v-690h220c148-2 251 72 251 214zM171-612v271h134c110 0 165-45 165-135 0-91-55-136-165-136H171" id="m"/><path d="M252-434c-66-1-107 53-107 121V0H65v-500h80v49c48-85 215-70 259 11l-68 48c-20-28-48-42-84-42" id="n"/><path d="M248-508c135-1 208 86 208 224C456-109 409 9 248 8 115 9 38-82 40-218v-66c-2-136 75-225 208-224zM120-284c0 121 16 221 128 220 106-1 128-100 128-220 0-90-42-152-128-152-85 0-128 63-128 152" id="o"/><path d="M40-284c-2-134 70-224 200-224 63 0 108 19 136 58v-240h80V0h-80v-44C349-9 304 8 240 8 109 9 39-85 40-218v-66zm80 0c0 120 21 219 128 220 85 1 128-60 128-147 0-124-16-226-128-225-86 0-128 62-128 152" id="p"/><path d="M259-66c71 1 122-51 122-122v-312h80V0h-80v-49C351-7 319 7 247 8 126 7 65-62 65-188v-312h80v311c0 82 38 123 114 123" id="q"/><path d="M120-284c0 125 20 222 136 220 55 0 92-19 111-56l62 44C399-20 341 8 256 8 121 9 38-82 40-218v-66c-1-138 79-225 216-224 79 0 136 26 173 78l-63 44c-23-33-60-50-110-50-88-1-136 62-136 152" id="r"/><path d="M280 0C145 6 85-24 85-154v-274H21v-72h64v-110h80v110h115v72H165v254c-6 91 28 102 115 98V0" id="s"/><path d="M160 0H80v-500h80V0zm5-600H75v-90h90v90" id="t"/><path d="M267-434c-71-1-122 51-122 122V0H65v-500h80v49c30-42 62-56 134-57 121 1 182 70 182 196V0h-80v-311c0-82-38-123-114-123" id="u"/><path d="M60-512c2-121 91-189 223-186 103 0 179 38 228 113l-67 48c-43-53-76-82-164-83-78 0-134 33-134 108 0 95 67 108 163 128 130 27 214 62 214 199C523-55 430 7 291 8 179 8 97-30 45-105l71-49c49 56 80 82 175 84 97 0 146-37 146-111 0-94-64-111-163-129-143-22-214-89-214-202" id="v"/><path d="M120-232c-4 96 38 168 128 168 58 0 98-19 119-56l62 44C394-17 345 7 254 8 120 9 40-82 40-218c0-172 41-291 198-290 154-1 209 109 198 276H120zm118-204c-73 0-113 45-118 134h235c-4-89-43-134-117-134" id="w"/><g id="a"><use transform="matrix(0.022222222222222223,0,0,0.022222222222222223,0,0)" xlink:href="#m"/><use transform="matrix(0.022222222222222223,0,0,0.022222222222222223,13.066666666666666,0)" xlink:href="#n"/><use transform="matrix(0.022222222222222223,0,0,0.022222222222222223,21.822222222222223,0)" xlink:href="#o"/><use transform="matrix(0.022222222222222223,0,0,0.022222222222222223,32.84444444444445,0)" xlink:href="#p"/><use transform="matrix(0.022222222222222223,0,0,0.022222222222222223,44.422222222222224,0)" xlink:href="#q"/><use transform="matrix(0.022222222222222223,0,0,0.022222222222222223,56.111111111111114,0)" xlink:href="#r"/><use transform="matrix(0.022222222222222223,0,0,0.022222222222222223,65.97777777777779,0)" xlink:href="#s"/><use transform="matrix(0.022222222222222223,0,0,0.022222222222222223,72.97777777777779,0)" xlink:href="#t"/><use transform="matrix(0.022222222222222223,0,0,0.022222222222222223,78.31111111111112,0)" xlink:href="#o"/><use transform="matrix(0.022222222222222223,0,0,0.022222222222222223,89.33333333333334,0)" xlink:href="#u"/><use transform="matrix(0.022222222222222223,0,0,0.022222222222222223,101.02222222222224,0)" xlink:href="#v"/><use transform="matrix(0.022222222222222223,0,0,0.022222222222222223,113.71111111111114,0)" xlink:href="#r"/><use transform="matrix(0.022222222222222223,0,0,0.022222222222222223,123.5777777777778,0)" xlink:href="#w"/><use transform="matrix(0.022222222222222223,0,0,0.022222222222222223,134.42222222222225,0)" xlink:href="#u"/><use transform="matrix(0.022222222222222223,0,0,0.022222222222222223,146.11111111111114,0)" xlink:href="#w"/></g><path d="M45-366c1-94 76-144 179-142 86 0 147 28 182 83l-60 42c-30-38-57-50-124-51-53 0-96 19-97 67 0 47 39 74 116 79 103 10 181 38 180 149C419-37 344 9 233 8 144 8 80-20 40-75l59-42c31 38 65 51 135 51 58 0 107-19 107-71 0-70-49-71-129-80-111-8-167-58-167-149" id="x"/><path d="M289-253H30v-72h259v72" id="y"/><path d="M250-698c110-1 198 84 198 199v308C452-76 360 9 250 8 140 9 52-76 52-192v-306c-4-116 88-201 198-200zm0 628c65 1 112-54 112-121v-308c2-67-47-122-112-121-66-1-113 54-113 121v308c-2 67 47 122 113 121" id="z"/><path d="M223-690h86V0h-86v-591l-99 71v-94" id="A"/><g id="b"><use transform="matrix(0.022222222222222223,0,0,0.022222222222222223,0,0)" xlink:href="#x"/><use transform="matrix(0.022222222222222223,0,0,0.022222222222222223,10.355555555555556,0)" xlink:href="#r"/><use transform="matrix(0.022222222222222223,0,0,0.022222222222222223,20,0)" xlink:href="#y"/><use transform="matrix(0.022222222222222223,0,0,0.022222222222222223,27.08888888888889,0)" xlink:href="#z"/><use transform="matrix(0.022222222222222223,0,0,0.022222222222222223,38.2,0)" xlink:href="#A"/></g><path d="M247-698c138 0 240 127 181 264-25 59-50 81-87 126L151-78h292V0H38v-72l243-287c52-61 78-112 78-154 2-63-50-109-112-108-65-1-113 43-113 108H49c-3-109 90-185 198-185" id="B"/><g id="c"><use transform="matrix(0.022222222222222223,0,0,0.022222222222222223,0,0)" xlink:href="#x"/><use transform="matrix(0.022222222222222223,0,0,0.022222222222222223,10.355555555555556,0)" xlink:href="#r"/><use transform="matrix(0.022222222222222223,0,0,0.022222222222222223,20,0)" xlink:href="#y"/><use transform="matrix(0.022222222222222223,0,0,0.022222222222222223,27.08888888888889,0)" xlink:href="#z"/><use transform="matrix(0.022222222222222223,0,0,0.022222222222222223,38.2,0)" xlink:href="#B"/></g><path d="M547-215C530-77 448 4 300 8 108 13 50-143 50-383c0-210 83-315 250-315 149 1 229 86 248 223h-84c-21-92-62-144-164-145-154-2-168 142-164 313 3 144 36 237 164 237 102 0 143-55 164-145h83" id="C"/><path d="M286-256L468 0h-94L239-186 104 0H10l182-256L30-500h94l115 177 115-177h94" id="D"/><g id="d"><use transform="matrix(0.022222222222222223,0,0,0.022222222222222223,0,0)" xlink:href="#C"/><use transform="matrix(0.022222222222222223,0,0,0.022222222222222223,12.844444444444445,0)" xlink:href="#o"/><use transform="matrix(0.022222222222222223,0,0,0.022222222222222223,23.866666666666667,0)" xlink:href="#u"/><use transform="matrix(0.022222222222222223,0,0,0.022222222222222223,35.55555555555556,0)" xlink:href="#s"/><use transform="matrix(0.022222222222222223,0,0,0.022222222222222223,42.55555555555556,0)" xlink:href="#w"/><use transform="matrix(0.022222222222222223,0,0,0.022222222222222223,52.86666666666668,0)" xlink:href="#D"/><use transform="matrix(0.022222222222222223,0,0,0.022222222222222223,63.488888888888894,0)" xlink:href="#s"/></g><g id="e"><use transform="matrix(0.022222222222222223,0,0,0.022222222222222223,0,0)" xlink:href="#r"/><use transform="matrix(0.022222222222222223,0,0,0.022222222222222223,9.644444444444446,0)" xlink:href="#D"/><use transform="matrix(0.022222222222222223,0,0,0.022222222222222223,20.266666666666666,0)" xlink:href="#s"/><use transform="matrix(0.022222222222222223,0,0,0.022222222222222223,27.26666666666667,0)" xlink:href="#y"/><use transform="matrix(0.022222222222222223,0,0,0.022222222222222223,34.355555555555554,0)" xlink:href="#A"/><use transform="matrix(0.022222222222222223,0,0,0.022222222222222223,45.46666666666667,0)" xlink:href="#z"/></g><path d="M154-158L101 0H10l240-690h80L570 0h-91l-53-158H154zm245-78L290-560 181-236h218" id="E"/><g id="f"><use transform="matrix(0.022222222222222223,0,0,0.022222222222222223,0,0)" xlink:href="#E"/><use transform="matrix(0.022222222222222223,0,0,0.022222222222222223,12.88888888888889,0)" xlink:href="#x"/><use transform="matrix(0.022222222222222223,0,0,0.022222222222222223,23.244444444444444,0)" xlink:href="#x"/><use transform="matrix(0.022222222222222223,0,0,0.022222222222222223,33.6,0)" xlink:href="#w"/><use transform="matrix(0.022222222222222223,0,0,0.022222222222222223,44.44444444444444,0)" xlink:href="#s"/></g><path d="M219 8C111 9 40-44 40-146c0-95 62-143 187-143h119v-58c-2-74-33-85-111-87-71 1-91 8-120 51l-60-42c37-60 84-82 181-83 128 1 190 38 190 161V0h-80v-49C318-4 291 7 219 8zm0-74c103 2 133-44 127-155-96 5-231-25-226 77 0 52 33 78 99 78" id="F"/><g id="g"><use transform="matrix(0.022222222222222223,0,0,0.022222222222222223,0,0)" xlink:href="#F"/><use transform="matrix(0.022222222222222223,0,0,0.022222222222222223,10.911111111111111,0)" xlink:href="#x"/><use transform="matrix(0.022222222222222223,0,0,0.022222222222222223,21.266666666666666,0)" xlink:href="#s"/><use transform="matrix(0.022222222222222223,0,0,0.022222222222222223,28.26666666666667,0)" xlink:href="#y"/><use transform="matrix(0.022222222222222223,0,0,0.022222222222222223,35.355555555555554,0)" xlink:href="#A"/><use transform="matrix(0.022222222222222223,0,0,0.022222222222222223,46.46666666666667,0)" xlink:href="#z"/></g><g id="h"><use transform="matrix(0.022222222222222223,0,0,0.022222222222222223,0,0)" xlink:href="#E"/><use transform="matrix(0.022222222222222223,0,0,0.022222222222222223,12.88888888888889,0)" xlink:href="#x"/><use transform="matrix(0.022222222222222223,0,0,0.022222222222222223,23.244444444444444,0)" xlink:href="#x"/><use transform="matrix(0.022222222222222223,0,0,0.022222222222222223,33.6,0)" xlink:href="#w"/><use transform="matrix(0.022222222222222223,0,0,0.022222222222222223,44.44444444444444,0)" xlink:href="#s"/><use transform="matrix(0.022222222222222223,0,0,0.022222222222222223,51.44444444444444,0)" xlink:href="#v"/><use transform="matrix(0.022222222222222223,0,0,0.022222222222222223,64.13333333333333,0)" xlink:href="#C"/></g><g id="i"><use transform="matrix(0.022222222222222223,0,0,0.022222222222222223,0,0)" xlink:href="#F"/><use transform="matrix(0.022222222222222223,0,0,0.022222222222222223,10.911111111111111,0)" xlink:href="#x"/><use transform="matrix(0.022222222222222223,0,0,0.022222222222222223,21.266666666666666,0)" xlink:href="#s"/><use transform="matrix(0.022222222222222223,0,0,0.022222222222222223,28.26666666666667,0)" xlink:href="#x"/><use transform="matrix(0.022222222222222223,0,0,0.022222222222222223,38.62222222222222,0)" xlink:href="#r"/><use transform="matrix(0.022222222222222223,0,0,0.022222222222222223,48.266666666666666,0)" xlink:href="#y"/><use transform="matrix(0.022222222222222223,0,0,0.022222222222222223,55.355555555555554,0)" xlink:href="#A"/><use transform="matrix(0.022222222222222223,0,0,0.022222222222222223,66.46666666666667,0)" xlink:href="#z"/><use transform="matrix(0.022222222222222223,0,0,0.022222222222222223,77.57777777777778,0)" xlink:href="#F"/></g><path fill="#333" d="M85 4C-2 5 27-109 22-190h50c7 57-23 150 33 157 60-5 35-97 40-157h50l1 190h-47c-2-12 1-28-3-38-12 25-28 42-61 42" id="G"/><path fill="#333" d="M137-138c1-29-70-34-71-4 15 46 118 7 119 86 1 83-164 76-172 9l43-7c4 19 20 25 44 25 33 8 57-30 24-41C81-84 22-81 20-136c-2-80 154-74 161-7" id="H"/><path fill="#333" d="M185-48c-13 30-37 53-82 52C43 2 14-33 14-96s30-98 90-98c62 0 83 45 84 108H66c0 31 8 55 39 56 18 0 30-7 34-22zm-45-69c5-46-57-63-70-21-2 6-4 13-4 21h74" id="I"/><g id="j"><use transform="matrix(0.04938271604938272,0,0,0.04938271604938272,0,0)" xlink:href="#G"/><use transform="matrix(0.04938271604938272,0,0,0.04938271604938272,10.814814814814815,0)" xlink:href="#H"/><use transform="matrix(0.04938271604938272,0,0,0.04938271604938272,20.69135802469136,0)" xlink:href="#I"/><use transform="matrix(0.04938271604938272,0,0,0.04938271604938272,30.567901234567906,0)" xlink:href="#H"/></g><path fill="#333" d="M67-125c0 53 21 87 73 88 37 1 54-22 65-47l45 17C233-25 199 4 140 4 58 4 20-42 15-125 8-235 124-281 211-232c18 10 29 29 36 50l-46 12c-8-25-30-41-62-41-52 0-71 34-72 86" id="J"/><path fill="#333" d="M110-194c64 0 96 36 96 99 0 64-35 99-97 99-61 0-95-36-95-99 0-62 34-99 96-99zm-1 164c35 0 45-28 45-65 0-40-10-65-43-65-34 0-45 26-45 65 0 36 10 65 43 65" id="K"/><path fill="#333" d="M135-194c87-1 58 113 63 194h-50c-7-57 23-157-34-157-59 0-34 97-39 157H25l-1-190h47c2 12-1 28 3 38 12-26 28-41 61-42" id="L"/><path fill="#333" d="M115-3C79 11 28 4 28-45v-112H4v-33h27l15-45h31v45h36v33H77v99c-1 23 16 31 38 25v30" id="M"/><path fill="#333" d="M144 0l-44-69L55 0H2l70-98-66-92h53l41 62 40-62h54l-67 91 71 99h-54" id="N"/><g id="k"><use transform="matrix(0.04938271604938272,0,0,0.04938271604938272,0,0)" xlink:href="#J"/><use transform="matrix(0.04938271604938272,0,0,0.04938271604938272,12.790123456790125,0)" xlink:href="#K"/><use transform="matrix(0.04938271604938272,0,0,0.04938271604938272,23.60493827160494,0)" xlink:href="#L"/><use transform="matrix(0.04938271604938272,0,0,0.04938271604938272,34.41975308641975,0)" xlink:href="#M"/><use transform="matrix(0.04938271604938272,0,0,0.04938271604938272,40.2962962962963,0)" xlink:href="#I"/><use transform="matrix(0.04938271604938272,0,0,0.04938271604938272,50.17283950617284,0)" xlink:href="#N"/><use transform="matrix(0.04938271604938272,0,0,0.04938271604938272,60.04938271604939,0)" xlink:href="#M"/></g><path fill="#333" d="M199 0l-22-63H83L61 0H9l90-248h61L250 0h-51zm-33-102l-36-108c-10 38-24 72-36 108h72" id="O"/><path fill="#333" d="M169-182c-1-43-94-46-97-3 18 66 151 10 154 114 3 95-165 93-204 36-6-8-10-19-12-30l50-8c3 46 112 56 116 5-17-69-150-10-154-114-4-87 153-88 188-35 5 8 8 18 10 28" id="P"/><g id="l"><use transform="matrix(0.04938271604938272,0,0,0.04938271604938272,0,0)" xlink:href="#O"/><use transform="matrix(0.04938271604938272,0,0,0.04938271604938272,12.790123456790125,0)" xlink:href="#H"/><use transform="matrix(0.04938271604938272,0,0,0.04938271604938272,22.66666666666667,0)" xlink:href="#H"/><use transform="matrix(0.04938271604938272,0,0,0.04938271604938272,32.543209876543216,0)" xlink:href="#I"/><use transform="matrix(0.04938271604938272,0,0,0.04938271604938272,42.41975308641976,0)" xlink:href="#M"/><use transform="matrix(0.04938271604938272,0,0,0.04938271604938272,48.296296296296305,0)" xlink:href="#P"/><use transform="matrix(0.04938271604938272,0,0,0.04938271604938272,60.14814814814817,0)" xlink:href="#J"/></g></defs></g></svg>