<svg xmlns="http://www.w3.org/2000/svg" xmlns:xlink="http://www.w3.org/1999/xlink" xmlns:lucid="lucid" width="1048" height="654"><g transform="translate(-1235 -281)" lucid:page-tab-id="0_0"><path d="M1280 326a6 6 0 0 1 6-6h148a6 6 0 0 1 6 6v148a6 6 0 0 1-6 6h-148a6 6 0 0 1-6-6z" stroke="#3a414a" fill="#fff"/><use xlink:href="#a" transform="matrix(1,0,0,1,1285,325) translate(26.327160493827158 64.65277777777777)"/><use xlink:href="#b" transform="matrix(1,0,0,1,1285,325) translate(32.53086419753087 91.31944444444446)"/><use xlink:href="#c" transform="matrix(1,0,0,1,1285,325) translate(62.098765432098766 91.31944444444446)"/><path d="M1680 326a6 6 0 0 1 6-6h148a6 6 0 0 1 6 6v148a6 6 0 0 1-6 6h-148a6 6 0 0 1-6-6z" stroke="#3a414a" fill="#fff"/><use xlink:href="#d" transform="matrix(1,0,0,1,1685,325) translate(36.75925925925926 64.65277777777777)"/><use xlink:href="#b" transform="matrix(1,0,0,1,1685,325) translate(33.73456790123457 91.31944444444446)"/><use xlink:href="#e" transform="matrix(1,0,0,1,1685,325) translate(63.30246913580247 91.31944444444446)"/><path d="M1441 400h222.12" stroke="#3a414a" stroke-linejoin="round" fill="none"/><path d="M1441.02 400.5h-.52v-1h.52z" stroke="#3a414a" stroke-width=".05" fill="#3a414a"/><path d="M1677.88 400l-14.26 4.63v-9.26z" stroke="#3a414a" fill="#3a414a"/><path d="M2080 326a6 6 0 0 1 6-6h148a6 6 0 0 1 6 6v148a6 6 0 0 1-6 6h-148a6 6 0 0 1-6-6z" stroke="#3a414a" fill="#fff"/><use xlink:href="#f" transform="matrix(1,0,0,1,2085,325) translate(-1.419753086419746 66.11111111111111)"/><use xlink:href="#b" transform="matrix(1,0,0,1,2085,325) translate(34.96913580246914 92.77777777777777)"/><use xlink:href="#g" transform="matrix(1,0,0,1,2085,325) translate(64.53703703703704 92.77777777777777)"/><path d="M2080 526a6 6 0 0 1 6-6h148a6 6 0 0 1 6 6v148a6 6 0 0 1-6 6h-148a6 6 0 0 1-6-6z" stroke="#3a414a" fill="#fff"/><use xlink:href="#h" transform="matrix(1,0,0,1,2085,525) translate(-2.0061728395061778 66.11111111111111)"/><use xlink:href="#i" transform="matrix(1,0,0,1,2085,525) translate(33.73456790123457 92.77777777777777)"/><use xlink:href="#j" transform="matrix(1,0,0,1,2085,525) translate(63.30246913580247 92.77777777777777)"/><path d="M1985.65 539.88l6.9 9.52 5.76 7.28 5.1 5.9 4.6 4.92 4.32 4.22 4.06 3.65 3.88 3.2 3.74 2.85 3.63 2.53 3.56 2.26 3.5 2.04 3.47 1.8 3.46 1.64 3.46 1.46 3.48 1.3 3.53 1.14 3.6 1 3.65.86 3.75.72.16.02-.15 1-.16-.04-3.8-.72-3.7-.87-3.62-1-3.57-1.17-3.52-1.3-3.5-1.48-3.5-1.65-3.52-1.84-3.53-2.03-3.6-2.28-3.66-2.57-3.77-2.86-3.9-3.24-4.1-3.7-4.33-4.23-4.66-4.96-5.1-5.93-5.8-7.3-6.92-9.56-18.57-29.9h1.17zm-140.75-140.3l4.2.28 4.06.42 3.9.58 3.8.72 3.7.87 3.62 1 3.57 1.17 3.52 1.3 3.5 1.48 3.5 1.65 3.52 1.84 3.53 2.03 3.6 2.28 3.66 2.57 3.77 2.86 3.9 3.24 4.1 3.7 4.33 4.23 4.66 4.96 5.1 5.93 5.8 7.3 6.92 9.56 9.54 14.4 9.45 15.24H1953l-9.12-14.7-9.52-14.37-6.9-9.53-5.77-7.28-5.1-5.9-4.6-4.92-4.32-4.2-4.06-3.67-3.88-3.2-3.74-2.86-3.63-2.52-3.56-2.26-3.5-2.04-3.47-1.8-3.46-1.64-3.46-1.46-3.48-1.3-3.53-1.14-3.6-1-3.65-.86-3.75-.72-3.87-.57-4-.42-4.17-.26-3.87-.1v-1z" stroke="#3a414a" stroke-width=".05" fill="#3a414a"/><path d="M1841.03 399.5l-.02 1h-.5v-1z" fill="#3a414a"/><path d="M1841.05 399.5l-.02 1.04-.56-.02v-1.05zm-.52.98h.45l.02-.94-.47-.02z" stroke="#3a414a" stroke-width=".05" fill="#3a414a"/><path d="M2077.9 599.87l-14.6 3.46.74-9.24z" fill="#3a414a"/><path d="M2079.5 600l-16.76 3.98.86-10.6zm-15.65 2.7l12.43-2.96-11.8-4.92z" stroke="#3a414a" stroke-width=".05" fill="#3a414a"/><use xlink:href="#k" transform="matrix(1,0,0,1,1934.5812714608076,489.2002319060928) translate(0 14.222222222222223)"/><path d="M1917.63 400.5H1841v-1h76.63zm145.5 0h-60.76v-1h60.75z" stroke="#3a414a" stroke-width=".05" fill="#3a414a"/><path d="M1841.02 400.5h-.52v-1h.52z" fill="#3a414a"/><path d="M1841.04 400.52h-.57v-1.04h.57zm-.5-1v.96h.45v-.96z" stroke="#3a414a" stroke-width=".05" fill="#3a414a"/><path d="M2077.88 400l-14.26 4.63v-9.26z" fill="#3a414a"/><path d="M2079.5 400l-16.38 5.32v-10.64zm-15.38 3.95l12.14-3.95-12.14-3.95z" stroke="#3a414a" stroke-width=".05" fill="#3a414a"/><use xlink:href="#l" transform="matrix(1,0,0,1,1917.6314221124549,389.3333333333333) translate(0 14.222222222222223)"/><path d="M1280 726a6 6 0 0 1 6-6h148a6 6 0 0 1 6 6v148a6 6 0 0 1-6 6h-148a6 6 0 0 1-6-6z" stroke="#3a414a" fill="#fff"/><use xlink:href="#a" transform="matrix(1,0,0,1,1285,725) translate(26.327160493827158 64.65277777777777)"/><use xlink:href="#b" transform="matrix(1,0,0,1,1285,725) translate(32.53086419753087 91.31944444444446)"/><use xlink:href="#m" transform="matrix(1,0,0,1,1285,725) translate(62.098765432098766 91.31944444444446)"/><path d="M1680 726a6 6 0 0 1 6-6h148a6 6 0 0 1 6 6v148a6 6 0 0 1-6 6h-148a6 6 0 0 1-6-6z" stroke="#3a414a" fill="#fff"/><use xlink:href="#d" transform="matrix(1,0,0,1,1685,725) translate(36.75925925925926 64.65277777777777)"/><use xlink:href="#b" transform="matrix(1,0,0,1,1685,725) translate(33.73456790123457 91.31944444444446)"/><use xlink:href="#n" transform="matrix(1,0,0,1,1685,725) translate(63.30246913580247 91.31944444444446)"/><path d="M1441 800h222.12" stroke="#3a414a" stroke-linejoin="round" fill="none"/><path d="M1441.02 800.5h-.52v-1h.52z" stroke="#3a414a" stroke-width=".05" fill="#3a414a"/><path d="M1677.88 800l-14.26 4.63v-9.26z" stroke="#3a414a" fill="#3a414a"/><path d="M2080 726a6 6 0 0 1 6-6h148a6 6 0 0 1 6 6v148a6 6 0 0 1-6 6h-148a6 6 0 0 1-6-6z" stroke="#3a414a" fill="#fff"/><use xlink:href="#f" transform="matrix(1,0,0,1,2085,725) translate(-1.419753086419746 66.11111111111111)"/><use xlink:href="#b" transform="matrix(1,0,0,1,2085,725) translate(34.96913580246914 92.77777777777777)"/><use xlink:href="#o" transform="matrix(1,0,0,1,2085,725) translate(64.53703703703704 92.77777777777777)"/><path d="M1918.72 768.45l-4.78 4.3-4.5 3.72-4.28 3.26-4.14 2.88-4.05 2.58-4 2.3-3.94 2.07-3.95 1.86-3.97 1.68-4 1.5-4.07 1.3-4.16 1.17-4.27 1-4.42.85-4.58.67-4.78.5-5.02.32-4.8.1v-1l4.76-.1 4.98-.32 4.74-.5 4.54-.67 4.37-.82 4.22-1 4.12-1.15 4.03-1.3 3.97-1.48 3.93-1.65 3.9-1.84 3.93-2.05 3.95-2.27 4-2.55 4.13-2.86 4.25-3.24 4.46-3.7 4.36-3.92h1.45zm144.52-131.94l-3.26.5-4.37.83-4.22 1-4.12 1.14-4.03 1.3-3.97 1.5-3.93 1.64-3.9 1.85-3.93 2.05-3.95 2.28-4 2.55-4.13 2.86-4.25 3.22-4.46 3.7-4.74 4.27-5.16 5.05-5.8 6.2-6.95 8.06-37.57 50.18-7.93 10.05h-1.28l8.42-10.66 37.57-50.2 6.98-8.1 5.84-6.22 5.18-5.1 4.78-4.3 4.5-3.7 4.28-3.27 4.14-2.88 4.05-2.58 4-2.3 3.94-2.07 3.95-1.86 3.97-1.67 4-1.5 4.07-1.32 4.16-1.15 4.27-1 4.42-.84 3.27-.48z" stroke="#3a414a" stroke-width=".05" fill="#3a414a"/><path d="M1841.03 800.5h-.53v-1h.5z" fill="#3a414a"/><path d="M1841.05 800.5l-.58.03v-1.05l.56-.02zm-.52-.98v.96h.47l-.02-.97z" stroke="#3a414a" stroke-width=".05" fill="#3a414a"/><path d="M2077.9 635l-13.93 5.6-.63-9.24z" fill="#3a414a"/><path d="M2079.5 634.9l-15.98 6.43-.73-10.62zm-15.08 5l11.85-4.77-12.4-3.12z" stroke="#3a414a" stroke-width=".05" fill="#3a414a"/><use xlink:href="#k" transform="matrix(1,0,0,1,1903.1897242294176,746.7281258686373) translate(0 14.222222222222223)"/><path d="M2010.64 829.4l13.42 1.98 15.06 1.58 17.9 1.1 6.1.13v1l-6.14-.13-17.94-1.12-15.1-1.58-13.47-1.98-12.8-2.45h4.76v-.1zm-147.62-29.45l17.94 1.12 15.1 1.58 13.47 1.98 10.4 2h-2.24v.58l-8.34-1.58-13.42-1.98-15.06-1.57-17.9-1.12-22-.44.03-1z" stroke="#3a414a" stroke-width=".05" fill="#3a414a"/><path d="M1841.03 799.5l-.02 1h-.5v-1z" fill="#3a414a"/><path d="M1841.05 799.5l-.02 1.04h-.56v-1.07zm-.52.98h.45l.02-.95h-.47z" stroke="#3a414a" stroke-width=".05" fill="#3a414a"/><path d="M2077.88 835l-14.35 4.34.18-9.27z" fill="#3a414a"/><path d="M2079.5 835.02l-16.5 5 .23-10.65zm-15.46 3.64l12.22-3.7-12.06-4.2z" stroke="#3a414a" stroke-width=".05" fill="#3a414a"/><g><use xlink:href="#l" transform="matrix(1,0,0,1,1917.6893245711874,806.6157175315531) translate(0 14.222222222222223)"/></g><path d="M1680 526a6 6 0 0 1 6-6h148a6 6 0 0 1 6 6v148a6 6 0 0 1-6 6h-148a6 6 0 0 1-6-6z" stroke="#3a414a" fill="#fff"/><g><use xlink:href="#d" transform="matrix(1,0,0,1,1685,525) translate(36.75925925925926 64.65277777777777)"/><use xlink:href="#b" transform="matrix(1,0,0,1,1685,525) translate(33.73456790123457 91.31944444444446)"/><use xlink:href="#p" transform="matrix(1,0,0,1,1685,525) translate(63.30246913580247 91.31944444444446)"/></g><path d="M1441 400l3.88.1 4.2.25 4.02.43 3.88.57 3.77.72 3.68.86 3.6 1 3.55 1.16 3.5 1.3 3.5 1.46 3.47 1.64 3.5 1.82 3.52 2.04 3.58 2.27 3.65 2.54 3.76 2.85 3.9 3.23 4.07 3.67 4.3 4.23 4.65 4.95 5.1 5.9 5.77 7.3 6.92 9.54 9.53 14.4 40.93 65.92 6.92 9.54 5.77 7.3 5.1 5.9 4.64 4.95 4.3 4.23 4.1 3.67 3.88 3.23 3.76 2.85 3.65 2.54 3.58 2.27 3.52 2.03 3.5 1.83 3.48 1.64 3.48 1.46 3.52 1.3 3.54 1.16 3.6 1 3.7.87 3.76.72.17.02" stroke="#3a414a" stroke-linejoin="round" fill="none"/><path d="M1441.03 399.5l-.02 1h-.5v-1z" stroke="#3a414a" stroke-width=".05" fill="#3a414a"/><path d="M1677.9 599.87l-14.6 3.46.74-9.24z" stroke="#3a414a" fill="#3a414a"/><path d="M1915.64 627.85l4.92 4.44 5.4 5.28 6.16 6.57 7.6 8.84 12.47 15.8 28.84 37.67 7.6 8.8 6.1 6.54 5.38 5.27 4.9 4.4 4.57 3.8 4.34 3.3 4.2 2.93 4.1 2.6 4.03 2.32 4 2.1 3.97 1.87 4 1.67 4.06 1.5 4.12 1.34 4.2 1.2 4.34 1 4.48.86 3.8.56-.15 1-3.83-.57-4.52-.87-4.37-1.02-4.25-1.2-4.16-1.34-4.1-1.52-4.03-1.7-4.03-1.9-4.02-2.1-4.06-2.35-4.13-2.62-4.24-2.95-4.4-3.33-4.6-3.8-4.92-4.45-5.4-5.3-6.16-6.56-7.62-8.84-28.86-37.68-12.44-15.8-7.6-8.8-6.1-6.54-5.38-5.26-4.9-4.4-4.57-3.8-.77-.6h1.63zm-69.68-28.24l5.16.34 4.9.5 4.7.7 4.53.87 3.78.9h-4.46l-4-.77-4.66-.68-4.86-.52-5.12-.32-4.93-.1v-1z" stroke="#3a414a" stroke-width=".05" fill="#3a414a"/><path d="M1841.03 599.5l-.02 1h-.5v-1z" fill="#3a414a"/><path d="M1841.05 599.5l-.02 1.04h-.56v-1.07zm-.52.98h.45l.02-.95h-.47z" stroke="#3a414a" stroke-width=".05" fill="#3a414a"/><path d="M2077.9 760l-14.55 3.67.6-9.25z" fill="#3a414a"/><path d="M2079.5 760.1l-16.7 4.23.7-10.63zm-15.6 2.92l12.37-3.14-11.86-4.74z" stroke="#3a414a" stroke-width=".05" fill="#3a414a"/><g><use xlink:href="#l" transform="matrix(1,0,0,1,1852.1775251062268,602.8948675348983) translate(0 14.222222222222223)"/></g><defs><path fill="#3a414a" d="M212-179c-10-28-35-45-73-45-59 0-87 40-87 99 0 60 29 101 89 101 43 0 62-24 78-52l27 14C228-24 195 4 139 4 59 4 22-46 18-125c-6-104 99-153 187-111 19 9 31 26 39 46" id="q"/><path fill="#3a414a" d="M106-169C34-169 62-67 57 0H25v-261h32l-1 103c12-21 28-36 61-36 89 0 53 116 60 194h-32v-121c2-32-8-49-39-48" id="r"/><path fill="#3a414a" d="M141-36C126-15 110 5 73 4 37 3 15-17 15-53c-1-64 63-63 125-63 3-35-9-54-41-54-24 1-41 7-42 31l-33-3c5-37 33-52 76-52 45 0 72 20 72 64v82c-1 20 7 32 28 27v20c-31 9-61-2-59-35zM48-53c0 20 12 33 32 33 41-3 63-29 60-74-43 2-92-5-92 41" id="s"/><path fill="#3a414a" d="M114-163C36-179 61-72 57 0H25l-1-190h30c1 12-1 29 2 39 6-27 23-49 58-41v29" id="t"/><path fill="#3a414a" d="M96-169c-40 0-48 33-48 73s9 75 48 75c24 0 41-14 43-38l32 2c-6 37-31 61-74 61-59 0-76-41-82-99-10-93 101-131 147-64 4 7 5 14 7 22l-32 3c-4-21-16-35-41-35" id="u"/><path fill="#3a414a" d="M59-47c-2 24 18 29 38 22v24C64 9 27 4 27-40v-127H5v-23h24l9-43h21v43h35v23H59v120" id="v"/><path fill="#3a414a" d="M100-194c63 0 86 42 84 106H49c0 40 14 67 53 68 26 1 43-12 49-29l28 8c-11 28-37 45-77 45C44 4 14-33 15-96c1-61 26-98 85-98zm52 81c6-60-76-77-97-28-3 7-6 17-6 28h103" id="w"/><g id="a"><use transform="matrix(0.06172839506172839,0,0,0.06172839506172839,0,0)" xlink:href="#q"/><use transform="matrix(0.06172839506172839,0,0,0.06172839506172839,15.987654320987653,0)" xlink:href="#r"/><use transform="matrix(0.06172839506172839,0,0,0.06172839506172839,28.333333333333332,0)" xlink:href="#s"/><use transform="matrix(0.06172839506172839,0,0,0.06172839506172839,40.67901234567901,0)" xlink:href="#t"/><use transform="matrix(0.06172839506172839,0,0,0.06172839506172839,48.02469135802469,0)" xlink:href="#s"/><use transform="matrix(0.06172839506172839,0,0,0.06172839506172839,60.37037037037037,0)" xlink:href="#u"/><use transform="matrix(0.06172839506172839,0,0,0.06172839506172839,71.48148148148148,0)" xlink:href="#v"/><use transform="matrix(0.06172839506172839,0,0,0.06172839506172839,77.65432098765432,0)" xlink:href="#w"/><use transform="matrix(0.06172839506172839,0,0,0.06172839506172839,90,0)" xlink:href="#t"/></g><path fill="#3a414a" d="M24-231v-30h32v30H24zM24 0v-190h32V0H24" id="x"/><path fill="#3a414a" d="M85-194c31 0 48 13 60 33l-1-100h32l1 261h-30c-2-10 0-23-3-31C134-8 116 4 85 4 32 4 16-35 15-94c0-66 23-100 70-100zm9 24c-40 0-46 34-46 75 0 40 6 74 45 74 42 0 51-32 51-76 0-42-9-74-50-73" id="y"/><path fill="#3a414a" d="M33-154v-36h34v36H33zM33 0v-36h34V0H33" id="z"/><g id="b"><use transform="matrix(0.06172839506172839,0,0,0.06172839506172839,0,0)" xlink:href="#x"/><use transform="matrix(0.06172839506172839,0,0,0.06172839506172839,4.876543209876543,0)" xlink:href="#y"/><use transform="matrix(0.06172839506172839,0,0,0.06172839506172839,17.22222222222222,0)" xlink:href="#z"/></g><path fill="#3a414a" d="M16-82v-28h88v28H16" id="A"/><path fill="#3a414a" d="M27 0v-27h64v-190l-56 39v-29l58-41h29v221h61V0H27" id="B"/><g id="c"><use transform="matrix(0.06172839506172839,0,0,0.06172839506172839,0,0)" xlink:href="#q"/><use transform="matrix(0.06172839506172839,0,0,0.06172839506172839,15.987654320987653,0)" xlink:href="#r"/><use transform="matrix(0.06172839506172839,0,0,0.06172839506172839,28.333333333333332,0)" xlink:href="#t"/><use transform="matrix(0.06172839506172839,0,0,0.06172839506172839,35.67901234567901,0)" xlink:href="#A"/><use transform="matrix(0.06172839506172839,0,0,0.06172839506172839,43.02469135802469,0)" xlink:href="#B"/></g><path fill="#3a414a" d="M100-194c62-1 85 37 85 99 1 63-27 99-86 99S16-35 15-95c0-66 28-99 85-99zM99-20c44 1 53-31 53-75 0-43-8-75-51-75s-53 32-53 75 10 74 51 75" id="C"/><path fill="#3a414a" d="M117-194c89-4 53 116 60 194h-32v-121c0-31-8-49-39-48C34-167 62-67 57 0H25l-1-190h30c1 10-1 24 2 32 11-22 29-35 61-36" id="D"/><path fill="#3a414a" d="M141 0L90-78 38 0H4l68-98-65-92h35l48 74 47-74h35l-64 92 68 98h-35" id="E"/><g id="d"><use transform="matrix(0.06172839506172839,0,0,0.06172839506172839,0,0)" xlink:href="#q"/><use transform="matrix(0.06172839506172839,0,0,0.06172839506172839,15.987654320987653,0)" xlink:href="#C"/><use transform="matrix(0.06172839506172839,0,0,0.06172839506172839,28.333333333333332,0)" xlink:href="#D"/><use transform="matrix(0.06172839506172839,0,0,0.06172839506172839,40.67901234567901,0)" xlink:href="#v"/><use transform="matrix(0.06172839506172839,0,0,0.06172839506172839,46.851851851851855,0)" xlink:href="#w"/><use transform="matrix(0.06172839506172839,0,0,0.06172839506172839,59.19753086419753,0)" xlink:href="#E"/><use transform="matrix(0.06172839506172839,0,0,0.06172839506172839,70.30864197530865,0)" xlink:href="#v"/></g><g id="e"><use transform="matrix(0.06172839506172839,0,0,0.06172839506172839,0,0)" xlink:href="#q"/><use transform="matrix(0.06172839506172839,0,0,0.06172839506172839,15.987654320987653,0)" xlink:href="#E"/><use transform="matrix(0.06172839506172839,0,0,0.06172839506172839,27.098765432098766,0)" xlink:href="#v"/><use transform="matrix(0.06172839506172839,0,0,0.06172839506172839,33.27160493827161,0)" xlink:href="#A"/><use transform="matrix(0.06172839506172839,0,0,0.06172839506172839,40.617283950617285,0)" xlink:href="#B"/></g><path fill="#3a414a" d="M190 0L58-211 59 0H30v-248h39L202-35l-2-213h31V0h-41" id="F"/><path fill="#3a414a" d="M108 0H70L1-190h34L89-25l56-165h34" id="G"/><path fill="#3a414a" d="M185-189c-5-48-123-54-124 2 14 75 158 14 163 119 3 78-121 87-175 55-17-10-28-26-33-46l33-7c5 56 141 63 141-1 0-78-155-14-162-118-5-82 145-84 179-34 5 7 8 16 11 25" id="H"/><g id="f"><use transform="matrix(0.06172839506172839,0,0,0.06172839506172839,0,0)" xlink:href="#F"/><use transform="matrix(0.06172839506172839,0,0,0.06172839506172839,15.987654320987653,0)" xlink:href="#s"/><use transform="matrix(0.06172839506172839,0,0,0.06172839506172839,28.333333333333332,0)" xlink:href="#t"/><use transform="matrix(0.06172839506172839,0,0,0.06172839506172839,35.67901234567901,0)" xlink:href="#t"/><use transform="matrix(0.06172839506172839,0,0,0.06172839506172839,43.02469135802469,0)" xlink:href="#s"/><use transform="matrix(0.06172839506172839,0,0,0.06172839506172839,55.37037037037037,0)" xlink:href="#v"/><use transform="matrix(0.06172839506172839,0,0,0.06172839506172839,61.54320987654321,0)" xlink:href="#x"/><use transform="matrix(0.06172839506172839,0,0,0.06172839506172839,66.41975308641975,0)" xlink:href="#G"/><use transform="matrix(0.06172839506172839,0,0,0.06172839506172839,77.53086419753086,0)" xlink:href="#w"/><use transform="matrix(0.06172839506172839,0,0,0.06172839506172839,89.87654320987654,0)" xlink:href="#H"/><use transform="matrix(0.06172839506172839,0,0,0.06172839506172839,104.69135802469135,0)" xlink:href="#u"/><use transform="matrix(0.06172839506172839,0,0,0.06172839506172839,115.80246913580247,0)" xlink:href="#w"/><use transform="matrix(0.06172839506172839,0,0,0.06172839506172839,128.14814814814815,0)" xlink:href="#D"/><use transform="matrix(0.06172839506172839,0,0,0.06172839506172839,140.49382716049382,0)" xlink:href="#w"/></g><g id="g"><use transform="matrix(0.06172839506172839,0,0,0.06172839506172839,0,0)" xlink:href="#F"/><use transform="matrix(0.06172839506172839,0,0,0.06172839506172839,15.987654320987653,0)" xlink:href="#H"/><use transform="matrix(0.06172839506172839,0,0,0.06172839506172839,30.80246913580247,0)" xlink:href="#A"/><use transform="matrix(0.06172839506172839,0,0,0.06172839506172839,38.148148148148145,0)" xlink:href="#B"/></g><path fill="#3a414a" d="M140-251c81 0 123 46 123 126C263-46 219 4 140 4 59 4 17-45 17-125s42-126 123-126zm0 227c63 0 89-41 89-101s-29-99-89-99c-61 0-89 39-89 99S79-25 140-24" id="I"/><path fill="#3a414a" d="M115-194c53 0 69 39 70 98 0 66-23 100-70 100C84 3 66-7 56-30L54 0H23l1-261h32v101c10-23 28-34 59-34zm-8 174c40 0 45-34 45-75 0-40-5-75-45-74-42 0-51 32-51 76 0 43 10 73 51 73" id="J"/><path fill="#3a414a" d="M24-231v-30h32v30H24zM-9 49c24 4 33-6 33-30v-209h32V24c2 40-23 58-65 49V49" id="K"/><g id="h"><use transform="matrix(0.06172839506172839,0,0,0.06172839506172839,0,0)" xlink:href="#F"/><use transform="matrix(0.06172839506172839,0,0,0.06172839506172839,15.987654320987653,0)" xlink:href="#s"/><use transform="matrix(0.06172839506172839,0,0,0.06172839506172839,28.333333333333332,0)" xlink:href="#t"/><use transform="matrix(0.06172839506172839,0,0,0.06172839506172839,35.67901234567901,0)" xlink:href="#t"/><use transform="matrix(0.06172839506172839,0,0,0.06172839506172839,43.02469135802469,0)" xlink:href="#s"/><use transform="matrix(0.06172839506172839,0,0,0.06172839506172839,55.37037037037037,0)" xlink:href="#v"/><use transform="matrix(0.06172839506172839,0,0,0.06172839506172839,61.54320987654321,0)" xlink:href="#x"/><use transform="matrix(0.06172839506172839,0,0,0.06172839506172839,66.41975308641975,0)" xlink:href="#G"/><use transform="matrix(0.06172839506172839,0,0,0.06172839506172839,77.53086419753086,0)" xlink:href="#w"/><use transform="matrix(0.06172839506172839,0,0,0.06172839506172839,89.87654320987654,0)" xlink:href="#I"/><use transform="matrix(0.06172839506172839,0,0,0.06172839506172839,107.1604938271605,0)" xlink:href="#J"/><use transform="matrix(0.06172839506172839,0,0,0.06172839506172839,119.50617283950618,0)" xlink:href="#K"/><use transform="matrix(0.06172839506172839,0,0,0.06172839506172839,124.38271604938272,0)" xlink:href="#w"/><use transform="matrix(0.06172839506172839,0,0,0.06172839506172839,136.7283950617284,0)" xlink:href="#u"/><use transform="matrix(0.06172839506172839,0,0,0.06172839506172839,147.83950617283952,0)" xlink:href="#v"/></g><g id="i"><use transform="matrix(0.06172839506172839,0,0,0.06172839506172839,0,0)" xlink:href="#x"/><use transform="matrix(0.06172839506172839,0,0,0.06172839506172839,4.876543209876543,0)" xlink:href="#y"/><use transform="matrix(0.06172839506172839,0,0,0.06172839506172839,17.22222222222222,0)" xlink:href="#z"/></g><g id="j"><use transform="matrix(0.06172839506172839,0,0,0.06172839506172839,0,0)" xlink:href="#F"/><use transform="matrix(0.06172839506172839,0,0,0.06172839506172839,15.987654320987653,0)" xlink:href="#I"/><use transform="matrix(0.06172839506172839,0,0,0.06172839506172839,33.2716049382716,0)" xlink:href="#A"/><use transform="matrix(0.06172839506172839,0,0,0.06172839506172839,40.61728395061728,0)" xlink:href="#B"/></g><path fill="#333" d="M135-194c87-1 58 113 63 194h-50c-7-57 23-157-34-157-59 0-34 97-39 157H25l-1-190h47c2 12-1 28 3 38 12-26 28-41 61-42" id="L"/><path fill="#333" d="M185-48c-13 30-37 53-82 52C43 2 14-33 14-96s30-98 90-98c62 0 83 45 84 108H66c0 31 8 55 39 56 18 0 30-7 34-22zm-45-69c5-46-57-63-70-21-2 6-4 13-4 21h74" id="M"/><path fill="#333" d="M88-194c31-1 46 15 58 34l-1-101h50l1 261h-48c-2-10 0-23-3-31C134-8 116 4 84 4 32 4 16-41 15-95c0-56 19-97 73-99zm17 164c33 0 40-30 41-66 1-37-9-64-41-64s-38 30-39 65c0 43 13 65 39 65" id="N"/><path fill="#333" d="M137-138c1-29-70-34-71-4 15 46 118 7 119 86 1 83-164 76-172 9l43-7c4 19 20 25 44 25 33 8 57-30 24-41C81-84 22-81 20-136c-2-80 154-74 161-7" id="O"/><g id="k"><use transform="matrix(0.04938271604938272,0,0,0.04938271604938272,0,0)" xlink:href="#L"/><use transform="matrix(0.04938271604938272,0,0,0.04938271604938272,10.814814814814815,0)" xlink:href="#M"/><use transform="matrix(0.04938271604938272,0,0,0.04938271604938272,20.69135802469136,0)" xlink:href="#M"/><use transform="matrix(0.04938271604938272,0,0,0.04938271604938272,30.567901234567906,0)" xlink:href="#N"/><use transform="matrix(0.04938271604938272,0,0,0.04938271604938272,41.38271604938272,0)" xlink:href="#O"/></g><path fill="#333" d="M121-226c-27-7-43 5-38 36h38v33H83V0H34v-157H6v-33h28c-9-59 32-81 87-68v32" id="P"/><path fill="#333" d="M133-34C117-15 103 5 69 4 32 3 11-16 11-54c-1-60 55-63 116-61 1-26-3-47-28-47-18 1-26 9-28 27l-52-2c7-38 36-58 82-57s74 22 75 68l1 82c-1 14 12 18 25 15v27c-30 8-71 5-69-32zm-48 3c29 0 43-24 42-57-32 0-66-3-65 30 0 17 8 27 23 27" id="Q"/><path fill="#333" d="M115-3C79 11 28 4 28-45v-112H4v-33h27l15-45h31v45h36v33H77v99c-1 23 16 31 38 25v30" id="R"/><path fill="#333" d="M85 4C-2 5 27-109 22-190h50c7 57-23 150 33 157 60-5 35-97 40-157h50l1 190h-47c-2-12 1-28-3-38-12 25-28 42-61 42" id="S"/><path fill="#333" d="M135-150c-39-12-60 13-60 57V0H25l-1-190h47c2 13-1 29 3 40 6-28 27-53 61-41v41" id="T"/><path fill="#333" d="M24 0v-248h52V0H24" id="U"/><g id="l"><use transform="matrix(0.04938271604938272,0,0,0.04938271604938272,0,0)" xlink:href="#P"/><use transform="matrix(0.04938271604938272,0,0,0.04938271604938272,5.8765432098765435,0)" xlink:href="#M"/><use transform="matrix(0.04938271604938272,0,0,0.04938271604938272,15.753086419753087,0)" xlink:href="#Q"/><use transform="matrix(0.04938271604938272,0,0,0.04938271604938272,25.629629629629633,0)" xlink:href="#R"/><use transform="matrix(0.04938271604938272,0,0,0.04938271604938272,31.506172839506174,0)" xlink:href="#S"/><use transform="matrix(0.04938271604938272,0,0,0.04938271604938272,42.320987654320994,0)" xlink:href="#T"/><use transform="matrix(0.04938271604938272,0,0,0.04938271604938272,49.23456790123458,0)" xlink:href="#M"/><use transform="matrix(0.04938271604938272,0,0,0.04938271604938272,59.111111111111114,0)" xlink:href="#O"/><use transform="matrix(0.04938271604938272,0,0,0.04938271604938272,68.98765432098767,0)" xlink:href="#U"/><use transform="matrix(0.04938271604938272,0,0,0.04938271604938272,73.92592592592595,0)" xlink:href="#L"/></g><path fill="#3a414a" d="M101-251c82-7 93 87 43 132L82-64C71-53 59-42 53-27h129V0H18c2-99 128-94 128-182 0-28-16-43-45-43s-46 15-49 41l-32-3c6-41 34-60 81-64" id="V"/><g id="m"><use transform="matrix(0.06172839506172839,0,0,0.06172839506172839,0,0)" xlink:href="#q"/><use transform="matrix(0.06172839506172839,0,0,0.06172839506172839,15.987654320987653,0)" xlink:href="#r"/><use transform="matrix(0.06172839506172839,0,0,0.06172839506172839,28.333333333333332,0)" xlink:href="#t"/><use transform="matrix(0.06172839506172839,0,0,0.06172839506172839,35.67901234567901,0)" xlink:href="#A"/><use transform="matrix(0.06172839506172839,0,0,0.06172839506172839,43.02469135802469,0)" xlink:href="#V"/></g><path fill="#3a414a" d="M126-127c33 6 58 20 58 59 0 88-139 92-164 29-3-8-5-16-6-25l32-3c6 27 21 44 54 44 32 0 52-15 52-46 0-38-36-46-79-43v-28c39 1 72-4 72-42 0-27-17-43-46-43-28 0-47 15-49 41l-32-3c6-42 35-63 81-64 48-1 79 21 79 65 0 36-21 52-52 59" id="W"/><g id="n"><use transform="matrix(0.06172839506172839,0,0,0.06172839506172839,0,0)" xlink:href="#q"/><use transform="matrix(0.06172839506172839,0,0,0.06172839506172839,15.987654320987653,0)" xlink:href="#E"/><use transform="matrix(0.06172839506172839,0,0,0.06172839506172839,27.098765432098766,0)" xlink:href="#v"/><use transform="matrix(0.06172839506172839,0,0,0.06172839506172839,33.27160493827161,0)" xlink:href="#A"/><use transform="matrix(0.06172839506172839,0,0,0.06172839506172839,40.617283950617285,0)" xlink:href="#W"/></g><g id="o"><use transform="matrix(0.06172839506172839,0,0,0.06172839506172839,0,0)" xlink:href="#F"/><use transform="matrix(0.06172839506172839,0,0,0.06172839506172839,15.987654320987653,0)" xlink:href="#H"/><use transform="matrix(0.06172839506172839,0,0,0.06172839506172839,30.80246913580247,0)" xlink:href="#A"/><use transform="matrix(0.06172839506172839,0,0,0.06172839506172839,38.148148148148145,0)" xlink:href="#V"/></g><g id="p"><use transform="matrix(0.06172839506172839,0,0,0.06172839506172839,0,0)" xlink:href="#q"/><use transform="matrix(0.06172839506172839,0,0,0.06172839506172839,15.987654320987653,0)" xlink:href="#E"/><use transform="matrix(0.06172839506172839,0,0,0.06172839506172839,27.098765432098766,0)" xlink:href="#v"/><use transform="matrix(0.06172839506172839,0,0,0.06172839506172839,33.27160493827161,0)" xlink:href="#A"/><use transform="matrix(0.06172839506172839,0,0,0.06172839506172839,40.617283950617285,0)" xlink:href="#V"/></g></defs></g></svg>