<svg xmlns="http://www.w3.org/2000/svg" xmlns:xlink="http://www.w3.org/1999/xlink" xmlns:lucid="lucid" width="1072" height="714"><g transform="translate(-1228 540)" lucid:page-tab-id="0_0"><path d="M1440-434a6 6 0 0 1 6-6h148a6 6 0 0 1 6 6v148a6 6 0 0 1-6 6h-148a6 6 0 0 1-6-6z" stroke="#3a414a" fill="#fff"/><use xlink:href="#a" transform="matrix(1,0,0,1,1445,-435) translate(26.327160493827158 64.65277777777777)"/><use xlink:href="#b" transform="matrix(1,0,0,1,1445,-435) translate(32.53086419753087 91.31944444444446)"/><use xlink:href="#c" transform="matrix(1,0,0,1,1445,-435) translate(62.098765432098766 91.31944444444446)"/><path d="M1440-114a6 6 0 0 1 6-6h148a6 6 0 0 1 6 6V34a6 6 0 0 1-6 6h-148a6 6 0 0 1-6-6z" stroke="#3a414a" fill="#fff"/><use xlink:href="#a" transform="matrix(1,0,0,1,1445,-115.00000000000006) translate(26.327160493827158 64.65277777777777)"/><use xlink:href="#b" transform="matrix(1,0,0,1,1445,-115.00000000000006) translate(32.53086419753087 91.31944444444446)"/><use xlink:href="#d" transform="matrix(1,0,0,1,1445,-115.00000000000006) translate(62.098765432098766 91.31944444444446)"/><path d="M1920-474a6 6 0 0 1 6-6h148a6 6 0 0 1 6 6v148a6 6 0 0 1-6 6h-148a6 6 0 0 1-6-6z" stroke="#3a414a" fill="#fff"/><use xlink:href="#e" transform="matrix(1,0,0,1,1925,-475) translate(-1.419753086419746 66.11111111111111)"/><use xlink:href="#b" transform="matrix(1,0,0,1,1925,-475) translate(34.96913580246914 92.77777777777777)"/><use xlink:href="#f" transform="matrix(1,0,0,1,1925,-475) translate(64.53703703703704 92.77777777777777)"/><path d="M1920-254a6 6 0 0 1 6-6h148a6 6 0 0 1 6 6v148a6 6 0 0 1-6 6h-148a6 6 0 0 1-6-6z" stroke="#3a414a" fill="#fff"/><use xlink:href="#g" transform="matrix(1,0,0,1,1925,-255) translate(-2.0061728395061778 66.11111111111111)"/><use xlink:href="#h" transform="matrix(1,0,0,1,1925,-255) translate(33.73456790123457 92.77777777777777)"/><use xlink:href="#i" transform="matrix(1,0,0,1,1925,-255) translate(63.30246913580247 92.77777777777777)"/><path d="M1920-34a6 6 0 0 1 6-6h148a6 6 0 0 1 6 6v148a6 6 0 0 1-6 6h-148a6 6 0 0 1-6-6z" stroke="#3a414a" fill="#fff"/><use xlink:href="#e" transform="matrix(1,0,0,1,1925,-35) translate(-1.419753086419746 66.11111111111111)"/><use xlink:href="#b" transform="matrix(1,0,0,1,1925,-35) translate(34.96913580246914 92.77777777777777)"/><use xlink:href="#j" transform="matrix(1,0,0,1,1925,-35) translate(64.53703703703704 92.77777777777777)"/><path d="M1794.74-109l10.16 18.55 8.2 13.58 7.1 10.66 6.3 8.67 5.73 7.25 5.3 6.17 5 5.3 4.7 4.6 4.5 4.05 4.3 3.57 4.17 3.17 4.06 2.8 3.96 2.52 3.88 2.25 3.84 2 3.8 1.8 3.8 1.6 3.77 1.4 3.8 1.23 3.84 1.07 3.87.9 3.95.76.5.07-.14 1-.52-.1-3.98-.75-3.9-.9-3.88-1.1-3.84-1.24-3.82-1.4-3.82-1.62-3.84-1.8-3.88-2.03-3.92-2.27-4-2.54-4.1-2.84-4.2-3.2-4.33-3.6-4.53-4.06-4.74-4.65-5-5.34-5.34-6.2-5.77-7.28-6.34-8.72-7.1-10.7-8.22-13.6-10.2-18.6-29.08-62.56h1.1zm-189.8-251.4l4.26.26 4.16.44 4.06.6 3.98.76 3.9.9 3.88 1.1 3.84 1.24 3.82 1.42 3.82 1.6 3.84 1.82 3.88 2.02 3.92 2.27 4 2.54 4.1 2.84 4.2 3.2 4.33 3.6 4.53 4.07 4.74 4.65 5 5.34 5.34 6.2 5.77 7.27 6.34 8.72 7.1 10.7 8.22 13.62 10.2 18.58 14.98 30.38 14.8 31.84h-1.1l-14.6-31.4-14.98-30.36-10.16-18.54-8.2-13.58-7.1-10.66-6.3-8.68-5.73-7.25-5.3-6.18-5-5.3-4.7-4.62-4.5-4.04-4.3-3.57-4.17-3.18-4.06-2.82-3.96-2.5-3.88-2.26-3.84-2-3.8-1.8-3.8-1.6-3.77-1.4-3.8-1.23-3.84-1.06-3.87-.9-3.95-.76-4-.6-4.13-.42-4.24-.27-3.9-.1.04-1z" stroke="#3a414a" stroke-width=".05" fill="#3a414a"/><path d="M1601.03-360.5l-.02 1h-.5v-1z" fill="#3a414a"/><path d="M1601.05-360.5l-.02 1.04-.56-.02v-1.05zm-.52.98h.45l.02-.94-.47-.02z" stroke="#3a414a" stroke-width=".05" fill="#3a414a"/><path d="M1917.9-3.32L1903.3.16l.74-9.24z" fill="#3a414a"/><path d="M1919.5-3.2l-16.76 4 .86-10.6zm-15.65 2.7l12.42-2.95-11.8-4.9z" stroke="#3a414a" stroke-width=".05" fill="#3a414a"/><use xlink:href="#k" transform="matrix(1,0,0,1,1717.9858097253068,-192.4291507546805) translate(0 14.222222222222223)"/><path d="M1601-360h62.62" stroke="#3a414a" fill="none"/><path d="M1601-359.5h-.5v-1h.5z" stroke="#3a414a" stroke-width=".05" fill="#3a414a"/><path d="M1678.38-360l-14.26 4.63v-9.26z" stroke="#3a414a" fill="#3a414a"/><path d="M1796.4-359.5H1601v-1h195.4zm106.72 0h-22v-1h22z" stroke="#3a414a" stroke-width=".05" fill="#3a414a"/><path d="M1601.02-359.5h-.52v-1h.52z" fill="#3a414a"/><path d="M1601.04-359.48h-.57v-1.04h.57zm-.5-1v.96h.45v-.96z" stroke="#3a414a" stroke-width=".05" fill="#3a414a"/><path d="M1917.88-360l-14.26 4.63v-9.26z" fill="#3a414a"/><path d="M1919.5-360l-16.38 5.32v-10.64zm-15.38 3.95l12.14-3.95-12.14-3.95z" stroke="#3a414a" stroke-width=".05" fill="#3a414a"/><use xlink:href="#k" transform="matrix(1,0,0,1,1796.3934306078834,-370.6666666666667) translate(0 14.222222222222223)"/><path d="M1809.47-11.8l21.6 3.2 23.37 2.43 28.12 1.75 20.57.4-.02 1-20.58-.4-28.16-1.75-23.42-2.45-21.65-3.2-6.88-1.47v-1zm-172-27.97l28.17 1.75 23.42 2.45 21.64 3.2 6.98 1.34V-30l-7.14-1.38-21.6-3.2-23.38-2.44-28.12-1.75-36.45-.72.02-1z" stroke="#3a414a" stroke-width=".05" fill="#3a414a"/><path d="M1601.03-40.5l-.02 1h-.5v-1z" fill="#3a414a"/><path d="M1601.05-40.5l-.02 1.04-.56-.02v-1.05zm-.52.98h.45l.02-.95h-.47z" stroke="#3a414a" stroke-width=".05" fill="#3a414a"/><path d="M1917.88-3.22l-14.35 4.35.18-9.27z" fill="#3a414a"/><path d="M1919.5-3.2l-16.5 5 .22-10.64zM1904.04.46l12.23-3.7-12.07-4.2z" stroke="#3a414a" stroke-width=".05" fill="#3a414a"/><use xlink:href="#k" transform="matrix(1,0,0,1,1717.6840260184122,-32.5173534056092) translate(0 14.222222222222223)"/><path d="M1795.3-263.9l9.1 6.34 8.08 5.14 7.54 4.35 7.26 3.8 7.12 3.35 7.1 3 7.18 2.66 7.34 2.38 7.58 2.12 7.9 1.85 8.32 1.58 8.83 1.3 9.45 1 5.06.3-.06 1-5.08-.3-9.5-1-8.87-1.32-8.35-1.6-7.95-1.85-7.62-2.12-7.38-2.4-7.22-2.68-7.14-3-7.17-3.38-7.3-3.8-7.57-4.4-8.12-5.15-9.16-6.37-7.62-6.25h1.58zm-183.6-96.37l10.28.64 9.5 1 8.87 1.3 8.35 1.6 7.95 1.86 7.62 2.13 7.38 2.4 7.22 2.68 7.14 3 7.17 3.38 7.3 3.8 7.57 4.4 8.12 5.15 9.15 6.37 11.48 8.72 25.82 21.16h-1.58l-24.86-20.37-11.44-8.7-9.1-6.35-8.1-5.14-7.54-4.35-7.26-3.8-7.12-3.34-7.1-3-7.18-2.66-7.34-2.38-7.58-2.12-7.9-1.85-8.32-1.58-8.83-1.3-9.45-1-10.23-.64-10.68-.22.02-1z" stroke="#3a414a" stroke-width=".05" fill="#3a414a"/><path d="M1601.03-360.5l-.02 1h-.5v-1z" fill="#3a414a"/><path d="M1601.05-360.5l-.02 1.04-.56-.02v-1.05zm-.52.98h.45l.02-.94-.47-.02z" stroke="#3a414a" stroke-width=".05" fill="#3a414a"/><path d="M1917.88-223.7l-14.4 4.13.3-9.26z" fill="#3a414a"/><path d="M1919.5-223.66l-16.56 4.77.37-10.63zm-15.5 3.42l12.27-3.53-12-4.35z" stroke="#3a414a" stroke-width=".05" fill="#3a414a"/><g><use xlink:href="#l" transform="matrix(1,0,0,1,1749.198363235349,-290.680836251867) translate(0 14.222222222222223)"/></g><path d="M1718.4-67.85l-9.2 4.82-8.6 4.05-8.35 3.5-8.3 3.1-8.44 2.73-8.7 2.43-9.1 2.13-9.62 1.85-10.33 1.52-11.2 1.18-12.33.77-13.2.27-.03-1 13.18-.28 12.28-.77 11.16-1.17 10.3-1.52 9.6-1.82 9.04-2.13 8.66-2.4 8.4-2.73 8.26-3.08 8.3-3.5 8.56-4.03 9.17-4.8 2.8-1.6h2zm184.76-81.37l-9.62.6-11.16 1.17-10.3 1.52-9.6 1.83-9.04 2.12-8.66 2.4-8.4 2.74-8.26 3.08-8.3 3.5-8.56 4.02-9.17 4.8-10.52 6.08-35.45 23.7h-1.8l36.72-24.55 10.56-6.12 9.2-4.82 8.6-4.04 8.35-3.5 8.3-3.1 8.44-2.74 8.7-2.43 9.1-2.13 9.62-1.84 10.33-1.52 11.2-1.18 9.64-.6z" stroke="#3a414a" stroke-width=".05" fill="#3a414a"/><path d="M1601.03-39.5h-.53v-1h.5z" fill="#3a414a"/><path d="M1601.05-39.5l-.58.03v-1.05l.56-.02zm-.52-.98v.95h.47l-.02-.95z" stroke="#3a414a" stroke-width=".05" fill="#3a414a"/><path d="M1917.88-150.13l-14.13 5.03-.26-9.27z" fill="#3a414a"/><path d="M1919.5-150.17l-16.23 5.77-.3-10.64zm-15.27 4.37l12.04-4.28-12.26-3.6z" stroke="#3a414a" stroke-width=".05" fill="#3a414a"/><g><use xlink:href="#l" transform="matrix(1,0,0,1,1713.4494127636685,-91.6713526250456) translate(0 14.222222222222223)"/></g><defs><path fill="#3a414a" d="M212-179c-10-28-35-45-73-45-59 0-87 40-87 99 0 60 29 101 89 101 43 0 62-24 78-52l27 14C228-24 195 4 139 4 59 4 22-46 18-125c-6-104 99-153 187-111 19 9 31 26 39 46" id="m"/><path fill="#3a414a" d="M106-169C34-169 62-67 57 0H25v-261h32l-1 103c12-21 28-36 61-36 89 0 53 116 60 194h-32v-121c2-32-8-49-39-48" id="n"/><path fill="#3a414a" d="M141-36C126-15 110 5 73 4 37 3 15-17 15-53c-1-64 63-63 125-63 3-35-9-54-41-54-24 1-41 7-42 31l-33-3c5-37 33-52 76-52 45 0 72 20 72 64v82c-1 20 7 32 28 27v20c-31 9-61-2-59-35zM48-53c0 20 12 33 32 33 41-3 63-29 60-74-43 2-92-5-92 41" id="o"/><path fill="#3a414a" d="M114-163C36-179 61-72 57 0H25l-1-190h30c1 12-1 29 2 39 6-27 23-49 58-41v29" id="p"/><path fill="#3a414a" d="M96-169c-40 0-48 33-48 73s9 75 48 75c24 0 41-14 43-38l32 2c-6 37-31 61-74 61-59 0-76-41-82-99-10-93 101-131 147-64 4 7 5 14 7 22l-32 3c-4-21-16-35-41-35" id="q"/><path fill="#3a414a" d="M59-47c-2 24 18 29 38 22v24C64 9 27 4 27-40v-127H5v-23h24l9-43h21v43h35v23H59v120" id="r"/><path fill="#3a414a" d="M100-194c63 0 86 42 84 106H49c0 40 14 67 53 68 26 1 43-12 49-29l28 8c-11 28-37 45-77 45C44 4 14-33 15-96c1-61 26-98 85-98zm52 81c6-60-76-77-97-28-3 7-6 17-6 28h103" id="s"/><g id="a"><use transform="matrix(0.06172839506172839,0,0,0.06172839506172839,0,0)" xlink:href="#m"/><use transform="matrix(0.06172839506172839,0,0,0.06172839506172839,15.987654320987653,0)" xlink:href="#n"/><use transform="matrix(0.06172839506172839,0,0,0.06172839506172839,28.333333333333332,0)" xlink:href="#o"/><use transform="matrix(0.06172839506172839,0,0,0.06172839506172839,40.67901234567901,0)" xlink:href="#p"/><use transform="matrix(0.06172839506172839,0,0,0.06172839506172839,48.02469135802469,0)" xlink:href="#o"/><use transform="matrix(0.06172839506172839,0,0,0.06172839506172839,60.37037037037037,0)" xlink:href="#q"/><use transform="matrix(0.06172839506172839,0,0,0.06172839506172839,71.48148148148148,0)" xlink:href="#r"/><use transform="matrix(0.06172839506172839,0,0,0.06172839506172839,77.65432098765432,0)" xlink:href="#s"/><use transform="matrix(0.06172839506172839,0,0,0.06172839506172839,90,0)" xlink:href="#p"/></g><path fill="#3a414a" d="M24-231v-30h32v30H24zM24 0v-190h32V0H24" id="t"/><path fill="#3a414a" d="M85-194c31 0 48 13 60 33l-1-100h32l1 261h-30c-2-10 0-23-3-31C134-8 116 4 85 4 32 4 16-35 15-94c0-66 23-100 70-100zm9 24c-40 0-46 34-46 75 0 40 6 74 45 74 42 0 51-32 51-76 0-42-9-74-50-73" id="u"/><path fill="#3a414a" d="M33-154v-36h34v36H33zM33 0v-36h34V0H33" id="v"/><g id="b"><use transform="matrix(0.06172839506172839,0,0,0.06172839506172839,0,0)" xlink:href="#t"/><use transform="matrix(0.06172839506172839,0,0,0.06172839506172839,4.876543209876543,0)" xlink:href="#u"/><use transform="matrix(0.06172839506172839,0,0,0.06172839506172839,17.22222222222222,0)" xlink:href="#v"/></g><path fill="#3a414a" d="M16-82v-28h88v28H16" id="w"/><path fill="#3a414a" d="M27 0v-27h64v-190l-56 39v-29l58-41h29v221h61V0H27" id="x"/><g id="c"><use transform="matrix(0.06172839506172839,0,0,0.06172839506172839,0,0)" xlink:href="#m"/><use transform="matrix(0.06172839506172839,0,0,0.06172839506172839,15.987654320987653,0)" xlink:href="#n"/><use transform="matrix(0.06172839506172839,0,0,0.06172839506172839,28.333333333333332,0)" xlink:href="#p"/><use transform="matrix(0.06172839506172839,0,0,0.06172839506172839,35.67901234567901,0)" xlink:href="#w"/><use transform="matrix(0.06172839506172839,0,0,0.06172839506172839,43.02469135802469,0)" xlink:href="#x"/></g><path fill="#3a414a" d="M101-251c82-7 93 87 43 132L82-64C71-53 59-42 53-27h129V0H18c2-99 128-94 128-182 0-28-16-43-45-43s-46 15-49 41l-32-3c6-41 34-60 81-64" id="y"/><g id="d"><use transform="matrix(0.06172839506172839,0,0,0.06172839506172839,0,0)" xlink:href="#m"/><use transform="matrix(0.06172839506172839,0,0,0.06172839506172839,15.987654320987653,0)" xlink:href="#n"/><use transform="matrix(0.06172839506172839,0,0,0.06172839506172839,28.333333333333332,0)" xlink:href="#p"/><use transform="matrix(0.06172839506172839,0,0,0.06172839506172839,35.67901234567901,0)" xlink:href="#w"/><use transform="matrix(0.06172839506172839,0,0,0.06172839506172839,43.02469135802469,0)" xlink:href="#y"/></g><path fill="#3a414a" d="M190 0L58-211 59 0H30v-248h39L202-35l-2-213h31V0h-41" id="z"/><path fill="#3a414a" d="M108 0H70L1-190h34L89-25l56-165h34" id="A"/><path fill="#3a414a" d="M185-189c-5-48-123-54-124 2 14 75 158 14 163 119 3 78-121 87-175 55-17-10-28-26-33-46l33-7c5 56 141 63 141-1 0-78-155-14-162-118-5-82 145-84 179-34 5 7 8 16 11 25" id="B"/><path fill="#3a414a" d="M117-194c89-4 53 116 60 194h-32v-121c0-31-8-49-39-48C34-167 62-67 57 0H25l-1-190h30c1 10-1 24 2 32 11-22 29-35 61-36" id="C"/><g id="e"><use transform="matrix(0.06172839506172839,0,0,0.06172839506172839,0,0)" xlink:href="#z"/><use transform="matrix(0.06172839506172839,0,0,0.06172839506172839,15.987654320987653,0)" xlink:href="#o"/><use transform="matrix(0.06172839506172839,0,0,0.06172839506172839,28.333333333333332,0)" xlink:href="#p"/><use transform="matrix(0.06172839506172839,0,0,0.06172839506172839,35.67901234567901,0)" xlink:href="#p"/><use transform="matrix(0.06172839506172839,0,0,0.06172839506172839,43.02469135802469,0)" xlink:href="#o"/><use transform="matrix(0.06172839506172839,0,0,0.06172839506172839,55.37037037037037,0)" xlink:href="#r"/><use transform="matrix(0.06172839506172839,0,0,0.06172839506172839,61.54320987654321,0)" xlink:href="#t"/><use transform="matrix(0.06172839506172839,0,0,0.06172839506172839,66.41975308641975,0)" xlink:href="#A"/><use transform="matrix(0.06172839506172839,0,0,0.06172839506172839,77.53086419753086,0)" xlink:href="#s"/><use transform="matrix(0.06172839506172839,0,0,0.06172839506172839,89.87654320987654,0)" xlink:href="#B"/><use transform="matrix(0.06172839506172839,0,0,0.06172839506172839,104.69135802469135,0)" xlink:href="#q"/><use transform="matrix(0.06172839506172839,0,0,0.06172839506172839,115.80246913580247,0)" xlink:href="#s"/><use transform="matrix(0.06172839506172839,0,0,0.06172839506172839,128.14814814814815,0)" xlink:href="#C"/><use transform="matrix(0.06172839506172839,0,0,0.06172839506172839,140.49382716049382,0)" xlink:href="#s"/></g><g id="f"><use transform="matrix(0.06172839506172839,0,0,0.06172839506172839,0,0)" xlink:href="#z"/><use transform="matrix(0.06172839506172839,0,0,0.06172839506172839,15.987654320987653,0)" xlink:href="#B"/><use transform="matrix(0.06172839506172839,0,0,0.06172839506172839,30.80246913580247,0)" xlink:href="#w"/><use transform="matrix(0.06172839506172839,0,0,0.06172839506172839,38.148148148148145,0)" xlink:href="#x"/></g><path fill="#3a414a" d="M140-251c81 0 123 46 123 126C263-46 219 4 140 4 59 4 17-45 17-125s42-126 123-126zm0 227c63 0 89-41 89-101s-29-99-89-99c-61 0-89 39-89 99S79-25 140-24" id="D"/><path fill="#3a414a" d="M115-194c53 0 69 39 70 98 0 66-23 100-70 100C84 3 66-7 56-30L54 0H23l1-261h32v101c10-23 28-34 59-34zm-8 174c40 0 45-34 45-75 0-40-5-75-45-74-42 0-51 32-51 76 0 43 10 73 51 73" id="E"/><path fill="#3a414a" d="M24-231v-30h32v30H24zM-9 49c24 4 33-6 33-30v-209h32V24c2 40-23 58-65 49V49" id="F"/><g id="g"><use transform="matrix(0.06172839506172839,0,0,0.06172839506172839,0,0)" xlink:href="#z"/><use transform="matrix(0.06172839506172839,0,0,0.06172839506172839,15.987654320987653,0)" xlink:href="#o"/><use transform="matrix(0.06172839506172839,0,0,0.06172839506172839,28.333333333333332,0)" xlink:href="#p"/><use transform="matrix(0.06172839506172839,0,0,0.06172839506172839,35.67901234567901,0)" xlink:href="#p"/><use transform="matrix(0.06172839506172839,0,0,0.06172839506172839,43.02469135802469,0)" xlink:href="#o"/><use transform="matrix(0.06172839506172839,0,0,0.06172839506172839,55.37037037037037,0)" xlink:href="#r"/><use transform="matrix(0.06172839506172839,0,0,0.06172839506172839,61.54320987654321,0)" xlink:href="#t"/><use transform="matrix(0.06172839506172839,0,0,0.06172839506172839,66.41975308641975,0)" xlink:href="#A"/><use transform="matrix(0.06172839506172839,0,0,0.06172839506172839,77.53086419753086,0)" xlink:href="#s"/><use transform="matrix(0.06172839506172839,0,0,0.06172839506172839,89.87654320987654,0)" xlink:href="#D"/><use transform="matrix(0.06172839506172839,0,0,0.06172839506172839,107.1604938271605,0)" xlink:href="#E"/><use transform="matrix(0.06172839506172839,0,0,0.06172839506172839,119.50617283950618,0)" xlink:href="#F"/><use transform="matrix(0.06172839506172839,0,0,0.06172839506172839,124.38271604938272,0)" xlink:href="#s"/><use transform="matrix(0.06172839506172839,0,0,0.06172839506172839,136.7283950617284,0)" xlink:href="#q"/><use transform="matrix(0.06172839506172839,0,0,0.06172839506172839,147.83950617283952,0)" xlink:href="#r"/></g><g id="h"><use transform="matrix(0.06172839506172839,0,0,0.06172839506172839,0,0)" xlink:href="#t"/><use transform="matrix(0.06172839506172839,0,0,0.06172839506172839,4.876543209876543,0)" xlink:href="#u"/><use transform="matrix(0.06172839506172839,0,0,0.06172839506172839,17.22222222222222,0)" xlink:href="#v"/></g><g id="i"><use transform="matrix(0.06172839506172839,0,0,0.06172839506172839,0,0)" xlink:href="#z"/><use transform="matrix(0.06172839506172839,0,0,0.06172839506172839,15.987654320987653,0)" xlink:href="#D"/><use transform="matrix(0.06172839506172839,0,0,0.06172839506172839,33.2716049382716,0)" xlink:href="#w"/><use transform="matrix(0.06172839506172839,0,0,0.06172839506172839,40.61728395061728,0)" xlink:href="#x"/></g><g id="j"><use transform="matrix(0.06172839506172839,0,0,0.06172839506172839,0,0)" xlink:href="#z"/><use transform="matrix(0.06172839506172839,0,0,0.06172839506172839,15.987654320987653,0)" xlink:href="#B"/><use transform="matrix(0.06172839506172839,0,0,0.06172839506172839,30.80246913580247,0)" xlink:href="#w"/><use transform="matrix(0.06172839506172839,0,0,0.06172839506172839,38.148148148148145,0)" xlink:href="#y"/></g><path fill="#333" d="M121-226c-27-7-43 5-38 36h38v33H83V0H34v-157H6v-33h28c-9-59 32-81 87-68v32" id="G"/><path fill="#333" d="M185-48c-13 30-37 53-82 52C43 2 14-33 14-96s30-98 90-98c62 0 83 45 84 108H66c0 31 8 55 39 56 18 0 30-7 34-22zm-45-69c5-46-57-63-70-21-2 6-4 13-4 21h74" id="H"/><path fill="#333" d="M133-34C117-15 103 5 69 4 32 3 11-16 11-54c-1-60 55-63 116-61 1-26-3-47-28-47-18 1-26 9-28 27l-52-2c7-38 36-58 82-57s74 22 75 68l1 82c-1 14 12 18 25 15v27c-30 8-71 5-69-32zm-48 3c29 0 43-24 42-57-32 0-66-3-65 30 0 17 8 27 23 27" id="I"/><path fill="#333" d="M115-3C79 11 28 4 28-45v-112H4v-33h27l15-45h31v45h36v33H77v99c-1 23 16 31 38 25v30" id="J"/><path fill="#333" d="M85 4C-2 5 27-109 22-190h50c7 57-23 150 33 157 60-5 35-97 40-157h50l1 190h-47c-2-12 1-28-3-38-12 25-28 42-61 42" id="K"/><path fill="#333" d="M135-150c-39-12-60 13-60 57V0H25l-1-190h47c2 13-1 29 3 40 6-28 27-53 61-41v41" id="L"/><path fill="#333" d="M137-138c1-29-70-34-71-4 15 46 118 7 119 86 1 83-164 76-172 9l43-7c4 19 20 25 44 25 33 8 57-30 24-41C81-84 22-81 20-136c-2-80 154-74 161-7" id="M"/><path fill="#333" d="M24 0v-248h52V0H24" id="N"/><path fill="#333" d="M135-194c87-1 58 113 63 194h-50c-7-57 23-157-34-157-59 0-34 97-39 157H25l-1-190h47c2 12-1 28 3 38 12-26 28-41 61-42" id="O"/><g id="k"><use transform="matrix(0.04938271604938272,0,0,0.04938271604938272,0,0)" xlink:href="#G"/><use transform="matrix(0.04938271604938272,0,0,0.04938271604938272,5.8765432098765435,0)" xlink:href="#H"/><use transform="matrix(0.04938271604938272,0,0,0.04938271604938272,15.753086419753087,0)" xlink:href="#I"/><use transform="matrix(0.04938271604938272,0,0,0.04938271604938272,25.629629629629633,0)" xlink:href="#J"/><use transform="matrix(0.04938271604938272,0,0,0.04938271604938272,31.506172839506174,0)" xlink:href="#K"/><use transform="matrix(0.04938271604938272,0,0,0.04938271604938272,42.320987654320994,0)" xlink:href="#L"/><use transform="matrix(0.04938271604938272,0,0,0.04938271604938272,49.23456790123458,0)" xlink:href="#H"/><use transform="matrix(0.04938271604938272,0,0,0.04938271604938272,59.111111111111114,0)" xlink:href="#M"/><use transform="matrix(0.04938271604938272,0,0,0.04938271604938272,68.98765432098767,0)" xlink:href="#N"/><use transform="matrix(0.04938271604938272,0,0,0.04938271604938272,73.92592592592595,0)" xlink:href="#O"/></g><path fill="#333" d="M88-194c31-1 46 15 58 34l-1-101h50l1 261h-48c-2-10 0-23-3-31C134-8 116 4 84 4 32 4 16-41 15-95c0-56 19-97 73-99zm17 164c33 0 40-30 41-66 1-37-9-64-41-64s-38 30-39 65c0 43 13 65 39 65" id="P"/><g id="l"><use transform="matrix(0.04938271604938272,0,0,0.04938271604938272,0,0)" xlink:href="#O"/><use transform="matrix(0.04938271604938272,0,0,0.04938271604938272,10.814814814814815,0)" xlink:href="#H"/><use transform="matrix(0.04938271604938272,0,0,0.04938271604938272,20.69135802469136,0)" xlink:href="#H"/><use transform="matrix(0.04938271604938272,0,0,0.04938271604938272,30.567901234567906,0)" xlink:href="#P"/><use transform="matrix(0.04938271604938272,0,0,0.04938271604938272,41.38271604938272,0)" xlink:href="#M"/></g></defs></g></svg>