<svg xmlns="http://www.w3.org/2000/svg" xmlns:xlink="http://www.w3.org/1999/xlink" xmlns:lucid="lucid" width="1682" height="962"><g transform="translate(801.0000000265476 -1038.9999999734525)" lucid:page-tab-id="0_0"><path d="M-800 1046a6 6 0 0 1 6-6h148a6 6 0 0 1 6 6v148a6 6 0 0 1-6 6h-148a6 6 0 0 1-6-6z" stroke="#000" stroke-width="2" fill="#fff"/><use xlink:href="#a" transform="matrix(1,0,0,1,-795,1045) translate(42.39999999999999 64.1861111111111)"/><use xlink:href="#b" transform="matrix(1,0,0,1,-795,1045) translate(44.75555555555555 92.54166666666666)"/><path d="M-480 1046a6 6 0 0 1 6-6h148a6 6 0 0 1 6 6v148a6 6 0 0 1-6 6h-148a6 6 0 0 1-6-6z" stroke="#000" stroke-width="2" fill="#fff"/><use xlink:href="#c" transform="matrix(1,0,0,1,-475.0000000000002,1045) translate(54.355555555555554 64.1861111111111)"/><use xlink:href="#d" transform="matrix(1,0,0,1,-475.0000000000002,1045) translate(47.41111111111111 92.54166666666666)"/><path d="M-640 1326a6 6 0 0 1 6-6h148a6 6 0 0 1 6 6v148a6 6 0 0 1-6 6h-148a6 6 0 0 1-6-6z" stroke="#000" stroke-width="2" fill="#fff"/><use xlink:href="#e" transform="matrix(1,0,0,1,-635,1325) translate(24.5 64.1861111111111)"/><use xlink:href="#f" transform="matrix(1,0,0,1,-635,1325) translate(46.67777777777778 92.54166666666666)"/><path d="M-609.6 1270.63l10.12 4.5 6.94 3.43 5.24 2.88 4.15 2.5 3.38 2.25 2.82 2.03 2.4 1.9 2.04 1.76 1.76 1.66 1.55 1.58 1.37 1.5 1.2 1.46 1.07 1.4.95 1.37.84 1.33.75 1.3.66 1.3.6 1.26.53 1.26.45 1.25.4 1.26.36 1.25.3 1.27.25 1.28.2 1.3.14 1.33.07 1.35v.38l-2 .04v-.33l-.08-1.28-.14-1.24-.18-1.2-.23-1.2-.27-1.2-.33-1.17-.38-1.17-.44-1.17-.5-1.2-.56-1.18-.63-1.2-.72-1.24-.8-1.26-.9-1.3-1-1.34-1.16-1.38-1.3-1.45-1.5-1.5-1.7-1.62-2-1.7-2.32-1.85-2.75-2-3.33-2.2-4.07-2.46-5.16-2.83-6.87-3.4-10.05-4.46-4.86-1.9h5.5zm-104.13-52.6l.9 1.3 1.02 1.33 1.14 1.38 1.3 1.45 1.5 1.5 1.7 1.62 2 1.7 2.3 1.85 2.77 2 3.32 2.2 4.07 2.46 5.16 2.83 6.87 3.4 10.04 4.46 4.54 1.73h-5.55l-9.87-4.38-6.95-3.43-5.23-2.88-4.15-2.5-3.38-2.25-2.82-2.03-2.4-1.9-2.04-1.76-1.77-1.66-1.55-1.58-1.36-1.5-1.2-1.46-1.07-1.4-.94-1.37-.1-.16 1.7-1.08z" stroke="#000" stroke-width=".05"/><path d="M-559 1319h-2l-.02-1 2-.05z"/><path d="M-558.97 1319.03h-2.05l-.03-1.06 2.05-.04zm-2.03-1l.02.94h1.96l-.03-1z" stroke="#000" stroke-width=".05"/><path d="M-710.44 1216.37l-8.86 2.72.25-15z"/><path d="M-708.83 1216.92l-11.5 3.53.33-19.45zm-9.45.8l6.23-1.9-6.06-8.63z" stroke="#000" stroke-width=".05"/><use xlink:href="#g" transform="matrix(1,0,0,1,-698.1190165298873,1249.250446671382) translate(0 14.222222222222223)"/><path d="M-499.24 1268.43l-10.38 4.05-10.05 4.46-6.87 3.4-5.16 2.83-4.07 2.46-3.32 2.2-2.74 2-2.33 1.84-1.98 1.7-1.7 1.62-1.5 1.5-1.3 1.46-1.16 1.38-1.02 1.34-.9 1.3-.8 1.26-.72 1.23-.63 1.2-.56 1.2-.5 1.18-.44 1.18-.38 1.17-.33 1.18-.27 1.2-.23 1.2-.18 1.2-.13 1.24-.07 1.27v.32l-2-.04v-.37l.08-1.34.15-1.33.2-1.3.24-1.28.3-1.27.34-1.25.4-1.26.47-1.25.54-1.26.6-1.27.67-1.3.76-1.3.85-1.33.96-1.36 1.06-1.4 1.2-1.45 1.37-1.5 1.54-1.6 1.77-1.66 2.06-1.77 2.4-1.9 2.8-2.04 3.4-2.26 4.14-2.5 5.24-2.88 6.94-3.43 10.13-4.5 11.16-4.35zm94.74-49.46l-.1.16-.96 1.36-1.06 1.4-1.2 1.45-1.37 1.5-1.54 1.6-1.77 1.66-2.06 1.77-2.4 1.9-2.8 2.04-3.4 2.26-4.14 2.5-5.24 2.88-6.94 3.43-10.13 4.5-11.22 4.28v-2.14l10.44-3.98 10.05-4.46 6.87-3.4 5.16-2.83 4.07-2.46 3.32-2.2 2.74-2 2.33-1.84 1.98-1.7 1.7-1.62 1.5-1.5 1.3-1.46 1.16-1.38 1.02-1.34.9-1.3.1-.13z" stroke="#000" stroke-width=".05"/><path d="M-558.98 1318l-.02 1h-2l.02-1.05z"/><path d="M-558.95 1317.97l-.02 1.06h-2.06l.03-1.1zm-2.02 1h1.95l.02-.95-1.95-.04z" stroke="#000" stroke-width=".05"/><path d="M-400.7 1219.1l-8.87-2.73 8.62-12.28z"/><path d="M-399.68 1220.45l-11.5-3.53L-400 1201zm-8.28-4.63l6.23 1.9-.17-10.53z" stroke="#000" stroke-width=".05"/><use xlink:href="#h" transform="matrix(1,0,0,1,-499.2409058315303,1249.2505439228762) translate(0 14.222222222222223)"/><path d="M-320 1326a6 6 0 0 1 6-6h148a6 6 0 0 1 6 6v148a6 6 0 0 1-6 6h-148a6 6 0 0 1-6-6z" stroke="#000" stroke-width="2" fill="#fff"/><use xlink:href="#i" transform="matrix(1,0,0,1,-315,1325) translate(31.944444444444443 64.1861111111111)"/><use xlink:href="#j" transform="matrix(1,0,0,1,-315,1325) translate(45.266666666666666 92.54166666666666)"/><path d="M80 1446a6 6 0 0 1 6-6h148a6 6 0 0 1 6 6v148a6 6 0 0 1-6 6H86a6 6 0 0 1-6-6z" stroke="#000" stroke-width="2" fill="#fff"/><use xlink:href="#k" transform="matrix(1,0,0,1,85,1445) translate(29.322222222222216 64.1861111111111)"/><use xlink:href="#l" transform="matrix(1,0,0,1,85,1445) translate(45.18888888888888 92.54166666666666)"/><path d="M-440.37 1365.76H-478v-2h37.63zm100.87 0h-20.13v-2h20.13z" stroke="#000" stroke-width=".05"/><path d="M-477.97 1365.76H-479v-2h1.03z"/><path d="M-477.95 1365.78h-1.07v-2.05h1.07zm-1.03-2v1.95h.98v-1.95z" stroke="#000" stroke-width=".05"/><path d="M-324.24 1364.76l-14.26 4.63v-9.28z"/><path d="M-321 1364.76l-18.5 6v-12zm-16.5 3.26l10.03-3.26-10.03-3.26z" stroke="#000" stroke-width=".05"/><use xlink:href="#m" transform="matrix(1,0,0,1,-440.3692091932177,1354.0919472229955) translate(0 14.222222222222223)"/><path d="M-22.28 1440.8l8.44 7.62 6.6 5.46 5.75 4.38 5.3 3.68 5 3.18 4.85 2.8 4.76 2.48 4.73 2.23 4.75 2 4.8 1.78 4.92 1.6 5.06 1.42 5.26 1.23 5.5 1.05 5.78.86 6.14.64 6.57.4 6.12.14-.04 2-6.15-.13-6.65-.4-6.23-.66-5.87-.87-5.58-1.06-5.34-1.24-5.14-1.44-5-1.62-4.88-1.82-4.82-2.02-4.8-2.26-4.83-2.53-4.93-2.84-5.08-3.22-5.37-3.72-5.82-4.43-6.65-5.52-8.5-7.66-6.9-6.7h2.86zm-116.67-75.82l5.87.86 5.58 1.07 5.33 1.26 5.15 1.43 5 1.62 4.88 1.8 4.82 2.04 4.8 2.26 4.83 2.53 4.93 2.84 5.08 3.2 5.37 3.74 5.83 4.43 6.67 5.52 15.12 14.64h-2.9l-13.57-13.15-6.58-5.47-5.76-4.37-5.3-3.68-5-3.18-4.85-2.8-4.76-2.5-4.73-2.2-4.75-2-4.8-1.8-4.92-1.6-5.06-1.4-5.26-1.24-5.5-1.04-5.78-.86-1.44-.15.2-1.98z" stroke="#000" stroke-width=".05"/><path d="M79 1483.76v2l-1.05-.02.04-2z"/><path d="M79.03 1483.73v2.05l-1.1-.02.04-2.05zm-1.05 1.98l1 .03v-1.95l-.96-.02z" stroke="#000" stroke-width=".05"/><path d="M-141.8 1370.4l-13.97-5.46 14.5-3.8z"/><path d="M-140.87 1371.82l-18.13-7.06 18.8-4.94zm-11.67-6.7l9.83 3.84.36-6.5z" stroke="#000" stroke-width=".05"/><use xlink:href="#m" transform="matrix(1,0,0,1,-80.50796621850436,1414.236440773698) translate(0 14.222222222222223)"/><path d="M-13.83 1523.27l6.58 5.45 5.76 4.38 5.3 3.68 5 3.18 4.85 2.8 4.76 2.48 4.73 2.22 4.75 2 4.8 1.8 4.92 1.6 5.06 1.4 5.26 1.23 5.5 1.04 5.78.85 1.44.14-.2 2-1.5-.16-5.86-.87-5.58-1.05-5.34-1.25-5.14-1.44-5-1.62-4.88-1.82-4.82-2.03-4.8-2.27-4.83-2.52-4.93-2.83-5.08-3.23-5.37-3.73-5.82-4.4-6.67-5.54-15.12-14.64h2.9zm-138-84.53l6.65.42 6.23.65 5.87.88 5.58 1.06 5.33 1.25 5.15 1.43 5 1.62 4.88 1.82 4.82 2.03 4.8 2.26 4.83 2.52 4.93 2.84 5.08 3.23 5.37 3.73 5.83 4.42 6.65 5.52 8.5 7.67 6.9 6.68h-2.86l-5.42-5.23-8.44-7.62-6.6-5.46-5.75-4.38-5.3-3.7-5-3.17-4.85-2.8-4.76-2.48-4.73-2.23-4.75-2-4.8-1.78-4.92-1.6-5.06-1.4-5.26-1.24-5.5-1.05-5.78-.85-6.14-.65-6.57-.4-6.12-.13.04-2z" stroke="#000" stroke-width=".05"/><path d="M-157.95 1438.62l-.04 2-1-.02v-2z"/><path d="M-157.93 1438.6l-.04 2.04-1.06-.02v-2.05zm-1.04 1.97l.95.02.04-1.96-1-.02z" stroke="#000" stroke-width=".05"/><path d="M75.77 1559.4l-14.5 3.82.52-9.25z"/><path d="M79 1559.6l-18.8 4.94.67-12zm-16.66 2.3l10.2-2.68-9.83-3.82z" stroke="#000" stroke-width=".05"/><use xlink:href="#n" transform="matrix(1,0,0,1,-71.88709256849637,1488.783489366968) translate(0 14.222222222222223)"/><path d="M-435.95 1440.6h-24.55v-2h24.55zm113.95 0h-42.05v-2H-322z" stroke="#000" stroke-width=".05"/><path d="M-321 1440.6h-1.03v-2h1.03z"/><path d="M-320.98 1440.62h-1.07v-2.05h1.07zm-1.02-2v1.95h.98v-1.95z" stroke="#000" stroke-width=".05"/><path d="M-461.5 1444.23l-14.26-4.63 14.26-4.64z"/><path d="M-460.5 1445.6l-18.5-6 18.5-6.02zm-12.03-6l10.03 3.25v-6.5z" stroke="#000" stroke-width=".05"/><use xlink:href="#o" transform="matrix(1,0,0,1,-435.9517755197102,1428.9279811515587) translate(0 14.222222222222223)"/><path d="M-640 1566a6 6 0 0 1 6-6h148a6 6 0 0 1 6 6v148a6 6 0 0 1-6 6h-148a6 6 0 0 1-6-6z" stroke="#000" stroke-width="2" fill="#fff"/><use xlink:href="#e" transform="matrix(1,0,0,1,-635,1565) translate(24.5 64.1861111111111)"/><use xlink:href="#p" transform="matrix(1,0,0,1,-635,1565) translate(46.67777777777778 92.54166666666666)"/><path d="M-320 1566a6 6 0 0 1 6-6h148a6 6 0 0 1 6 6v148a6 6 0 0 1-6 6h-148a6 6 0 0 1-6-6z" stroke="#000" stroke-width="2" fill="#fff"/><use xlink:href="#i" transform="matrix(1,0,0,1,-315,1565) translate(31.944444444444443 64.1861111111111)"/><use xlink:href="#q" transform="matrix(1,0,0,1,-315,1565) translate(45.266666666666666 92.54166666666666)"/><path d="M-440.37 1605.76H-478v-2h37.63zm100.87 0h-20.13v-2h20.13z" stroke="#000" stroke-width=".05"/><path d="M-477.97 1605.76H-479v-2h1.03z"/><path d="M-477.95 1605.78h-1.07v-2.05h1.07zm-1.03-2v1.95h.98v-1.95z" stroke="#000" stroke-width=".05"/><path d="M-324.24 1604.76l-14.26 4.63v-9.28z"/><path d="M-321 1604.76l-18.5 6v-12zm-16.5 3.26l10.03-3.26-10.03-3.26z" stroke="#000" stroke-width=".05"/><use xlink:href="#m" transform="matrix(1,0,0,1,-440.3692091932177,1594.0919472229955) translate(0 14.222222222222223)"/><path d="M-435.95 1680.6h-24.55v-2h24.55zm113.95 0h-42.05v-2H-322z" stroke="#000" stroke-width=".05"/><path d="M-321 1680.6h-1.03v-2h1.03z"/><path d="M-320.98 1680.62h-1.07v-2.05h1.07zm-1.02-2v1.95h.98v-1.95z" stroke="#000" stroke-width=".05"/><path d="M-461.5 1684.23l-14.26-4.63 14.26-4.64z"/><path d="M-460.5 1685.6l-18.5-6 18.5-6.02zm-12.03-6l10.03 3.25v-6.5z" stroke="#000" stroke-width=".05"/><use xlink:href="#o" transform="matrix(1,0,0,1,-435.9517755197102,1668.9279811515587) translate(0 14.222222222222223)"/><path d="M-800 1846a6 6 0 0 1 6-6h148a6 6 0 0 1 6 6v148a6 6 0 0 1-6 6h-148a6 6 0 0 1-6-6z" stroke="#000" stroke-width="2" fill="#fff"/><use xlink:href="#a" transform="matrix(1,0,0,1,-794.9999999999998,1845) translate(42.39999999999999 64.1861111111111)"/><use xlink:href="#r" transform="matrix(1,0,0,1,-794.9999999999998,1845) translate(44.75555555555555 92.54166666666666)"/><path d="M-480 1846a6 6 0 0 1 6-6h148a6 6 0 0 1 6 6v148a6 6 0 0 1-6 6h-148a6 6 0 0 1-6-6z" stroke="#000" stroke-width="2" fill="#fff"/><use xlink:href="#c" transform="matrix(1,0,0,1,-475,1845) translate(54.355555555555554 64.1861111111111)"/><use xlink:href="#s" transform="matrix(1,0,0,1,-475,1845) translate(47.41111111111111 92.54166666666666)"/><path d="M-669.62 1792.48l-10.05 4.46-6.87 3.4-5.16 2.83-4.07 2.46-3.32 2.2-2.74 2-2.33 1.84-1.98 1.7-1.7 1.62-1.5 1.5-1.3 1.46-1.16 1.38-1.02 1.34-.9 1.3-.1.13-1.67-1.07.1-.16.96-1.36 1.06-1.4 1.2-1.45 1.37-1.5 1.54-1.6 1.77-1.66 2.06-1.77 2.4-1.9 2.8-2.04 3.4-2.26 4.14-2.5 5.24-2.88 6.94-3.43 9.87-4.38h5.56zm110.6-70.46v.37l-.1 1.34-.13 1.33-.2 1.3-.24 1.28-.3 1.27-.34 1.25-.4 1.26-.47 1.25-.54 1.26-.6 1.27-.67 1.3-.76 1.3-.85 1.33-.96 1.36-1.06 1.4-1.2 1.45-1.37 1.5-1.54 1.6-1.77 1.66-2.06 1.77-2.4 1.9-2.8 2.04-3.4 2.26-4.14 2.5-5.24 2.88-6.94 3.43-10.13 4.5-.14.05h-5.5l4.86-1.9 10.05-4.46 6.87-3.4 5.16-2.83 4.07-2.46 3.32-2.2 2.74-2 2.33-1.84 1.98-1.7 1.7-1.62 1.5-1.5 1.3-1.46 1.16-1.38 1.02-1.34.9-1.3.8-1.26.72-1.23.63-1.2.56-1.2.5-1.18.44-1.18.38-1.17.33-1.18.27-1.2.23-1.2.18-1.2.13-1.24.07-1.27v-.32z" stroke="#000" stroke-width=".05"/><path d="M-559.02 1722.05l-2-.04.02-1h2z"/><path d="M-559 1722.07l-2.05-.04.02-1.06h2.06zm-1.98-1.04l-.02.95 1.95.04.02-1z" stroke="#000" stroke-width=".05"/><path d="M-710.43 1823.63l-8.62 12.28-.25-15z"/><path d="M-708.82 1823.08L-720 1839l-.32-19.45zm-9.28 9.73l6.06-8.62-6.23-1.9z" stroke="#000" stroke-width=".05"/><use xlink:href="#t" transform="matrix(1,0,0,1,-698.1171188598279,1769.4161227437903) translate(0 14.222222222222223)"/><path d="M-449.6 1790.63l10.12 4.5 6.94 3.43 5.24 2.88 4.15 2.5 3.38 2.25 2.82 2.03 2.4 1.9 2.04 1.76 1.76 1.66 1.55 1.58 1.37 1.5 1.2 1.46 1.07 1.4.95 1.37.1.16-1.7 1.08-.08-.12-.9-1.3-1-1.34-1.16-1.38-1.3-1.45-1.5-1.5-1.7-1.62-2-1.7-2.32-1.85-2.75-2-3.33-2.2-4.07-2.46-5.16-2.84-6.87-3.4-10.05-4.45-10.44-4v-2.13zM-559 1722.3l.08 1.28.14 1.24.18 1.2.23 1.2.27 1.2.33 1.18.38 1.17.44 1.18.5 1.18.56 1.2.63 1.2.72 1.23.8 1.26.9 1.3 1 1.34 1.16 1.38 1.3 1.45 1.5 1.5 1.7 1.62 2 1.7 2.32 1.85 2.75 2 3.33 2.2 4.07 2.46 5.16 2.84 6.87 3.4 10.05 4.45 10.38 4.05v2.15l-11.15-4.35-10.12-4.5-6.94-3.43-5.24-2.88-4.15-2.5-3.38-2.25-2.82-2.03-2.4-1.9-2.04-1.76-1.76-1.66-1.55-1.58-1.37-1.5-1.2-1.46-1.07-1.4-.95-1.37-.84-1.33-.75-1.3-.66-1.3-.6-1.26-.53-1.26-.45-1.25-.4-1.26-.36-1.25-.3-1.27-.25-1.28-.2-1.3-.14-1.33-.07-1.35v-.38l2-.04z" stroke="#000" stroke-width=".05"/><path d="M-558.98 1722l-2 .05-.02-1.05h2z"/><path d="M-558.95 1722.03l-2.05.04-.03-1.1h2.05zm-2.02-1l.02 1 1.95-.05-.02-.95z" stroke="#000" stroke-width=".05"/><path d="M-400.95 1835.9l-8.62-12.27 8.87-2.72z"/><path d="M-400 1839l-11.18-15.92 11.5-3.53zm-7.96-14.82l6.06 8.63.17-10.53z" stroke="#000" stroke-width=".05"/><use xlink:href="#h" transform="matrix(1,0,0,1,-499.24090583153003,1769.4161227437905) translate(0 14.222222222222223)"/><path d="M-96.07 1596.25l-4.9 2.3-4.92 2.07-4.97 1.86-5.1 1.65-5.25 1.47-5.45 1.28-5.7 1.08-6 .9-2.06.2-.2-1.98 2-.2 5.93-.9 5.62-1.06 5.37-1.26 5.16-1.44 5-1.63 4.9-1.84 4.85-2.03 2.96-1.4h4.5zm174.1-102.4l-6.34.13-6.76.42-6.3.66-5.94.87-5.62 1.08-5.37 1.27-5.16 1.44-5 1.64-4.9 1.82-4.85 2.03-4.84 2.26-4.86 2.55-4.96 2.87-5.16 3.28-5.5 3.82-6.04 4.6-7.12 5.9-9.98 9.02-35.34 33.46-1.27 1.05h-3.13l3.07-2.54 35.3-33.44 10.04-9.06 7.2-5.96 6.12-4.65 5.55-3.87 5.23-3.32 5.04-2.9 4.93-2.6 4.9-2.3 4.92-2.06 4.97-1.85 5.1-1.66 5.25-1.47 5.45-1.28 5.7-1.1 6-.88 6.4-.66 6.84-.42 6.38-.14z" stroke="#000" stroke-width=".05"/><path d="M79 1493.82l-1 .02-.05-2 1.05-.02z"/><path d="M79.03 1493.85l-1.06.02-.05-2.05 1.1-.02zm-1.05-1.98l.04 1.95.95-.02v-1.95z" stroke="#000" stroke-width=".05"/><path d="M-141.27 1612.75l-14.5-3.83 14-5.42z"/><path d="M-140.2 1614.07l-18.8-4.97 18.14-7.03zm-12.34-5.33l10.2 2.7-.37-6.5z" stroke="#000" stroke-width=".05"/><use xlink:href="#m" transform="matrix(1,0,0,1,-119.01992141106928,1574.009517067536) translate(0 14.222222222222223)"/><path d="M-59.07 1634.95l-7.85 6.5-6.45 4.9-5.76 4.02-5.38 3.42-5.17 2.97-5.04 2.63-5 2.35-5 2.1-5.08 1.9-5.2 1.68-5.34 1.5-5.55 1.3-5.83 1.1-6.14.9-6.54.7-7.02.44-6.58.14-.04-2 6.53-.13 6.95-.43 6.46-.68 6.07-.9 5.74-1.1 5.5-1.27 5.25-1.48 5.1-1.66 5-1.86 4.94-2.07 4.9-2.32 4.97-2.58 5.08-2.94 5.3-3.37 5.7-3.95 6.38-4.85 7.8-6.46 7.32-6.64h2.98zm119.7-73.36l-2.54.26-6.07.9-5.74 1.1-5.5 1.28-5.25 1.46-5.1 1.66-5 1.86-4.93 2.07-4.92 2.3-4.97 2.6-5.08 2.94-5.3 3.37-5.7 3.97-6.38 4.85-7.78 6.45-7.34 6.8h-2.95l8.97-8.3 7.85-6.5 6.45-4.9 5.76-4.02 5.38-3.42 5.17-2.98 5.04-2.63 5-2.35 5-2.1 5.08-1.9 5.2-1.68 5.34-1.5 5.55-1.3 5.83-1.12 6.14-.9 2.6-.27z" stroke="#000" stroke-width=".05"/><path d="M-157.95 1673.5l-1.05.03v-2l1-.02z"/><path d="M-157.93 1673.53l-1.1.02v-2.05l1.06-.02zm-1.04-1.98v1.95l1-.02-.05-1.95z" stroke="#000" stroke-width=".05"/><path d="M75.77 1559.77l-14 5.4-.5-9.25z"/><path d="M79 1559.6l-18.15 7-.65-12zm-16.3 4.15l9.84-3.8-10.2-2.7z" stroke="#000" stroke-width=".05"/><use xlink:href="#n" transform="matrix(1,0,0,1,-71.96010799858335,1605.4614720187758) translate(0 14.222222222222223)"/><path d="M400 1446a6 6 0 0 1 6-6h148a6 6 0 0 1 6 6v148a6 6 0 0 1-6 6H406a6 6 0 0 1-6-6z" stroke="#000" stroke-width="2" fill="#fff"/><use xlink:href="#i" transform="matrix(1,0,0,1,405,1445) translate(31.944444444444443 64.1861111111111)"/><use xlink:href="#u" transform="matrix(1,0,0,1,405,1445) translate(45.266666666666666 92.54166666666666)"/><path d="M720 1446.42a6 6 0 0 1 6-6h148a6 6 0 0 1 6 6v148a6 6 0 0 1-6 6H726a6 6 0 0 1-6-6z" stroke="#000" stroke-width="2" fill="#fff"/><use xlink:href="#v" transform="matrix(1,0,0,1,725,1445.4253576437864) translate(49.27777777777778 64.1861111111111)"/><use xlink:href="#w" transform="matrix(1,0,0,1,725,1445.4253576437864) translate(46.21111111111111 92.54166666666666)"/><path d="M279.63 1486.78H242v-2h37.63zm100.87 0h-20.13v-2h20.13z" stroke="#000" stroke-width=".05"/><path d="M242.03 1486.78H241v-2h1.03z"/><path d="M242.05 1486.8h-1.08v-2.05h1.08zm-1.03-2v1.95h.98v-1.95z" stroke="#000" stroke-width=".05"/><path d="M395.76 1485.78l-14.26 4.63v-9.26z"/><path d="M399 1485.78l-18.5 6v-12zm-16.5 3.26l10.03-3.26-10.03-3.26z" stroke="#000" stroke-width=".05"/><use xlink:href="#m" transform="matrix(1,0,0,1,279.63079149437317,1475.1095816528439) translate(0 14.222222222222223)"/><path d="M718 1483.44v2l-37.63-.1v-2zm-118.37-.32v2l-20.13-.06v-2z" stroke="#000" stroke-width=".05"/><path d="M719 1483.44v2h-1.03v-2z"/><path d="M719.02 1483.4v2.06h-1.08v-2.05zm-1.03 2h.98v-1.94H718z" stroke="#000" stroke-width=".05"/><path d="M578.5 1488.7l-14.26-4.68 14.27-4.6z"/><path d="M579.5 1490.08L561 1484l18.52-5.95zm-12.03-6.05l10.02 3.3v-6.53z" stroke="#000" stroke-width=".05"/><use xlink:href="#m" transform="matrix(1,0,0,1,599.6284203261677,1473.5604605691462) translate(0 14.222222222222223)"/><path d="M700.5 1560.9v2l-24.55-.06v-2zm-96.45-.25v2l-42.05-.1v-2z" stroke="#000" stroke-width=".05"/><path d="M562.03 1560.54v2H561v-2z"/><path d="M562.06 1560.5v2.06h-1.08v-2.05zm-1.03 2h.97v-1.94h-.98z" stroke="#000" stroke-width=".05"/><path d="M715.76 1561.95l-14.27 4.6v-9.27z"/><path d="M719 1561.96l-18.52 5.96.03-12.02zm-16.5 3.2l10.03-3.22-10.02-3.3z" stroke="#000" stroke-width=".05"/><g><use xlink:href="#x" transform="matrix(1,0,0,1,604.0505957679325,1551.0792268439102) translate(0 14.222222222222223)"/></g><path d="M287.97 1564.3H259.5v-2h28.47zm110.03 0h-45.98v-2H398z" stroke="#000" stroke-width=".05"/><path d="M399 1564.3h-1.03v-2H399z"/><path d="M399.02 1564.32h-1.07v-2.05h1.07zm-1.02-2v1.95h.98v-1.95z" stroke="#000" stroke-width=".05"/><path d="M258.5 1567.93l-14.26-4.63 14.26-4.64z"/><path d="M259.5 1569.3l-18.5-6 18.5-6.02zm-12.03-6l10.03 3.25v-6.5z" stroke="#000" stroke-width=".05"/><g><use xlink:href="#n" transform="matrix(1,0,0,1,287.9741529064546,1552.6283348330956) translate(0 14.222222222222223)"/></g><defs><path d="M556-476c0 141-103 215-251 213H171V0H85v-690h220c148-2 251 72 251 214zM171-612v271h134c110 0 165-45 165-135 0-91-55-136-165-136H171" id="y"/><path d="M120-232c-4 96 38 168 128 168 58 0 98-19 119-56l62 44C394-17 345 7 254 8 120 9 40-82 40-218c0-172 41-291 198-290 154-1 209 109 198 276H120zm118-204c-73 0-113 45-118 134h235c-4-89-43-134-117-134" id="z"/><path d="M252-434c-66-1-107 53-107 121V0H65v-500h80v49c48-85 215-70 259 11l-68 48c-20-28-48-42-84-42" id="A"/><path d="M45-366c1-94 76-144 179-142 86 0 147 28 182 83l-60 42c-30-38-57-50-124-51-53 0-96 19-97 67 0 47 39 74 116 79 103 10 181 38 180 149C419-37 344 9 233 8 144 8 80-20 40-75l59-42c31 38 65 51 135 51 58 0 107-19 107-71 0-70-49-71-129-80-111-8-167-58-167-149" id="B"/><path d="M248-508c135-1 208 86 208 224C456-109 409 9 248 8 115 9 38-82 40-218v-66c-2-136 75-225 208-224zM120-284c0 121 16 221 128 220 106-1 128-100 128-220 0-90-42-152-128-152-85 0-128 63-128 152" id="C"/><path d="M267-434c-71-1-122 51-122 122V0H65v-500h80v49c30-42 62-56 134-57 121 1 182 70 182 196V0h-80v-311c0-82-38-123-114-123" id="D"/><g id="a"><use transform="matrix(0.022222222222222223,0,0,0.022222222222222223,0,0)" xlink:href="#y"/><use transform="matrix(0.022222222222222223,0,0,0.022222222222222223,12.533333333333333,0)" xlink:href="#z"/><use transform="matrix(0.022222222222222223,0,0,0.022222222222222223,23.37777777777778,0)" xlink:href="#A"/><use transform="matrix(0.022222222222222223,0,0,0.022222222222222223,32.13333333333334,0)" xlink:href="#B"/><use transform="matrix(0.022222222222222223,0,0,0.022222222222222223,42.488888888888894,0)" xlink:href="#C"/><use transform="matrix(0.022222222222222223,0,0,0.022222222222222223,53.51111111111112,0)" xlink:href="#D"/></g><path d="M481-218C482-85 412 9 281 8c-63 0-108-19-136-58v240H65v-690h80v50c28-39 73-58 136-58 130 0 202 89 200 224v66zm-336-73c0 124 14 228 128 227 106-1 128-100 128-220 0-90-42-152-128-152-83 0-128 59-128 145" id="E"/><path d="M289-253H30v-72h259v72" id="F"/><path d="M250-698c110-1 198 84 198 199v308C452-76 360 9 250 8 140 9 52-76 52-192v-306c-4-116 88-201 198-200zm0 628c65 1 112-54 112-121v-308c2-67-47-122-112-121-66-1-113 54-113 121v308c-2 67 47 122 113 121" id="G"/><path d="M223-690h86V0h-86v-591l-99 71v-94" id="H"/><g id="b"><use transform="matrix(0.022222222222222223,0,0,0.022222222222222223,0,0)" xlink:href="#E"/><use transform="matrix(0.022222222222222223,0,0,0.022222222222222223,11.577777777777778,0)" xlink:href="#z"/><use transform="matrix(0.022222222222222223,0,0,0.022222222222222223,22.422222222222224,0)" xlink:href="#A"/><use transform="matrix(0.022222222222222223,0,0,0.022222222222222223,31.17777777777778,0)" xlink:href="#F"/><use transform="matrix(0.022222222222222223,0,0,0.022222222222222223,38.26666666666667,0)" xlink:href="#G"/><use transform="matrix(0.022222222222222223,0,0,0.022222222222222223,49.37777777777778,0)" xlink:href="#H"/></g><path d="M305-690c150-1 249 59 251 200 0 96-45 157-136 184L574 0h-96L334-291H171V0H85v-690h220zm165 200c0-98-58-122-165-122H171v243h134c106-1 165-24 165-121" id="I"/><path d="M230 0C111-1 65-39 65-154v-536h80v516c0 66 13 102 85 100V0" id="J"/><g id="c"><use transform="matrix(0.022222222222222223,0,0,0.022222222222222223,0,0)" xlink:href="#I"/><use transform="matrix(0.022222222222222223,0,0,0.022222222222222223,13.333333333333334,0)" xlink:href="#C"/><use transform="matrix(0.022222222222222223,0,0,0.022222222222222223,24.355555555555558,0)" xlink:href="#J"/><use transform="matrix(0.022222222222222223,0,0,0.022222222222222223,30.44444444444444,0)" xlink:href="#z"/></g><g id="d"><use transform="matrix(0.022222222222222223,0,0,0.022222222222222223,0,0)" xlink:href="#A"/><use transform="matrix(0.022222222222222223,0,0,0.022222222222222223,8.755555555555556,0)" xlink:href="#C"/><use transform="matrix(0.022222222222222223,0,0,0.022222222222222223,19.77777777777778,0)" xlink:href="#J"/><use transform="matrix(0.022222222222222223,0,0,0.022222222222222223,25.866666666666667,0)" xlink:href="#F"/><use transform="matrix(0.022222222222222223,0,0,0.022222222222222223,32.955555555555556,0)" xlink:href="#G"/><use transform="matrix(0.022222222222222223,0,0,0.022222222222222223,44.06666666666666,0)" xlink:href="#H"/></g><path d="M219 8C111 9 40-44 40-146c0-95 62-143 187-143h119v-58c-2-74-33-85-111-87-71 1-91 8-120 51l-60-42c37-60 84-82 181-83 128 1 190 38 190 161V0h-80v-49C318-4 291 7 219 8zm0-74c103 2 133-44 127-155-96 5-231-25-226 77 0 52 33 78 99 78" id="K"/><path d="M280 0C145 6 85-24 85-154v-274H21v-72h64v-110h80v110h115v72H165v254c-6 91 28 102 115 98V0" id="L"/><path d="M160 0H80v-500h80V0zm5-600H75v-90h90v90" id="M"/><path d="M120-284c0 125 20 222 136 220 55 0 92-19 111-56l62 44C399-20 341 8 256 8 121 9 38-82 40-218v-66c-1-138 79-225 216-224 79 0 136 26 173 78l-63 44c-23-33-60-50-110-50-88-1-136 62-136 152" id="N"/><g id="e"><use transform="matrix(0.022222222222222223,0,0,0.022222222222222223,0,0)" xlink:href="#y"/><use transform="matrix(0.022222222222222223,0,0,0.022222222222222223,12.622222222222224,0)" xlink:href="#K"/><use transform="matrix(0.022222222222222223,0,0,0.022222222222222223,23.533333333333328,0)" xlink:href="#A"/><use transform="matrix(0.022222222222222223,0,0,0.022222222222222223,32.28888888888889,0)" xlink:href="#L"/><use transform="matrix(0.022222222222222223,0,0,0.022222222222222223,39.28888888888889,0)" xlink:href="#M"/><use transform="matrix(0.022222222222222223,0,0,0.022222222222222223,44.62222222222223,0)" xlink:href="#N"/><use transform="matrix(0.022222222222222223,0,0,0.022222222222222223,54.488888888888894,0)" xlink:href="#M"/><use transform="matrix(0.022222222222222223,0,0,0.022222222222222223,59.82222222222224,0)" xlink:href="#E"/><use transform="matrix(0.022222222222222223,0,0,0.022222222222222223,71.4,0)" xlink:href="#K"/><use transform="matrix(0.022222222222222223,0,0,0.022222222222222223,82.31111111111112,0)" xlink:href="#D"/><use transform="matrix(0.022222222222222223,0,0,0.022222222222222223,94,0)" xlink:href="#L"/></g><g id="f"><use transform="matrix(0.022222222222222223,0,0,0.022222222222222223,0,0)" xlink:href="#E"/><use transform="matrix(0.022222222222222223,0,0,0.022222222222222223,11.577777777777778,0)" xlink:href="#A"/><use transform="matrix(0.022222222222222223,0,0,0.022222222222222223,20.333333333333336,0)" xlink:href="#L"/><use transform="matrix(0.022222222222222223,0,0,0.022222222222222223,27.333333333333336,0)" xlink:href="#F"/><use transform="matrix(0.022222222222222223,0,0,0.022222222222222223,34.422222222222224,0)" xlink:href="#G"/><use transform="matrix(0.022222222222222223,0,0,0.022222222222222223,45.53333333333334,0)" xlink:href="#H"/></g><path fill="#333" d="M24-248c93 1 206-16 204 79-1 75-69 88-152 82V0H24v-248zm52 121c47 0 100 7 100-41 0-47-54-39-100-39v80" id="O"/><path fill="#333" d="M133-34C117-15 103 5 69 4 32 3 11-16 11-54c-1-60 55-63 116-61 1-26-3-47-28-47-18 1-26 9-28 27l-52-2c7-38 36-58 82-57s74 22 75 68l1 82c-1 14 12 18 25 15v27c-30 8-71 5-69-32zm-48 3c29 0 43-24 42-57-32 0-66-3-65 30 0 17 8 27 23 27" id="P"/><path fill="#333" d="M135-150c-39-12-60 13-60 57V0H25l-1-190h47c2 13-1 29 3 40 6-28 27-53 61-41v41" id="Q"/><path fill="#333" d="M115-3C79 11 28 4 28-45v-112H4v-33h27l15-45h31v45h36v33H77v99c-1 23 16 31 38 25v30" id="R"/><path fill="#333" d="M25-224v-37h50v37H25zM25 0v-190h50V0H25" id="S"/><path fill="#333" d="M190-63c-7 42-38 67-86 67-59 0-84-38-90-98-12-110 154-137 174-36l-49 2c-2-19-15-32-35-32-30 0-35 28-38 64-6 74 65 87 74 30" id="T"/><path fill="#333" d="M135-194c53 0 70 44 70 98 0 56-19 98-73 100-31 1-45-17-59-34 3 33 2 69 2 105H25l-1-265h48c2 10 0 23 3 31 11-24 29-35 60-35zM114-30c33 0 39-31 40-66 0-38-9-64-40-64-56 0-55 130 0 130" id="U"/><path fill="#333" d="M135-194c87-1 58 113 63 194h-50c-7-57 23-157-34-157-59 0-34 97-39 157H25l-1-190h47c2 12-1 28 3 38 12-26 28-41 61-42" id="V"/><path fill="#333" d="M169-182c-1-43-94-46-97-3 18 66 151 10 154 114 3 95-165 93-204 36-6-8-10-19-12-30l50-8c3 46 112 56 116 5-17-69-150-10-154-114-4-87 153-88 188-35 5 8 8 18 10 28" id="W"/><path fill="#333" d="M67-125c0 53 21 87 73 88 37 1 54-22 65-47l45 17C233-25 199 4 140 4 58 4 20-42 15-125 8-235 124-281 211-232c18 10 29 29 36 50l-46 12c-8-25-30-41-62-41-52 0-71 34-72 86" id="X"/><g id="g"><use transform="matrix(0.04938271604938272,0,0,0.04938271604938272,0,0)" xlink:href="#O"/><use transform="matrix(0.04938271604938272,0,0,0.04938271604938272,11.851851851851853,0)" xlink:href="#P"/><use transform="matrix(0.04938271604938272,0,0,0.04938271604938272,21.7283950617284,0)" xlink:href="#Q"/><use transform="matrix(0.04938271604938272,0,0,0.04938271604938272,28.64197530864198,0)" xlink:href="#R"/><use transform="matrix(0.04938271604938272,0,0,0.04938271604938272,34.518518518518526,0)" xlink:href="#S"/><use transform="matrix(0.04938271604938272,0,0,0.04938271604938272,39.4567901234568,0)" xlink:href="#T"/><use transform="matrix(0.04938271604938272,0,0,0.04938271604938272,49.33333333333334,0)" xlink:href="#S"/><use transform="matrix(0.04938271604938272,0,0,0.04938271604938272,54.27160493827161,0)" xlink:href="#U"/><use transform="matrix(0.04938271604938272,0,0,0.04938271604938272,65.08641975308643,0)" xlink:href="#P"/><use transform="matrix(0.04938271604938272,0,0,0.04938271604938272,74.96296296296298,0)" xlink:href="#V"/><use transform="matrix(0.04938271604938272,0,0,0.04938271604938272,85.77777777777779,0)" xlink:href="#R"/><use transform="matrix(0.04938271604938272,0,0,0.04938271604938272,91.65432098765433,0)" xlink:href="#W"/><use transform="matrix(0.04938271604938272,0,0,0.04938271604938272,103.50617283950618,0)" xlink:href="#X"/></g><path fill="#333" d="M240-174c0 40-23 61-54 70L253 0h-59l-57-94H76V0H24v-248c93 4 217-23 216 74zM76-134c48-2 112 12 112-38 0-48-66-32-112-35v73" id="Y"/><path fill="#333" d="M110-194c64 0 96 36 96 99 0 64-35 99-97 99-61 0-95-36-95-99 0-62 34-99 96-99zm-1 164c35 0 45-28 45-65 0-40-10-65-43-65-34 0-45 26-45 65 0 36 10 65 43 65" id="Z"/><path fill="#333" d="M25 0v-261h50V0H25" id="aa"/><path fill="#333" d="M185-48c-13 30-37 53-82 52C43 2 14-33 14-96s30-98 90-98c62 0 83 45 84 108H66c0 31 8 55 39 56 18 0 30-7 34-22zm-45-69c5-46-57-63-70-21-2 6-4 13-4 21h74" id="ab"/><g id="h"><use transform="matrix(0.04938271604938272,0,0,0.04938271604938272,0,0)" xlink:href="#Y"/><use transform="matrix(0.04938271604938272,0,0,0.04938271604938272,12.790123456790125,0)" xlink:href="#Z"/><use transform="matrix(0.04938271604938272,0,0,0.04938271604938272,23.60493827160494,0)" xlink:href="#aa"/><use transform="matrix(0.04938271604938272,0,0,0.04938271604938272,28.543209876543212,0)" xlink:href="#ab"/></g><path d="M305 0H85v-690h220c190-7 250 145 250 381C555-103 472 0 305 0zm164-309c3-169-10-305-164-303H171v534h134c129-5 161-87 164-231" id="ac"/><g id="i"><use transform="matrix(0.022222222222222223,0,0,0.022222222222222223,0,0)" xlink:href="#ac"/><use transform="matrix(0.022222222222222223,0,0,0.022222222222222223,13.444444444444445,0)" xlink:href="#z"/><use transform="matrix(0.022222222222222223,0,0,0.022222222222222223,24.28888888888889,0)" xlink:href="#E"/><use transform="matrix(0.022222222222222223,0,0,0.022222222222222223,35.86666666666667,0)" xlink:href="#M"/><use transform="matrix(0.022222222222222223,0,0,0.022222222222222223,41.2,0)" xlink:href="#N"/><use transform="matrix(0.022222222222222223,0,0,0.022222222222222223,51.06666666666667,0)" xlink:href="#L"/><use transform="matrix(0.022222222222222223,0,0,0.022222222222222223,58.06666666666667,0)" xlink:href="#M"/><use transform="matrix(0.022222222222222223,0,0,0.022222222222222223,63.400000000000006,0)" xlink:href="#C"/><use transform="matrix(0.022222222222222223,0,0,0.022222222222222223,74.42222222222223,0)" xlink:href="#D"/></g><path d="M40-284c-2-134 70-224 200-224 63 0 108 19 136 58v-240h80V0h-80v-44C349-9 304 8 240 8 109 9 39-85 40-218v-66zm80 0c0 120 21 219 128 220 85 1 128-60 128-147 0-124-16-226-128-225-86 0-128 62-128 152" id="ad"/><g id="j"><use transform="matrix(0.022222222222222223,0,0,0.022222222222222223,0,0)" xlink:href="#ad"/><use transform="matrix(0.022222222222222223,0,0,0.022222222222222223,11.577777777777778,0)" xlink:href="#E"/><use transform="matrix(0.022222222222222223,0,0,0.022222222222222223,23.155555555555555,0)" xlink:href="#L"/><use transform="matrix(0.022222222222222223,0,0,0.022222222222222223,30.155555555555555,0)" xlink:href="#F"/><use transform="matrix(0.022222222222222223,0,0,0.022222222222222223,37.24444444444445,0)" xlink:href="#G"/><use transform="matrix(0.022222222222222223,0,0,0.022222222222222223,48.355555555555554,0)" xlink:href="#H"/></g><path d="M547-215C530-77 448 4 300 8 108 13 50-143 50-383c0-210 83-315 250-315 149 1 229 86 248 223h-84c-21-92-62-144-164-145-154-2-168 142-164 313 3 144 36 237 164 237 102 0 143-55 164-145h83" id="ae"/><path d="M267-434c-71-1-122 51-122 122V0H65v-690h80v239c30-42 62-56 134-57 121 1 182 70 182 196V0h-80v-311c0-82-38-123-114-123" id="af"/><g id="k"><use transform="matrix(0.022222222222222223,0,0,0.022222222222222223,0,0)" xlink:href="#ae"/><use transform="matrix(0.022222222222222223,0,0,0.022222222222222223,12.844444444444445,0)" xlink:href="#af"/><use transform="matrix(0.022222222222222223,0,0,0.022222222222222223,24.533333333333335,0)" xlink:href="#K"/><use transform="matrix(0.022222222222222223,0,0,0.022222222222222223,35.44444444444444,0)" xlink:href="#A"/><use transform="matrix(0.022222222222222223,0,0,0.022222222222222223,43.977777777777774,0)" xlink:href="#K"/><use transform="matrix(0.022222222222222223,0,0,0.022222222222222223,54.88888888888888,0)" xlink:href="#N"/><use transform="matrix(0.022222222222222223,0,0,0.022222222222222223,64.75555555555556,0)" xlink:href="#L"/><use transform="matrix(0.022222222222222223,0,0,0.022222222222222223,71.75555555555556,0)" xlink:href="#z"/><use transform="matrix(0.022222222222222223,0,0,0.022222222222222223,82.60000000000001,0)" xlink:href="#A"/></g><g id="l"><use transform="matrix(0.022222222222222223,0,0,0.022222222222222223,0,0)" xlink:href="#N"/><use transform="matrix(0.022222222222222223,0,0,0.022222222222222223,9.866666666666667,0)" xlink:href="#af"/><use transform="matrix(0.022222222222222223,0,0,0.022222222222222223,21.555555555555557,0)" xlink:href="#A"/><use transform="matrix(0.022222222222222223,0,0,0.022222222222222223,30.311111111111114,0)" xlink:href="#F"/><use transform="matrix(0.022222222222222223,0,0,0.022222222222222223,37.400000000000006,0)" xlink:href="#G"/><use transform="matrix(0.022222222222222223,0,0,0.022222222222222223,48.51111111111112,0)" xlink:href="#H"/></g><path fill="#333" d="M24-248c120-7 223 5 221 122C244-46 201 0 124 0H24v-248zM76-40c74 7 117-18 117-86 0-67-45-88-117-82v168" id="ag"/><g id="m"><use transform="matrix(0.04938271604938272,0,0,0.04938271604938272,0,0)" xlink:href="#ag"/><use transform="matrix(0.04938271604938272,0,0,0.04938271604938272,12.790123456790125,0)" xlink:href="#ab"/><use transform="matrix(0.04938271604938272,0,0,0.04938271604938272,22.66666666666667,0)" xlink:href="#U"/><use transform="matrix(0.04938271604938272,0,0,0.04938271604938272,33.48148148148149,0)" xlink:href="#S"/><use transform="matrix(0.04938271604938272,0,0,0.04938271604938272,38.41975308641976,0)" xlink:href="#T"/><use transform="matrix(0.04938271604938272,0,0,0.04938271604938272,48.296296296296305,0)" xlink:href="#R"/><use transform="matrix(0.04938271604938272,0,0,0.04938271604938272,54.17283950617284,0)" xlink:href="#S"/><use transform="matrix(0.04938271604938272,0,0,0.04938271604938272,59.111111111111114,0)" xlink:href="#Z"/><use transform="matrix(0.04938271604938272,0,0,0.04938271604938272,69.92592592592594,0)" xlink:href="#V"/></g><path fill="#333" d="M137-138c1-29-70-34-71-4 15 46 118 7 119 86 1 83-164 76-172 9l43-7c4 19 20 25 44 25 33 8 57-30 24-41C81-84 22-81 20-136c-2-80 154-74 161-7" id="ah"/><g id="n"><use transform="matrix(0.04938271604938272,0,0,0.04938271604938272,0,0)" xlink:href="#ag"/><use transform="matrix(0.04938271604938272,0,0,0.04938271604938272,12.790123456790125,0)" xlink:href="#ab"/><use transform="matrix(0.04938271604938272,0,0,0.04938271604938272,22.66666666666667,0)" xlink:href="#U"/><use transform="matrix(0.04938271604938272,0,0,0.04938271604938272,33.48148148148149,0)" xlink:href="#S"/><use transform="matrix(0.04938271604938272,0,0,0.04938271604938272,38.41975308641976,0)" xlink:href="#T"/><use transform="matrix(0.04938271604938272,0,0,0.04938271604938272,48.296296296296305,0)" xlink:href="#R"/><use transform="matrix(0.04938271604938272,0,0,0.04938271604938272,54.17283950617284,0)" xlink:href="#ah"/></g><g id="o"><use transform="matrix(0.04938271604938272,0,0,0.04938271604938272,0,0)" xlink:href="#ag"/><use transform="matrix(0.04938271604938272,0,0,0.04938271604938272,12.790123456790125,0)" xlink:href="#ab"/><use transform="matrix(0.04938271604938272,0,0,0.04938271604938272,22.66666666666667,0)" xlink:href="#U"/><use transform="matrix(0.04938271604938272,0,0,0.04938271604938272,33.48148148148149,0)" xlink:href="#S"/><use transform="matrix(0.04938271604938272,0,0,0.04938271604938272,38.41975308641976,0)" xlink:href="#T"/><use transform="matrix(0.04938271604938272,0,0,0.04938271604938272,48.296296296296305,0)" xlink:href="#R"/><use transform="matrix(0.04938271604938272,0,0,0.04938271604938272,54.17283950617284,0)" xlink:href="#Z"/><use transform="matrix(0.04938271604938272,0,0,0.04938271604938272,64.98765432098766,0)" xlink:href="#Q"/></g><path d="M247-698c138 0 240 127 181 264-25 59-50 81-87 126L151-78h292V0H38v-72l243-287c52-61 78-112 78-154 2-63-50-109-112-108-65-1-113 43-113 108H49c-3-109 90-185 198-185" id="ai"/><g id="p"><use transform="matrix(0.022222222222222223,0,0,0.022222222222222223,0,0)" xlink:href="#E"/><use transform="matrix(0.022222222222222223,0,0,0.022222222222222223,11.577777777777778,0)" xlink:href="#A"/><use transform="matrix(0.022222222222222223,0,0,0.022222222222222223,20.333333333333336,0)" xlink:href="#L"/><use transform="matrix(0.022222222222222223,0,0,0.022222222222222223,27.333333333333336,0)" xlink:href="#F"/><use transform="matrix(0.022222222222222223,0,0,0.022222222222222223,34.422222222222224,0)" xlink:href="#G"/><use transform="matrix(0.022222222222222223,0,0,0.022222222222222223,45.53333333333334,0)" xlink:href="#ai"/></g><g id="q"><use transform="matrix(0.022222222222222223,0,0,0.022222222222222223,0,0)" xlink:href="#ad"/><use transform="matrix(0.022222222222222223,0,0,0.022222222222222223,11.577777777777778,0)" xlink:href="#E"/><use transform="matrix(0.022222222222222223,0,0,0.022222222222222223,23.155555555555555,0)" xlink:href="#L"/><use transform="matrix(0.022222222222222223,0,0,0.022222222222222223,30.155555555555555,0)" xlink:href="#F"/><use transform="matrix(0.022222222222222223,0,0,0.022222222222222223,37.24444444444445,0)" xlink:href="#G"/><use transform="matrix(0.022222222222222223,0,0,0.022222222222222223,48.355555555555554,0)" xlink:href="#ai"/></g><g id="r"><use transform="matrix(0.022222222222222223,0,0,0.022222222222222223,0,0)" xlink:href="#E"/><use transform="matrix(0.022222222222222223,0,0,0.022222222222222223,11.577777777777778,0)" xlink:href="#z"/><use transform="matrix(0.022222222222222223,0,0,0.022222222222222223,22.422222222222224,0)" xlink:href="#A"/><use transform="matrix(0.022222222222222223,0,0,0.022222222222222223,31.17777777777778,0)" xlink:href="#F"/><use transform="matrix(0.022222222222222223,0,0,0.022222222222222223,38.26666666666667,0)" xlink:href="#G"/><use transform="matrix(0.022222222222222223,0,0,0.022222222222222223,49.37777777777778,0)" xlink:href="#ai"/></g><g id="s"><use transform="matrix(0.022222222222222223,0,0,0.022222222222222223,0,0)" xlink:href="#A"/><use transform="matrix(0.022222222222222223,0,0,0.022222222222222223,8.755555555555556,0)" xlink:href="#C"/><use transform="matrix(0.022222222222222223,0,0,0.022222222222222223,19.77777777777778,0)" xlink:href="#J"/><use transform="matrix(0.022222222222222223,0,0,0.022222222222222223,25.866666666666667,0)" xlink:href="#F"/><use transform="matrix(0.022222222222222223,0,0,0.022222222222222223,32.955555555555556,0)" xlink:href="#G"/><use transform="matrix(0.022222222222222223,0,0,0.022222222222222223,44.06666666666666,0)" xlink:href="#ai"/></g><g id="t"><use transform="matrix(0.04938271604938272,0,0,0.04938271604938272,0,0)" xlink:href="#O"/><use transform="matrix(0.04938271604938272,0,0,0.04938271604938272,11.851851851851853,0)" xlink:href="#P"/><use transform="matrix(0.04938271604938272,0,0,0.04938271604938272,21.7283950617284,0)" xlink:href="#Q"/><use transform="matrix(0.04938271604938272,0,0,0.04938271604938272,28.64197530864198,0)" xlink:href="#R"/><use transform="matrix(0.04938271604938272,0,0,0.04938271604938272,34.518518518518526,0)" xlink:href="#S"/><use transform="matrix(0.04938271604938272,0,0,0.04938271604938272,39.4567901234568,0)" xlink:href="#T"/><use transform="matrix(0.04938271604938272,0,0,0.04938271604938272,49.33333333333334,0)" xlink:href="#S"/><use transform="matrix(0.04938271604938272,0,0,0.04938271604938272,54.27160493827161,0)" xlink:href="#U"/><use transform="matrix(0.04938271604938272,0,0,0.04938271604938272,65.08641975308643,0)" xlink:href="#P"/><use transform="matrix(0.04938271604938272,0,0,0.04938271604938272,74.96296296296298,0)" xlink:href="#V"/><use transform="matrix(0.04938271604938272,0,0,0.04938271604938272,85.77777777777779,0)" xlink:href="#R"/><use transform="matrix(0.04938271604938272,0,0,0.04938271604938272,91.65432098765433,0)" xlink:href="#W"/><use transform="matrix(0.04938271604938272,0,0,0.04938271604938272,103.50617283950618,0)" xlink:href="#X"/></g><path d="M369-186c1-102-72-141-183-131v-78c107 8 176-25 173-122 1-58-52-106-112-104-60-2-112 42-113 99H50c-3-104 94-176 197-176 110 0 199 76 198 183-1 76-47 131-103 157 75 31 113 88 113 170C456-80 368 8 254 8 133 8 47-62 41-173h84c9 63 56 104 129 103 64 2 117-53 115-116" id="aj"/><g id="u"><use transform="matrix(0.022222222222222223,0,0,0.022222222222222223,0,0)" xlink:href="#ad"/><use transform="matrix(0.022222222222222223,0,0,0.022222222222222223,11.577777777777778,0)" xlink:href="#E"/><use transform="matrix(0.022222222222222223,0,0,0.022222222222222223,23.155555555555555,0)" xlink:href="#L"/><use transform="matrix(0.022222222222222223,0,0,0.022222222222222223,30.155555555555555,0)" xlink:href="#F"/><use transform="matrix(0.022222222222222223,0,0,0.022222222222222223,37.24444444444445,0)" xlink:href="#G"/><use transform="matrix(0.022222222222222223,0,0,0.022222222222222223,48.355555555555554,0)" xlink:href="#aj"/></g><path d="M154-158L101 0H10l240-690h80L570 0h-91l-53-158H154zm245-78L290-560 181-236h218" id="ak"/><g id="v"><use transform="matrix(0.022222222222222223,0,0,0.022222222222222223,0,0)" xlink:href="#ak"/><use transform="matrix(0.022222222222222223,0,0,0.022222222222222223,12.88888888888889,0)" xlink:href="#B"/><use transform="matrix(0.022222222222222223,0,0,0.022222222222222223,23.244444444444444,0)" xlink:href="#B"/><use transform="matrix(0.022222222222222223,0,0,0.022222222222222223,33.6,0)" xlink:href="#z"/><use transform="matrix(0.022222222222222223,0,0,0.022222222222222223,44.44444444444444,0)" xlink:href="#L"/></g><g id="w"><use transform="matrix(0.022222222222222223,0,0,0.022222222222222223,0,0)" xlink:href="#K"/><use transform="matrix(0.022222222222222223,0,0,0.022222222222222223,10.911111111111111,0)" xlink:href="#B"/><use transform="matrix(0.022222222222222223,0,0,0.022222222222222223,21.266666666666666,0)" xlink:href="#L"/><use transform="matrix(0.022222222222222223,0,0,0.022222222222222223,28.26666666666667,0)" xlink:href="#F"/><use transform="matrix(0.022222222222222223,0,0,0.022222222222222223,35.355555555555554,0)" xlink:href="#G"/><use transform="matrix(0.022222222222222223,0,0,0.022222222222222223,46.46666666666667,0)" xlink:href="#H"/></g><g id="x"><use transform="matrix(0.04938271604938272,0,0,0.04938271604938272,0,0)" xlink:href="#ag"/><use transform="matrix(0.04938271604938272,0,0,0.04938271604938272,12.790123456790125,0)" xlink:href="#ab"/><use transform="matrix(0.04938271604938272,0,0,0.04938271604938272,22.66666666666667,0)" xlink:href="#U"/><use transform="matrix(0.04938271604938272,0,0,0.04938271604938272,33.48148148148149,0)" xlink:href="#S"/><use transform="matrix(0.04938271604938272,0,0,0.04938271604938272,38.41975308641976,0)" xlink:href="#T"/><use transform="matrix(0.04938271604938272,0,0,0.04938271604938272,48.296296296296305,0)" xlink:href="#R"/><use transform="matrix(0.04938271604938272,0,0,0.04938271604938272,54.17283950617284,0)" xlink:href="#Z"/><use transform="matrix(0.04938271604938272,0,0,0.04938271604938272,64.98765432098766,0)" xlink:href="#Q"/></g></defs></g></svg>