<svg xmlns="http://www.w3.org/2000/svg" xmlns:xlink="http://www.w3.org/1999/xlink" xmlns:lucid="lucid" width="1441.8" height="1042"><g transform="translate(681.0000000265476 -6438.999999973453)" lucid:page-tab-id="0_0"><path d="M-159.8 6446a6 6 0 0 1 6-6h148a6 6 0 0 1 6 6v148a6 6 0 0 1-6 6h-148a6 6 0 0 1-6-6z" stroke="#000" stroke-width="2" fill="#fff"/><use xlink:href="#a" transform="matrix(1,0,0,1,-154.7996371523036,6445) translate(-3.4777777777777885 63.955555555555556)"/><use xlink:href="#b" transform="matrix(1,0,0,1,-154.7996371523036,6445) translate(50.34444444444444 92.3111111111111)"/><path d="M-159.8 6686a6 6 0 0 1 6-6h148a6 6 0 0 1 6 6v148a6 6 0 0 1-6 6h-148a6 6 0 0 1-6-6z" stroke="#000" stroke-width="2" fill="#fff"/><use xlink:href="#c" transform="matrix(1,0,0,1,-154.79963715230355,6685) translate(39.75555555555555 78.2486111111111)"/><path d="M80.2 6686a6 6 0 0 1 6-6h148a6 6 0 0 1 6 6v148a6 6 0 0 1-6 6h-148a6 6 0 0 1-6-6z" stroke="#000" stroke-width="2" fill="#fff"/><use xlink:href="#c" transform="matrix(1,0,0,1,85.2003628476964,6685) translate(39.75555555555555 78.2486111111111)"/><path d="M-319.8 6966a6 6 0 0 1 6-6h148a6 6 0 0 1 6 6v148a6 6 0 0 1-6 6h-148a6 6 0 0 1-6-6z" stroke="#000" stroke-width="2" fill="#fff"/><use xlink:href="#d" transform="matrix(1,0,0,1,-314.79963715230355,6965) translate(31.944444444444443 78.2486111111111)"/><path d="M239.8 6966a6 6 0 0 1 6-6h148a6 6 0 0 1 6 6v148a6 6 0 0 1-6 6h-148a6 6 0 0 1-6-6z" stroke="#000" stroke-width="2" fill="#fff"/><use xlink:href="#d" transform="matrix(1,0,0,1,244.7996371523036,6965) translate(31.944444444444443 78.2486111111111)"/><path d="M599.8 6846a6 6 0 0 1 6-6h148a6 6 0 0 1 6 6v148a6 6 0 0 1-6 6h-148a6 6 0 0 1-6-6z" stroke="#000" stroke-width="2" fill="#fff"/><use xlink:href="#e" transform="matrix(1,0,0,1,604.7996371523036,6845) translate(31.166666666666664 64.1861111111111)"/><use xlink:href="#f" transform="matrix(1,0,0,1,604.7996371523036,6845) translate(29.07777777777777 92.54166666666666)"/><path d="M599.8 7086a6 6 0 0 1 6-6h148a6 6 0 0 1 6 6v148a6 6 0 0 1-6 6h-148a6 6 0 0 1-6-6z" stroke="#000" stroke-width="2" fill="#fff"/><use xlink:href="#g" transform="matrix(1,0,0,1,604.7996371523036,7085) translate(49.27777777777778 78.2486111111111)"/><path d="M519.52 7146.13l5.82 5.24 4.92 4.08 4.45 3.38 4.16 2.9 3.98 2.5 3.86 2.24 3.8 2 3.8 1.77 3.8 1.6 3.86 1.44 3.94 1.28 4.05 1.13 4.2.97 4.4.84 1.96.3-.28 1.98-2-.3-4.48-.85-4.28-1-4.14-1.16-4.02-1.3-3.94-1.47-3.88-1.63-3.87-1.82-3.87-2.03-3.93-2.27-4.04-2.57-4.23-2.94-4.5-3.42-5-4.14-5.9-5.32-9.3-9.6h2.8zm-53.45-51.77l4.5 3.43 5 4.13 5.88 5.3 8.18 8.04 1.33 1.37h-2.8l-8.08-7.95-5.82-5.26-4.92-4.08-4.45-3.38-2.7-1.86h3.5zm-59.6-20.58l5.28.34 4.95.52 4.7.7 4.46.84 4.28 1 4.14 1.16 4.02 1.3 3.94 1.47 3.88 1.64 3.87 1.82 3.87 2.03 3.93 2.26 1.46.93v2.35l-2.5-1.58-3.86-2.23-3.8-2-3.8-1.77-3.8-1.6-3.86-1.44-3.94-1.28-4.05-1.13-4.2-.98-4.4-.84-4.6-.68-4.87-.5-5.2-.34-4.6-.1.04-2z" stroke="#000" stroke-width=".05"/><path d="M401.85 7073.7l-.04 2-1-.03v-2z"/><path d="M401.87 7073.66l-.04 2.05h-1.06v-2.06zm-1.05 1.98l.96.02.04-1.95h-1z" stroke="#000" stroke-width=".05"/><path d="M595.57 7179.9l-14.56 3.6.68-9.26z"/><path d="M598.8 7180.14l-18.9 4.64.9-12zm-16.7 2.05l10.25-2.53-9.77-3.98z" stroke="#000" stroke-width=".05"/><use xlink:href="#h" transform="matrix(1,0,0,1,463.9488691428659,7116.640937132781) translate(0 14.222222222222223)"/><path d="M490.7 7021.06l-8.75 11.1-6 6.97-4.95 5.28-4.38 4.3-4.03 3.64-3.8 3.12-3.6 2.74-3.47 2.42-3.4 2.16-3.36 1.94-3.32 1.74-3.32 1.56-3.33 1.4-3.38 1.25-3.42 1.12-3.5.96-3.6.85-3.7.72-3.87.57-4.03.4-4.23.27-3.45.08-.04-2 3.4-.07 4.15-.27 3.95-.4 3.77-.56 3.64-.7 3.5-.8 3.42-.97 3.35-1.1 3.3-1.2 3.25-1.38 3.24-1.54 3.25-1.7 3.3-1.9 3.32-2.1 3.4-2.38 3.55-2.68 3.72-3.08 3.95-3.57 4.32-4.24 4.9-5.2 5.93-6.9 8.73-11.06 1.48-1.96h2.5zm43.65-54.06l-4.32 4.24-4.9 5.23-5.93 6.88-9.97 13.2h-2.5l10.9-14.46 6-6.97 4.97-5.28 4.38-4.3 2.12-1.9h3zm46.24-24.72l-1.7.32-3.5.83-3.42.95-3.35 1.1-3.3 1.22-3.25 1.36-3.24 1.53-3.25 1.7-3.3 1.88-3.32 2.12-3.4 2.37-3.55 2.7-1.97 1.62v-2.6l.72-.6 3.6-2.75 3.5-2.42 3.4-2.16 3.35-1.93 3.32-1.74 3.32-1.56 3.33-1.4 3.37-1.26 3.43-1.1 3.5-1 3.6-.83 1.72-.33z" stroke="#000" stroke-width=".05"/><path d="M401.85 7075.65l-1.05.02v-2l1-.02z"/><path d="M401.87 7075.67l-1.1.02v-2.06l1.06-.02zm-1.05-1.98v1.94l1-.02-.04-1.95z" stroke="#000" stroke-width=".05"/><path d="M595.58 6939.9l-13.78 5.93-.86-9.23z"/><path d="M598.8 6939.6l-17.87 7.7-1.1-11.98zm-16.13 4.76l9.7-4.17-10.3-2.33z" stroke="#000" stroke-width=".05"/><use xlink:href="#i" transform="matrix(1,0,0,1,467.89315520979244,6996.550100698287) translate(0 14.222222222222223)"/><path d="M536.46 7131.17l3.78 3.7 3.55 3.2 3.36 2.8 3.24 2.46 3.14 2.18 3.07 1.96 3.04 1.75 3 1.58 3 1.4 3 1.27 3 1.12 3.08 1 3.12.87 3.2.75 3.28.62 3.4.5 3.52.37 3.68.22 2.9.06-.04 2-2.94-.06-3.77-.24-3.6-.38-3.5-.5-3.35-.65-3.28-.77-3.2-.9-3.14-1.02-3.1-1.15-3.08-1.28-3.07-1.45-3.07-1.6-3.1-1.8-3.15-2-3.2-2.23-3.3-2.5-3.45-2.85-3.6-3.26-3.03-2.96v-2.86zm-21.42-26.62l7.22 9.97 1.67 2.12h-2.54l-.74-.9-7.26-10.05-7.8-11.58h2.4zm-92.78-96.26l3.2.88 3.14 1.02 3.1 1.16 3.08 1.3 3.07 1.44 3.07 1.6 3.1 1.8 3.15 2 3.2 2.22 3.3 2.5 3.45 2.85 3.6 3.26 3.85 3.77 4.18 4.45 4.68 5.43 5.52 6.98 14.7 21.83h-2.4l-13.92-20.66-5.44-6.9-4.64-5.35-4.12-4.4-3.78-3.72-3.55-3.2-3.36-2.78-3.24-2.46-3.14-2.2-3.07-1.94-3.04-1.74-3-1.57-3-1.42-3-1.26-3.02-1.13-3.06-1-3.12-.87-2.82-.67.45-1.94z" stroke="#000" stroke-width=".05"/><path d="M598.8 7159v2l-1.05-.02.04-2z"/><path d="M598.83 7158.98v2.05l-1.1-.03.04-2.05zm-1.05 1.97l1 .03v-1.96l-.96-.02z" stroke="#000" stroke-width=".05"/><path d="M417.72 7013.1l-13.7-6.1 14.67-3.12z"/><path d="M418.57 7014.57l-17.77-7.9 19.03-4.06zm-11.33-7.23l9.63 4.3.68-6.5z" stroke="#000" stroke-width=".05"/><use xlink:href="#j" transform="matrix(1,0,0,1,459.2555757473027,7072.786168777534) translate(0 14.222222222222223)"/><path d="M480.25 6974.7l-5.66 5.1-4.88 4.04-4.43 3.37-4.17 2.9-4 2.53-3.88 2.25-3.84 2-3.82 1.8-3.84 1.63-3.9 1.46-3.98 1.3-4.1 1.13-4.23 1-4.42.83-1.72.25-.3-1.97 1.7-.24 4.33-.83 4.17-.97 4-1.13 3.9-1.26 3.83-1.42 3.77-1.6 3.75-1.75 3.76-1.97 3.82-2.2 3.92-2.5 4.1-2.84 4.36-3.33 4.8-3.97 5.58-5.03 9.22-9.63h2.77zm117.57-74.18l-4.52.1-5.12.3-4.8.52-4.56.67-4.33.83-4.17.98-4 1.13-3.9 1.27-3.83 1.42-3.77 1.58-3.75 1.76-3.76 1.97-3.82 2.2-3.92 2.5-4.1 2.85-4.36 3.3-4.8 4-5.6 5.03-7.4 7.3-2.03 2.1h-2.78l3.37-3.5 7.46-7.35 5.65-5.1 4.88-4.03 4.43-3.36 4.17-2.9 4-2.53 3.88-2.25 3.84-2 3.8-1.8 3.86-1.62 3.9-1.45 3.98-1.3 4.1-1.13 4.23-1 4.42-.84 4.62-.68 4.9-.5 5.2-.34 4.56-.08z" stroke="#000" stroke-width=".05"/><path d="M598.8 6900.5l-1 .02-.05-2 1.05-.03z"/><path d="M598.83 6900.52l-1.06.02-.04-2.05 1.1-.03zm-1.05-1.98l.04 1.95.95-.03v-1.95z" stroke="#000" stroke-width=".05"/><path d="M418.6 7010l-14.57-3.57 13.88-5.7z"/><path d="M419.7 7011.3l-18.9-4.63 18-7.37zm-12.45-5.1l10.25 2.5-.5-6.5z" stroke="#000" stroke-width=".05"/><use xlink:href="#j" transform="matrix(1,0,0,1,459.3155553329741,6942.304333968057) translate(0 14.222222222222223)"/><path d="M-680 6846a6 6 0 0 1 6-6h148a6 6 0 0 1 6 6v148a6 6 0 0 1-6 6h-148a6 6 0 0 1-6-6z" stroke="#000" stroke-width="2" fill="#fff"/><use xlink:href="#k" transform="matrix(1,0,0,1,-675,6845) translate(2.24444444444444 78.2486111111111)"/><path d="M-680 7086a6 6 0 0 1 6-6h148a6 6 0 0 1 6 6v148a6 6 0 0 1-6 6h-148a6 6 0 0 1-6-6z" stroke="#000" stroke-width="2" fill="#fff"/><use xlink:href="#g" transform="matrix(1,0,0,1,-675,7085) translate(49.27777777777778 78.2486111111111)"/><path d="M-437.57 7144.74l-6 6.4-5 4.9-4.42 4-4.08 3.38-3.86 2.93-3.7 2.58-3.6 2.3-3.55 2.03-3.5 1.84-3.5 1.65-3.53 1.48-3.57 1.33-3.63 1.18-3.73 1.04-3.83.9-3.3.63-.38-1.96 3.27-.62 3.75-.88 3.64-1.02 3.54-1.15 3.5-1.3 3.44-1.45 3.43-1.6 3.44-1.8 3.47-2 3.55-2.26 3.63-2.53 3.8-2.88 4.02-3.33 4.37-3.94 4.93-4.83 5.93-6.33 8.98-10.9h2.6zm56.1-62.7l-4.03 3.33-4.37 3.94-4.93 4.84-5.93 6.33-8.72 10.15-.47.57h-2.6l1.54-1.87 8.76-10.2 6-6.4 4.98-4.88 4.43-4 2.68-2.22h3.18zm59.7-21.02l-3.8.08-4.5.28-4.27.45-4.06.6-3.9.74-3.75.88-3.64 1.02-3.54 1.15-3.5 1.3-3.44 1.45-3.43 1.6-3.44 1.8-3.47 2-3.55 2.26-3.63 2.53-1.9 1.44v-2.5l.72-.56 3.7-2.58 3.6-2.3 3.55-2.03 3.5-1.84 3.5-1.66 3.53-1.48 3.57-1.33 3.63-1.18 3.73-1.04 3.83-.9 3.96-.74 4.15-.62 4.35-.45 4.58-.3 3.85-.08z" stroke="#000" stroke-width=".05"/><path d="M-320.8 7061l-1 .02-.05-2 1.05-.02z"/><path d="M-320.77 7061.02l-1.06.03-.04-2.05 1.1-.03zm-1.05-1.97l.04 1.95.95-.02v-1.95z" stroke="#000" stroke-width=".05"/><path d="M-501.17 7187.03l-14.6-3.4 13.82-5.84z"/><path d="M-500.06 7188.3l-18.94-4.4 17.93-7.57zm-12.5-4.96l10.28 2.4-.55-6.5z" stroke="#000" stroke-width=".05"/><use xlink:href="#h" transform="matrix(1,0,0,1,-455.95752801200626,7111.189917011873) translate(0 14.222222222222223)"/><path d="M-455.96 7113.97l-3.72 3.08-3.7 2.8-3.55 2.48-3.46 2.2-3.4 1.97-3.4 1.77-3.38 1.6-3.4 1.42-3.43 1.27-3.5 1.14-3.6 1-3.66.87-2.25.43-.4-1.97 2.22-.42 3.6-.83 3.5-.98 3.4-1.12 3.37-1.25 3.3-1.4 3.32-1.55 3.3-1.73 3.35-1.93 3.4-2.16 3.5-2.43 3.6-2.75 3.82-3.15 1.14-1.04zm20.65-21.53l-6.57 7.62-5.23 5.58-4.56 4.47-1.2 1.1h-3l2.83-2.55 4.5-4.4 5.17-5.53 6.5-7.55 7.4-9.54h2.5zm113.52-86.1l-3.54.1-4.26.26-4.05.42-3.87.57-3.72.7-3.6.84-3.5.98-3.4 1.1-3.37 1.26-3.3 1.4-3.32 1.55-3.3 1.73-3.35 1.93-3.4 2.15-3.5 2.43-3.6 2.75-3.82 3.15-4.07 3.68-4.5 4.4-5.17 5.53-6.5 7.54-7.43 9.45h-2.55l8.43-10.73 6.57-7.62 5.23-5.58 4.56-4.46 4.14-3.73 3.88-3.2 3.7-2.8 3.55-2.48 3.47-2.22 3.4-1.97 3.4-1.76 3.38-1.6 3.4-1.42 3.43-1.28 3.5-1.14 3.6-1 3.66-.86 3.8-.72 3.96-.6 4.13-.42 4.35-.27 3.58-.08z" stroke="#000" stroke-width=".05"/><path d="M-320.8 7006.33l-1 .02-.05-2 1.05-.02z"/><path d="M-320.77 7006.36l-1.06.02-.04-2.05 1.1-.02zm-1.05-1.98l.04 1.95.95-.02v-1.94z" stroke="#000" stroke-width=".05"/><path d="M-501.15 7139.72l-14.63-3.33 13.8-5.9z"/><path d="M-500.03 7141l-18.97-4.32 17.88-7.66zm-12.52-4.9l10.28 2.34-.6-6.5z" stroke="#000" stroke-width=".05"/><use xlink:href="#j" transform="matrix(1,0,0,1,-460.32960537870343,7060.294538441434) translate(0 14.222222222222223)"/><path d="M-409.5 7017.1l8.64 8.48 5.97 5.4 5.02 4.13 4.5 3.43 4.2 2.92 4 2.54 3.88 2.24 3.84 2 3.8 1.8 3.84 1.6 3.88 1.45 3.97 1.28 4.08 1.14 4.25 1 4.4.83 4.66.7 4.92.5 5.24.33 4.66.1-.04 2-4.7-.1-5.33-.33-5-.53-4.72-.7-4.5-.85-4.3-1-4.18-1.18-4.04-1.32-3.96-1.47-3.9-1.64-3.9-1.83-3.9-2.04-3.96-2.3-4.08-2.6-4.26-2.95-4.57-3.47-5.07-4.2-6.03-5.44-8.68-8.54-28.05-28.76-1-.9h2.9zm-88.73-61.1l4.5.86 4.3 1.02 4.18 1.16 4.05 1.3 3.96 1.5 3.9 1.63 3.9 1.83 3.9 2.04.27.16h-4.3l-.76-.4-3.82-1.8-3.83-1.6-3.88-1.46-3.97-1.3-4.08-1.13-4.25-.98-4.4-.84-2.16-.32.28-1.98z" stroke="#000" stroke-width=".05"/><path d="M-320.8 7059v2l-1.05-.02.04-2z"/><path d="M-320.77 7058.98v2.05l-1.1-.03.04-2.05zm-1.05 1.97l1 .03v-1.96l-.96-.02z" stroke="#000" stroke-width=".05"/><path d="M-501.88 6961.23l-13.9-5.66 14.57-3.6z"/><path d="M-500.98 6962.67l-18.02-7.34 18.9-4.65zm-11.56-6.87l9.76 3.98.47-6.5z" stroke="#000" stroke-width=".05"/><use xlink:href="#h" transform="matrix(1,0,0,1,-486.9219221178082,6967.496718544447) translate(0 14.222222222222223)"/><path d="M-437.64 6920.43l28.32 34.4 8.66 10.07 5.92 6.33 4.92 4.82 4.36 3.93 4.02 3.33 3.8 2.9 3.63 2.52 3.52 2.24 3.47 2 3.42 1.8 3.43 1.6 3.45 1.46 3.48 1.3 3.55 1.15 3.64 1.02 3.75.86 3.9.75 4.05.6 4.26.45 4.5.28 3.8.08-.05 2-3.84-.07-4.58-.28-4.34-.46-4.14-.62-3.97-.76-3.82-.9-3.72-1.03-3.63-1.2-3.57-1.32-3.52-1.48-3.5-1.65-3.52-1.84-3.53-2.03-3.62-2.3-3.7-2.56-3.86-2.92-4.1-3.4-4.4-3.98-5-4.88-5.97-6.38-8.7-10.12-28.3-34.37-2-2.12h2.75zm-59.47-37.9l3.83.9 3.7 1.05 3.64 1.18 3.57 1.33 3.52 1.47 3.5 1.65 3.5 1.83 3.55 2.05 3.62 2.28 2.9 2.02h-3.5l-.5-.35-3.54-2.24-3.47-2-3.42-1.8-3.43-1.6-3.45-1.45-3.48-1.3-3.55-1.15-3.64-1.02-3.75-.88-3.25-.62.37-1.96z" stroke="#000" stroke-width=".05"/><path d="M-320.8 7004.33v2l-1.05-.02.04-2z"/><path d="M-320.77 7004.3v2.06l-1.1-.02.04-2.05zm-1.05 2h1v-1.94l-.96-.02z" stroke="#000" stroke-width=".05"/><path d="M-501.95 6887.44l-13.83-5.83 14.6-3.4z"/><path d="M-501.07 6888.9l-17.93-7.57 18.94-4.42zm-11.48-7.02l9.72 4.1.55-6.5z" stroke="#000" stroke-width=".05"/><use xlink:href="#j" transform="matrix(1,0,0,1,-490.69506946958893,6898.29463067377) translate(0 14.222222222222223)"/><path d="M-40.2 7326a6 6 0 0 1 6-6h148a6 6 0 0 1 6 6v148a6 6 0 0 1-6 6h-148a6 6 0 0 1-6-6z" stroke="#000" stroke-width="2" fill="#fff"/><use xlink:href="#d" transform="matrix(1,0,0,1,-35.2003628476964,7325) translate(31.944444444444443 78.2486111111111)"/><path d="M319.8 7326a6 6 0 0 1 6-6h148a6 6 0 0 1 6 6v148a6 6 0 0 1-6 6h-148a6 6 0 0 1-6-6z" stroke="#000" stroke-width="2" fill="#fff"/><use xlink:href="#l" transform="matrix(1,0,0,1,324.7996371523036,7325) translate(29.322222222222216 78.2486111111111)"/><path d="M-400 7326a6 6 0 0 1 6-6h148a6 6 0 0 1 6 6v148a6 6 0 0 1-6 6h-148a6 6 0 0 1-6-6z" stroke="#000" stroke-width="2" fill="#fff"/><use xlink:href="#g" transform="matrix(1,0,0,1,-395,7325) translate(49.27777777777778 78.2486111111111)"/><path d="M80.2 6446a6 6 0 0 1 6-6h148a6 6 0 0 1 6 6v148a6 6 0 0 1-6 6h-148a6 6 0 0 1-6-6z" stroke="#000" stroke-width="2" fill="#fff"/><use xlink:href="#a" transform="matrix(1,0,0,1,85.2003628476964,6445) translate(-3.4777777777777885 63.955555555555556)"/><use xlink:href="#m" transform="matrix(1,0,0,1,85.2003628476964,6445) translate(50.34444444444444 92.3111111111111)"/><path d="M179.43 7361.67H139.3v-2h40.13zm138.37 0h-57.63v-2h57.63z" stroke="#3a414a" stroke-width=".05" fill="#3a414a"/><path d="M318.8 7361.67h-1.03v-2h1.03z" fill="#3a414a"/><path d="M318.82 7361.7h-1.07v-2.06h1.07zm-1.02-2v1.94h.97v-1.95z" stroke="#3a414a" stroke-width=".05" fill="#3a414a"/><path d="M138.3 7365.3l-14.26-4.63 14.26-4.64z" fill="#3a414a"/><path d="M139.3 7366.68l-18.5-6 18.5-6.03zm-12.03-6l10.03 3.25v-6.52z" stroke="#3a414a" stroke-width=".05" fill="#3a414a"/><use xlink:href="#j" transform="matrix(1,0,0,1,179.42775521945674,7350.000000225277) translate(0 14.222222222222223)"/><path d="M187.78 7441.67H121.8v-2h65.98zm112.52 0h-48.47v-2h48.47z" stroke="#3a414a" stroke-width=".05" fill="#3a414a"/><path d="M121.83 7441.67h-1.03v-2h1.03z" fill="#3a414a"/><path d="M121.85 7441.7h-1.07v-2.06h1.07zm-1.02-2v1.94h.97v-1.95z" stroke="#3a414a" stroke-width=".05" fill="#3a414a"/><path d="M315.56 7440.67l-14.26 4.63v-9.27z" fill="#3a414a"/><path d="M318.8 7440.67l-18.5 6v-12.02zm-16.5 3.26l10.03-3.26-10.03-3.26z" stroke="#3a414a" stroke-width=".05" fill="#3a414a"/><use xlink:href="#i" transform="matrix(1,0,0,1,187.77645825765848,7430.000002927943) translate(0 14.222222222222223)"/><path d="M-191.24 7363.67H-238v-2h46.76zm131.54 0h-50.8v-2h50.8z" stroke="#3a414a" stroke-width=".05" fill="#3a414a"/><path d="M-237.97 7363.67H-239v-2h1.03z" fill="#3a414a"/><path d="M-237.95 7363.7h-1.08v-2.06h1.08zm-1.03-2v1.94h.98v-1.95z" stroke="#3a414a" stroke-width=".05" fill="#3a414a"/><path d="M-44.44 7362.67l-14.26 4.63v-9.27z" fill="#3a414a"/><path d="M-41.2 7362.67l-18.5 6v-12.02zm-16.5 3.26l10.03-3.26-10.03-3.26z" stroke="#3a414a" stroke-width=".05" fill="#3a414a"/><use xlink:href="#j" transform="matrix(1,0,0,1,-191.23739988473324,7352.000005495302) translate(0 14.222222222222223)"/><path d="M-186.82 7443.67h-33.68v-2h33.68zm144.62 0h-72.72v-2h72.72z" stroke="#3a414a" stroke-width=".05" fill="#3a414a"/><path d="M-41.2 7443.67h-1.03v-2h1.03z" fill="#3a414a"/><path d="M-41.17 7443.7h-1.08v-2.06h1.08zm-1.03-2v1.94h.98v-1.95z" stroke="#3a414a" stroke-width=".05" fill="#3a414a"/><path d="M-221.5 7447.3l-14.26-4.63 14.26-4.64z" fill="#3a414a"/><path d="M-220.5 7448.68l-18.5-6 18.5-6.03zm-12.03-6l10.03 3.25v-6.52z" stroke="#3a414a" stroke-width=".05" fill="#3a414a"/><use xlink:href="#h" transform="matrix(1,0,0,1,-186.81764679831355,7431.999997522469) translate(0 14.222222222222223)"/><path d="M-18.73 7146.63l5.47 23.3 4.42 23.2 3.66 24.82 2.92 27.92 2.04 32.82.44 21.78-2 .04-.43-21.75-2.05-32.73-2.92-27.84-3.64-24.72-4.42-23.12-5.45-23.2-17.54-56.38h2.08zM-78 6881.23l2.05 32.73 2.9 27.84 3.66 24.72 4.4 23.12 5.47 23.22 7.58 27.07 9.2 29.52h-2.1l-9.02-28.96-7.6-27.14-5.47-23.3-4.43-23.2-3.65-24.8-2.92-27.93-2.05-32.82-.78-39.27 2-.04z" stroke="#3a414a" stroke-width=".05" fill="#3a414a"/><path d="M-78.78 6842l-2 .05-.02-1.05h2z" fill="#3a414a"/><path d="M-78.75 6842.04l-2.05.04-.03-1.1h2.05zm-2.02-1.02l.02 1 1.94-.03-.02-.98z" stroke="#3a414a" stroke-width=".05" fill="#3a414a"/><path d="M-.47 7315.77l-4.92-14.18 9.28-.2z" fill="#3a414a"/><path d="M-.4 7319l-6.4-18.38 12.03-.24zm-3.6-16.43l3.47 9.96 3.05-10.1z" stroke="#3a414a" stroke-width=".05" fill="#3a414a"/><use xlink:href="#n" transform="matrix(1,0,0,1,-60.70658214217953,7069.450255032002) translate(0 14.222222222222223)"/><path d="M98.33 7136.77l-6.24 22.3-4.96 21.07-4.12 21.62-3.44 23.34-2.74 26.24-1.9 30.6-.38 18.58-2-.04.37-18.6 1.9-30.7 2.77-26.33 3.45-23.43 4.14-21.7 4.95-21.15 6.27-22.4 15.78-45.4h2.1zm62.85-294.74l-.73 36.1-1.9 30.7-2.77 26.32-3.45 23.43-4.14 21.7-4.97 21.15-6.26 22.4-9.67 29.55-5.57 16.05h-2.12l5.8-16.7 9.65-29.5 6.24-22.3 4.94-21.07 4.12-21.62 3.44-23.34 2.74-26.24 1.9-30.6.74-36.07z" stroke="#3a414a" stroke-width=".05" fill="#3a414a"/><path d="M161.18 6842.05l-2-.04.02-1h2z" fill="#3a414a"/><path d="M161.2 6842.08l-2.05-.04.03-1.06h2.05zm-1.97-1.06l-.02.97 1.96.03.02-1z" stroke="#3a414a" stroke-width=".05" fill="#3a414a"/><path d="M78.17 7301.6l-4.92 14.16-4.35-14.35z" fill="#3a414a"/><path d="M79.57 7300.62l-6.4 18.38-5.63-18.62zm-6.26 11.9l3.47-9.95-6.5-.13z" stroke="#3a414a" stroke-width=".05" fill="#3a414a"/><use xlink:href="#n" transform="matrix(1,0,0,1,96.73857106705029,7069.428157369763) translate(0 14.222222222222223)"/><path d="M-191.17 6910.4l-10.73 4.84-6.3 3.45-4.73 2.86-3.75 2.5-3.08 2.22-2.58 2.04-2.2 1.9-1.87 1.76-1.65 1.67-1.44 1.6-1.25 1.52-1.13 1.48-1 1.43-.88 1.4-.44.76-1.73-1 .46-.8.93-1.47 1.05-1.5 1.18-1.54 1.32-1.6 1.5-1.65 1.7-1.73 1.94-1.83 2.25-1.94 2.63-2.1 3.15-2.28 3.82-2.53 4.8-2.9 6.4-3.52 11.63-5.25zm89.9-68.38v.6l-.1 1.54-.17 1.52-.22 1.48-.28 1.45-.33 1.45-.4 1.4-.46 1.42-.52 1.4-.6 1.4-.65 1.42-.75 1.4-.83 1.46-.93 1.47-1.06 1.5-1.17 1.54-1.32 1.6-1.5 1.65-1.7 1.73-1.94 1.83-2.24 1.94-2.64 2.1-3.14 2.28-3.83 2.53-4.8 2.9-6.4 3.5-9.5 4.72-1.97.88v-2.2l1.1-.5 9.46-4.66 6.3-3.46 4.74-2.86 3.75-2.5 3.08-2.22 2.6-2.04 2.18-1.9 1.88-1.76 1.64-1.67 1.44-1.6 1.27-1.52 1.13-1.48 1-1.43.88-1.4.8-1.37.7-1.35.63-1.33.56-1.33.48-1.33.44-1.3.37-1.35.3-1.35.27-1.37.2-1.4.16-1.44.1-1.48v-.54z" stroke="#3a414a" stroke-width=".05" fill="#3a414a"/><path d="M-101.27 6842.05l-2-.04.02-1h2z" fill="#3a414a"/><path d="M-101.25 6842.07l-2.05-.04.02-1.05h2.06zm-1.98-1.05l-.02.96 1.95.04.02-1z" stroke="#3a414a" stroke-width=".05" fill="#3a414a"/><path d="M-230.8 6943.3l-8.16 12.57-.78-14.97z" fill="#3a414a"/><path d="M-229.2 6942.7l-10.6 16.3-1-19.43zm-8.92 10.05l5.74-8.84-6.3-1.68z" stroke="#3a414a" stroke-width=".05" fill="#3a414a"/><use xlink:href="#n" transform="matrix(1,0,0,1,-191.16915436293496,6889.500344153182) translate(0 14.222222222222223)"/><path d="M282.22 6912.84l6.57 3.6 4.9 2.97 3.88 2.6 3.18 2.3 2.67 2.1 2.28 1.98 1.98 1.84 1.7 1.75 1.52 1.67 1.33 1.6 1.18 1.57 1.07 1.52.94 1.5.6 1-1.74 1-.56-.98-.9-1.4-1-1.46-1.14-1.5-1.28-1.53-1.45-1.6-1.65-1.7-1.9-1.8-2.22-1.9-2.6-2.06-3.12-2.27-3.82-2.53-4.83-2.92-6.48-3.55-9.07-4.14v-2.2zm-96.8-70.3l.1 1.5.15 1.46.2 1.4.28 1.4.32 1.38.38 1.35.43 1.34.5 1.35.57 1.34.63 1.35.72 1.37.8 1.4.9 1.4 1 1.45 1.13 1.5 1.28 1.53 1.46 1.6 1.65 1.7 1.92 1.8 2.2 1.9 2.62 2.06 3.12 2.27 3.8 2.53 4.84 2.92 6.5 3.56 8.9 4.4v2.23l-9.84-4.85-6.56-3.6-4.9-2.96-3.88-2.6-3.2-2.3-2.66-2.1-2.28-1.98-1.97-1.84-1.7-1.75-1.5-1.67-1.34-1.6-1.18-1.57-1.06-1.52-.94-1.5-.84-1.44-.75-1.44-.68-1.43-.6-1.42-.53-1.42-.47-1.42-.4-1.43-.34-1.45-.3-1.47-.2-1.5-.17-1.54-.1-1.57-.02-.6 2-.05z" stroke="#3a414a" stroke-width=".05" fill="#3a414a"/><path d="M185.4 6842l-2 .05V6841h2z" fill="#3a414a"/><path d="M185.44 6842.03l-2.05.04-.03-1.1h2.05zm-2.02-1l.02 1 1.95-.05-.03-.95z" stroke="#3a414a" stroke-width=".05" fill="#3a414a"/><path d="M318.97 6955.87l-8.13-12.6 8.97-2.38z" fill="#3a414a"/><path d="M319.8 6959l-10.54-16.35 11.62-3.07zm-7.37-15.12l5.72 8.86.58-10.53z" stroke="#3a414a" stroke-width=".05" fill="#3a414a"/><use xlink:href="#n" transform="matrix(1,0,0,1,231.8010884050264,6889.488084180399) translate(0 14.222222222222223)"/><path d="M-78.8 6660.5h-2v-9.83h2zm0-31.17h-2V6602h2z" stroke="#3a414a" stroke-width=".05" fill="#3a414a"/><path d="M-78.8 6602.03h-2V6601h2z" fill="#3a414a"/><path d="M-78.78 6602.05h-2.05v-1.07h2.05zm-2-1.03v.98h1.95v-.98z" stroke="#3a414a" stroke-width=".05" fill="#3a414a"/><path d="M-79.8 6675.76l-4.64-14.26h9.28z" fill="#3a414a"/><path d="M-79.8 6679l-6-18.5h12zm-3.26-16.5l3.26 10.03 3.26-10.03z" stroke="#3a414a" stroke-width=".05" fill="#3a414a"/><use xlink:href="#o" transform="matrix(1,0,0,1,-112.76260011526657,6629.333918328234) translate(0 14.222222222222223)"/><path d="M161.2 6660.5h-2v-15.3h2zm0-36.63h-2V6602h2z" stroke="#3a414a" stroke-width=".05" fill="#3a414a"/><path d="M161.2 6602.03h-2V6601h2z" fill="#3a414a"/><path d="M161.22 6602.05h-2.04v-1.07h2.04zm-2-1.03v.98h1.96v-.98z" stroke="#3a414a" stroke-width=".05" fill="#3a414a"/><path d="M160.2 6675.76l-4.63-14.26h9.27z" fill="#3a414a"/><path d="M160.2 6679l-6-18.5h12zm-3.26-16.5l3.26 10.03 3.26-10.03z" stroke="#3a414a" stroke-width=".05" fill="#3a414a"/><g><use xlink:href="#o" transform="matrix(1,0,0,1,127.23739988473346,6623.875138996938) translate(0 14.222222222222223)"/></g><defs><path d="M556-476c0 141-103 215-251 213H171V0H85v-690h220c148-2 251 72 251 214zM171-612v271h134c110 0 165-45 165-135 0-91-55-136-165-136H171" id="p"/><path d="M252-434c-66-1-107 53-107 121V0H65v-500h80v49c48-85 215-70 259 11l-68 48c-20-28-48-42-84-42" id="q"/><path d="M248-508c135-1 208 86 208 224C456-109 409 9 248 8 115 9 38-82 40-218v-66c-2-136 75-225 208-224zM120-284c0 121 16 221 128 220 106-1 128-100 128-220 0-90-42-152-128-152-85 0-128 63-128 152" id="r"/><path d="M40-284c-2-134 70-224 200-224 63 0 108 19 136 58v-240h80V0h-80v-44C349-9 304 8 240 8 109 9 39-85 40-218v-66zm80 0c0 120 21 219 128 220 85 1 128-60 128-147 0-124-16-226-128-225-86 0-128 62-128 152" id="s"/><path d="M259-66c71 1 122-51 122-122v-312h80V0h-80v-49C351-7 319 7 247 8 126 7 65-62 65-188v-312h80v311c0 82 38 123 114 123" id="t"/><path d="M120-284c0 125 20 222 136 220 55 0 92-19 111-56l62 44C399-20 341 8 256 8 121 9 38-82 40-218v-66c-1-138 79-225 216-224 79 0 136 26 173 78l-63 44c-23-33-60-50-110-50-88-1-136 62-136 152" id="u"/><path d="M280 0C145 6 85-24 85-154v-274H21v-72h64v-110h80v110h115v72H165v254c-6 91 28 102 115 98V0" id="v"/><path d="M160 0H80v-500h80V0zm5-600H75v-90h90v90" id="w"/><path d="M267-434c-71-1-122 51-122 122V0H65v-500h80v49c30-42 62-56 134-57 121 1 182 70 182 196V0h-80v-311c0-82-38-123-114-123" id="x"/><path d="M60-512c2-121 91-189 223-186 103 0 179 38 228 113l-67 48c-43-53-76-82-164-83-78 0-134 33-134 108 0 95 67 108 163 128 130 27 214 62 214 199C523-55 430 7 291 8 179 8 97-30 45-105l71-49c49 56 80 82 175 84 97 0 146-37 146-111 0-94-64-111-163-129-143-22-214-89-214-202" id="y"/><path d="M120-232c-4 96 38 168 128 168 58 0 98-19 119-56l62 44C394-17 345 7 254 8 120 9 40-82 40-218c0-172 41-291 198-290 154-1 209 109 198 276H120zm118-204c-73 0-113 45-118 134h235c-4-89-43-134-117-134" id="z"/><g id="a"><use transform="matrix(0.022222222222222223,0,0,0.022222222222222223,0,0)" xlink:href="#p"/><use transform="matrix(0.022222222222222223,0,0,0.022222222222222223,13.066666666666666,0)" xlink:href="#q"/><use transform="matrix(0.022222222222222223,0,0,0.022222222222222223,21.822222222222223,0)" xlink:href="#r"/><use transform="matrix(0.022222222222222223,0,0,0.022222222222222223,32.84444444444445,0)" xlink:href="#s"/><use transform="matrix(0.022222222222222223,0,0,0.022222222222222223,44.422222222222224,0)" xlink:href="#t"/><use transform="matrix(0.022222222222222223,0,0,0.022222222222222223,56.111111111111114,0)" xlink:href="#u"/><use transform="matrix(0.022222222222222223,0,0,0.022222222222222223,65.97777777777779,0)" xlink:href="#v"/><use transform="matrix(0.022222222222222223,0,0,0.022222222222222223,72.97777777777779,0)" xlink:href="#w"/><use transform="matrix(0.022222222222222223,0,0,0.022222222222222223,78.31111111111112,0)" xlink:href="#r"/><use transform="matrix(0.022222222222222223,0,0,0.022222222222222223,89.33333333333334,0)" xlink:href="#x"/><use transform="matrix(0.022222222222222223,0,0,0.022222222222222223,101.02222222222224,0)" xlink:href="#y"/><use transform="matrix(0.022222222222222223,0,0,0.022222222222222223,113.71111111111114,0)" xlink:href="#u"/><use transform="matrix(0.022222222222222223,0,0,0.022222222222222223,123.5777777777778,0)" xlink:href="#z"/><use transform="matrix(0.022222222222222223,0,0,0.022222222222222223,134.42222222222225,0)" xlink:href="#x"/><use transform="matrix(0.022222222222222223,0,0,0.022222222222222223,146.11111111111114,0)" xlink:href="#z"/></g><path d="M45-366c1-94 76-144 179-142 86 0 147 28 182 83l-60 42c-30-38-57-50-124-51-53 0-96 19-97 67 0 47 39 74 116 79 103 10 181 38 180 149C419-37 344 9 233 8 144 8 80-20 40-75l59-42c31 38 65 51 135 51 58 0 107-19 107-71 0-70-49-71-129-80-111-8-167-58-167-149" id="A"/><path d="M289-253H30v-72h259v72" id="B"/><path d="M223-690h86V0h-86v-591l-99 71v-94" id="C"/><path d="M250-698c110-1 198 84 198 199v308C452-76 360 9 250 8 140 9 52-76 52-192v-306c-4-116 88-201 198-200zm0 628c65 1 112-54 112-121v-308c2-67-47-122-112-121-66-1-113 54-113 121v308c-2 67 47 122 113 121" id="D"/><g id="b"><use transform="matrix(0.022222222222222223,0,0,0.022222222222222223,0,0)" xlink:href="#A"/><use transform="matrix(0.022222222222222223,0,0,0.022222222222222223,10.355555555555556,0)" xlink:href="#u"/><use transform="matrix(0.022222222222222223,0,0,0.022222222222222223,20,0)" xlink:href="#B"/><use transform="matrix(0.022222222222222223,0,0,0.022222222222222223,27.08888888888889,0)" xlink:href="#C"/><use transform="matrix(0.022222222222222223,0,0,0.022222222222222223,38.2,0)" xlink:href="#D"/></g><path d="M547-215C530-77 448 4 300 8 108 13 50-143 50-383c0-210 83-315 250-315 149 1 229 86 248 223h-84c-21-92-62-144-164-145-154-2-168 142-164 313 3 144 36 237 164 237 102 0 143-55 164-145h83" id="E"/><path d="M286-256L468 0h-94L239-186 104 0H10l182-256L30-500h94l115 177 115-177h94" id="F"/><g id="c"><use transform="matrix(0.022222222222222223,0,0,0.022222222222222223,0,0)" xlink:href="#E"/><use transform="matrix(0.022222222222222223,0,0,0.022222222222222223,12.844444444444445,0)" xlink:href="#r"/><use transform="matrix(0.022222222222222223,0,0,0.022222222222222223,23.866666666666667,0)" xlink:href="#x"/><use transform="matrix(0.022222222222222223,0,0,0.022222222222222223,35.55555555555556,0)" xlink:href="#v"/><use transform="matrix(0.022222222222222223,0,0,0.022222222222222223,42.55555555555556,0)" xlink:href="#z"/><use transform="matrix(0.022222222222222223,0,0,0.022222222222222223,52.86666666666668,0)" xlink:href="#F"/><use transform="matrix(0.022222222222222223,0,0,0.022222222222222223,63.488888888888894,0)" xlink:href="#v"/></g><path d="M305 0H85v-690h220c190-7 250 145 250 381C555-103 472 0 305 0zm164-309c3-169-10-305-164-303H171v534h134c129-5 161-87 164-231" id="G"/><path d="M481-218C482-85 412 9 281 8c-63 0-108-19-136-58v240H65v-690h80v50c28-39 73-58 136-58 130 0 202 89 200 224v66zm-336-73c0 124 14 228 128 227 106-1 128-100 128-220 0-90-42-152-128-152-83 0-128 59-128 145" id="H"/><g id="d"><use transform="matrix(0.022222222222222223,0,0,0.022222222222222223,0,0)" xlink:href="#G"/><use transform="matrix(0.022222222222222223,0,0,0.022222222222222223,13.444444444444445,0)" xlink:href="#z"/><use transform="matrix(0.022222222222222223,0,0,0.022222222222222223,24.28888888888889,0)" xlink:href="#H"/><use transform="matrix(0.022222222222222223,0,0,0.022222222222222223,35.86666666666667,0)" xlink:href="#w"/><use transform="matrix(0.022222222222222223,0,0,0.022222222222222223,41.2,0)" xlink:href="#u"/><use transform="matrix(0.022222222222222223,0,0,0.022222222222222223,51.06666666666667,0)" xlink:href="#v"/><use transform="matrix(0.022222222222222223,0,0,0.022222222222222223,58.06666666666667,0)" xlink:href="#w"/><use transform="matrix(0.022222222222222223,0,0,0.022222222222222223,63.400000000000006,0)" xlink:href="#r"/><use transform="matrix(0.022222222222222223,0,0,0.022222222222222223,74.42222222222223,0)" xlink:href="#x"/></g><path d="M467-163v-527h86V0h-84L171-522V0H85v-690h82" id="I"/><path d="M219 8C111 9 40-44 40-146c0-95 62-143 187-143h119v-58c-2-74-33-85-111-87-71 1-91 8-120 51l-60-42c37-60 84-82 181-83 128 1 190 38 190 161V0h-80v-49C318-4 291 7 219 8zm0-74c103 2 133-44 127-155-96 5-231-25-226 77 0 52 33 78 99 78" id="J"/><path d="M252-102l152-398h90L294 0h-80L10-500h90" id="K"/><g id="e"><use transform="matrix(0.022222222222222223,0,0,0.022222222222222223,0,0)" xlink:href="#I"/><use transform="matrix(0.022222222222222223,0,0,0.022222222222222223,14.177777777777779,0)" xlink:href="#J"/><use transform="matrix(0.022222222222222223,0,0,0.022222222222222223,25.08888888888889,0)" xlink:href="#q"/><use transform="matrix(0.022222222222222223,0,0,0.022222222222222223,33.84444444444445,0)" xlink:href="#q"/><use transform="matrix(0.022222222222222223,0,0,0.022222222222222223,42.37777777777778,0)" xlink:href="#J"/><use transform="matrix(0.022222222222222223,0,0,0.022222222222222223,53.28888888888889,0)" xlink:href="#v"/><use transform="matrix(0.022222222222222223,0,0,0.022222222222222223,60.28888888888889,0)" xlink:href="#w"/><use transform="matrix(0.022222222222222223,0,0,0.022222222222222223,65.62222222222222,0)" xlink:href="#K"/><use transform="matrix(0.022222222222222223,0,0,0.022222222222222223,76.82222222222222,0)" xlink:href="#z"/></g><path d="M577 0L420-536 264 0h-86L10-690h90l125 542 152-542h85l155 545 125-545h90L664 0h-87" id="L"/><path d="M481-218C482-85 412 9 281 8 217 8 172-9 145-44V0H65v-690h80v240c28-39 73-58 136-58 130 0 202 89 200 224v66zm-336-73c0 124 14 228 128 227 106-1 128-100 128-220 0-90-42-152-128-152-83 0-128 59-128 145" id="M"/><g id="f"><use transform="matrix(0.022222222222222223,0,0,0.022222222222222223,0,0)" xlink:href="#L"/><use transform="matrix(0.022222222222222223,0,0,0.022222222222222223,18.400000000000002,0)" xlink:href="#J"/><use transform="matrix(0.022222222222222223,0,0,0.022222222222222223,29.311111111111114,0)" xlink:href="#q"/><use transform="matrix(0.022222222222222223,0,0,0.022222222222222223,38.06666666666667,0)" xlink:href="#s"/><use transform="matrix(0.022222222222222223,0,0,0.022222222222222223,49.644444444444446,0)" xlink:href="#q"/><use transform="matrix(0.022222222222222223,0,0,0.022222222222222223,58.400000000000006,0)" xlink:href="#r"/><use transform="matrix(0.022222222222222223,0,0,0.022222222222222223,69.42222222222223,0)" xlink:href="#M"/><use transform="matrix(0.022222222222222223,0,0,0.022222222222222223,81.00000000000001,0)" xlink:href="#z"/></g><path d="M154-158L101 0H10l240-690h80L570 0h-91l-53-158H154zm245-78L290-560 181-236h218" id="N"/><g id="g"><use transform="matrix(0.022222222222222223,0,0,0.022222222222222223,0,0)" xlink:href="#N"/><use transform="matrix(0.022222222222222223,0,0,0.022222222222222223,12.88888888888889,0)" xlink:href="#A"/><use transform="matrix(0.022222222222222223,0,0,0.022222222222222223,23.244444444444444,0)" xlink:href="#A"/><use transform="matrix(0.022222222222222223,0,0,0.022222222222222223,33.6,0)" xlink:href="#z"/><use transform="matrix(0.022222222222222223,0,0,0.022222222222222223,44.44444444444444,0)" xlink:href="#v"/></g><path fill="#333" d="M24-248c120-7 223 5 221 122C244-46 201 0 124 0H24v-248zM76-40c74 7 117-18 117-86 0-67-45-88-117-82v168" id="O"/><path fill="#333" d="M185-48c-13 30-37 53-82 52C43 2 14-33 14-96s30-98 90-98c62 0 83 45 84 108H66c0 31 8 55 39 56 18 0 30-7 34-22zm-45-69c5-46-57-63-70-21-2 6-4 13-4 21h74" id="P"/><path fill="#333" d="M135-194c53 0 70 44 70 98 0 56-19 98-73 100-31 1-45-17-59-34 3 33 2 69 2 105H25l-1-265h48c2 10 0 23 3 31 11-24 29-35 60-35zM114-30c33 0 39-31 40-66 0-38-9-64-40-64-56 0-55 130 0 130" id="Q"/><path fill="#333" d="M25-224v-37h50v37H25zM25 0v-190h50V0H25" id="R"/><path fill="#333" d="M190-63c-7 42-38 67-86 67-59 0-84-38-90-98-12-110 154-137 174-36l-49 2c-2-19-15-32-35-32-30 0-35 28-38 64-6 74 65 87 74 30" id="S"/><path fill="#333" d="M115-3C79 11 28 4 28-45v-112H4v-33h27l15-45h31v45h36v33H77v99c-1 23 16 31 38 25v30" id="T"/><path fill="#333" d="M110-194c64 0 96 36 96 99 0 64-35 99-97 99-61 0-95-36-95-99 0-62 34-99 96-99zm-1 164c35 0 45-28 45-65 0-40-10-65-43-65-34 0-45 26-45 65 0 36 10 65 43 65" id="U"/><path fill="#333" d="M135-150c-39-12-60 13-60 57V0H25l-1-190h47c2 13-1 29 3 40 6-28 27-53 61-41v41" id="V"/><g id="h"><use transform="matrix(0.04938271604938272,0,0,0.04938271604938272,0,0)" xlink:href="#O"/><use transform="matrix(0.04938271604938272,0,0,0.04938271604938272,12.790123456790125,0)" xlink:href="#P"/><use transform="matrix(0.04938271604938272,0,0,0.04938271604938272,22.66666666666667,0)" xlink:href="#Q"/><use transform="matrix(0.04938271604938272,0,0,0.04938271604938272,33.48148148148149,0)" xlink:href="#R"/><use transform="matrix(0.04938271604938272,0,0,0.04938271604938272,38.41975308641976,0)" xlink:href="#S"/><use transform="matrix(0.04938271604938272,0,0,0.04938271604938272,48.296296296296305,0)" xlink:href="#T"/><use transform="matrix(0.04938271604938272,0,0,0.04938271604938272,54.17283950617284,0)" xlink:href="#U"/><use transform="matrix(0.04938271604938272,0,0,0.04938271604938272,64.98765432098766,0)" xlink:href="#V"/></g><path fill="#333" d="M137-138c1-29-70-34-71-4 15 46 118 7 119 86 1 83-164 76-172 9l43-7c4 19 20 25 44 25 33 8 57-30 24-41C81-84 22-81 20-136c-2-80 154-74 161-7" id="W"/><g id="i"><use transform="matrix(0.04938271604938272,0,0,0.04938271604938272,0,0)" xlink:href="#O"/><use transform="matrix(0.04938271604938272,0,0,0.04938271604938272,12.790123456790125,0)" xlink:href="#P"/><use transform="matrix(0.04938271604938272,0,0,0.04938271604938272,22.66666666666667,0)" xlink:href="#Q"/><use transform="matrix(0.04938271604938272,0,0,0.04938271604938272,33.48148148148149,0)" xlink:href="#R"/><use transform="matrix(0.04938271604938272,0,0,0.04938271604938272,38.41975308641976,0)" xlink:href="#S"/><use transform="matrix(0.04938271604938272,0,0,0.04938271604938272,48.296296296296305,0)" xlink:href="#T"/><use transform="matrix(0.04938271604938272,0,0,0.04938271604938272,54.17283950617284,0)" xlink:href="#W"/></g><path fill="#333" d="M135-194c87-1 58 113 63 194h-50c-7-57 23-157-34-157-59 0-34 97-39 157H25l-1-190h47c2 12-1 28 3 38 12-26 28-41 61-42" id="X"/><g id="j"><use transform="matrix(0.04938271604938272,0,0,0.04938271604938272,0,0)" xlink:href="#O"/><use transform="matrix(0.04938271604938272,0,0,0.04938271604938272,12.790123456790125,0)" xlink:href="#P"/><use transform="matrix(0.04938271604938272,0,0,0.04938271604938272,22.66666666666667,0)" xlink:href="#Q"/><use transform="matrix(0.04938271604938272,0,0,0.04938271604938272,33.48148148148149,0)" xlink:href="#R"/><use transform="matrix(0.04938271604938272,0,0,0.04938271604938272,38.41975308641976,0)" xlink:href="#S"/><use transform="matrix(0.04938271604938272,0,0,0.04938271604938272,48.296296296296305,0)" xlink:href="#T"/><use transform="matrix(0.04938271604938272,0,0,0.04938271604938272,54.17283950617284,0)" xlink:href="#R"/><use transform="matrix(0.04938271604938272,0,0,0.04938271604938272,59.111111111111114,0)" xlink:href="#U"/><use transform="matrix(0.04938271604938272,0,0,0.04938271604938272,69.92592592592594,0)" xlink:href="#X"/></g><path d="M300-698c192 0 250 151 250 391C550-97 467 8 300 8 108 8 50-143 50-383c0-210 83-315 250-315zm0 78c-154-3-168 142-164 313 3 144 36 235 164 237 154 3 168-142 164-313-3-144-36-235-164-237" id="Y"/><path d="M0 116c75-1 85-30 85-100v-516h80V36c-2 115-46 153-165 154v-74zm170-716H80v-90h90v90" id="Z"/><g id="k"><use transform="matrix(0.022222222222222223,0,0,0.022222222222222223,0,0)" xlink:href="#I"/><use transform="matrix(0.022222222222222223,0,0,0.022222222222222223,14.177777777777779,0)" xlink:href="#J"/><use transform="matrix(0.022222222222222223,0,0,0.022222222222222223,25.08888888888889,0)" xlink:href="#q"/><use transform="matrix(0.022222222222222223,0,0,0.022222222222222223,33.84444444444445,0)" xlink:href="#q"/><use transform="matrix(0.022222222222222223,0,0,0.022222222222222223,42.37777777777778,0)" xlink:href="#J"/><use transform="matrix(0.022222222222222223,0,0,0.022222222222222223,53.28888888888889,0)" xlink:href="#v"/><use transform="matrix(0.022222222222222223,0,0,0.022222222222222223,60.28888888888889,0)" xlink:href="#w"/><use transform="matrix(0.022222222222222223,0,0,0.022222222222222223,65.62222222222222,0)" xlink:href="#K"/><use transform="matrix(0.022222222222222223,0,0,0.022222222222222223,76.82222222222222,0)" xlink:href="#z"/><use transform="matrix(0.022222222222222223,0,0,0.022222222222222223,87.66666666666667,0)" xlink:href="#Y"/><use transform="matrix(0.022222222222222223,0,0,0.022222222222222223,101,0)" xlink:href="#M"/><use transform="matrix(0.022222222222222223,0,0,0.022222222222222223,112.57777777777778,0)" xlink:href="#Z"/><use transform="matrix(0.022222222222222223,0,0,0.022222222222222223,117.80000000000001,0)" xlink:href="#z"/><use transform="matrix(0.022222222222222223,0,0,0.022222222222222223,128.64444444444445,0)" xlink:href="#u"/><use transform="matrix(0.022222222222222223,0,0,0.022222222222222223,138.51111111111112,0)" xlink:href="#v"/></g><path d="M267-434c-71-1-122 51-122 122V0H65v-690h80v239c30-42 62-56 134-57 121 1 182 70 182 196V0h-80v-311c0-82-38-123-114-123" id="aa"/><g id="l"><use transform="matrix(0.022222222222222223,0,0,0.022222222222222223,0,0)" xlink:href="#E"/><use transform="matrix(0.022222222222222223,0,0,0.022222222222222223,12.844444444444445,0)" xlink:href="#aa"/><use transform="matrix(0.022222222222222223,0,0,0.022222222222222223,24.533333333333335,0)" xlink:href="#J"/><use transform="matrix(0.022222222222222223,0,0,0.022222222222222223,35.44444444444444,0)" xlink:href="#q"/><use transform="matrix(0.022222222222222223,0,0,0.022222222222222223,43.977777777777774,0)" xlink:href="#J"/><use transform="matrix(0.022222222222222223,0,0,0.022222222222222223,54.88888888888888,0)" xlink:href="#u"/><use transform="matrix(0.022222222222222223,0,0,0.022222222222222223,64.75555555555556,0)" xlink:href="#v"/><use transform="matrix(0.022222222222222223,0,0,0.022222222222222223,71.75555555555556,0)" xlink:href="#z"/><use transform="matrix(0.022222222222222223,0,0,0.022222222222222223,82.60000000000001,0)" xlink:href="#q"/></g><g id="m"><use transform="matrix(0.022222222222222223,0,0,0.022222222222222223,0,0)" xlink:href="#A"/><use transform="matrix(0.022222222222222223,0,0,0.022222222222222223,10.355555555555556,0)" xlink:href="#u"/><use transform="matrix(0.022222222222222223,0,0,0.022222222222222223,20,0)" xlink:href="#B"/><use transform="matrix(0.022222222222222223,0,0,0.022222222222222223,27.08888888888889,0)" xlink:href="#C"/><use transform="matrix(0.022222222222222223,0,0,0.022222222222222223,38.2,0)" xlink:href="#C"/></g><path fill="#333" d="M85 4C-2 5 27-109 22-190h50c7 57-23 150 33 157 60-5 35-97 40-157h50l1 190h-47c-2-12 1-28-3-38-12 25-28 42-61 42" id="ab"/><g id="n"><use transform="matrix(0.04938271604938272,0,0,0.04938271604938272,0,0)" xlink:href="#ab"/><use transform="matrix(0.04938271604938272,0,0,0.04938271604938272,10.814814814814815,0)" xlink:href="#W"/><use transform="matrix(0.04938271604938272,0,0,0.04938271604938272,20.69135802469136,0)" xlink:href="#P"/><use transform="matrix(0.04938271604938272,0,0,0.04938271604938272,30.567901234567906,0)" xlink:href="#W"/></g><path fill="#333" d="M67-125c0 53 21 87 73 88 37 1 54-22 65-47l45 17C233-25 199 4 140 4 58 4 20-42 15-125 8-235 124-281 211-232c18 10 29 29 36 50l-46 12c-8-25-30-41-62-41-52 0-71 34-72 86" id="ac"/><path fill="#333" d="M144 0l-44-69L55 0H2l70-98-66-92h53l41 62 40-62h54l-67 91 71 99h-54" id="ad"/><g id="o"><use transform="matrix(0.04938271604938272,0,0,0.04938271604938272,0,0)" xlink:href="#ac"/><use transform="matrix(0.04938271604938272,0,0,0.04938271604938272,12.790123456790125,0)" xlink:href="#U"/><use transform="matrix(0.04938271604938272,0,0,0.04938271604938272,23.60493827160494,0)" xlink:href="#X"/><use transform="matrix(0.04938271604938272,0,0,0.04938271604938272,34.41975308641975,0)" xlink:href="#T"/><use transform="matrix(0.04938271604938272,0,0,0.04938271604938272,40.2962962962963,0)" xlink:href="#P"/><use transform="matrix(0.04938271604938272,0,0,0.04938271604938272,50.17283950617284,0)" xlink:href="#ad"/><use transform="matrix(0.04938271604938272,0,0,0.04938271604938272,60.04938271604939,0)" xlink:href="#T"/></g></defs></g></svg>