<svg xmlns="http://www.w3.org/2000/svg" xmlns:xlink="http://www.w3.org/1999/xlink" xmlns:lucid="lucid" width="1442" height="1162"><g transform="translate(681.200362874244 -5118.999999973453)" lucid:page-tab-id="0_0"><path d="M-160 5126a6 6 0 0 1 6-6H-6a6 6 0 0 1 6 6v148a6 6 0 0 1-6 6h-148a6 6 0 0 1-6-6z" stroke="#000" stroke-width="2" fill="#fff"/><use xlink:href="#a" transform="matrix(1,0,0,1,-155,5125) translate(-3.4777777777777885 63.955555555555556)"/><use xlink:href="#b" transform="matrix(1,0,0,1,-155,5125) translate(50.34444444444444 92.3111111111111)"/><path d="M-320.2 5366a6 6 0 0 1 6-6h148a6 6 0 0 1 6 6v148a6 6 0 0 1-6 6h-148a6 6 0 0 1-6-6z" stroke="#000" stroke-width="2" fill="#fff"/><use xlink:href="#c" transform="matrix(1,0,0,1,-315.2003628476964,5365) translate(39.75555555555555 78.2486111111111)"/><path d="M239.8 5366a6 6 0 0 1 6-6h148a6 6 0 0 1 6 6v148a6 6 0 0 1-6 6h-148a6 6 0 0 1-6-6z" stroke="#000" stroke-width="2" fill="#fff"/><use xlink:href="#c" transform="matrix(1,0,0,1,244.7996371523036,5365) translate(39.75555555555555 78.2486111111111)"/><path d="M-160 5846a6 6 0 0 1 6-6H-6a6 6 0 0 1 6 6v148a6 6 0 0 1-6 6h-148a6 6 0 0 1-6-6z" stroke="#000" stroke-width="2" fill="#fff"/><use xlink:href="#c" transform="matrix(1,0,0,1,-155,5845) translate(39.75555555555555 78.2486111111111)"/><path d="M79.8 5846a6 6 0 0 1 6-6h148a6 6 0 0 1 6 6v148a6 6 0 0 1-6 6h-148a6 6 0 0 1-6-6z" stroke="#000" stroke-width="2" fill="#fff"/><use xlink:href="#c" transform="matrix(1,0,0,1,84.7996371523036,5845) translate(39.75555555555555 78.2486111111111)"/><path d="M-320 5606a6 6 0 0 1 6-6h148a6 6 0 0 1 6 6v148a6 6 0 0 1-6 6h-148a6 6 0 0 1-6-6z" stroke="#000" stroke-width="2" fill="#fff"/><use xlink:href="#d" transform="matrix(1,0,0,1,-315,5605) translate(31.944444444444443 78.2486111111111)"/><path d="M239.8 5606a6 6 0 0 1 6-6h148a6 6 0 0 1 6 6v148a6 6 0 0 1-6 6h-148a6 6 0 0 1-6-6z" stroke="#000" stroke-width="2" fill="#fff"/><use xlink:href="#d" transform="matrix(1,0,0,1,244.7996371523036,5605) translate(31.944444444444443 78.2486111111111)"/><path d="M599.8 5486a6 6 0 0 1 6-6h148a6 6 0 0 1 6 6v148a6 6 0 0 1-6 6h-148a6 6 0 0 1-6-6z" stroke="#000" stroke-width="2" fill="#fff"/><use xlink:href="#e" transform="matrix(1,0,0,1,604.7996371523036,5485) translate(31.166666666666664 64.1861111111111)"/><use xlink:href="#f" transform="matrix(1,0,0,1,604.7996371523036,5485) translate(29.07777777777777 92.54166666666666)"/><path d="M599.8 5726a6 6 0 0 1 6-6h148a6 6 0 0 1 6 6v148a6 6 0 0 1-6 6h-148a6 6 0 0 1-6-6z" stroke="#000" stroke-width="2" fill="#fff"/><use xlink:href="#g" transform="matrix(1,0,0,1,604.7996371523036,5725) translate(49.27777777777778 78.2486111111111)"/><path d="M519.52 5786.13l5.82 5.24 4.92 4.08 4.45 3.38 4.16 2.9 3.98 2.5 3.86 2.24 3.8 2 3.8 1.77 3.8 1.6 3.86 1.44 3.94 1.28 4.05 1.13 4.2.97 4.4.84 1.96.3-.28 1.98-2-.3-4.48-.85-4.28-1-4.14-1.16-4.02-1.3-3.94-1.47-3.88-1.63-3.87-1.82-3.87-2.03-3.93-2.27-4.04-2.57-4.23-2.94-4.5-3.42-5-4.14-5.9-5.32-9.3-9.6h2.8zm-53.45-51.77l4.5 3.43 5 4.13 5.88 5.3 8.18 8.04 1.33 1.37h-2.8l-8.08-7.95-5.82-5.26-4.92-4.08-4.45-3.38-2.7-1.86h3.5zm-59.6-20.58l5.28.34 4.95.52 4.7.7 4.46.84 4.28 1 4.14 1.16 4.02 1.3 3.94 1.47 3.88 1.64 3.87 1.82 3.87 2.03 3.93 2.26 1.46.93v2.35l-2.5-1.58-3.86-2.23-3.8-2-3.8-1.77-3.8-1.6-3.86-1.44-3.94-1.28-4.05-1.13-4.2-.98-4.4-.84-4.6-.68-4.87-.5-5.2-.34-4.6-.1.04-2z" stroke="#000" stroke-width=".05"/><path d="M401.85 5713.7l-.04 2-1-.03v-2z"/><path d="M401.87 5713.66l-.04 2.05h-1.06v-2.06zm-1.05 1.98l.96.02.04-1.95h-1z" stroke="#000" stroke-width=".05"/><path d="M595.57 5819.9l-14.56 3.6.68-9.26z"/><path d="M598.8 5820.14l-18.9 4.64.9-12zm-16.7 2.05l10.25-2.53-9.77-3.98z" stroke="#000" stroke-width=".05"/><use xlink:href="#h" transform="matrix(1,0,0,1,463.9488691428659,5756.640937132781) translate(0 14.222222222222223)"/><path d="M490.7 5661.06l-8.75 11.1-6 6.97-4.95 5.28-4.38 4.3-4.03 3.64-3.8 3.12-3.6 2.74-3.47 2.42-3.4 2.16-3.36 1.94-3.32 1.74-3.32 1.56-3.33 1.4-3.38 1.25-3.42 1.12-3.5.96-3.6.85-3.7.72-3.87.57-4.03.4-4.23.27-3.45.08-.04-2 3.4-.07 4.15-.27 3.95-.4 3.77-.56 3.64-.7 3.5-.8 3.42-.97 3.35-1.1 3.3-1.2 3.25-1.38 3.24-1.54 3.25-1.7 3.3-1.9 3.32-2.1 3.4-2.38 3.55-2.68 3.72-3.08 3.95-3.57 4.32-4.24 4.9-5.2 5.93-6.9 8.73-11.06 1.48-1.96h2.5zm43.65-54.06l-4.32 4.24-4.9 5.23-5.93 6.88-9.97 13.2h-2.5l10.9-14.46 6-6.97 4.97-5.28 4.38-4.3 2.12-1.9h3zm46.24-24.72l-1.7.32-3.5.83-3.42.95-3.35 1.1-3.3 1.22-3.25 1.36-3.24 1.53-3.25 1.7-3.3 1.88-3.32 2.12-3.4 2.37-3.55 2.7-1.97 1.62v-2.6l.72-.6 3.6-2.75 3.5-2.42 3.4-2.16 3.35-1.93 3.32-1.74 3.32-1.56 3.33-1.4 3.37-1.26 3.43-1.1 3.5-1 3.6-.83 1.72-.33z" stroke="#000" stroke-width=".05"/><path d="M401.85 5715.65l-1.05.02v-2l1-.02z"/><path d="M401.87 5715.67l-1.1.02v-2.06l1.06-.02zm-1.05-1.98v1.94l1-.02-.04-1.95z" stroke="#000" stroke-width=".05"/><path d="M595.58 5579.9l-13.78 5.93-.86-9.23z"/><path d="M598.8 5579.6l-17.87 7.7-1.1-11.98zm-16.13 4.76l9.7-4.17-10.3-2.33z" stroke="#000" stroke-width=".05"/><use xlink:href="#i" transform="matrix(1,0,0,1,467.8931552097924,5636.550100698287) translate(0 14.222222222222223)"/><path d="M536.46 5771.17l3.78 3.7 3.55 3.2 3.36 2.8 3.24 2.46 3.14 2.18 3.07 1.96 3.04 1.75 3 1.58 3 1.4 3 1.27 3 1.12 3.08 1 3.12.87 3.2.75 3.28.62 3.4.5 3.52.37 3.68.22 2.9.06-.04 2-2.94-.06-3.77-.24-3.6-.38-3.5-.5-3.35-.65-3.28-.77-3.2-.9-3.14-1.02-3.1-1.15-3.08-1.28-3.07-1.45-3.07-1.6-3.1-1.8-3.15-2-3.2-2.23-3.3-2.5-3.45-2.85-3.6-3.26-3.03-2.96v-2.86zm-21.42-26.62l7.22 9.97 1.67 2.12h-2.54l-.74-.9-7.26-10.05-7.8-11.58h2.4zm-92.78-96.26l3.2.88 3.14 1.02 3.1 1.16 3.08 1.3 3.07 1.44 3.07 1.6 3.1 1.8 3.15 2 3.2 2.22 3.3 2.5 3.45 2.85 3.6 3.26 3.85 3.77 4.18 4.45 4.68 5.43 5.52 6.98 14.7 21.83h-2.4l-13.92-20.66-5.44-6.9-4.64-5.35-4.12-4.4-3.78-3.72-3.55-3.2-3.36-2.78-3.24-2.46-3.14-2.2-3.07-1.94-3.04-1.74-3-1.57-3-1.42-3-1.26-3.02-1.13-3.06-1-3.12-.87-2.82-.67.45-1.94z" stroke="#000" stroke-width=".05"/><path d="M598.8 5799v2l-1.05-.02.04-2z"/><path d="M598.83 5798.98v2.05l-1.1-.03.04-2.05zm-1.05 1.97l1 .03v-1.96l-.96-.02z" stroke="#000" stroke-width=".05"/><path d="M417.72 5653.1l-13.7-6.1 14.67-3.12z"/><path d="M418.57 5654.57l-17.77-7.9 19.03-4.06zm-11.33-7.23l9.63 4.3.68-6.5z" stroke="#000" stroke-width=".05"/><use xlink:href="#j" transform="matrix(1,0,0,1,459.25557574730254,5712.786168777535) translate(0 14.222222222222223)"/><path d="M480.25 5614.7l-5.66 5.1-4.88 4.04-4.43 3.37-4.17 2.9-4 2.53-3.88 2.25-3.84 2-3.82 1.8-3.84 1.63-3.9 1.46-3.98 1.3-4.1 1.13-4.23 1-4.42.83-1.72.25-.3-1.97 1.7-.24 4.33-.83 4.17-.97 4-1.13 3.9-1.26 3.83-1.42 3.77-1.6 3.75-1.75 3.76-1.97 3.82-2.2 3.92-2.5 4.1-2.84 4.36-3.33 4.8-3.97 5.58-5.03 9.22-9.63h2.77zm117.57-74.18l-4.52.1-5.12.3-4.8.52-4.56.67-4.33.83-4.17.98-4 1.13-3.9 1.27-3.83 1.42-3.77 1.58-3.75 1.76-3.76 1.97-3.82 2.2-3.92 2.5-4.1 2.85-4.36 3.3-4.8 4-5.6 5.03-7.4 7.3-2.03 2.1h-2.78l3.37-3.5 7.46-7.35 5.65-5.1 4.88-4.03 4.43-3.36 4.17-2.9 4-2.53 3.88-2.25 3.84-2 3.8-1.8 3.86-1.62 3.9-1.45 3.98-1.3 4.1-1.13 4.23-1 4.42-.84 4.62-.68 4.9-.5 5.2-.34 4.56-.08z" stroke="#000" stroke-width=".05"/><path d="M598.8 5540.5l-1 .02-.05-2 1.05-.03z"/><path d="M598.83 5540.52l-1.06.02-.04-2.05 1.1-.03zm-1.05-1.98l.04 1.95.95-.03v-1.95z" stroke="#000" stroke-width=".05"/><path d="M418.6 5650l-14.57-3.57 13.88-5.7z"/><path d="M419.7 5651.3l-18.9-4.63 18-7.37zm-12.45-5.1l10.25 2.5-.5-6.5z" stroke="#000" stroke-width=".05"/><use xlink:href="#j" transform="matrix(1,0,0,1,459.3155553329746,5582.304333968058) translate(0 14.222222222222223)"/><path d="M-680.2 5486a6 6 0 0 1 6-6h148a6 6 0 0 1 6 6v148a6 6 0 0 1-6 6h-148a6 6 0 0 1-6-6z" stroke="#000" stroke-width="2" fill="#fff"/><use xlink:href="#k" transform="matrix(1,0,0,1,-675.2003628476964,5485) translate(2.24444444444444 78.2486111111111)"/><path d="M-680.2 5726a6 6 0 0 1 6-6h148a6 6 0 0 1 6 6v148a6 6 0 0 1-6 6h-148a6 6 0 0 1-6-6z" stroke="#000" stroke-width="2" fill="#fff"/><use xlink:href="#g" transform="matrix(1,0,0,1,-675.2003628476964,5725) translate(49.27777777777778 78.2486111111111)"/><path d="M-437.77 5784.74l-6 6.4-5 4.9-4.42 4-4.08 3.38-3.86 2.93-3.7 2.58-3.6 2.3-3.55 2.03-3.5 1.84-3.5 1.65-3.53 1.48-3.57 1.33-3.63 1.18-3.73 1.04-3.83.9-3.3.63-.38-1.96 3.27-.62 3.75-.88 3.64-1.02 3.54-1.15 3.5-1.3 3.44-1.45 3.43-1.6 3.44-1.8 3.47-2 3.55-2.26 3.63-2.53 3.8-2.88 4.02-3.33 4.37-3.94 4.93-4.83 5.93-6.33 8.98-10.9h2.6zm56.1-62.7l-4.03 3.33-4.37 3.94-4.93 4.84-5.93 6.33-8.72 10.15-.47.57h-2.6l1.54-1.87 8.76-10.2 6-6.4 4.98-4.88 4.43-4 2.68-2.22h3.18zm59.7-21.02l-3.8.08-4.5.28-4.27.45-4.06.6-3.9.74-3.75.88-3.64 1.02-3.54 1.15-3.5 1.3-3.44 1.45-3.43 1.6-3.44 1.8-3.47 2-3.55 2.26-3.63 2.53-1.9 1.44v-2.5l.72-.56 3.7-2.58 3.6-2.3 3.55-2.03 3.5-1.84 3.5-1.66 3.53-1.48 3.57-1.33 3.63-1.18 3.73-1.04 3.83-.9 3.96-.74 4.15-.62 4.35-.45 4.58-.3 3.85-.08z" stroke="#000" stroke-width=".05"/><path d="M-321 5701l-1 .02-.05-2 1.05-.02z"/><path d="M-320.98 5701.02l-1.05.03-.05-2.05 1.1-.03zm-1.04-1.97l.04 1.95.96-.02v-1.95z" stroke="#000" stroke-width=".05"/><path d="M-501.37 5827.03l-14.6-3.4 13.82-5.84z"/><path d="M-500.26 5828.3l-18.94-4.4 17.93-7.57zm-12.5-4.96l10.28 2.4-.55-6.5z" stroke="#000" stroke-width=".05"/><use xlink:href="#h" transform="matrix(1,0,0,1,-456.1578908597028,5751.189917011873) translate(0 14.222222222222223)"/><path d="M-456.16 5753.97l-3.72 3.08-3.7 2.8-3.55 2.48-3.47 2.2-3.4 1.97-3.4 1.77-3.38 1.6-3.4 1.42-3.43 1.27-3.5 1.14-3.6 1-3.66.87-2.25.43-.4-1.97 2.22-.42 3.6-.83 3.5-.98 3.4-1.12 3.37-1.25 3.3-1.4 3.32-1.55 3.3-1.73 3.35-1.93 3.4-2.16 3.5-2.43 3.6-2.75 3.82-3.15 1.14-1.04zm20.65-21.53l-6.57 7.62-5.23 5.58-4.56 4.47-1.2 1.1h-3l2.83-2.55 4.5-4.4 5.17-5.53 6.5-7.55 7.4-9.54h2.5zm113.52-86.1l-3.54.1-4.26.26-4.05.42-3.87.57-3.72.7-3.6.84-3.5.98-3.4 1.1-3.37 1.26-3.3 1.4-3.32 1.55-3.3 1.73-3.35 1.93-3.4 2.15-3.5 2.43-3.6 2.75-3.82 3.15-4.07 3.68-4.5 4.4-5.17 5.53-6.5 7.54-7.43 9.45h-2.55l8.43-10.73 6.57-7.62 5.23-5.58 4.56-4.46 4.14-3.73 3.88-3.2 3.7-2.8 3.55-2.48 3.46-2.22 3.4-1.97 3.4-1.76 3.38-1.6 3.4-1.42 3.43-1.28 3.5-1.14 3.6-1 3.66-.86 3.8-.72 3.96-.6 4.13-.42 4.35-.27 3.58-.08z" stroke="#000" stroke-width=".05"/><path d="M-321 5646.33l-1 .02-.05-2 1.05-.02z"/><path d="M-320.98 5646.36l-1.05.02-.05-2.05 1.1-.02zm-1.04-1.98l.04 1.95.96-.02v-1.94z" stroke="#000" stroke-width=".05"/><path d="M-501.35 5779.72l-14.63-3.33 13.8-5.9z"/><path d="M-500.23 5781l-18.97-4.32 17.9-7.66zm-12.52-4.9l10.28 2.34-.6-6.5z" stroke="#000" stroke-width=".05"/><use xlink:href="#j" transform="matrix(1,0,0,1,-460.5299682264006,5700.294538441433) translate(0 14.222222222222223)"/><path d="M-409.7 5657.1l8.64 8.48 5.97 5.4 5.02 4.13 4.5 3.43 4.2 2.92 4 2.54 3.88 2.24 3.83 2 3.82 1.8 3.83 1.6 3.88 1.45 3.97 1.28 4.08 1.14 4.25 1 4.4.83 4.66.7 4.92.5 5.24.33 4.66.1-.04 2-4.7-.1-5.32-.33-5-.53-4.73-.7-4.5-.85-4.3-1-4.18-1.18-4.05-1.32-3.96-1.47-3.9-1.64-3.9-1.83-3.9-2.04-3.96-2.3-4.08-2.6-4.26-2.95-4.57-3.47-5.07-4.2-6.03-5.44-8.68-8.54-28.05-28.76-1-.9h2.9zm-88.73-61.1l4.5.86 4.3 1.02 4.18 1.16 4.04 1.3 3.96 1.5 3.9 1.63 3.9 1.83 3.9 2.04.26.16h-4.28l-.78-.4-3.8-1.8-3.84-1.6-3.88-1.46-3.97-1.3-4.08-1.13-4.25-.98-4.4-.84-2.16-.32.28-1.98z" stroke="#000" stroke-width=".05"/><path d="M-321 5699v2l-1.05-.02.04-2z"/><path d="M-320.98 5698.98v2.05l-1.1-.03.05-2.05zm-1.04 1.97l1 .03v-1.96l-.96-.02z" stroke="#000" stroke-width=".05"/><path d="M-502.08 5601.23l-13.9-5.66 14.57-3.6z"/><path d="M-501.18 5602.67l-18.02-7.34 18.9-4.65zm-11.56-6.87l9.76 3.98.47-6.5z" stroke="#000" stroke-width=".05"/><use xlink:href="#h" transform="matrix(1,0,0,1,-487.1222849655045,5607.4967185444475) translate(0 14.222222222222223)"/><path d="M-437.84 5560.43l28.32 34.4 8.66 10.07 5.92 6.33 4.92 4.82 4.36 3.93 4.02 3.33 3.8 2.9 3.63 2.52 3.52 2.24 3.47 2 3.42 1.8 3.43 1.6 3.45 1.46 3.48 1.3 3.55 1.15 3.64 1.02 3.75.86 3.9.75 4.05.6 4.26.45 4.5.28 3.8.08-.05 2-3.84-.07-4.58-.28-4.34-.46-4.14-.62-3.97-.76-3.83-.9-3.7-1.03-3.64-1.2-3.57-1.32-3.52-1.48-3.5-1.65-3.5-1.84-3.55-2.03-3.62-2.3-3.7-2.56-3.86-2.92-4.1-3.4-4.4-3.98-5-4.88-5.97-6.38-8.7-10.12-28.3-34.37-2-2.12h2.75zm-59.47-37.9l3.82.9 3.72 1.05 3.63 1.18 3.57 1.33 3.52 1.47 3.5 1.65 3.52 1.83 3.53 2.05 3.62 2.28 2.9 2.02h-3.5l-.5-.35-3.54-2.24-3.47-2-3.42-1.8-3.43-1.6-3.45-1.45-3.48-1.3-3.55-1.15-3.64-1.02-3.75-.88-3.26-.62.38-1.96z" stroke="#000" stroke-width=".05"/><path d="M-321 5644.33v2l-1.05-.02.04-2z"/><path d="M-320.98 5644.3v2.06l-1.1-.02.05-2.05zm-1.04 2h1v-1.94l-.96-.02z" stroke="#000" stroke-width=".05"/><path d="M-502.15 5527.44l-13.83-5.83 14.6-3.4z"/><path d="M-501.27 5528.9l-17.93-7.57 18.94-4.42zm-11.48-7.02l9.72 4.1.55-6.5z" stroke="#000" stroke-width=".05"/><use xlink:href="#j" transform="matrix(1,0,0,1,-490.8954323172848,5538.2946306737695) translate(0 14.222222222222223)"/><path d="M-40 6126a6 6 0 0 1 6-6h148a6 6 0 0 1 6 6v148a6 6 0 0 1-6 6H-34a6 6 0 0 1-6-6z" stroke="#000" stroke-width="2" fill="#fff"/><use xlink:href="#d" transform="matrix(1,0,0,1,-35,6125) translate(31.944444444444443 78.2486111111111)"/><path d="M320 6126a6 6 0 0 1 6-6h148a6 6 0 0 1 6 6v148a6 6 0 0 1-6 6H326a6 6 0 0 1-6-6z" stroke="#000" stroke-width="2" fill="#fff"/><use xlink:href="#l" transform="matrix(1,0,0,1,325,6125) translate(29.322222222222216 78.2486111111111)"/><path d="M-399.8 6126a6 6 0 0 1 6-6h148a6 6 0 0 1 6 6v148a6 6 0 0 1-6 6h-148a6 6 0 0 1-6-6z" stroke="#000" stroke-width="2" fill="#fff"/><use xlink:href="#g" transform="matrix(1,0,0,1,-394.7996371523036,6125) translate(49.27777777777778 78.2486111111111)"/><path d="M80 5126a6 6 0 0 1 6-6h148a6 6 0 0 1 6 6v148a6 6 0 0 1-6 6H86a6 6 0 0 1-6-6z" stroke="#000" stroke-width="2" fill="#fff"/><use xlink:href="#a" transform="matrix(1,0,0,1,85,5125) translate(-3.4777777777777885 63.955555555555556)"/><use xlink:href="#m" transform="matrix(1,0,0,1,85,5125) translate(50.34444444444444 92.3111111111111)"/><path d="M270.5 5326.78l12.73 3.8 7.83 2.73 5.5 2.17 4.1 1.83 3.2 1.58 2.55 1.4 2.1 1.26 1.73 1.15 1.45 1.05 1.24.98 1.06.9.92.87.8.82.7.78.6.74.56.72.48.7.43.66.38.66.33.64.3.63.26.62.23.6.2.62.16.6.15.6.1.6.1.62.07.62v.2l-2 .12v-.15l-.05-.53-.08-.52-.1-.53-.12-.52-.15-.53-.17-.53-.2-.53-.23-.54-.26-.55-.3-.56-.34-.58-.4-.6-.42-.63-.5-.65-.56-.68-.64-.7-.74-.77-.86-.8-1-.86-1.17-.93-1.4-1-1.64-1.1-2.02-1.22-2.47-1.37-3.12-1.54-4.02-1.78-5.42-2.14-7.74-2.7-12.66-3.78-1.43-.37v-2.07zm-99.8-31.1l1.67 1.1 2.02 1.2 2.47 1.37 3.12 1.54 4.02 1.78 5.42 2.14 7.73 2.68 14.22 3.74v2.07l-14.8-3.9-7.86-2.7-5.5-2.17-4.1-1.83-3.2-1.58-2.55-1.4-2.1-1.26-1.73-1.15-.64-.46 1.17-1.62z" stroke="#3a414a" stroke-width=".05" fill="#3a414a"/><path d="M320.8 5359h-2l-.02-1 2-.05z" fill="#3a414a"/><path d="M320.82 5359.02h-2.05l-.02-1.05 2.05-.04zm-2.02-1l.02.95h1.95l-.02-1z" stroke="#3a414a" stroke-width=".05" fill="#3a414a"/><path d="M173.28 5293.3l-7.84 4.97-3.7-14.54z" fill="#3a414a"/><path d="M174.97 5293.42l-10.16 6.43L160 5281zm-8.9 3.27l5.5-3.5-8.1-6.73z" stroke="#3a414a" stroke-width=".05" fill="#3a414a"/><use xlink:href="#n" transform="matrix(1,0,0,1,211.39234966455598,5309.116234185148) translate(0 14.222222222222223)"/><path d="M-240.16 5358v-.17l.07-.58.1-.56.1-.58.13-.56.16-.57.18-.58.2-.57.25-.58.28-.6.33-.6.35-.6.4-.65.46-.66.52-.68.6-.7.66-.75.77-.8.88-.82 1.03-.88 1.2-.95 1.43-1.03 1.7-1.12 2.03-1.24 2.52-1.38 3.15-1.56 4.06-1.8 5.44-2.15 7.76-2.7 12.62-3.78 73.98-19.42 7.76-2.7 5.45-2.14 4.07-1.8 3.15-1.56 2.52-1.38 2.04-1.24 1.7-1.12.6-.44" stroke="#3a414a" stroke-width="2" stroke-linejoin="round" fill="none"/><path d="M-239.18 5358l-.02 1h-2l.02-1.05z" stroke="#3a414a" stroke-width=".05" fill="#3a414a"/><path d="M-81.73 5283.73l-3.73 14.53-7.83-4.96z" stroke="#3a414a" stroke-width="2" fill="#3a414a"/><path d="M-240 5598v-58.5" stroke="#3a414a" stroke-width="2" stroke-linejoin="round" fill="none"/><path d="M-239 5599h-2v-1.03h2z" stroke="#3a414a" stroke-width=".05" fill="#3a414a"/><path d="M-240 5524.24l4.63 14.26h-9.26z" stroke="#3a414a" stroke-width="2" fill="#3a414a"/><path d="M319.8 5598v-58.5" stroke="#3a414a" stroke-width="2" stroke-linejoin="round" fill="none"/><path d="M320.8 5599h-2v-1.03h2z" stroke="#3a414a" stroke-width=".05" fill="#3a414a"/><path d="M319.8 5524.24l4.63 14.26h-9.27z" stroke="#3a414a" stroke-width="2" fill="#3a414a"/><path d="M219.52 5806.13l-9.96 2.6-12.6 3.8-7.75 2.67-5.4 2.14-4.03 1.8-3.12 1.53-2.48 1.36-2 1.22-1.66 1.1-1.38 1-1.17.93-1 .86-.85.8-.74.76-.65.7-.55.7-.5.64-.43.63-.38.6-.34.58-.3.56-.25.57-.23.54-.2.55-.17.52-.15.53-.12.52-.1.53-.08.53-.06.53v.16l-2-.12v-.2l.08-.6.1-.63.1-.6.14-.6.17-.6.2-.6.23-.63.26-.62.3-.63.33-.64.38-.65.43-.67.48-.7.54-.7.62-.75.7-.77.8-.82.92-.85 1.06-.9 1.23-1 1.46-1.04 1.73-1.14 2.08-1.26 2.55-1.4 3.2-1.58 4.1-1.82 5.48-2.17 7.83-2.7 12.7-3.8 10.5-2.77zm91.35-29.3l-.63.46-1.73 1.14-2.07 1.26-2.56 1.4-3.2 1.58-4.1 1.82-5.5 2.17-7.82 2.72-23.3 6.1v-2.06l22.72-5.97 7.72-2.67 5.4-2.14 4.03-1.8 3.12-1.53 2.48-1.36 2-1.22 1.66-1.1.6-.43z" stroke="#3a414a" stroke-width=".05" fill="#3a414a"/><path d="M160.82 5838l-.02 1h-2l.02-1.05z" fill="#3a414a"/><path d="M160.85 5837.97l-.03 1.05h-2.05l.03-1.1zm-2.03 1h1.96v-.95l-1.93-.04z" stroke="#3a414a" stroke-width=".05" fill="#3a414a"/><path d="M314.35 5778.27l-7.83-4.97 11.55-9.57z" fill="#3a414a"/><path d="M314.98 5779.85l-10.16-6.44 14.98-12.4zm-6.76-6.65l5.5 3.48 2.62-10.2z" stroke="#3a414a" stroke-width=".05" fill="#3a414a"/><use xlink:href="#o" transform="matrix(1,0,0,1,219.51677607597478,5789.115413425949) translate(0 14.222222222222223)"/><path d="M153.83 5648.6l4.82 77.37 2.13 112-2 .04-2.13-111.95-4.82-77.3-7.16-78.17h2zm-23.35-254.67l14.24 155.3h-2l-14.23-155.2-1.8-94.5 1.98-.05z" stroke="#3a414a" stroke-width=".05" fill="#3a414a"/><path d="M160.8 5839h-2l-.02-1.02 2-.03z" fill="#3a414a"/><path d="M160.82 5839.02h-2.04l-.03-1.06 2.05-.04zm-2-1v.95h1.95l-.02-1z" stroke="#3a414a" stroke-width=".05" fill="#3a414a"/><path d="M132.3 5298.4l-9.27.2 4.36-14.37z" fill="#3a414a"/><path d="M133.7 5299.38l-12.02.23 5.65-18.6zm-9.3-1.82l6.5-.12-3.44-9.97z" stroke="#3a414a" stroke-width=".05" fill="#3a414a"/><use xlink:href="#n" transform="matrix(1,0,0,1,116.12563586251042,5549.242405208585) translate(0 14.222222222222223)"/><path d="M-72.46 5660.63l-4.5 72.62L-79 5838l-2-.03 2-104.8 4.53-72.7 9.82-89.82h2zm28.44-361.1l-1.67 87.3-4.52 72.7-10.02 89.8h-2.02l10.05-89.96 4.5-72.62 1.68-87.27z" stroke="#3a414a" stroke-width=".05" fill="#3a414a"/><path d="M-78.98 5837.98L-79 5839h-2l.02-1.05z" fill="#3a414a"/><path d="M-78.95 5837.96l-.02 1.06h-2.06l.03-1.1zm-2.02 1.02h1.94l.02-.97-1.96-.03z" stroke="#3a414a" stroke-width=".05" fill="#3a414a"/><path d="M-40.37 5298.6l-9.27-.2 4.9-14.16z" fill="#3a414a"/><path d="M-39 5299.6l-12.03-.22 6.36-18.38zm-9.24-2.16l6.52.12-3.07-10.1z" stroke="#3a414a" stroke-width=".05" fill="#3a414a"/><use xlink:href="#n" transform="matrix(1,0,0,1,-91.00829640782248,5549.317276890627) translate(0 14.222222222222223)"/><path d="M-129.22 5806.82l12.7 3.8 7.8 2.7 5.5 2.18 4.1 1.82 3.2 1.58 2.55 1.4 2.08 1.26 1.73 1.15 1.46 1.06 1.22.98 1.06.9.92.87.8.83.7.78.62.75.54.72.48.7.43.66.38.65.33.65.3.62.26.62.23.62.2.6.16.6.15.6.1.62.1.6.07.62v.2l-2 .12v-.15l-.05-.52-.08-.53-.1-.53-.12-.52-.15-.53-.17-.52-.2-.54-.23-.53-.26-.56-.3-.55-.34-.58-.38-.6-.44-.63-.5-.65-.55-.7-.66-.7-.74-.76-.85-.8-1-.86-1.17-.93-1.4-1-1.64-1.1-2-1.22-2.5-1.36-3.1-1.54-4.04-1.8-5.4-2.13-7.75-2.68-12.6-3.78-9.97-2.6v-2.08zm-100.07-31.17l1.66 1.1 2 1.22 2.5 1.36 3.1 1.54 4.04 1.8 5.4 2.13 7.73 2.67 22.7 5.97v2.06l-23.28-6.1-7.83-2.73-5.5-2.16-4.1-1.82-3.2-1.58-2.54-1.4-2.1-1.26-1.72-1.15-.63-.47 1.17-1.6z" stroke="#3a414a" stroke-width=".05" fill="#3a414a"/><path d="M-79 5839h-2l-.02-1 2-.05z" fill="#3a414a"/><path d="M-78.97 5839.02h-2.06l-.02-1.05 2.05-.04zm-2.03-1l.02.95h1.95l-.02-1z" stroke="#3a414a" stroke-width=".05" fill="#3a414a"/><path d="M-226.72 5773.3l-7.83 4.97-3.72-14.54z" fill="#3a414a"/><path d="M-225.02 5773.4l-10.16 6.45L-240 5761zm-8.9 3.28l5.5-3.48-8.12-6.73z" stroke="#3a414a" stroke-width=".05" fill="#3a414a"/><use xlink:href="#o" transform="matrix(1,0,0,1,-180.16158336811614,5789.11541342595) translate(0 14.222222222222223)"/><path d="M2.34 6069.96l6.96 4.1 4.97 3.2 3.87 2.75 3.15 2.45 2.63 2.23 2.25 2.08 1.95 1.95 1.7 1.87 1.5 1.78 1.33 1.72 1.18 1.67 1.06 1.64.94 1.62.85 1.6.74 1.57.68 1.58.6 1.6.52 1.58.45 1.6.38 1.65.32 1.67.26 1.7.2 1.76.1 1.82.02.86-2 .04-.02-.82-.1-1.72-.2-1.67-.23-1.62-.3-1.58-.37-1.55-.43-1.53-.5-1.52-.57-1.5-.64-1.5-.72-1.5-.8-1.53-.9-1.54-1.02-1.57-1.13-1.6-1.28-1.66-1.44-1.7-1.64-1.8-1.9-1.9-2.2-2.02-2.57-2.17-3.08-2.38-3.8-2.7-4.9-3.17-6.9-4.04-13.2-6.97h4.3zm-75.24-51.45l.8 1.53.9 1.54 1.02 1.57 1.13 1.6 1.27 1.66 1.45 1.7 1.64 1.8 1.9 1.9 2.2 2.02 2.57 2.17 3.08 2.38 3.8 2.7 3.58 2.3h-3.68l-1.02-.65-3.87-2.74-3.15-2.45-2.63-2.23-2.26-2.08-1.93-1.95-1.7-1.87-1.5-1.78-1.33-1.72-1.18-1.67-1.06-1.64-.94-1.62-.85-1.6-.05-.1 1.8-.87z" stroke="#3a414a" stroke-width=".05" fill="#3a414a"/><path d="M41 6119h-2l-.02-1 2-.05z" fill="#3a414a"/><path d="M41.03 6119.02h-2.05l-.03-1.05 2.05-.04zm-2.03-1l.02.95h1.95l-.02-1z" stroke="#3a414a" stroke-width=".05" fill="#3a414a"/><path d="M-69.52 6017l-9.03 2.1 1.28-14.95z" fill="#3a414a"/><path d="M-67.95 6017.66l-11.7 2.72L-78 6001zm-9.48.15l6.34-1.47-5.43-9.03z" stroke="#3a414a" stroke-width=".05" fill="#3a414a"/><use xlink:href="#p" transform="matrix(1,0,0,1,-63.31618196893071,6043.391522977764) translate(0 14.222222222222223)"/><path d="M80.44 6071.7l-6.9 4.05-4.9 3.17-3.8 2.7-3.08 2.4-2.57 2.16-2.2 2.02-1.9 1.9-1.63 1.8-1.45 1.7-1.27 1.66-1.14 1.6-1 1.57-.9 1.54-.8 1.52-.72 1.5-.64 1.5-.57 1.5-.5 1.52-.43 1.53-.37 1.55-.3 1.58-.24 1.63-.18 1.68-.1 1.72-.03.82-2-.04.02-.86.1-1.8.2-1.77.26-1.7.32-1.67.4-1.64.44-1.6.52-1.6.6-1.6.67-1.57.76-1.58.86-1.6.94-1.62 1.06-1.64 1.18-1.67 1.33-1.72 1.5-1.78 1.7-1.86 1.95-1.94 2.25-2.08 2.64-2.23 3.16-2.44 3.87-2.73 4.97-3.22 5.9-3.46h4.14zm76.1-52.4l-.05.1-.86 1.6-.94 1.62-1.06 1.64-1.18 1.67-1.33 1.72-1.5 1.78-1.7 1.86-1.95 1.94-2.25 2.08-2.64 2.23-3.16 2.44-3.87 2.73-4.97 3.22-5.63 3.3h-4.2l1.9-.96 6.88-4.05 4.9-3.17 3.8-2.7 3.08-2.4 2.58-2.16 2.2-2.02 1.9-1.9 1.63-1.8 1.44-1.7 1.28-1.66 1.14-1.6 1-1.57.9-1.54.8-1.52.04-.07z" stroke="#3a414a" stroke-width=".05" fill="#3a414a"/><path d="M42.82 6118l-.02 1h-2l.02-1.05z" fill="#3a414a"/><path d="M42.85 6117.97l-.03 1.05h-2.05l.03-1.1zm-2.02 1h1.95l.02-.95-1.95-.04z" stroke="#3a414a" stroke-width=".05" fill="#3a414a"/><path d="M160.35 6019.1l-9.03-2.1 7.75-12.85z" fill="#3a414a"/><path d="M161.46 6020.38l-11.7-2.72L159.8 6001zm-8.57-4.05l6.33 1.48-.9-10.5z" stroke="#3a414a" stroke-width=".05" fill="#3a414a"/><use xlink:href="#p" transform="matrix(1,0,0,1,67.79899053574249,6049.2593214838) translate(0 14.222222222222223)"/><path d="M179.63 6161.67H139.5v-2h40.13zm138.37 0h-57.63v-2H318z" stroke="#3a414a" stroke-width=".05" fill="#3a414a"/><path d="M319 6161.67h-1.03v-2H319z" fill="#3a414a"/><path d="M319.02 6161.7h-1.07v-2.06h1.07zm-1.02-2v1.94h.98v-1.95z" stroke="#3a414a" stroke-width=".05" fill="#3a414a"/><path d="M138.5 6165.3l-14.26-4.63 14.26-4.64z" fill="#3a414a"/><path d="M139.5 6166.68l-18.5-6 18.5-6.03zm-12.03-6l10.03 3.25v-6.52z" stroke="#3a414a" stroke-width=".05" fill="#3a414a"/><use xlink:href="#j" transform="matrix(1,0,0,1,179.62811806715314,6150.000000225277) translate(0 14.222222222222223)"/><path d="M184.05 6241.67H122v-2h62.05zm116.45 0h-44.55v-2h44.55z" stroke="#3a414a" stroke-width=".05" fill="#3a414a"/><path d="M122.03 6241.67H121v-2h1.03z" fill="#3a414a"/><path d="M122.05 6241.7h-1.08v-2.06h1.08zm-1.02-2v1.94h.97v-1.95z" stroke="#3a414a" stroke-width=".05" fill="#3a414a"/><path d="M315.76 6240.67l-14.26 4.63v-9.27z" fill="#3a414a"/><path d="M319 6240.67l-18.5 6v-12.02zm-16.5 3.26l10.03-3.26-10.03-3.26z" stroke="#3a414a" stroke-width=".05" fill="#3a414a"/><use xlink:href="#h" transform="matrix(1,0,0,1,184.05089517942895,6230.000002927943) translate(0 14.222222222222223)"/><path d="M-191.04 6163.67h-46.76v-2h46.76zm131.54 0h-50.8v-2h50.8z" stroke="#3a414a" stroke-width=".05" fill="#3a414a"/><path d="M-237.77 6163.67h-1.03v-2h1.03z" fill="#3a414a"/><path d="M-237.75 6163.7h-1.07v-2.06h1.07zm-1.03-2v1.94h.98v-1.95z" stroke="#3a414a" stroke-width=".05" fill="#3a414a"/><path d="M-44.24 6162.67l-14.26 4.63v-9.27z" fill="#3a414a"/><path d="M-41 6162.67l-18.5 6v-12.02zm-16.5 3.26l10.03-3.26-10.03-3.26z" stroke="#3a414a" stroke-width=".05" fill="#3a414a"/><use xlink:href="#j" transform="matrix(1,0,0,1,-191.03703703703684,6152.000005495302) translate(0 14.222222222222223)"/><path d="M-182.7 6243.67h-37.6v-2h37.6zm140.7 0h-76.64v-2H-42z" stroke="#3a414a" stroke-width=".05" fill="#3a414a"/><path d="M-41 6243.67h-1.03v-2H-41z" fill="#3a414a"/><path d="M-40.98 6243.7h-1.07v-2.06h1.07zm-1.02-2v1.94h.98v-1.95z" stroke="#3a414a" stroke-width=".05" fill="#3a414a"/><path d="M-221.3 6247.3l-14.26-4.63 14.26-4.64z" fill="#3a414a"/><path d="M-220.3 6248.68l-18.5-6 18.5-6.03zm-12.03-6l10.03 3.25v-6.52z" stroke="#3a414a" stroke-width=".05" fill="#3a414a"/><g><use xlink:href="#i" transform="matrix(1,0,0,1,-182.69135802469123,6231.999997522468) translate(0 14.222222222222223)"/></g><defs><path d="M556-476c0 141-103 215-251 213H171V0H85v-690h220c148-2 251 72 251 214zM171-612v271h134c110 0 165-45 165-135 0-91-55-136-165-136H171" id="q"/><path d="M252-434c-66-1-107 53-107 121V0H65v-500h80v49c48-85 215-70 259 11l-68 48c-20-28-48-42-84-42" id="r"/><path d="M248-508c135-1 208 86 208 224C456-109 409 9 248 8 115 9 38-82 40-218v-66c-2-136 75-225 208-224zM120-284c0 121 16 221 128 220 106-1 128-100 128-220 0-90-42-152-128-152-85 0-128 63-128 152" id="s"/><path d="M40-284c-2-134 70-224 200-224 63 0 108 19 136 58v-240h80V0h-80v-44C349-9 304 8 240 8 109 9 39-85 40-218v-66zm80 0c0 120 21 219 128 220 85 1 128-60 128-147 0-124-16-226-128-225-86 0-128 62-128 152" id="t"/><path d="M259-66c71 1 122-51 122-122v-312h80V0h-80v-49C351-7 319 7 247 8 126 7 65-62 65-188v-312h80v311c0 82 38 123 114 123" id="u"/><path d="M120-284c0 125 20 222 136 220 55 0 92-19 111-56l62 44C399-20 341 8 256 8 121 9 38-82 40-218v-66c-1-138 79-225 216-224 79 0 136 26 173 78l-63 44c-23-33-60-50-110-50-88-1-136 62-136 152" id="v"/><path d="M280 0C145 6 85-24 85-154v-274H21v-72h64v-110h80v110h115v72H165v254c-6 91 28 102 115 98V0" id="w"/><path d="M160 0H80v-500h80V0zm5-600H75v-90h90v90" id="x"/><path d="M267-434c-71-1-122 51-122 122V0H65v-500h80v49c30-42 62-56 134-57 121 1 182 70 182 196V0h-80v-311c0-82-38-123-114-123" id="y"/><path d="M60-512c2-121 91-189 223-186 103 0 179 38 228 113l-67 48c-43-53-76-82-164-83-78 0-134 33-134 108 0 95 67 108 163 128 130 27 214 62 214 199C523-55 430 7 291 8 179 8 97-30 45-105l71-49c49 56 80 82 175 84 97 0 146-37 146-111 0-94-64-111-163-129-143-22-214-89-214-202" id="z"/><path d="M120-232c-4 96 38 168 128 168 58 0 98-19 119-56l62 44C394-17 345 7 254 8 120 9 40-82 40-218c0-172 41-291 198-290 154-1 209 109 198 276H120zm118-204c-73 0-113 45-118 134h235c-4-89-43-134-117-134" id="A"/><g id="a"><use transform="matrix(0.022222222222222223,0,0,0.022222222222222223,0,0)" xlink:href="#q"/><use transform="matrix(0.022222222222222223,0,0,0.022222222222222223,13.066666666666666,0)" xlink:href="#r"/><use transform="matrix(0.022222222222222223,0,0,0.022222222222222223,21.822222222222223,0)" xlink:href="#s"/><use transform="matrix(0.022222222222222223,0,0,0.022222222222222223,32.84444444444445,0)" xlink:href="#t"/><use transform="matrix(0.022222222222222223,0,0,0.022222222222222223,44.422222222222224,0)" xlink:href="#u"/><use transform="matrix(0.022222222222222223,0,0,0.022222222222222223,56.111111111111114,0)" xlink:href="#v"/><use transform="matrix(0.022222222222222223,0,0,0.022222222222222223,65.97777777777779,0)" xlink:href="#w"/><use transform="matrix(0.022222222222222223,0,0,0.022222222222222223,72.97777777777779,0)" xlink:href="#x"/><use transform="matrix(0.022222222222222223,0,0,0.022222222222222223,78.31111111111112,0)" xlink:href="#s"/><use transform="matrix(0.022222222222222223,0,0,0.022222222222222223,89.33333333333334,0)" xlink:href="#y"/><use transform="matrix(0.022222222222222223,0,0,0.022222222222222223,101.02222222222224,0)" xlink:href="#z"/><use transform="matrix(0.022222222222222223,0,0,0.022222222222222223,113.71111111111114,0)" xlink:href="#v"/><use transform="matrix(0.022222222222222223,0,0,0.022222222222222223,123.5777777777778,0)" xlink:href="#A"/><use transform="matrix(0.022222222222222223,0,0,0.022222222222222223,134.42222222222225,0)" xlink:href="#y"/><use transform="matrix(0.022222222222222223,0,0,0.022222222222222223,146.11111111111114,0)" xlink:href="#A"/></g><path d="M45-366c1-94 76-144 179-142 86 0 147 28 182 83l-60 42c-30-38-57-50-124-51-53 0-96 19-97 67 0 47 39 74 116 79 103 10 181 38 180 149C419-37 344 9 233 8 144 8 80-20 40-75l59-42c31 38 65 51 135 51 58 0 107-19 107-71 0-70-49-71-129-80-111-8-167-58-167-149" id="B"/><path d="M289-253H30v-72h259v72" id="C"/><path d="M223-690h86V0h-86v-591l-99 71v-94" id="D"/><path d="M250-698c110-1 198 84 198 199v308C452-76 360 9 250 8 140 9 52-76 52-192v-306c-4-116 88-201 198-200zm0 628c65 1 112-54 112-121v-308c2-67-47-122-112-121-66-1-113 54-113 121v308c-2 67 47 122 113 121" id="E"/><g id="b"><use transform="matrix(0.022222222222222223,0,0,0.022222222222222223,0,0)" xlink:href="#B"/><use transform="matrix(0.022222222222222223,0,0,0.022222222222222223,10.355555555555556,0)" xlink:href="#v"/><use transform="matrix(0.022222222222222223,0,0,0.022222222222222223,20,0)" xlink:href="#C"/><use transform="matrix(0.022222222222222223,0,0,0.022222222222222223,27.08888888888889,0)" xlink:href="#D"/><use transform="matrix(0.022222222222222223,0,0,0.022222222222222223,38.2,0)" xlink:href="#E"/></g><path d="M547-215C530-77 448 4 300 8 108 13 50-143 50-383c0-210 83-315 250-315 149 1 229 86 248 223h-84c-21-92-62-144-164-145-154-2-168 142-164 313 3 144 36 237 164 237 102 0 143-55 164-145h83" id="F"/><path d="M286-256L468 0h-94L239-186 104 0H10l182-256L30-500h94l115 177 115-177h94" id="G"/><g id="c"><use transform="matrix(0.022222222222222223,0,0,0.022222222222222223,0,0)" xlink:href="#F"/><use transform="matrix(0.022222222222222223,0,0,0.022222222222222223,12.844444444444445,0)" xlink:href="#s"/><use transform="matrix(0.022222222222222223,0,0,0.022222222222222223,23.866666666666667,0)" xlink:href="#y"/><use transform="matrix(0.022222222222222223,0,0,0.022222222222222223,35.55555555555556,0)" xlink:href="#w"/><use transform="matrix(0.022222222222222223,0,0,0.022222222222222223,42.55555555555556,0)" xlink:href="#A"/><use transform="matrix(0.022222222222222223,0,0,0.022222222222222223,52.86666666666668,0)" xlink:href="#G"/><use transform="matrix(0.022222222222222223,0,0,0.022222222222222223,63.488888888888894,0)" xlink:href="#w"/></g><path d="M305 0H85v-690h220c190-7 250 145 250 381C555-103 472 0 305 0zm164-309c3-169-10-305-164-303H171v534h134c129-5 161-87 164-231" id="H"/><path d="M481-218C482-85 412 9 281 8c-63 0-108-19-136-58v240H65v-690h80v50c28-39 73-58 136-58 130 0 202 89 200 224v66zm-336-73c0 124 14 228 128 227 106-1 128-100 128-220 0-90-42-152-128-152-83 0-128 59-128 145" id="I"/><g id="d"><use transform="matrix(0.022222222222222223,0,0,0.022222222222222223,0,0)" xlink:href="#H"/><use transform="matrix(0.022222222222222223,0,0,0.022222222222222223,13.444444444444445,0)" xlink:href="#A"/><use transform="matrix(0.022222222222222223,0,0,0.022222222222222223,24.28888888888889,0)" xlink:href="#I"/><use transform="matrix(0.022222222222222223,0,0,0.022222222222222223,35.86666666666667,0)" xlink:href="#x"/><use transform="matrix(0.022222222222222223,0,0,0.022222222222222223,41.2,0)" xlink:href="#v"/><use transform="matrix(0.022222222222222223,0,0,0.022222222222222223,51.06666666666667,0)" xlink:href="#w"/><use transform="matrix(0.022222222222222223,0,0,0.022222222222222223,58.06666666666667,0)" xlink:href="#x"/><use transform="matrix(0.022222222222222223,0,0,0.022222222222222223,63.400000000000006,0)" xlink:href="#s"/><use transform="matrix(0.022222222222222223,0,0,0.022222222222222223,74.42222222222223,0)" xlink:href="#y"/></g><path d="M467-163v-527h86V0h-84L171-522V0H85v-690h82" id="J"/><path d="M219 8C111 9 40-44 40-146c0-95 62-143 187-143h119v-58c-2-74-33-85-111-87-71 1-91 8-120 51l-60-42c37-60 84-82 181-83 128 1 190 38 190 161V0h-80v-49C318-4 291 7 219 8zm0-74c103 2 133-44 127-155-96 5-231-25-226 77 0 52 33 78 99 78" id="K"/><path d="M252-102l152-398h90L294 0h-80L10-500h90" id="L"/><g id="e"><use transform="matrix(0.022222222222222223,0,0,0.022222222222222223,0,0)" xlink:href="#J"/><use transform="matrix(0.022222222222222223,0,0,0.022222222222222223,14.177777777777779,0)" xlink:href="#K"/><use transform="matrix(0.022222222222222223,0,0,0.022222222222222223,25.08888888888889,0)" xlink:href="#r"/><use transform="matrix(0.022222222222222223,0,0,0.022222222222222223,33.84444444444445,0)" xlink:href="#r"/><use transform="matrix(0.022222222222222223,0,0,0.022222222222222223,42.37777777777778,0)" xlink:href="#K"/><use transform="matrix(0.022222222222222223,0,0,0.022222222222222223,53.28888888888889,0)" xlink:href="#w"/><use transform="matrix(0.022222222222222223,0,0,0.022222222222222223,60.28888888888889,0)" xlink:href="#x"/><use transform="matrix(0.022222222222222223,0,0,0.022222222222222223,65.62222222222222,0)" xlink:href="#L"/><use transform="matrix(0.022222222222222223,0,0,0.022222222222222223,76.82222222222222,0)" xlink:href="#A"/></g><path d="M577 0L420-536 264 0h-86L10-690h90l125 542 152-542h85l155 545 125-545h90L664 0h-87" id="M"/><path d="M481-218C482-85 412 9 281 8 217 8 172-9 145-44V0H65v-690h80v240c28-39 73-58 136-58 130 0 202 89 200 224v66zm-336-73c0 124 14 228 128 227 106-1 128-100 128-220 0-90-42-152-128-152-83 0-128 59-128 145" id="N"/><g id="f"><use transform="matrix(0.022222222222222223,0,0,0.022222222222222223,0,0)" xlink:href="#M"/><use transform="matrix(0.022222222222222223,0,0,0.022222222222222223,18.400000000000002,0)" xlink:href="#K"/><use transform="matrix(0.022222222222222223,0,0,0.022222222222222223,29.311111111111114,0)" xlink:href="#r"/><use transform="matrix(0.022222222222222223,0,0,0.022222222222222223,38.06666666666667,0)" xlink:href="#t"/><use transform="matrix(0.022222222222222223,0,0,0.022222222222222223,49.644444444444446,0)" xlink:href="#r"/><use transform="matrix(0.022222222222222223,0,0,0.022222222222222223,58.400000000000006,0)" xlink:href="#s"/><use transform="matrix(0.022222222222222223,0,0,0.022222222222222223,69.42222222222223,0)" xlink:href="#N"/><use transform="matrix(0.022222222222222223,0,0,0.022222222222222223,81.00000000000001,0)" xlink:href="#A"/></g><path d="M154-158L101 0H10l240-690h80L570 0h-91l-53-158H154zm245-78L290-560 181-236h218" id="O"/><g id="g"><use transform="matrix(0.022222222222222223,0,0,0.022222222222222223,0,0)" xlink:href="#O"/><use transform="matrix(0.022222222222222223,0,0,0.022222222222222223,12.88888888888889,0)" xlink:href="#B"/><use transform="matrix(0.022222222222222223,0,0,0.022222222222222223,23.244444444444444,0)" xlink:href="#B"/><use transform="matrix(0.022222222222222223,0,0,0.022222222222222223,33.6,0)" xlink:href="#A"/><use transform="matrix(0.022222222222222223,0,0,0.022222222222222223,44.44444444444444,0)" xlink:href="#w"/></g><path fill="#333" d="M24-248c120-7 223 5 221 122C244-46 201 0 124 0H24v-248zM76-40c74 7 117-18 117-86 0-67-45-88-117-82v168" id="P"/><path fill="#333" d="M185-48c-13 30-37 53-82 52C43 2 14-33 14-96s30-98 90-98c62 0 83 45 84 108H66c0 31 8 55 39 56 18 0 30-7 34-22zm-45-69c5-46-57-63-70-21-2 6-4 13-4 21h74" id="Q"/><path fill="#333" d="M135-194c53 0 70 44 70 98 0 56-19 98-73 100-31 1-45-17-59-34 3 33 2 69 2 105H25l-1-265h48c2 10 0 23 3 31 11-24 29-35 60-35zM114-30c33 0 39-31 40-66 0-38-9-64-40-64-56 0-55 130 0 130" id="R"/><path fill="#333" d="M25-224v-37h50v37H25zM25 0v-190h50V0H25" id="S"/><path fill="#333" d="M190-63c-7 42-38 67-86 67-59 0-84-38-90-98-12-110 154-137 174-36l-49 2c-2-19-15-32-35-32-30 0-35 28-38 64-6 74 65 87 74 30" id="T"/><path fill="#333" d="M115-3C79 11 28 4 28-45v-112H4v-33h27l15-45h31v45h36v33H77v99c-1 23 16 31 38 25v30" id="U"/><path fill="#333" d="M110-194c64 0 96 36 96 99 0 64-35 99-97 99-61 0-95-36-95-99 0-62 34-99 96-99zm-1 164c35 0 45-28 45-65 0-40-10-65-43-65-34 0-45 26-45 65 0 36 10 65 43 65" id="V"/><path fill="#333" d="M135-150c-39-12-60 13-60 57V0H25l-1-190h47c2 13-1 29 3 40 6-28 27-53 61-41v41" id="W"/><g id="h"><use transform="matrix(0.04938271604938272,0,0,0.04938271604938272,0,0)" xlink:href="#P"/><use transform="matrix(0.04938271604938272,0,0,0.04938271604938272,12.790123456790125,0)" xlink:href="#Q"/><use transform="matrix(0.04938271604938272,0,0,0.04938271604938272,22.66666666666667,0)" xlink:href="#R"/><use transform="matrix(0.04938271604938272,0,0,0.04938271604938272,33.48148148148149,0)" xlink:href="#S"/><use transform="matrix(0.04938271604938272,0,0,0.04938271604938272,38.41975308641976,0)" xlink:href="#T"/><use transform="matrix(0.04938271604938272,0,0,0.04938271604938272,48.296296296296305,0)" xlink:href="#U"/><use transform="matrix(0.04938271604938272,0,0,0.04938271604938272,54.17283950617284,0)" xlink:href="#V"/><use transform="matrix(0.04938271604938272,0,0,0.04938271604938272,64.98765432098766,0)" xlink:href="#W"/></g><path fill="#333" d="M137-138c1-29-70-34-71-4 15 46 118 7 119 86 1 83-164 76-172 9l43-7c4 19 20 25 44 25 33 8 57-30 24-41C81-84 22-81 20-136c-2-80 154-74 161-7" id="X"/><g id="i"><use transform="matrix(0.04938271604938272,0,0,0.04938271604938272,0,0)" xlink:href="#P"/><use transform="matrix(0.04938271604938272,0,0,0.04938271604938272,12.790123456790125,0)" xlink:href="#Q"/><use transform="matrix(0.04938271604938272,0,0,0.04938271604938272,22.66666666666667,0)" xlink:href="#R"/><use transform="matrix(0.04938271604938272,0,0,0.04938271604938272,33.48148148148149,0)" xlink:href="#S"/><use transform="matrix(0.04938271604938272,0,0,0.04938271604938272,38.41975308641976,0)" xlink:href="#T"/><use transform="matrix(0.04938271604938272,0,0,0.04938271604938272,48.296296296296305,0)" xlink:href="#U"/><use transform="matrix(0.04938271604938272,0,0,0.04938271604938272,54.17283950617284,0)" xlink:href="#X"/></g><path fill="#333" d="M135-194c87-1 58 113 63 194h-50c-7-57 23-157-34-157-59 0-34 97-39 157H25l-1-190h47c2 12-1 28 3 38 12-26 28-41 61-42" id="Y"/><g id="j"><use transform="matrix(0.04938271604938272,0,0,0.04938271604938272,0,0)" xlink:href="#P"/><use transform="matrix(0.04938271604938272,0,0,0.04938271604938272,12.790123456790125,0)" xlink:href="#Q"/><use transform="matrix(0.04938271604938272,0,0,0.04938271604938272,22.66666666666667,0)" xlink:href="#R"/><use transform="matrix(0.04938271604938272,0,0,0.04938271604938272,33.48148148148149,0)" xlink:href="#S"/><use transform="matrix(0.04938271604938272,0,0,0.04938271604938272,38.41975308641976,0)" xlink:href="#T"/><use transform="matrix(0.04938271604938272,0,0,0.04938271604938272,48.296296296296305,0)" xlink:href="#U"/><use transform="matrix(0.04938271604938272,0,0,0.04938271604938272,54.17283950617284,0)" xlink:href="#S"/><use transform="matrix(0.04938271604938272,0,0,0.04938271604938272,59.111111111111114,0)" xlink:href="#V"/><use transform="matrix(0.04938271604938272,0,0,0.04938271604938272,69.92592592592594,0)" xlink:href="#Y"/></g><path d="M300-698c192 0 250 151 250 391C550-97 467 8 300 8 108 8 50-143 50-383c0-210 83-315 250-315zm0 78c-154-3-168 142-164 313 3 144 36 235 164 237 154 3 168-142 164-313-3-144-36-235-164-237" id="Z"/><path d="M0 116c75-1 85-30 85-100v-516h80V36c-2 115-46 153-165 154v-74zm170-716H80v-90h90v90" id="aa"/><g id="k"><use transform="matrix(0.022222222222222223,0,0,0.022222222222222223,0,0)" xlink:href="#J"/><use transform="matrix(0.022222222222222223,0,0,0.022222222222222223,14.177777777777779,0)" xlink:href="#K"/><use transform="matrix(0.022222222222222223,0,0,0.022222222222222223,25.08888888888889,0)" xlink:href="#r"/><use transform="matrix(0.022222222222222223,0,0,0.022222222222222223,33.84444444444445,0)" xlink:href="#r"/><use transform="matrix(0.022222222222222223,0,0,0.022222222222222223,42.37777777777778,0)" xlink:href="#K"/><use transform="matrix(0.022222222222222223,0,0,0.022222222222222223,53.28888888888889,0)" xlink:href="#w"/><use transform="matrix(0.022222222222222223,0,0,0.022222222222222223,60.28888888888889,0)" xlink:href="#x"/><use transform="matrix(0.022222222222222223,0,0,0.022222222222222223,65.62222222222222,0)" xlink:href="#L"/><use transform="matrix(0.022222222222222223,0,0,0.022222222222222223,76.82222222222222,0)" xlink:href="#A"/><use transform="matrix(0.022222222222222223,0,0,0.022222222222222223,87.66666666666667,0)" xlink:href="#Z"/><use transform="matrix(0.022222222222222223,0,0,0.022222222222222223,101,0)" xlink:href="#N"/><use transform="matrix(0.022222222222222223,0,0,0.022222222222222223,112.57777777777778,0)" xlink:href="#aa"/><use transform="matrix(0.022222222222222223,0,0,0.022222222222222223,117.80000000000001,0)" xlink:href="#A"/><use transform="matrix(0.022222222222222223,0,0,0.022222222222222223,128.64444444444445,0)" xlink:href="#v"/><use transform="matrix(0.022222222222222223,0,0,0.022222222222222223,138.51111111111112,0)" xlink:href="#w"/></g><path d="M267-434c-71-1-122 51-122 122V0H65v-690h80v239c30-42 62-56 134-57 121 1 182 70 182 196V0h-80v-311c0-82-38-123-114-123" id="ab"/><g id="l"><use transform="matrix(0.022222222222222223,0,0,0.022222222222222223,0,0)" xlink:href="#F"/><use transform="matrix(0.022222222222222223,0,0,0.022222222222222223,12.844444444444445,0)" xlink:href="#ab"/><use transform="matrix(0.022222222222222223,0,0,0.022222222222222223,24.533333333333335,0)" xlink:href="#K"/><use transform="matrix(0.022222222222222223,0,0,0.022222222222222223,35.44444444444444,0)" xlink:href="#r"/><use transform="matrix(0.022222222222222223,0,0,0.022222222222222223,43.977777777777774,0)" xlink:href="#K"/><use transform="matrix(0.022222222222222223,0,0,0.022222222222222223,54.88888888888888,0)" xlink:href="#v"/><use transform="matrix(0.022222222222222223,0,0,0.022222222222222223,64.75555555555556,0)" xlink:href="#w"/><use transform="matrix(0.022222222222222223,0,0,0.022222222222222223,71.75555555555556,0)" xlink:href="#A"/><use transform="matrix(0.022222222222222223,0,0,0.022222222222222223,82.60000000000001,0)" xlink:href="#r"/></g><g id="m"><use transform="matrix(0.022222222222222223,0,0,0.022222222222222223,0,0)" xlink:href="#B"/><use transform="matrix(0.022222222222222223,0,0,0.022222222222222223,10.355555555555556,0)" xlink:href="#v"/><use transform="matrix(0.022222222222222223,0,0,0.022222222222222223,20,0)" xlink:href="#C"/><use transform="matrix(0.022222222222222223,0,0,0.022222222222222223,27.08888888888889,0)" xlink:href="#D"/><use transform="matrix(0.022222222222222223,0,0,0.022222222222222223,38.2,0)" xlink:href="#D"/></g><path fill="#333" d="M85 4C-2 5 27-109 22-190h50c7 57-23 150 33 157 60-5 35-97 40-157h50l1 190h-47c-2-12 1-28-3-38-12 25-28 42-61 42" id="ac"/><path fill="#333" d="M88-194c31-1 46 15 58 34l-1-101h50l1 261h-48c-2-10 0-23-3-31C134-8 116 4 84 4 32 4 16-41 15-95c0-56 19-97 73-99zm17 164c33 0 40-30 41-66 1-37-9-64-41-64s-38 30-39 65c0 43 13 65 39 65" id="ad"/><path fill="#333" d="M24 0v-248h52V0H24" id="ae"/><g id="n"><use transform="matrix(0.04938271604938272,0,0,0.04938271604938272,0,0)" xlink:href="#ac"/><use transform="matrix(0.04938271604938272,0,0,0.04938271604938272,10.814814814814815,0)" xlink:href="#X"/><use transform="matrix(0.04938271604938272,0,0,0.04938271604938272,20.69135802469136,0)" xlink:href="#Q"/><use transform="matrix(0.04938271604938272,0,0,0.04938271604938272,30.567901234567906,0)" xlink:href="#ad"/><use transform="matrix(0.04938271604938272,0,0,0.04938271604938272,41.38271604938272,0)" xlink:href="#ae"/><use transform="matrix(0.04938271604938272,0,0,0.04938271604938272,46.320987654320994,0)" xlink:href="#Y"/></g><g id="o"><use transform="matrix(0.04938271604938272,0,0,0.04938271604938272,0,0)" xlink:href="#ac"/><use transform="matrix(0.04938271604938272,0,0,0.04938271604938272,10.814814814814815,0)" xlink:href="#X"/><use transform="matrix(0.04938271604938272,0,0,0.04938271604938272,20.69135802469136,0)" xlink:href="#Q"/><use transform="matrix(0.04938271604938272,0,0,0.04938271604938272,30.567901234567906,0)" xlink:href="#X"/></g><path fill="#333" d="M67-125c0 53 21 87 73 88 37 1 54-22 65-47l45 17C233-25 199 4 140 4 58 4 20-42 15-125 8-235 124-281 211-232c18 10 29 29 36 50l-46 12c-8-25-30-41-62-41-52 0-71 34-72 86" id="af"/><path fill="#333" d="M144 0l-44-69L55 0H2l70-98-66-92h53l41 62 40-62h54l-67 91 71 99h-54" id="ag"/><g id="p"><use transform="matrix(0.04938271604938272,0,0,0.04938271604938272,0,0)" xlink:href="#af"/><use transform="matrix(0.04938271604938272,0,0,0.04938271604938272,12.790123456790125,0)" xlink:href="#V"/><use transform="matrix(0.04938271604938272,0,0,0.04938271604938272,23.60493827160494,0)" xlink:href="#Y"/><use transform="matrix(0.04938271604938272,0,0,0.04938271604938272,34.41975308641975,0)" xlink:href="#U"/><use transform="matrix(0.04938271604938272,0,0,0.04938271604938272,40.2962962962963,0)" xlink:href="#Q"/><use transform="matrix(0.04938271604938272,0,0,0.04938271604938272,50.17283950617284,0)" xlink:href="#ag"/><use transform="matrix(0.04938271604938272,0,0,0.04938271604938272,60.04938271604939,0)" xlink:href="#U"/></g></defs></g></svg>