<svg xmlns="http://www.w3.org/2000/svg" xmlns:xlink="http://www.w3.org/1999/xlink" width="962"
     height="442">
    <g transform="translate(801.0000000265476 -478.9999999734525)">
        <path d="M-800 486a6 6 0 0 1 6-6h148a6 6 0 0 1 6 6v148a6 6 0 0 1-6 6h-148a6 6 0 0 1-6-6z" stroke="#000"
              stroke-width="2" fill="#fff"/>
        <use xlink:href="#a" transform="matrix(1,0,0,1,-795,485) translate(42.39999999999999 64.1861111111111)"/>
        <use xlink:href="#b" transform="matrix(1,0,0,1,-795,485) translate(44.75555555555555 92.54166666666666)"/>
        <path d="M-480 486a6 6 0 0 1 6-6h148a6 6 0 0 1 6 6v148a6 6 0 0 1-6 6h-148a6 6 0 0 1-6-6z" stroke="#000"
              stroke-width="2" fill="#fff"/>
        <use xlink:href="#c"
             transform="matrix(1,0,0,1,-475.0000000000002,485) translate(54.355555555555554 64.1861111111111)"/>
        <use xlink:href="#d"
             transform="matrix(1,0,0,1,-475.0000000000002,485) translate(47.41111111111111 92.54166666666666)"/>
        <path d="M-640 766a6 6 0 0 1 6-6h148a6 6 0 0 1 6 6v148a6 6 0 0 1-6 6h-148a6 6 0 0 1-6-6z" stroke="#000"
              stroke-width="2" fill="#fff"/>
        <use xlink:href="#e" transform="matrix(1,0,0,1,-635,765) translate(24.5 64.1861111111111)"/>
        <use xlink:href="#f" transform="matrix(1,0,0,1,-635,765) translate(46.67777777777778 92.54166666666666)"/>
        <path d="M-609.6 710.63l10.12 4.5 6.94 3.43 5.24 2.88 4.15 2.5 3.38 2.25 2.82 2.03 2.4 1.9 2.04 1.76 1.76 1.66 1.55 1.58 1.37 1.5 1.2 1.46 1.07 1.4.95 1.37.84 1.33.75 1.3.66 1.3.6 1.26.53 1.26.45 1.25.4 1.26.36 1.25.3 1.27.25 1.28.2 1.3.14 1.33.07 1.35v.38l-2 .04v-.33l-.08-1.28-.14-1.24-.18-1.2-.23-1.2-.27-1.2-.33-1.18-.38-1.17-.44-1.18-.5-1.18-.56-1.2-.63-1.2-.72-1.23-.8-1.26-.9-1.3-1-1.33-1.16-1.4-1.3-1.44-1.5-1.5-1.7-1.62-2-1.7-2.32-1.85-2.75-2-3.33-2.2-4.07-2.46-5.16-2.83-6.87-3.4-10.05-4.46-4.86-1.9h5.5zm-104.13-52.6l.9 1.3 1.02 1.32 1.14 1.4 1.3 1.44 1.5 1.5 1.7 1.62 2 1.7 2.3 1.85 2.77 2 3.32 2.2 4.07 2.46 5.16 2.83 6.87 3.4 10.04 4.46 4.54 1.73h-5.55l-9.87-4.38-6.95-3.43-5.23-2.88-4.15-2.5-3.38-2.25-2.82-2.03-2.4-1.9-2.04-1.76-1.77-1.66-1.55-1.58-1.36-1.5-1.2-1.46-1.07-1.4-.94-1.37-.1-.16 1.7-1.08z"
              stroke="#000" stroke-width=".05"/>
        <path d="M-559 759h-2l-.02-1 2-.05z"/>
        <path d="M-558.97 759.02h-2.05l-.03-1.05 2.05-.04zm-2.03-1l.02.96h1.96l-.03-1z" stroke="#000"
              stroke-width=".05"/>
        <path d="M-710.44 656.37l-8.86 2.72.25-15z"/>
        <path d="M-708.83 656.92l-11.5 3.53.33-19.45zm-9.45.8l6.23-1.9-6.06-8.63z" stroke="#000" stroke-width=".05"/>
        <use xlink:href="#g"
             transform="matrix(1,0,0,1,-695.649880727418,689.2504466713818) translate(0 14.222222222222223)"/>
        <path d="M-499.24 708.43l-10.38 4.05-10.05 4.46-6.87 3.4-5.16 2.83-4.07 2.46-3.32 2.2-2.74 2-2.33 1.84-1.98 1.7-1.7 1.62-1.5 1.5-1.3 1.46-1.16 1.38-1.02 1.34-.9 1.3-.8 1.26-.72 1.23-.63 1.2-.56 1.2-.5 1.18-.44 1.18-.38 1.17-.33 1.18-.27 1.2-.23 1.2-.18 1.2-.13 1.24-.07 1.27v.32l-2-.04v-.37l.08-1.34.15-1.33.2-1.3.24-1.28.3-1.27.34-1.25.4-1.26.47-1.25.54-1.26.6-1.27.67-1.3.76-1.3.85-1.33.96-1.36 1.06-1.4 1.2-1.45 1.37-1.5 1.54-1.6 1.77-1.66 2.06-1.77 2.4-1.9 2.8-2.04 3.4-2.26 4.14-2.5 5.24-2.88 6.94-3.43 10.13-4.5 11.16-4.35zm94.74-49.46l-.1.16-.96 1.36-1.06 1.4-1.2 1.45-1.37 1.5-1.54 1.6-1.77 1.66-2.06 1.77-2.4 1.9-2.8 2.04-3.4 2.26-4.14 2.5-5.24 2.88-6.94 3.43-10.13 4.5-11.22 4.28v-2.14l10.44-3.98 10.05-4.46 6.87-3.4 5.16-2.83 4.07-2.46 3.32-2.2 2.74-2 2.33-1.84 1.98-1.7 1.7-1.62 1.5-1.5 1.3-1.46 1.16-1.38 1.02-1.34.9-1.3.1-.13z"
              stroke="#000" stroke-width=".05"/>
        <path d="M-558.98 758l-.02 1h-2l.02-1.05z"/>
        <path d="M-558.95 757.97l-.02 1.05h-2.06l.03-1.1zm-2.02 1h1.95l.02-.95-1.95-.04z" stroke="#000"
              stroke-width=".05"/>
        <path d="M-400.7 659.1l-8.87-2.73 8.62-12.28z"/>
        <path d="M-399.68 660.45l-11.5-3.53L-400 641zm-8.28-4.63l6.23 1.9-.17-10.53z" stroke="#000" stroke-width=".05"/>
        <use xlink:href="#h"
             transform="matrix(1,0,0,1,-499.2409058315303,689.2505439228763) translate(0 14.222222222222223)"/>
        <path d="M-320 766a6 6 0 0 1 6-6h148a6 6 0 0 1 6 6v148a6 6 0 0 1-6 6h-148a6 6 0 0 1-6-6z" stroke="#000"
              stroke-width="2" fill="#fff"/>
        <use xlink:href="#i" transform="matrix(1,0,0,1,-315,765) translate(31.944444444444443 64.1861111111111)"/>
        <use xlink:href="#j" transform="matrix(1,0,0,1,-315,765) translate(45.266666666666666 92.54166666666666)"/>
        <path d="M0 766a6 6 0 0 1 6-6h148a6 6 0 0 1 6 6v148a6 6 0 0 1-6 6H6a6 6 0 0 1-6-6z" stroke="#000"
              stroke-width="2" fill="#fff"/>
        <use xlink:href="#k" transform="matrix(1,0,0,1,5,765) translate(29.322222222222216 64.1861111111111)"/>
        <use xlink:href="#l" transform="matrix(1,0,0,1,5,765) translate(45.18888888888888 92.54166666666666)"/>
        <path d="M-440.37 805.76H-478v-2h37.63zm100.87 0h-20.13v-2h20.13z" stroke="#000" stroke-width=".05"/>
        <path d="M-477.97 805.76H-479v-2h1.03z"/>
        <path d="M-477.95 805.78h-1.07v-2.05h1.07zm-1.03-2v1.95h.98v-1.95z" stroke="#000" stroke-width=".05"/>
        <path d="M-324.24 804.76l-14.26 4.63v-9.28z"/>
        <path d="M-321 804.76l-18.5 6v-12zm-16.5 3.26l10.03-3.26-10.03-3.26z" stroke="#000" stroke-width=".05"/>
        <use xlink:href="#m"
             transform="matrix(1,0,0,1,-440.3692091932177,794.0919472229954) translate(0 14.222222222222223)"/>
        <path d="M-120.37 805.76h-20.13v-2h20.13zm118.37 0h-37.63v-2H-2z" stroke="#000" stroke-width=".05"/>
        <path d="M-1 805.76h-1.03v-2H-1z"/>
        <path d="M-.97 805.78h-1.08v-2.05h1.07zm-1.03-2v1.95h.98v-1.95z" stroke="#000" stroke-width=".05"/>
        <path d="M-141.5 809.4l-14.26-4.64 14.26-4.64z"/>
        <path d="M-140.5 810.77l-18.5-6 18.5-6.02zm-12.03-6l10.03 3.25v-6.52z" stroke="#000" stroke-width=".05"/>
        <use xlink:href="#m"
             transform="matrix(1,0,0,1,-120.37157917102584,794.0919353339756) translate(0 14.222222222222223)"/>
        <path d="M-112.02 880.6H-158v-2h45.98zm92.52 0h-28.47v-2h28.47z" stroke="#000" stroke-width=".05"/>
        <path d="M-157.97 880.6H-159v-2h1.03z"/>
        <path d="M-157.95 880.62h-1.08v-2.05h1.08zm-1.03-2v1.95h.98v-1.95z" stroke="#000" stroke-width=".05"/>
        <path d="M-4.24 879.6l-14.26 4.63v-9.27z"/>
        <path d="M-1 879.6l-18.5 6V873.6zm-16.5 3.25l10.03-3.25-10.03-3.26z" stroke="#000" stroke-width=".05"/>
        <use xlink:href="#n"
             transform="matrix(1,0,0,1,-112.02347961597499,868.927994806691) translate(0 14.222222222222223)"/>
        <path d="M-435.95 880.6h-24.55v-2h24.55zm113.95 0h-42.05v-2H-322z" stroke="#000" stroke-width=".05"/>
        <path d="M-321 880.6h-1.03v-2h1.03z"/>
        <path d="M-320.98 880.62h-1.07v-2.05h1.07zm-1.02-2v1.95h.98v-1.95z" stroke="#000" stroke-width=".05"/>
        <path d="M-461.5 884.23l-14.26-4.63 14.26-4.64z"/>
        <path d="M-460.5 885.6l-18.5-6 18.5-6.02zm-12.03-6l10.03 3.25v-6.5z" stroke="#000" stroke-width=".05"/>
        <g>
            <use xlink:href="#o"
                 transform="matrix(1,0,0,1,-435.9517755197102,868.9279811515588) translate(0 14.222222222222223)"/>
        </g>
        <defs>
            <path d="M556-476c0 141-103 215-251 213H171V0H85v-690h220c148-2 251 72 251 214zM171-612v271h134c110 0 165-45 165-135 0-91-55-136-165-136H171"
                  id="p"/>
            <path d="M120-232c-4 96 38 168 128 168 58 0 98-19 119-56l62 44C394-17 345 7 254 8 120 9 40-82 40-218c0-172 41-291 198-290 154-1 209 109 198 276H120zm118-204c-73 0-113 45-118 134h235c-4-89-43-134-117-134"
                  id="q"/>
            <path d="M252-434c-66-1-107 53-107 121V0H65v-500h80v49c48-85 215-70 259 11l-68 48c-20-28-48-42-84-42"
                  id="r"/>
            <path d="M45-366c1-94 76-144 179-142 86 0 147 28 182 83l-60 42c-30-38-57-50-124-51-53 0-96 19-97 67 0 47 39 74 116 79 103 10 181 38 180 149C419-37 344 9 233 8 144 8 80-20 40-75l59-42c31 38 65 51 135 51 58 0 107-19 107-71 0-70-49-71-129-80-111-8-167-58-167-149"
                  id="s"/>
            <path d="M248-508c135-1 208 86 208 224C456-109 409 9 248 8 115 9 38-82 40-218v-66c-2-136 75-225 208-224zM120-284c0 121 16 221 128 220 106-1 128-100 128-220 0-90-42-152-128-152-85 0-128 63-128 152"
                  id="t"/>
            <path d="M267-434c-71-1-122 51-122 122V0H65v-500h80v49c30-42 62-56 134-57 121 1 182 70 182 196V0h-80v-311c0-82-38-123-114-123"
                  id="u"/>
            <g id="a">
                <use transform="matrix(0.022222222222222223,0,0,0.022222222222222223,0,0)" xlink:href="#p"/>
                <use transform="matrix(0.022222222222222223,0,0,0.022222222222222223,12.533333333333333,0)"
                     xlink:href="#q"/>
                <use transform="matrix(0.022222222222222223,0,0,0.022222222222222223,23.37777777777778,0)"
                     xlink:href="#r"/>
                <use transform="matrix(0.022222222222222223,0,0,0.022222222222222223,32.13333333333334,0)"
                     xlink:href="#s"/>
                <use transform="matrix(0.022222222222222223,0,0,0.022222222222222223,42.488888888888894,0)"
                     xlink:href="#t"/>
                <use transform="matrix(0.022222222222222223,0,0,0.022222222222222223,53.51111111111112,0)"
                     xlink:href="#u"/>
            </g>
            <path d="M481-218C482-85 412 9 281 8c-63 0-108-19-136-58v240H65v-690h80v50c28-39 73-58 136-58 130 0 202 89 200 224v66zm-336-73c0 124 14 228 128 227 106-1 128-100 128-220 0-90-42-152-128-152-83 0-128 59-128 145"
                  id="v"/>
            <path d="M289-253H30v-72h259v72" id="w"/>
            <path d="M250-698c110-1 198 84 198 199v308C452-76 360 9 250 8 140 9 52-76 52-192v-306c-4-116 88-201 198-200zm0 628c65 1 112-54 112-121v-308c2-67-47-122-112-121-66-1-113 54-113 121v308c-2 67 47 122 113 121"
                  id="x"/>
            <path d="M223-690h86V0h-86v-591l-99 71v-94" id="y"/>
            <g id="b">
                <use transform="matrix(0.022222222222222223,0,0,0.022222222222222223,0,0)" xlink:href="#v"/>
                <use transform="matrix(0.022222222222222223,0,0,0.022222222222222223,11.577777777777778,0)"
                     xlink:href="#q"/>
                <use transform="matrix(0.022222222222222223,0,0,0.022222222222222223,22.422222222222224,0)"
                     xlink:href="#r"/>
                <use transform="matrix(0.022222222222222223,0,0,0.022222222222222223,31.17777777777778,0)"
                     xlink:href="#w"/>
                <use transform="matrix(0.022222222222222223,0,0,0.022222222222222223,38.26666666666667,0)"
                     xlink:href="#x"/>
                <use transform="matrix(0.022222222222222223,0,0,0.022222222222222223,49.37777777777778,0)"
                     xlink:href="#y"/>
            </g>
            <path d="M305-690c150-1 249 59 251 200 0 96-45 157-136 184L574 0h-96L334-291H171V0H85v-690h220zm165 200c0-98-58-122-165-122H171v243h134c106-1 165-24 165-121"
                  id="z"/>
            <path d="M230 0C111-1 65-39 65-154v-536h80v516c0 66 13 102 85 100V0" id="A"/>
            <g id="c">
                <use transform="matrix(0.022222222222222223,0,0,0.022222222222222223,0,0)" xlink:href="#z"/>
                <use transform="matrix(0.022222222222222223,0,0,0.022222222222222223,13.333333333333334,0)"
                     xlink:href="#t"/>
                <use transform="matrix(0.022222222222222223,0,0,0.022222222222222223,24.355555555555558,0)"
                     xlink:href="#A"/>
                <use transform="matrix(0.022222222222222223,0,0,0.022222222222222223,30.44444444444444,0)"
                     xlink:href="#q"/>
            </g>
            <g id="d">
                <use transform="matrix(0.022222222222222223,0,0,0.022222222222222223,0,0)" xlink:href="#r"/>
                <use transform="matrix(0.022222222222222223,0,0,0.022222222222222223,8.755555555555556,0)"
                     xlink:href="#t"/>
                <use transform="matrix(0.022222222222222223,0,0,0.022222222222222223,19.77777777777778,0)"
                     xlink:href="#A"/>
                <use transform="matrix(0.022222222222222223,0,0,0.022222222222222223,25.866666666666667,0)"
                     xlink:href="#w"/>
                <use transform="matrix(0.022222222222222223,0,0,0.022222222222222223,32.955555555555556,0)"
                     xlink:href="#x"/>
                <use transform="matrix(0.022222222222222223,0,0,0.022222222222222223,44.06666666666666,0)"
                     xlink:href="#y"/>
            </g>
            <path d="M219 8C111 9 40-44 40-146c0-95 62-143 187-143h119v-58c-2-74-33-85-111-87-71 1-91 8-120 51l-60-42c37-60 84-82 181-83 128 1 190 38 190 161V0h-80v-49C318-4 291 7 219 8zm0-74c103 2 133-44 127-155-96 5-231-25-226 77 0 52 33 78 99 78"
                  id="B"/>
            <path d="M280 0C145 6 85-24 85-154v-274H21v-72h64v-110h80v110h115v72H165v254c-6 91 28 102 115 98V0" id="C"/>
            <path d="M160 0H80v-500h80V0zm5-600H75v-90h90v90" id="D"/>
            <path d="M120-284c0 125 20 222 136 220 55 0 92-19 111-56l62 44C399-20 341 8 256 8 121 9 38-82 40-218v-66c-1-138 79-225 216-224 79 0 136 26 173 78l-63 44c-23-33-60-50-110-50-88-1-136 62-136 152"
                  id="E"/>
            <g id="e">
                <use transform="matrix(0.022222222222222223,0,0,0.022222222222222223,0,0)" xlink:href="#p"/>
                <use transform="matrix(0.022222222222222223,0,0,0.022222222222222223,12.622222222222224,0)"
                     xlink:href="#B"/>
                <use transform="matrix(0.022222222222222223,0,0,0.022222222222222223,23.533333333333328,0)"
                     xlink:href="#r"/>
                <use transform="matrix(0.022222222222222223,0,0,0.022222222222222223,32.28888888888889,0)"
                     xlink:href="#C"/>
                <use transform="matrix(0.022222222222222223,0,0,0.022222222222222223,39.28888888888889,0)"
                     xlink:href="#D"/>
                <use transform="matrix(0.022222222222222223,0,0,0.022222222222222223,44.62222222222223,0)"
                     xlink:href="#E"/>
                <use transform="matrix(0.022222222222222223,0,0,0.022222222222222223,54.488888888888894,0)"
                     xlink:href="#D"/>
                <use transform="matrix(0.022222222222222223,0,0,0.022222222222222223,59.82222222222224,0)"
                     xlink:href="#v"/>
                <use transform="matrix(0.022222222222222223,0,0,0.022222222222222223,71.4,0)" xlink:href="#B"/>
                <use transform="matrix(0.022222222222222223,0,0,0.022222222222222223,82.31111111111112,0)"
                     xlink:href="#u"/>
                <use transform="matrix(0.022222222222222223,0,0,0.022222222222222223,94,0)" xlink:href="#C"/>
            </g>
            <g id="f">
                <use transform="matrix(0.022222222222222223,0,0,0.022222222222222223,0,0)" xlink:href="#v"/>
                <use transform="matrix(0.022222222222222223,0,0,0.022222222222222223,11.577777777777778,0)"
                     xlink:href="#r"/>
                <use transform="matrix(0.022222222222222223,0,0,0.022222222222222223,20.333333333333336,0)"
                     xlink:href="#C"/>
                <use transform="matrix(0.022222222222222223,0,0,0.022222222222222223,27.333333333333336,0)"
                     xlink:href="#w"/>
                <use transform="matrix(0.022222222222222223,0,0,0.022222222222222223,34.422222222222224,0)"
                     xlink:href="#x"/>
                <use transform="matrix(0.022222222222222223,0,0,0.022222222222222223,45.53333333333334,0)"
                     xlink:href="#y"/>
            </g>
            <path fill="#333"
                  d="M24-248c93 1 206-16 204 79-1 75-69 88-152 82V0H24v-248zm52 121c47 0 100 7 100-41 0-47-54-39-100-39v80"
                  id="F"/>
            <path fill="#333"
                  d="M133-34C117-15 103 5 69 4 32 3 11-16 11-54c-1-60 55-63 116-61 1-26-3-47-28-47-18 1-26 9-28 27l-52-2c7-38 36-58 82-57s74 22 75 68l1 82c-1 14 12 18 25 15v27c-30 8-71 5-69-32zm-48 3c29 0 43-24 42-57-32 0-66-3-65 30 0 17 8 27 23 27"
                  id="G"/>
            <path fill="#333" d="M135-150c-39-12-60 13-60 57V0H25l-1-190h47c2 13-1 29 3 40 6-28 27-53 61-41v41" id="H"/>
            <path fill="#333" d="M115-3C79 11 28 4 28-45v-112H4v-33h27l15-45h31v45h36v33H77v99c-1 23 16 31 38 25v30"
                  id="I"/>
            <path fill="#333" d="M25-224v-37h50v37H25zM25 0v-190h50V0H25" id="J"/>
            <path fill="#333"
                  d="M190-63c-7 42-38 67-86 67-59 0-84-38-90-98-12-110 154-137 174-36l-49 2c-2-19-15-32-35-32-30 0-35 28-38 64-6 74 65 87 74 30"
                  id="K"/>
            <path fill="#333"
                  d="M135-194c53 0 70 44 70 98 0 56-19 98-73 100-31 1-45-17-59-34 3 33 2 69 2 105H25l-1-265h48c2 10 0 23 3 31 11-24 29-35 60-35zM114-30c33 0 39-31 40-66 0-38-9-64-40-64-56 0-55 130 0 130"
                  id="L"/>
            <path fill="#333"
                  d="M135-194c87-1 58 113 63 194h-50c-7-57 23-157-34-157-59 0-34 97-39 157H25l-1-190h47c2 12-1 28 3 38 12-26 28-41 61-42"
                  id="M"/>
            <path fill="#333"
                  d="M169-182c-1-43-94-46-97-3 18 66 151 10 154 114 3 95-165 93-204 36-6-8-10-19-12-30l50-8c3 46 112 56 116 5-17-69-150-10-154-114-4-87 153-88 188-35 5 8 8 18 10 28"
                  id="N"/>
            <path fill="#333"
                  d="M67-125c0 53 21 87 73 88 37 1 54-22 65-47l45 17C233-25 199 4 140 4 58 4 20-42 15-125 8-235 124-281 211-232c18 10 29 29 36 50l-46 12c-8-25-30-41-62-41-52 0-71 34-72 86"
                  id="O"/>
            <g id="g">
                <use transform="matrix(0.04938271604938272,0,0,0.04938271604938272,0,0)" xlink:href="#F"/>
                <use transform="matrix(0.04938271604938272,0,0,0.04938271604938272,11.851851851851853,0)"
                     xlink:href="#G"/>
                <use transform="matrix(0.04938271604938272,0,0,0.04938271604938272,21.7283950617284,0)"
                     xlink:href="#H"/>
                <use transform="matrix(0.04938271604938272,0,0,0.04938271604938272,28.64197530864198,0)"
                     xlink:href="#I"/>
                <use transform="matrix(0.04938271604938272,0,0,0.04938271604938272,34.518518518518526,0)"
                     xlink:href="#J"/>
                <use transform="matrix(0.04938271604938272,0,0,0.04938271604938272,39.4567901234568,0)"
                     xlink:href="#K"/>
                <use transform="matrix(0.04938271604938272,0,0,0.04938271604938272,49.33333333333334,0)"
                     xlink:href="#L"/>
                <use transform="matrix(0.04938271604938272,0,0,0.04938271604938272,60.14814814814817,0)"
                     xlink:href="#G"/>
                <use transform="matrix(0.04938271604938272,0,0,0.04938271604938272,70.02469135802471,0)"
                     xlink:href="#M"/>
                <use transform="matrix(0.04938271604938272,0,0,0.04938271604938272,80.83950617283952,0)"
                     xlink:href="#I"/>
                <use transform="matrix(0.04938271604938272,0,0,0.04938271604938272,86.71604938271606,0)"
                     xlink:href="#N"/>
                <use transform="matrix(0.04938271604938272,0,0,0.04938271604938272,98.56790123456791,0)"
                     xlink:href="#O"/>
            </g>
            <path fill="#333"
                  d="M240-174c0 40-23 61-54 70L253 0h-59l-57-94H76V0H24v-248c93 4 217-23 216 74zM76-134c48-2 112 12 112-38 0-48-66-32-112-35v73"
                  id="P"/>
            <path fill="#333"
                  d="M110-194c64 0 96 36 96 99 0 64-35 99-97 99-61 0-95-36-95-99 0-62 34-99 96-99zm-1 164c35 0 45-28 45-65 0-40-10-65-43-65-34 0-45 26-45 65 0 36 10 65 43 65"
                  id="Q"/>
            <path fill="#333" d="M25 0v-261h50V0H25" id="R"/>
            <path fill="#333"
                  d="M185-48c-13 30-37 53-82 52C43 2 14-33 14-96s30-98 90-98c62 0 83 45 84 108H66c0 31 8 55 39 56 18 0 30-7 34-22zm-45-69c5-46-57-63-70-21-2 6-4 13-4 21h74"
                  id="S"/>
            <g id="h">
                <use transform="matrix(0.04938271604938272,0,0,0.04938271604938272,0,0)" xlink:href="#P"/>
                <use transform="matrix(0.04938271604938272,0,0,0.04938271604938272,12.790123456790125,0)"
                     xlink:href="#Q"/>
                <use transform="matrix(0.04938271604938272,0,0,0.04938271604938272,23.60493827160494,0)"
                     xlink:href="#R"/>
                <use transform="matrix(0.04938271604938272,0,0,0.04938271604938272,28.543209876543212,0)"
                     xlink:href="#S"/>
            </g>
            <path d="M305 0H85v-690h220c190-7 250 145 250 381C555-103 472 0 305 0zm164-309c3-169-10-305-164-303H171v534h134c129-5 161-87 164-231"
                  id="T"/>
            <g id="i">
                <use transform="matrix(0.022222222222222223,0,0,0.022222222222222223,0,0)" xlink:href="#T"/>
                <use transform="matrix(0.022222222222222223,0,0,0.022222222222222223,13.444444444444445,0)"
                     xlink:href="#q"/>
                <use transform="matrix(0.022222222222222223,0,0,0.022222222222222223,24.28888888888889,0)"
                     xlink:href="#v"/>
                <use transform="matrix(0.022222222222222223,0,0,0.022222222222222223,35.86666666666667,0)"
                     xlink:href="#D"/>
                <use transform="matrix(0.022222222222222223,0,0,0.022222222222222223,41.2,0)" xlink:href="#E"/>
                <use transform="matrix(0.022222222222222223,0,0,0.022222222222222223,51.06666666666667,0)"
                     xlink:href="#C"/>
                <use transform="matrix(0.022222222222222223,0,0,0.022222222222222223,58.06666666666667,0)"
                     xlink:href="#D"/>
                <use transform="matrix(0.022222222222222223,0,0,0.022222222222222223,63.400000000000006,0)"
                     xlink:href="#t"/>
                <use transform="matrix(0.022222222222222223,0,0,0.022222222222222223,74.42222222222223,0)"
                     xlink:href="#u"/>
            </g>
            <path d="M40-284c-2-134 70-224 200-224 63 0 108 19 136 58v-240h80V0h-80v-44C349-9 304 8 240 8 109 9 39-85 40-218v-66zm80 0c0 120 21 219 128 220 85 1 128-60 128-147 0-124-16-226-128-225-86 0-128 62-128 152"
                  id="U"/>
            <g id="j">
                <use transform="matrix(0.022222222222222223,0,0,0.022222222222222223,0,0)" xlink:href="#U"/>
                <use transform="matrix(0.022222222222222223,0,0,0.022222222222222223,11.577777777777778,0)"
                     xlink:href="#v"/>
                <use transform="matrix(0.022222222222222223,0,0,0.022222222222222223,23.155555555555555,0)"
                     xlink:href="#C"/>
                <use transform="matrix(0.022222222222222223,0,0,0.022222222222222223,30.155555555555555,0)"
                     xlink:href="#w"/>
                <use transform="matrix(0.022222222222222223,0,0,0.022222222222222223,37.24444444444445,0)"
                     xlink:href="#x"/>
                <use transform="matrix(0.022222222222222223,0,0,0.022222222222222223,48.355555555555554,0)"
                     xlink:href="#y"/>
            </g>
            <path d="M547-215C530-77 448 4 300 8 108 13 50-143 50-383c0-210 83-315 250-315 149 1 229 86 248 223h-84c-21-92-62-144-164-145-154-2-168 142-164 313 3 144 36 237 164 237 102 0 143-55 164-145h83"
                  id="V"/>
            <path d="M267-434c-71-1-122 51-122 122V0H65v-690h80v239c30-42 62-56 134-57 121 1 182 70 182 196V0h-80v-311c0-82-38-123-114-123"
                  id="W"/>
            <g id="k">
                <use transform="matrix(0.022222222222222223,0,0,0.022222222222222223,0,0)" xlink:href="#V"/>
                <use transform="matrix(0.022222222222222223,0,0,0.022222222222222223,12.844444444444445,0)"
                     xlink:href="#W"/>
                <use transform="matrix(0.022222222222222223,0,0,0.022222222222222223,24.533333333333335,0)"
                     xlink:href="#B"/>
                <use transform="matrix(0.022222222222222223,0,0,0.022222222222222223,35.44444444444444,0)"
                     xlink:href="#r"/>
                <use transform="matrix(0.022222222222222223,0,0,0.022222222222222223,43.977777777777774,0)"
                     xlink:href="#B"/>
                <use transform="matrix(0.022222222222222223,0,0,0.022222222222222223,54.88888888888888,0)"
                     xlink:href="#E"/>
                <use transform="matrix(0.022222222222222223,0,0,0.022222222222222223,64.75555555555556,0)"
                     xlink:href="#C"/>
                <use transform="matrix(0.022222222222222223,0,0,0.022222222222222223,71.75555555555556,0)"
                     xlink:href="#q"/>
                <use transform="matrix(0.022222222222222223,0,0,0.022222222222222223,82.60000000000001,0)"
                     xlink:href="#r"/>
            </g>
            <g id="l">
                <use transform="matrix(0.022222222222222223,0,0,0.022222222222222223,0,0)" xlink:href="#E"/>
                <use transform="matrix(0.022222222222222223,0,0,0.022222222222222223,9.866666666666667,0)"
                     xlink:href="#W"/>
                <use transform="matrix(0.022222222222222223,0,0,0.022222222222222223,21.555555555555557,0)"
                     xlink:href="#r"/>
                <use transform="matrix(0.022222222222222223,0,0,0.022222222222222223,30.311111111111114,0)"
                     xlink:href="#w"/>
                <use transform="matrix(0.022222222222222223,0,0,0.022222222222222223,37.400000000000006,0)"
                     xlink:href="#x"/>
                <use transform="matrix(0.022222222222222223,0,0,0.022222222222222223,48.51111111111112,0)"
                     xlink:href="#y"/>
            </g>
            <path fill="#333"
                  d="M24-248c120-7 223 5 221 122C244-46 201 0 124 0H24v-248zM76-40c74 7 117-18 117-86 0-67-45-88-117-82v168"
                  id="X"/>
            <g id="m">
                <use transform="matrix(0.04938271604938272,0,0,0.04938271604938272,0,0)" xlink:href="#X"/>
                <use transform="matrix(0.04938271604938272,0,0,0.04938271604938272,12.790123456790125,0)"
                     xlink:href="#S"/>
                <use transform="matrix(0.04938271604938272,0,0,0.04938271604938272,22.66666666666667,0)"
                     xlink:href="#L"/>
                <use transform="matrix(0.04938271604938272,0,0,0.04938271604938272,33.48148148148149,0)"
                     xlink:href="#J"/>
                <use transform="matrix(0.04938271604938272,0,0,0.04938271604938272,38.41975308641976,0)"
                     xlink:href="#K"/>
                <use transform="matrix(0.04938271604938272,0,0,0.04938271604938272,48.296296296296305,0)"
                     xlink:href="#I"/>
                <use transform="matrix(0.04938271604938272,0,0,0.04938271604938272,54.17283950617284,0)"
                     xlink:href="#J"/>
                <use transform="matrix(0.04938271604938272,0,0,0.04938271604938272,59.111111111111114,0)"
                     xlink:href="#Q"/>
                <use transform="matrix(0.04938271604938272,0,0,0.04938271604938272,69.92592592592594,0)"
                     xlink:href="#M"/>
            </g>
            <path fill="#333"
                  d="M137-138c1-29-70-34-71-4 15 46 118 7 119 86 1 83-164 76-172 9l43-7c4 19 20 25 44 25 33 8 57-30 24-41C81-84 22-81 20-136c-2-80 154-74 161-7"
                  id="Y"/>
            <g id="n">
                <use transform="matrix(0.04938271604938272,0,0,0.04938271604938272,0,0)" xlink:href="#X"/>
                <use transform="matrix(0.04938271604938272,0,0,0.04938271604938272,12.790123456790125,0)"
                     xlink:href="#S"/>
                <use transform="matrix(0.04938271604938272,0,0,0.04938271604938272,22.66666666666667,0)"
                     xlink:href="#L"/>
                <use transform="matrix(0.04938271604938272,0,0,0.04938271604938272,33.48148148148149,0)"
                     xlink:href="#J"/>
                <use transform="matrix(0.04938271604938272,0,0,0.04938271604938272,38.41975308641976,0)"
                     xlink:href="#K"/>
                <use transform="matrix(0.04938271604938272,0,0,0.04938271604938272,48.296296296296305,0)"
                     xlink:href="#I"/>
                <use transform="matrix(0.04938271604938272,0,0,0.04938271604938272,54.17283950617284,0)"
                     xlink:href="#Y"/>
            </g>
            <g id="o">
                <use transform="matrix(0.04938271604938272,0,0,0.04938271604938272,0,0)" xlink:href="#X"/>
                <use transform="matrix(0.04938271604938272,0,0,0.04938271604938272,12.790123456790125,0)"
                     xlink:href="#S"/>
                <use transform="matrix(0.04938271604938272,0,0,0.04938271604938272,22.66666666666667,0)"
                     xlink:href="#L"/>
                <use transform="matrix(0.04938271604938272,0,0,0.04938271604938272,33.48148148148149,0)"
                     xlink:href="#J"/>
                <use transform="matrix(0.04938271604938272,0,0,0.04938271604938272,38.41975308641976,0)"
                     xlink:href="#K"/>
                <use transform="matrix(0.04938271604938272,0,0,0.04938271604938272,48.296296296296305,0)"
                     xlink:href="#I"/>
                <use transform="matrix(0.04938271604938272,0,0,0.04938271604938272,54.17283950617284,0)"
                     xlink:href="#Q"/>
                <use transform="matrix(0.04938271604938272,0,0,0.04938271604938272,64.98765432098766,0)"
                     xlink:href="#H"/>
            </g>
        </defs>
    </g>
</svg>
