<svg xmlns="http://www.w3.org/2000/svg" xmlns:xlink="http://www.w3.org/1999/xlink" xmlns:lucid="lucid" width="1282" height="1282"><g transform="translate(721.0000000265476 -2158.9999999734523)" lucid:page-tab-id="0_0"><path d="M-160 2166a6 6 0 0 1 6-6H-6a6 6 0 0 1 6 6v148a6 6 0 0 1-6 6h-148a6 6 0 0 1-6-6z" stroke="#000" stroke-width="2" fill="#fff"/><use xlink:href="#a" transform="matrix(1,0,0,1,-155,2165) translate(-3.4777777777777885 78.13333333333333)"/><path d="M80 2406a6 6 0 0 1 6-6h148a6 6 0 0 1 6 6v148a6 6 0 0 1-6 6H86a6 6 0 0 1-6-6z" stroke="#000" stroke-width="2" fill="#fff"/><use xlink:href="#b" transform="matrix(1,0,0,1,85,2405) translate(39.75555555555555 78.2486111111111)"/><path d="M-400 2406a6 6 0 0 1 6-6h148a6 6 0 0 1 6 6v148a6 6 0 0 1-6 6h-148a6 6 0 0 1-6-6z" stroke="#000" stroke-width="2" fill="#fff"/><use xlink:href="#b" transform="matrix(1,0,0,1,-395,2405) translate(39.75555555555555 78.2486111111111)"/><path d="M-160 2966a6 6 0 0 1 6-6H-6a6 6 0 0 1 6 6v148a6 6 0 0 1-6 6h-148a6 6 0 0 1-6-6z" stroke="#000" stroke-width="2" fill="#fff"/><use xlink:href="#b" transform="matrix(1,0,0,1,-155,2965) translate(39.75555555555555 78.2486111111111)"/><path d="M-400 2686a6 6 0 0 1 6-6h148a6 6 0 0 1 6 6v148a6 6 0 0 1-6 6h-148a6 6 0 0 1-6-6z" stroke="#000" stroke-width="2" fill="#fff"/><use xlink:href="#c" transform="matrix(1,0,0,1,-395,2685) translate(31.944444444444443 78.2486111111111)"/><path d="M80 2686a6 6 0 0 1 6-6h148a6 6 0 0 1 6 6v148a6 6 0 0 1-6 6H86a6 6 0 0 1-6-6z" stroke="#000" stroke-width="2" fill="#fff"/><use xlink:href="#c" transform="matrix(1,0,0,1,85,2685) translate(31.944444444444443 78.2486111111111)"/><path d="M-720 2566a6 6 0 0 1 6-6h148a6 6 0 0 1 6 6v148a6 6 0 0 1-6 6h-148a6 6 0 0 1-6-6z" stroke="#000" stroke-width="2" fill="#fff"/><use xlink:href="#d" transform="matrix(1,0,0,1,-715,2565) translate(2.24444444444444 78.2486111111111)"/><path d="M-720 2806a6 6 0 0 1 6-6h148a6 6 0 0 1 6 6v148a6 6 0 0 1-6 6h-148a6 6 0 0 1-6-6z" stroke="#000" stroke-width="2" fill="#fff"/><use xlink:href="#e" transform="matrix(1,0,0,1,-715,2805) translate(49.27777777777778 78.2486111111111)"/><path d="M400 2566a6 6 0 0 1 6-6h148a6 6 0 0 1 6 6v148a6 6 0 0 1-6 6H406a6 6 0 0 1-6-6z" stroke="#000" stroke-width="2" fill="#fff"/><use xlink:href="#f" transform="matrix(1,0,0,1,405,2565) translate(31.166666666666664 64.1861111111111)"/><use xlink:href="#g" transform="matrix(1,0,0,1,405,2565) translate(29.07777777777777 92.54166666666666)"/><path d="M400 2806a6 6 0 0 1 6-6h148a6 6 0 0 1 6 6v148a6 6 0 0 1-6 6H406a6 6 0 0 1-6-6z" stroke="#000" stroke-width="2" fill="#fff"/><use xlink:href="#e" transform="matrix(1,0,0,1,405,2805) translate(49.27777777777778 78.2486111111111)"/><path d="M80 2966a6 6 0 0 1 6-6h148a6 6 0 0 1 6 6v148a6 6 0 0 1-6 6H86a6 6 0 0 1-6-6z" stroke="#000" stroke-width="2" fill="#fff"/><use xlink:href="#b" transform="matrix(1,0,0,1,85,2965) translate(39.75555555555555 78.2486111111111)"/><path d="M-400 2966a6 6 0 0 1 6-6h148a6 6 0 0 1 6 6v148a6 6 0 0 1-6 6h-148a6 6 0 0 1-6-6z" stroke="#000" stroke-width="2" fill="#fff"/><use xlink:href="#b" transform="matrix(1,0,0,1,-395,2965) translate(39.75555555555555 78.2486111111111)"/><path d="M-160 3286a6 6 0 0 1 6-6H-6a6 6 0 0 1 6 6v148a6 6 0 0 1-6 6h-148a6 6 0 0 1-6-6z" stroke="#000" stroke-width="2" fill="#fff"/><use xlink:href="#c" transform="matrix(1,0,0,1,-155,3285) translate(31.944444444444443 78.2486111111111)"/><path d="M239.8 3286a6 6 0 0 1 6-6h148a6 6 0 0 1 6 6v148a6 6 0 0 1-6 6h-148a6 6 0 0 1-6-6z" stroke="#000" stroke-width="2" fill="#fff"/><use xlink:href="#h" transform="matrix(1,0,0,1,244.7996371523036,3285) translate(29.322222222222216 78.2486111111111)"/><path d="M-559.8 3286a6 6 0 0 1 6-6h148a6 6 0 0 1 6 6v148a6 6 0 0 1-6 6h-148a6 6 0 0 1-6-6z" stroke="#000" stroke-width="2" fill="#fff"/><use xlink:href="#i" transform="matrix(1,0,0,1,-554.7996371523036,3285) translate(24.5 78.2486111111111)"/><path d="M-173.33 3217.77l10.16 5.03 7.45 4.08 5.82 3.52 4.7 3.13 3.93 2.84 3.3 2.62 2.83 2.43 2.45 2.3 2.15 2.17 1.87 2.1 1.66 2 1.47 1.92 1.3 1.88 1.18 1.84 1.04 1.8.93 1.78.66 1.4-1.8.86-.66-1.37-.88-1.7-1-1.72-1.13-1.77-1.27-1.8-1.42-1.87-1.6-1.94-1.8-2.03-2.1-2.12-2.38-2.24-2.76-2.37-3.24-2.57-3.85-2.8-4.64-3.07-5.75-3.5-7.37-4.03-10.05-4.98-21.25-8.7h5.28zm-145.63-94.9l.1 1.8.2 1.77.25 1.74.32 1.7.4 1.68.46 1.66.54 1.67.62 1.64.7 1.67.8 1.7.88 1.7 1 1.72 1.12 1.77 1.26 1.8 1.42 1.87 1.6 1.94 1.82 2.03 2.08 2.12 2.4 2.24 2.75 2.37 3.24 2.57 3.86 2.8 4.64 3.07 5.75 3.5 7.38 4.03 10.07 5 15.98 7.06 5.06 2.06h-5.28l-.56-.23-16.05-7.1-10.15-5.03-7.45-4.08-5.82-3.52-4.7-3.13-3.93-2.84-3.3-2.62-2.83-2.43-2.45-2.3-2.14-2.17-1.87-2.1-1.65-2-1.47-1.92-1.3-1.88-1.17-1.84-1.04-1.8-.92-1.78-.83-1.75-.72-1.75-.65-1.74-.57-1.74-.48-1.74-.42-1.77-.34-1.8-.27-1.8-.2-1.86-.1-1.9-.03-.92 2-.04z" stroke="#000" stroke-width=".05"/><path d="M-318.98 3122l-2 .05-.02-1.05h2z"/><path d="M-318.95 3122.03l-2.05.04-.03-1.1h2.05zm-2.03-1l.03 1 1.95-.05-.02-.95z" stroke="#000" stroke-width=".05"/><path d="M-118.15 3275.84l-7.54-12.97 9.07-1.96z"/><path d="M-117.47 3279l-9.78-16.82 11.75-2.53zm-6.67-15.44l5.3 9.1 1.07-10.48z" stroke="#000" stroke-width=".05"/><use xlink:href="#j" transform="matrix(1,0,0,1,-250.855213209454,3189.5628939506555) translate(0 14.222222222222223)"/><path d="M20.44 3218.27L9.9 3223.5l-7.6 4.16-5.9 3.56-4.73 3.14-3.9 2.84-3.3 2.6-2.82 2.43-2.42 2.28-2.1 2.16-1.86 2.05-1.63 1.98-1.44 1.9-1.28 1.84-1.14 1.8-1.02 1.75-.9 1.74-.82 1.73-1.8-.85.83-1.76.94-1.8 1.07-1.84 1.18-1.87 1.33-1.9 1.5-1.96 1.68-2.04 1.9-2.1 2.17-2.22 2.5-2.34 2.86-2.47 3.35-2.66 3.98-2.88 4.8-3.2 5.96-3.6 7.67-4.2 10.64-5.27 34.8-14.48h5.2zm140.54-96.25l-.02.98-.12 1.93-.2 1.9-.28 1.85-.34 1.82-.43 1.8-.5 1.78-.58 1.77-.66 1.77-.74 1.78-.84 1.78-.95 1.8-1.06 1.84-1.18 1.87-1.34 1.9-1.5 1.96-1.68 2.04-1.9 2.1-2.17 2.22-2.47 2.34-2.88 2.47-3.36 2.66-4 2.88-4.8 3.2-5.95 3.6-7.68 4.2-4.74 2.35h-4.5l8.3-4.12 7.62-4.16 5.88-3.56 4.74-3.14 3.9-2.84 3.3-2.6 2.82-2.43 2.4-2.28 2.12-2.16 1.85-2.05 1.63-1.98 1.44-1.9 1.28-1.84 1.14-1.8 1.02-1.75.9-1.74.8-1.72.72-1.7.63-1.68.55-1.7.48-1.7.4-1.72.33-1.74.25-1.77.2-1.8.1-1.86.03-.92z" stroke="#000" stroke-width=".05"/><path d="M160.98 3122.05l-2-.04.02-1h2z"/><path d="M161 3122.07l-2.05-.04.03-1.06h2.05zm-1.98-1.05l-.02.96 1.95.04.03-1z" stroke="#000" stroke-width=".05"/><path d="M-29.5 3262.83l-7.5 13-1.58-14.9z"/><path d="M-27.96 3262.14l-9.7 16.86-2.06-19.34zm-8.36 10.53l5.25-9.14-6.37-1.35z" stroke="#000" stroke-width=".05"/><use xlink:href="#j" transform="matrix(1,0,0,1,50.6017101046765,3180.631437347124) translate(0 14.222222222222223)"/><path d="M87.88 3403.6H2v-2h85.88zm132.42 0h-68.37v-2h68.37z" stroke="#000" stroke-width=".05"/><path d="M2.03 3403.6H1v-2h1.03z"/><path d="M2.05 3403.63H.98v-2.05h1.07zm-1.02-2v1.95H2v-1.95z" stroke="#000" stroke-width=".05"/><path d="M235.56 3402.6l-14.26 4.64v-9.27z"/><path d="M238.8 3402.6l-18.5 6.02v-12.02zm-16.5 3.27l10.03-3.26-10.03-3.25z" stroke="#000" stroke-width=".05"/><use xlink:href="#k" transform="matrix(1,0,0,1,87.87693948827692,3391.9424682649806) translate(0 14.222222222222223)"/><path d="M-315.85 3402.5h-64.45v-2h64.45zm153.85 0h-81.95v-2H-162z" stroke="#000" stroke-width=".05"/><path d="M-161 3402.5h-1.03v-2h1.03z"/><path d="M-160.97 3402.5h-1.08v-2.04h1.08zm-1.03-2v1.96h.97v-1.95z" stroke="#000" stroke-width=".05"/><path d="M-381.3 3406.12l-14.26-4.63 14.26-4.65z"/><path d="M-380.3 3407.5l-18.5-6 18.5-6.03zm-12.03-6l10.03 3.24v-6.5z" stroke="#000" stroke-width=".05"/><use xlink:href="#l" transform="matrix(1,0,0,1,-315.85219130985473,3390.818386716363) translate(0 14.222222222222223)"/><path d="M-320.27 3321.55h-77.53v-2h77.53zm140.77 0h-60.03v-2h60.03z" stroke="#000" stroke-width=".05"/><path d="M-397.77 3321.55h-1.03v-2h1.03z"/><path d="M-397.75 3321.58h-1.07v-2.05h1.07zm-1.02-2v1.95h.97v-1.95z" stroke="#000" stroke-width=".05"/><path d="M-164.24 3320.55l-14.26 4.64v-9.28z"/><path d="M-161 3320.55l-18.5 6v-12zm-16.5 3.26l10.03-3.25-10.03-3.26z" stroke="#000" stroke-width=".05"/><use xlink:href="#m" transform="matrix(1,0,0,1,-320.2684321211673,3309.8841718535655) translate(0 14.222222222222223)"/><path d="M79.53 3320.43H19.5v-2h60.03zm158.27 0h-77.53v-2h77.53z" stroke="#000" stroke-width=".05"/><path d="M238.8 3320.43h-1.03v-2h1.03z"/><path d="M238.82 3320.45h-1.07v-2.05h1.07zm-1.03-2v1.95h.97v-1.95z" stroke="#000" stroke-width=".05"/><path d="M18.5 3324.06l-14.26-4.63 14.26-4.64z"/><path d="M19.5 3325.44l-18.5-6 18.5-6.03zm-12.03-6l10.03 3.25v-6.53z" stroke="#000" stroke-width=".05"/><use xlink:href="#m" transform="matrix(1,0,0,1,79.5276373112323,3308.760087356481) translate(0 14.222222222222223)"/><path d="M-104.1 3260.5h-2v-49.83h2zm0-71.16h-2V3122h2z" stroke="#000" stroke-width=".05"/><path d="M-104.1 3122.03h-2V3121h2z"/><path d="M-104.08 3122.05h-2.05v-1.08h2.05zm-2-1.03v.98h1.95v-.97z" stroke="#000" stroke-width=".05"/><path d="M-105.1 3275.76l-4.64-14.26h9.27z"/><path d="M-105.1 3279l-6.02-18.5h12.03zm-3.26-16.5l3.26 10.03 3.26-10.03z" stroke="#000" stroke-width=".05"/><use xlink:href="#n" transform="matrix(1,0,0,1,-119.37477114068649,3189.3345352838323) translate(0 14.222222222222223)"/><path d="M-55.77 3278h-2v-101.9h2zm0-123.24h-2v-15.26h2z" stroke="#000" stroke-width=".05"/><path d="M-55.77 3279h-2v-1.03h2z"/><path d="M-55.74 3279.03h-2.05v-1.08h2.06zm-2-1.03v.97h1.95v-.97z" stroke="#000" stroke-width=".05"/><path d="M-52.13 3138.5h-9.27l4.63-14.26z"/><path d="M-50.76 3139.5h-12.02l6-18.5zm-9.27-2h6.52l-3.27-10.03z" stroke="#000" stroke-width=".05"/><use xlink:href="#o" transform="matrix(1,0,0,1,-89.73041611239327,3154.7602683826412) translate(0 14.222222222222223)"/><path d="M219.13 2958.5h-1v-101.1h1z" stroke="#3a414a" stroke-width=".05" fill="#3a414a"/><path d="M219.13 2959h-1v-.5h1z" fill="#3a414a"/><path d="M219.16 2959.03h-1.05v-.57h1.06zm-1-.52v.47h.95v-.46z" stroke="#3a414a" stroke-width=".05" fill="#3a414a"/><path d="M223.27 2856.9H214l4.63-14.28z" fill="#3a414a"/><path d="M223.96 2857.4H213.3l5.33-16.4zm-9.27-1h7.88l-3.95-12.16zM177.54 2942.6h-1v-20.55h1zm0-41.88h-1v-59.22h1z" stroke="#3a414a" stroke-width=".05" fill="#3a414a"/><path d="M177.54 2841.5h-1v-.5h1z" fill="#3a414a"/><path d="M177.57 2841.54h-1.05v-.57h1.05zm-1-.5v.45h.95v-.47z" stroke="#3a414a" stroke-width=".05" fill="#3a414a"/><path d="M177.04 2957.38l-4.63-14.27h9.28z" fill="#3a414a"/><path d="M177.04 2959l-5.32-16.4h10.65zm-3.94-15.4l3.94 12.16 3.95-12.15z" stroke="#3a414a" stroke-width=".05" fill="#3a414a"/><use xlink:href="#o" transform="matrix(1,0,0,1,144.0795304982138,2900.715771464622) translate(0 14.222222222222223)"/><path d="M23.03 2908.84l-9.04 3.53-10.12 4.48-6.9 3.4-5.17 2.85-4.07 2.47-3.32 2.2-2.75 2-2.32 1.85-2 1.7-1.7 1.62-1.5 1.53-1.3 1.45-1.16 1.4-1.02 1.33-.9 1.3-.8 1.26-.7 1.24-.65 1.2-.56 1.2-.5 1.2-.44 1.17-.38 1.2-.33 1.16-.3 1.2-.22 1.2-.18 1.2-.13 1.26-.08 1.27v.32l-2-.04v-.37l.08-1.35.14-1.33.2-1.3.24-1.28.3-1.27.35-1.26.42-1.25.46-1.26.53-1.27.6-1.27.7-1.3.74-1.3.85-1.32.93-1.37 1.07-1.4 1.2-1.46 1.37-1.5 1.55-1.6 1.78-1.65 2.05-1.77 2.4-1.9 2.82-2.05 3.4-2.25 4.14-2.5 5.26-2.9 6.97-3.44 10.2-4.52 9.8-3.82zm95.56-49.87l-.13.2-.95 1.36-1.07 1.4-1.2 1.46-1.37 1.5-1.55 1.6-1.78 1.65-2.05 1.77-2.4 1.9-2.82 2.05-3.4 2.25-4.14 2.5-5.25 2.9-6.98 3.44-10.2 4.52-9.85 3.77v-2.14l9.1-3.47 10.1-4.48 6.9-3.4 5.17-2.85 4.08-2.47 3.32-2.2 2.76-2 2.33-1.85 2-1.7 1.7-1.62 1.5-1.53 1.3-1.45 1.15-1.4 1.02-1.33.9-1.3.1-.15z" stroke="#000" stroke-width=".05"/><path d="M-35.5 2958l-.03 1h-2l.02-1.05z"/><path d="M-35.5 2957.97v1.06h-2.06l.02-1.1zm-2 1h1.94l.02-.95-1.95-.04z" stroke="#000" stroke-width=".05"/><path d="M122.4 2859.1l-8.87-2.72 8.6-12.3z"/><path d="M123.42 2860.45l-11.5-3.52L123.1 2841zm-8.28-4.63l6.23 1.9-.18-10.53z" stroke="#000" stroke-width=".05"/><use xlink:href="#p" transform="matrix(1,0,0,1,23.0270603459544,2889.2611762690303) translate(0 14.222222222222223)"/><path d="M-169.47 2910.52l10.2 4.52 6.96 3.45 5.24 2.87 4.15 2.5 3.38 2.26 2.83 2.05 2.4 1.9 2.05 1.77 1.78 1.66 1.55 1.6 1.36 1.5 1.2 1.46 1.07 1.4.96 1.38.85 1.33.77 1.3.67 1.3.6 1.26.53 1.26.47 1.25.4 1.26.36 1.27.3 1.27.24 1.28.2 1.3.13 1.33.08 1.36v.38l-2 .04v-.33l-.07-1.28-.14-1.25-.18-1.22-.22-1.2-.28-1.18-.33-1.18-.4-1.2-.42-1.17-.5-1.18-.55-1.2-.64-1.2-.7-1.24-.8-1.26-.9-1.3-1.02-1.33-1.15-1.38-1.3-1.45-1.5-1.53-1.72-1.6-1.97-1.72-2.33-1.84-2.76-2-3.32-2.2-4.08-2.48-5.18-2.84-6.9-3.4-10.1-4.5-9.04-3.52v-2.14zm-103.58-52.46l.9 1.3 1.02 1.33 1.15 1.38 1.3 1.45 1.5 1.53 1.7 1.6 2 1.72 2.33 1.84 2.76 2 3.33 2.2 4.08 2.48 5.2 2.84 6.88 3.4 10.1 4.5 9.1 3.47v2.15l-9.86-3.77-10.2-4.52-6.96-3.45-5.25-2.87-4.14-2.5-3.4-2.26-2.82-2.05-2.4-1.9-2.04-1.77-1.78-1.66-1.55-1.6-1.37-1.5-1.2-1.46-1.07-1.4-.95-1.38-.12-.2 1.7-1.06z" stroke="#000" stroke-width=".05"/><path d="M-118.72 2959h-2l-.02-1 2-.05z"/><path d="M-118.7 2959.03h-2.04l-.02-1.06 2.05-.04zm-2-1v.94h1.96l-.02-1z" stroke="#000" stroke-width=".05"/><path d="M-269.78 2856.38l-8.86 2.7.25-15z"/><path d="M-268.17 2856.93l-11.5 3.52.33-19.45zm-9.45.8l6.23-1.9-6.04-8.64z" stroke="#000" stroke-width=".05"/><use xlink:href="#p" transform="matrix(1,0,0,1,-219.7216893320896,2889.2611824533265) translate(0 14.222222222222223)"/><path d="M-360.9 2942.6h-1v-17.18h1zm0-38.5h-1v-62.6h1z" stroke="#3a414a" stroke-width=".05" fill="#3a414a"/><path d="M-360.9 2841.5h-1v-.5h1z" fill="#3a414a"/><path d="M-360.87 2841.54h-1.05v-.57h1.05zm-1-.5v.45h.95v-.47z" stroke="#3a414a" stroke-width=".05" fill="#3a414a"/><path d="M-361.4 2957.38l-4.63-14.27h9.27z" fill="#3a414a"/><path d="M-361.4 2959l-5.32-16.4h10.65zm-3.94-15.4l3.94 12.16 3.95-12.15z" stroke="#3a414a" stroke-width=".05" fill="#3a414a"/><use xlink:href="#o" transform="matrix(1,0,0,1,-394.35779793223935,2904.088030273268) translate(0 14.222222222222223)"/><path d="M-319.5 2958.5h-1v-59.68h1zm0-81h-1v-20.12h1z" stroke="#3a414a" stroke-width=".05" fill="#3a414a"/><path d="M-319.5 2959h-1v-.5h1z" fill="#3a414a"/><path d="M-319.48 2959.03h-1.04v-.57h1.04zm-1-.52v.47h.96v-.46z" stroke="#3a414a" stroke-width=".05" fill="#3a414a"/><path d="M-315.37 2856.88h-9.26l4.63-14.26z" fill="#3a414a"/><path d="M-314.68 2857.38h-10.64L-320 2841zm-9.27-1h7.9l-3.95-12.14z" stroke="#3a414a" stroke-width=".05" fill="#3a414a"/><use xlink:href="#n" transform="matrix(1,0,0,1,-334.2716049382716,2877.485655227284) translate(0 14.222222222222223)"/><path d="M337.1 2863.06l4.52 5.7 3.78 4.4 3.35 3.56 3.06 3 2.87 2.58 2.7 2.25 2.62 1.98 2.52 1.76 2.47 1.55 2.43 1.4 2.4 1.27 2.42 1.14 2.4 1 2.44.9 2.46.82 1.42.4-.54 1.92-1.46-.4-2.55-.84-2.5-.93-2.5-1.05-2.48-1.17-2.5-1.3-2.5-1.43-2.54-1.62-2.58-1.8-2.68-2.04-2.78-2.3-2.92-2.62-3.13-3.06-3.4-3.63-3.82-4.46-4.6-5.8-9.3-13.65h2.42zm-37.18-53.1l4.58 5.8 6.27 8.66 3.3 4.83h-2.43l-2.5-3.68-6.24-8.6-4.52-5.73-2.26-2.62h2.64zm-55.7-31.03l3.06.2 2.94.3 2.82.42 2.73.52 2.66.62 2.6.72 2.54.82 2.5.94 2.5 1.05 2.48 1.16 2.5 1.3 2.5 1.44 2.54 1.62.88.62v2.44l-2-1.4-2.47-1.57-2.43-1.4-2.4-1.26-2.42-1.15-2.4-1-2.44-.92-2.46-.8-2.5-.7-2.58-.6-2.65-.5-2.73-.4-2.85-.3-2.98-.2-2.16-.04.04-2z" stroke="#000" stroke-width=".05"/><path d="M242.05 2778.9l-.04 2-1-.03v-2z"/><path d="M242.07 2778.86l-.04 2.05h-1.06v-2.06zm-1.04 1.98l.95.02.04-1.95h-1z" stroke="#000" stroke-width=".05"/><path d="M395.8 2899.72l-14.76 2.74 1.2-9.2z"/><path d="M399 2900.14l-19.13 3.55 1.57-11.93zm-16.8 1.08l10.38-1.92-9.52-4.54z" stroke="#000" stroke-width=".05"/><use xlink:href="#l" transform="matrix(1,0,0,1,284.173671975104,2829.2514495480523) translate(0 14.222222222222223)"/><path d="M310.77 2735.3l-6.27 8.68-4.57 5.78-3.84 4.45-3.42 3.64-3.12 3.06-2.92 2.64-2.78 2.3-2.68 2.03-2.6 1.8-2.54 1.62-2.5 1.44-2.5 1.3-2.47 1.16-2.5 1.05-2.5.94-2.55.8-2.6.74-2.65.62-2.73.52-2.82.42-2.94.3-3.06.2-2.2.04-.04-2 2.16-.04 2.98-.2 2.85-.3 2.74-.4 2.66-.5 2.57-.6 2.5-.7 2.48-.8 2.44-.9 2.42-1.02 2.4-1.14 2.4-1.26 2.45-1.4 2.48-1.57 2.53-1.75 2.62-1.98 2.7-2.25 2.87-2.58 3.06-3 3.34-3.57 3.78-4.38 4.52-5.73 6.23-8.6 2.5-3.7h2.44zm30.85-44.33l-4.5 5.7-8.52 12.48h-2.42l9.3-13.67 4.6-5.8 1.14-1.32h2.64zm39.36-28l-1.42.4-2.47.8-2.44.9-2.42 1-2.4 1.14-2.4 1.27-2.45 1.4-2.48 1.58-2.24 1.55v-2.43l1.13-.8 2.56-1.6 2.5-1.45 2.5-1.3 2.47-1.17 2.5-1.05 2.5-.93 2.55-.83 1.46-.4z" stroke="#000" stroke-width=".05"/><path d="M242.05 2780.84l-1.05.03v-2l1-.03z"/><path d="M242.07 2780.87l-1.1.02v-2.06l1.06-.02zm-1.04-1.98v1.94l1-.02-.05-1.95z" stroke="#000" stroke-width=".05"/><path d="M395.8 2660l-13.55 6.47-1.2-9.2z"/><path d="M399 2659.6l-17.56 8.36-1.57-11.92zm-15.94 5.37l9.52-4.54-10.37-1.92z" stroke="#000" stroke-width=".05"/><use xlink:href="#k" transform="matrix(1,0,0,1,288.09959768807647,2709.1459082998176) translate(0 14.222222222222223)"/><path d="M358.24 2844.35l2.56 1.95 2.48 1.72 2.43 1.55 2.4 1.38 2.38 1.24 2.36 1.1 2.37 1 2.4.88 2.4.8 2.48.68 2.52.6 2.6.48 2.66.4 2.8.3 2.9.17 2.06.06-.04 2-2.12-.05-2.98-.18-2.87-.3-2.75-.4-2.67-.5-2.6-.63-2.54-.7-2.5-.83-2.47-.9-2.44-1.04-2.44-1.15-2.46-1.28-2.46-1.42-2.5-1.6-2.56-1.76-2.62-2-.93-.76v-2.6zm-25.1-28.32l5.52 7.62 4.25 5.38.2.22h-2.56l-3.47-4.4-5.57-7.68-5.72-8.55h2.4zm-72.58-78.2l2.5.8 2.47.9 2.44 1.04 2.44 1.15 2.46 1.28 2.46 1.42 2.5 1.6 2.56 1.77 2.62 1.98 2.73 2.26 2.86 2.58 3.04 2.98 3.3 3.53 3.7 4.27 4.3 5.46 11 16.42h-2.42l-10.2-15.24-4.24-5.37-3.63-4.2-3.24-3.47-2.98-2.93-2.8-2.52-2.66-2.2-2.56-1.94-2.48-1.72-2.43-1.54-2.4-1.4-2.38-1.23-2.36-1.1-2.37-1-2.4-.88-2.4-.8-1-.26.55-1.93z" stroke="#000" stroke-width=".05"/><path d="M399 2858.68v2l-1.05-.03.04-2z"/><path d="M399.02 2858.65v2.05l-1.1-.02.05-2.05zm-1.04 1.98l1 .02v-1.95l-.96-.02z" stroke="#000" stroke-width=".05"/><path d="M257.72 2742.96l-13.5-6.5 14.74-2.68z"/><path d="M258.53 2744.46l-17.53-8.43 19.14-3.48zm-11.12-7.57l9.52 4.57.87-6.46z" stroke="#000" stroke-width=".05"/><use xlink:href="#m" transform="matrix(1,0,0,1,279.4829793625161,2787.2846818702155) translate(0 14.222222222222223)"/><path d="M288.1 2718.97l-.4.36-2.84 2.35-2.73 2.07-2.65 1.85-2.6 1.64-2.55 1.48-2.54 1.32-2.54 1.2-2.54 1.06-2.56.96-2.6.84-2 .56-.53-1.93 1.95-.54 2.52-.83 2.5-.93 2.45-1.03 2.45-1.15 2.47-1.28 2.48-1.44 2.52-1.6 2.58-1.8 2.67-2.02 2.77-2.3 1.7-1.53zm18.37-20.24l-4.98 6.28-3.57 4.15h-2.7l.74-.8 3.98-4.6 4.9-6.22 6.4-9.17h2.44zm91.55-78.2l-2.25.03-3.07.2-2.94.3-2.8.42-2.73.52-2.63.62-2.58.7-2.52.83-2.5.93-2.45 1.03-2.45 1.17-2.47 1.3-2.48 1.42-2.52 1.6-2.58 1.8-2.67 2-2.77 2.3-2.93 2.66-3.16 3.1-3.47 3.7-3.98 4.62-4.92 6.22-6.52 9.03h-2.46l7.4-10.24 4.96-6.3 4.04-4.68 3.54-3.77 3.22-3.15 3-2.7 2.84-2.36 2.73-2.07 2.65-1.84 2.6-1.65 2.55-1.48 2.54-1.32 2.54-1.2 2.54-1.06 2.56-.96 2.6-.84 2.66-.74 2.72-.64 2.8-.53 2.9-.42 3-.32 3.16-.2 2.3-.04z" stroke="#000" stroke-width=".05"/><path d="M399 2620.5l-1 .02-.05-2 1.05-.03z"/><path d="M399.02 2620.52l-1.05.02-.04-2.05 1.1-.03zm-1.04-1.98l.04 1.95.96-.03v-1.95z" stroke="#000" stroke-width=".05"/><path d="M258.95 2738.4l-14.74-2.78 13.58-6.4z"/><path d="M260.1 2739.65l-19.1-3.62 17.6-8.3zm-12.68-4.44l10.36 1.97-.82-6.46z" stroke="#000" stroke-width=".05"/><use xlink:href="#m" transform="matrix(1,0,0,1,279.53951251968067,2667.031676557912) translate(0 14.222222222222223)"/><path d="M198.28 2678h-2v-66.95h2zm0-88.28h-2v-10.22h2z" stroke="#000" stroke-width=".05"/><path d="M198.28 2679h-2v-1.03h2z"/><path d="M198.3 2679.03h-2.05v-1.08h2.05zm-2-1.03v.97h1.95v-.97z" stroke="#000" stroke-width=".05"/><path d="M201.9 2578.5h-9.26l4.64-14.26z"/><path d="M203.3 2579.5h-12.04l6.02-18.5zm-9.28-2h6.5l-3.24-10.03z" stroke="#000" stroke-width=".05"/><use xlink:href="#o" transform="matrix(1,0,0,1,164.31308074908793,2589.7195702227987) translate(0 14.222222222222223)"/><path d="M-354.77 2678h-2v-66.95h2zm0-88.28h-2v-10.22h2z" stroke="#000" stroke-width=".05"/><path d="M-354.77 2679h-2v-1.03h2z"/><path d="M-354.75 2679.03h-2.05v-1.08h2.05zm-2-1.03v.97h1.95v-.97z" stroke="#000" stroke-width=".05"/><path d="M-351.14 2578.5h-9.27l4.63-14.26z"/><path d="M-349.76 2579.5h-12.03l6.03-18.5zm-9.27-2h6.5l-3.24-10.03z" stroke="#000" stroke-width=".05"/><use xlink:href="#o" transform="matrix(1,0,0,1,-388.73735705277466,2589.7196195812026) translate(0 14.222222222222223)"/><path d="M-249.06 2366.87l-14.54 3.13-15.44 3.93-9.28 2.78-6.32 2.2-4.6 1.82-3.48 1.54-2.7 1.35-2.16 1.2-1.75 1.05-1.44.95-1.2.88-1.02.8-.84.74-.74.68-.63.65-.56.6-.47.58-.42.55-.36.52-.33.5-.28.48-.25.47-.22.46-.2.45-.15.44-.14.42-.12.43-.1.42-.08.42-.06.4-.04.4-2-.2.06-.44.07-.5.1-.5.12-.5.13-.52.16-.5.18-.52.22-.53.25-.54.3-.54.3-.56.37-.57.4-.6.48-.6.53-.65.6-.67.7-.7.8-.75.9-.8 1.1-.85 1.25-.92 1.52-1 1.82-1.1 2.23-1.23 2.78-1.38 3.56-1.57 4.66-1.85 6.4-2.22 9.36-2.8 15.52-3.95 15-3.22zm118.22-30.78l-1.42.84-2.23 1.23-2.77 1.38-3.56 1.57-4.67 1.85-6.4 2.22-9.38 2.8-30.64 6.6v-2.05l30.14-6.48 9.26-2.78 6.32-2.2 4.6-1.82 3.48-1.54 2.7-1.35 2.16-1.2 1.38-.82z" stroke="#000" stroke-width=".05"/><path d="M-318.98 2398l-.02 1h-2l.02-1.05z"/><path d="M-318.95 2397.97l-.03 1.06h-2.05l.03-1.1zm-2.03 1h1.96l.02-.95-1.95-.04z" stroke="#000" stroke-width=".05"/><path d="M-127.52 2337.83l-7.45-5.5 12.2-8.73z"/><path d="M-127 2339.45l-9.67-7.15 15.83-11.3zm-6.27-7.12l5.24 3.88 3.34-10z" stroke="#000" stroke-width=".05"/><use xlink:href="#q" transform="matrix(1,0,0,1,-249.05578734001134,2349.042204116278) translate(0 14.222222222222223)"/><path d="M103.63 2367.85l15.72 4 9.42 2.83 6.44 2.23 4.7 1.87 3.58 1.58 2.8 1.4 2.24 1.22 1.83 1.1 1.52 1 1.27.94 1.08.86.93.8.8.75.7.72.6.67.53.63.47.62.4.6.38.57.32.56.3.55.24.53.2.53.2.5.17.52.14.5.13.5.1.52.07.5.05.46-2 .2-.03-.4-.06-.42-.1-.43-.08-.42-.13-.43-.14-.44-.15-.44-.2-.44-.2-.46-.25-.47-.28-.5-.32-.5-.37-.52-.42-.55-.46-.58-.56-.6-.63-.66-.74-.7-.85-.73-1.02-.8-1.2-.87-1.45-.97-1.76-1.06-2.17-1.2-2.72-1.34-3.5-1.55-4.6-1.8-6.37-2.22-9.35-2.8-15.63-3.98-13.36-2.9v-2.04zm-128.8-32.55l2.16 1.2 2.7 1.34 3.5 1.55 4.63 1.8 6.36 2.22 9.3 2.8 29.17 6.3v2.04L3 2348.16l-9.43-2.84-6.44-2.23-4.7-1.87-3.57-1.58-2.8-1.4-2.24-1.22-1.5-.9 1.03-1.72z" stroke="#000" stroke-width=".05"/><path d="M161 2399h-2l-.02-1 2-.05z"/><path d="M161.03 2399.03h-2.06l-.02-1.06 2.05-.04zm-2.03-1l.02.94h1.95l-.02-1z" stroke="#000" stroke-width=".05"/><path d="M-23.55 2332.35l-7.47 5.5-4.72-14.24z"/><path d="M-21.85 2332.34l-9.7 7.13-6.1-18.47zm-8.66 3.88l5.24-3.86-8.56-6.15z" stroke="#000" stroke-width=".05"/><use xlink:href="#q" transform="matrix(1,0,0,1,32.669783890201344,2349.047215823543) translate(0 14.222222222222223)"/><path d="M-79 2958h-2v-551.53h2zm0-572.86h-2v-45.64h2z" stroke="#000" stroke-width=".05"/><path d="M-79 2959h-2v-1.03h2z"/><path d="M-78.97 2959.03h-2.06v-1.1h2.06zm-2-1.04v.97h1.94v-.98z" stroke="#000" stroke-width=".05"/><path d="M-75.36 2338.5h-9.28l4.64-14.26z"/><path d="M-74 2339.5h-12l6-18.5zm-9.26-2h6.52l-3.26-10.03z" stroke="#000" stroke-width=".05"/><use xlink:href="#q" transform="matrix(1,0,0,1,-108.5679012345679,2385.135869164926) translate(0 14.222222222222223)"/><path d="M-495.5 2868l-4.57 5.8-3.84 4.43-3.42 3.63-3.12 3.07-2.92 2.63-2.78 2.3-2.68 2.03-2.6 1.8-2.54 1.6-2.5 1.46-2.5 1.3-2.47 1.17-2.5 1.05-2.5.93-2.55.84-1.46.4-.54-1.92 1.42-.4 2.47-.8 2.44-.9 2.4-1.02 2.42-1.13 2.4-1.26 2.45-1.4 2.48-1.57 2.53-1.76 2.62-1.98 2.7-2.25 2.87-2.58 3.06-3 3.34-3.57 3.78-4.4 4.5-5.7 8.52-12.47h2.42zm40.9-57.4l-3.78 4.4-4.52 5.7-6.23 8.6-2.5 3.7h-2.44l3.3-4.84 6.27-8.66 4.57-5.78 3.84-4.45.42-.44h2.75zm52.62-25.97l-2.16.05-2.98.18-2.85.3-2.74.4-2.66.5-2.57.62-2.5.7-2.48.8-2.44.9-2.42 1.02-2.4 1.13-2.4 1.26-2.45 1.4-2.48 1.57-2.24 1.56v-2.44l1.13-.8 2.56-1.6 2.5-1.46 2.5-1.3 2.47-1.17 2.5-1.04 2.5-.94 2.55-.84 2.6-.72 2.65-.62 2.73-.52 2.82-.42 2.94-.3 3.06-.2 2.2-.05z" stroke="#000" stroke-width=".05"/><path d="M-401 2784.6l-1 .03-.05-2 1.05-.02z"/><path d="M-400.98 2784.64l-1.05.02-.04-2.05h1.1zm-1.04-1.98l.04 1.95h.96v-1.96z" stroke="#000" stroke-width=".05"/><path d="M-541.04 2906.2l-14.75-2.73 13.55-6.46z"/><path d="M-539.87 2907.44l-19.13-3.55 17.56-8.38zm-12.7-4.4l10.36 1.93-.86-6.46z" stroke="#000" stroke-width=".05"/><use xlink:href="#l" transform="matrix(1,0,0,1,-516.074876998242,2832.998402771311) translate(0 14.222222222222223)"/><path d="M-469.13 2737.9l6.23 8.62 4.52 5.7 3.78 4.4 3.35 3.57 3.06 3 2.87 2.57 2.7 2.25 2.62 1.98 2.52 1.76 2.47 1.56 2.43 1.4 2.4 1.27 2.42 1.13 2.4 1 2.44.9 2.46.82 2.5.7 2.58.6 2.65.5 2.73.4 2.85.3 2.98.2 2.16.04-.04 2-2.2-.05-3.06-.2-2.94-.3-2.82-.42-2.73-.52-2.66-.6-2.6-.74-2.54-.83-2.5-.93-2.5-1.05-2.48-1.17-2.5-1.3-2.5-1.44-2.54-1.62-2.58-1.8-2.68-2.04-2.78-2.3-2.92-2.63-3.13-3.06-3.4-3.64-3.82-4.45-4.58-5.77-6.27-8.67-3.3-4.83h2.43zm-30.94-44.46l4.58 5.8 9.32 13.65h-2.42l-8.5-12.48-4.52-5.7-3.25-3.78h2.64zm-38.9-28.25l2.54.8 2.5.95 2.5 1.05 2.48 1.16 2.5 1.3 2.5 1.45 2.54 1.63.9.64v2.44l-2.02-1.4-2.47-1.58-2.43-1.4-2.4-1.26-2.4-1.14-2.43-1-2.43-.92-2.46-.8-1.42-.4.54-1.92z" stroke="#000" stroke-width=".05"/><path d="M-401 2782.6v2h-1.05l.04-2z"/><path d="M-400.98 2782.6v2.04l-1.1-.03.05-2.03zm-1.04 1.97l1 .02v-1.96l-.96-.02z" stroke="#000" stroke-width=".05"/><path d="M-542.25 2670.2l-13.54-6.44 14.76-2.74z"/><path d="M-541.44 2671.7l-17.56-8.36 19.13-3.55zm-11.14-7.52l9.52 4.54.85-6.46z" stroke="#000" stroke-width=".05"/><use xlink:href="#k" transform="matrix(1,0,0,1,-512.1489511334702,2712.8928656589746) translate(0 14.222222222222223)"/><path d="M-445.64 2721.82l2.73 2.26 2.6 2 2.56 1.77 2.5 1.57 2.43 1.42 2.42 1.27 2.42 1.15 2.43 1.02 2.45.9 2.48.82 2.53.7 2.6.6 2.66.5 2.75.42 2.88.3 3 .2 2.2.03-.05 2-2.23-.04-3.1-.2-2.95-.3-2.84-.42-2.75-.52-2.67-.63-2.6-.73-2.57-.83-2.53-.94-2.5-1.06-2.5-1.17-2.5-1.3-2.52-1.46-2.55-1.63-2.6-1.8-2.7-2.05-2.8-2.32-1.15-1.03v-2.7zm-24.38-28.6l6.56 9.07 4.62 5.83 3.84 4.45.3.3h-2.68l-3-3.47-4.68-5.9-6.6-9.13-2.35-3.43h2.42zm-68.8-70.73l2.56.82 2.53.94 2.5 1.06 2.5 1.17 2.5 1.3 2.52 1.46 2.55 1.62 2.6 1.82 2.7 2.04 2.8 2.32 2.95 2.65 3.15 3.1 3.44 3.67 3.88 4.52 4.7 5.9 8.7 12.7h-2.43l-7.9-11.5-4.6-5.84-3.85-4.45-3.38-3.6-3.1-3.03-2.88-2.6-2.73-2.26-2.62-1.98-2.54-1.77-2.5-1.58-2.43-1.42-2.42-1.27-2.42-1.13-2.43-1.03-2.45-.9-2.48-.8-1.58-.45.54-1.93z" stroke="#000" stroke-width=".05"/><path d="M-401 2738.77v2l-1.05-.02.04-2z"/><path d="M-400.98 2738.75v2.05l-1.1-.02.05-2.05zm-1.04 1.98l1 .02v-1.95l-.96-.02z" stroke="#000" stroke-width=".05"/><path d="M-542.24 2627.48l-13.55-6.44 14.75-2.75z"/><path d="M-541.43 2628.97l-17.57-8.35 19.12-3.57zm-11.15-7.5l9.52 4.5.84-6.45z" stroke="#000" stroke-width=".05"/><use xlink:href="#m" transform="matrix(1,0,0,1,-520.4859274984284,2669.6096614683247) translate(0 14.222222222222223)"/><path d="M-516.08 2843l-1.9 1.43-2.63 1.84-2.6 1.64-2.55 1.5-2.53 1.3-2.53 1.2-2.55 1.07-2.55.95-2.6.84-1.93.54-.54-1.93 1.9-.52 2.5-.82 2.5-.92 2.45-1.03 2.45-1.15 2.45-1.28 2.48-1.44 2.52-1.6 2.57-1.78 2.66-2.02.42-.35zm22.34-23.47l-4.93 6.23-4 4.66-2.43 2.58h-2.76l.22-.22 3.47-3.7 3.96-4.6 4.85-6.14 6.62-9.5h2.43zm91.76-78.74l-2.25.04-3.06.2-2.9.3-2.8.4-2.73.53-2.63.62-2.56.7-2.52.82-2.48.92-2.46 1.04-2.45 1.15-2.45 1.3-2.48 1.42-2.52 1.6-2.57 1.8-2.66 2-2.8 2.3-2.9 2.64-3.16 3.08-3.47 3.7-3.96 4.58-4.86 6.16-6.77 9.37h-2.46l.13-.18 7.52-10.4 4.92-6.23 4-4.67 3.54-3.75 3.22-3.15 3-2.7 2.82-2.34 2.73-2.08 2.64-1.84 2.6-1.64 2.55-1.48 2.53-1.32 2.53-1.2 2.55-1.06 2.55-.95 2.6-.84 2.65-.75 2.7-.64 2.8-.52 2.9-.43 3-.3 3.14-.2 2.28-.06z" stroke="#000" stroke-width=".05"/><path d="M-401 2740.77l-1 .02-.05-2 1.05-.03z"/><path d="M-400.98 2740.8l-1.05.02-.04-2.05 1.1-.02zm-1.04-1.98l.04 1.95.96-.02v-1.95z" stroke="#000" stroke-width=".05"/><path d="M-541.05 2859.06l-14.74-2.8 13.57-6.4z"/><path d="M-539.9 2860.3l-19.1-3.62 17.6-8.3zm-12.68-4.44l10.36 1.96-.82-6.47z" stroke="#000" stroke-width=".05"/><use xlink:href="#m" transform="matrix(1,0,0,1,-520.4647939551131,2787.4932678200566) translate(0 14.222222222222223)"/><path d="M140.45 2958.5h-1v-61.93h1zm0-83.26h-1v-17.85h1z" stroke="#3a414a" stroke-width=".05" fill="#3a414a"/><path d="M140.45 2959h-1v-.5h1z" fill="#3a414a"/><path d="M140.47 2959.03h-1.05v-.57h1.05zm-1-.52v.47h.95v-.46z" stroke="#3a414a" stroke-width=".05" fill="#3a414a"/><path d="M144.58 2856.9h-9.27l4.65-14.28z" fill="#3a414a"/><path d="M145.27 2857.4h-10.65l5.33-16.4zm-9.27-1h7.9l-3.95-12.16z" stroke="#3a414a" stroke-width=".05" fill="#3a414a"/><use xlink:href="#n" transform="matrix(1,0,0,1,125.67604363363215,2875.2384826881867) translate(0 14.222222222222223)"/><path d="M-278.07 2660.5h-2v-29.83h2zm0-51.17h-2V2562h2z" stroke="#000" stroke-width=".05"/><path d="M-278.07 2562.03h-2V2561h2z"/><path d="M-278.04 2562.05h-2.05v-1.08h2.06zm-2-1.03v.98h1.95v-.97z" stroke="#000" stroke-width=".05"/><path d="M-279.07 2675.76l-4.63-14.26h9.27z"/><path d="M-279.07 2679l-6-18.5h12zm-3.26-16.5l3.26 10.03 3.26-10.03z" stroke="#000" stroke-width=".05"/><use xlink:href="#n" transform="matrix(1,0,0,1,-293.3401859789732,2609.3341906688697) translate(0 14.222222222222223)"/><path d="M126.06 2660.5h-2v-19.1h2zm0-40.43h-2V2562h2z" stroke="#000" stroke-width=".05"/><path d="M126.06 2562.03h-2V2561h2z"/><path d="M126.1 2562.05h-2.06v-1.08h2.05zm-2-1.03v.98h1.94v-.97z" stroke="#000" stroke-width=".05"/><path d="M125.06 2675.76l-4.63-14.26h9.27z"/><path d="M125.06 2679l-6-18.5h12zm-3.26-16.5l3.26 10.03 3.26-10.03z" stroke="#000" stroke-width=".05"/><use xlink:href="#n" transform="matrix(1,0,0,1,110.7911038799662,2620.0698995006187) translate(0 14.222222222222223)"/><defs><path d="M556-476c0 141-103 215-251 213H171V0H85v-690h220c148-2 251 72 251 214zM171-612v271h134c110 0 165-45 165-135 0-91-55-136-165-136H171" id="r"/><path d="M252-434c-66-1-107 53-107 121V0H65v-500h80v49c48-85 215-70 259 11l-68 48c-20-28-48-42-84-42" id="s"/><path d="M248-508c135-1 208 86 208 224C456-109 409 9 248 8 115 9 38-82 40-218v-66c-2-136 75-225 208-224zM120-284c0 121 16 221 128 220 106-1 128-100 128-220 0-90-42-152-128-152-85 0-128 63-128 152" id="t"/><path d="M40-284c-2-134 70-224 200-224 63 0 108 19 136 58v-240h80V0h-80v-44C349-9 304 8 240 8 109 9 39-85 40-218v-66zm80 0c0 120 21 219 128 220 85 1 128-60 128-147 0-124-16-226-128-225-86 0-128 62-128 152" id="u"/><path d="M259-66c71 1 122-51 122-122v-312h80V0h-80v-49C351-7 319 7 247 8 126 7 65-62 65-188v-312h80v311c0 82 38 123 114 123" id="v"/><path d="M120-284c0 125 20 222 136 220 55 0 92-19 111-56l62 44C399-20 341 8 256 8 121 9 38-82 40-218v-66c-1-138 79-225 216-224 79 0 136 26 173 78l-63 44c-23-33-60-50-110-50-88-1-136 62-136 152" id="w"/><path d="M280 0C145 6 85-24 85-154v-274H21v-72h64v-110h80v110h115v72H165v254c-6 91 28 102 115 98V0" id="x"/><path d="M160 0H80v-500h80V0zm5-600H75v-90h90v90" id="y"/><path d="M267-434c-71-1-122 51-122 122V0H65v-500h80v49c30-42 62-56 134-57 121 1 182 70 182 196V0h-80v-311c0-82-38-123-114-123" id="z"/><path d="M60-512c2-121 91-189 223-186 103 0 179 38 228 113l-67 48c-43-53-76-82-164-83-78 0-134 33-134 108 0 95 67 108 163 128 130 27 214 62 214 199C523-55 430 7 291 8 179 8 97-30 45-105l71-49c49 56 80 82 175 84 97 0 146-37 146-111 0-94-64-111-163-129-143-22-214-89-214-202" id="A"/><path d="M120-232c-4 96 38 168 128 168 58 0 98-19 119-56l62 44C394-17 345 7 254 8 120 9 40-82 40-218c0-172 41-291 198-290 154-1 209 109 198 276H120zm118-204c-73 0-113 45-118 134h235c-4-89-43-134-117-134" id="B"/><g id="a"><use transform="matrix(0.022222222222222223,0,0,0.022222222222222223,0,0)" xlink:href="#r"/><use transform="matrix(0.022222222222222223,0,0,0.022222222222222223,13.066666666666666,0)" xlink:href="#s"/><use transform="matrix(0.022222222222222223,0,0,0.022222222222222223,21.822222222222223,0)" xlink:href="#t"/><use transform="matrix(0.022222222222222223,0,0,0.022222222222222223,32.84444444444445,0)" xlink:href="#u"/><use transform="matrix(0.022222222222222223,0,0,0.022222222222222223,44.422222222222224,0)" xlink:href="#v"/><use transform="matrix(0.022222222222222223,0,0,0.022222222222222223,56.111111111111114,0)" xlink:href="#w"/><use transform="matrix(0.022222222222222223,0,0,0.022222222222222223,65.97777777777779,0)" xlink:href="#x"/><use transform="matrix(0.022222222222222223,0,0,0.022222222222222223,72.97777777777779,0)" xlink:href="#y"/><use transform="matrix(0.022222222222222223,0,0,0.022222222222222223,78.31111111111112,0)" xlink:href="#t"/><use transform="matrix(0.022222222222222223,0,0,0.022222222222222223,89.33333333333334,0)" xlink:href="#z"/><use transform="matrix(0.022222222222222223,0,0,0.022222222222222223,101.02222222222224,0)" xlink:href="#A"/><use transform="matrix(0.022222222222222223,0,0,0.022222222222222223,113.71111111111114,0)" xlink:href="#w"/><use transform="matrix(0.022222222222222223,0,0,0.022222222222222223,123.5777777777778,0)" xlink:href="#B"/><use transform="matrix(0.022222222222222223,0,0,0.022222222222222223,134.42222222222225,0)" xlink:href="#z"/><use transform="matrix(0.022222222222222223,0,0,0.022222222222222223,146.11111111111114,0)" xlink:href="#B"/></g><path d="M547-215C530-77 448 4 300 8 108 13 50-143 50-383c0-210 83-315 250-315 149 1 229 86 248 223h-84c-21-92-62-144-164-145-154-2-168 142-164 313 3 144 36 237 164 237 102 0 143-55 164-145h83" id="C"/><path d="M286-256L468 0h-94L239-186 104 0H10l182-256L30-500h94l115 177 115-177h94" id="D"/><g id="b"><use transform="matrix(0.022222222222222223,0,0,0.022222222222222223,0,0)" xlink:href="#C"/><use transform="matrix(0.022222222222222223,0,0,0.022222222222222223,12.844444444444445,0)" xlink:href="#t"/><use transform="matrix(0.022222222222222223,0,0,0.022222222222222223,23.866666666666667,0)" xlink:href="#z"/><use transform="matrix(0.022222222222222223,0,0,0.022222222222222223,35.55555555555556,0)" xlink:href="#x"/><use transform="matrix(0.022222222222222223,0,0,0.022222222222222223,42.55555555555556,0)" xlink:href="#B"/><use transform="matrix(0.022222222222222223,0,0,0.022222222222222223,52.86666666666668,0)" xlink:href="#D"/><use transform="matrix(0.022222222222222223,0,0,0.022222222222222223,63.488888888888894,0)" xlink:href="#x"/></g><path d="M305 0H85v-690h220c190-7 250 145 250 381C555-103 472 0 305 0zm164-309c3-169-10-305-164-303H171v534h134c129-5 161-87 164-231" id="E"/><path d="M481-218C482-85 412 9 281 8c-63 0-108-19-136-58v240H65v-690h80v50c28-39 73-58 136-58 130 0 202 89 200 224v66zm-336-73c0 124 14 228 128 227 106-1 128-100 128-220 0-90-42-152-128-152-83 0-128 59-128 145" id="F"/><g id="c"><use transform="matrix(0.022222222222222223,0,0,0.022222222222222223,0,0)" xlink:href="#E"/><use transform="matrix(0.022222222222222223,0,0,0.022222222222222223,13.444444444444445,0)" xlink:href="#B"/><use transform="matrix(0.022222222222222223,0,0,0.022222222222222223,24.28888888888889,0)" xlink:href="#F"/><use transform="matrix(0.022222222222222223,0,0,0.022222222222222223,35.86666666666667,0)" xlink:href="#y"/><use transform="matrix(0.022222222222222223,0,0,0.022222222222222223,41.2,0)" xlink:href="#w"/><use transform="matrix(0.022222222222222223,0,0,0.022222222222222223,51.06666666666667,0)" xlink:href="#x"/><use transform="matrix(0.022222222222222223,0,0,0.022222222222222223,58.06666666666667,0)" xlink:href="#y"/><use transform="matrix(0.022222222222222223,0,0,0.022222222222222223,63.400000000000006,0)" xlink:href="#t"/><use transform="matrix(0.022222222222222223,0,0,0.022222222222222223,74.42222222222223,0)" xlink:href="#z"/></g><path d="M467-163v-527h86V0h-84L171-522V0H85v-690h82" id="G"/><path d="M219 8C111 9 40-44 40-146c0-95 62-143 187-143h119v-58c-2-74-33-85-111-87-71 1-91 8-120 51l-60-42c37-60 84-82 181-83 128 1 190 38 190 161V0h-80v-49C318-4 291 7 219 8zm0-74c103 2 133-44 127-155-96 5-231-25-226 77 0 52 33 78 99 78" id="H"/><path d="M252-102l152-398h90L294 0h-80L10-500h90" id="I"/><path d="M300-698c192 0 250 151 250 391C550-97 467 8 300 8 108 8 50-143 50-383c0-210 83-315 250-315zm0 78c-154-3-168 142-164 313 3 144 36 235 164 237 154 3 168-142 164-313-3-144-36-235-164-237" id="J"/><path d="M481-218C482-85 412 9 281 8 217 8 172-9 145-44V0H65v-690h80v240c28-39 73-58 136-58 130 0 202 89 200 224v66zm-336-73c0 124 14 228 128 227 106-1 128-100 128-220 0-90-42-152-128-152-83 0-128 59-128 145" id="K"/><path d="M0 116c75-1 85-30 85-100v-516h80V36c-2 115-46 153-165 154v-74zm170-716H80v-90h90v90" id="L"/><g id="d"><use transform="matrix(0.022222222222222223,0,0,0.022222222222222223,0,0)" xlink:href="#G"/><use transform="matrix(0.022222222222222223,0,0,0.022222222222222223,14.177777777777779,0)" xlink:href="#H"/><use transform="matrix(0.022222222222222223,0,0,0.022222222222222223,25.08888888888889,0)" xlink:href="#s"/><use transform="matrix(0.022222222222222223,0,0,0.022222222222222223,33.84444444444445,0)" xlink:href="#s"/><use transform="matrix(0.022222222222222223,0,0,0.022222222222222223,42.37777777777778,0)" xlink:href="#H"/><use transform="matrix(0.022222222222222223,0,0,0.022222222222222223,53.28888888888889,0)" xlink:href="#x"/><use transform="matrix(0.022222222222222223,0,0,0.022222222222222223,60.28888888888889,0)" xlink:href="#y"/><use transform="matrix(0.022222222222222223,0,0,0.022222222222222223,65.62222222222222,0)" xlink:href="#I"/><use transform="matrix(0.022222222222222223,0,0,0.022222222222222223,76.82222222222222,0)" xlink:href="#B"/><use transform="matrix(0.022222222222222223,0,0,0.022222222222222223,87.66666666666667,0)" xlink:href="#J"/><use transform="matrix(0.022222222222222223,0,0,0.022222222222222223,101,0)" xlink:href="#K"/><use transform="matrix(0.022222222222222223,0,0,0.022222222222222223,112.57777777777778,0)" xlink:href="#L"/><use transform="matrix(0.022222222222222223,0,0,0.022222222222222223,117.80000000000001,0)" xlink:href="#B"/><use transform="matrix(0.022222222222222223,0,0,0.022222222222222223,128.64444444444445,0)" xlink:href="#w"/><use transform="matrix(0.022222222222222223,0,0,0.022222222222222223,138.51111111111112,0)" xlink:href="#x"/></g><path d="M154-158L101 0H10l240-690h80L570 0h-91l-53-158H154zm245-78L290-560 181-236h218" id="M"/><path d="M45-366c1-94 76-144 179-142 86 0 147 28 182 83l-60 42c-30-38-57-50-124-51-53 0-96 19-97 67 0 47 39 74 116 79 103 10 181 38 180 149C419-37 344 9 233 8 144 8 80-20 40-75l59-42c31 38 65 51 135 51 58 0 107-19 107-71 0-70-49-71-129-80-111-8-167-58-167-149" id="N"/><g id="e"><use transform="matrix(0.022222222222222223,0,0,0.022222222222222223,0,0)" xlink:href="#M"/><use transform="matrix(0.022222222222222223,0,0,0.022222222222222223,12.88888888888889,0)" xlink:href="#N"/><use transform="matrix(0.022222222222222223,0,0,0.022222222222222223,23.244444444444444,0)" xlink:href="#N"/><use transform="matrix(0.022222222222222223,0,0,0.022222222222222223,33.6,0)" xlink:href="#B"/><use transform="matrix(0.022222222222222223,0,0,0.022222222222222223,44.44444444444444,0)" xlink:href="#x"/></g><g id="f"><use transform="matrix(0.022222222222222223,0,0,0.022222222222222223,0,0)" xlink:href="#G"/><use transform="matrix(0.022222222222222223,0,0,0.022222222222222223,14.177777777777779,0)" xlink:href="#H"/><use transform="matrix(0.022222222222222223,0,0,0.022222222222222223,25.08888888888889,0)" xlink:href="#s"/><use transform="matrix(0.022222222222222223,0,0,0.022222222222222223,33.84444444444445,0)" xlink:href="#s"/><use transform="matrix(0.022222222222222223,0,0,0.022222222222222223,42.37777777777778,0)" xlink:href="#H"/><use transform="matrix(0.022222222222222223,0,0,0.022222222222222223,53.28888888888889,0)" xlink:href="#x"/><use transform="matrix(0.022222222222222223,0,0,0.022222222222222223,60.28888888888889,0)" xlink:href="#y"/><use transform="matrix(0.022222222222222223,0,0,0.022222222222222223,65.62222222222222,0)" xlink:href="#I"/><use transform="matrix(0.022222222222222223,0,0,0.022222222222222223,76.82222222222222,0)" xlink:href="#B"/></g><path d="M577 0L420-536 264 0h-86L10-690h90l125 542 152-542h85l155 545 125-545h90L664 0h-87" id="O"/><g id="g"><use transform="matrix(0.022222222222222223,0,0,0.022222222222222223,0,0)" xlink:href="#O"/><use transform="matrix(0.022222222222222223,0,0,0.022222222222222223,18.400000000000002,0)" xlink:href="#H"/><use transform="matrix(0.022222222222222223,0,0,0.022222222222222223,29.311111111111114,0)" xlink:href="#s"/><use transform="matrix(0.022222222222222223,0,0,0.022222222222222223,38.06666666666667,0)" xlink:href="#u"/><use transform="matrix(0.022222222222222223,0,0,0.022222222222222223,49.644444444444446,0)" xlink:href="#s"/><use transform="matrix(0.022222222222222223,0,0,0.022222222222222223,58.400000000000006,0)" xlink:href="#t"/><use transform="matrix(0.022222222222222223,0,0,0.022222222222222223,69.42222222222223,0)" xlink:href="#K"/><use transform="matrix(0.022222222222222223,0,0,0.022222222222222223,81.00000000000001,0)" xlink:href="#B"/></g><path d="M267-434c-71-1-122 51-122 122V0H65v-690h80v239c30-42 62-56 134-57 121 1 182 70 182 196V0h-80v-311c0-82-38-123-114-123" id="P"/><g id="h"><use transform="matrix(0.022222222222222223,0,0,0.022222222222222223,0,0)" xlink:href="#C"/><use transform="matrix(0.022222222222222223,0,0,0.022222222222222223,12.844444444444445,0)" xlink:href="#P"/><use transform="matrix(0.022222222222222223,0,0,0.022222222222222223,24.533333333333335,0)" xlink:href="#H"/><use transform="matrix(0.022222222222222223,0,0,0.022222222222222223,35.44444444444444,0)" xlink:href="#s"/><use transform="matrix(0.022222222222222223,0,0,0.022222222222222223,43.977777777777774,0)" xlink:href="#H"/><use transform="matrix(0.022222222222222223,0,0,0.022222222222222223,54.88888888888888,0)" xlink:href="#w"/><use transform="matrix(0.022222222222222223,0,0,0.022222222222222223,64.75555555555556,0)" xlink:href="#x"/><use transform="matrix(0.022222222222222223,0,0,0.022222222222222223,71.75555555555556,0)" xlink:href="#B"/><use transform="matrix(0.022222222222222223,0,0,0.022222222222222223,82.60000000000001,0)" xlink:href="#s"/></g><g id="i"><use transform="matrix(0.022222222222222223,0,0,0.022222222222222223,0,0)" xlink:href="#r"/><use transform="matrix(0.022222222222222223,0,0,0.022222222222222223,12.622222222222224,0)" xlink:href="#H"/><use transform="matrix(0.022222222222222223,0,0,0.022222222222222223,23.533333333333328,0)" xlink:href="#s"/><use transform="matrix(0.022222222222222223,0,0,0.022222222222222223,32.28888888888889,0)" xlink:href="#x"/><use transform="matrix(0.022222222222222223,0,0,0.022222222222222223,39.28888888888889,0)" xlink:href="#y"/><use transform="matrix(0.022222222222222223,0,0,0.022222222222222223,44.62222222222223,0)" xlink:href="#w"/><use transform="matrix(0.022222222222222223,0,0,0.022222222222222223,54.488888888888894,0)" xlink:href="#y"/><use transform="matrix(0.022222222222222223,0,0,0.022222222222222223,59.82222222222224,0)" xlink:href="#F"/><use transform="matrix(0.022222222222222223,0,0,0.022222222222222223,71.4,0)" xlink:href="#H"/><use transform="matrix(0.022222222222222223,0,0,0.022222222222222223,82.31111111111112,0)" xlink:href="#z"/><use transform="matrix(0.022222222222222223,0,0,0.022222222222222223,94,0)" xlink:href="#x"/></g><path fill="#333" d="M85 4C-2 5 27-109 22-190h50c7 57-23 150 33 157 60-5 35-97 40-157h50l1 190h-47c-2-12 1-28-3-38-12 25-28 42-61 42" id="Q"/><path fill="#333" d="M137-138c1-29-70-34-71-4 15 46 118 7 119 86 1 83-164 76-172 9l43-7c4 19 20 25 44 25 33 8 57-30 24-41C81-84 22-81 20-136c-2-80 154-74 161-7" id="R"/><path fill="#333" d="M185-48c-13 30-37 53-82 52C43 2 14-33 14-96s30-98 90-98c62 0 83 45 84 108H66c0 31 8 55 39 56 18 0 30-7 34-22zm-45-69c5-46-57-63-70-21-2 6-4 13-4 21h74" id="S"/><path fill="#333" d="M88-194c31-1 46 15 58 34l-1-101h50l1 261h-48c-2-10 0-23-3-31C134-8 116 4 84 4 32 4 16-41 15-95c0-56 19-97 73-99zm17 164c33 0 40-30 41-66 1-37-9-64-41-64s-38 30-39 65c0 43 13 65 39 65" id="T"/><path fill="#333" d="M182-130c37 4 62 22 62 59C244 23 116-4 24 0v-248c84 5 203-23 205 63 0 31-19 50-47 55zM76-148c40-3 101 13 101-30 0-44-60-28-101-31v61zm0 110c48-3 116 14 116-37 0-48-69-32-116-35v72" id="U"/><path fill="#333" d="M123 10C108 53 80 86 19 72V37c35 8 53-11 59-39L3-190h52l48 148c12-52 28-100 44-148h51" id="V"/><g id="j"><use transform="matrix(0.04938271604938272,0,0,0.04938271604938272,0,0)" xlink:href="#Q"/><use transform="matrix(0.04938271604938272,0,0,0.04938271604938272,10.814814814814815,0)" xlink:href="#R"/><use transform="matrix(0.04938271604938272,0,0,0.04938271604938272,20.69135802469136,0)" xlink:href="#S"/><use transform="matrix(0.04938271604938272,0,0,0.04938271604938272,30.567901234567906,0)" xlink:href="#T"/><use transform="matrix(0.04938271604938272,0,0,0.04938271604938272,41.38271604938272,0)" xlink:href="#U"/><use transform="matrix(0.04938271604938272,0,0,0.04938271604938272,54.17283950617284,0)" xlink:href="#V"/></g><path fill="#333" d="M24-248c120-7 223 5 221 122C244-46 201 0 124 0H24v-248zM76-40c74 7 117-18 117-86 0-67-45-88-117-82v168" id="W"/><path fill="#333" d="M135-194c53 0 70 44 70 98 0 56-19 98-73 100-31 1-45-17-59-34 3 33 2 69 2 105H25l-1-265h48c2 10 0 23 3 31 11-24 29-35 60-35zM114-30c33 0 39-31 40-66 0-38-9-64-40-64-56 0-55 130 0 130" id="X"/><path fill="#333" d="M25-224v-37h50v37H25zM25 0v-190h50V0H25" id="Y"/><path fill="#333" d="M190-63c-7 42-38 67-86 67-59 0-84-38-90-98-12-110 154-137 174-36l-49 2c-2-19-15-32-35-32-30 0-35 28-38 64-6 74 65 87 74 30" id="Z"/><path fill="#333" d="M115-3C79 11 28 4 28-45v-112H4v-33h27l15-45h31v45h36v33H77v99c-1 23 16 31 38 25v30" id="aa"/><g id="k"><use transform="matrix(0.04938271604938272,0,0,0.04938271604938272,0,0)" xlink:href="#W"/><use transform="matrix(0.04938271604938272,0,0,0.04938271604938272,12.790123456790125,0)" xlink:href="#S"/><use transform="matrix(0.04938271604938272,0,0,0.04938271604938272,22.66666666666667,0)" xlink:href="#X"/><use transform="matrix(0.04938271604938272,0,0,0.04938271604938272,33.48148148148149,0)" xlink:href="#Y"/><use transform="matrix(0.04938271604938272,0,0,0.04938271604938272,38.41975308641976,0)" xlink:href="#Z"/><use transform="matrix(0.04938271604938272,0,0,0.04938271604938272,48.296296296296305,0)" xlink:href="#aa"/><use transform="matrix(0.04938271604938272,0,0,0.04938271604938272,54.17283950617284,0)" xlink:href="#R"/></g><path fill="#333" d="M110-194c64 0 96 36 96 99 0 64-35 99-97 99-61 0-95-36-95-99 0-62 34-99 96-99zm-1 164c35 0 45-28 45-65 0-40-10-65-43-65-34 0-45 26-45 65 0 36 10 65 43 65" id="ab"/><path fill="#333" d="M135-150c-39-12-60 13-60 57V0H25l-1-190h47c2 13-1 29 3 40 6-28 27-53 61-41v41" id="ac"/><g id="l"><use transform="matrix(0.04938271604938272,0,0,0.04938271604938272,0,0)" xlink:href="#W"/><use transform="matrix(0.04938271604938272,0,0,0.04938271604938272,12.790123456790125,0)" xlink:href="#S"/><use transform="matrix(0.04938271604938272,0,0,0.04938271604938272,22.66666666666667,0)" xlink:href="#X"/><use transform="matrix(0.04938271604938272,0,0,0.04938271604938272,33.48148148148149,0)" xlink:href="#Y"/><use transform="matrix(0.04938271604938272,0,0,0.04938271604938272,38.41975308641976,0)" xlink:href="#Z"/><use transform="matrix(0.04938271604938272,0,0,0.04938271604938272,48.296296296296305,0)" xlink:href="#aa"/><use transform="matrix(0.04938271604938272,0,0,0.04938271604938272,54.17283950617284,0)" xlink:href="#ab"/><use transform="matrix(0.04938271604938272,0,0,0.04938271604938272,64.98765432098766,0)" xlink:href="#ac"/></g><path fill="#333" d="M135-194c87-1 58 113 63 194h-50c-7-57 23-157-34-157-59 0-34 97-39 157H25l-1-190h47c2 12-1 28 3 38 12-26 28-41 61-42" id="ad"/><g id="m"><use transform="matrix(0.04938271604938272,0,0,0.04938271604938272,0,0)" xlink:href="#W"/><use transform="matrix(0.04938271604938272,0,0,0.04938271604938272,12.790123456790125,0)" xlink:href="#S"/><use transform="matrix(0.04938271604938272,0,0,0.04938271604938272,22.66666666666667,0)" xlink:href="#X"/><use transform="matrix(0.04938271604938272,0,0,0.04938271604938272,33.48148148148149,0)" xlink:href="#Y"/><use transform="matrix(0.04938271604938272,0,0,0.04938271604938272,38.41975308641976,0)" xlink:href="#Z"/><use transform="matrix(0.04938271604938272,0,0,0.04938271604938272,48.296296296296305,0)" xlink:href="#aa"/><use transform="matrix(0.04938271604938272,0,0,0.04938271604938272,54.17283950617284,0)" xlink:href="#Y"/><use transform="matrix(0.04938271604938272,0,0,0.04938271604938272,59.111111111111114,0)" xlink:href="#ab"/><use transform="matrix(0.04938271604938272,0,0,0.04938271604938272,69.92592592592594,0)" xlink:href="#ad"/></g><path fill="#333" d="M76-208v77h127v40H76V0H24v-248h183v40H76" id="ae"/><g id="n"><use transform="matrix(0.04938271604938272,0,0,0.04938271604938272,0,0)" xlink:href="#ae"/><use transform="matrix(0.04938271604938272,0,0,0.04938271604938272,10.814814814814815,0)" xlink:href="#ab"/><use transform="matrix(0.04938271604938272,0,0,0.04938271604938272,21.62962962962963,0)" xlink:href="#ac"/></g><path fill="#333" d="M67-125c0 53 21 87 73 88 37 1 54-22 65-47l45 17C233-25 199 4 140 4 58 4 20-42 15-125 8-235 124-281 211-232c18 10 29 29 36 50l-46 12c-8-25-30-41-62-41-52 0-71 34-72 86" id="af"/><path fill="#333" d="M144 0l-44-69L55 0H2l70-98-66-92h53l41 62 40-62h54l-67 91 71 99h-54" id="ag"/><g id="o"><use transform="matrix(0.04938271604938272,0,0,0.04938271604938272,0,0)" xlink:href="#af"/><use transform="matrix(0.04938271604938272,0,0,0.04938271604938272,12.790123456790125,0)" xlink:href="#ab"/><use transform="matrix(0.04938271604938272,0,0,0.04938271604938272,23.60493827160494,0)" xlink:href="#ad"/><use transform="matrix(0.04938271604938272,0,0,0.04938271604938272,34.41975308641975,0)" xlink:href="#aa"/><use transform="matrix(0.04938271604938272,0,0,0.04938271604938272,40.2962962962963,0)" xlink:href="#S"/><use transform="matrix(0.04938271604938272,0,0,0.04938271604938272,50.17283950617284,0)" xlink:href="#ag"/><use transform="matrix(0.04938271604938272,0,0,0.04938271604938272,60.04938271604939,0)" xlink:href="#aa"/></g><g id="p"><use transform="matrix(0.04938271604938272,0,0,0.04938271604938272,0,0)" xlink:href="#Q"/><use transform="matrix(0.04938271604938272,0,0,0.04938271604938272,10.814814814814815,0)" xlink:href="#R"/><use transform="matrix(0.04938271604938272,0,0,0.04938271604938272,20.69135802469136,0)" xlink:href="#S"/><use transform="matrix(0.04938271604938272,0,0,0.04938271604938272,30.567901234567906,0)" xlink:href="#R"/></g><path fill="#333" d="M24 0v-248h52V0H24" id="ah"/><g id="q"><use transform="matrix(0.04938271604938272,0,0,0.04938271604938272,0,0)" xlink:href="#Q"/><use transform="matrix(0.04938271604938272,0,0,0.04938271604938272,10.814814814814815,0)" xlink:href="#R"/><use transform="matrix(0.04938271604938272,0,0,0.04938271604938272,20.69135802469136,0)" xlink:href="#S"/><use transform="matrix(0.04938271604938272,0,0,0.04938271604938272,30.567901234567906,0)" xlink:href="#T"/><use transform="matrix(0.04938271604938272,0,0,0.04938271604938272,41.38271604938272,0)" xlink:href="#ah"/><use transform="matrix(0.04938271604938272,0,0,0.04938271604938272,46.320987654320994,0)" xlink:href="#ad"/></g></defs></g></svg>