<svg xmlns="http://www.w3.org/2000/svg" xmlns:xlink="http://www.w3.org/1999/xlink" xmlns:lucid="lucid" width="1362" height="1162"><g transform="translate(761.0000000265476 -3678.9999999734523)" lucid:page-tab-id="0_0"><path d="M-160 3686a6 6 0 0 1 6-6H-6a6 6 0 0 1 6 6v148a6 6 0 0 1-6 6h-148a6 6 0 0 1-6-6z" stroke="#000" stroke-width="2" fill="#fff"/><use xlink:href="#a" transform="matrix(1,0,0,1,-155,3685) translate(-3.4777777777777885 78.13333333333333)"/><path d="M-400 3926a6 6 0 0 1 6-6h148a6 6 0 0 1 6 6v148a6 6 0 0 1-6 6h-148a6 6 0 0 1-6-6z" stroke="#000" stroke-width="2" fill="#fff"/><use xlink:href="#b" transform="matrix(1,0,0,1,-395,3925) translate(39.75555555555555 78.2486111111111)"/><path d="M79.8 3926a6 6 0 0 1 6-6h148a6 6 0 0 1 6 6v148a6 6 0 0 1-6 6h-148a6 6 0 0 1-6-6z" stroke="#000" stroke-width="2" fill="#fff"/><use xlink:href="#b" transform="matrix(1,0,0,1,84.7996371523036,3925) translate(39.75555555555555 78.2486111111111)"/><path d="M-399.8 4406a6 6 0 0 1 6-6h148a6 6 0 0 1 6 6v148a6 6 0 0 1-6 6h-148a6 6 0 0 1-6-6z" stroke="#000" stroke-width="2" fill="#fff"/><use xlink:href="#b" transform="matrix(1,0,0,1,-394.7996371523036,4405) translate(39.75555555555555 78.2486111111111)"/><path d="M-160 4406a6 6 0 0 1 6-6H-6a6 6 0 0 1 6 6v148a6 6 0 0 1-6 6h-148a6 6 0 0 1-6-6z" stroke="#000" stroke-width="2" fill="#fff"/><use xlink:href="#b" transform="matrix(1,0,0,1,-155,4405) translate(39.75555555555555 78.2486111111111)"/><path d="M79.8 4406a6 6 0 0 1 6-6h148a6 6 0 0 1 6 6v148a6 6 0 0 1-6 6h-148a6 6 0 0 1-6-6z" stroke="#000" stroke-width="2" fill="#fff"/><use xlink:href="#b" transform="matrix(1,0,0,1,84.7996371523036,4405) translate(39.75555555555555 78.2486111111111)"/><path d="M-399.8 4166a6 6 0 0 1 6-6h148a6 6 0 0 1 6 6v148a6 6 0 0 1-6 6h-148a6 6 0 0 1-6-6z" stroke="#000" stroke-width="2" fill="#fff"/><use xlink:href="#c" transform="matrix(1,0,0,1,-394.7996371523036,4165) translate(31.944444444444443 78.2486111111111)"/><path d="M80 4166a6 6 0 0 1 6-6h148a6 6 0 0 1 6 6v148a6 6 0 0 1-6 6H86a6 6 0 0 1-6-6z" stroke="#000" stroke-width="2" fill="#fff"/><use xlink:href="#c" transform="matrix(1,0,0,1,85,4165) translate(31.944444444444443 78.2486111111111)"/><path d="M440 4046a6 6 0 0 1 6-6h148a6 6 0 0 1 6 6v148a6 6 0 0 1-6 6H446a6 6 0 0 1-6-6z" stroke="#000" stroke-width="2" fill="#fff"/><use xlink:href="#d" transform="matrix(1,0,0,1,445,4045) translate(31.166666666666664 64.1861111111111)"/><use xlink:href="#e" transform="matrix(1,0,0,1,445,4045) translate(29.07777777777777 92.54166666666666)"/><path d="M440 4286a6 6 0 0 1 6-6h148a6 6 0 0 1 6 6v148a6 6 0 0 1-6 6H446a6 6 0 0 1-6-6z" stroke="#000" stroke-width="2" fill="#fff"/><use xlink:href="#f" transform="matrix(1,0,0,1,445,4285) translate(49.27777777777778 78.2486111111111)"/><path d="M359.73 4346.13l5.8 5.24 4.93 4.08 4.45 3.38 4.16 2.9 3.98 2.5 3.86 2.24 3.8 2 3.8 1.77 3.8 1.6 3.86 1.44 3.94 1.28 4.05 1.13 4.2.97 4.4.84 1.96.3-.28 1.98-2-.3-4.48-.85-4.3-1-4.12-1.16-4.02-1.3-3.94-1.47-3.88-1.63-3.87-1.82-3.87-2.03-3.93-2.27-4.04-2.57-4.23-2.94-4.5-3.42-5-4.14-5.9-5.32-9.3-9.6h2.8zm-53.46-51.77l4.5 3.43 5 4.13 5.9 5.3 8.16 8.04 1.33 1.37h-2.8l-8.08-7.95-5.82-5.26-4.92-4.08-4.45-3.38-2.7-1.86h3.5zm-59.6-20.58l5.28.34 4.95.52 4.7.7 4.46.84 4.3 1 4.12 1.16 4.02 1.3 3.94 1.47 3.88 1.64 3.87 1.82 3.87 2.03 3.93 2.26 1.46.93v2.35l-2.5-1.58-3.86-2.23-3.8-2-3.8-1.77-3.8-1.6-3.86-1.44-3.94-1.28-4.05-1.13-4.2-.98-4.4-.84-4.6-.68-4.87-.5-5.2-.34-4.6-.1.04-2z" stroke="#000" stroke-width=".05"/><path d="M242.05 4273.7l-.04 2-1-.03v-2z"/><path d="M242.07 4273.66l-.04 2.05h-1.06v-2.06zm-1.04 1.98l.95.02.04-1.95h-1z" stroke="#000" stroke-width=".05"/><path d="M435.77 4379.9l-14.56 3.6.68-9.26z"/><path d="M439 4380.14l-18.9 4.64.9-12zm-16.7 2.05l10.25-2.53-9.77-3.98z" stroke="#000" stroke-width=".05"/><use xlink:href="#g" transform="matrix(1,0,0,1,304.14923199056216,4316.640937132781) translate(0 14.222222222222223)"/><path d="M330.92 4221.06l-8.77 11.1-6 6.97-4.95 5.28-4.38 4.3-4.03 3.64-3.8 3.12-3.6 2.74-3.47 2.42-3.4 2.16-3.36 1.94-3.32 1.74-3.32 1.56-3.33 1.4-3.37 1.25-3.43 1.12-3.5.96-3.6.85-3.7.72-3.87.57-4.03.4-4.23.27-3.45.08-.04-2 3.4-.07 4.15-.27 3.95-.4 3.77-.56 3.64-.7 3.5-.8 3.42-.97 3.35-1.1 3.3-1.2 3.25-1.38 3.24-1.54 3.25-1.7 3.3-1.9 3.32-2.1 3.4-2.38 3.55-2.68 3.72-3.08 3.95-3.57 4.32-4.24 4.9-5.2 5.93-6.9 8.73-11.06 1.48-1.96h2.5zm43.63-54.06l-4.32 4.24-4.9 5.23-5.93 6.88-9.97 13.2h-2.5l10.92-14.46 6-6.97 4.95-5.28 4.38-4.3 2.12-1.9h3zm46.24-24.72l-1.7.32-3.5.83-3.42.95-3.35 1.1-3.3 1.22-3.25 1.36-3.24 1.53-3.25 1.7-3.3 1.88-3.32 2.12-3.4 2.37-3.55 2.7-1.97 1.62v-2.6l.73-.6 3.6-2.75 3.47-2.42 3.4-2.16 3.36-1.93 3.32-1.74 3.32-1.56 3.33-1.4 3.37-1.26 3.43-1.1 3.5-1 3.6-.83 1.72-.33z" stroke="#000" stroke-width=".05"/><path d="M242.05 4275.65l-1.05.02v-2l1-.02z"/><path d="M242.07 4275.67l-1.1.02v-2.06l1.06-.02zm-1.04-1.98v1.94l1-.02-.05-1.95z" stroke="#000" stroke-width=".05"/><path d="M435.78 4139.9l-13.78 5.93-.86-9.23z"/><path d="M439 4139.6l-17.87 7.7-1.1-11.98zm-16.13 4.76l9.7-4.17-10.3-2.33z" stroke="#000" stroke-width=".05"/><use xlink:href="#h" transform="matrix(1,0,0,1,308.09351805748815,4196.550100698287) translate(0 14.222222222222223)"/><path d="M376.66 4331.17l3.78 3.7 3.55 3.2 3.36 2.8 3.24 2.46 3.14 2.18 3.07 1.96 3.04 1.75 3 1.58 3 1.4 3 1.27 3.02 1.12 3.06 1 3.12.87 3.2.75 3.28.62 3.4.5 3.52.37 3.7.22 2.88.06-.04 2-2.94-.06-3.77-.24-3.6-.38-3.5-.5-3.35-.65-3.28-.77-3.2-.9-3.14-1.02-3.1-1.15-3.08-1.28-3.07-1.45-3.07-1.6-3.1-1.8-3.15-2-3.2-2.23-3.3-2.5-3.45-2.85-3.6-3.26-3.03-2.96v-2.86zm-21.42-26.62l7.22 9.97 1.68 2.12h-2.55l-.74-.9-7.26-10.05-7.8-11.58h2.4zm-92.78-96.26l3.2.88 3.14 1.02 3.1 1.16 3.08 1.3 3.07 1.44 3.07 1.6 3.1 1.8 3.15 2 3.2 2.22 3.3 2.5 3.45 2.85 3.6 3.26 3.85 3.77 4.18 4.45 4.68 5.43 5.52 6.98 14.7 21.83h-2.4l-13.92-20.66-5.44-6.9-4.64-5.35-4.12-4.4-3.78-3.72-3.55-3.2-3.36-2.78-3.24-2.46-3.14-2.2-3.07-1.94-3.04-1.74-3-1.57-3-1.42-3-1.26-3.02-1.13-3.06-1-3.12-.87-2.82-.67.46-1.94z" stroke="#000" stroke-width=".05"/><path d="M439 4359v2l-1.05-.02.04-2z"/><path d="M439.02 4358.98v2.05l-1.1-.03.05-2.05zm-1.04 1.97l1 .03v-1.96l-.96-.02z" stroke="#000" stroke-width=".05"/><path d="M257.92 4213.1l-13.7-6.1 14.67-3.12z"/><path d="M258.77 4214.57l-17.77-7.9 19.03-4.06zm-11.33-7.23l9.63 4.3.68-6.5z" stroke="#000" stroke-width=".05"/><use xlink:href="#i" transform="matrix(1,0,0,1,299.45593859499934,4272.786168777534) translate(0 14.222222222222223)"/><path d="M320.45 4174.7l-5.66 5.1-4.88 4.04-4.43 3.37-4.17 2.9-4 2.53-3.88 2.25-3.84 2-3.8 1.8-3.86 1.63-3.9 1.46-3.98 1.3-4.1 1.13-4.23 1-4.42.83-1.72.25-.3-1.97 1.7-.24 4.33-.83 4.17-.97 4-1.13 3.9-1.26 3.83-1.42 3.77-1.6 3.75-1.75 3.76-1.97 3.82-2.2 3.92-2.5 4.1-2.84 4.36-3.33 4.8-3.97 5.58-5.03 9.22-9.63h2.77zm117.57-74.18l-4.52.1-5.12.3-4.8.52-4.56.67-4.33.83-4.17.98-4 1.13-3.9 1.27-3.83 1.42-3.77 1.58-3.75 1.76-3.76 1.97-3.82 2.2-3.92 2.5-4.1 2.85-4.36 3.3-4.8 4-5.6 5.03-7.4 7.3-2.03 2.1h-2.78l3.37-3.5 7.46-7.35 5.65-5.1 4.88-4.03 4.43-3.36 4.17-2.9 4-2.53 3.88-2.25 3.84-2 3.8-1.8 3.86-1.62 3.9-1.45 3.98-1.3 4.1-1.13 4.23-1 4.42-.84 4.62-.68 4.9-.5 5.2-.34 4.56-.08z" stroke="#000" stroke-width=".05"/><path d="M439 4100.5l-1 .02-.05-2 1.05-.03z"/><path d="M439.02 4100.52l-1.05.02-.05-2.05 1.1-.03zm-1.04-1.98l.04 1.95.96-.03v-1.95z" stroke="#000" stroke-width=".05"/><path d="M258.8 4210l-14.57-3.57 13.88-5.7z"/><path d="M259.9 4211.3l-18.9-4.63 18-7.37zm-12.45-5.1l10.25 2.5-.5-6.5z" stroke="#000" stroke-width=".05"/><use xlink:href="#i" transform="matrix(1,0,0,1,299.5159181806705,4142.304333968057) translate(0 14.222222222222223)"/><path d="M-760 4046a6 6 0 0 1 6-6h148a6 6 0 0 1 6 6v148a6 6 0 0 1-6 6h-148a6 6 0 0 1-6-6z" stroke="#000" stroke-width="2" fill="#fff"/><use xlink:href="#j" transform="matrix(1,0,0,1,-755,4045) translate(2.24444444444444 78.2486111111111)"/><path d="M-760 4286a6 6 0 0 1 6-6h148a6 6 0 0 1 6 6v148a6 6 0 0 1-6 6h-148a6 6 0 0 1-6-6z" stroke="#000" stroke-width="2" fill="#fff"/><use xlink:href="#f" transform="matrix(1,0,0,1,-755,4285) translate(49.27777777777778 78.2486111111111)"/><path d="M-517.57 4344.74l-6 6.4-5 4.9-4.42 4-4.08 3.38-3.86 2.93-3.7 2.58-3.6 2.3-3.55 2.03-3.5 1.84-3.5 1.65-3.53 1.48-3.57 1.33-3.63 1.18-3.73 1.04-3.83.9-3.3.63-.38-1.96 3.27-.62 3.75-.88 3.64-1.02 3.54-1.15 3.5-1.3 3.44-1.45 3.43-1.6 3.44-1.8 3.47-2 3.54-2.26 3.64-2.53 3.8-2.88 4.02-3.33 4.37-3.94 4.93-4.83 5.93-6.33 8.98-10.9h2.6zm56.1-62.7l-4.03 3.33-4.37 3.94-4.93 4.84-5.93 6.33-8.72 10.15-.47.57h-2.6l1.54-1.87 8.76-10.2 6-6.4 4.98-4.88 4.43-4 2.68-2.22h3.18zm59.7-21.02l-3.8.08-4.5.28-4.27.45-4.06.6-3.9.74-3.75.88-3.64 1.02-3.54 1.15-3.5 1.3-3.44 1.45-3.43 1.6-3.44 1.8-3.47 2-3.55 2.26-3.63 2.53-1.9 1.44v-2.5l.72-.56 3.7-2.58 3.6-2.3 3.55-2.03 3.5-1.84 3.5-1.66 3.53-1.48 3.57-1.33 3.63-1.18 3.73-1.04 3.83-.9 3.96-.74 4.15-.62 4.35-.45 4.58-.3 3.85-.08z" stroke="#000" stroke-width=".05"/><path d="M-400.8 4261l-1 .02-.05-2 1.05-.02z"/><path d="M-400.77 4261.02l-1.06.03-.04-2.05 1.1-.03zm-1.05-1.97l.04 1.95.95-.02v-1.95z" stroke="#000" stroke-width=".05"/><path d="M-581.17 4387.03l-14.6-3.4 13.82-5.84z"/><path d="M-580.06 4388.3l-18.94-4.4 17.93-7.57zm-12.5-4.96l10.28 2.4-.55-6.5z" stroke="#000" stroke-width=".05"/><use xlink:href="#g" transform="matrix(1,0,0,1,-535.9575280120065,4311.189917011873) translate(0 14.222222222222223)"/><path d="M-535.96 4313.97l-3.72 3.08-3.7 2.8-3.54 2.48-3.47 2.2-3.4 1.97-3.4 1.77-3.38 1.6-3.4 1.42-3.43 1.27-3.5 1.14-3.6 1-3.66.87-2.25.43-.4-1.97 2.22-.42 3.6-.83 3.5-.98 3.4-1.12 3.37-1.25 3.3-1.4 3.32-1.55 3.3-1.73 3.35-1.93 3.4-2.16 3.5-2.43 3.6-2.75 3.82-3.15 1.14-1.04zm20.65-21.53l-6.57 7.62-5.23 5.58-4.56 4.47-1.2 1.1h-3l2.83-2.55 4.5-4.4 5.17-5.53 6.5-7.55 7.4-9.54h2.5zm113.52-86.1l-3.54.1-4.26.26-4.05.42-3.87.57-3.72.7-3.6.84-3.5.98-3.4 1.1-3.37 1.26-3.3 1.4-3.32 1.55-3.3 1.73-3.35 1.93-3.4 2.15-3.5 2.43-3.6 2.75-3.82 3.15-4.07 3.68-4.5 4.4-5.17 5.53-6.5 7.54-7.43 9.45h-2.55l8.43-10.73 6.57-7.62 5.23-5.58 4.56-4.46 4.14-3.73 3.88-3.2 3.7-2.8 3.55-2.48 3.47-2.22 3.4-1.97 3.4-1.76 3.38-1.6 3.4-1.42 3.43-1.28 3.5-1.14 3.6-1 3.66-.86 3.8-.72 3.96-.6 4.13-.42 4.35-.27 3.58-.08z" stroke="#000" stroke-width=".05"/><path d="M-400.8 4206.33l-1 .02-.05-2 1.05-.02z"/><path d="M-400.77 4206.36l-1.06.02-.04-2.05 1.1-.02zm-1.05-1.98l.04 1.95.95-.02v-1.94z" stroke="#000" stroke-width=".05"/><path d="M-581.15 4339.72l-14.63-3.33 13.8-5.9z"/><path d="M-580.03 4341l-18.97-4.32 17.88-7.66zm-12.52-4.9l10.28 2.34-.6-6.5z" stroke="#000" stroke-width=".05"/><use xlink:href="#i" transform="matrix(1,0,0,1,-540.329605378704,4260.294538441434) translate(0 14.222222222222223)"/><path d="M-489.5 4217.1l8.64 8.48 5.97 5.4 5.02 4.13 4.5 3.43 4.2 2.92 4 2.54 3.88 2.24 3.84 2 3.8 1.8 3.84 1.6 3.88 1.45 3.97 1.28 4.08 1.14 4.25 1 4.4.83 4.66.7 4.92.5 5.24.33 4.66.1-.04 2-4.7-.1-5.33-.33-5-.53-4.72-.7-4.5-.85-4.3-1-4.18-1.18-4.04-1.32-3.96-1.47-3.9-1.64-3.9-1.83-3.9-2.04-3.96-2.3-4.08-2.6-4.26-2.95-4.57-3.47-5.07-4.2-6.03-5.44-8.68-8.54-28.05-28.76-1-.9h2.9zm-88.73-61.1l4.5.86 4.3 1.02 4.18 1.16 4.04 1.3 3.96 1.5 3.9 1.63 3.9 1.83 3.9 2.04.27.16h-4.3l-.76-.4-3.82-1.8-3.83-1.6-3.88-1.46-3.97-1.3-4.08-1.13-4.25-.98-4.4-.84-2.16-.32.28-1.98z" stroke="#000" stroke-width=".05"/><path d="M-400.8 4259v2l-1.05-.02.04-2z"/><path d="M-400.77 4258.98v2.05l-1.1-.03.04-2.05zm-1.05 1.97l1 .03v-1.96l-.96-.02z" stroke="#000" stroke-width=".05"/><path d="M-581.88 4161.23l-13.9-5.66 14.57-3.6z"/><path d="M-580.98 4162.67l-18.02-7.34 18.9-4.65zm-11.56-6.87l9.76 3.98.48-6.5z" stroke="#000" stroke-width=".05"/><use xlink:href="#g" transform="matrix(1,0,0,1,-566.9219221178083,4167.4967185444475) translate(0 14.222222222222223)"/><path d="M-517.64 4120.43l28.32 34.4 8.66 10.07 5.92 6.33 4.92 4.82 4.36 3.93 4.02 3.33 3.8 2.9 3.63 2.52 3.52 2.24 3.47 2 3.42 1.8 3.43 1.6 3.45 1.46 3.48 1.3 3.55 1.15 3.64 1.02 3.75.86 3.9.75 4.05.6 4.26.45 4.5.28 3.8.08-.05 2-3.84-.07-4.58-.28-4.34-.46-4.14-.62-3.97-.76-3.82-.9-3.72-1.03-3.63-1.2-3.57-1.32-3.52-1.48-3.5-1.65-3.52-1.84-3.53-2.03-3.62-2.3-3.7-2.56-3.86-2.92-4.1-3.4-4.4-3.98-5-4.88-5.97-6.38-8.7-10.12-28.3-34.37-2-2.12h2.75zm-59.47-37.9l3.83.9 3.7 1.05 3.65 1.18 3.56 1.33 3.52 1.47 3.5 1.65 3.5 1.83 3.55 2.05 3.62 2.28 2.9 2.02h-3.5l-.5-.35-3.54-2.24-3.47-2-3.42-1.8-3.43-1.6-3.45-1.45-3.48-1.3-3.55-1.15-3.64-1.02-3.75-.88-3.25-.62.37-1.96z" stroke="#000" stroke-width=".05"/><path d="M-400.8 4204.33v2l-1.05-.02.04-2z"/><path d="M-400.77 4204.3v2.06l-1.1-.02.04-2.05zm-1.05 2h1v-1.94l-.96-.02z" stroke="#000" stroke-width=".05"/><path d="M-581.95 4087.43l-13.83-5.82 14.6-3.4z"/><path d="M-581.07 4088.9l-17.93-7.57 18.95-4.42zm-11.48-7.02l9.72 4.1.55-6.5z" stroke="#000" stroke-width=".05"/><use xlink:href="#i" transform="matrix(1,0,0,1,-570.6950694695886,4098.2946306737695) translate(0 14.222222222222223)"/><path d="M-160 4686a6 6 0 0 1 6-6H-6a6 6 0 0 1 6 6v148a6 6 0 0 1-6 6h-148a6 6 0 0 1-6-6z" stroke="#000" stroke-width="2" fill="#fff"/><use xlink:href="#c" transform="matrix(1,0,0,1,-155,4685) translate(31.944444444444443 78.2486111111111)"/><path d="M239.8 4686a6 6 0 0 1 6-6h148a6 6 0 0 1 6 6v148a6 6 0 0 1-6 6h-148a6 6 0 0 1-6-6z" stroke="#000" stroke-width="2" fill="#fff"/><use xlink:href="#k" transform="matrix(1,0,0,1,244.7996371523036,4685) translate(29.322222222222216 78.2486111111111)"/><path d="M-559.8 4686a6 6 0 0 1 6-6h148a6 6 0 0 1 6 6v148a6 6 0 0 1-6 6h-148a6 6 0 0 1-6-6z" stroke="#000" stroke-width="2" fill="#fff"/><use xlink:href="#l" transform="matrix(1,0,0,1,-554.7996371523036,4685) translate(24.5 78.2486111111111)"/><path d="M-229.62 3885.95l-19.64 3.5-22.5 4.73-12.32 3.14-7.96 2.4-5.56 1.9-4.07 1.62-3.1 1.38-2.4 1.2-1.92 1.04-1.54.94-1.27.84-1.07.77-.88.7-.75.65-.64.6-.55.56-.46.53-.4.5-.36.47-.3.44-.28.43-.24.4-.2.4-.2.4-.14.36-.14.36-.12.35-.1.35-.08.35-.06.35-.05.35-.02.16-2-.2.03-.2.06-.43.1-.43.1-.43.1-.43.15-.43.16-.45.2-.46.2-.46.25-.47.3-.47.3-.5.36-.5.4-.55.47-.55.53-.6.6-.6.7-.66.8-.7.97-.76 1.12-.8 1.34-.9 1.6-.97 2-1.1 2.5-1.23 3.16-1.4 4.15-1.64 5.65-1.96 8.04-2.4 12.38-3.17 22.57-4.74 20.03-3.58zm138.76-30.56l-1.04.57-2.5 1.23-3.16 1.4-4.15 1.64-5.65 1.96-8.04 2.4-12.4 3.18-42.7 7.62v-2.03l42.28-7.55 12.3-3.14 7.96-2.4 5.56-1.9 4.07-1.62 3.1-1.38 2.4-1.2 1-.54z" stroke="#000" stroke-width=".05"/><path d="M-318.98 3918l-.02 1h-2l.02-1.05z"/><path d="M-318.95 3917.97l-.03 1.06h-2.05l.03-1.1zm-2.03 1h1.96l.02-.95-1.95-.04z" stroke="#000" stroke-width=".05"/><path d="M-87.7 3857.4l-7.1-5.97 12.72-7.95z"/><path d="M-87.3 3859.04l-9.2-7.73L-80 3841zm-5.8-7.5l5 4.2 3.94-9.78z" stroke="#000" stroke-width=".05"/><use xlink:href="#m" transform="matrix(1,0,0,1,-229.62111116349675,3868.992506690799) translate(0 14.222222222222223)"/><path d="M-80 4398v-538.5" stroke="#000" stroke-width="2" stroke-linejoin="round" fill="none"/><path d="M-79 4399h-2v-1.03h2z" stroke="#000" stroke-width=".05"/><path d="M-80 3844.24l4.64 14.26h-9.28z" stroke="#000" stroke-width="2"/><path d="M89.38 3887.47l22.6 4.74 12.4 3.17 8.06 2.42 5.64 1.95 4.15 1.64 3.18 1.4 2.5 1.23 1.98 1.1 1.62.97 1.35.9 1.12.8.95.76.8.7.7.66.62.6.53.6.46.56.4.54.37.5.3.5.3.5.24.46.2.46.2.45.17.43.15.44.12.43.1.44.08.43.07.43.02.2-2 .2v-.15l-.06-.35-.06-.35-.1-.35-.1-.35-.1-.36-.14-.37-.15-.38-.2-.38-.2-.4-.23-.4-.27-.43-.3-.45-.37-.48-.4-.5-.48-.52-.55-.55-.63-.6-.75-.65-.9-.7-1.04-.77-1.27-.84-1.55-.95-1.9-1.05-2.42-1.2-3.1-1.37-4.08-1.6-5.56-1.94-7.96-2.4-12.32-3.14-22.54-4.73-19.48-3.48v-2.03zm-156.55-33.27l2.4 1.2 3.1 1.37 4.1 1.6 5.55 1.94 7.96 2.4 12.3 3.14 42.17 7.52v2.04l-42.57-7.6-12.42-3.17-8.04-2.42-5.64-1.95-4.16-1.64-3.17-1.4-2.5-1.23-1.05-.57.97-1.76z" stroke="#000" stroke-width=".05"/><path d="M160.8 3919h-2l-.02-1 2-.05z"/><path d="M160.82 3919.03h-2.04l-.03-1.06 2.05-.04zm-2.02-1l.02.94h1.95l-.02-1z" stroke="#000" stroke-width=".05"/><path d="M-65.2 3851.43l-7.1 5.96-5.62-13.92z"/><path d="M-63.5 3851.3l-9.22 7.74L-80 3841zm-8.4 4.44l5-4.2-8.94-5.58z" stroke="#000" stroke-width=".05"/><use xlink:href="#m" transform="matrix(1,0,0,1,10.40969941421984,3868.9932091906976) translate(0 14.222222222222223)"/><path d="M160.8 4158h-2v-27.33h2zm0-48.67h-2v-9.83h2z" stroke="#000" stroke-width=".05"/><path d="M160.8 4159h-2v-1.03h2z"/><path d="M160.82 4159.02h-2.04v-1.07h2.04zm-2-1.02v.98h1.96v-.98z" stroke="#000" stroke-width=".05"/><path d="M164.44 4098.5h-9.28l4.64-14.26z"/><path d="M165.8 4099.5h-12l6-18.5zm-9.26-2h6.52l-3.26-10.03z" stroke="#000" stroke-width=".05"/><use xlink:href="#n" transform="matrix(1,0,0,1,126.83667418934067,4109.332748406122) translate(0 14.222222222222223)"/><path d="M-318.8 4158h-2v-27.33h2zm0-48.67h-2v-9.83h2z" stroke="#000" stroke-width=".05"/><path d="M-318.8 4159h-2v-1.03h2z"/><path d="M-318.77 4159.02h-2.06v-1.07h2.06zm-2-1.02v.98h1.94v-.98z" stroke="#000" stroke-width=".05"/><path d="M-315.16 4098.5h-9.27l4.63-14.26z"/><path d="M-313.8 4099.5h-12l6-18.5zm-9.26-2h6.52l-3.26-10.03z" stroke="#000" stroke-width=".05"/><use xlink:href="#n" transform="matrix(1,0,0,1,-352.76260011526665,4109.332748270742) translate(0 14.222222222222223)"/><path d="M-319.3 4382.62h-1v-19.3h1zm0-40.62h-1v-20.5h1z" stroke="#3a414a" stroke-width=".05" fill="#3a414a"/><path d="M-319.3 4321.5h-1v-.5h1z" fill="#3a414a"/><path d="M-319.27 4321.54h-1.06v-.56h1.06zm-1-.52v.47h.94v-.48z" stroke="#3a414a" stroke-width=".05" fill="#3a414a"/><path d="M-319.8 4397.38l-4.63-14.26h9.27z" fill="#3a414a"/><path d="M-319.8 4399l-5.32-16.38h10.64zm-3.95-15.38l3.95 12.14 3.95-12.14z" stroke="#3a414a" stroke-width=".05" fill="#3a414a"/><use xlink:href="#o" transform="matrix(1,0,0,1,-357.7008717202048,4341.999999999999) translate(0 14.222222222222223)"/><path d="M-168.3 4634.97l10.07 3.98 7.2 3.2 5.47 2.7 4.33 2.38 3.5 2.12 2.9 1.92 2.45 1.77 2.07 1.64 1.77 1.54 1.53 1.44 1.35 1.37 1.18 1.3.86 1.06-1.55 1.26-.84-1-1.1-1.26-1.3-1.3-1.47-1.4-1.72-1.48-2-1.58-2.36-1.72-2.83-1.88-3.43-2.08-4.26-2.33-5.38-2.68-7.12-3.16-9.97-3.94-48.27-15h2.1v-1.46zm-150.4-71.93l.1 1 .13.97.2.98.2.96.28.96.33.96.36.97.4.98.47 1 .53 1.02.6 1.04.68 1.07.76 1.1.87 1.14 1 1.18 1.1 1.25 1.3 1.3 1.47 1.4 1.72 1.48 2 1.58 2.36 1.72 2.83 1.88 3.43 2.08 4.25 2.33 5.4 2.68 7.12 3.16 3.3 1.3h-5.3l-5.96-2.64-5.48-2.7-4.33-2.4-3.5-2.1-2.9-1.93-2.44-1.77-2.1-1.64-1.76-1.54-1.55-1.44-1.35-1.37-1.17-1.3-1.04-1.26-.92-1.2-.8-1.17-.73-1.13-.65-1.1-.57-1.1-.5-1.07-.45-1.06-.4-1.05-.33-1.04-.3-1.04-.24-1.05-.2-1.06-.16-1.06-.1-1.07-.08-1.14 2-.12z" stroke="#000" stroke-width=".05"/><path d="M-318.78 4562l-2 .05-.02-1.05h2z"/><path d="M-318.75 4562.03l-2.05.04-.02-1.1h2.05zm-2.02-1l.02 1 1.95-.05-.02-.95z" stroke="#000" stroke-width=".05"/><path d="M-119.14 4675.97l-9.35-11.72 8.68-3.26z"/><path d="M-118 4679l-12.13-15.2 11.25-4.23zm-8.85-14.3l6.57 8.24-.47-10.53z" stroke="#000" stroke-width=".05"/><use xlink:href="#p" transform="matrix(1,0,0,1,-281.17198669582945,4600.513223288232) translate(0 14.222222222222223)"/><path d="M51.13 4622.37h1.45l-50.86 15.5-9.6 3.78-6.9 3.07-5.28 2.62-4.17 2.28-3.37 2.04-2.78 1.85-2.33 1.7-1.98 1.55-1.68 1.46-1.45 1.37-1.27 1.28-1.1 1.22-.54.66-1.55-1.28.57-.7 1.15-1.27 1.32-1.34 1.5-1.42 1.75-1.5 2.03-1.62 2.4-1.74 2.85-1.9 3.44-2.07 4.24-2.34 5.36-2.65 7-3.1 9.7-3.82 50.07-15.26zm109.65-60.3l-.07 1.08-.1 1.04-.15 1.03-.2 1.02-.24 1.02-.27 1.02-.33 1-.38 1.03-.44 1.04-.5 1.04-.55 1.08-.63 1.1-.7 1.1-.8 1.14-.9 1.2-1.02 1.22-1.15 1.28-1.32 1.34-1.5 1.42-1.75 1.5-2.03 1.62-2.4 1.74-2.85 1.9-3.44 2.07-4.24 2.34-5.36 2.65-7 3.1-3.28 1.3v-.47h-4.3l6.8-2.68 6.93-3.07 5.26-2.62 4.17-2.28 3.37-2.04 2.78-1.85 2.33-1.7 1.98-1.55 1.68-1.46 1.45-1.37 1.27-1.28 1.1-1.22.96-1.17.85-1.1.75-1.1.66-1.03.58-1.02.52-.98.45-.97.4-.95.36-.95.3-.94.28-.93.22-.94.17-.94.15-.96.1-.96.06-1.04z" stroke="#000" stroke-width=".05"/><path d="M160.78 4562.05l-2-.04.02-1h2z"/><path d="M160.8 4562.07l-2.05-.04.03-1.05h2.04zm-1.98-1.05l-.02.96 1.95.04.02-1z" stroke="#000" stroke-width=".05"/><path d="M-37.38 4664.34l-9.46 11.64.8-14.98z"/><path d="M-35.74 4663.9L-48 4679l1.04-19.43zm-9.93 9.06l6.65-8.2-6.1-2.33z" stroke="#000" stroke-width=".05"/><use xlink:href="#p" transform="matrix(1,0,0,1,51.131816555743285,4601.034806708704) translate(0 14.222222222222223)"/><path d="M-79.5 4678.5h-1v-71.17h1zm0-92.5h-1v-8.62h1z" stroke="#3a414a" stroke-width=".05" fill="#3a414a"/><path d="M-79.5 4679h-1v-.5h1z" fill="#3a414a"/><path d="M-79.47 4679.02h-1.06v-.56h1.06zm-1-.5v.45h.94v-.46z" stroke="#3a414a" stroke-width=".05" fill="#3a414a"/><path d="M-75.36 4576.88h-9.28l4.64-14.26z" fill="#3a414a"/><path d="M-74.68 4577.38h-10.64L-80 4561zm-9.27-1h7.9l-3.95-12.14z" stroke="#3a414a" stroke-width=".05" fill="#3a414a"/><use xlink:href="#n" transform="matrix(1,0,0,1,-112.96296296296296,4585.999999999999) translate(0 14.222222222222223)"/><path d="M161 4380.5h-2v-17.17h2zm0-38.5h-2v-20h2z" stroke="#000" stroke-width=".05"/><path d="M161 4322.03h-2V4321h2z"/><path d="M161.03 4322.05h-2.06v-1.07h2.06zm-2-1.03v.98h1.94v-.98z" stroke="#000" stroke-width=".05"/><path d="M160 4395.76l-4.63-14.26h9.26z"/><path d="M160 4399l-6-18.5h12zm-3.26-16.5l3.26 10.03 3.26-10.03z" stroke="#000" stroke-width=".05"/><use xlink:href="#n" transform="matrix(1,0,0,1,127.03703703703707,4341.999999999999) translate(0 14.222222222222223)"/><path d="M87.88 4799.67H2v-2h85.88zm132.42 0h-68.37v-2h68.37z" stroke="#000" stroke-width=".05"/><path d="M2.03 4799.67H1v-2h1.03z"/><path d="M2.05 4799.7H.98v-2.06h1.07zm-1.02-2v1.94H2v-1.95z" stroke="#000" stroke-width=".05"/><path d="M235.56 4798.67l-14.26 4.63v-9.27z"/><path d="M238.8 4798.67l-18.5 6v-12.02zm-16.5 3.26l10.03-3.26-10.03-3.26z" stroke="#000" stroke-width=".05"/><use xlink:href="#h" transform="matrix(1,0,0,1,87.87693682444664,4787.999999459652) translate(0 14.222222222222223)"/><path d="M79.53 4725.67H19.5v-2h60.03zm158.27 0h-77.53v-2h77.53z" stroke="#000" stroke-width=".05"/><path d="M238.8 4725.67h-1.03v-2h1.03z"/><path d="M238.82 4725.7h-1.07v-2.06h1.07zm-1.03-2v1.94h.97v-1.95z" stroke="#000" stroke-width=".05"/><path d="M18.5 4729.3l-14.26-4.63 14.26-4.64z"/><path d="M19.5 4730.68l-18.5-6 18.5-6.03zm-12.03-6l10.03 3.25v-6.52z" stroke="#000" stroke-width=".05"/><use xlink:href="#i" transform="matrix(1,0,0,1,79.5276408517116,4713.999996756983) translate(0 14.222222222222223)"/><path d="M-320.27 4723.67h-77.53v-2h77.53zm140.77 0h-60.03v-2h60.03z" stroke="#000" stroke-width=".05"/><path d="M-397.77 4723.67h-1.03v-2h1.03z"/><path d="M-397.75 4723.7h-1.07v-2.06h1.07zm-1.02-2v1.94h.97v-1.95z" stroke="#000" stroke-width=".05"/><path d="M-164.24 4722.67l-14.26 4.63v-9.27z"/><path d="M-161 4722.67l-18.5 6v-12.02zm-16.5 3.26l10.03-3.26-10.03-3.26z" stroke="#000" stroke-width=".05"/><use xlink:href="#i" transform="matrix(1,0,0,1,-320.26843069155683,4711.999995270253) translate(0 14.222222222222223)"/><path d="M-315.85 4803.67h-64.45v-2h64.45zm153.85 0h-81.95v-2H-162z" stroke="#000" stroke-width=".05"/><path d="M-161 4803.67h-1.03v-2h1.03z"/><path d="M-160.97 4803.7h-1.08v-2.06h1.08zm-1.03-2v1.94h.97v-1.95z" stroke="#000" stroke-width=".05"/><path d="M-381.3 4807.3l-14.26-4.63 14.26-4.64z"/><path d="M-380.3 4808.68l-18.5-6 18.5-6.03zm-12.03-6l10.03 3.25v-6.52z" stroke="#000" stroke-width=".05"/><use xlink:href="#g" transform="matrix(1,0,0,1,-315.8521905114679,4791.99999932427) translate(0 14.222222222222223)"/><defs><path d="M556-476c0 141-103 215-251 213H171V0H85v-690h220c148-2 251 72 251 214zM171-612v271h134c110 0 165-45 165-135 0-91-55-136-165-136H171" id="q"/><path d="M252-434c-66-1-107 53-107 121V0H65v-500h80v49c48-85 215-70 259 11l-68 48c-20-28-48-42-84-42" id="r"/><path d="M248-508c135-1 208 86 208 224C456-109 409 9 248 8 115 9 38-82 40-218v-66c-2-136 75-225 208-224zM120-284c0 121 16 221 128 220 106-1 128-100 128-220 0-90-42-152-128-152-85 0-128 63-128 152" id="s"/><path d="M40-284c-2-134 70-224 200-224 63 0 108 19 136 58v-240h80V0h-80v-44C349-9 304 8 240 8 109 9 39-85 40-218v-66zm80 0c0 120 21 219 128 220 85 1 128-60 128-147 0-124-16-226-128-225-86 0-128 62-128 152" id="t"/><path d="M259-66c71 1 122-51 122-122v-312h80V0h-80v-49C351-7 319 7 247 8 126 7 65-62 65-188v-312h80v311c0 82 38 123 114 123" id="u"/><path d="M120-284c0 125 20 222 136 220 55 0 92-19 111-56l62 44C399-20 341 8 256 8 121 9 38-82 40-218v-66c-1-138 79-225 216-224 79 0 136 26 173 78l-63 44c-23-33-60-50-110-50-88-1-136 62-136 152" id="v"/><path d="M280 0C145 6 85-24 85-154v-274H21v-72h64v-110h80v110h115v72H165v254c-6 91 28 102 115 98V0" id="w"/><path d="M160 0H80v-500h80V0zm5-600H75v-90h90v90" id="x"/><path d="M267-434c-71-1-122 51-122 122V0H65v-500h80v49c30-42 62-56 134-57 121 1 182 70 182 196V0h-80v-311c0-82-38-123-114-123" id="y"/><path d="M60-512c2-121 91-189 223-186 103 0 179 38 228 113l-67 48c-43-53-76-82-164-83-78 0-134 33-134 108 0 95 67 108 163 128 130 27 214 62 214 199C523-55 430 7 291 8 179 8 97-30 45-105l71-49c49 56 80 82 175 84 97 0 146-37 146-111 0-94-64-111-163-129-143-22-214-89-214-202" id="z"/><path d="M120-232c-4 96 38 168 128 168 58 0 98-19 119-56l62 44C394-17 345 7 254 8 120 9 40-82 40-218c0-172 41-291 198-290 154-1 209 109 198 276H120zm118-204c-73 0-113 45-118 134h235c-4-89-43-134-117-134" id="A"/><g id="a"><use transform="matrix(0.022222222222222223,0,0,0.022222222222222223,0,0)" xlink:href="#q"/><use transform="matrix(0.022222222222222223,0,0,0.022222222222222223,13.066666666666666,0)" xlink:href="#r"/><use transform="matrix(0.022222222222222223,0,0,0.022222222222222223,21.822222222222223,0)" xlink:href="#s"/><use transform="matrix(0.022222222222222223,0,0,0.022222222222222223,32.84444444444445,0)" xlink:href="#t"/><use transform="matrix(0.022222222222222223,0,0,0.022222222222222223,44.422222222222224,0)" xlink:href="#u"/><use transform="matrix(0.022222222222222223,0,0,0.022222222222222223,56.111111111111114,0)" xlink:href="#v"/><use transform="matrix(0.022222222222222223,0,0,0.022222222222222223,65.97777777777779,0)" xlink:href="#w"/><use transform="matrix(0.022222222222222223,0,0,0.022222222222222223,72.97777777777779,0)" xlink:href="#x"/><use transform="matrix(0.022222222222222223,0,0,0.022222222222222223,78.31111111111112,0)" xlink:href="#s"/><use transform="matrix(0.022222222222222223,0,0,0.022222222222222223,89.33333333333334,0)" xlink:href="#y"/><use transform="matrix(0.022222222222222223,0,0,0.022222222222222223,101.02222222222224,0)" xlink:href="#z"/><use transform="matrix(0.022222222222222223,0,0,0.022222222222222223,113.71111111111114,0)" xlink:href="#v"/><use transform="matrix(0.022222222222222223,0,0,0.022222222222222223,123.5777777777778,0)" xlink:href="#A"/><use transform="matrix(0.022222222222222223,0,0,0.022222222222222223,134.42222222222225,0)" xlink:href="#y"/><use transform="matrix(0.022222222222222223,0,0,0.022222222222222223,146.11111111111114,0)" xlink:href="#A"/></g><path d="M547-215C530-77 448 4 300 8 108 13 50-143 50-383c0-210 83-315 250-315 149 1 229 86 248 223h-84c-21-92-62-144-164-145-154-2-168 142-164 313 3 144 36 237 164 237 102 0 143-55 164-145h83" id="B"/><path d="M286-256L468 0h-94L239-186 104 0H10l182-256L30-500h94l115 177 115-177h94" id="C"/><g id="b"><use transform="matrix(0.022222222222222223,0,0,0.022222222222222223,0,0)" xlink:href="#B"/><use transform="matrix(0.022222222222222223,0,0,0.022222222222222223,12.844444444444445,0)" xlink:href="#s"/><use transform="matrix(0.022222222222222223,0,0,0.022222222222222223,23.866666666666667,0)" xlink:href="#y"/><use transform="matrix(0.022222222222222223,0,0,0.022222222222222223,35.55555555555556,0)" xlink:href="#w"/><use transform="matrix(0.022222222222222223,0,0,0.022222222222222223,42.55555555555556,0)" xlink:href="#A"/><use transform="matrix(0.022222222222222223,0,0,0.022222222222222223,52.86666666666668,0)" xlink:href="#C"/><use transform="matrix(0.022222222222222223,0,0,0.022222222222222223,63.488888888888894,0)" xlink:href="#w"/></g><path d="M305 0H85v-690h220c190-7 250 145 250 381C555-103 472 0 305 0zm164-309c3-169-10-305-164-303H171v534h134c129-5 161-87 164-231" id="D"/><path d="M481-218C482-85 412 9 281 8c-63 0-108-19-136-58v240H65v-690h80v50c28-39 73-58 136-58 130 0 202 89 200 224v66zm-336-73c0 124 14 228 128 227 106-1 128-100 128-220 0-90-42-152-128-152-83 0-128 59-128 145" id="E"/><g id="c"><use transform="matrix(0.022222222222222223,0,0,0.022222222222222223,0,0)" xlink:href="#D"/><use transform="matrix(0.022222222222222223,0,0,0.022222222222222223,13.444444444444445,0)" xlink:href="#A"/><use transform="matrix(0.022222222222222223,0,0,0.022222222222222223,24.28888888888889,0)" xlink:href="#E"/><use transform="matrix(0.022222222222222223,0,0,0.022222222222222223,35.86666666666667,0)" xlink:href="#x"/><use transform="matrix(0.022222222222222223,0,0,0.022222222222222223,41.2,0)" xlink:href="#v"/><use transform="matrix(0.022222222222222223,0,0,0.022222222222222223,51.06666666666667,0)" xlink:href="#w"/><use transform="matrix(0.022222222222222223,0,0,0.022222222222222223,58.06666666666667,0)" xlink:href="#x"/><use transform="matrix(0.022222222222222223,0,0,0.022222222222222223,63.400000000000006,0)" xlink:href="#s"/><use transform="matrix(0.022222222222222223,0,0,0.022222222222222223,74.42222222222223,0)" xlink:href="#y"/></g><path d="M467-163v-527h86V0h-84L171-522V0H85v-690h82" id="F"/><path d="M219 8C111 9 40-44 40-146c0-95 62-143 187-143h119v-58c-2-74-33-85-111-87-71 1-91 8-120 51l-60-42c37-60 84-82 181-83 128 1 190 38 190 161V0h-80v-49C318-4 291 7 219 8zm0-74c103 2 133-44 127-155-96 5-231-25-226 77 0 52 33 78 99 78" id="G"/><path d="M252-102l152-398h90L294 0h-80L10-500h90" id="H"/><g id="d"><use transform="matrix(0.022222222222222223,0,0,0.022222222222222223,0,0)" xlink:href="#F"/><use transform="matrix(0.022222222222222223,0,0,0.022222222222222223,14.177777777777779,0)" xlink:href="#G"/><use transform="matrix(0.022222222222222223,0,0,0.022222222222222223,25.08888888888889,0)" xlink:href="#r"/><use transform="matrix(0.022222222222222223,0,0,0.022222222222222223,33.84444444444445,0)" xlink:href="#r"/><use transform="matrix(0.022222222222222223,0,0,0.022222222222222223,42.37777777777778,0)" xlink:href="#G"/><use transform="matrix(0.022222222222222223,0,0,0.022222222222222223,53.28888888888889,0)" xlink:href="#w"/><use transform="matrix(0.022222222222222223,0,0,0.022222222222222223,60.28888888888889,0)" xlink:href="#x"/><use transform="matrix(0.022222222222222223,0,0,0.022222222222222223,65.62222222222222,0)" xlink:href="#H"/><use transform="matrix(0.022222222222222223,0,0,0.022222222222222223,76.82222222222222,0)" xlink:href="#A"/></g><path d="M577 0L420-536 264 0h-86L10-690h90l125 542 152-542h85l155 545 125-545h90L664 0h-87" id="I"/><path d="M481-218C482-85 412 9 281 8 217 8 172-9 145-44V0H65v-690h80v240c28-39 73-58 136-58 130 0 202 89 200 224v66zm-336-73c0 124 14 228 128 227 106-1 128-100 128-220 0-90-42-152-128-152-83 0-128 59-128 145" id="J"/><g id="e"><use transform="matrix(0.022222222222222223,0,0,0.022222222222222223,0,0)" xlink:href="#I"/><use transform="matrix(0.022222222222222223,0,0,0.022222222222222223,18.400000000000002,0)" xlink:href="#G"/><use transform="matrix(0.022222222222222223,0,0,0.022222222222222223,29.311111111111114,0)" xlink:href="#r"/><use transform="matrix(0.022222222222222223,0,0,0.022222222222222223,38.06666666666667,0)" xlink:href="#t"/><use transform="matrix(0.022222222222222223,0,0,0.022222222222222223,49.644444444444446,0)" xlink:href="#r"/><use transform="matrix(0.022222222222222223,0,0,0.022222222222222223,58.400000000000006,0)" xlink:href="#s"/><use transform="matrix(0.022222222222222223,0,0,0.022222222222222223,69.42222222222223,0)" xlink:href="#J"/><use transform="matrix(0.022222222222222223,0,0,0.022222222222222223,81.00000000000001,0)" xlink:href="#A"/></g><path d="M154-158L101 0H10l240-690h80L570 0h-91l-53-158H154zm245-78L290-560 181-236h218" id="K"/><path d="M45-366c1-94 76-144 179-142 86 0 147 28 182 83l-60 42c-30-38-57-50-124-51-53 0-96 19-97 67 0 47 39 74 116 79 103 10 181 38 180 149C419-37 344 9 233 8 144 8 80-20 40-75l59-42c31 38 65 51 135 51 58 0 107-19 107-71 0-70-49-71-129-80-111-8-167-58-167-149" id="L"/><g id="f"><use transform="matrix(0.022222222222222223,0,0,0.022222222222222223,0,0)" xlink:href="#K"/><use transform="matrix(0.022222222222222223,0,0,0.022222222222222223,12.88888888888889,0)" xlink:href="#L"/><use transform="matrix(0.022222222222222223,0,0,0.022222222222222223,23.244444444444444,0)" xlink:href="#L"/><use transform="matrix(0.022222222222222223,0,0,0.022222222222222223,33.6,0)" xlink:href="#A"/><use transform="matrix(0.022222222222222223,0,0,0.022222222222222223,44.44444444444444,0)" xlink:href="#w"/></g><path fill="#333" d="M24-248c120-7 223 5 221 122C244-46 201 0 124 0H24v-248zM76-40c74 7 117-18 117-86 0-67-45-88-117-82v168" id="M"/><path fill="#333" d="M185-48c-13 30-37 53-82 52C43 2 14-33 14-96s30-98 90-98c62 0 83 45 84 108H66c0 31 8 55 39 56 18 0 30-7 34-22zm-45-69c5-46-57-63-70-21-2 6-4 13-4 21h74" id="N"/><path fill="#333" d="M135-194c53 0 70 44 70 98 0 56-19 98-73 100-31 1-45-17-59-34 3 33 2 69 2 105H25l-1-265h48c2 10 0 23 3 31 11-24 29-35 60-35zM114-30c33 0 39-31 40-66 0-38-9-64-40-64-56 0-55 130 0 130" id="O"/><path fill="#333" d="M25-224v-37h50v37H25zM25 0v-190h50V0H25" id="P"/><path fill="#333" d="M190-63c-7 42-38 67-86 67-59 0-84-38-90-98-12-110 154-137 174-36l-49 2c-2-19-15-32-35-32-30 0-35 28-38 64-6 74 65 87 74 30" id="Q"/><path fill="#333" d="M115-3C79 11 28 4 28-45v-112H4v-33h27l15-45h31v45h36v33H77v99c-1 23 16 31 38 25v30" id="R"/><path fill="#333" d="M110-194c64 0 96 36 96 99 0 64-35 99-97 99-61 0-95-36-95-99 0-62 34-99 96-99zm-1 164c35 0 45-28 45-65 0-40-10-65-43-65-34 0-45 26-45 65 0 36 10 65 43 65" id="S"/><path fill="#333" d="M135-150c-39-12-60 13-60 57V0H25l-1-190h47c2 13-1 29 3 40 6-28 27-53 61-41v41" id="T"/><g id="g"><use transform="matrix(0.04938271604938272,0,0,0.04938271604938272,0,0)" xlink:href="#M"/><use transform="matrix(0.04938271604938272,0,0,0.04938271604938272,12.790123456790125,0)" xlink:href="#N"/><use transform="matrix(0.04938271604938272,0,0,0.04938271604938272,22.66666666666667,0)" xlink:href="#O"/><use transform="matrix(0.04938271604938272,0,0,0.04938271604938272,33.48148148148149,0)" xlink:href="#P"/><use transform="matrix(0.04938271604938272,0,0,0.04938271604938272,38.41975308641976,0)" xlink:href="#Q"/><use transform="matrix(0.04938271604938272,0,0,0.04938271604938272,48.296296296296305,0)" xlink:href="#R"/><use transform="matrix(0.04938271604938272,0,0,0.04938271604938272,54.17283950617284,0)" xlink:href="#S"/><use transform="matrix(0.04938271604938272,0,0,0.04938271604938272,64.98765432098766,0)" xlink:href="#T"/></g><path fill="#333" d="M137-138c1-29-70-34-71-4 15 46 118 7 119 86 1 83-164 76-172 9l43-7c4 19 20 25 44 25 33 8 57-30 24-41C81-84 22-81 20-136c-2-80 154-74 161-7" id="U"/><g id="h"><use transform="matrix(0.04938271604938272,0,0,0.04938271604938272,0,0)" xlink:href="#M"/><use transform="matrix(0.04938271604938272,0,0,0.04938271604938272,12.790123456790125,0)" xlink:href="#N"/><use transform="matrix(0.04938271604938272,0,0,0.04938271604938272,22.66666666666667,0)" xlink:href="#O"/><use transform="matrix(0.04938271604938272,0,0,0.04938271604938272,33.48148148148149,0)" xlink:href="#P"/><use transform="matrix(0.04938271604938272,0,0,0.04938271604938272,38.41975308641976,0)" xlink:href="#Q"/><use transform="matrix(0.04938271604938272,0,0,0.04938271604938272,48.296296296296305,0)" xlink:href="#R"/><use transform="matrix(0.04938271604938272,0,0,0.04938271604938272,54.17283950617284,0)" xlink:href="#U"/></g><path fill="#333" d="M135-194c87-1 58 113 63 194h-50c-7-57 23-157-34-157-59 0-34 97-39 157H25l-1-190h47c2 12-1 28 3 38 12-26 28-41 61-42" id="V"/><g id="i"><use transform="matrix(0.04938271604938272,0,0,0.04938271604938272,0,0)" xlink:href="#M"/><use transform="matrix(0.04938271604938272,0,0,0.04938271604938272,12.790123456790125,0)" xlink:href="#N"/><use transform="matrix(0.04938271604938272,0,0,0.04938271604938272,22.66666666666667,0)" xlink:href="#O"/><use transform="matrix(0.04938271604938272,0,0,0.04938271604938272,33.48148148148149,0)" xlink:href="#P"/><use transform="matrix(0.04938271604938272,0,0,0.04938271604938272,38.41975308641976,0)" xlink:href="#Q"/><use transform="matrix(0.04938271604938272,0,0,0.04938271604938272,48.296296296296305,0)" xlink:href="#R"/><use transform="matrix(0.04938271604938272,0,0,0.04938271604938272,54.17283950617284,0)" xlink:href="#P"/><use transform="matrix(0.04938271604938272,0,0,0.04938271604938272,59.111111111111114,0)" xlink:href="#S"/><use transform="matrix(0.04938271604938272,0,0,0.04938271604938272,69.92592592592594,0)" xlink:href="#V"/></g><path d="M300-698c192 0 250 151 250 391C550-97 467 8 300 8 108 8 50-143 50-383c0-210 83-315 250-315zm0 78c-154-3-168 142-164 313 3 144 36 235 164 237 154 3 168-142 164-313-3-144-36-235-164-237" id="W"/><path d="M0 116c75-1 85-30 85-100v-516h80V36c-2 115-46 153-165 154v-74zm170-716H80v-90h90v90" id="X"/><g id="j"><use transform="matrix(0.022222222222222223,0,0,0.022222222222222223,0,0)" xlink:href="#F"/><use transform="matrix(0.022222222222222223,0,0,0.022222222222222223,14.177777777777779,0)" xlink:href="#G"/><use transform="matrix(0.022222222222222223,0,0,0.022222222222222223,25.08888888888889,0)" xlink:href="#r"/><use transform="matrix(0.022222222222222223,0,0,0.022222222222222223,33.84444444444445,0)" xlink:href="#r"/><use transform="matrix(0.022222222222222223,0,0,0.022222222222222223,42.37777777777778,0)" xlink:href="#G"/><use transform="matrix(0.022222222222222223,0,0,0.022222222222222223,53.28888888888889,0)" xlink:href="#w"/><use transform="matrix(0.022222222222222223,0,0,0.022222222222222223,60.28888888888889,0)" xlink:href="#x"/><use transform="matrix(0.022222222222222223,0,0,0.022222222222222223,65.62222222222222,0)" xlink:href="#H"/><use transform="matrix(0.022222222222222223,0,0,0.022222222222222223,76.82222222222222,0)" xlink:href="#A"/><use transform="matrix(0.022222222222222223,0,0,0.022222222222222223,87.66666666666667,0)" xlink:href="#W"/><use transform="matrix(0.022222222222222223,0,0,0.022222222222222223,101,0)" xlink:href="#J"/><use transform="matrix(0.022222222222222223,0,0,0.022222222222222223,112.57777777777778,0)" xlink:href="#X"/><use transform="matrix(0.022222222222222223,0,0,0.022222222222222223,117.80000000000001,0)" xlink:href="#A"/><use transform="matrix(0.022222222222222223,0,0,0.022222222222222223,128.64444444444445,0)" xlink:href="#v"/><use transform="matrix(0.022222222222222223,0,0,0.022222222222222223,138.51111111111112,0)" xlink:href="#w"/></g><path d="M267-434c-71-1-122 51-122 122V0H65v-690h80v239c30-42 62-56 134-57 121 1 182 70 182 196V0h-80v-311c0-82-38-123-114-123" id="Y"/><g id="k"><use transform="matrix(0.022222222222222223,0,0,0.022222222222222223,0,0)" xlink:href="#B"/><use transform="matrix(0.022222222222222223,0,0,0.022222222222222223,12.844444444444445,0)" xlink:href="#Y"/><use transform="matrix(0.022222222222222223,0,0,0.022222222222222223,24.533333333333335,0)" xlink:href="#G"/><use transform="matrix(0.022222222222222223,0,0,0.022222222222222223,35.44444444444444,0)" xlink:href="#r"/><use transform="matrix(0.022222222222222223,0,0,0.022222222222222223,43.977777777777774,0)" xlink:href="#G"/><use transform="matrix(0.022222222222222223,0,0,0.022222222222222223,54.88888888888888,0)" xlink:href="#v"/><use transform="matrix(0.022222222222222223,0,0,0.022222222222222223,64.75555555555556,0)" xlink:href="#w"/><use transform="matrix(0.022222222222222223,0,0,0.022222222222222223,71.75555555555556,0)" xlink:href="#A"/><use transform="matrix(0.022222222222222223,0,0,0.022222222222222223,82.60000000000001,0)" xlink:href="#r"/></g><g id="l"><use transform="matrix(0.022222222222222223,0,0,0.022222222222222223,0,0)" xlink:href="#q"/><use transform="matrix(0.022222222222222223,0,0,0.022222222222222223,12.622222222222224,0)" xlink:href="#G"/><use transform="matrix(0.022222222222222223,0,0,0.022222222222222223,23.533333333333328,0)" xlink:href="#r"/><use transform="matrix(0.022222222222222223,0,0,0.022222222222222223,32.28888888888889,0)" xlink:href="#w"/><use transform="matrix(0.022222222222222223,0,0,0.022222222222222223,39.28888888888889,0)" xlink:href="#x"/><use transform="matrix(0.022222222222222223,0,0,0.022222222222222223,44.62222222222223,0)" xlink:href="#v"/><use transform="matrix(0.022222222222222223,0,0,0.022222222222222223,54.488888888888894,0)" xlink:href="#x"/><use transform="matrix(0.022222222222222223,0,0,0.022222222222222223,59.82222222222224,0)" xlink:href="#E"/><use transform="matrix(0.022222222222222223,0,0,0.022222222222222223,71.4,0)" xlink:href="#G"/><use transform="matrix(0.022222222222222223,0,0,0.022222222222222223,82.31111111111112,0)" xlink:href="#y"/><use transform="matrix(0.022222222222222223,0,0,0.022222222222222223,94,0)" xlink:href="#w"/></g><path fill="#333" d="M238-95c0 69-44 99-111 99C63 4 22-25 22-93v-155h51v151c-1 38 19 59 55 60 90 1 49-130 58-211h52v153" id="Z"/><path fill="#333" d="M88-194c31-1 46 15 58 34l-1-101h50l1 261h-48c-2-10 0-23-3-31C134-8 116 4 84 4 32 4 16-41 15-95c0-56 19-97 73-99zm17 164c33 0 40-30 41-66 1-37-9-64-41-64s-38 30-39 65c0 43 13 65 39 65" id="aa"/><path fill="#333" d="M24 0v-248h52V0H24" id="ab"/><g id="m"><use transform="matrix(0.04938271604938272,0,0,0.04938271604938272,0,0)" xlink:href="#Z"/><use transform="matrix(0.04938271604938272,0,0,0.04938271604938272,12.790123456790125,0)" xlink:href="#U"/><use transform="matrix(0.04938271604938272,0,0,0.04938271604938272,22.66666666666667,0)" xlink:href="#N"/><use transform="matrix(0.04938271604938272,0,0,0.04938271604938272,32.543209876543216,0)" xlink:href="#aa"/><use transform="matrix(0.04938271604938272,0,0,0.04938271604938272,43.35802469135803,0)" xlink:href="#ab"/><use transform="matrix(0.04938271604938272,0,0,0.04938271604938272,48.296296296296305,0)" xlink:href="#V"/></g><path fill="#333" d="M67-125c0 53 21 87 73 88 37 1 54-22 65-47l45 17C233-25 199 4 140 4 58 4 20-42 15-125 8-235 124-281 211-232c18 10 29 29 36 50l-46 12c-8-25-30-41-62-41-52 0-71 34-72 86" id="ac"/><path fill="#333" d="M144 0l-44-69L55 0H2l70-98-66-92h53l41 62 40-62h54l-67 91 71 99h-54" id="ad"/><g id="n"><use transform="matrix(0.04938271604938272,0,0,0.04938271604938272,0,0)" xlink:href="#ac"/><use transform="matrix(0.04938271604938272,0,0,0.04938271604938272,12.790123456790125,0)" xlink:href="#S"/><use transform="matrix(0.04938271604938272,0,0,0.04938271604938272,23.60493827160494,0)" xlink:href="#V"/><use transform="matrix(0.04938271604938272,0,0,0.04938271604938272,34.41975308641975,0)" xlink:href="#R"/><use transform="matrix(0.04938271604938272,0,0,0.04938271604938272,40.2962962962963,0)" xlink:href="#N"/><use transform="matrix(0.04938271604938272,0,0,0.04938271604938272,50.17283950617284,0)" xlink:href="#ad"/><use transform="matrix(0.04938271604938272,0,0,0.04938271604938272,60.04938271604939,0)" xlink:href="#R"/></g><g id="o"><use transform="matrix(0.04938271604938272,0,0,0.04938271604938272,0,0)" xlink:href="#ac"/><use transform="matrix(0.04938271604938272,0,0,0.04938271604938272,12.790123456790125,0)" xlink:href="#S"/><use transform="matrix(0.04938271604938272,0,0,0.04938271604938272,23.60493827160494,0)" xlink:href="#V"/><use transform="matrix(0.04938271604938272,0,0,0.04938271604938272,34.41975308641975,0)" xlink:href="#N"/><use transform="matrix(0.04938271604938272,0,0,0.04938271604938272,44.2962962962963,0)" xlink:href="#R"/><use transform="matrix(0.04938271604938272,0,0,0.04938271604938272,50.17283950617284,0)" xlink:href="#N"/><use transform="matrix(0.04938271604938272,0,0,0.04938271604938272,60.04938271604939,0)" xlink:href="#ad"/><use transform="matrix(0.04938271604938272,0,0,0.04938271604938272,69.92592592592592,0)" xlink:href="#R"/></g><path fill="#333" d="M182-130c37 4 62 22 62 59C244 23 116-4 24 0v-248c84 5 203-23 205 63 0 31-19 50-47 55zM76-148c40-3 101 13 101-30 0-44-60-28-101-31v61zm0 110c48-3 116 14 116-37 0-48-69-32-116-35v72" id="ae"/><path fill="#333" d="M123 10C108 53 80 86 19 72V37c35 8 53-11 59-39L3-190h52l48 148c12-52 28-100 44-148h51" id="af"/><g id="p"><use transform="matrix(0.04938271604938272,0,0,0.04938271604938272,0,0)" xlink:href="#Z"/><use transform="matrix(0.04938271604938272,0,0,0.04938271604938272,12.790123456790125,0)" xlink:href="#U"/><use transform="matrix(0.04938271604938272,0,0,0.04938271604938272,22.66666666666667,0)" xlink:href="#N"/><use transform="matrix(0.04938271604938272,0,0,0.04938271604938272,32.543209876543216,0)" xlink:href="#aa"/><use transform="matrix(0.04938271604938272,0,0,0.04938271604938272,43.35802469135803,0)" xlink:href="#ae"/><use transform="matrix(0.04938271604938272,0,0,0.04938271604938272,56.14814814814817,0)" xlink:href="#af"/></g></defs></g></svg>