<svg xmlns="http://www.w3.org/2000/svg" xmlns:xlink="http://www.w3.org/1999/xlink" xmlns:lucid="lucid" width="800" height="402"><g transform="translate(1760 -758.9999999734524)" lucid:page-tab-id="0_0"><path d="M-1600 886a6 6 0 0 1 6-6h148a6 6 0 0 1 6 6v148a6 6 0 0 1-6 6h-148a6 6 0 0 1-6-6z" stroke="#000" stroke-width="2" fill="#fff"/><use xlink:href="#a" transform="matrix(1,0,0,1,-1594.9999999999998,885) translate(24.5 64.1861111111111)"/><use xlink:href="#b" transform="matrix(1,0,0,1,-1594.9999999999998,885) translate(46.67777777777778 92.54166666666666)"/><path d="M-1280 1006a6 6 0 0 1 6-6h148a6 6 0 0 1 6 6v148a6 6 0 0 1-6 6h-148a6 6 0 0 1-6-6z" stroke="#000" stroke-width="2" fill="#fff"/><use xlink:href="#c" transform="matrix(1,0,0,1,-1274.9999999999998,1005) translate(54.355555555555554 64.1861111111111)"/><use xlink:href="#d" transform="matrix(1,0,0,1,-1274.9999999999998,1005) translate(47.41111111111111 92.54166666666666)"/><path d="M-1343.03 1042.82l4.54 5.74 3.8 4.4 3.36 3.58 3.06 3 2.87 2.6 2.7 2.24 2.62 1.98 2.54 1.77 2.47 1.57 2.44 1.4 2.42 1.27 2.4 1.13 2.4 1.02 2.45.9 2.47.8 1.46.42-.54 1.92-1.5-.42-2.55-.83-2.53-.92-2.5-1.05-2.47-1.17-2.5-1.3-2.5-1.45-2.55-1.6-2.6-1.82-2.68-2.03-2.78-2.3-2.94-2.65-3.13-3.06-3.42-3.64-3.84-4.47-4.6-5.82-9.17-13.42h2.4zm-92.74-83.75l3.07.2 2.94.3 2.83.42 2.73.5 2.66.63 2.6.73 2.55.82 2.53.94 2.5 1.05 2.47 1.17 2.5 1.3 2.5 1.45 2.55 1.6 2.6 1.82 2.68 2.03 2.78 2.3 2.94 2.65 3.13 3.06 3.42 3.64 3.84 4.47 4.6 5.8 6.34 8.78 3.07 4.5h-2.42l-2.3-3.35-6.3-8.7-4.54-5.76-3.8-4.4-3.36-3.58-3.06-3-2.87-2.6-2.7-2.24-2.62-2-2.54-1.75-2.47-1.57-2.44-1.4-2.42-1.27-2.4-1.13-2.4-1.02-2.45-.9-2.47-.8-2.52-.7-2.58-.62-2.65-.5-2.75-.4-2.85-.3-3-.2-2.15-.04.04-2z" stroke="#000" stroke-width=".05"/><path d="M-1437.95 959.02l-.04 2-1-.02v-2z"/><path d="M-1437.93 959l-.04 2.05-1.06-.02v-2.06zm-1.04 1.98l.95.02.04-1.95-1-.02z" stroke="#000" stroke-width=".05"/><path d="M-1284.2 1079.58l-14.76 2.74 1.2-9.2z"/><path d="M-1281 1080l-19.13 3.55 1.57-11.92zm-16.8 1.08l10.38-1.92-9.52-4.54z" stroke="#000" stroke-width=".05"/><use xlink:href="#e" transform="matrix(1,0,0,1,-1379.0876759915825,1009.2488803585558) translate(0 14.222222222222223)"/><path d="M-1760 886a6 6 0 0 1 6-6h48a6 6 0 0 1 6 6v148a6 6 0 0 1-6 6h-48a6 6 0 0 1-6-6zM-1020 886a6 6 0 0 1 6-6h48a6 6 0 0 1 6 6v148a6 6 0 0 1-6 6h-48a6 6 0 0 1-6-6z" stroke="#000" stroke-opacity="0" stroke-width="2" fill="#fff"/><path d="M-1280 766a6 6 0 0 1 6-6h148a6 6 0 0 1 6 6v148a6 6 0 0 1-6 6h-148a6 6 0 0 1-6-6z" stroke="#000" stroke-width="2" fill="#fff"/><use xlink:href="#f" transform="matrix(1,0,0,1,-1275,765) translate(42.39999999999999 64.1861111111111)"/><use xlink:href="#g" transform="matrix(1,0,0,1,-1275,765) translate(44.75555555555555 92.54166666666666)"/><path d="M-1438 959.98l2.18-.05 3.03-.2 2.9-.3 2.8-.4 2.7-.52 2.6-.6 2.57-.7 2.5-.83 2.5-.92 2.44-1.03 2.46-1.15 2.45-1.3 2.5-1.42 2.5-1.6 2.56-1.78 2.65-2 2.76-2.28 2.9-2.63 3.1-3.03 3.38-3.6 3.83-4.44 4.57-5.78 6.32-8.75 26-38.1 4.57-5.77 3.83-4.43 3.38-3.6 3.1-3.04 2.9-2.62 2.75-2.26 2.64-2 2.56-1.8 2.5-1.6 2.5-1.42 2.44-1.28 2.45-1.16 2.44-1.03 2.48-.92 2.5-.82 1.5-.4" stroke="#000" stroke-width="2" stroke-linejoin="round" fill="none"/><path d="M-1437.95 960.98l-1.05.02v-2l1-.02z" stroke="#000" stroke-width=".05"/><path d="M-1284.2 840.42l-13.55 6.45-1.2-9.2z" stroke="#000" stroke-width="2"/><defs><path d="M556-476c0 141-103 215-251 213H171V0H85v-690h220c148-2 251 72 251 214zM171-612v271h134c110 0 165-45 165-135 0-91-55-136-165-136H171" id="h"/><path d="M219 8C111 9 40-44 40-146c0-95 62-143 187-143h119v-58c-2-74-33-85-111-87-71 1-91 8-120 51l-60-42c37-60 84-82 181-83 128 1 190 38 190 161V0h-80v-49C318-4 291 7 219 8zm0-74c103 2 133-44 127-155-96 5-231-25-226 77 0 52 33 78 99 78" id="i"/><path d="M252-434c-66-1-107 53-107 121V0H65v-500h80v49c48-85 215-70 259 11l-68 48c-20-28-48-42-84-42" id="j"/><path d="M280 0C145 6 85-24 85-154v-274H21v-72h64v-110h80v110h115v72H165v254c-6 91 28 102 115 98V0" id="k"/><path d="M160 0H80v-500h80V0zm5-600H75v-90h90v90" id="l"/><path d="M120-284c0 125 20 222 136 220 55 0 92-19 111-56l62 44C399-20 341 8 256 8 121 9 38-82 40-218v-66c-1-138 79-225 216-224 79 0 136 26 173 78l-63 44c-23-33-60-50-110-50-88-1-136 62-136 152" id="m"/><path d="M481-218C482-85 412 9 281 8c-63 0-108-19-136-58v240H65v-690h80v50c28-39 73-58 136-58 130 0 202 89 200 224v66zm-336-73c0 124 14 228 128 227 106-1 128-100 128-220 0-90-42-152-128-152-83 0-128 59-128 145" id="n"/><path d="M267-434c-71-1-122 51-122 122V0H65v-500h80v49c30-42 62-56 134-57 121 1 182 70 182 196V0h-80v-311c0-82-38-123-114-123" id="o"/><g id="a"><use transform="matrix(0.022222222222222223,0,0,0.022222222222222223,0,0)" xlink:href="#h"/><use transform="matrix(0.022222222222222223,0,0,0.022222222222222223,12.622222222222224,0)" xlink:href="#i"/><use transform="matrix(0.022222222222222223,0,0,0.022222222222222223,23.533333333333328,0)" xlink:href="#j"/><use transform="matrix(0.022222222222222223,0,0,0.022222222222222223,32.28888888888889,0)" xlink:href="#k"/><use transform="matrix(0.022222222222222223,0,0,0.022222222222222223,39.28888888888889,0)" xlink:href="#l"/><use transform="matrix(0.022222222222222223,0,0,0.022222222222222223,44.62222222222223,0)" xlink:href="#m"/><use transform="matrix(0.022222222222222223,0,0,0.022222222222222223,54.488888888888894,0)" xlink:href="#l"/><use transform="matrix(0.022222222222222223,0,0,0.022222222222222223,59.82222222222224,0)" xlink:href="#n"/><use transform="matrix(0.022222222222222223,0,0,0.022222222222222223,71.4,0)" xlink:href="#i"/><use transform="matrix(0.022222222222222223,0,0,0.022222222222222223,82.31111111111112,0)" xlink:href="#o"/><use transform="matrix(0.022222222222222223,0,0,0.022222222222222223,94,0)" xlink:href="#k"/></g><path d="M289-253H30v-72h259v72" id="p"/><path d="M250-698c110-1 198 84 198 199v308C452-76 360 9 250 8 140 9 52-76 52-192v-306c-4-116 88-201 198-200zm0 628c65 1 112-54 112-121v-308c2-67-47-122-112-121-66-1-113 54-113 121v308c-2 67 47 122 113 121" id="q"/><path d="M223-690h86V0h-86v-591l-99 71v-94" id="r"/><g id="b"><use transform="matrix(0.022222222222222223,0,0,0.022222222222222223,0,0)" xlink:href="#n"/><use transform="matrix(0.022222222222222223,0,0,0.022222222222222223,11.577777777777778,0)" xlink:href="#j"/><use transform="matrix(0.022222222222222223,0,0,0.022222222222222223,20.333333333333336,0)" xlink:href="#k"/><use transform="matrix(0.022222222222222223,0,0,0.022222222222222223,27.333333333333336,0)" xlink:href="#p"/><use transform="matrix(0.022222222222222223,0,0,0.022222222222222223,34.422222222222224,0)" xlink:href="#q"/><use transform="matrix(0.022222222222222223,0,0,0.022222222222222223,45.53333333333334,0)" xlink:href="#r"/></g><path d="M305-690c150-1 249 59 251 200 0 96-45 157-136 184L574 0h-96L334-291H171V0H85v-690h220zm165 200c0-98-58-122-165-122H171v243h134c106-1 165-24 165-121" id="s"/><path d="M248-508c135-1 208 86 208 224C456-109 409 9 248 8 115 9 38-82 40-218v-66c-2-136 75-225 208-224zM120-284c0 121 16 221 128 220 106-1 128-100 128-220 0-90-42-152-128-152-85 0-128 63-128 152" id="t"/><path d="M230 0C111-1 65-39 65-154v-536h80v516c0 66 13 102 85 100V0" id="u"/><path d="M120-232c-4 96 38 168 128 168 58 0 98-19 119-56l62 44C394-17 345 7 254 8 120 9 40-82 40-218c0-172 41-291 198-290 154-1 209 109 198 276H120zm118-204c-73 0-113 45-118 134h235c-4-89-43-134-117-134" id="v"/><g id="c"><use transform="matrix(0.022222222222222223,0,0,0.022222222222222223,0,0)" xlink:href="#s"/><use transform="matrix(0.022222222222222223,0,0,0.022222222222222223,13.333333333333334,0)" xlink:href="#t"/><use transform="matrix(0.022222222222222223,0,0,0.022222222222222223,24.355555555555558,0)" xlink:href="#u"/><use transform="matrix(0.022222222222222223,0,0,0.022222222222222223,30.44444444444444,0)" xlink:href="#v"/></g><g id="d"><use transform="matrix(0.022222222222222223,0,0,0.022222222222222223,0,0)" xlink:href="#j"/><use transform="matrix(0.022222222222222223,0,0,0.022222222222222223,8.755555555555556,0)" xlink:href="#t"/><use transform="matrix(0.022222222222222223,0,0,0.022222222222222223,19.77777777777778,0)" xlink:href="#u"/><use transform="matrix(0.022222222222222223,0,0,0.022222222222222223,25.866666666666667,0)" xlink:href="#p"/><use transform="matrix(0.022222222222222223,0,0,0.022222222222222223,32.955555555555556,0)" xlink:href="#q"/><use transform="matrix(0.022222222222222223,0,0,0.022222222222222223,44.06666666666666,0)" xlink:href="#r"/></g><path fill="#333" d="M240-174c0 40-23 61-54 70L253 0h-59l-57-94H76V0H24v-248c93 4 217-23 216 74zM76-134c48-2 112 12 112-38 0-48-66-32-112-35v73" id="w"/><path fill="#333" d="M110-194c64 0 96 36 96 99 0 64-35 99-97 99-61 0-95-36-95-99 0-62 34-99 96-99zm-1 164c35 0 45-28 45-65 0-40-10-65-43-65-34 0-45 26-45 65 0 36 10 65 43 65" id="x"/><path fill="#333" d="M25 0v-261h50V0H25" id="y"/><path fill="#333" d="M185-48c-13 30-37 53-82 52C43 2 14-33 14-96s30-98 90-98c62 0 83 45 84 108H66c0 31 8 55 39 56 18 0 30-7 34-22zm-45-69c5-46-57-63-70-21-2 6-4 13-4 21h74" id="z"/><g id="e"><use transform="matrix(0.04938271604938272,0,0,0.04938271604938272,0,0)" xlink:href="#w"/><use transform="matrix(0.04938271604938272,0,0,0.04938271604938272,12.790123456790125,0)" xlink:href="#x"/><use transform="matrix(0.04938271604938272,0,0,0.04938271604938272,23.60493827160494,0)" xlink:href="#y"/><use transform="matrix(0.04938271604938272,0,0,0.04938271604938272,28.543209876543212,0)" xlink:href="#z"/></g><path d="M45-366c1-94 76-144 179-142 86 0 147 28 182 83l-60 42c-30-38-57-50-124-51-53 0-96 19-97 67 0 47 39 74 116 79 103 10 181 38 180 149C419-37 344 9 233 8 144 8 80-20 40-75l59-42c31 38 65 51 135 51 58 0 107-19 107-71 0-70-49-71-129-80-111-8-167-58-167-149" id="A"/><g id="f"><use transform="matrix(0.022222222222222223,0,0,0.022222222222222223,0,0)" xlink:href="#h"/><use transform="matrix(0.022222222222222223,0,0,0.022222222222222223,12.533333333333333,0)" xlink:href="#v"/><use transform="matrix(0.022222222222222223,0,0,0.022222222222222223,23.37777777777778,0)" xlink:href="#j"/><use transform="matrix(0.022222222222222223,0,0,0.022222222222222223,32.13333333333334,0)" xlink:href="#A"/><use transform="matrix(0.022222222222222223,0,0,0.022222222222222223,42.488888888888894,0)" xlink:href="#t"/><use transform="matrix(0.022222222222222223,0,0,0.022222222222222223,53.51111111111112,0)" xlink:href="#o"/></g><g id="g"><use transform="matrix(0.022222222222222223,0,0,0.022222222222222223,0,0)" xlink:href="#n"/><use transform="matrix(0.022222222222222223,0,0,0.022222222222222223,11.577777777777778,0)" xlink:href="#v"/><use transform="matrix(0.022222222222222223,0,0,0.022222222222222223,22.422222222222224,0)" xlink:href="#j"/><use transform="matrix(0.022222222222222223,0,0,0.022222222222222223,31.17777777777778,0)" xlink:href="#p"/><use transform="matrix(0.022222222222222223,0,0,0.022222222222222223,38.26666666666667,0)" xlink:href="#q"/><use transform="matrix(0.022222222222222223,0,0,0.022222222222222223,49.37777777777778,0)" xlink:href="#r"/></g></defs></g></svg>