<svg xmlns="http://www.w3.org/2000/svg" xmlns:xlink="http://www.w3.org/1999/xlink" xmlns:lucid="lucid" width="802" height="162"><g transform="translate(2881.0000000265477 -958.9999999734524)" lucid:page-tab-id="0_0"><path d="M-2880 966a6 6 0 0 1 6-6h148a6 6 0 0 1 6 6v148a6 6 0 0 1-6 6h-148a6 6 0 0 1-6-6z" stroke="#000" stroke-width="2" fill="#fff"/><use xlink:href="#a" transform="matrix(1,0,0,1,-2875,965) translate(49.27777777777778 64.1861111111111)"/><use xlink:href="#b" transform="matrix(1,0,0,1,-2875,965) translate(46.21111111111111 92.54166666666666)"/><path d="M-2560 966a6 6 0 0 1 6-6h148a6 6 0 0 1 6 6v148a6 6 0 0 1-6 6h-148a6 6 0 0 1-6-6z" stroke="#000" stroke-width="2" fill="#fff"/><use xlink:href="#c" transform="matrix(1,0,0,1,-2555,965) translate(36.51111111111111 64.1861111111111)"/><use xlink:href="#d" transform="matrix(1,0,0,1,-2555,965) translate(30.422222222222217 92.54166666666666)"/><path d="M-2240 966a6 6 0 0 1 6-6h148a6 6 0 0 1 6 6v148a6 6 0 0 1-6 6h-148a6 6 0 0 1-6-6z" stroke="#000" stroke-width="2" fill="#fff"/><use xlink:href="#c" transform="matrix(1,0,0,1,-2235,965) translate(36.51111111111111 64.1861111111111)"/><use xlink:href="#e" transform="matrix(1,0,0,1,-2235,965) translate(26.044444444444437 92.54166666666666)"/><path d="M-2687.8 1041h-30.2v-2h30.2zm108.3 0h-35.36v-2h35.36z" stroke="#000" stroke-width=".05"/><path d="M-2717.97 1041h-1.03v-2h1.03z"/><path d="M-2717.95 1041.03h-1.08v-2.06h1.08zm-1.03-2v1.94h.98v-1.94z" stroke="#000" stroke-width=".05"/><path d="M-2564.24 1040l-14.26 4.63v-9.27z"/><path d="M-2561 1040l-18.5 6v-12zm-16.5 3.26l10.03-3.26-10.03-3.26z" stroke="#000" stroke-width=".05"/><use xlink:href="#f" transform="matrix(1,0,0,1,-2687.8024691358023,1029.3333333333335) translate(0 14.222222222222223)"/><path d="M-2397.85 1077h-.15v-2h.15zm138.35 0h-9.32v-2h9.32z" stroke="#000" stroke-width=".05"/><path d="M-2397.97 1077h-1.03v-2h1.03z"/><path d="M-2397.95 1077.03h-1.08v-2.06h1.08zm-1.03-2v1.94h.98v-1.94z" stroke="#000" stroke-width=".05"/><path d="M-2244.24 1076l-14.26 4.63v-9.27z"/><path d="M-2241 1076l-18.5 6v-12zm-16.5 3.26l10.03-3.26-10.03-3.26z" stroke="#000" stroke-width=".05"/><use xlink:href="#g" transform="matrix(1,0,0,1,-2397.8518518518517,1065.3333520270444) translate(0 14.222222222222223)"/><path stroke="#000" stroke-width=".05"/><path/><path stroke="#000" stroke-width=".05"/><path d="M-2389.1 1006.16l-6.66-2.16 6.65-2.16z"/><path d="M-2389.1 1002.9l-3.43 1.1 3.42 1.1v2.1l-9.9-3.2 9.9-3.2z" stroke="#000" stroke-width=".05"/><g><use xlink:href="#h" transform="matrix(1,0,0,1,-2389.111353970421,993.3333412162666) translate(0 14.222222222222223)"/></g><defs><path d="M154-158L101 0H10l240-690h80L570 0h-91l-53-158H154zm245-78L290-560 181-236h218" id="i"/><path d="M45-366c1-94 76-144 179-142 86 0 147 28 182 83l-60 42c-30-38-57-50-124-51-53 0-96 19-97 67 0 47 39 74 116 79 103 10 181 38 180 149C419-37 344 9 233 8 144 8 80-20 40-75l59-42c31 38 65 51 135 51 58 0 107-19 107-71 0-70-49-71-129-80-111-8-167-58-167-149" id="j"/><path d="M120-232c-4 96 38 168 128 168 58 0 98-19 119-56l62 44C394-17 345 7 254 8 120 9 40-82 40-218c0-172 41-291 198-290 154-1 209 109 198 276H120zm118-204c-73 0-113 45-118 134h235c-4-89-43-134-117-134" id="k"/><path d="M280 0C145 6 85-24 85-154v-274H21v-72h64v-110h80v110h115v72H165v254c-6 91 28 102 115 98V0" id="l"/><g id="a"><use transform="matrix(0.022222222222222223,0,0,0.022222222222222223,0,0)" xlink:href="#i"/><use transform="matrix(0.022222222222222223,0,0,0.022222222222222223,12.88888888888889,0)" xlink:href="#j"/><use transform="matrix(0.022222222222222223,0,0,0.022222222222222223,23.244444444444444,0)" xlink:href="#j"/><use transform="matrix(0.022222222222222223,0,0,0.022222222222222223,33.6,0)" xlink:href="#k"/><use transform="matrix(0.022222222222222223,0,0,0.022222222222222223,44.44444444444444,0)" xlink:href="#l"/></g><path d="M219 8C111 9 40-44 40-146c0-95 62-143 187-143h119v-58c-2-74-33-85-111-87-71 1-91 8-120 51l-60-42c37-60 84-82 181-83 128 1 190 38 190 161V0h-80v-49C318-4 291 7 219 8zm0-74c103 2 133-44 127-155-96 5-231-25-226 77 0 52 33 78 99 78" id="m"/><path d="M289-253H30v-72h259v72" id="n"/><path d="M250-698c110-1 198 84 198 199v308C452-76 360 9 250 8 140 9 52-76 52-192v-306c-4-116 88-201 198-200zm0 628c65 1 112-54 112-121v-308c2-67-47-122-112-121-66-1-113 54-113 121v308c-2 67 47 122 113 121" id="o"/><path d="M223-690h86V0h-86v-591l-99 71v-94" id="p"/><g id="b"><use transform="matrix(0.022222222222222223,0,0,0.022222222222222223,0,0)" xlink:href="#m"/><use transform="matrix(0.022222222222222223,0,0,0.022222222222222223,10.911111111111111,0)" xlink:href="#j"/><use transform="matrix(0.022222222222222223,0,0,0.022222222222222223,21.266666666666666,0)" xlink:href="#l"/><use transform="matrix(0.022222222222222223,0,0,0.022222222222222223,28.26666666666667,0)" xlink:href="#n"/><use transform="matrix(0.022222222222222223,0,0,0.022222222222222223,35.355555555555554,0)" xlink:href="#o"/><use transform="matrix(0.022222222222222223,0,0,0.022222222222222223,46.46666666666667,0)" xlink:href="#p"/></g><path d="M60-512c2-121 91-189 223-186 103 0 179 38 228 113l-67 48c-43-53-76-82-164-83-78 0-134 33-134 108 0 95 67 108 163 128 130 27 214 62 214 199C523-55 430 7 291 8 179 8 97-30 45-105l71-49c49 56 80 82 175 84 97 0 146-37 146-111 0-94-64-111-163-129-143-22-214-89-214-202" id="q"/><path d="M547-215C530-77 448 4 300 8 108 13 50-143 50-383c0-210 83-315 250-315 149 1 229 86 248 223h-84c-21-92-62-144-164-145-154-2-168 142-164 313 3 144 36 237 164 237 102 0 143-55 164-145h83" id="r"/><g id="c"><use transform="matrix(0.022222222222222223,0,0,0.022222222222222223,0,0)" xlink:href="#i"/><use transform="matrix(0.022222222222222223,0,0,0.022222222222222223,12.88888888888889,0)" xlink:href="#j"/><use transform="matrix(0.022222222222222223,0,0,0.022222222222222223,23.244444444444444,0)" xlink:href="#j"/><use transform="matrix(0.022222222222222223,0,0,0.022222222222222223,33.6,0)" xlink:href="#k"/><use transform="matrix(0.022222222222222223,0,0,0.022222222222222223,44.44444444444444,0)" xlink:href="#l"/><use transform="matrix(0.022222222222222223,0,0,0.022222222222222223,51.44444444444444,0)" xlink:href="#q"/><use transform="matrix(0.022222222222222223,0,0,0.022222222222222223,64.13333333333333,0)" xlink:href="#r"/></g><path d="M120-284c0 125 20 222 136 220 55 0 92-19 111-56l62 44C399-20 341 8 256 8 121 9 38-82 40-218v-66c-1-138 79-225 216-224 79 0 136 26 173 78l-63 44c-23-33-60-50-110-50-88-1-136 62-136 152" id="s"/><path d="M481-218C482-85 412 9 281 8 217 8 172-9 145-44V0H65v-690h80v240c28-39 73-58 136-58 130 0 202 89 200 224v66zm-336-73c0 124 14 228 128 227 106-1 128-100 128-220 0-90-42-152-128-152-83 0-128 59-128 145" id="t"/><g id="d"><use transform="matrix(0.022222222222222223,0,0,0.022222222222222223,0,0)" xlink:href="#m"/><use transform="matrix(0.022222222222222223,0,0,0.022222222222222223,10.911111111111111,0)" xlink:href="#j"/><use transform="matrix(0.022222222222222223,0,0,0.022222222222222223,21.266666666666666,0)" xlink:href="#l"/><use transform="matrix(0.022222222222222223,0,0,0.022222222222222223,28.26666666666667,0)" xlink:href="#j"/><use transform="matrix(0.022222222222222223,0,0,0.022222222222222223,38.62222222222222,0)" xlink:href="#s"/><use transform="matrix(0.022222222222222223,0,0,0.022222222222222223,48.266666666666666,0)" xlink:href="#n"/><use transform="matrix(0.022222222222222223,0,0,0.022222222222222223,55.355555555555554,0)" xlink:href="#o"/><use transform="matrix(0.022222222222222223,0,0,0.022222222222222223,66.46666666666667,0)" xlink:href="#p"/><use transform="matrix(0.022222222222222223,0,0,0.022222222222222223,77.57777777777778,0)" xlink:href="#t"/></g><path d="M252-434c-66-1-107 53-107 121V0H65v-500h80v49c48-85 215-70 259 11l-68 48c-20-28-48-42-84-42" id="u"/><g id="e"><use transform="matrix(0.022222222222222223,0,0,0.022222222222222223,0,0)" xlink:href="#m"/><use transform="matrix(0.022222222222222223,0,0,0.022222222222222223,10.911111111111111,0)" xlink:href="#j"/><use transform="matrix(0.022222222222222223,0,0,0.022222222222222223,21.266666666666666,0)" xlink:href="#l"/><use transform="matrix(0.022222222222222223,0,0,0.022222222222222223,28.26666666666667,0)" xlink:href="#j"/><use transform="matrix(0.022222222222222223,0,0,0.022222222222222223,38.62222222222222,0)" xlink:href="#s"/><use transform="matrix(0.022222222222222223,0,0,0.022222222222222223,48.266666666666666,0)" xlink:href="#n"/><use transform="matrix(0.022222222222222223,0,0,0.022222222222222223,55.355555555555554,0)" xlink:href="#o"/><use transform="matrix(0.022222222222222223,0,0,0.022222222222222223,66.46666666666667,0)" xlink:href="#p"/><use transform="matrix(0.022222222222222223,0,0,0.022222222222222223,77.57777777777778,0)" xlink:href="#t"/><use transform="matrix(0.022222222222222223,0,0,0.022222222222222223,89.15555555555557,0)" xlink:href="#u"/></g><path fill="#333" d="M199 0l-22-63H83L61 0H9l90-248h61L250 0h-51zm-33-102l-36-108c-10 38-24 72-36 108h72" id="v"/><path fill="#333" d="M137-138c1-29-70-34-71-4 15 46 118 7 119 86 1 83-164 76-172 9l43-7c4 19 20 25 44 25 33 8 57-30 24-41C81-84 22-81 20-136c-2-80 154-74 161-7" id="w"/><path fill="#333" d="M185-48c-13 30-37 53-82 52C43 2 14-33 14-96s30-98 90-98c62 0 83 45 84 108H66c0 31 8 55 39 56 18 0 30-7 34-22zm-45-69c5-46-57-63-70-21-2 6-4 13-4 21h74" id="x"/><path fill="#333" d="M115-3C79 11 28 4 28-45v-112H4v-33h27l15-45h31v45h36v33H77v99c-1 23 16 31 38 25v30" id="y"/><path fill="#333" d="M169-182c-1-43-94-46-97-3 18 66 151 10 154 114 3 95-165 93-204 36-6-8-10-19-12-30l50-8c3 46 112 56 116 5-17-69-150-10-154-114-4-87 153-88 188-35 5 8 8 18 10 28" id="z"/><path fill="#333" d="M67-125c0 53 21 87 73 88 37 1 54-22 65-47l45 17C233-25 199 4 140 4 58 4 20-42 15-125 8-235 124-281 211-232c18 10 29 29 36 50l-46 12c-8-25-30-41-62-41-52 0-71 34-72 86" id="A"/><g id="f"><use transform="matrix(0.04938271604938272,0,0,0.04938271604938272,0,0)" xlink:href="#v"/><use transform="matrix(0.04938271604938272,0,0,0.04938271604938272,12.790123456790125,0)" xlink:href="#w"/><use transform="matrix(0.04938271604938272,0,0,0.04938271604938272,22.66666666666667,0)" xlink:href="#w"/><use transform="matrix(0.04938271604938272,0,0,0.04938271604938272,32.543209876543216,0)" xlink:href="#x"/><use transform="matrix(0.04938271604938272,0,0,0.04938271604938272,42.41975308641976,0)" xlink:href="#y"/><use transform="matrix(0.04938271604938272,0,0,0.04938271604938272,48.296296296296305,0)" xlink:href="#z"/><use transform="matrix(0.04938271604938272,0,0,0.04938271604938272,60.14814814814817,0)" xlink:href="#A"/></g><path fill="#333" d="M240-174c0 40-23 61-54 70L253 0h-59l-57-94H76V0H24v-248c93 4 217-23 216 74zM76-134c48-2 112 12 112-38 0-48-66-32-112-35v73" id="B"/><path fill="#333" d="M135-194c53 0 70 44 70 98 0 56-19 98-73 100-31 1-45-17-59-34 3 33 2 69 2 105H25l-1-265h48c2 10 0 23 3 31 11-24 29-35 60-35zM114-30c33 0 39-31 40-66 0-38-9-64-40-64-56 0-55 130 0 130" id="C"/><path fill="#333" d="M135-150c-39-12-60 13-60 57V0H25l-1-190h47c2 13-1 29 3 40 6-28 27-53 61-41v41" id="D"/><path fill="#333" d="M135-194c87-1 58 113 63 194h-50c-7-57 23-157-34-157-59 0-34 97-39 157H25l-1-190h47c2 12-1 28 3 38 12-26 28-41 61-42" id="E"/><path fill="#333" d="M133-34C117-15 103 5 69 4 32 3 11-16 11-54c-1-60 55-63 116-61 1-26-3-47-28-47-18 1-26 9-28 27l-52-2c7-38 36-58 82-57s74 22 75 68l1 82c-1 14 12 18 25 15v27c-30 8-71 5-69-32zm-48 3c29 0 43-24 42-57-32 0-66-3-65 30 0 17 8 27 23 27" id="F"/><path fill="#333" d="M25-224v-37h50v37H25zM25 0v-190h50V0H25" id="G"/><path fill="#333" d="M110-194c64 0 96 36 96 99 0 64-35 99-97 99-61 0-95-36-95-99 0-62 34-99 96-99zm-1 164c35 0 45-28 45-65 0-40-10-65-43-65-34 0-45 26-45 65 0 36 10 65 43 65" id="H"/><g id="g"><use transform="matrix(0.04938271604938272,0,0,0.04938271604938272,0,0)" xlink:href="#B"/><use transform="matrix(0.04938271604938272,0,0,0.04938271604938272,12.790123456790125,0)" xlink:href="#x"/><use transform="matrix(0.04938271604938272,0,0,0.04938271604938272,22.66666666666667,0)" xlink:href="#C"/><use transform="matrix(0.04938271604938272,0,0,0.04938271604938272,33.48148148148149,0)" xlink:href="#D"/><use transform="matrix(0.04938271604938272,0,0,0.04938271604938272,40.39506172839507,0)" xlink:href="#x"/><use transform="matrix(0.04938271604938272,0,0,0.04938271604938272,50.271604938271615,0)" xlink:href="#w"/><use transform="matrix(0.04938271604938272,0,0,0.04938271604938272,60.14814814814817,0)" xlink:href="#x"/><use transform="matrix(0.04938271604938272,0,0,0.04938271604938272,70.02469135802471,0)" xlink:href="#E"/><use transform="matrix(0.04938271604938272,0,0,0.04938271604938272,80.83950617283952,0)" xlink:href="#y"/><use transform="matrix(0.04938271604938272,0,0,0.04938271604938272,86.71604938271606,0)" xlink:href="#F"/><use transform="matrix(0.04938271604938272,0,0,0.04938271604938272,96.59259259259261,0)" xlink:href="#y"/><use transform="matrix(0.04938271604938272,0,0,0.04938271604938272,102.46913580246914,0)" xlink:href="#G"/><use transform="matrix(0.04938271604938272,0,0,0.04938271604938272,107.40740740740742,0)" xlink:href="#H"/><use transform="matrix(0.04938271604938272,0,0,0.04938271604938272,118.22222222222223,0)" xlink:href="#E"/></g><path fill="#333" d="M140-251c80 0 125 45 125 126S219 4 139 4C58 4 15-44 15-125s44-126 125-126zm-1 214c52 0 73-35 73-88 0-50-21-86-72-86-52 0-73 35-73 86s22 88 72 88" id="I"/><path fill="#333" d="M121-226c-27-7-43 5-38 36h38v33H83V0H34v-157H6v-33h28c-9-59 32-81 87-68v32" id="J"/><g id="h"><use transform="matrix(0.04938271604938272,0,0,0.04938271604938272,0,0)" xlink:href="#B"/><use transform="matrix(0.04938271604938272,0,0,0.04938271604938272,12.790123456790125,0)" xlink:href="#x"/><use transform="matrix(0.04938271604938272,0,0,0.04938271604938272,22.66666666666667,0)" xlink:href="#C"/><use transform="matrix(0.04938271604938272,0,0,0.04938271604938272,33.48148148148149,0)" xlink:href="#D"/><use transform="matrix(0.04938271604938272,0,0,0.04938271604938272,40.39506172839507,0)" xlink:href="#x"/><use transform="matrix(0.04938271604938272,0,0,0.04938271604938272,50.271604938271615,0)" xlink:href="#w"/><use transform="matrix(0.04938271604938272,0,0,0.04938271604938272,60.14814814814817,0)" xlink:href="#x"/><use transform="matrix(0.04938271604938272,0,0,0.04938271604938272,70.02469135802471,0)" xlink:href="#E"/><use transform="matrix(0.04938271604938272,0,0,0.04938271604938272,80.83950617283952,0)" xlink:href="#y"/><use transform="matrix(0.04938271604938272,0,0,0.04938271604938272,86.71604938271606,0)" xlink:href="#F"/><use transform="matrix(0.04938271604938272,0,0,0.04938271604938272,96.59259259259261,0)" xlink:href="#y"/><use transform="matrix(0.04938271604938272,0,0,0.04938271604938272,102.46913580246914,0)" xlink:href="#G"/><use transform="matrix(0.04938271604938272,0,0,0.04938271604938272,107.40740740740742,0)" xlink:href="#H"/><use transform="matrix(0.04938271604938272,0,0,0.04938271604938272,118.22222222222223,0)" xlink:href="#E"/><use transform="matrix(0.04938271604938272,0,0,0.04938271604938272,129.03703703703704,0)" xlink:href="#I"/><use transform="matrix(0.04938271604938272,0,0,0.04938271604938272,142.8641975308642,0)" xlink:href="#J"/></g></defs></g></svg>