<svg xmlns="http://www.w3.org/2000/svg" xmlns:xlink="http://www.w3.org/1999/xlink" xmlns:lucid="lucid" width="803.28" height="642"><g transform="translate(2881.0000000265477 -1198.9999999734525)" lucid:page-tab-id="0_0"><path d="M-2880 1446a6 6 0 0 1 6-6h148a6 6 0 0 1 6 6v148a6 6 0 0 1-6 6h-148a6 6 0 0 1-6-6z" stroke="#000" stroke-width="2" fill="#fff"/><use xlink:href="#a" transform="matrix(1,0,0,1,-2875,1445) translate(36.51111111111111 64.1861111111111)"/><use xlink:href="#b" transform="matrix(1,0,0,1,-2875,1445) translate(30.755555555555553 92.54166666666666)"/><path d="M-2560 1446a6 6 0 0 1 6-6h148a6 6 0 0 1 6 6v148a6 6 0 0 1-6 6h-148a6 6 0 0 1-6-6z" stroke="#000" stroke-width="2" fill="#fff"/><use xlink:href="#a" transform="matrix(1,0,0,1,-2555,1445) translate(36.51111111111111 64.1861111111111)"/><use xlink:href="#c" transform="matrix(1,0,0,1,-2555,1445) translate(30.422222222222217 92.54166666666666)"/><path d="M-2238.72 1446.42a6 6 0 0 1 6-6h148a6 6 0 0 1 6 6v148a6 6 0 0 1-6 6h-148a6 6 0 0 1-6-6z" stroke="#000" stroke-width="2" fill="#fff"/><use xlink:href="#a" transform="matrix(1,0,0,1,-2233.723927068641,1445.4253576437864) translate(36.51111111111111 64.1861111111111)"/><use xlink:href="#d" transform="matrix(1,0,0,1,-2233.723927068641,1445.4253576437864) translate(30.755555555555553 92.54166666666666)"/><path d="M-2258.22 1555.38v2l-26.97-.08v-2zm-113.7-.3v2l-26.08-.08v-2z" stroke="#000" stroke-width=".05"/><path d="M-2397.97 1555v2h-1.03v-2z"/><path d="M-2397.94 1554.98v2.05h-1.1v-2.06zm-1.03 2h.97v-1.95h-.97z" stroke="#000" stroke-width=".05"/><path d="M-2242.96 1556.42l-14.28 4.6.03-9.28z"/><path d="M-2239.72 1556.42l-18.52 5.97.03-12.04zm-16.5 3.22l10.02-3.23-10.02-3.28z" stroke="#000" stroke-width=".05"/><use xlink:href="#e" transform="matrix(1,0,0,1,-2371.9046845642874,1545.5214988817168) translate(0 14.222222222222223)"/><path d="M-2240.72 1483.42v2l-12.58-.03v-2zm-122-.32v2l-17.78-.05v-2z" stroke="#000" stroke-width=".05"/><path d="M-2239.72 1483.42v2h-1.04v-2z"/><path d="M-2239.7 1483.4v2.05h-1.08v-2.05zm-1.03 2h.98v-1.95h-.97z" stroke="#000" stroke-width=".05"/><path d="M-2381.5 1488.68l-14.26-4.67 14.27-4.6z"/><path d="M-2380.5 1490.06l-18.5-6.06 18.52-5.96zm-12.03-6.04l10.02 3.28v-6.5z" stroke="#000" stroke-width=".05"/><use xlink:href="#f" transform="matrix(1,0,0,1,-2362.7280639347578,1473.5763345437267) translate(0 14.222222222222223)"/><path d="M-2560 1206a6 6 0 0 1 6-6h148a6 6 0 0 1 6 6v148a6 6 0 0 1-6 6h-148a6 6 0 0 1-6-6z" stroke="#000" stroke-width="2" fill="#fff"/><use xlink:href="#g" transform="matrix(1,0,0,1,-2555,1205) translate(49.27777777777778 64.1861111111111)"/><use xlink:href="#h" transform="matrix(1,0,0,1,-2555,1205) translate(46.21111111111111 92.54166666666666)"/><path d="M-2240 1206a6 6 0 0 1 6-6h148a6 6 0 0 1 6 6v148a6 6 0 0 1-6 6h-148a6 6 0 0 1-6-6z" stroke="#000" stroke-width="2" fill="#fff"/><use xlink:href="#g" transform="matrix(1,0,0,1,-2235,1205) translate(49.27777777777778 64.1861111111111)"/><use xlink:href="#i" transform="matrix(1,0,0,1,-2235,1205) translate(46.21111111111111 92.54166666666666)"/><path d="M-2479 1420.5h-2v-17.44h2zm0-38.77h-2V1362h2z" stroke="#000" stroke-width=".05"/><path d="M-2479 1362.03h-2V1361h2z"/><path d="M-2478.97 1362.05h-2.06v-1.08h2.06zm-2-1.02v.97h1.94v-.97z" stroke="#000" stroke-width=".05"/><path d="M-2480 1435.76l-4.64-14.26h9.28z"/><path d="M-2480 1439l-6-18.5h12zm-3.26-16.5l3.26 10.03 3.26-10.03z" stroke="#000" stroke-width=".05"/><use xlink:href="#j" transform="matrix(1,0,0,1,-2516.4691358024697,1381.7299111977468) translate(0 14.222222222222223)"/><path d="M-2158.03 1420.9l-2 .04-.28-17.7h2zm-.63-39h-2l-.32-19.88 2-.04z" stroke="#000" stroke-width=".05"/><path d="M-2158.98 1362l-2 .04-.02-1.04h2z"/><path d="M-2158.96 1362.04l-2.05.03-.03-1.1h2.06zm-2-1v.98l1.95-.03-.02-.97z" stroke="#000" stroke-width=".05"/><path d="M-2158.78 1436.2l-4.86-14.2 9.27-.15z"/><path d="M-2158.72 1439.42l-6.32-18.4 12.03-.2zm-3.53-16.44l3.42 9.97 3.1-10.08z" stroke="#000" stroke-width=".05"/><use xlink:href="#j" transform="matrix(1,0,0,1,-2195.9555019106456,1381.9011263071025) translate(0 14.222222222222223)"/><path d="M-2365.83 1240H-2398v-2h32.17zm106.33 0h-14.67v-2h14.67z" stroke="#000" stroke-width=".05"/><path d="M-2397.97 1240h-1.03v-2h1.03z"/><path d="M-2397.95 1240.03h-1.08v-2.05h1.08zm-1.03-2v1.95h.98v-1.95z" stroke="#000" stroke-width=".05"/><path d="M-2244.24 1239l-14.26 4.64v-9.27z"/><path d="M-2241 1239l-18.5 6v-12zm-16.5 3.26l10.03-3.26-10.03-3.26z" stroke="#000" stroke-width=".05"/><use xlink:href="#k" transform="matrix(1,0,0,1,-2365.8260032066064,1228.3348483120392) translate(0 14.222222222222223)"/><path d="M-2366.12 1321h-14.38v-2h14.38zm124.12 0h-12.76v-2h12.76z" stroke="#000" stroke-width=".05"/><path d="M-2241 1321h-1.03v-2h1.03z"/><path d="M-2240.97 1321.03h-1.08v-2.06h1.08zm-1.03-2v1.94h.97v-1.94z" stroke="#000" stroke-width=".05"/><path d="M-2381.5 1324.63l-14.26-4.63 14.26-4.63z"/><path d="M-2380.5 1326l-18.5-6 18.5-6zm-12.03-6l10.03 3.26v-6.52z" stroke="#000" stroke-width=".05"/><use xlink:href="#l" transform="matrix(1,0,0,1,-2366.123452247574,1309.3333333333335) translate(0 14.222222222222223)"/><path d="M-2560 1686a6 6 0 0 1 6-6h148a6 6 0 0 1 6 6v148a6 6 0 0 1-6 6h-148a6 6 0 0 1-6-6z" stroke="#000" stroke-width="2" fill="#fff"/><use xlink:href="#a" transform="matrix(1,0,0,1,-2555,1685) translate(36.51111111111111 64.1861111111111)"/><use xlink:href="#m" transform="matrix(1,0,0,1,-2555,1685) translate(26.044444444444437 92.54166666666666)"/><path d="M-2443.13 1639.95h-2V1602h2z" stroke="#000" stroke-width=".05"/><path d="M-2443.13 1602.03h-2V1601h2z"/><path d="M-2443.1 1602.05h-2.05v-1.08h2.05zm-2-1.02v.97h1.95v-.97z" stroke="#000" stroke-width=".05"/><path d="M-2444.13 1675.76l-4.63-14.26h9.27z"/><path d="M-2444.13 1679l-5.76-17.72h11.53zm-3.26-16.5l3.27 10.03 3.26-10.03z" stroke="#000" stroke-width=".05"/><use xlink:href="#n" transform="matrix(1,0,0,1,-2508.646423195578,1639.945576061405) translate(0 14.222222222222223)"/><path d="M-2520.97 1678h-2v-38h2z" stroke="#000" stroke-width=".05"/><path d="M-2520.97 1679h-2v-1.03h2z"/><path d="M-2520.95 1679.03h-2.05v-1.08h2.05zm-2-1.03v.97h1.95v-.97z" stroke="#000" stroke-width=".05"/><path d="M-2517.34 1618.5h-9.27l4.63-14.26z"/><path d="M-2516.23 1618.67h-11.48l5.73-17.67zm-9-1.17h6.52l-3.27-10.03z" stroke="#000" stroke-width=".05"/><use xlink:href="#o" transform="matrix(1,0,0,1,-2596.3412718584377,1618.6666666666663) translate(0 14.222222222222223)"/><path d="M-2579.5 1482.28v2l-23.54-.06v-2zm-97.46-.26v2l-41.04-.1v-2z" stroke="#000" stroke-width=".05"/><path d="M-2717.97 1481.9v2h-1.03v-2z"/><path d="M-2717.94 1481.9v2.04h-1.1v-2.06zm-1.03 1.98h.97v-1.94h-.97z" stroke="#000" stroke-width=".05"/><path d="M-2564.24 1483.33l-14.27 4.6v-9.28z"/><path d="M-2561 1483.33l-18.52 5.97.03-12.03zm-16.5 3.22l10.03-3.23-10.02-3.3z" stroke="#000" stroke-width=".05"/><use xlink:href="#p" transform="matrix(1,0,0,1,-2676.9618028925356,1472.4539912232663) translate(0 14.222222222222223)"/><path d="M-2562 1562.76v2l-31.2-.1v-2zm-124.82-.34v2l-13.68-.04v-2z" stroke="#000" stroke-width=".05"/><path d="M-2561 1562.76v2h-1.03v-2z"/><path d="M-2560.97 1562.73v2.05h-1.1l.02-2.05zm-1.04 2h.97v-1.95h-.97z" stroke="#000" stroke-width=".05"/><path d="M-2701.5 1568.02l-14.26-4.68 14.27-4.6z"/><path d="M-2700.5 1569.4l-18.5-6.07 18.52-5.96zm-12.03-6.05l10.02 3.3v-6.53z" stroke="#000" stroke-width=".05"/><g><use xlink:href="#q" transform="matrix(1,0,0,1,-2686.815970380738,1552.87934278574) translate(0 14.222222222222223)"/></g><defs><path d="M154-158L101 0H10l240-690h80L570 0h-91l-53-158H154zm245-78L290-560 181-236h218" id="r"/><path d="M45-366c1-94 76-144 179-142 86 0 147 28 182 83l-60 42c-30-38-57-50-124-51-53 0-96 19-97 67 0 47 39 74 116 79 103 10 181 38 180 149C419-37 344 9 233 8 144 8 80-20 40-75l59-42c31 38 65 51 135 51 58 0 107-19 107-71 0-70-49-71-129-80-111-8-167-58-167-149" id="s"/><path d="M120-232c-4 96 38 168 128 168 58 0 98-19 119-56l62 44C394-17 345 7 254 8 120 9 40-82 40-218c0-172 41-291 198-290 154-1 209 109 198 276H120zm118-204c-73 0-113 45-118 134h235c-4-89-43-134-117-134" id="t"/><path d="M280 0C145 6 85-24 85-154v-274H21v-72h64v-110h80v110h115v72H165v254c-6 91 28 102 115 98V0" id="u"/><path d="M60-512c2-121 91-189 223-186 103 0 179 38 228 113l-67 48c-43-53-76-82-164-83-78 0-134 33-134 108 0 95 67 108 163 128 130 27 214 62 214 199C523-55 430 7 291 8 179 8 97-30 45-105l71-49c49 56 80 82 175 84 97 0 146-37 146-111 0-94-64-111-163-129-143-22-214-89-214-202" id="v"/><path d="M547-215C530-77 448 4 300 8 108 13 50-143 50-383c0-210 83-315 250-315 149 1 229 86 248 223h-84c-21-92-62-144-164-145-154-2-168 142-164 313 3 144 36 237 164 237 102 0 143-55 164-145h83" id="w"/><g id="a"><use transform="matrix(0.022222222222222223,0,0,0.022222222222222223,0,0)" xlink:href="#r"/><use transform="matrix(0.022222222222222223,0,0,0.022222222222222223,12.88888888888889,0)" xlink:href="#s"/><use transform="matrix(0.022222222222222223,0,0,0.022222222222222223,23.244444444444444,0)" xlink:href="#s"/><use transform="matrix(0.022222222222222223,0,0,0.022222222222222223,33.6,0)" xlink:href="#t"/><use transform="matrix(0.022222222222222223,0,0,0.022222222222222223,44.44444444444444,0)" xlink:href="#u"/><use transform="matrix(0.022222222222222223,0,0,0.022222222222222223,51.44444444444444,0)" xlink:href="#v"/><use transform="matrix(0.022222222222222223,0,0,0.022222222222222223,64.13333333333333,0)" xlink:href="#w"/></g><path d="M219 8C111 9 40-44 40-146c0-95 62-143 187-143h119v-58c-2-74-33-85-111-87-71 1-91 8-120 51l-60-42c37-60 84-82 181-83 128 1 190 38 190 161V0h-80v-49C318-4 291 7 219 8zm0-74c103 2 133-44 127-155-96 5-231-25-226 77 0 52 33 78 99 78" id="x"/><path d="M120-284c0 125 20 222 136 220 55 0 92-19 111-56l62 44C399-20 341 8 256 8 121 9 38-82 40-218v-66c-1-138 79-225 216-224 79 0 136 26 173 78l-63 44c-23-33-60-50-110-50-88-1-136 62-136 152" id="y"/><path d="M289-253H30v-72h259v72" id="z"/><path d="M250-698c110-1 198 84 198 199v308C452-76 360 9 250 8 140 9 52-76 52-192v-306c-4-116 88-201 198-200zm0 628c65 1 112-54 112-121v-308c2-67-47-122-112-121-66-1-113 54-113 121v308c-2 67 47 122 113 121" id="A"/><path d="M223-690h86V0h-86v-591l-99 71v-94" id="B"/><g id="b"><use transform="matrix(0.022222222222222223,0,0,0.022222222222222223,0,0)" xlink:href="#x"/><use transform="matrix(0.022222222222222223,0,0,0.022222222222222223,10.911111111111111,0)" xlink:href="#s"/><use transform="matrix(0.022222222222222223,0,0,0.022222222222222223,21.266666666666666,0)" xlink:href="#u"/><use transform="matrix(0.022222222222222223,0,0,0.022222222222222223,28.26666666666667,0)" xlink:href="#s"/><use transform="matrix(0.022222222222222223,0,0,0.022222222222222223,38.62222222222222,0)" xlink:href="#y"/><use transform="matrix(0.022222222222222223,0,0,0.022222222222222223,48.266666666666666,0)" xlink:href="#z"/><use transform="matrix(0.022222222222222223,0,0,0.022222222222222223,55.355555555555554,0)" xlink:href="#A"/><use transform="matrix(0.022222222222222223,0,0,0.022222222222222223,66.46666666666667,0)" xlink:href="#B"/><use transform="matrix(0.022222222222222223,0,0,0.022222222222222223,77.57777777777778,0)" xlink:href="#x"/></g><path d="M481-218C482-85 412 9 281 8 217 8 172-9 145-44V0H65v-690h80v240c28-39 73-58 136-58 130 0 202 89 200 224v66zm-336-73c0 124 14 228 128 227 106-1 128-100 128-220 0-90-42-152-128-152-83 0-128 59-128 145" id="C"/><g id="c"><use transform="matrix(0.022222222222222223,0,0,0.022222222222222223,0,0)" xlink:href="#x"/><use transform="matrix(0.022222222222222223,0,0,0.022222222222222223,10.911111111111111,0)" xlink:href="#s"/><use transform="matrix(0.022222222222222223,0,0,0.022222222222222223,21.266666666666666,0)" xlink:href="#u"/><use transform="matrix(0.022222222222222223,0,0,0.022222222222222223,28.26666666666667,0)" xlink:href="#s"/><use transform="matrix(0.022222222222222223,0,0,0.022222222222222223,38.62222222222222,0)" xlink:href="#y"/><use transform="matrix(0.022222222222222223,0,0,0.022222222222222223,48.266666666666666,0)" xlink:href="#z"/><use transform="matrix(0.022222222222222223,0,0,0.022222222222222223,55.355555555555554,0)" xlink:href="#A"/><use transform="matrix(0.022222222222222223,0,0,0.022222222222222223,66.46666666666667,0)" xlink:href="#B"/><use transform="matrix(0.022222222222222223,0,0,0.022222222222222223,77.57777777777778,0)" xlink:href="#C"/></g><path d="M247-698c138 0 240 127 181 264-25 59-50 81-87 126L151-78h292V0H38v-72l243-287c52-61 78-112 78-154 2-63-50-109-112-108-65-1-113 43-113 108H49c-3-109 90-185 198-185" id="D"/><g id="d"><use transform="matrix(0.022222222222222223,0,0,0.022222222222222223,0,0)" xlink:href="#x"/><use transform="matrix(0.022222222222222223,0,0,0.022222222222222223,10.911111111111111,0)" xlink:href="#s"/><use transform="matrix(0.022222222222222223,0,0,0.022222222222222223,21.266666666666666,0)" xlink:href="#u"/><use transform="matrix(0.022222222222222223,0,0,0.022222222222222223,28.26666666666667,0)" xlink:href="#s"/><use transform="matrix(0.022222222222222223,0,0,0.022222222222222223,38.62222222222222,0)" xlink:href="#y"/><use transform="matrix(0.022222222222222223,0,0,0.022222222222222223,48.266666666666666,0)" xlink:href="#z"/><use transform="matrix(0.022222222222222223,0,0,0.022222222222222223,55.355555555555554,0)" xlink:href="#A"/><use transform="matrix(0.022222222222222223,0,0,0.022222222222222223,66.46666666666667,0)" xlink:href="#D"/><use transform="matrix(0.022222222222222223,0,0,0.022222222222222223,77.57777777777778,0)" xlink:href="#x"/></g><path fill="#333" d="M24-248c120-7 223 5 221 122C244-46 201 0 124 0H24v-248zM76-40c74 7 117-18 117-86 0-67-45-88-117-82v168" id="E"/><path fill="#333" d="M185-48c-13 30-37 53-82 52C43 2 14-33 14-96s30-98 90-98c62 0 83 45 84 108H66c0 31 8 55 39 56 18 0 30-7 34-22zm-45-69c5-46-57-63-70-21-2 6-4 13-4 21h74" id="F"/><path fill="#333" d="M135-150c-39-12-60 13-60 57V0H25l-1-190h47c2 13-1 29 3 40 6-28 27-53 61-41v41" id="G"/><path fill="#333" d="M25-224v-37h50v37H25zM25 0v-190h50V0H25" id="H"/><path fill="#333" d="M128 0H69L1-190h53L99-40l48-150h52" id="I"/><path fill="#333" d="M133-34C117-15 103 5 69 4 32 3 11-16 11-54c-1-60 55-63 116-61 1-26-3-47-28-47-18 1-26 9-28 27l-52-2c7-38 36-58 82-57s74 22 75 68l1 82c-1 14 12 18 25 15v27c-30 8-71 5-69-32zm-48 3c29 0 43-24 42-57-32 0-66-3-65 30 0 17 8 27 23 27" id="J"/><path fill="#333" d="M115-3C79 11 28 4 28-45v-112H4v-33h27l15-45h31v45h36v33H77v99c-1 23 16 31 38 25v30" id="K"/><path fill="#333" d="M110-194c64 0 96 36 96 99 0 64-35 99-97 99-61 0-95-36-95-99 0-62 34-99 96-99zm-1 164c35 0 45-28 45-65 0-40-10-65-43-65-34 0-45 26-45 65 0 36 10 65 43 65" id="L"/><path fill="#333" d="M135-194c87-1 58 113 63 194h-50c-7-57 23-157-34-157-59 0-34 97-39 157H25l-1-190h47c2 12-1 28 3 38 12-26 28-41 61-42" id="M"/><g id="e"><use transform="matrix(0.04938271604938272,0,0,0.04938271604938272,0,0)" xlink:href="#E"/><use transform="matrix(0.04938271604938272,0,0,0.04938271604938272,12.790123456790125,0)" xlink:href="#F"/><use transform="matrix(0.04938271604938272,0,0,0.04938271604938272,22.66666666666667,0)" xlink:href="#G"/><use transform="matrix(0.04938271604938272,0,0,0.04938271604938272,29.580246913580254,0)" xlink:href="#H"/><use transform="matrix(0.04938271604938272,0,0,0.04938271604938272,34.518518518518526,0)" xlink:href="#I"/><use transform="matrix(0.04938271604938272,0,0,0.04938271604938272,44.39506172839507,0)" xlink:href="#J"/><use transform="matrix(0.04938271604938272,0,0,0.04938271604938272,54.27160493827161,0)" xlink:href="#K"/><use transform="matrix(0.04938271604938272,0,0,0.04938271604938272,60.14814814814817,0)" xlink:href="#H"/><use transform="matrix(0.04938271604938272,0,0,0.04938271604938272,65.08641975308643,0)" xlink:href="#L"/><use transform="matrix(0.04938271604938272,0,0,0.04938271604938272,75.90123456790124,0)" xlink:href="#M"/></g><path fill="#333" d="M88-194c31-1 46 15 58 34l-1-101h50l1 261h-48c-2-10 0-23-3-31C134-8 116 4 84 4 32 4 16-41 15-95c0-56 19-97 73-99zm17 164c33 0 40-30 41-66 1-37-9-64-41-64s-38 30-39 65c0 43 13 65 39 65" id="N"/><path fill="#333" d="M76-208v77h127v40H76V0H24v-248h183v40H76" id="O"/><path fill="#333" d="M220-157c-53 9-28 100-34 157h-49v-107c1-27-5-49-29-50C55-147 81-57 75 0H25l-1-190h47c2 12-1 28 3 38 10-53 101-56 108 0 13-22 24-43 59-42 82 1 51 116 57 194h-49v-107c-1-25-5-48-29-50" id="P"/><g id="f"><use transform="matrix(0.04938271604938272,0,0,0.04938271604938272,0,0)" xlink:href="#E"/><use transform="matrix(0.04938271604938272,0,0,0.04938271604938272,12.790123456790125,0)" xlink:href="#F"/><use transform="matrix(0.04938271604938272,0,0,0.04938271604938272,22.66666666666667,0)" xlink:href="#G"/><use transform="matrix(0.04938271604938272,0,0,0.04938271604938272,29.580246913580254,0)" xlink:href="#H"/><use transform="matrix(0.04938271604938272,0,0,0.04938271604938272,34.518518518518526,0)" xlink:href="#I"/><use transform="matrix(0.04938271604938272,0,0,0.04938271604938272,44.39506172839507,0)" xlink:href="#F"/><use transform="matrix(0.04938271604938272,0,0,0.04938271604938272,54.27160493827161,0)" xlink:href="#N"/><use transform="matrix(0.04938271604938272,0,0,0.04938271604938272,65.08641975308643,0)" xlink:href="#O"/><use transform="matrix(0.04938271604938272,0,0,0.04938271604938272,75.90123456790124,0)" xlink:href="#G"/><use transform="matrix(0.04938271604938272,0,0,0.04938271604938272,82.81481481481482,0)" xlink:href="#L"/><use transform="matrix(0.04938271604938272,0,0,0.04938271604938272,93.62962962962963,0)" xlink:href="#P"/></g><g id="g"><use transform="matrix(0.022222222222222223,0,0,0.022222222222222223,0,0)" xlink:href="#r"/><use transform="matrix(0.022222222222222223,0,0,0.022222222222222223,12.88888888888889,0)" xlink:href="#s"/><use transform="matrix(0.022222222222222223,0,0,0.022222222222222223,23.244444444444444,0)" xlink:href="#s"/><use transform="matrix(0.022222222222222223,0,0,0.022222222222222223,33.6,0)" xlink:href="#t"/><use transform="matrix(0.022222222222222223,0,0,0.022222222222222223,44.44444444444444,0)" xlink:href="#u"/></g><g id="h"><use transform="matrix(0.022222222222222223,0,0,0.022222222222222223,0,0)" xlink:href="#x"/><use transform="matrix(0.022222222222222223,0,0,0.022222222222222223,10.911111111111111,0)" xlink:href="#s"/><use transform="matrix(0.022222222222222223,0,0,0.022222222222222223,21.266666666666666,0)" xlink:href="#u"/><use transform="matrix(0.022222222222222223,0,0,0.022222222222222223,28.26666666666667,0)" xlink:href="#z"/><use transform="matrix(0.022222222222222223,0,0,0.022222222222222223,35.355555555555554,0)" xlink:href="#A"/><use transform="matrix(0.022222222222222223,0,0,0.022222222222222223,46.46666666666667,0)" xlink:href="#B"/></g><g id="i"><use transform="matrix(0.022222222222222223,0,0,0.022222222222222223,0,0)" xlink:href="#x"/><use transform="matrix(0.022222222222222223,0,0,0.022222222222222223,10.911111111111111,0)" xlink:href="#s"/><use transform="matrix(0.022222222222222223,0,0,0.022222222222222223,21.266666666666666,0)" xlink:href="#u"/><use transform="matrix(0.022222222222222223,0,0,0.022222222222222223,28.26666666666667,0)" xlink:href="#z"/><use transform="matrix(0.022222222222222223,0,0,0.022222222222222223,35.355555555555554,0)" xlink:href="#A"/><use transform="matrix(0.022222222222222223,0,0,0.022222222222222223,46.46666666666667,0)" xlink:href="#D"/></g><path fill="#333" d="M199 0l-22-63H83L61 0H9l90-248h61L250 0h-51zm-33-102l-36-108c-10 38-24 72-36 108h72" id="Q"/><path fill="#333" d="M137-138c1-29-70-34-71-4 15 46 118 7 119 86 1 83-164 76-172 9l43-7c4 19 20 25 44 25 33 8 57-30 24-41C81-84 22-81 20-136c-2-80 154-74 161-7" id="R"/><path fill="#333" d="M169-182c-1-43-94-46-97-3 18 66 151 10 154 114 3 95-165 93-204 36-6-8-10-19-12-30l50-8c3 46 112 56 116 5-17-69-150-10-154-114-4-87 153-88 188-35 5 8 8 18 10 28" id="S"/><path fill="#333" d="M67-125c0 53 21 87 73 88 37 1 54-22 65-47l45 17C233-25 199 4 140 4 58 4 20-42 15-125 8-235 124-281 211-232c18 10 29 29 36 50l-46 12c-8-25-30-41-62-41-52 0-71 34-72 86" id="T"/><g id="j"><use transform="matrix(0.04938271604938272,0,0,0.04938271604938272,0,0)" xlink:href="#Q"/><use transform="matrix(0.04938271604938272,0,0,0.04938271604938272,12.790123456790125,0)" xlink:href="#R"/><use transform="matrix(0.04938271604938272,0,0,0.04938271604938272,22.66666666666667,0)" xlink:href="#R"/><use transform="matrix(0.04938271604938272,0,0,0.04938271604938272,32.543209876543216,0)" xlink:href="#F"/><use transform="matrix(0.04938271604938272,0,0,0.04938271604938272,42.41975308641976,0)" xlink:href="#K"/><use transform="matrix(0.04938271604938272,0,0,0.04938271604938272,48.296296296296305,0)" xlink:href="#S"/><use transform="matrix(0.04938271604938272,0,0,0.04938271604938272,60.14814814814817,0)" xlink:href="#T"/></g><path fill="#333" d="M25 0v-261h50V0H25" id="U"/><g id="k"><use transform="matrix(0.04938271604938272,0,0,0.04938271604938272,0,0)" xlink:href="#Q"/><use transform="matrix(0.04938271604938272,0,0,0.04938271604938272,12.790123456790125,0)" xlink:href="#U"/><use transform="matrix(0.04938271604938272,0,0,0.04938271604938272,17.7283950617284,0)" xlink:href="#K"/><use transform="matrix(0.04938271604938272,0,0,0.04938271604938272,23.604938271604944,0)" xlink:href="#F"/><use transform="matrix(0.04938271604938272,0,0,0.04938271604938272,33.48148148148149,0)" xlink:href="#G"/><use transform="matrix(0.04938271604938272,0,0,0.04938271604938272,40.39506172839507,0)" xlink:href="#M"/><use transform="matrix(0.04938271604938272,0,0,0.04938271604938272,51.209876543209894,0)" xlink:href="#J"/><use transform="matrix(0.04938271604938272,0,0,0.04938271604938272,61.08641975308644,0)" xlink:href="#K"/><use transform="matrix(0.04938271604938272,0,0,0.04938271604938272,66.96296296296298,0)" xlink:href="#H"/><use transform="matrix(0.04938271604938272,0,0,0.04938271604938272,71.90123456790124,0)" xlink:href="#I"/><use transform="matrix(0.04938271604938272,0,0,0.04938271604938272,81.77777777777779,0)" xlink:href="#F"/></g><path fill="#333" d="M140-251c80 0 125 45 125 126S219 4 139 4C58 4 15-44 15-125s44-126 125-126zm-1 214c52 0 73-35 73-88 0-50-21-86-72-86-52 0-73 35-73 86s22 88 72 88" id="V"/><path fill="#333" d="M121-226c-27-7-43 5-38 36h38v33H83V0H34v-157H6v-33h28c-9-59 32-81 87-68v32" id="W"/><g id="l"><use transform="matrix(0.04938271604938272,0,0,0.04938271604938272,0,0)" xlink:href="#Q"/><use transform="matrix(0.04938271604938272,0,0,0.04938271604938272,12.790123456790125,0)" xlink:href="#U"/><use transform="matrix(0.04938271604938272,0,0,0.04938271604938272,17.7283950617284,0)" xlink:href="#K"/><use transform="matrix(0.04938271604938272,0,0,0.04938271604938272,23.604938271604944,0)" xlink:href="#F"/><use transform="matrix(0.04938271604938272,0,0,0.04938271604938272,33.48148148148149,0)" xlink:href="#G"/><use transform="matrix(0.04938271604938272,0,0,0.04938271604938272,40.39506172839507,0)" xlink:href="#M"/><use transform="matrix(0.04938271604938272,0,0,0.04938271604938272,51.209876543209894,0)" xlink:href="#J"/><use transform="matrix(0.04938271604938272,0,0,0.04938271604938272,61.08641975308644,0)" xlink:href="#K"/><use transform="matrix(0.04938271604938272,0,0,0.04938271604938272,66.96296296296298,0)" xlink:href="#H"/><use transform="matrix(0.04938271604938272,0,0,0.04938271604938272,71.90123456790124,0)" xlink:href="#I"/><use transform="matrix(0.04938271604938272,0,0,0.04938271604938272,81.77777777777779,0)" xlink:href="#F"/><use transform="matrix(0.04938271604938272,0,0,0.04938271604938272,91.65432098765433,0)" xlink:href="#V"/><use transform="matrix(0.04938271604938272,0,0,0.04938271604938272,105.4814814814815,0)" xlink:href="#W"/></g><path d="M252-434c-66-1-107 53-107 121V0H65v-500h80v49c48-85 215-70 259 11l-68 48c-20-28-48-42-84-42" id="X"/><g id="m"><use transform="matrix(0.022222222222222223,0,0,0.022222222222222223,0,0)" xlink:href="#x"/><use transform="matrix(0.022222222222222223,0,0,0.022222222222222223,10.911111111111111,0)" xlink:href="#s"/><use transform="matrix(0.022222222222222223,0,0,0.022222222222222223,21.266666666666666,0)" xlink:href="#u"/><use transform="matrix(0.022222222222222223,0,0,0.022222222222222223,28.26666666666667,0)" xlink:href="#s"/><use transform="matrix(0.022222222222222223,0,0,0.022222222222222223,38.62222222222222,0)" xlink:href="#y"/><use transform="matrix(0.022222222222222223,0,0,0.022222222222222223,48.266666666666666,0)" xlink:href="#z"/><use transform="matrix(0.022222222222222223,0,0,0.022222222222222223,55.355555555555554,0)" xlink:href="#A"/><use transform="matrix(0.022222222222222223,0,0,0.022222222222222223,66.46666666666667,0)" xlink:href="#B"/><use transform="matrix(0.022222222222222223,0,0,0.022222222222222223,77.57777777777778,0)" xlink:href="#C"/><use transform="matrix(0.022222222222222223,0,0,0.022222222222222223,89.15555555555557,0)" xlink:href="#X"/></g><path fill="#333" d="M240-174c0 40-23 61-54 70L253 0h-59l-57-94H76V0H24v-248c93 4 217-23 216 74zM76-134c48-2 112 12 112-38 0-48-66-32-112-35v73" id="Y"/><path fill="#333" d="M135-194c53 0 70 44 70 98 0 56-19 98-73 100-31 1-45-17-59-34 3 33 2 69 2 105H25l-1-265h48c2 10 0 23 3 31 11-24 29-35 60-35zM114-30c33 0 39-31 40-66 0-38-9-64-40-64-56 0-55 130 0 130" id="Z"/><g id="n"><use transform="matrix(0.04938271604938272,0,0,0.04938271604938272,0,0)" xlink:href="#Y"/><use transform="matrix(0.04938271604938272,0,0,0.04938271604938272,12.790123456790125,0)" xlink:href="#F"/><use transform="matrix(0.04938271604938272,0,0,0.04938271604938272,22.66666666666667,0)" xlink:href="#Z"/><use transform="matrix(0.04938271604938272,0,0,0.04938271604938272,33.48148148148149,0)" xlink:href="#G"/><use transform="matrix(0.04938271604938272,0,0,0.04938271604938272,40.39506172839507,0)" xlink:href="#F"/><use transform="matrix(0.04938271604938272,0,0,0.04938271604938272,50.271604938271615,0)" xlink:href="#R"/><use transform="matrix(0.04938271604938272,0,0,0.04938271604938272,60.14814814814817,0)" xlink:href="#F"/><use transform="matrix(0.04938271604938272,0,0,0.04938271604938272,70.02469135802471,0)" xlink:href="#M"/><use transform="matrix(0.04938271604938272,0,0,0.04938271604938272,80.83950617283952,0)" xlink:href="#K"/><use transform="matrix(0.04938271604938272,0,0,0.04938271604938272,86.71604938271606,0)" xlink:href="#J"/><use transform="matrix(0.04938271604938272,0,0,0.04938271604938272,96.59259259259261,0)" xlink:href="#K"/><use transform="matrix(0.04938271604938272,0,0,0.04938271604938272,102.46913580246914,0)" xlink:href="#H"/><use transform="matrix(0.04938271604938272,0,0,0.04938271604938272,107.40740740740742,0)" xlink:href="#L"/><use transform="matrix(0.04938271604938272,0,0,0.04938271604938272,118.22222222222223,0)" xlink:href="#M"/></g><g id="o"><use transform="matrix(0.04938271604938272,0,0,0.04938271604938272,0,0)" xlink:href="#Y"/><use transform="matrix(0.04938271604938272,0,0,0.04938271604938272,12.790123456790125,0)" xlink:href="#F"/><use transform="matrix(0.04938271604938272,0,0,0.04938271604938272,22.66666666666667,0)" xlink:href="#Z"/><use transform="matrix(0.04938271604938272,0,0,0.04938271604938272,33.48148148148149,0)" xlink:href="#G"/><use transform="matrix(0.04938271604938272,0,0,0.04938271604938272,40.39506172839507,0)" xlink:href="#F"/><use transform="matrix(0.04938271604938272,0,0,0.04938271604938272,50.271604938271615,0)" xlink:href="#R"/><use transform="matrix(0.04938271604938272,0,0,0.04938271604938272,60.14814814814817,0)" xlink:href="#F"/><use transform="matrix(0.04938271604938272,0,0,0.04938271604938272,70.02469135802471,0)" xlink:href="#M"/><use transform="matrix(0.04938271604938272,0,0,0.04938271604938272,80.83950617283952,0)" xlink:href="#K"/><use transform="matrix(0.04938271604938272,0,0,0.04938271604938272,86.71604938271606,0)" xlink:href="#J"/><use transform="matrix(0.04938271604938272,0,0,0.04938271604938272,96.59259259259261,0)" xlink:href="#K"/><use transform="matrix(0.04938271604938272,0,0,0.04938271604938272,102.46913580246914,0)" xlink:href="#H"/><use transform="matrix(0.04938271604938272,0,0,0.04938271604938272,107.40740740740742,0)" xlink:href="#L"/><use transform="matrix(0.04938271604938272,0,0,0.04938271604938272,118.22222222222223,0)" xlink:href="#M"/><use transform="matrix(0.04938271604938272,0,0,0.04938271604938272,129.03703703703704,0)" xlink:href="#V"/><use transform="matrix(0.04938271604938272,0,0,0.04938271604938272,142.8641975308642,0)" xlink:href="#W"/></g><g id="p"><use transform="matrix(0.04938271604938272,0,0,0.04938271604938272,0,0)" xlink:href="#Y"/><use transform="matrix(0.04938271604938272,0,0,0.04938271604938272,12.790123456790125,0)" xlink:href="#F"/><use transform="matrix(0.04938271604938272,0,0,0.04938271604938272,22.66666666666667,0)" xlink:href="#I"/><use transform="matrix(0.04938271604938272,0,0,0.04938271604938272,32.543209876543216,0)" xlink:href="#H"/><use transform="matrix(0.04938271604938272,0,0,0.04938271604938272,37.48148148148149,0)" xlink:href="#R"/><use transform="matrix(0.04938271604938272,0,0,0.04938271604938272,47.35802469135803,0)" xlink:href="#H"/><use transform="matrix(0.04938271604938272,0,0,0.04938271604938272,52.2962962962963,0)" xlink:href="#L"/><use transform="matrix(0.04938271604938272,0,0,0.04938271604938272,63.111111111111114,0)" xlink:href="#M"/></g><g id="q"><use transform="matrix(0.04938271604938272,0,0,0.04938271604938272,0,0)" xlink:href="#Y"/><use transform="matrix(0.04938271604938272,0,0,0.04938271604938272,12.790123456790125,0)" xlink:href="#F"/><use transform="matrix(0.04938271604938272,0,0,0.04938271604938272,22.66666666666667,0)" xlink:href="#I"/><use transform="matrix(0.04938271604938272,0,0,0.04938271604938272,32.543209876543216,0)" xlink:href="#H"/><use transform="matrix(0.04938271604938272,0,0,0.04938271604938272,37.48148148148149,0)" xlink:href="#R"/><use transform="matrix(0.04938271604938272,0,0,0.04938271604938272,47.35802469135803,0)" xlink:href="#H"/><use transform="matrix(0.04938271604938272,0,0,0.04938271604938272,52.2962962962963,0)" xlink:href="#L"/><use transform="matrix(0.04938271604938272,0,0,0.04938271604938272,63.111111111111114,0)" xlink:href="#M"/><use transform="matrix(0.04938271604938272,0,0,0.04938271604938272,73.92592592592594,0)" xlink:href="#V"/><use transform="matrix(0.04938271604938272,0,0,0.04938271604938272,87.7530864197531,0)" xlink:href="#W"/></g></defs></g></svg>