<svg xmlns="http://www.w3.org/2000/svg" xmlns:xlink="http://www.w3.org/1999/xlink" xmlns:lucid="lucid" width="961.9" height="396.35"><g transform="translate(-10349.69716430414 -1923.897131364846)" lucid:page-tab-id="0_0"><path d="M10669.9 1931.4a6 6 0 0 1 6-6h228a6 6 0 0 1 6 6v148a6 6 0 0 1-6 6h-228a6 6 0 0 1-6-6z" stroke="#3a414a" stroke-width="3" fill="#fff"/><use xlink:href="#a" transform="matrix(1,0,0,1,10677.884977459951,1933.397131390695) translate(81.81481481481481 62.77777777777778)"/><use xlink:href="#b" transform="matrix(1,0,0,1,10677.884977459951,1933.397131390695) translate(97.83333333333333 89.44444444444446)"/><path d="M11070.1 1931.4a6 6 0 0 1 6-6h228a6 6 0 0 1 6 6v148a6 6 0 0 1-6 6h-228a6 6 0 0 1-6-6z" stroke="#3a414a" stroke-width="3" fill="#fff"/><use xlink:href="#c" transform="matrix(1,0,0,1,11078.097579977704,1933.397131390695) translate(66.41358024691358 62.77777777777778)"/><use xlink:href="#d" transform="matrix(1,0,0,1,11078.097579977704,1933.397131390695) translate(82.4320987654321 89.44444444444446)"/><path d="M10351.2 2164.74a6 6 0 0 1 6-6h228a6 6 0 0 1 6 6v148a6 6 0 0 1-6 6h-228a6 6 0 0 1-6-6z" stroke="#3a414a" stroke-width="3" fill="#fff"/><use xlink:href="#a" transform="matrix(1,0,0,1,10359.197164343961,2166.744851172638) translate(81.81481481481481 62.77777777777778)"/><use xlink:href="#e" transform="matrix(1,0,0,1,10359.197164343961,2166.744851172638) translate(97.83333333333333 89.44444444444446)"/><path d="M10669.9 2164.74a6 6 0 0 1 6-6h228a6 6 0 0 1 6 6v148a6 6 0 0 1-6 6h-228a6 6 0 0 1-6-6z" stroke="#3a414a" stroke-width="3" fill="#fff"/><use xlink:href="#a" transform="matrix(1,0,0,1,10677.884977459951,2166.744851172638) translate(81.81481481481481 62.77777777777778)"/><use xlink:href="#f" transform="matrix(1,0,0,1,10677.884977459951,2166.744851172638) translate(97.83333333333333 89.44444444444446)"/><path d="M10988.57 2164.74a6 6 0 0 1 6-6h228a6 6 0 0 1 6 6v148a6 6 0 0 1-6 6h-228a6 6 0 0 1-6-6z" stroke="#3a414a" stroke-width="3" fill="#fff"/><use xlink:href="#a" transform="matrix(1,0,0,1,10996.572790575941,2166.744851172638) translate(81.81481481481481 62.77777777777778)"/><use xlink:href="#f" transform="matrix(1,0,0,1,10996.572790575941,2166.744851172638) translate(97.83333333333333 89.44444444444446)"/><path d="M10789.7 2088.38l-.07.22-.08.25-.1.26-.1.27-.13.27-.15.28-.17.3-.2.3-.2.3-.25.33-.3.34-.32.36-.4.4-.43.4-.53.47-.62.5-.74.53-.9.6-1.1.66-1.35.74-1.7.85-2.22 1-2.9 1.14-3.98 1.37-5.62 1.7-8.43 2.15-13.73 2.9-26.1 4.33-198.76 25.32-13.72 2.9-8.43 2.14-5.62 1.7-3.97 1.36-2.9 1.15-2.22.98-1.7.85-1.37.75-.35.2" stroke="#3a414a" stroke-width="3" stroke-linejoin="round" fill="none"/><path d="M10791.35 2088.47l-3-.06.03-1.5h3z" stroke="#3a414a" stroke-width=".05" fill="#3a414a"/><path d="M10473.27 2155.16l3.7-14.54 10.82 10.77z" stroke="#3a414a" stroke-width="3" fill="#3a414a"/><path d="M10789.9 2088.4v57.74" stroke="#3a414a" stroke-width="3" stroke-linejoin="round" fill="none"/><path d="M10791.4 2088.44h-3v-1.54h3z" stroke="#3a414a" stroke-width=".05" fill="#3a414a"/><path d="M10789.9 2154.3l-7.65-12.9h15.27z" stroke="#3a414a" stroke-width="3" fill="#3a414a"/><path d="M10790.08 2088.38l.06.22.08.25.1.26.1.27.13.27.15.28.17.3.2.3.2.3.25.33.3.34.32.36.4.4.43.4.53.47.62.5.74.53.9.6 1.1.66 1.36.74 1.7.85 2.22 1 2.9 1.14 3.97 1.37 5.64 1.7 8.43 2.15 13.73 2.9 26.1 4.33 198.76 25.32 13.73 2.9 8.42 2.14 5.62 1.7 3.97 1.36 2.92 1.15 2.2.98 1.72.85 1.36.75.35.2" stroke="#3a414a" stroke-width="3" stroke-linejoin="round" fill="none"/><path d="M10791.42 2088.4l-3 .07-.03-1.57h3z" stroke="#3a414a" stroke-width=".05" fill="#3a414a"/><path d="M11106.5 2155.16l-14.52-3.77 10.82-10.78z" stroke="#3a414a" stroke-width="3" fill="#3a414a"/><path d="M10912.9 2005.4h144.6" stroke="#3a414a" stroke-width="3" stroke-linejoin="round" fill="none"/><path d="M10912.93 2006.9h-1.55v-3h1.55z" stroke="#3a414a" stroke-width=".05" fill="#3a414a"/><path d="M11065.65 2005.4l-12.9 7.63v-15.27z" stroke="#3a414a" stroke-width="3" fill="#3a414a"/><defs><path fill="#3a414a" d="M199 0l-22-63H83L61 0H9l90-248h61L250 0h-51zm-33-102l-36-108c-10 38-24 72-36 108h72" id="g"/><path fill="#3a414a" d="M137-138c1-29-70-34-71-4 15 46 118 7 119 86 1 83-164 76-172 9l43-7c4 19 20 25 44 25 33 8 57-30 24-41C81-84 22-81 20-136c-2-80 154-74 161-7" id="h"/><path fill="#3a414a" d="M185-48c-13 30-37 53-82 52C43 2 14-33 14-96s30-98 90-98c62 0 83 45 84 108H66c0 31 8 55 39 56 18 0 30-7 34-22zm-45-69c5-46-57-63-70-21-2 6-4 13-4 21h74" id="i"/><path fill="#3a414a" d="M115-3C79 11 28 4 28-45v-112H4v-33h27l15-45h31v45h36v33H77v99c-1 23 16 31 38 25v30" id="j"/><g id="a"><use transform="matrix(0.06172839506172839,0,0,0.06172839506172839,0,0)" xlink:href="#g"/><use transform="matrix(0.06172839506172839,0,0,0.06172839506172839,15.987654320987653,0)" xlink:href="#h"/><use transform="matrix(0.06172839506172839,0,0,0.06172839506172839,28.333333333333332,0)" xlink:href="#h"/><use transform="matrix(0.06172839506172839,0,0,0.06172839506172839,40.67901234567901,0)" xlink:href="#i"/><use transform="matrix(0.06172839506172839,0,0,0.06172839506172839,53.02469135802469,0)" xlink:href="#j"/></g><path fill="#3a414a" d="M23 0v-37h61v-169l-59 37v-38l62-41h46v211h57V0H23" id="k"/><g id="b"><use transform="matrix(0.06172839506172839,0,0,0.06172839506172839,0,0)" xlink:href="#g"/><use transform="matrix(0.06172839506172839,0,0,0.06172839506172839,15.987654320987653,0)" xlink:href="#k"/></g><path fill="#3a414a" d="M169-182c-1-43-94-46-97-3 18 66 151 10 154 114 3 95-165 93-204 36-6-8-10-19-12-30l50-8c3 46 112 56 116 5-17-69-150-10-154-114-4-87 153-88 188-35 5 8 8 18 10 28" id="l"/><path fill="#3a414a" d="M67-125c0 53 21 87 73 88 37 1 54-22 65-47l45 17C233-25 199 4 140 4 58 4 20-42 15-125 8-235 124-281 211-232c18 10 29 29 36 50l-46 12c-8-25-30-41-62-41-52 0-71 34-72 86" id="m"/><g id="c"><use transform="matrix(0.06172839506172839,0,0,0.06172839506172839,0,0)" xlink:href="#g"/><use transform="matrix(0.06172839506172839,0,0,0.06172839506172839,15.987654320987653,0)" xlink:href="#h"/><use transform="matrix(0.06172839506172839,0,0,0.06172839506172839,28.333333333333332,0)" xlink:href="#h"/><use transform="matrix(0.06172839506172839,0,0,0.06172839506172839,40.67901234567901,0)" xlink:href="#i"/><use transform="matrix(0.06172839506172839,0,0,0.06172839506172839,53.02469135802469,0)" xlink:href="#j"/><use transform="matrix(0.06172839506172839,0,0,0.06172839506172839,60.37037037037037,0)" xlink:href="#l"/><use transform="matrix(0.06172839506172839,0,0,0.06172839506172839,75.18518518518518,0)" xlink:href="#m"/></g><g id="d"><use transform="matrix(0.06172839506172839,0,0,0.06172839506172839,0,0)" xlink:href="#g"/><use transform="matrix(0.06172839506172839,0,0,0.06172839506172839,15.987654320987653,0)" xlink:href="#l"/><use transform="matrix(0.06172839506172839,0,0,0.06172839506172839,30.80246913580247,0)" xlink:href="#m"/><use transform="matrix(0.06172839506172839,0,0,0.06172839506172839,46.79012345679012,0)" xlink:href="#k"/></g><path fill="#3a414a" d="M182-182c0 78-84 86-111 141h115V0H12c-6-101 99-100 120-180 1-22-12-31-33-32-23 0-32 14-35 34l-49-3c5-45 32-70 84-70 51 0 83 22 83 69" id="n"/><g id="e"><use transform="matrix(0.06172839506172839,0,0,0.06172839506172839,0,0)" xlink:href="#g"/><use transform="matrix(0.06172839506172839,0,0,0.06172839506172839,15.987654320987653,0)" xlink:href="#n"/></g><path fill="#3a414a" d="M128-127c34 4 56 21 59 58 7 91-148 94-172 28-4-9-6-17-7-26l51-5c1 24 16 35 40 36 23 0 39-12 38-36-1-31-31-36-65-34v-40c32 2 59-3 59-33 0-20-13-33-34-33s-33 13-35 32l-50-3c6-44 37-68 86-68 50 0 83 20 83 66 0 35-22 52-53 58" id="o"/><g id="f"><use transform="matrix(0.06172839506172839,0,0,0.06172839506172839,0,0)" xlink:href="#g"/><use transform="matrix(0.06172839506172839,0,0,0.06172839506172839,15.987654320987653,0)" xlink:href="#o"/></g></defs></g></svg>