<svg xmlns="http://www.w3.org/2000/svg" xmlns:xlink="http://www.w3.org/1999/xlink" xmlns:lucid="lucid" width="802.55" height="362"><g transform="translate(2720 -4018.9999999734523)" lucid:page-tab-id="0_0"><path d="M-2560 4026a6 6 0 0 1 6-6h148a6 6 0 0 1 6 6v148a6 6 0 0 1-6 6h-148a6 6 0 0 1-6-6z" stroke="#000" stroke-width="2" fill="#fff"/><use xlink:href="#a" transform="matrix(1,0,0,1,-2555,4025) translate(49.27777777777778 64.1861111111111)"/><use xlink:href="#b" transform="matrix(1,0,0,1,-2555,4025) translate(46.21111111111111 92.54166666666666)"/><path d="M-2301.55 4154.94l4.55 3.76 3.94 3 3.6 2.5 3.4 2.17 3.3 1.9 3.22 1.68 3.2 1.5 3.2 1.36 3.26 1.22 3.33 1.08 3.43.96 3.56.83 2.9.54-.4 1.97-2.9-.55-3.66-.85-3.5-.98-3.4-1.1-3.35-1.25-3.3-1.38-3.26-1.56-3.3-1.72-3.36-1.94-3.46-2.2-3.68-2.56-4-3.05-4.64-3.84-6.1-5.85h2.9zm-92.54-55.84l4.55.3 4.26.43 4.02.6 3.8.72 3.65.85 3.5.98 3.4 1.1 3.35 1.25 3.3 1.38 3.26 1.56 3.3 1.72 3.36 1.94 3.47 2.2 3.7 2.56 4 3.05 4.62 3.83 6.06 5.47.22.2h-2.97l-4.62-4.16-4.55-3.77-3.94-3-3.6-2.5-3.4-2.17-3.28-1.9-3.23-1.68-3.2-1.5-3.22-1.36-3.25-1.22-3.33-1.08-3.43-.96-3.56-.83-3.7-.7-3.94-.58-4.17-.44-4.48-.28-3.84-.08.04-2z" stroke="#000" stroke-width=".05"/><path d="M-2397.95 4099.02l-.04 2-1-.02v-2z"/><path d="M-2397.93 4099l-.04 2.05-1.06-.03v-2.05zm-1.05 1.98l.96.02.04-1.95-1-.03z" stroke="#000" stroke-width=".05"/><path d="M-2241.67 4179.72l-14.6 3.4.78-9.23z"/><path d="M-2238.45 4180l-18.95 4.4 1.03-11.97zm-16.72 1.84l10.27-2.4-9.7-4.1z" stroke="#000" stroke-width=".05"/><use xlink:href="#c" transform="matrix(1,0,0,1,-2355.107141563853,4129.2428521802185) translate(0 14.222222222222223)"/><path d="M-2720 4026a6 6 0 0 1 6-6h48a6 6 0 0 1 6 6v148a6 6 0 0 1-6 6h-48a6 6 0 0 1-6-6zM-1980 4026a6 6 0 0 1 6-6h48a6 6 0 0 1 6 6v148a6 6 0 0 1-6 6h-48a6 6 0 0 1-6-6z" stroke="#000" stroke-opacity="0" stroke-width="2" fill="#fff"/><path d="M-2557.45 4226a6 6 0 0 1 6-6h148a6 6 0 0 1 6 6v148a6 6 0 0 1-6 6h-148a6 6 0 0 1-6-6z" stroke="#000" stroke-width="2" fill="#fff"/><use xlink:href="#a" transform="matrix(1,0,0,1,-2552.447854137282,4225) translate(49.27777777777778 64.1861111111111)"/><use xlink:href="#d" transform="matrix(1,0,0,1,-2552.447854137282,4225) translate(46.21111111111111 92.54166666666666)"/><path d="M-2237.45 4106a6 6 0 0 1 6-6h148a6 6 0 0 1 6 6v148a6 6 0 0 1-6 6h-148a6 6 0 0 1-6-6z" stroke="#000" stroke-width="2" fill="#fff"/><use xlink:href="#e" transform="matrix(1,0,0,1,-2232.447854137282,4105) translate(36.51111111111111 64.1861111111111)"/><use xlink:href="#f" transform="matrix(1,0,0,1,-2232.447854137282,4105) translate(30.755555555555553 92.54166666666666)"/><path d="M-2326.47 4255.25l-6.34 8.77-4.6 5.8-3.86 4.48-3.4 3.64-3.14 3.06-2.93 2.64-2.8 2.3-2.67 2.04-2.6 1.8-2.54 1.63-2.5 1.46-2.5 1.3-2.5 1.17-2.48 1.05-2.52.93-2.55.84-2.6.73-2.65.62-2.73.5-2.83.43-2.95.3-3.07.2-2.2.05-.05-2 2.16-.05 2.98-.18 2.86-.3 2.74-.4 2.66-.5 2.58-.62 2.5-.7 2.48-.8 2.44-.9 2.42-1.03 2.4-1.13 2.42-1.27 2.44-1.4 2.48-1.57 2.53-1.77 2.6-1.98 2.73-2.25 2.87-2.58 3.07-3 3.35-3.6 3.8-4.4 4.54-5.74 6.3-8.7 2.28-3.35h2.42zm70-71.9l-1.46.42-2.47.8-2.44.9-2.4 1.03-2.42 1.13-2.42 1.27-2.44 1.4-2.47 1.57-2.52 1.77-2.62 1.98-2.72 2.25-2.86 2.58-3.07 3-3.35 3.6-3.8 4.4-4.53 5.73-8.35 12.24h-2.43l9.17-13.43 4.62-5.83 3.84-4.47 3.42-3.64 3.13-3.06 2.94-2.64 2.78-2.3 2.68-2.04 2.6-1.8 2.55-1.63 2.5-1.46 2.5-1.3 2.48-1.17 2.5-1.05 2.5-.93 2.56-.84 1.5-.42z" stroke="#000" stroke-width=".05"/><path d="M-2395.4 4300.98l-1.05.02v-2l1-.02z"/><path d="M-2395.37 4301l-1.1.03v-2.05l1.05-.03zm-1.05-1.98v1.95l1-.02-.05-1.95z" stroke="#000" stroke-width=".05"/><path d="M-2241.66 4180.42l-13.54 6.45-1.2-9.2z"/><path d="M-2238.45 4180l-17.56 8.37-1.57-11.92zm-15.94 5.38l9.54-4.54-10.37-1.92z" stroke="#000" stroke-width=".05"/><use xlink:href="#c" transform="matrix(1,0,0,1,-2353.794789388124,4229.41778630811) translate(0 14.222222222222223)"/><path d="M-2717.45 4226a6 6 0 0 1 6-6h48a6 6 0 0 1 6 6v148a6 6 0 0 1-6 6h-48a6 6 0 0 1-6-6zM-1977.45 4226a6 6 0 0 1 6-6h48a6 6 0 0 1 6 6v148a6 6 0 0 1-6 6h-48a6 6 0 0 1-6-6z" stroke="#000" stroke-opacity="0" stroke-width="2" fill="#fff"/><defs><path d="M154-158L101 0H10l240-690h80L570 0h-91l-53-158H154zm245-78L290-560 181-236h218" id="g"/><path d="M45-366c1-94 76-144 179-142 86 0 147 28 182 83l-60 42c-30-38-57-50-124-51-53 0-96 19-97 67 0 47 39 74 116 79 103 10 181 38 180 149C419-37 344 9 233 8 144 8 80-20 40-75l59-42c31 38 65 51 135 51 58 0 107-19 107-71 0-70-49-71-129-80-111-8-167-58-167-149" id="h"/><path d="M120-232c-4 96 38 168 128 168 58 0 98-19 119-56l62 44C394-17 345 7 254 8 120 9 40-82 40-218c0-172 41-291 198-290 154-1 209 109 198 276H120zm118-204c-73 0-113 45-118 134h235c-4-89-43-134-117-134" id="i"/><path d="M280 0C145 6 85-24 85-154v-274H21v-72h64v-110h80v110h115v72H165v254c-6 91 28 102 115 98V0" id="j"/><g id="a"><use transform="matrix(0.022222222222222223,0,0,0.022222222222222223,0,0)" xlink:href="#g"/><use transform="matrix(0.022222222222222223,0,0,0.022222222222222223,12.88888888888889,0)" xlink:href="#h"/><use transform="matrix(0.022222222222222223,0,0,0.022222222222222223,23.244444444444444,0)" xlink:href="#h"/><use transform="matrix(0.022222222222222223,0,0,0.022222222222222223,33.6,0)" xlink:href="#i"/><use transform="matrix(0.022222222222222223,0,0,0.022222222222222223,44.44444444444444,0)" xlink:href="#j"/></g><path d="M219 8C111 9 40-44 40-146c0-95 62-143 187-143h119v-58c-2-74-33-85-111-87-71 1-91 8-120 51l-60-42c37-60 84-82 181-83 128 1 190 38 190 161V0h-80v-49C318-4 291 7 219 8zm0-74c103 2 133-44 127-155-96 5-231-25-226 77 0 52 33 78 99 78" id="k"/><path d="M289-253H30v-72h259v72" id="l"/><path d="M250-698c110-1 198 84 198 199v308C452-76 360 9 250 8 140 9 52-76 52-192v-306c-4-116 88-201 198-200zm0 628c65 1 112-54 112-121v-308c2-67-47-122-112-121-66-1-113 54-113 121v308c-2 67 47 122 113 121" id="m"/><path d="M223-690h86V0h-86v-591l-99 71v-94" id="n"/><g id="b"><use transform="matrix(0.022222222222222223,0,0,0.022222222222222223,0,0)" xlink:href="#k"/><use transform="matrix(0.022222222222222223,0,0,0.022222222222222223,10.911111111111111,0)" xlink:href="#h"/><use transform="matrix(0.022222222222222223,0,0,0.022222222222222223,21.266666666666666,0)" xlink:href="#j"/><use transform="matrix(0.022222222222222223,0,0,0.022222222222222223,28.26666666666667,0)" xlink:href="#l"/><use transform="matrix(0.022222222222222223,0,0,0.022222222222222223,35.355555555555554,0)" xlink:href="#m"/><use transform="matrix(0.022222222222222223,0,0,0.022222222222222223,46.46666666666667,0)" xlink:href="#n"/></g><path fill="#333" d="M199 0l-22-63H83L61 0H9l90-248h61L250 0h-51zm-33-102l-36-108c-10 38-24 72-36 108h72" id="o"/><path fill="#333" d="M137-138c1-29-70-34-71-4 15 46 118 7 119 86 1 83-164 76-172 9l43-7c4 19 20 25 44 25 33 8 57-30 24-41C81-84 22-81 20-136c-2-80 154-74 161-7" id="p"/><path fill="#333" d="M185-48c-13 30-37 53-82 52C43 2 14-33 14-96s30-98 90-98c62 0 83 45 84 108H66c0 31 8 55 39 56 18 0 30-7 34-22zm-45-69c5-46-57-63-70-21-2 6-4 13-4 21h74" id="q"/><path fill="#333" d="M115-3C79 11 28 4 28-45v-112H4v-33h27l15-45h31v45h36v33H77v99c-1 23 16 31 38 25v30" id="r"/><path fill="#333" d="M169-182c-1-43-94-46-97-3 18 66 151 10 154 114 3 95-165 93-204 36-6-8-10-19-12-30l50-8c3 46 112 56 116 5-17-69-150-10-154-114-4-87 153-88 188-35 5 8 8 18 10 28" id="s"/><path fill="#333" d="M67-125c0 53 21 87 73 88 37 1 54-22 65-47l45 17C233-25 199 4 140 4 58 4 20-42 15-125 8-235 124-281 211-232c18 10 29 29 36 50l-46 12c-8-25-30-41-62-41-52 0-71 34-72 86" id="t"/><g id="c"><use transform="matrix(0.04938271604938272,0,0,0.04938271604938272,0,0)" xlink:href="#o"/><use transform="matrix(0.04938271604938272,0,0,0.04938271604938272,12.790123456790125,0)" xlink:href="#p"/><use transform="matrix(0.04938271604938272,0,0,0.04938271604938272,22.66666666666667,0)" xlink:href="#p"/><use transform="matrix(0.04938271604938272,0,0,0.04938271604938272,32.543209876543216,0)" xlink:href="#q"/><use transform="matrix(0.04938271604938272,0,0,0.04938271604938272,42.41975308641976,0)" xlink:href="#r"/><use transform="matrix(0.04938271604938272,0,0,0.04938271604938272,48.296296296296305,0)" xlink:href="#s"/><use transform="matrix(0.04938271604938272,0,0,0.04938271604938272,60.14814814814817,0)" xlink:href="#t"/></g><path d="M247-698c138 0 240 127 181 264-25 59-50 81-87 126L151-78h292V0H38v-72l243-287c52-61 78-112 78-154 2-63-50-109-112-108-65-1-113 43-113 108H49c-3-109 90-185 198-185" id="u"/><g id="d"><use transform="matrix(0.022222222222222223,0,0,0.022222222222222223,0,0)" xlink:href="#k"/><use transform="matrix(0.022222222222222223,0,0,0.022222222222222223,10.911111111111111,0)" xlink:href="#h"/><use transform="matrix(0.022222222222222223,0,0,0.022222222222222223,21.266666666666666,0)" xlink:href="#j"/><use transform="matrix(0.022222222222222223,0,0,0.022222222222222223,28.26666666666667,0)" xlink:href="#l"/><use transform="matrix(0.022222222222222223,0,0,0.022222222222222223,35.355555555555554,0)" xlink:href="#m"/><use transform="matrix(0.022222222222222223,0,0,0.022222222222222223,46.46666666666667,0)" xlink:href="#u"/></g><path d="M60-512c2-121 91-189 223-186 103 0 179 38 228 113l-67 48c-43-53-76-82-164-83-78 0-134 33-134 108 0 95 67 108 163 128 130 27 214 62 214 199C523-55 430 7 291 8 179 8 97-30 45-105l71-49c49 56 80 82 175 84 97 0 146-37 146-111 0-94-64-111-163-129-143-22-214-89-214-202" id="v"/><path d="M547-215C530-77 448 4 300 8 108 13 50-143 50-383c0-210 83-315 250-315 149 1 229 86 248 223h-84c-21-92-62-144-164-145-154-2-168 142-164 313 3 144 36 237 164 237 102 0 143-55 164-145h83" id="w"/><g id="e"><use transform="matrix(0.022222222222222223,0,0,0.022222222222222223,0,0)" xlink:href="#g"/><use transform="matrix(0.022222222222222223,0,0,0.022222222222222223,12.88888888888889,0)" xlink:href="#h"/><use transform="matrix(0.022222222222222223,0,0,0.022222222222222223,23.244444444444444,0)" xlink:href="#h"/><use transform="matrix(0.022222222222222223,0,0,0.022222222222222223,33.6,0)" xlink:href="#i"/><use transform="matrix(0.022222222222222223,0,0,0.022222222222222223,44.44444444444444,0)" xlink:href="#j"/><use transform="matrix(0.022222222222222223,0,0,0.022222222222222223,51.44444444444444,0)" xlink:href="#v"/><use transform="matrix(0.022222222222222223,0,0,0.022222222222222223,64.13333333333333,0)" xlink:href="#w"/></g><path d="M120-284c0 125 20 222 136 220 55 0 92-19 111-56l62 44C399-20 341 8 256 8 121 9 38-82 40-218v-66c-1-138 79-225 216-224 79 0 136 26 173 78l-63 44c-23-33-60-50-110-50-88-1-136 62-136 152" id="x"/><g id="f"><use transform="matrix(0.022222222222222223,0,0,0.022222222222222223,0,0)" xlink:href="#k"/><use transform="matrix(0.022222222222222223,0,0,0.022222222222222223,10.911111111111111,0)" xlink:href="#h"/><use transform="matrix(0.022222222222222223,0,0,0.022222222222222223,21.266666666666666,0)" xlink:href="#j"/><use transform="matrix(0.022222222222222223,0,0,0.022222222222222223,28.26666666666667,0)" xlink:href="#h"/><use transform="matrix(0.022222222222222223,0,0,0.022222222222222223,38.62222222222222,0)" xlink:href="#x"/><use transform="matrix(0.022222222222222223,0,0,0.022222222222222223,48.266666666666666,0)" xlink:href="#l"/><use transform="matrix(0.022222222222222223,0,0,0.022222222222222223,55.355555555555554,0)" xlink:href="#m"/><use transform="matrix(0.022222222222222223,0,0,0.022222222222222223,66.46666666666667,0)" xlink:href="#n"/><use transform="matrix(0.022222222222222223,0,0,0.022222222222222223,77.57777777777778,0)" xlink:href="#k"/></g></defs></g></svg>