<svg xmlns="http://www.w3.org/2000/svg" xmlns:xlink="http://www.w3.org/1999/xlink" xmlns:lucid="lucid" width="784.55" height="422"><g transform="translate(2701.0000000265477 -4618.999999973453)" lucid:page-tab-id="0_0"><path d="M-2400 4626a6 6 0 0 1 6-6h148a6 6 0 0 1 6 6v148a6 6 0 0 1-6 6h-148a6 6 0 0 1-6-6z" stroke="#000" stroke-width="2" fill="#fff"/><use xlink:href="#a" transform="matrix(1,0,0,1,-2395,4625) translate(49.27777777777778 64.1861111111111)"/><use xlink:href="#b" transform="matrix(1,0,0,1,-2395,4625) translate(46.21111111111111 92.54166666666666)"/><path d="M-2080 4626a6 6 0 0 1 6-6h148a6 6 0 0 1 6 6v148a6 6 0 0 1-6 6h-148a6 6 0 0 1-6-6z" stroke="#000" stroke-width="2" fill="#fff"/><use xlink:href="#c" transform="matrix(1,0,0,1,-2075,4625) translate(36.51111111111111 64.1861111111111)"/><use xlink:href="#d" transform="matrix(1,0,0,1,-2075,4625) translate(30.755555555555553 92.54166666666666)"/><path d="M-2196.47 4701H-2238v-2h41.53zm96.97 0h-24.03v-2h24.03z" stroke="#000" stroke-width=".05"/><path d="M-2237.97 4701h-1.03v-2h1.03z"/><path d="M-2237.95 4701.02h-1.08v-2.05h1.08zm-1.03-2v1.95h.98v-1.95z" stroke="#000" stroke-width=".05"/><path d="M-2084.24 4700l-14.26 4.64v-9.28z"/><path d="M-2081 4700l-18.5 6v-12zm-16.5 3.26l10.03-3.26-10.03-3.26z" stroke="#000" stroke-width=".05"/><use xlink:href="#e" transform="matrix(1,0,0,1,-2196.4679508135696,4689.333333333333) translate(0 14.222222222222223)"/><path d="M-2700 4886a6 6 0 0 1 6-6h148a6 6 0 0 1 6 6v148a6 6 0 0 1-6 6h-148a6 6 0 0 1-6-6z" stroke="#000" stroke-width="2" fill="#fff"/><use xlink:href="#a" transform="matrix(1,0,0,1,-2695,4885) translate(49.27777777777778 64.1861111111111)"/><use xlink:href="#f" transform="matrix(1,0,0,1,-2695,4885) translate(46.21111111111111 92.54166666666666)"/><path d="M-2398.72 4886a6 6 0 0 1 6-6h148a6 6 0 0 1 6 6v148a6 6 0 0 1-6 6h-148a6 6 0 0 1-6-6z" stroke="#000" stroke-width="2" fill="#fff"/><use xlink:href="#a" transform="matrix(1,0,0,1,-2393.723927068641,4885) translate(49.27777777777778 64.1861111111111)"/><use xlink:href="#g" transform="matrix(1,0,0,1,-2393.723927068641,4885) translate(46.21111111111111 92.54166666666666)"/><path d="M-2077.45 4886a6 6 0 0 1 6-6h148a6 6 0 0 1 6 6v148a6 6 0 0 1-6 6h-148a6 6 0 0 1-6-6z" stroke="#000" stroke-width="2" fill="#fff"/><use xlink:href="#a" transform="matrix(1,0,0,1,-2072.447854137282,4885) translate(49.27777777777778 64.1861111111111)"/><use xlink:href="#h" transform="matrix(1,0,0,1,-2072.447854137282,4885) translate(46.21111111111111 92.54166666666666)"/><path d="M-2494.07 4835.77l-65.17 11.67-15.54 3.96-10.05 3.02-7 2.43-5.16 2.03-3.9 1.74-3.05 1.5-2.42 1.34-1.96 1.2-.96.62-1.1-1.67 1-.65 2.03-1.22 2.5-1.38 3.12-1.54 4-1.76 5.2-2.06 7.1-2.47 10.13-3.03 15.66-4 65.6-11.74zm175.02-53.67l-.05.5-.08.54-.1.54-.13.53-.16.55-.17.54-.2.54-.24.56-.27.57-.3.58-.35.6-.38.6-.45.65-.5.67-.58.7-.67.73-.76.77-.87.82-1.02.86-1.2.95-1.4 1.03-1.68 1.1-2.03 1.24-2.5 1.38-3.12 1.54-4 1.76-5.2 2.06-7.1 2.47-10.13 3.03-15.64 3.98-28.6 6-36.85 6.6v-2.02l36.46-6.53 28.53-6 15.55-3.95 10.05-3.02 7-2.43 5.16-2.03 3.9-1.74 3.05-1.5 2.42-1.34 1.96-1.2 1.62-1.05 1.34-1 1.1-.88.96-.82.82-.76.7-.7.6-.68.52-.63.45-.6.4-.57.35-.55.3-.52.27-.5.23-.5.2-.48.18-.47.15-.46.13-.46.1-.44.1-.45.05-.44.06-.46z" stroke="#3a414a" stroke-width=".05" fill="#3a414a"/><path d="M-2319.02 4782.05l-2-.04.02-1h2z" fill="#3a414a"/><path d="M-2319 4782.07l-2.05-.04.03-1.05h2.05zm-1.98-1.05l-.02.96 1.95.04.03-1z" stroke="#3a414a" stroke-width=".05" fill="#3a414a"/><path d="M-2606.18 4867.3l-11.97 9.05 4.37-14.35z" fill="#3a414a"/><path d="M-2604.48 4867.27L-2620 4879l5.66-18.6zm-11.82 6.42l8.42-6.37-5.35-3.73z" stroke="#3a414a" stroke-width=".05" fill="#3a414a"/><use xlink:href="#i" transform="matrix(1,0,0,1,-2494.0667097714972,4819.756105726204) translate(0 14.222222222222223)"/><path d="M-2319 4860.5h-2v-25.2h2zm0-46.53h-2V4782h2z" stroke="#3a414a" stroke-width=".05" fill="#3a414a"/><path d="M-2319 4782.03h-2V4781h2z" fill="#3a414a"/><path d="M-2318.97 4782.05h-2.06v-1.07h2.06zm-2-1.03v.98h1.94v-.98z" stroke="#3a414a" stroke-width=".05" fill="#3a414a"/><path d="M-2320 4875.76l-4.64-14.26h9.28z" fill="#3a414a"/><path d="M-2320 4879l-6-18.5h12zm-3.26-16.5l3.26 10.03 3.26-10.03z" stroke="#3a414a" stroke-width=".05" fill="#3a414a"/><use xlink:href="#i" transform="matrix(1,0,0,1,-2344.1481481481483,4813.964964268064) translate(0 14.222222222222223)"/><path d="M-2054.68 4847.2l14.7 3.76 9.63 2.9 6.78 2.35 5 1.98 3.8 1.7 3 1.47 2.38 1.3 1.93 1.17-1.03 1.7-1.9-1.13-2.3-1.28-2.9-1.44-3.74-1.66-4.92-1.94-6.7-2.32-9.56-2.87-14.58-3.73-79.57-13.55v-2.03zm-264.24-64.94l.06.42.08.4.1.43.12.44.14.43.16.44.2.45.2.47.26.47.28.48.33.52.38.53.43.57.5.6.57.62.66.67.77.72.9.77 1.07.84 1.27.92 1.53 1.02 1.87 1.13 2.3 1.28 2.92 1.44 3.74 1.66 4.92 1.94 6.7 2.32 9.55 2.87 14.6 3.73 25.53 5.37 53.84 9.17v2.02l-54.2-9.24-25.62-5.38-14.7-3.74-9.62-2.9-6.78-2.35-5-1.98-3.8-1.7-3-1.47-2.38-1.3-1.94-1.18-1.6-1.07-1.34-.97-1.14-.9-.96-.83-.83-.77-.72-.74-.6-.7-.56-.66-.48-.63-.42-.6-.37-.58-.33-.57-.28-.55-.26-.53-.22-.53-.2-.52-.16-.5-.14-.5-.12-.5-.1-.5-.07-.5-.05-.42 2-.2z" stroke="#3a414a" stroke-width=".05" fill="#3a414a"/><path d="M-2318.98 4782l-2 .05-.02-1.05h2z" fill="#3a414a"/><path d="M-2318.95 4782.03l-2.05.04-.03-1.1h2.06zm-2.03-1l.03 1 1.95-.05-.02-.95z" stroke="#3a414a" stroke-width=".05" fill="#3a414a"/><path d="M-1999.36 4876.4l-12.18-8.77 7.47-5.48z" fill="#3a414a"/><path d="M-1997.45 4879l-15.8-11.36 9.7-7.1zm-12.4-11.38l8.57 6.16-3.3-10z" stroke="#3a414a" stroke-width=".05" fill="#3a414a"/><g><use xlink:href="#i" transform="matrix(1,0,0,1,-2182.9649537360706,4819.825826464116) translate(0 14.222222222222223)"/></g><defs><path d="M154-158L101 0H10l240-690h80L570 0h-91l-53-158H154zm245-78L290-560 181-236h218" id="j"/><path d="M45-366c1-94 76-144 179-142 86 0 147 28 182 83l-60 42c-30-38-57-50-124-51-53 0-96 19-97 67 0 47 39 74 116 79 103 10 181 38 180 149C419-37 344 9 233 8 144 8 80-20 40-75l59-42c31 38 65 51 135 51 58 0 107-19 107-71 0-70-49-71-129-80-111-8-167-58-167-149" id="k"/><path d="M120-232c-4 96 38 168 128 168 58 0 98-19 119-56l62 44C394-17 345 7 254 8 120 9 40-82 40-218c0-172 41-291 198-290 154-1 209 109 198 276H120zm118-204c-73 0-113 45-118 134h235c-4-89-43-134-117-134" id="l"/><path d="M280 0C145 6 85-24 85-154v-274H21v-72h64v-110h80v110h115v72H165v254c-6 91 28 102 115 98V0" id="m"/><g id="a"><use transform="matrix(0.022222222222222223,0,0,0.022222222222222223,0,0)" xlink:href="#j"/><use transform="matrix(0.022222222222222223,0,0,0.022222222222222223,12.88888888888889,0)" xlink:href="#k"/><use transform="matrix(0.022222222222222223,0,0,0.022222222222222223,23.244444444444444,0)" xlink:href="#k"/><use transform="matrix(0.022222222222222223,0,0,0.022222222222222223,33.6,0)" xlink:href="#l"/><use transform="matrix(0.022222222222222223,0,0,0.022222222222222223,44.44444444444444,0)" xlink:href="#m"/></g><path d="M219 8C111 9 40-44 40-146c0-95 62-143 187-143h119v-58c-2-74-33-85-111-87-71 1-91 8-120 51l-60-42c37-60 84-82 181-83 128 1 190 38 190 161V0h-80v-49C318-4 291 7 219 8zm0-74c103 2 133-44 127-155-96 5-231-25-226 77 0 52 33 78 99 78" id="n"/><path d="M289-253H30v-72h259v72" id="o"/><path d="M250-698c110-1 198 84 198 199v308C452-76 360 9 250 8 140 9 52-76 52-192v-306c-4-116 88-201 198-200zm0 628c65 1 112-54 112-121v-308c2-67-47-122-112-121-66-1-113 54-113 121v308c-2 67 47 122 113 121" id="p"/><path d="M223-690h86V0h-86v-591l-99 71v-94" id="q"/><g id="b"><use transform="matrix(0.022222222222222223,0,0,0.022222222222222223,0,0)" xlink:href="#n"/><use transform="matrix(0.022222222222222223,0,0,0.022222222222222223,10.911111111111111,0)" xlink:href="#k"/><use transform="matrix(0.022222222222222223,0,0,0.022222222222222223,21.266666666666666,0)" xlink:href="#m"/><use transform="matrix(0.022222222222222223,0,0,0.022222222222222223,28.26666666666667,0)" xlink:href="#o"/><use transform="matrix(0.022222222222222223,0,0,0.022222222222222223,35.355555555555554,0)" xlink:href="#p"/><use transform="matrix(0.022222222222222223,0,0,0.022222222222222223,46.46666666666667,0)" xlink:href="#q"/></g><path d="M60-512c2-121 91-189 223-186 103 0 179 38 228 113l-67 48c-43-53-76-82-164-83-78 0-134 33-134 108 0 95 67 108 163 128 130 27 214 62 214 199C523-55 430 7 291 8 179 8 97-30 45-105l71-49c49 56 80 82 175 84 97 0 146-37 146-111 0-94-64-111-163-129-143-22-214-89-214-202" id="r"/><path d="M547-215C530-77 448 4 300 8 108 13 50-143 50-383c0-210 83-315 250-315 149 1 229 86 248 223h-84c-21-92-62-144-164-145-154-2-168 142-164 313 3 144 36 237 164 237 102 0 143-55 164-145h83" id="s"/><g id="c"><use transform="matrix(0.022222222222222223,0,0,0.022222222222222223,0,0)" xlink:href="#j"/><use transform="matrix(0.022222222222222223,0,0,0.022222222222222223,12.88888888888889,0)" xlink:href="#k"/><use transform="matrix(0.022222222222222223,0,0,0.022222222222222223,23.244444444444444,0)" xlink:href="#k"/><use transform="matrix(0.022222222222222223,0,0,0.022222222222222223,33.6,0)" xlink:href="#l"/><use transform="matrix(0.022222222222222223,0,0,0.022222222222222223,44.44444444444444,0)" xlink:href="#m"/><use transform="matrix(0.022222222222222223,0,0,0.022222222222222223,51.44444444444444,0)" xlink:href="#r"/><use transform="matrix(0.022222222222222223,0,0,0.022222222222222223,64.13333333333333,0)" xlink:href="#s"/></g><path d="M120-284c0 125 20 222 136 220 55 0 92-19 111-56l62 44C399-20 341 8 256 8 121 9 38-82 40-218v-66c-1-138 79-225 216-224 79 0 136 26 173 78l-63 44c-23-33-60-50-110-50-88-1-136 62-136 152" id="t"/><g id="d"><use transform="matrix(0.022222222222222223,0,0,0.022222222222222223,0,0)" xlink:href="#n"/><use transform="matrix(0.022222222222222223,0,0,0.022222222222222223,10.911111111111111,0)" xlink:href="#k"/><use transform="matrix(0.022222222222222223,0,0,0.022222222222222223,21.266666666666666,0)" xlink:href="#m"/><use transform="matrix(0.022222222222222223,0,0,0.022222222222222223,28.26666666666667,0)" xlink:href="#k"/><use transform="matrix(0.022222222222222223,0,0,0.022222222222222223,38.62222222222222,0)" xlink:href="#t"/><use transform="matrix(0.022222222222222223,0,0,0.022222222222222223,48.266666666666666,0)" xlink:href="#o"/><use transform="matrix(0.022222222222222223,0,0,0.022222222222222223,55.355555555555554,0)" xlink:href="#p"/><use transform="matrix(0.022222222222222223,0,0,0.022222222222222223,66.46666666666667,0)" xlink:href="#q"/><use transform="matrix(0.022222222222222223,0,0,0.022222222222222223,77.57777777777778,0)" xlink:href="#n"/></g><path fill="#333" d="M199 0l-22-63H83L61 0H9l90-248h61L250 0h-51zm-33-102l-36-108c-10 38-24 72-36 108h72" id="u"/><path fill="#333" d="M137-138c1-29-70-34-71-4 15 46 118 7 119 86 1 83-164 76-172 9l43-7c4 19 20 25 44 25 33 8 57-30 24-41C81-84 22-81 20-136c-2-80 154-74 161-7" id="v"/><path fill="#333" d="M185-48c-13 30-37 53-82 52C43 2 14-33 14-96s30-98 90-98c62 0 83 45 84 108H66c0 31 8 55 39 56 18 0 30-7 34-22zm-45-69c5-46-57-63-70-21-2 6-4 13-4 21h74" id="w"/><path fill="#333" d="M115-3C79 11 28 4 28-45v-112H4v-33h27l15-45h31v45h36v33H77v99c-1 23 16 31 38 25v30" id="x"/><path fill="#333" d="M169-182c-1-43-94-46-97-3 18 66 151 10 154 114 3 95-165 93-204 36-6-8-10-19-12-30l50-8c3 46 112 56 116 5-17-69-150-10-154-114-4-87 153-88 188-35 5 8 8 18 10 28" id="y"/><path fill="#333" d="M67-125c0 53 21 87 73 88 37 1 54-22 65-47l45 17C233-25 199 4 140 4 58 4 20-42 15-125 8-235 124-281 211-232c18 10 29 29 36 50l-46 12c-8-25-30-41-62-41-52 0-71 34-72 86" id="z"/><g id="e"><use transform="matrix(0.04938271604938272,0,0,0.04938271604938272,0,0)" xlink:href="#u"/><use transform="matrix(0.04938271604938272,0,0,0.04938271604938272,12.790123456790125,0)" xlink:href="#v"/><use transform="matrix(0.04938271604938272,0,0,0.04938271604938272,22.66666666666667,0)" xlink:href="#v"/><use transform="matrix(0.04938271604938272,0,0,0.04938271604938272,32.543209876543216,0)" xlink:href="#w"/><use transform="matrix(0.04938271604938272,0,0,0.04938271604938272,42.41975308641976,0)" xlink:href="#x"/><use transform="matrix(0.04938271604938272,0,0,0.04938271604938272,48.296296296296305,0)" xlink:href="#y"/><use transform="matrix(0.04938271604938272,0,0,0.04938271604938272,60.14814814814817,0)" xlink:href="#z"/></g><path d="M247-698c138 0 240 127 181 264-25 59-50 81-87 126L151-78h292V0H38v-72l243-287c52-61 78-112 78-154 2-63-50-109-112-108-65-1-113 43-113 108H49c-3-109 90-185 198-185" id="A"/><g id="f"><use transform="matrix(0.022222222222222223,0,0,0.022222222222222223,0,0)" xlink:href="#n"/><use transform="matrix(0.022222222222222223,0,0,0.022222222222222223,10.911111111111111,0)" xlink:href="#k"/><use transform="matrix(0.022222222222222223,0,0,0.022222222222222223,21.266666666666666,0)" xlink:href="#m"/><use transform="matrix(0.022222222222222223,0,0,0.022222222222222223,28.26666666666667,0)" xlink:href="#o"/><use transform="matrix(0.022222222222222223,0,0,0.022222222222222223,35.355555555555554,0)" xlink:href="#p"/><use transform="matrix(0.022222222222222223,0,0,0.022222222222222223,46.46666666666667,0)" xlink:href="#A"/></g><path d="M369-186c1-102-72-141-183-131v-78c107 8 176-25 173-122 1-58-52-106-112-104-60-2-112 42-113 99H50c-3-104 94-176 197-176 110 0 199 76 198 183-1 76-47 131-103 157 75 31 113 88 113 170C456-80 368 8 254 8 133 8 47-62 41-173h84c9 63 56 104 129 103 64 2 117-53 115-116" id="B"/><g id="g"><use transform="matrix(0.022222222222222223,0,0,0.022222222222222223,0,0)" xlink:href="#n"/><use transform="matrix(0.022222222222222223,0,0,0.022222222222222223,10.911111111111111,0)" xlink:href="#k"/><use transform="matrix(0.022222222222222223,0,0,0.022222222222222223,21.266666666666666,0)" xlink:href="#m"/><use transform="matrix(0.022222222222222223,0,0,0.022222222222222223,28.26666666666667,0)" xlink:href="#o"/><use transform="matrix(0.022222222222222223,0,0,0.022222222222222223,35.355555555555554,0)" xlink:href="#p"/><use transform="matrix(0.022222222222222223,0,0,0.022222222222222223,46.46666666666667,0)" xlink:href="#B"/></g><path d="M20-175l243-515h85L120-190h199v-203h86v203h63v78h-63V0h-86v-112H20v-63" id="C"/><g id="h"><use transform="matrix(0.022222222222222223,0,0,0.022222222222222223,0,0)" xlink:href="#n"/><use transform="matrix(0.022222222222222223,0,0,0.022222222222222223,10.911111111111111,0)" xlink:href="#k"/><use transform="matrix(0.022222222222222223,0,0,0.022222222222222223,21.266666666666666,0)" xlink:href="#m"/><use transform="matrix(0.022222222222222223,0,0,0.022222222222222223,28.26666666666667,0)" xlink:href="#o"/><use transform="matrix(0.022222222222222223,0,0,0.022222222222222223,35.355555555555554,0)" xlink:href="#p"/><use transform="matrix(0.022222222222222223,0,0,0.022222222222222223,46.46666666666667,0)" xlink:href="#C"/></g><g id="i"><use transform="matrix(0.04938271604938272,0,0,0.04938271604938272,0,0)" xlink:href="#u"/><use transform="matrix(0.04938271604938272,0,0,0.04938271604938272,12.790123456790125,0)" xlink:href="#v"/><use transform="matrix(0.04938271604938272,0,0,0.04938271604938272,22.66666666666667,0)" xlink:href="#v"/><use transform="matrix(0.04938271604938272,0,0,0.04938271604938272,32.543209876543216,0)" xlink:href="#w"/><use transform="matrix(0.04938271604938272,0,0,0.04938271604938272,42.41975308641976,0)" xlink:href="#x"/></g></defs></g></svg>