<svg xmlns="http://www.w3.org/2000/svg" xmlns:xlink="http://www.w3.org/1999/xlink" xmlns:lucid="lucid" width="1203.46" height="801.79"><g transform="translate(-4239.3702090257 -1518.4557724338)" lucid:page-tab-id="0_0"><path d="M4721.33 1843.16a6 6 0 0 1 6-6h228a6 6 0 0 1 6 6v148a6 6 0 0 1-6 6h-228a6 6 0 0 1-6-6z" stroke="#3a414a" stroke-width="3" fill="#fff"/><use xlink:href="#a" transform="matrix(1,0,0,1,4729.327789327789,1845.1613166774232) translate(70.7962962962963 76.27777777777777)"/><path d="M4721.33 1525.96a6 6 0 0 1 6-6h228a6 6 0 0 1 6 6v148a6 6 0 0 1-6 6h-228a6 6 0 0 1-6-6z" stroke="#3a414a" stroke-width="3" fill="#fff"/><use xlink:href="#b" transform="matrix(1,0,0,1,4729.327789327789,1527.9557724596489) translate(31.228395061728406 76.27777777777777)"/><path d="M4842.83 1824.55h-3v-55.32h3zm0-76.66h-3v-64.94h3z" stroke="#3a414a" stroke-width=".05" fill="#3a414a"/><path d="M4842.83 1683h-3v-1.54h3z" fill="#3a414a"/><path d="M4842.85 1683.02h-3.05v-1.6h3.05zm-3-1.54v1.5h2.95v-1.5z" stroke="#3a414a" stroke-width=".05" fill="#3a414a"/><path d="M4841.33 1832.7l-7.64-12.9h15.26z" fill="#3a414a"/><path d="M4841.33 1835.66l-10.27-17.36h20.53zm-5-14.36l5 8.47 5-8.47z" stroke="#3a414a" stroke-width=".05" fill="#3a414a"/><use xlink:href="#c" transform="matrix(1,0,0,1,4808.3648263648265,1747.8930344326357) translate(0 14.222222222222223)"/><path d="M4240.87 2164.74a6 6 0 0 1 6-6h228a6 6 0 0 1 6 6v148a6 6 0 0 1-6 6h-228a6 6 0 0 1-6-6z" stroke="#3a414a" stroke-width="3" fill="#fff"/><use xlink:href="#d" transform="matrix(1,0,0,1,4248.8702090655215,2166.744851172638) translate(60.24074074074074 76.27777777777777)"/><path d="M4561.02 2164.74a6 6 0 0 1 6-6h228a6 6 0 0 1 6 6v148a6 6 0 0 1-6 6h-228a6 6 0 0 1-6-6z" stroke="#3a414a" stroke-width="3" fill="#fff"/><use xlink:href="#e" transform="matrix(1,0,0,1,4569.022735819611,2166.744851172638) translate(29.40740740740742 76.27777777777777)"/><path d="M4881.18 2163.33a6 6 0 0 1 6-6h228a6 6 0 0 1 6 6v148a6 6 0 0 1-6 6h-228a6 6 0 0 1-6-6z" stroke="#3a414a" stroke-width="3" fill="#fff"/><use xlink:href="#e" transform="matrix(1,0,0,1,4889.1752625737,2165.3333333332953) translate(29.40740740740742 76.27777777777777)"/><path d="M5201.33 2164.74a6 6 0 0 1 6-6h228a6 6 0 0 1 6 6v148a6 6 0 0 1-6 6h-228a6 6 0 0 1-6-6z" stroke="#3a414a" stroke-width="3" fill="#fff"/><use xlink:href="#f" transform="matrix(1,0,0,1,5209.327789327789,2166.744851172638) translate(17.771604938271636 76.27777777777777)"/><path d="M4566.73 2086.37l-106.8 19.27-25.4 6.47-16.38 4.93-11.44 3.97-8.38 3.3-6.37 2.84-4.97 2.46-3.95 2.17-3.2 1.94-2.63 1.75-2.2 1.6-1.83 1.44-1.56 1.34-1.32 1.24-1.14 1.17-1 1.1-.84 1.03-.75.98-.65.94-.57.9-.14.24-2.6-1.5.16-.3.64-1 .73-1.04.82-1.1.94-1.12 1.06-1.18 1.23-1.26 1.4-1.33 1.66-1.42 1.94-1.53 2.28-1.66 2.74-1.83 3.3-2 4.08-2.23 5.07-2.5 6.5-2.9 8.5-3.35 11.55-4.02 16.5-4.96 25.57-6.5 107.43-19.4zm276.04-86.1l-.02.14-.1.88-.1.86-.18.87-.2.87-.25.88-.28.88-.33.9-.38.9-.43.92-.5.94-.57.97-.64 1-.73 1.04-.82 1.1-.94 1.12-1.06 1.2-1.23 1.25-1.4 1.33-1.66 1.42-1.94 1.54-2.3 1.66-2.72 1.8-3.3 2-4.08 2.24-5.08 2.52-6.48 2.88-8.5 3.36-11.56 4-16.5 4.96-25.55 6.5-47.2 9.9-60 10.84v-3.05l59.44-10.73 47.08-9.87 25.42-6.48 16.38-4.93 11.44-3.97 8.38-3.3 6.37-2.83 4.96-2.46 3.97-2.16 3.2-1.94 2.63-1.75 2.2-1.58 1.83-1.46 1.55-1.33 1.33-1.25 1.16-1.16.98-1.1.86-1.03.75-.98.65-.94.57-.9.5-.85.43-.84.38-.8.34-.8.28-.76.25-.76.2-.75.2-.75.13-.74.1-.74.1-.74v-.1z" stroke="#3a414a" stroke-width=".05" fill="#3a414a"/><path d="M4842.8 2000.23l-3-.06.03-1.5h3z" fill="#3a414a"/><path d="M4842.82 2000.26l-3.05-.07.03-1.56h3.05zm-2.97-1.57l-.03 1.45 2.95.06.03-1.5z" stroke="#3a414a" stroke-width=".05" fill="#3a414a"/><path d="M4373.64 2145.13l-11.72 9.36-2.56-14.8z" fill="#3a414a"/><path d="M4376.63 2144.66l-15.76 12.6-3.44-19.9zm-13.67 7.08l7.7-6.14-9.38-3.55z" stroke="#3a414a" stroke-width=".05" fill="#3a414a"/><use xlink:href="#g" transform="matrix(1,0,0,1,4566.733807616583,2067.9522019415313) translate(0 14.222222222222223)"/><path d="M4729.38 2096.2l-7.98 4.82-5.94 3.94-4.7 3.42-3.88 3.06-3.25 2.8-2.8 2.62-2.4 2.46-2.1 2.34-1.86 2.25-1.65 2.17-1.46 2.1-1.3 2.06-1.18 2.02-1.04 2-.93 1.98-.82 1.97-.74 1.98-.64 2-.56 2-.48 2.04-.06.27-2.94-.57.06-.33.5-2.17.6-2.13.7-2.1.77-2.1.87-2.1.98-2.1 1.1-2.1 1.23-2.12 1.38-2.17 1.53-2.2 1.7-2.26 1.95-2.34 2.2-2.43 2.5-2.55 2.87-2.7 3.35-2.9 3.97-3.13 4.8-3.5 6.06-4 8.1-4.92 9.34-4.8h6.56zm113.42-96l-.02.94-.15 2.4-.25 2.3-.33 2.27-.42 2.2-.5 2.17-.6 2.13-.7 2.1-.77 2.1-.88 2.1-.98 2.1-1.1 2.1-1.23 2.13-1.38 2.16-1.54 2.2-1.72 2.27-1.94 2.34-2.2 2.44-2.5 2.55-2.87 2.7-3.35 2.88-3.97 3.14-4.8 3.5-6.05 4-8.1 4.9-9.4 5.13h-6.33l1.55-.8 12.7-6.94 7.98-4.8 5.94-3.95 4.7-3.42 3.87-3.07 3.25-2.8 2.8-2.62 2.4-2.46 2.1-2.34 1.87-2.24 1.63-2.16 1.46-2.1 1.3-2.07 1.17-2.02 1.04-2 .94-1.97.83-1.98.74-1.97.65-2 .57-2 .47-2.04.4-2.1.3-2.13.24-2.2.14-2.25.02-.9z" stroke="#3a414a" stroke-width=".05" fill="#3a414a"/><path d="M4842.8 2000.23l-3-.06.03-1.5h3z" fill="#3a414a"/><path d="M4842.82 2000.26l-3.05-.07.03-1.56h3.05zm-2.97-1.57l-.03 1.45 2.95.06.03-1.5z" stroke="#3a414a" stroke-width=".05" fill="#3a414a"/><path d="M4690.75 2142.58l-9.32 11.75-5.8-13.84z" fill="#3a414a"/><path d="M4693.56 2141.45l-12.54 15.8-7.8-18.6zm-11.73 9.96l6.1-7.7-9.9-1.36z" stroke="#3a414a" stroke-width=".05" fill="#3a414a"/><use xlink:href="#g" transform="matrix(1,0,0,1,4726.76711369497,2067.450438151366) translate(0 14.222222222222223)"/><path d="M4955 2093.07l7.96 4.8 5.94 3.94 4.74 3.44 3.9 3.1 3.32 2.86 2.84 2.66 2.47 2.52 2.16 2.4 1.9 2.3 1.7 2.25 1.53 2.18 1.36 2.15 1.2 2.1 1.1 2.08.97 2.07.86 2.06.77 2.07.68 2.08.6 2.1.5 2.15.03.17-2.95.56-.02-.1-.47-2.02-.57-1.98-.63-1.97-.73-1.93-.82-1.95-.92-1.96-1.03-1.96-1.15-2-1.3-2.03-1.43-2.08-1.63-2.14-1.84-2.22-2.08-2.3-2.38-2.44-2.75-2.57-3.2-2.77-3.82-3.02-4.64-3.37-5.85-3.87-7.8-4.7-14.85-7.62h6.58zm-112.12-92.1l.14 2.24.22 2.17.3 2.1.4 2.05.48 2.02.55 1.98.64 1.96.73 1.95.82 1.95.92 1.95 1.03 1.97 1.15 2 1.3 2.02 1.44 2.08 1.6 2.14 1.84 2.2 2.08 2.32 2.38 2.43 2.75 2.57 3.2 2.77 3.83 3.02 4.63 3.36 5.85 3.87 7.82 4.72 12.2 6.67 2.45 1.25h-6.4l-9.75-5.33-7.92-4.8-5.95-3.93-4.74-3.45-3.9-3.1-3.3-2.85-2.85-2.66-2.46-2.52-2.17-2.4-1.9-2.32-1.7-2.24-1.53-2.18-1.35-2.13-1.23-2.1-1.1-2.08-.96-2.07-.86-2.06-.77-2.07-.67-2.1-.6-2.1-.5-2.12-.4-2.18-.33-2.22-.24-2.3-.15-2.34-.02-.9 3-.07z" stroke="#3a414a" stroke-width=".05" fill="#3a414a"/><path d="M4842.86 2000.17l-3 .06-.03-1.57h3z" fill="#3a414a"/><path d="M4842.9 2000.2l-3.06.06-.04-1.62h3.05zm-3.05-1.5l.03 1.5 2.95-.05-.03-1.46z" stroke="#3a414a" stroke-width=".05" fill="#3a414a"/><path d="M5000.77 2152.9l-9.35-11.7 15.12-2.13z" fill="#3a414a"/><path d="M5001.18 2155.83l-12.58-15.76 20.34-2.85zm-6.95-13.52l6.13 7.7 3.78-9.08z" stroke="#3a414a" stroke-width=".05" fill="#3a414a"/><use xlink:href="#g" transform="matrix(1,0,0,1,4886.669308454972,2066.750104209144) translate(0 14.222222222222223)"/><path d="M5222.83 2102.67l25.6 6.52 16.5 4.95 11.57 4 8.5 3.37 6.5 2.88 5.1 2.52 4.05 2.23 3.3 2 2.75 1.82 2.3 1.66 1.93 1.54 1.65 1.42 1.43 1.33 1.24 1.25 1.07 1.2.95 1.12.82 1.1.72 1.03.63 1 .18.3-2.6 1.5-.14-.24-.57-.9-.66-.95-.74-.98-.86-1.04-1-1.1-1.13-1.16-1.32-1.25-1.56-1.34-1.84-1.46-2.2-1.6-2.62-1.73-3.2-1.95-3.96-2.17-4.97-2.46-6.38-2.83-8.4-3.33-11.43-3.96-16.4-4.92-25.42-6.48-106.5-19.23v-3.05zm-379.94-102.5l.07.74.1.75.15.74.17.73.2.75.25.76.3.78.32.8.38.8.44.84.5.86.56.9.65.94.76.98.86 1.03.98 1.1 1.15 1.17 1.33 1.24 1.56 1.35 1.84 1.45 2.2 1.6 2.62 1.74 3.2 1.94 3.96 2.17 4.97 2.46 6.37 2.82 8.4 3.3 11.44 3.98 16.4 4.93 25.44 6.48 47.16 9.9 59.07 10.66v3.05l-59.63-10.76-47.27-9.9-25.57-6.52-16.5-4.96-11.58-4.02-8.5-3.35-6.5-2.9-5.08-2.5-4.07-2.24-3.3-2-2.75-1.82-2.3-1.67-1.92-1.53-1.66-1.42-1.42-1.34-1.23-1.26-1.07-1.18-.94-1.14-.8-1.08-.74-1.04-.63-1-.57-.98-.5-.94-.43-.93-.38-.9-.33-.9-.3-.88-.23-.87-.22-.87-.16-.85-.13-.87-.1-.86v-.16l3-.2z" stroke="#3a414a" stroke-width=".05" fill="#3a414a"/><path d="M4842.86 2000.17l-3 .06-.03-1.57h3z" fill="#3a414a"/><path d="M4842.9 2000.2l-3.06.06-.04-1.62h3.05zm-3.05-1.5l.03 1.5 2.95-.05-.03-1.46z" stroke="#3a414a" stroke-width=".05" fill="#3a414a"/><path d="M5320.28 2154.5l-11.72-9.38 14.28-5.4z" fill="#3a414a"/><path d="M5321.33 2157.24l-15.76-12.58 19.2-7.28zm-9.77-11.64l7.68 6.13 1.68-9.68z" stroke="#3a414a" stroke-width=".05" fill="#3a414a"/><use xlink:href="#g" transform="matrix(1,0,0,1,5046.7056241828295,2067.950478519936) translate(0 14.222222222222223)"/><defs><path fill="#3a414a" d="M67-125c0 53 21 87 73 88 37 1 54-22 65-47l45 17C233-25 199 4 140 4 58 4 20-42 15-125 8-235 124-281 211-232c18 10 29 29 36 50l-46 12c-8-25-30-41-62-41-52 0-71 34-72 86" id="h"/><path fill="#3a414a" d="M110-194c64 0 96 36 96 99 0 64-35 99-97 99-61 0-95-36-95-99 0-62 34-99 96-99zm-1 164c35 0 45-28 45-65 0-40-10-65-43-65-34 0-45 26-45 65 0 36 10 65 43 65" id="i"/><path fill="#3a414a" d="M135-194c87-1 58 113 63 194h-50c-7-57 23-157-34-157-59 0-34 97-39 157H25l-1-190h47c2 12-1 28 3 38 12-26 28-41 61-42" id="j"/><path fill="#3a414a" d="M115-3C79 11 28 4 28-45v-112H4v-33h27l15-45h31v45h36v33H77v99c-1 23 16 31 38 25v30" id="k"/><path fill="#3a414a" d="M185-48c-13 30-37 53-82 52C43 2 14-33 14-96s30-98 90-98c62 0 83 45 84 108H66c0 31 8 55 39 56 18 0 30-7 34-22zm-45-69c5-46-57-63-70-21-2 6-4 13-4 21h74" id="l"/><path fill="#3a414a" d="M144 0l-44-69L55 0H2l70-98-66-92h53l41 62 40-62h54l-67 91 71 99h-54" id="m"/><g id="a"><use transform="matrix(0.06172839506172839,0,0,0.06172839506172839,0,0)" xlink:href="#h"/><use transform="matrix(0.06172839506172839,0,0,0.06172839506172839,15.987654320987653,0)" xlink:href="#i"/><use transform="matrix(0.06172839506172839,0,0,0.06172839506172839,29.50617283950617,0)" xlink:href="#j"/><use transform="matrix(0.06172839506172839,0,0,0.06172839506172839,43.02469135802469,0)" xlink:href="#k"/><use transform="matrix(0.06172839506172839,0,0,0.06172839506172839,50.37037037037037,0)" xlink:href="#l"/><use transform="matrix(0.06172839506172839,0,0,0.06172839506172839,62.716049382716044,0)" xlink:href="#m"/><use transform="matrix(0.06172839506172839,0,0,0.06172839506172839,75.06172839506172,0)" xlink:href="#k"/></g><path fill="#3a414a" d="M175 0L67-191c6 58 2 128 3 191H24v-248h59L193-55c-6-58-2-129-3-193h46V0h-61" id="n"/><path fill="#3a414a" d="M133-34C117-15 103 5 69 4 32 3 11-16 11-54c-1-60 55-63 116-61 1-26-3-47-28-47-18 1-26 9-28 27l-52-2c7-38 36-58 82-57s74 22 75 68l1 82c-1 14 12 18 25 15v27c-30 8-71 5-69-32zm-48 3c29 0 43-24 42-57-32 0-66-3-65 30 0 17 8 27 23 27" id="o"/><path fill="#3a414a" d="M135-150c-39-12-60 13-60 57V0H25l-1-190h47c2 13-1 29 3 40 6-28 27-53 61-41v41" id="p"/><path fill="#3a414a" d="M25-224v-37h50v37H25zM25 0v-190h50V0H25" id="q"/><path fill="#3a414a" d="M128 0H69L1-190h53L99-40l48-150h52" id="r"/><path fill="#3a414a" d="M169-182c-1-43-94-46-97-3 18 66 151 10 154 114 3 95-165 93-204 36-6-8-10-19-12-30l50-8c3 46 112 56 116 5-17-69-150-10-154-114-4-87 153-88 188-35 5 8 8 18 10 28" id="s"/><path fill="#3a414a" d="M190-63c-7 42-38 67-86 67-59 0-84-38-90-98-12-110 154-137 174-36l-49 2c-2-19-15-32-35-32-30 0-35 28-38 64-6 74 65 87 74 30" id="t"/><g id="b"><use transform="matrix(0.06172839506172839,0,0,0.06172839506172839,0,0)" xlink:href="#n"/><use transform="matrix(0.06172839506172839,0,0,0.06172839506172839,15.987654320987653,0)" xlink:href="#o"/><use transform="matrix(0.06172839506172839,0,0,0.06172839506172839,28.333333333333332,0)" xlink:href="#p"/><use transform="matrix(0.06172839506172839,0,0,0.06172839506172839,36.9753086419753,0)" xlink:href="#p"/><use transform="matrix(0.06172839506172839,0,0,0.06172839506172839,45.61728395061728,0)" xlink:href="#o"/><use transform="matrix(0.06172839506172839,0,0,0.06172839506172839,57.962962962962955,0)" xlink:href="#k"/><use transform="matrix(0.06172839506172839,0,0,0.06172839506172839,65.30864197530863,0)" xlink:href="#q"/><use transform="matrix(0.06172839506172839,0,0,0.06172839506172839,71.48148148148147,0)" xlink:href="#r"/><use transform="matrix(0.06172839506172839,0,0,0.06172839506172839,83.82716049382715,0)" xlink:href="#l"/><use transform="matrix(0.06172839506172839,0,0,0.06172839506172839,96.17283950617283,0)" xlink:href="#s"/><use transform="matrix(0.06172839506172839,0,0,0.06172839506172839,110.98765432098764,0)" xlink:href="#t"/><use transform="matrix(0.06172839506172839,0,0,0.06172839506172839,123.33333333333333,0)" xlink:href="#l"/><use transform="matrix(0.06172839506172839,0,0,0.06172839506172839,135.679012345679,0)" xlink:href="#j"/><use transform="matrix(0.06172839506172839,0,0,0.06172839506172839,149.19753086419752,0)" xlink:href="#l"/></g><path fill="#333" d="M67-125c0 53 21 87 73 88 37 1 54-22 65-47l45 17C233-25 199 4 140 4 58 4 20-42 15-125 8-235 124-281 211-232c18 10 29 29 36 50l-46 12c-8-25-30-41-62-41-52 0-71 34-72 86" id="u"/><path fill="#333" d="M110-194c64 0 96 36 96 99 0 64-35 99-97 99-61 0-95-36-95-99 0-62 34-99 96-99zm-1 164c35 0 45-28 45-65 0-40-10-65-43-65-34 0-45 26-45 65 0 36 10 65 43 65" id="v"/><path fill="#333" d="M135-194c87-1 58 113 63 194h-50c-7-57 23-157-34-157-59 0-34 97-39 157H25l-1-190h47c2 12-1 28 3 38 12-26 28-41 61-42" id="w"/><path fill="#333" d="M115-3C79 11 28 4 28-45v-112H4v-33h27l15-45h31v45h36v33H77v99c-1 23 16 31 38 25v30" id="x"/><path fill="#333" d="M185-48c-13 30-37 53-82 52C43 2 14-33 14-96s30-98 90-98c62 0 83 45 84 108H66c0 31 8 55 39 56 18 0 30-7 34-22zm-45-69c5-46-57-63-70-21-2 6-4 13-4 21h74" id="y"/><path fill="#333" d="M144 0l-44-69L55 0H2l70-98-66-92h53l41 62 40-62h54l-67 91 71 99h-54" id="z"/><g id="c"><use transform="matrix(0.04938271604938272,0,0,0.04938271604938272,0,0)" xlink:href="#u"/><use transform="matrix(0.04938271604938272,0,0,0.04938271604938272,12.790123456790125,0)" xlink:href="#v"/><use transform="matrix(0.04938271604938272,0,0,0.04938271604938272,23.60493827160494,0)" xlink:href="#w"/><use transform="matrix(0.04938271604938272,0,0,0.04938271604938272,34.41975308641975,0)" xlink:href="#x"/><use transform="matrix(0.04938271604938272,0,0,0.04938271604938272,40.2962962962963,0)" xlink:href="#y"/><use transform="matrix(0.04938271604938272,0,0,0.04938271604938272,50.17283950617284,0)" xlink:href="#z"/><use transform="matrix(0.04938271604938272,0,0,0.04938271604938272,60.04938271604939,0)" xlink:href="#x"/></g><path fill="#3a414a" d="M114-157C55-157 80-60 75 0H25v-261h50l-1 109c12-26 28-41 61-42 86-1 58 113 63 194h-50c-7-57 23-157-34-157" id="A"/><g id="d"><use transform="matrix(0.06172839506172839,0,0,0.06172839506172839,0,0)" xlink:href="#h"/><use transform="matrix(0.06172839506172839,0,0,0.06172839506172839,15.987654320987653,0)" xlink:href="#A"/><use transform="matrix(0.06172839506172839,0,0,0.06172839506172839,29.50617283950617,0)" xlink:href="#o"/><use transform="matrix(0.06172839506172839,0,0,0.06172839506172839,41.85185185185185,0)" xlink:href="#p"/><use transform="matrix(0.06172839506172839,0,0,0.06172839506172839,50.49382716049382,0)" xlink:href="#o"/><use transform="matrix(0.06172839506172839,0,0,0.06172839506172839,62.8395061728395,0)" xlink:href="#t"/><use transform="matrix(0.06172839506172839,0,0,0.06172839506172839,75.18518518518518,0)" xlink:href="#k"/><use transform="matrix(0.06172839506172839,0,0,0.06172839506172839,82.53086419753086,0)" xlink:href="#l"/><use transform="matrix(0.06172839506172839,0,0,0.06172839506172839,94.87654320987654,0)" xlink:href="#p"/></g><path fill="#3a414a" d="M140-251c80 0 125 45 125 126S219 4 139 4C58 4 15-44 15-125s44-126 125-126zm-1 214c52 0 73-35 73-88 0-50-21-86-72-86-52 0-73 35-73 86s22 88 72 88" id="B"/><path fill="#3a414a" d="M135-194c52 0 70 43 70 98 0 56-19 99-73 100-30 1-46-15-58-35L72 0H24l1-261h50v104c11-23 29-37 60-37zM114-30c31 0 40-27 40-66 0-37-7-63-39-63s-41 28-41 65c0 36 8 64 40 64" id="C"/><path fill="#3a414a" d="M25-224v-37h50v37H25zM75 22c2 45-34 59-81 51V38c22 5 31-5 31-27v-201h50V22" id="D"/><g id="e"><use transform="matrix(0.06172839506172839,0,0,0.06172839506172839,0,0)" xlink:href="#n"/><use transform="matrix(0.06172839506172839,0,0,0.06172839506172839,15.987654320987653,0)" xlink:href="#o"/><use transform="matrix(0.06172839506172839,0,0,0.06172839506172839,28.333333333333332,0)" xlink:href="#p"/><use transform="matrix(0.06172839506172839,0,0,0.06172839506172839,36.9753086419753,0)" xlink:href="#p"/><use transform="matrix(0.06172839506172839,0,0,0.06172839506172839,45.61728395061728,0)" xlink:href="#o"/><use transform="matrix(0.06172839506172839,0,0,0.06172839506172839,57.962962962962955,0)" xlink:href="#k"/><use transform="matrix(0.06172839506172839,0,0,0.06172839506172839,65.30864197530863,0)" xlink:href="#q"/><use transform="matrix(0.06172839506172839,0,0,0.06172839506172839,71.48148148148147,0)" xlink:href="#r"/><use transform="matrix(0.06172839506172839,0,0,0.06172839506172839,83.82716049382715,0)" xlink:href="#l"/><use transform="matrix(0.06172839506172839,0,0,0.06172839506172839,96.17283950617283,0)" xlink:href="#B"/><use transform="matrix(0.06172839506172839,0,0,0.06172839506172839,113.45679012345678,0)" xlink:href="#C"/><use transform="matrix(0.06172839506172839,0,0,0.06172839506172839,126.9753086419753,0)" xlink:href="#D"/><use transform="matrix(0.06172839506172839,0,0,0.06172839506172839,133.14814814814815,0)" xlink:href="#l"/><use transform="matrix(0.06172839506172839,0,0,0.06172839506172839,145.49382716049382,0)" xlink:href="#t"/><use transform="matrix(0.06172839506172839,0,0,0.06172839506172839,157.8395061728395,0)" xlink:href="#k"/></g><path fill="#3a414a" d="M24 0v-248h52v208h133V0H24" id="E"/><g id="f"><use transform="matrix(0.06172839506172839,0,0,0.06172839506172839,0,0)" xlink:href="#n"/><use transform="matrix(0.06172839506172839,0,0,0.06172839506172839,15.987654320987653,0)" xlink:href="#o"/><use transform="matrix(0.06172839506172839,0,0,0.06172839506172839,28.333333333333332,0)" xlink:href="#p"/><use transform="matrix(0.06172839506172839,0,0,0.06172839506172839,36.9753086419753,0)" xlink:href="#p"/><use transform="matrix(0.06172839506172839,0,0,0.06172839506172839,45.61728395061728,0)" xlink:href="#o"/><use transform="matrix(0.06172839506172839,0,0,0.06172839506172839,57.962962962962955,0)" xlink:href="#k"/><use transform="matrix(0.06172839506172839,0,0,0.06172839506172839,65.30864197530863,0)" xlink:href="#q"/><use transform="matrix(0.06172839506172839,0,0,0.06172839506172839,71.48148148148147,0)" xlink:href="#r"/><use transform="matrix(0.06172839506172839,0,0,0.06172839506172839,83.82716049382715,0)" xlink:href="#l"/><use transform="matrix(0.06172839506172839,0,0,0.06172839506172839,96.17283950617283,0)" xlink:href="#E"/><use transform="matrix(0.06172839506172839,0,0,0.06172839506172839,109.69135802469135,0)" xlink:href="#i"/><use transform="matrix(0.06172839506172839,0,0,0.06172839506172839,123.20987654320987,0)" xlink:href="#t"/><use transform="matrix(0.06172839506172839,0,0,0.06172839506172839,135.55555555555554,0)" xlink:href="#o"/><use transform="matrix(0.06172839506172839,0,0,0.06172839506172839,147.9012345679012,0)" xlink:href="#k"/><use transform="matrix(0.06172839506172839,0,0,0.06172839506172839,155.24691358024688,0)" xlink:href="#q"/><use transform="matrix(0.06172839506172839,0,0,0.06172839506172839,161.41975308641972,0)" xlink:href="#i"/><use transform="matrix(0.06172839506172839,0,0,0.06172839506172839,174.93827160493822,0)" xlink:href="#j"/></g><path fill="#333" d="M121-226c-27-7-43 5-38 36h38v33H83V0H34v-157H6v-33h28c-9-59 32-81 87-68v32" id="F"/><path fill="#333" d="M133-34C117-15 103 5 69 4 32 3 11-16 11-54c-1-60 55-63 116-61 1-26-3-47-28-47-18 1-26 9-28 27l-52-2c7-38 36-58 82-57s74 22 75 68l1 82c-1 14 12 18 25 15v27c-30 8-71 5-69-32zm-48 3c29 0 43-24 42-57-32 0-66-3-65 30 0 17 8 27 23 27" id="G"/><path fill="#333" d="M85 4C-2 5 27-109 22-190h50c7 57-23 150 33 157 60-5 35-97 40-157h50l1 190h-47c-2-12 1-28-3-38-12 25-28 42-61 42" id="H"/><path fill="#333" d="M135-150c-39-12-60 13-60 57V0H25l-1-190h47c2 13-1 29 3 40 6-28 27-53 61-41v41" id="I"/><path fill="#333" d="M137-138c1-29-70-34-71-4 15 46 118 7 119 86 1 83-164 76-172 9l43-7c4 19 20 25 44 25 33 8 57-30 24-41C81-84 22-81 20-136c-2-80 154-74 161-7" id="J"/><g id="g"><use transform="matrix(0.04938271604938272,0,0,0.04938271604938272,0,0)" xlink:href="#F"/><use transform="matrix(0.04938271604938272,0,0,0.04938271604938272,5.8765432098765435,0)" xlink:href="#y"/><use transform="matrix(0.04938271604938272,0,0,0.04938271604938272,15.753086419753087,0)" xlink:href="#G"/><use transform="matrix(0.04938271604938272,0,0,0.04938271604938272,25.629629629629633,0)" xlink:href="#x"/><use transform="matrix(0.04938271604938272,0,0,0.04938271604938272,31.506172839506174,0)" xlink:href="#H"/><use transform="matrix(0.04938271604938272,0,0,0.04938271604938272,42.320987654320994,0)" xlink:href="#I"/><use transform="matrix(0.04938271604938272,0,0,0.04938271604938272,49.23456790123458,0)" xlink:href="#y"/><use transform="matrix(0.04938271604938272,0,0,0.04938271604938272,59.111111111111114,0)" xlink:href="#J"/></g></defs></g></svg>