<svg xmlns="http://www.w3.org/2000/svg" xmlns:xlink="http://www.w3.org/1999/xlink" xmlns:lucid="lucid" width="765.83" height="722"><g transform="translate(2683.552145889266 -5438.999999973453)" lucid:page-tab-id="0_0"><path d="M-2397.45 5446a6 6 0 0 1 6-6h148a6 6 0 0 1 6 6v148a6 6 0 0 1-6 6h-148a6 6 0 0 1-6-6z" stroke="#000" stroke-width="2" fill="#fff"/><use xlink:href="#a" transform="matrix(1,0,0,1,-2392.447854137282,5445) translate(3.200000000000003 78.2486111111111)"/><path d="M-2400 5686a6 6 0 0 1 6-6h148a6 6 0 0 1 6 6v148a6 6 0 0 1-6 6h-148a6 6 0 0 1-6-6z" stroke="#000" stroke-width="2" fill="#fff"/><use xlink:href="#b" transform="matrix(1,0,0,1,-2395,5685) translate(39.75555555555555 78.2486111111111)"/><path d="M-2316.45 5660.5h-2v-14.28h2zm0-35.6h-2V5602h2z" stroke="#3a414a" stroke-width=".05" fill="#3a414a"/><path d="M-2316.45 5602.03h-2V5601h2z" fill="#3a414a"/><path d="M-2316.42 5602.05h-2.05v-1.07h2.05zm-2-1.03v.98h1.95v-.98z" stroke="#3a414a" stroke-width=".05" fill="#3a414a"/><path d="M-2317.45 5675.76l-4.63-14.26h9.27z" fill="#3a414a"/><path d="M-2317.45 5679l-6-18.5h12zm-3.26-16.5l3.25 10.03 3.26-10.03z" stroke="#3a414a" stroke-width=".05" fill="#3a414a"/><use xlink:href="#c" transform="matrix(1,0,0,1,-2350.4108171002454,5624.888888888889) translate(0 14.222222222222223)"/><path d="M-2682.55 6006a6 6 0 0 1 6-6h148a6 6 0 0 1 6 6v148a6 6 0 0 1-6 6h-148a6 6 0 0 1-6-6z" stroke="#000" stroke-width="2" fill="#fff"/><use xlink:href="#d" transform="matrix(1,0,0,1,-2677.552145862718,6005) translate(2.24444444444444 78.2486111111111)"/><path d="M-2481.28 6006a6 6 0 0 1 6-6h148a6 6 0 0 1 6 6v148a6 6 0 0 1-6 6h-148a6 6 0 0 1-6-6z" stroke="#000" stroke-width="2" fill="#fff"/><use xlink:href="#e" transform="matrix(1,0,0,1,-2476.276072931359,6005) translate(29.322222222222216 78.2486111111111)"/><path d="M-2280 6006a6 6 0 0 1 6-6h148a6 6 0 0 1 6 6v148a6 6 0 0 1-6 6h-148a6 6 0 0 1-6-6z" stroke="#000" stroke-width="2" fill="#fff"/><use xlink:href="#f" transform="matrix(1,0,0,1,-2275,6005) translate(-7.711111111111123 78.13333333333333)"/><path d="M-2078.72 6006a6 6 0 0 1 6-6h148a6 6 0 0 1 6 6v148a6 6 0 0 1-6 6h-148a6 6 0 0 1-6-6z" stroke="#000" stroke-width="2" fill="#fff"/><use xlink:href="#g" transform="matrix(1,0,0,1,-2073.723927068641,6005) translate(-3.4777777777777885 78.13333333333333)"/><path d="M-2073.6 5942.1l15.98 5.53 11.17 4.4 8.33 3.7 6.46 3.2 5.16 2.84 4.2 2.54 3.5 2.32 2.9 2.12 2.5 1.97 2.12 1.85 1.84 1.72 1.6 1.63 1.4 1.55 1.23 1.48 1.07 1.43.54.77-1.64 1.14-.5-.74-1.04-1.35-1.18-1.42-1.34-1.5-1.54-1.56-1.77-1.67-2.08-1.78-2.4-1.9-2.87-2.08-3.4-2.27-4.15-2.5-5.08-2.8-6.4-3.15-8.25-3.67-11.08-4.37-15.87-5.5-70.03-18.5v-2.07zm-245.38-99.93l.08 1.15.12 1.13.16 1.12.2 1.1.28 1.13.3 1.1.37 1.13.42 1.13.5 1.15.54 1.18.6 1.2.72 1.22.8 1.26.9 1.3 1.04 1.36 1.17 1.42 1.34 1.5 1.54 1.56 1.8 1.67 2.05 1.78 2.42 1.9 2.86 2.08 3.4 2.27 4.14 2.5 5.1 2.8 6.38 3.15 8.25 3.67 11.1 4.37 15.87 5.5 26.1 7.82 43.66 11.54v2.07l-44.2-11.7-26.18-7.83-15.96-5.53-11.17-4.4-8.33-3.7-6.47-3.2-5.16-2.84-4.2-2.54-3.48-2.32-2.94-2.12-2.48-1.97-2.13-1.85-1.84-1.72-1.6-1.63-1.38-1.55-1.23-1.48-1.1-1.43-.95-1.37-.84-1.34-.74-1.3-.67-1.26-.6-1.24-.5-1.23-.46-1.2-.4-1.2-.32-1.2-.28-1.2-.23-1.2-.17-1.2-.13-1.22-.07-1.23v-.23l2-.04z" stroke="#3a414a" stroke-width=".05" fill="#3a414a"/><path d="M-2318.98 5842l-2 .05-.02-1.05h2z" fill="#3a414a"/><path d="M-2318.95 5842.03l-2.05.04-.03-1.1h2.06zm-2.03-1l.03 1 1.95-.05-.02-.95z" stroke="#3a414a" stroke-width=".05" fill="#3a414a"/><path d="M-1999.73 5995.93l-8.87-12.1 8.8-2.9z" fill="#3a414a"/><path d="M-1998.72 5999l-11.5-15.7 11.42-3.75zm-8.26-14.66l6.23 8.5-.04-10.53z" stroke="#3a414a" stroke-width=".05" fill="#3a414a"/><use xlink:href="#h" transform="matrix(1,0,0,1,-2174.7657684145684,5909.762972954575) translate(0 14.222222222222223)"/><path d="M-2238.72 5934.34l6.08 4.8 4.58 3.95 3.72 3.47 3.1 3.18 2.7 2.97 2.32 2.82 2.06 2.7 1.82 2.64 1.64 2.57 1.46 2.54 1.32 2.5 1.18 2.5 1.06 2.53.95 2.55.84 2.58.5 1.78-1.92.53-.5-1.73-.8-2.5-.92-2.47-1.03-2.44-1.14-2.44-1.3-2.45-1.4-2.46-1.6-2.52-1.78-2.55-2-2.65-2.3-2.75-2.6-2.9-3.06-3.13-3.65-3.42-4.52-3.9-6-4.74-7.47-5.17h3.53zm-80.2-90.15l.18 3.03.3 2.9.4 2.78.53 2.7.6 2.6.7 2.56.82 2.5.92 2.47 1.03 2.44 1.14 2.44 1.3 2.45 1.4 2.46 1.6 2.52 1.78 2.55 2 2.65 2.3 2.75 2.6 2.9 3.06 3.13 3.65 3.42 4.52 3.9 6 4.74 7.43 5.38h-3.4l-5.24-3.78-6.06-4.8-4.58-3.95-3.72-3.47-3.1-3.18-2.7-2.97-2.32-2.82-2.06-2.7-1.82-2.64-1.64-2.57-1.46-2.54-1.32-2.5-1.18-2.5-1.06-2.53-.95-2.55-.84-2.58-.74-2.63-.63-2.68-.53-2.77-.42-2.87-.32-2.98-.2-3.12-.04-2.26 2-.04z" stroke="#3a414a" stroke-width=".05" fill="#3a414a"/><path d="M-2318.98 5842l-2 .05-.02-1.05h2z" fill="#3a414a"/><path d="M-2318.95 5842.03l-2.05.04-.03-1.1h2.06zm-2.03-1l.03 1 1.95-.05-.02-.95z" stroke="#3a414a" stroke-width=".05" fill="#3a414a"/><path d="M-2202.4 5995.8l-6.44-13.56 9.2-1.2z" fill="#3a414a"/><path d="M-2202 5999l-8.33-17.58 11.92-1.54zm-5.34-15.95l4.5 9.53 1.96-10.36z" stroke="#3a414a" stroke-width=".05" fill="#3a414a"/><use xlink:href="#i" transform="matrix(1,0,0,1,-2295.566899329823,5909.438832792554) translate(0 14.222222222222223)"/><path d="M-2372.73 5933.53l-4.66 5.16-3.46 4.18-2.8 3.7-2.4 3.43-2.06 3.27-1.82 3.15-1.63 3.1-1.45 3.1-1.3 3.08-1.17 3.14-1.03 3.2-.92 3.3-.8 3.44-.4 2-1.95-.37.4-2.03.8-3.5.96-3.4 1.06-3.28 1.2-3.23 1.34-3.18 1.48-3.17 1.66-3.17 1.87-3.23 2.1-3.33 2.44-3.5 2.88-3.76 3.52-4.25 4.72-5.25 1.45-1.44h2.84zm53.7-91.5l-.07 3.65-.27 4.36-.43 4.08-.57 3.85-.7 3.66-.82 3.5-.93 3.4-1.07 3.28-1.2 3.23-1.33 3.18-1.5 3.17-1.65 3.17-1.86 3.23-2.12 3.33-2.43 3.5-2.85 3.76-3.52 4.25-4.72 5.24-1.5 1.53h-2.8l2.85-2.9 4.66-5.16 3.48-4.18 2.82-3.7 2.38-3.43 2.07-3.27 1.82-3.15 1.62-3.1 1.44-3.1 1.3-3.08 1.17-3.14 1.05-3.2.93-3.3.8-3.44.68-3.58.56-3.77.42-4 .27-4.27.08-3.62z" stroke="#3a414a" stroke-width=".05" fill="#3a414a"/><path d="M-2319.02 5842.05l-2-.04.02-1h2z" fill="#3a414a"/><path d="M-2319 5842.07l-2.05-.04.03-1.05h2.05zm-1.98-1.05l-.02.96 1.95.04.03-1z" stroke="#3a414a" stroke-width=".05" fill="#3a414a"/><path d="M-2395.1 5981.98l-5.9 13.8-3.32-14.63z" fill="#3a414a"/><path d="M-2393.63 5981.1l-7.65 17.9-4.32-18.97zm-7.07 11.45l4.15-9.7-6.5-.58z" stroke="#3a414a" stroke-width=".05" fill="#3a414a"/><use xlink:href="#i" transform="matrix(1,0,0,1,-2395.0928624499566,5909.3738329179505) translate(0 14.222222222222223)"/><path d="M-2495.64 5931.06h2.6l-43.88 13.23-12.6 4.97-9.17 4.06-6.98 3.47-5.54 3.03-4.48 2.7-3.7 2.47-3.1 2.24-2.6 2.08-2.26 1.93-1.93 1.82-1.67 1.7-1.47 1.64-1.28 1.56-1.13 1.5-1 1.43-.72 1.12-1.7-1.08.75-1.16 1.05-1.5 1.18-1.56 1.35-1.62 1.52-1.7 1.74-1.76 2-1.87 2.3-2 2.7-2.12 3.16-2.3 3.77-2.5 4.56-2.75 5.6-3.08 7.06-3.5 9.23-4.1 12.72-5.02 41.94-12.65zm176.62-89.04v.4l-.1 1.4-.14 1.35-.2 1.35-.26 1.34-.3 1.34-.38 1.33-.43 1.33-.5 1.34-.57 1.36-.65 1.37-.73 1.4-.83 1.43-.93 1.46-1.05 1.5-1.18 1.56-1.34 1.62-1.53 1.7-1.73 1.76-2 1.87-2.3 2-2.7 2.12-3.16 2.3-3.76 2.5-4.56 2.75-5.6 3.08-7.08 3.5-9.22 4.1-12.72 5-19.47 6.76-22.23 6.7v-1.3h-2.58l24.2-7.3 19.4-6.72 12.62-5 9.15-4.05 7-3.47 5.53-3.03 4.5-2.7 3.68-2.47 3.1-2.24 2.62-2.08 2.24-1.93 1.94-1.82 1.68-1.7 1.46-1.64 1.3-1.56 1.12-1.5 1-1.43.88-1.38.8-1.35.68-1.33.6-1.3.55-1.27.48-1.27.4-1.25.35-1.25.3-1.26.24-1.25.18-1.28.14-1.28.07-1.3v-.36z" stroke="#3a414a" stroke-width=".05" fill="#3a414a"/><path d="M-2319.02 5842.05l-2-.04.02-1h2z" fill="#3a414a"/><path d="M-2319 5842.07l-2.05-.04.03-1.05h2.05zm-1.98-1.05l-.02.96 1.95.04.03-1z" stroke="#3a414a" stroke-width=".05" fill="#3a414a"/><path d="M-2593.18 5983.5l-8.46 12.4-.43-15z" fill="#3a414a"/><path d="M-2591.57 5982.94l-10.98 16.06-.56-19.45zm-9.16 9.85l5.95-8.72-6.25-1.83z" stroke="#3a414a" stroke-width=".05" fill="#3a414a"/><use xlink:href="#i" transform="matrix(1,0,0,1,-2495.6430670792474,5909.728939594673) translate(0 14.222222222222223)"/><defs><path d="M467-163v-527h86V0h-84L171-522V0H85v-690h82" id="j"/><path d="M219 8C111 9 40-44 40-146c0-95 62-143 187-143h119v-58c-2-74-33-85-111-87-71 1-91 8-120 51l-60-42c37-60 84-82 181-83 128 1 190 38 190 161V0h-80v-49C318-4 291 7 219 8zm0-74c103 2 133-44 127-155-96 5-231-25-226 77 0 52 33 78 99 78" id="k"/><path d="M252-434c-66-1-107 53-107 121V0H65v-500h80v49c48-85 215-70 259 11l-68 48c-20-28-48-42-84-42" id="l"/><path d="M280 0C145 6 85-24 85-154v-274H21v-72h64v-110h80v110h115v72H165v254c-6 91 28 102 115 98V0" id="m"/><path d="M160 0H80v-500h80V0zm5-600H75v-90h90v90" id="n"/><path d="M252-102l152-398h90L294 0h-80L10-500h90" id="o"/><path d="M120-232c-4 96 38 168 128 168 58 0 98-19 119-56l62 44C394-17 345 7 254 8 120 9 40-82 40-218c0-172 41-291 198-290 154-1 209 109 198 276H120zm118-204c-73 0-113 45-118 134h235c-4-89-43-134-117-134" id="p"/><path d="M60-512c2-121 91-189 223-186 103 0 179 38 228 113l-67 48c-43-53-76-82-164-83-78 0-134 33-134 108 0 95 67 108 163 128 130 27 214 62 214 199C523-55 430 7 291 8 179 8 97-30 45-105l71-49c49 56 80 82 175 84 97 0 146-37 146-111 0-94-64-111-163-129-143-22-214-89-214-202" id="q"/><path d="M120-284c0 125 20 222 136 220 55 0 92-19 111-56l62 44C399-20 341 8 256 8 121 9 38-82 40-218v-66c-1-138 79-225 216-224 79 0 136 26 173 78l-63 44c-23-33-60-50-110-50-88-1-136 62-136 152" id="r"/><path d="M267-434c-71-1-122 51-122 122V0H65v-500h80v49c30-42 62-56 134-57 121 1 182 70 182 196V0h-80v-311c0-82-38-123-114-123" id="s"/><g id="a"><use transform="matrix(0.022222222222222223,0,0,0.022222222222222223,0,0)" xlink:href="#j"/><use transform="matrix(0.022222222222222223,0,0,0.022222222222222223,14.177777777777779,0)" xlink:href="#k"/><use transform="matrix(0.022222222222222223,0,0,0.022222222222222223,25.08888888888889,0)" xlink:href="#l"/><use transform="matrix(0.022222222222222223,0,0,0.022222222222222223,33.84444444444445,0)" xlink:href="#l"/><use transform="matrix(0.022222222222222223,0,0,0.022222222222222223,42.37777777777778,0)" xlink:href="#k"/><use transform="matrix(0.022222222222222223,0,0,0.022222222222222223,53.28888888888889,0)" xlink:href="#m"/><use transform="matrix(0.022222222222222223,0,0,0.022222222222222223,60.28888888888889,0)" xlink:href="#n"/><use transform="matrix(0.022222222222222223,0,0,0.022222222222222223,65.62222222222222,0)" xlink:href="#o"/><use transform="matrix(0.022222222222222223,0,0,0.022222222222222223,76.82222222222222,0)" xlink:href="#p"/><use transform="matrix(0.022222222222222223,0,0,0.022222222222222223,87.66666666666667,0)" xlink:href="#q"/><use transform="matrix(0.022222222222222223,0,0,0.022222222222222223,100.35555555555555,0)" xlink:href="#r"/><use transform="matrix(0.022222222222222223,0,0,0.022222222222222223,110.22222222222223,0)" xlink:href="#p"/><use transform="matrix(0.022222222222222223,0,0,0.022222222222222223,121.06666666666668,0)" xlink:href="#s"/><use transform="matrix(0.022222222222222223,0,0,0.022222222222222223,132.75555555555556,0)" xlink:href="#p"/></g><path d="M547-215C530-77 448 4 300 8 108 13 50-143 50-383c0-210 83-315 250-315 149 1 229 86 248 223h-84c-21-92-62-144-164-145-154-2-168 142-164 313 3 144 36 237 164 237 102 0 143-55 164-145h83" id="t"/><path d="M248-508c135-1 208 86 208 224C456-109 409 9 248 8 115 9 38-82 40-218v-66c-2-136 75-225 208-224zM120-284c0 121 16 221 128 220 106-1 128-100 128-220 0-90-42-152-128-152-85 0-128 63-128 152" id="u"/><path d="M286-256L468 0h-94L239-186 104 0H10l182-256L30-500h94l115 177 115-177h94" id="v"/><g id="b"><use transform="matrix(0.022222222222222223,0,0,0.022222222222222223,0,0)" xlink:href="#t"/><use transform="matrix(0.022222222222222223,0,0,0.022222222222222223,12.844444444444445,0)" xlink:href="#u"/><use transform="matrix(0.022222222222222223,0,0,0.022222222222222223,23.866666666666667,0)" xlink:href="#s"/><use transform="matrix(0.022222222222222223,0,0,0.022222222222222223,35.55555555555556,0)" xlink:href="#m"/><use transform="matrix(0.022222222222222223,0,0,0.022222222222222223,42.55555555555556,0)" xlink:href="#p"/><use transform="matrix(0.022222222222222223,0,0,0.022222222222222223,52.86666666666668,0)" xlink:href="#v"/><use transform="matrix(0.022222222222222223,0,0,0.022222222222222223,63.488888888888894,0)" xlink:href="#m"/></g><path fill="#333" d="M67-125c0 53 21 87 73 88 37 1 54-22 65-47l45 17C233-25 199 4 140 4 58 4 20-42 15-125 8-235 124-281 211-232c18 10 29 29 36 50l-46 12c-8-25-30-41-62-41-52 0-71 34-72 86" id="w"/><path fill="#333" d="M110-194c64 0 96 36 96 99 0 64-35 99-97 99-61 0-95-36-95-99 0-62 34-99 96-99zm-1 164c35 0 45-28 45-65 0-40-10-65-43-65-34 0-45 26-45 65 0 36 10 65 43 65" id="x"/><path fill="#333" d="M135-194c87-1 58 113 63 194h-50c-7-57 23-157-34-157-59 0-34 97-39 157H25l-1-190h47c2 12-1 28 3 38 12-26 28-41 61-42" id="y"/><path fill="#333" d="M115-3C79 11 28 4 28-45v-112H4v-33h27l15-45h31v45h36v33H77v99c-1 23 16 31 38 25v30" id="z"/><path fill="#333" d="M185-48c-13 30-37 53-82 52C43 2 14-33 14-96s30-98 90-98c62 0 83 45 84 108H66c0 31 8 55 39 56 18 0 30-7 34-22zm-45-69c5-46-57-63-70-21-2 6-4 13-4 21h74" id="A"/><path fill="#333" d="M144 0l-44-69L55 0H2l70-98-66-92h53l41 62 40-62h54l-67 91 71 99h-54" id="B"/><g id="c"><use transform="matrix(0.04938271604938272,0,0,0.04938271604938272,0,0)" xlink:href="#w"/><use transform="matrix(0.04938271604938272,0,0,0.04938271604938272,12.790123456790125,0)" xlink:href="#x"/><use transform="matrix(0.04938271604938272,0,0,0.04938271604938272,23.60493827160494,0)" xlink:href="#y"/><use transform="matrix(0.04938271604938272,0,0,0.04938271604938272,34.41975308641975,0)" xlink:href="#z"/><use transform="matrix(0.04938271604938272,0,0,0.04938271604938272,40.2962962962963,0)" xlink:href="#A"/><use transform="matrix(0.04938271604938272,0,0,0.04938271604938272,50.17283950617284,0)" xlink:href="#B"/><use transform="matrix(0.04938271604938272,0,0,0.04938271604938272,60.04938271604939,0)" xlink:href="#z"/></g><path d="M300-698c192 0 250 151 250 391C550-97 467 8 300 8 108 8 50-143 50-383c0-210 83-315 250-315zm0 78c-154-3-168 142-164 313 3 144 36 235 164 237 154 3 168-142 164-313-3-144-36-235-164-237" id="C"/><path d="M481-218C482-85 412 9 281 8 217 8 172-9 145-44V0H65v-690h80v240c28-39 73-58 136-58 130 0 202 89 200 224v66zm-336-73c0 124 14 228 128 227 106-1 128-100 128-220 0-90-42-152-128-152-83 0-128 59-128 145" id="D"/><path d="M0 116c75-1 85-30 85-100v-516h80V36c-2 115-46 153-165 154v-74zm170-716H80v-90h90v90" id="E"/><g id="d"><use transform="matrix(0.022222222222222223,0,0,0.022222222222222223,0,0)" xlink:href="#j"/><use transform="matrix(0.022222222222222223,0,0,0.022222222222222223,14.177777777777779,0)" xlink:href="#k"/><use transform="matrix(0.022222222222222223,0,0,0.022222222222222223,25.08888888888889,0)" xlink:href="#l"/><use transform="matrix(0.022222222222222223,0,0,0.022222222222222223,33.84444444444445,0)" xlink:href="#l"/><use transform="matrix(0.022222222222222223,0,0,0.022222222222222223,42.37777777777778,0)" xlink:href="#k"/><use transform="matrix(0.022222222222222223,0,0,0.022222222222222223,53.28888888888889,0)" xlink:href="#m"/><use transform="matrix(0.022222222222222223,0,0,0.022222222222222223,60.28888888888889,0)" xlink:href="#n"/><use transform="matrix(0.022222222222222223,0,0,0.022222222222222223,65.62222222222222,0)" xlink:href="#o"/><use transform="matrix(0.022222222222222223,0,0,0.022222222222222223,76.82222222222222,0)" xlink:href="#p"/><use transform="matrix(0.022222222222222223,0,0,0.022222222222222223,87.66666666666667,0)" xlink:href="#C"/><use transform="matrix(0.022222222222222223,0,0,0.022222222222222223,101,0)" xlink:href="#D"/><use transform="matrix(0.022222222222222223,0,0,0.022222222222222223,112.57777777777778,0)" xlink:href="#E"/><use transform="matrix(0.022222222222222223,0,0,0.022222222222222223,117.80000000000001,0)" xlink:href="#p"/><use transform="matrix(0.022222222222222223,0,0,0.022222222222222223,128.64444444444445,0)" xlink:href="#r"/><use transform="matrix(0.022222222222222223,0,0,0.022222222222222223,138.51111111111112,0)" xlink:href="#m"/></g><path d="M267-434c-71-1-122 51-122 122V0H65v-690h80v239c30-42 62-56 134-57 121 1 182 70 182 196V0h-80v-311c0-82-38-123-114-123" id="F"/><g id="e"><use transform="matrix(0.022222222222222223,0,0,0.022222222222222223,0,0)" xlink:href="#t"/><use transform="matrix(0.022222222222222223,0,0,0.022222222222222223,12.844444444444445,0)" xlink:href="#F"/><use transform="matrix(0.022222222222222223,0,0,0.022222222222222223,24.533333333333335,0)" xlink:href="#k"/><use transform="matrix(0.022222222222222223,0,0,0.022222222222222223,35.44444444444444,0)" xlink:href="#l"/><use transform="matrix(0.022222222222222223,0,0,0.022222222222222223,43.977777777777774,0)" xlink:href="#k"/><use transform="matrix(0.022222222222222223,0,0,0.022222222222222223,54.88888888888888,0)" xlink:href="#r"/><use transform="matrix(0.022222222222222223,0,0,0.022222222222222223,64.75555555555556,0)" xlink:href="#m"/><use transform="matrix(0.022222222222222223,0,0,0.022222222222222223,71.75555555555556,0)" xlink:href="#p"/><use transform="matrix(0.022222222222222223,0,0,0.022222222222222223,82.60000000000001,0)" xlink:href="#l"/></g><path d="M85-690h86v612h330V0H85v-690" id="G"/><g id="f"><use transform="matrix(0.022222222222222223,0,0,0.022222222222222223,0,0)" xlink:href="#j"/><use transform="matrix(0.022222222222222223,0,0,0.022222222222222223,14.177777777777779,0)" xlink:href="#k"/><use transform="matrix(0.022222222222222223,0,0,0.022222222222222223,25.08888888888889,0)" xlink:href="#l"/><use transform="matrix(0.022222222222222223,0,0,0.022222222222222223,33.84444444444445,0)" xlink:href="#l"/><use transform="matrix(0.022222222222222223,0,0,0.022222222222222223,42.37777777777778,0)" xlink:href="#k"/><use transform="matrix(0.022222222222222223,0,0,0.022222222222222223,53.28888888888889,0)" xlink:href="#m"/><use transform="matrix(0.022222222222222223,0,0,0.022222222222222223,60.28888888888889,0)" xlink:href="#n"/><use transform="matrix(0.022222222222222223,0,0,0.022222222222222223,65.62222222222222,0)" xlink:href="#o"/><use transform="matrix(0.022222222222222223,0,0,0.022222222222222223,76.82222222222222,0)" xlink:href="#p"/><use transform="matrix(0.022222222222222223,0,0,0.022222222222222223,87.66666666666667,0)" xlink:href="#G"/><use transform="matrix(0.022222222222222223,0,0,0.022222222222222223,98.8,0)" xlink:href="#u"/><use transform="matrix(0.022222222222222223,0,0,0.022222222222222223,109.82222222222225,0)" xlink:href="#r"/><use transform="matrix(0.022222222222222223,0,0,0.022222222222222223,119.46666666666667,0)" xlink:href="#k"/><use transform="matrix(0.022222222222222223,0,0,0.022222222222222223,130.3777777777778,0)" xlink:href="#m"/><use transform="matrix(0.022222222222222223,0,0,0.022222222222222223,137.3777777777778,0)" xlink:href="#n"/><use transform="matrix(0.022222222222222223,0,0,0.022222222222222223,142.71111111111114,0)" xlink:href="#u"/><use transform="matrix(0.022222222222222223,0,0,0.022222222222222223,153.73333333333335,0)" xlink:href="#s"/></g><path d="M556-476c0 141-103 215-251 213H171V0H85v-690h220c148-2 251 72 251 214zM171-612v271h134c110 0 165-45 165-135 0-91-55-136-165-136H171" id="H"/><path d="M40-284c-2-134 70-224 200-224 63 0 108 19 136 58v-240h80V0h-80v-44C349-9 304 8 240 8 109 9 39-85 40-218v-66zm80 0c0 120 21 219 128 220 85 1 128-60 128-147 0-124-16-226-128-225-86 0-128 62-128 152" id="I"/><path d="M259-66c71 1 122-51 122-122v-312h80V0h-80v-49C351-7 319 7 247 8 126 7 65-62 65-188v-312h80v311c0 82 38 123 114 123" id="J"/><g id="g"><use transform="matrix(0.022222222222222223,0,0,0.022222222222222223,0,0)" xlink:href="#H"/><use transform="matrix(0.022222222222222223,0,0,0.022222222222222223,13.066666666666666,0)" xlink:href="#l"/><use transform="matrix(0.022222222222222223,0,0,0.022222222222222223,21.822222222222223,0)" xlink:href="#u"/><use transform="matrix(0.022222222222222223,0,0,0.022222222222222223,32.84444444444445,0)" xlink:href="#I"/><use transform="matrix(0.022222222222222223,0,0,0.022222222222222223,44.422222222222224,0)" xlink:href="#J"/><use transform="matrix(0.022222222222222223,0,0,0.022222222222222223,56.111111111111114,0)" xlink:href="#r"/><use transform="matrix(0.022222222222222223,0,0,0.022222222222222223,65.97777777777779,0)" xlink:href="#m"/><use transform="matrix(0.022222222222222223,0,0,0.022222222222222223,72.97777777777779,0)" xlink:href="#n"/><use transform="matrix(0.022222222222222223,0,0,0.022222222222222223,78.31111111111112,0)" xlink:href="#u"/><use transform="matrix(0.022222222222222223,0,0,0.022222222222222223,89.33333333333334,0)" xlink:href="#s"/><use transform="matrix(0.022222222222222223,0,0,0.022222222222222223,101.02222222222224,0)" xlink:href="#q"/><use transform="matrix(0.022222222222222223,0,0,0.022222222222222223,113.71111111111114,0)" xlink:href="#r"/><use transform="matrix(0.022222222222222223,0,0,0.022222222222222223,123.5777777777778,0)" xlink:href="#p"/><use transform="matrix(0.022222222222222223,0,0,0.022222222222222223,134.42222222222225,0)" xlink:href="#s"/><use transform="matrix(0.022222222222222223,0,0,0.022222222222222223,146.11111111111114,0)" xlink:href="#p"/></g><path fill="#333" d="M114-157C55-157 80-60 75 0H25v-261h50l-1 109c12-26 28-41 61-42 86-1 58 113 63 194h-50c-7-57 23-157-34-157" id="K"/><path fill="#333" d="M133-34C117-15 103 5 69 4 32 3 11-16 11-54c-1-60 55-63 116-61 1-26-3-47-28-47-18 1-26 9-28 27l-52-2c7-38 36-58 82-57s74 22 75 68l1 82c-1 14 12 18 25 15v27c-30 8-71 5-69-32zm-48 3c29 0 43-24 42-57-32 0-66-3-65 30 0 17 8 27 23 27" id="L"/><path fill="#333" d="M137-138c1-29-70-34-71-4 15 46 118 7 119 86 1 83-164 76-172 9l43-7c4 19 20 25 44 25 33 8 57-30 24-41C81-84 22-81 20-136c-2-80 154-74 161-7" id="M"/><g id="h"><use transform="matrix(0.04938271604938272,0,0,0.04938271604938272,0,0)" xlink:href="#K"/><use transform="matrix(0.04938271604938272,0,0,0.04938271604938272,10.814814814814815,0)" xlink:href="#L"/><use transform="matrix(0.04938271604938272,0,0,0.04938271604938272,20.69135802469136,0)" xlink:href="#M"/></g><path fill="#333" d="M121-226c-27-7-43 5-38 36h38v33H83V0H34v-157H6v-33h28c-9-59 32-81 87-68v32" id="N"/><path fill="#333" d="M85 4C-2 5 27-109 22-190h50c7 57-23 150 33 157 60-5 35-97 40-157h50l1 190h-47c-2-12 1-28-3-38-12 25-28 42-61 42" id="O"/><path fill="#333" d="M135-150c-39-12-60 13-60 57V0H25l-1-190h47c2 13-1 29 3 40 6-28 27-53 61-41v41" id="P"/><g id="i"><use transform="matrix(0.04938271604938272,0,0,0.04938271604938272,0,0)" xlink:href="#N"/><use transform="matrix(0.04938271604938272,0,0,0.04938271604938272,5.8765432098765435,0)" xlink:href="#A"/><use transform="matrix(0.04938271604938272,0,0,0.04938271604938272,15.753086419753087,0)" xlink:href="#L"/><use transform="matrix(0.04938271604938272,0,0,0.04938271604938272,25.629629629629633,0)" xlink:href="#z"/><use transform="matrix(0.04938271604938272,0,0,0.04938271604938272,31.506172839506174,0)" xlink:href="#O"/><use transform="matrix(0.04938271604938272,0,0,0.04938271604938272,42.320987654320994,0)" xlink:href="#P"/><use transform="matrix(0.04938271604938272,0,0,0.04938271604938272,49.23456790123458,0)" xlink:href="#A"/><use transform="matrix(0.04938271604938272,0,0,0.04938271604938272,59.111111111111114,0)" xlink:href="#M"/></g></defs></g></svg>