<svg xmlns="http://www.w3.org/2000/svg" xmlns:xlink="http://www.w3.org/1999/xlink" xmlns:lucid="lucid" width="1893.18" height="1321.54"><g transform="translate(-5688.479576209861 -4271.315695308153)" lucid:page-tab-id="0_0"><path d="M6276.34 5426.55H6175.7v-3h100.64zm171.77 0h-91.02v-3h91.03z" stroke="#3a414a" stroke-width=".05" fill="#3a414a"/><path d="M6175.74 5426.55h-1.54v-3h1.54z" fill="#3a414a"/><path d="M6175.77 5426.58h-1.6v-3.05h1.6zm-1.55-3v2.95h1.5v-2.95z" stroke="#3a414a" stroke-width=".05" fill="#3a414a"/><path d="M6456.27 5425.05l-12.9 7.64v-15.28z" fill="#3a414a"/><path d="M6459.22 5425.05l-17.36 10.27v-20.53zm-14.36 5l8.47-5-8.47-5z" stroke="#3a414a" stroke-width=".05" fill="#3a414a"/><use xlink:href="#a" transform="matrix(1,0,0,1,6276.340249813096,5414.387028201619) translate(0 14.222222222222223)"/><path d="M6811.25 5422.96h-107.53v-3h107.53zm164.88 0h-97.92v-3h97.93z" stroke="#3a414a" stroke-width=".05" fill="#3a414a"/><path d="M6703.76 5422.96h-1.54v-3h1.54z" fill="#3a414a"/><path d="M6703.8 5422.98h-1.6v-3.05h1.6zm-1.56-3v2.95h1.5v-2.95z" stroke="#3a414a" stroke-width=".05" fill="#3a414a"/><path d="M6984.3 5421.46l-12.92 7.63v-15.28z" fill="#3a414a"/><path d="M6987.24 5421.46l-17.36 10.26v-20.53zm-14.36 5l8.47-5-8.47-5z" stroke="#3a414a" stroke-width=".05" fill="#3a414a"/><use xlink:href="#b" transform="matrix(1,0,0,1,6811.2505033143425,5410.7889401715875) translate(0 14.222222222222223)"/><path d="M6314.54 5485.92H6185.3v-3h129.24zm143.18 0h-79.13v-3h79.1z" stroke="#3a414a" stroke-width=".05" fill="#3a414a"/><path d="M6459.22 5485.92h-1.54v-3h1.54z" fill="#3a414a"/><path d="M6459.24 5485.95h-1.6v-3.05h1.6zm-1.54-3v2.95h1.5v-2.95z" stroke="#3a414a" stroke-width=".05" fill="#3a414a"/><path d="M6190.06 5492.06l-12.9-7.64 12.9-7.63z" fill="#3a414a"/><path d="M6191.56 5494.7l-17.36-10.28 17.36-10.26zm-11.47-10.28l8.46 5v-10z" stroke="#3a414a" stroke-width=".05" fill="#3a414a"/><use xlink:href="#c" transform="matrix(1,0,0,1,6314.537783638006,5473.755467421378) translate(0 14.222222222222223)"/><path d="M6329.02 5093.84a6 6 0 0 1 6-6h228a6 6 0 0 1 6 6v148a6 6 0 0 1-6 6h-228a6 6 0 0 1-6-6z" stroke="#3a414a" stroke-width="3" fill="#fff"/><use xlink:href="#d" transform="matrix(1,0,0,1,6337.021788819471,5095.839821817813) translate(70.7962962962963 62.77777777777778)"/><use xlink:href="#e" transform="matrix(1,0,0,1,6337.021788819471,5095.839821817813) translate(51.012345679012334 89.44444444444446)"/><path d="M6528.24 5320.22l5.43 3.55 4.1 2.94 3.32 2.6 2.74 2.35 2.34 2.17 2.02 2.04 1.77 1.94 1.56 1.87 1.38 1.8 1.24 1.76 1.1 1.72 1 1.7.88 1.67.8 1.68.7 1.67.62 1.67.56 1.7.48 1.7.4 1.75.35 1.77.27 1.82.2 1.87.12 1.94v.5l-3 .07v-.43l-.1-1.82-.2-1.75-.25-1.7-.3-1.66-.4-1.6-.44-1.6-.52-1.56-.57-1.56-.66-1.56-.74-1.55-.82-1.57-.92-1.6-1.03-1.6-1.16-1.65-1.3-1.7-1.5-1.77-1.67-1.85-1.94-1.96-2.26-2.08-2.65-2.28-3.22-2.5-4-2.88-5.33-3.47-6.03-3.6h5.88zm-75.98-58.85l.5 1.57.6 1.56.66 1.55.73 1.56.83 1.57.93 1.6 1.04 1.6 1.16 1.66 1.3 1.7 1.48 1.77 1.68 1.85 1.93 1.95 2.24 2.1 2.66 2.25 3.2 2.5 4.02 2.88 5.3 3.47 6.03 3.35h-6.18l-1.4-.78-5.45-3.56-4.1-2.94-3.32-2.58-2.75-2.35-2.34-2.17-2.02-2.05-1.76-1.93-1.56-1.86-1.38-1.8-1.23-1.75-1.1-1.72-1-1.7-.88-1.68-.8-1.67-.7-1.67-.63-1.67-.55-1.7-.43-1.5 2.9-.8z" stroke="#3a414a" stroke-width=".05" fill="#3a414a"/><path d="M6561.66 5367.94h-3l-.03-1.5 3-.08z" fill="#3a414a"/><path d="M6561.7 5367.96h-3.06l-.03-1.56 3.06-.06zm-3.04-1.5l.03 1.45h2.94l-.03-1.5z" stroke="#3a414a" stroke-width=".05" fill="#3a414a"/><path d="M6459.27 5263.65l-15.05 2.62 5.3-14.03z" fill="#3a414a"/><path d="M6462.12 5264.68l-20.23 3.52 7.12-18.86zm-15.56-.34l9.86-1.72-6.4-7.47z" stroke="#3a414a" stroke-width=".05" fill="#3a414a"/><use xlink:href="#f" transform="matrix(1,0,0,1,6471.698299492349,5297.851085376491) translate(0 14.222222222222223)"/><path d="M6361.5 5043.65l8.63 3.82 6.02 2.98 4.58 2.5 3.64 2.22 2.98 1.97 2.5 1.8 2.1 1.68 1.82 1.57 1.58 1.47 1.37 1.4 1.2 1.34 1.08 1.3.95 1.25.85 1.22.75 1.18.67 1.17.6 1.15.53 1.13.48 1.12.4 1.12.38 1.12.32 1.13.27 1.12.2 1.14.18 1.16.12 1.18.06.85-3 .18-.05-.78-.1-1.05-.15-1.04-.2-1.02-.23-1-.28-1-.33-1-.36-1-.43-1.02-.47-1.02-.54-1.03-.62-1.06-.68-1.07-.78-1.1-.87-1.16-1-1.2-1.1-1.25-1.3-1.3-1.48-1.4-1.72-1.48-2.02-1.6-2.4-1.73-2.86-1.9-3.54-2.14-4.46-2.45-5.9-2.9-8.52-3.78-8.07-3.17v-3.22zm-98.1-51.6l.5 1 .53 1.05.6 1.05.7 1.1.77 1.1.88 1.15.98 1.2 1.13 1.24 1.28 1.32 1.48 1.4 1.72 1.47 2 1.6 2.4 1.73 2.88 1.9 3.53 2.14 4.46 2.45 5.9 2.93 8.5 3.77 8.18 3.07v3.2l-9.3-3.5-8.65-3.82-6.03-3-4.58-2.5-3.65-2.2-2.98-1.98-2.5-1.8-2.1-1.68-1.82-1.56-1.57-1.48-1.38-1.4-1.2-1.35-1.08-1.3-.95-1.24-.84-1.2-.75-1.2-.68-1.15-.6-1.15-.53-1.13-.07-.17 2.77-1.16z" stroke="#3a414a" stroke-width=".05" fill="#3a414a"/><path d="M6405.8 5086.34h-3l-.03-1.5 3-.07z" fill="#3a414a"/><path d="M6405.83 5086.36h-3.05l-.03-1.55 3.05-.06zm-3.03-1.5l.03 1.45h2.95l-.03-1.5z" stroke="#3a414a" stroke-width=".05" fill="#3a414a"/><path d="M6271.4 4994.88l-14.67 4.2 3.8-14.52z" fill="#3a414a"/><path d="M6274.35 4995.6l-19.74 5.63 5.12-19.5zm-15.5 1.3l9.62-2.74-7.13-6.77z" stroke="#3a414a" stroke-width=".05" fill="#3a414a"/><use xlink:href="#g" transform="matrix(1,0,0,1,6311.834988340787,5023.249280576391) translate(0 14.222222222222223)"/><path d="M6617.04 5093.84a6 6 0 0 1 6-6h228a6 6 0 0 1 6 6v148a6 6 0 0 1-6 6h-228a6 6 0 0 1-6-6z" stroke="#3a414a" stroke-width="3" fill="#fff"/><use xlink:href="#d" transform="matrix(1,0,0,1,6625.043155862968,5095.839821817813) translate(70.7962962962963 62.77777777777778)"/><use xlink:href="#h" transform="matrix(1,0,0,1,6625.043155862968,5095.839821817813) translate(47.956790123456784 89.44444444444446)"/><path d="M6657.27 5321.43l-6.52 3.88-4.72 3.1-3.7 2.64-3 2.35-2.5 2.13-2.15 2-1.85 1.86-1.6 1.76-1.43 1.7-1.25 1.63-1.1 1.57-1 1.55-.9 1.52-.78 1.5-.7 1.5-.63 1.47-.56 1.5-.5 1.5-.4 1.5-.38 1.53-.3 1.57-.23 1.6-.18 1.65-.12 1.7v.32l-3-.07v-.37l.12-1.83.2-1.78.25-1.72.32-1.7.4-1.65.45-1.63.53-1.62.6-1.6.68-1.6.76-1.6.84-1.6.95-1.64 1.04-1.66 1.2-1.7 1.32-1.72 1.5-1.8 1.7-1.86 1.93-1.95 2.22-2.08 2.6-2.24 3.12-2.42 3.8-2.72 4.82-3.16 5.65-3.36h6.4zm80.53-60.7l-.23.83-.53 1.6-.6 1.6-.68 1.6-.76 1.62-.85 1.6-.95 1.64-1.05 1.65-1.2 1.7-1.32 1.73-1.5 1.8-1.7 1.85-1.93 1.96-2.23 2.08-2.62 2.23-3.1 2.44-3.8 2.72-4.82 3.15-5.98 3.57h-6.27l4.13-2.22 6.54-3.88 4.72-3.1 3.7-2.63 3-2.35 2.5-2.16 2.15-2 1.86-1.85 1.6-1.78 1.43-1.7 1.24-1.63 1.1-1.6 1-1.55.9-1.52.78-1.5.7-1.48.63-1.5.56-1.47.5-1.5.22-.77z" stroke="#3a414a" stroke-width=".05" fill="#3a414a"/><path d="M6742.46 5266.32l-15-2.78 9.85-11.3z" fill="#3a414a"/><path d="M6744.77 5268.28l-20.18-3.74 13.24-15.2zm-14.47-5.73l9.85 1.82-3.38-9.23z" stroke="#3a414a" stroke-width=".05" fill="#3a414a"/><path d="M6620.75 5366.4v1.54h-3v-1.54z" fill="#3a414a"/><path d="M6620.77 5366.37v1.6h-3.05v-1.6zm-3 1.54h2.95v-1.48h-2.95z" stroke="#3a414a" stroke-width=".05" fill="#3a414a"/><use xlink:href="#f" transform="matrix(1,0,0,1,6645.6309561757835,5298.066345957099) translate(0 14.222222222222223)"/><path d="M5689.98 4999.57a6 6 0 0 1 6-6h228a6 6 0 0 1 6 6v148a6 6 0 0 1-6 6h-228a6 6 0 0 1-6-6z" stroke="#3a414a" stroke-width="3" fill="#fff"/><use xlink:href="#i" transform="matrix(1,0,0,1,5697.9795763377515,5001.573653834536) translate(81.81481481481481 62.77777777777778)"/><use xlink:href="#j" transform="matrix(1,0,0,1,5697.9795763377515,5001.573653834536) translate(79.96296296296296 89.44444444444446)"/><path d="M5689.98 4925.93a6 6 0 0 1 6-6h228a6 6 0 0 1 6 6v61.64a6 6 0 0 1-6 6h-228a6 6 0 0 1-6-6z" stroke="#3a414a" stroke-width="3" fill="#b8f5ed"/><use xlink:href="#k" transform="matrix(1,0,0,1,5693.661871225196,4923.610050973088) translate(5.882716049382708 24.05902777777778)"/><use xlink:href="#l" transform="matrix(1,0,0,1,5693.661871225196,4923.610050973088) translate(123.6604938271605 24.05902777777778)"/><use xlink:href="#m" transform="matrix(1,0,0,1,5693.661871225196,4923.610050973088) translate(36.74691358024691 50.72569444444445)"/><use xlink:href="#n" transform="matrix(1,0,0,1,5693.661871225196,4923.610050973088) translate(147.05555555555554 50.72569444444445)"/><path d="M7340.16 5004.16a6 6 0 0 1 6-6h228a6 6 0 0 1 6 6v148a6 6 0 0 1-6 6h-228a6 6 0 0 1-6-6z" stroke="#3a414a" stroke-width="3" fill="#fff"/><use xlink:href="#i" transform="matrix(1,0,0,1,7348.163314972645,5006.1616917691335) translate(81.81481481481481 62.77777777777778)"/><use xlink:href="#o" transform="matrix(1,0,0,1,7348.163314972645,5006.1616917691335) translate(80.58024691358025 89.44444444444446)"/><path d="M7340.16 4930.52a6 6 0 0 1 6-6h228a6 6 0 0 1 6 6v61.64a6 6 0 0 1-6 6h-228a6 6 0 0 1-6-6z" stroke="#3a414a" stroke-width="3" fill="#b8f5ed"/><use xlink:href="#p" transform="matrix(1,0,0,1,7343.845609860089,4928.198088907685) translate(7.549382716049394 24.05902777777778)"/><use xlink:href="#l" transform="matrix(1,0,0,1,7343.845609860089,4928.198088907685) translate(121.99382716049384 24.05902777777778)"/><use xlink:href="#m" transform="matrix(1,0,0,1,7343.845609860089,4928.198088907685) translate(36.74691358024691 50.72569444444445)"/><use xlink:href="#n" transform="matrix(1,0,0,1,7343.845609860089,4928.198088907685) translate(147.05555555555554 50.72569444444445)"/><path d="M6804.36 5476.93h-91.03v-3h91.03zm181.38 0H6885.1v-3h100.64z" stroke="#3a414a" stroke-width=".05" fill="#3a414a"/><path d="M6987.24 5476.93h-1.54v-3h1.54z" fill="#3a414a"/><path d="M6987.27 5476.95h-1.6v-3.05h1.6zm-1.55-3v2.95h1.5v-2.95z" stroke="#3a414a" stroke-width=".05" fill="#3a414a"/><path d="M6718.08 5483.06l-12.9-7.63 12.9-7.64z" fill="#3a414a"/><path d="M6719.58 5485.7l-17.36-10.27 17.36-10.27zm-11.47-10.27l8.48 5v-10z" stroke="#3a414a" stroke-width=".05" fill="#3a414a"/><use xlink:href="#a" transform="matrix(1,0,0,1,6804.357375613302,5464.7602496939835) translate(0 14.222222222222223)"/><path d="M6460.72 5375.44a6 6 0 0 1 6-6h228a6 6 0 0 1 6 6v148a6 6 0 0 1-6 6h-228a6 6 0 0 1-6-6z" stroke="#3a414a" stroke-width="3" fill="#fff"/><use xlink:href="#q" transform="matrix(1,0,0,1,6468.719182539613,5377.43524997807) translate(61.53703703703704 62.77777777777778)"/><use xlink:href="#r" transform="matrix(1,0,0,1,6468.719182539613,5377.43524997807) translate(82.46296296296296 89.44444444444446)"/><path d="M6460.72 5535.44a6 6 0 0 1 6-6h228a6 6 0 0 1 6 6v46.08a6 6 0 0 1-6 6h-228a6 6 0 0 1-6-6z" stroke="#3a414a" stroke-width="3" fill="#b8f5ed"/><use xlink:href="#s" transform="matrix(1,0,0,1,6463.623326475477,5532.339393913933) translate(40.5246913580247 31.02777777777778)"/><use xlink:href="#t" transform="matrix(1,0,0,1,6463.623326475477,5532.339393913933) translate(99.59876543209876 31.02777777777778)"/><path d="M6804.55 5043.84l-12.26 3.74-12.76 4.4-8.15 3.23-5.87 2.6-4.46 2.22-3.5 1.93-2.85 1.7-2.34 1.57-1.95 1.4-1.66 1.32-1.4 1.2-1.22 1.15-1.05 1.06-.9 1.02-.8.97-.72.92-.62.9-.55.86-.47.84-.43.82-.37.8-.34.77-.3.78-.25.78-.2.77-.2.77-.14.77-.1.78-.1.8v.2l-3-.17.02-.3.1-.9.13-.9.17-.9.2-.9.26-.9.3-.9.32-.88.38-.9.44-.92.48-.93.55-.95.6-.97.7-1 .8-1.02.87-1.06 1-1.1 1.14-1.17 1.3-1.23 1.5-1.3 1.75-1.38 2.07-1.5 2.44-1.6 2.96-1.8 3.63-1.98 4.56-2.27 5.97-2.66 8.27-3.26 12.87-4.45 13.18-4.03zm106.5-46.2l-.3.54-.6.97-.7 1-.8 1.02-.87 1.07-1 1.1-1.14 1.17-1.3 1.23-1.5 1.3-1.76 1.38-2.05 1.5-2.44 1.63-2.96 1.78-3.63 2-4.56 2.26-5.97 2.65-8.3 3.28-26.18 8v-3.13l25.2-7.7 8.1-3.2 5.87-2.6 4.45-2.2 3.52-1.94 2.84-1.7 2.34-1.56 1.95-1.42 1.65-1.3 1.4-1.22 1.23-1.14 1.05-1.07.9-1.03.8-.96.72-.92.62-.9.54-.85.28-.48z" stroke="#3a414a" stroke-width=".05" fill="#3a414a"/><path d="M6738.57 5084.83l-.03 1.5h-3l.04-1.56z" fill="#3a414a"/><path d="M6738.6 5084.8l-.03 1.56h-3.05l.03-1.62zm-3.03 1.5h2.95l.03-1.44-2.95-.07z" stroke="#3a414a" stroke-width=".05" fill="#3a414a"/><path d="M6914.35 5003.83l-14.34-5.27 11.64-9.48z" fill="#3a414a"/><path d="M6916.3 5006.15l-19.27-7.1 15.63-12.74zm-13.3-8.1l9.4 3.47-1.78-9.68z" stroke="#3a414a" stroke-width=".05" fill="#3a414a"/><use xlink:href="#g" transform="matrix(1,0,0,1,6804.550572754546,5025.423078860613) translate(0 14.222222222222223)"/><path d="M6988.74 5375.44a6 6 0 0 1 6-6h228a6 6 0 0 1 6 6v148a6 6 0 0 1-6 6h-228a6 6 0 0 1-6-6z" stroke="#3a414a" stroke-width="3" fill="#fff"/><use xlink:href="#i" transform="matrix(1,0,0,1,6996.74054958311,5377.43524997807) translate(81.81481481481481 62.77777777777778)"/><use xlink:href="#u" transform="matrix(1,0,0,1,6996.74054958311,5377.43524997807) translate(79.96296296296296 89.44444444444446)"/><path d="M6988.74 5534.02a6 6 0 0 1 6-6h228a6 6 0 0 1 6 6v51.34a6 6 0 0 1-6 6h-228a6 6 0 0 1-6-6z" stroke="#3a414a" stroke-width="3" fill="#b8f5ed"/><use xlink:href="#v" transform="matrix(1,0,0,1,6991.907216249777,5531.190398805394) translate(2.709876543209873 21.34027777777778)"/><use xlink:href="#l" transform="matrix(1,0,0,1,6991.907216249777,5531.190398805394) translate(127.83333333333333 21.34027777777778)"/><use xlink:href="#m" transform="matrix(1,0,0,1,6991.907216249777,5531.190398805394) translate(11.907407407407405 48.00694444444444)"/><use xlink:href="#w" transform="matrix(1,0,0,1,6991.907216249777,5531.190398805394) translate(122.21604938271605 48.00694444444444)"/><path d="M6329.02 4278.82a6 6 0 0 1 6-6h228a6 6 0 0 1 6 6v148a6 6 0 0 1-6 6h-228a6 6 0 0 1-6-6z" stroke="#3a414a" stroke-width="3" fill="#fff"/><use xlink:href="#x" transform="matrix(1,0,0,1,6337.021788819471,4280.815695334002) translate(17.771604938271608 62.77777777777778)"/><use xlink:href="#y" transform="matrix(1,0,0,1,6337.021788819471,4280.815695334002) translate(140.85802469135803 62.77777777777778)"/><use xlink:href="#z" transform="matrix(1,0,0,1,6337.021788819471,4280.815695334002) translate(83.6358024691358 89.44444444444446)"/><path d="M6617.04 4278.82a6 6 0 0 1 6-6h228a6 6 0 0 1 6 6v148a6 6 0 0 1-6 6h-228a6 6 0 0 1-6-6z" stroke="#3a414a" stroke-width="3" fill="#fff"/><use xlink:href="#x" transform="matrix(1,0,0,1,6625.043155862968,4280.815695334002) translate(17.771604938271608 62.77777777777778)"/><use xlink:href="#y" transform="matrix(1,0,0,1,6625.043155862968,4280.815695334002) translate(140.85802469135803 62.77777777777778)"/><use xlink:href="#A" transform="matrix(1,0,0,1,6625.043155862968,4280.815695334002) translate(84.25308641975309 89.44444444444446)"/><path d="M6450.52 5084.83h-3V4771h3zm0-335.17h-3v-304.23h3z" stroke="#3a414a" stroke-width=".05" fill="#3a414a"/><path d="M6450.52 5086.34h-3v-1.55h3z" fill="#3a414a"/><path d="M6450.55 5086.36h-3.05v-1.6h3.05zm-3-1.54v1.5h2.95v-1.5z" stroke="#3a414a" stroke-width=".05" fill="#3a414a"/><path d="M6456.66 4450.17h-15.27l7.62-12.9z" fill="#3a414a"/><path d="M6459.3 4451.67h-20.54l10.26-17.35zm-15.28-3h10l-5-8.46z" stroke="#3a414a" stroke-width=".05" fill="#3a414a"/><use xlink:href="#B" transform="matrix(1,0,0,1,6420.453887584903,4749.656201776444) translate(0 14.222222222222223)"/><path d="M6308.82 4491h.14l-8.46 2.93-7.98 3.15-5.65 2.5-4.26 2.1-3.33 1.85-2.7 1.63-2.2 1.47-1.86 1.35-1.56 1.23-1.33 1.16-1.14 1.08-1 1.02-.86.96-.77.92-.66.88-.6.85-.5.82-.47.78-.4.78-.37.76-.3.75-.3.75-.23.73-.2.74-.18.73-.14.74-.1.75-.1.76v.15l-3-.18.02-.23.1-.88.12-.87.17-.87.2-.86.23-.85.27-.87.33-.86.36-.87.4-.87.47-.9.52-.9.58-.93.66-.95.74-.98.85-1 .95-1.07 1.08-1.1 1.24-1.17 1.43-1.23 1.66-1.32 1.95-1.4 2.32-1.55 2.8-1.7 3.46-1.9 4.37-2.16 5.76-2.56 8.1-3.18 9.36-3.24zm104.57-45.25l-.6.9-.65.95-.74.98-.83 1.02-.95 1.05-1.1 1.1-1.23 1.17-1.44 1.23-1.66 1.32-1.95 1.42-2.32 1.53-2.8 1.7-3.47 1.9-4.37 2.16-5.76 2.54-8.13 3.2-9.45 2.98v-3.14l8.46-2.66 7.98-3.15 5.64-2.5 4.26-2.1 3.34-1.85 2.7-1.63 2.22-1.48 1.85-1.34 1.55-1.24 1.34-1.15 1.13-1.1 1-1 .87-.97.76-.9.66-.9.6-.84.53-.86z" stroke="#3a414a" stroke-width=".05" fill="#3a414a"/><path d="M6261.26 4525.23l-.04 1.5h-3l.04-1.56z" fill="#3a414a"/><path d="M6261.28 4525.2l-.03 1.56h-3.05l.03-1.62zm-3.03 1.5h2.95l.03-1.44-2.95-.07z" stroke="#3a414a" stroke-width=".05" fill="#3a414a"/><path d="M6416.63 4451.86l-14.27-5.47 11.76-9.33z" fill="#3a414a"/><path d="M6418.54 4454.2l-19.17-7.35 15.8-12.53zm-13.18-8.27l9.35 3.58-1.64-9.68z" stroke="#3a414a" stroke-width=".05" fill="#3a414a"/><use xlink:href="#B" transform="matrix(1,0,0,1,6308.817486184739,4469.673786796274) translate(0 14.222222222222223)"/><path d="M6139.72 4534.24a6 6 0 0 1 6-6h228a6 6 0 0 1 6 6v148a6 6 0 0 1-6 6h-228a6 6 0 0 1-6-6z" stroke="#3a414a" stroke-width="3" fill="#fff"/><use xlink:href="#d" transform="matrix(1,0,0,1,6147.7236661026345,4536.23878515719) translate(70.7962962962963 62.77777777777778)"/><use xlink:href="#C" transform="matrix(1,0,0,1,6147.7236661026345,4536.23878515719) translate(48.512345679012334 89.44444444444446)"/><path d="M6256.73 4742.5l-.52 16.7-3-.1.53-16.8.72-6.45h3.02zm4.15-41.6l-.23 7.2-.75 6.42h-3.02l.77-6.64.23-7.08z" stroke="#3a414a" stroke-width=".05" fill="#3a414a"/><path d="M6256.2 4759.15l-.04 1.5h-3l.05-1.6z" fill="#3a414a"/><path d="M6256.23 4759.13l-.04 1.54h-3.07l.06-1.64zm-3.04 1.5h2.94l.04-1.45-2.95-.1z" stroke="#3a414a" stroke-width=".05" fill="#3a414a"/><path d="M6266.86 4705.83l-15.26-.48 8.03-12.67z" fill="#3a414a"/><path d="M6269.44 4707.4l-20.52-.63 10.8-17.03zm-15.17-3.47l10 .32-4.73-8.62z" stroke="#3a414a" stroke-width=".05" fill="#3a414a"/><use xlink:href="#f" transform="matrix(1,0,0,1,6224.1912723504165,4714.51945305661) translate(0 14.222222222222223)"/><path d="M6863.57 4491.56l11.14 3.86 7.46 2.94 5.46 2.42 4.2 2.1 3.35 1.82 2.73 1.65 2.27 1.5 1.9 1.4 1.62 1.27 1.38 1.2 1.2 1.14 1.07 1.07.92 1.03.82 1 .7.94.65.92.57.9.5.87.45.84.4.85.35.82.3.83.27.82.22.82.2.8.15.83.13.83.08.8-2.98.33-.08-.76-.1-.7-.14-.7-.16-.7-.2-.7-.23-.7-.27-.7-.3-.73-.35-.72-.4-.75-.43-.76-.5-.8-.57-.8-.64-.86-.74-.88-.84-.93-.97-1-1.12-1.05-1.3-1.1-1.52-1.22-1.8-1.3-2.16-1.44-2.63-1.6-3.23-1.77-4.1-2.03-5.34-2.37-7.33-2.9-11-3.8-33.34-9.47v-3.12zm-121.82-47.1l.57.82.64.85.74.9.84.92.97 1 1.12 1.03 1.3 1.12 1.52 1.2 1.8 1.32 2.16 1.43 2.62 1.58 3.24 1.78 4.1 2.04 5.34 2.37 4.3 1.7h-.8v2.92l-4.66-1.84-5.46-2.43-4.2-2.08-3.36-1.84-2.72-1.65-2.27-1.5-1.9-1.38-1.62-1.28-1.4-1.2-1.2-1.14-1.05-1.08-.92-1.02-.82-1-.7-.94-.65-.92-.32-.5 2.53-1.6z" stroke="#3a414a" stroke-width=".05" fill="#3a414a"/><path d="M6750.04 4446.2l-14.18 5.68 2.28-14.83z" fill="#3a414a"/><path d="M6753.04 4446.6l-19.06 7.65 3.06-19.93zm-15.3 2.9l9.3-3.72-7.8-6z" stroke="#3a414a" stroke-width=".05" fill="#3a414a"/><path d="M6914.15 4529.62h-3v-1.54h3z" fill="#3a414a"/><path d="M6914.18 4529.65h-3.05v-1.6h3.05zm-3-1.54v1.5h2.95v-1.5z" stroke="#3a414a" stroke-width=".05" fill="#3a414a"/><use xlink:href="#B" transform="matrix(1,0,0,1,6772.198026627177,4464.502118830968) translate(0 14.222222222222223)"/><path d="M5932.7 5375.44a6 6 0 0 1 6-6h228a6 6 0 0 1 6 6v148a6 6 0 0 1-6 6h-228a6 6 0 0 1-6-6z" stroke="#3a414a" stroke-width="3" fill="#fff"/><use xlink:href="#D" transform="matrix(1,0,0,1,5940.697815496116,5377.435249978071) translate(60.24074074074074 62.77777777777778)"/><use xlink:href="#E" transform="matrix(1,0,0,1,5940.697815496116,5377.435249978071) translate(78.7283950617284 89.44444444444446)"/><path d="M6792.65 4772.73a6 6 0 0 1 6-6h228a6 6 0 0 1 6 6v148a6 6 0 0 1-6 6h-228a6 6 0 0 1-6-6z" stroke="#3a414a" stroke-width="3" fill="#fff"/><use xlink:href="#q" transform="matrix(1,0,0,1,6800.655325911618,4774.731136671992) translate(61.53703703703704 62.77777777777778)"/><use xlink:href="#F" transform="matrix(1,0,0,1,6800.655325911618,4774.731136671992) translate(83.08024691358025 89.44444444444446)"/><path d="M6792.65 4932.73a6 6 0 0 1 6-6h228a6 6 0 0 1 6 6v46.08a6 6 0 0 1-6 6h-228a6 6 0 0 1-6-6z" stroke="#3a414a" stroke-width="3" fill="#b8f5ed"/><use xlink:href="#s" transform="matrix(1,0,0,1,6795.559469847482,4929.635280607857) translate(38.73456790123457 31.02777777777778)"/><use xlink:href="#G" transform="matrix(1,0,0,1,6795.559469847482,4929.635280607857) translate(97.80864197530863 31.02777777777778)"/><path d="M7340.16 4627.05a6 6 0 0 1 6-6h228a6 6 0 0 1 6 6v148a6 6 0 0 1-6 6h-228a6 6 0 0 1-6-6z" stroke="#3a414a" stroke-width="3" fill="#fff"/><use xlink:href="#H" transform="matrix(1,0,0,1,7348.163314972645,4629.047018741146) translate(29.40740740740742 62.77777777777778)"/><use xlink:href="#I" transform="matrix(1,0,0,1,7348.163314972645,4629.047018741146) translate(82.46296296296296 89.44444444444446)"/><path d="M7340.16 4787.05a6 6 0 0 1 6-6h228a6 6 0 0 1 6 6v46.08a6 6 0 0 1-6 6h-228a6 6 0 0 1-6-6z" stroke="#3a414a" stroke-width="3" fill="#b8f5ed"/><use xlink:href="#s" transform="matrix(1,0,0,1,7343.067458908509,4783.95116267701) translate(63.3641975308642 31.02777777777778)"/><use xlink:href="#J" transform="matrix(1,0,0,1,7343.067458908509,4783.95116267701) translate(122.43827160493828 31.02777777777778)"/><path d="M7161.06 4799.37l-9.8 8.12-8.13 6.17-7.3 5.08-6.84 4.34-6.57 3.78-6.4 3.36-6.38 3-6.38 2.68-6.47 2.4-6.6 2.15-6.82 1.9-7.08 1.66-7.42 1.4-7.82 1.17-8.33.87-7.38.47-.18-3 7.3-.46 8.2-.86 7.7-1.13 7.3-1.4 6.96-1.64 6.7-1.86 6.5-2.1 6.34-2.37 6.26-2.64 6.25-2.95 6.3-3.3 6.46-3.72 6.73-4.28 7.2-5 8.03-6.1 7.9-6.55h4.6zm176.13-96.8l-8.06.17-8.8.56-8.2.86-7.7 1.13-7.3 1.38-6.95 1.63-6.7 1.88-6.5 2.1-6.35 2.37-6.26 2.64-6.26 2.93-6.3 3.3-6.46 3.72-6.73 4.27-7.2 5-8.03 6.1-9.68 8.05-15.23 13.78-13.73 12.82h-4.4l16.1-15.03 15.3-13.84 9.8-8.1 8.12-6.2 7.3-5.07 6.82-4.34 6.57-3.8 6.4-3.36 6.36-3 6.4-2.68 6.45-2.4 6.63-2.15 6.8-1.9 7.1-1.65 7.4-1.42 7.83-1.15 8.33-.87 8.9-.55 8.13-.17z" stroke="#3a414a" stroke-width=".05" fill="#3a414a"/><path d="M7338.66 4702.55l-1.5.03-.07-3 1.56-.03z" fill="#3a414a"/><path d="M7338.7 4702.57l-1.57.03-.07-3.05 1.63-.03zm-1.6-2.97l.08 2.95 1.46-.03v-2.95z" stroke="#3a414a" stroke-width=".05" fill="#3a414a"/><path d="M7050.28 4853.8l-13.18-7.17 12.63-8.1z" fill="#3a414a"/><path d="M7051.87 4856.37l-17.72-9.64 17-10.88zm-11.82-9.85l8.63 4.7-.36-10z" stroke="#3a414a" stroke-width=".05" fill="#3a414a"/><use xlink:href="#a" transform="matrix(1,0,0,1,7130.7562928742855,4777.2663107773205) translate(0 14.222222222222223)"/><path d="M7176.34 4836.57l-15.3 13.85-9.78 8.1-8.13 6.2-7.3 5.07-6.84 4.33-6.57 3.8-6.4 3.35-6.38 3-6.38 2.68-6.47 2.4-6.6 2.15-6.82 1.9-7.08 1.67-7.42 1.42-7.82 1.14-8.33.87-8.92.57-8.1.17-.07-3 8.05-.16 8.8-.56 8.2-.86 7.7-1.13 7.3-1.4 6.95-1.62 6.7-1.86 6.5-2.1 6.34-2.37 6.26-2.64 6.25-2.94 6.3-3.3 6.46-3.73 6.73-4.27 7.2-5 8.03-6.1 9.68-8.05 13.75-12.44h4.44zm151.3-82.7l-7.3.47-8.2.86-7.7 1.13-7.3 1.4-6.95 1.63-6.7 1.86-6.5 2.1-6.35 2.37-6.26 2.63-6.26 2.94-6.3 3.3-6.46 3.72-6.73 4.27-7.2 5-8.03 6.1-9.68 8.03-13.6 12.67h-4.4l16.02-14.93 9.8-8.1 8.13-6.2 7.3-5.07 6.83-4.34 6.56-3.8 6.4-3.35 6.36-3 6.4-2.68 6.45-2.4 6.63-2.15 6.8-1.9 7.1-1.66 7.4-1.43 7.83-1.15 8.33-.87 7.36-.47z" stroke="#3a414a" stroke-width=".05" fill="#3a414a"/><path d="M7035.73 4899.24l-1.57.03v-3l1.5-.03z" fill="#3a414a"/><path d="M7035.76 4899.27l-1.63.03v-3.05l1.56-.03zm-1.58-2.97v2.95l1.52-.03-.06-2.95z" stroke="#3a414a" stroke-width=".05" fill="#3a414a"/><path d="M7335.72 4752.2l-12.63 8.1-.56-15.28z" fill="#3a414a"/><path d="M7338.66 4752.1l-16.98 10.87-.73-20.52zm-14.17 5.5l8.27-5.3-8.63-4.7z" stroke="#3a414a" stroke-width=".05" fill="#3a414a"/><use xlink:href="#c" transform="matrix(1,0,0,1,7154.487916176918,4814.372850142168) translate(0 14.222222222222223)"/><path d="M7219.36 5022.87l8.4 8.24 7.25 6.54 6.56 5.42 6.1 4.64 5.84 4.05 5.63 3.58 5.52 3.2 5.47 2.85 5.45 2.56 5.48 2.3 5.55 2.07 5.65 1.85 5.8 1.62 6 1.4 6.24 1.2 6.5.96 6.86.72 4 .25-.2 3-4.05-.26-6.97-.74-6.64-.98-6.37-1.2-6.1-1.44-5.94-1.66-5.8-1.88-5.66-2.1-5.6-2.36-5.56-2.6-5.57-2.93-5.62-3.25-5.74-3.65-5.94-4.12-6.2-4.72-6.65-5.5-7.33-6.6-8.54-8.37-23.2-26.47h3.98zm-52.58-59.96l12.47 14.23h-4l-10.7-12.2-10.4-11.1h4.12zm-124.75-66.46l7.38.46 7 .73 6.63.98 6.35 1.22 6.12 1.44 5.93 1.65 5.78 1.9 5.68 2.1 5.6 2.35 5.56 2.62 5.57 2.9 5.64 3.26 5.74 3.65 5.93 4.13 6.23 4.72 6.64 5.5 6.08 5.5v4.1l-.8-.8-7.24-6.52-6.54-5.42-6.1-4.65-5.84-4.05-5.63-3.58-5.54-3.2-5.46-2.84-5.45-2.57-5.48-2.3-5.55-2.08-5.66-1.84-5.8-1.62-6-1.4-6.23-1.2-6.5-.95-6.87-.7-7.26-.47-6.27-.13.06-3z" stroke="#3a414a" stroke-width=".05" fill="#3a414a"/><path d="M7035.73 4896.3l-.06 3-1.52-.03v-3z" fill="#3a414a"/><path d="M7035.76 4896.28l-.07 3.05-1.57-.03v-3.05zm-1.58 2.97l1.46.03.06-2.95-1.52-.03z" stroke="#3a414a" stroke-width=".05" fill="#3a414a"/><path d="M7335.72 5078.04l-13.2 7.1.6-15.26z" fill="#3a414a"/><path d="M7338.66 5078.16l-17.76 9.55.84-20.5zm-14.55 4.42l8.67-4.66-8.25-5.35z" stroke="#3a414a" stroke-width=".05" fill="#3a414a"/><use xlink:href="#K" transform="matrix(1,0,0,1,7150.656192159382,4977.124602207037) translate(0 14.222222222222223)"/><path d="M7226.07 4987.4l7.4 7.28 6.64 5.97 6.12 5.06 5.78 4.4 5.54 3.85 5.4 3.42 5.28 3.06 5.24 2.74 5.23 2.46 5.25 2.2 5.32 2 5.42 1.75 5.55 1.55 5.72 1.34 5.92 1.13 6.17.92 6.48.68 6.84.43 5.8.12-.07 3-5.86-.13-6.97-.43-6.6-.7-6.3-.94-6.06-1.15-5.84-1.36-5.67-1.58-5.54-1.8-5.45-2.03-5.38-2.26-5.34-2.5-5.36-2.8-5.4-3.13-5.5-3.5-5.64-3.92-5.87-4.46-6.22-5.14-6.7-6.05-7.52-7.36-1.36-1.45v-4.4zm-21.23-23.84l11.66 13.56h-3.96l-10-11.63-9.54-11.68h3.88zm-156.32-117.74l6.6.7 6.3.92 6.06 1.16 5.84 1.37 5.67 1.58 5.53 1.8 5.44 2.02 5.38 2.27 5.34 2.5 5.34 2.8 5.4 3.13 5.5 3.5 5.65 3.9 5.86 4.48 6.2 5.14 6.73 6.04 7.5 7.36 8.94 9.54 21.6 26.45h-3.87l-20-24.48-8.82-9.42-7.42-7.27-6.62-5.97-6.1-5.06-5.78-4.4-5.54-3.84-5.4-3.42-5.28-3.06-5.24-2.74-5.23-2.46-5.26-2.22-5.33-1.97-5.42-1.77-5.55-1.56-5.72-1.34-5.92-1.13-6.18-.9-6.48-.7-3.1-.18.18-3z" stroke="#3a414a" stroke-width=".05" fill="#3a414a"/><path d="M7338.66 5037.78v3l-1.57-.03.05-3z" fill="#3a414a"/><path d="M7338.7 5037.75v3.05l-1.64-.03.07-3.05zm-1.6 2.97l1.54.03v-2.95l-1.46-.03z" stroke="#3a414a" stroke-width=".05" fill="#3a414a"/><path d="M7049.66 4855.06l-12.56-8.2 13.23-7.05z" fill="#3a414a"/><path d="M7051.04 4857.76l-16.9-11.03 17.8-9.5zm-11-10.77l8.24 5.37.44-10z" stroke="#3a414a" stroke-width=".05" fill="#3a414a"/><use xlink:href="#a" transform="matrix(1,0,0,1,7145.85409995812,4932.489266876839) translate(0 14.222222222222223)"/><path d="M6139.72 4768.14a6 6 0 0 1 6-6h228a6 6 0 0 1 6 6v148a6 6 0 0 1-6 6h-228a6 6 0 0 1-6-6z" stroke="#3a414a" stroke-width="3" fill="#fff"/><use xlink:href="#q" transform="matrix(1,0,0,1,6147.7236661026345,4770.143098737395) translate(61.53703703703704 62.77777777777778)"/><use xlink:href="#L" transform="matrix(1,0,0,1,6147.7236661026345,4770.143098737395) translate(82.46296296296296 89.44444444444446)"/><path d="M6139.72 4928.14a6 6 0 0 1 6-6h228a6 6 0 0 1 6 6v46.1a6 6 0 0 1-6 6h-228a6 6 0 0 1-6-6z" stroke="#3a414a" stroke-width="3" fill="#b8f5ed"/><use xlink:href="#s" transform="matrix(1,0,0,1,6142.627810038499,4925.0472426732595) translate(38.73456790123457 31.02777777777778)"/><use xlink:href="#G" transform="matrix(1,0,0,1,6142.627810038499,4925.0472426732595) translate(97.80864197530863 31.02777777777778)"/><path d="M5689.98 4622.46a6 6 0 0 1 6-6h228a6 6 0 0 1 6 6v148a6 6 0 0 1-6 6h-228a6 6 0 0 1-6-6z" stroke="#3a414a" stroke-width="3" fill="#fff"/><use xlink:href="#H" transform="matrix(1,0,0,1,5697.9795763377515,4624.458980806548) translate(29.40740740740742 62.77777777777778)"/><use xlink:href="#M" transform="matrix(1,0,0,1,5697.9795763377515,4624.458980806548) translate(83.08024691358025 89.44444444444446)"/><path d="M5689.98 4782.46a6 6 0 0 1 6-6h228a6 6 0 0 1 6 6v46.08a6 6 0 0 1-6 6h-228a6 6 0 0 1-6-6z" stroke="#3a414a" stroke-width="3" fill="#b8f5ed"/><use xlink:href="#s" transform="matrix(1,0,0,1,5692.883720273616,4779.363124742413) translate(63.3641975308642 31.02777777777778)"/><use xlink:href="#J" transform="matrix(1,0,0,1,5692.883720273616,4779.363124742413) translate(122.43827160493828 31.02777777777778)"/><path d="M6067.83 4807.36l4.4 4.3 4.04 3.66 3.8 3.14 3.63 2.76 3.5 2.44 3.42 2.17 3.37 1.94 3.32 1.74 3.33 1.58 3.34 1.4 3.37 1.26 3.43 1.12 3.5.97 3.6.85 3.72.7 3.86.58 1.8.2-.3 2.97-1.88-.2-3.98-.58-3.84-.74-3.72-.86-3.63-1-3.55-1.16-3.5-1.3-3.45-1.46-3.44-1.62-3.46-1.8-3.47-2-3.53-2.24-3.6-2.5-3.73-2.85-3.9-3.2-4.13-3.74-3.44-3.38v-4.3zm-10.8-12.08l3.05 3.55h-3.96l-1.44-1.67-27.73-37.2h3.74zm-120.95-100.23l4.36.28 4.16.43 3.98.6 3.84.73 3.73.86 3.62 1 3.55 1.16 3.5 1.3 3.45 1.46 3.44 1.62 3.46 1.8 3.47 2 3.53 2.24 3.6 2.5 3.74 2.84 3.9 3.23 4.13 3.74 4.5 4.4 5.02 5.36 5.18 6h-3.96l-3.45-4-4.94-5.26-4.4-4.3-4.05-3.66-3.8-3.15-3.63-2.75-3.5-2.44-3.42-2.17-3.36-1.94-3.34-1.75-3.33-1.56-3.34-1.4-3.37-1.26-3.43-1.12-3.5-.98-3.6-.84-3.72-.7-3.86-.58-4.03-.42-4.24-.27-3-.06.05-3z" stroke="#3a414a" stroke-width=".05" fill="#3a414a"/><path d="M5933.05 4695l-.06 3-1.52-.04v-3z" fill="#3a414a"/><path d="M5933.08 4694.97l-.07 3.05-1.55-.04v-3.05zm-1.57 2.97l1.47.03.06-2.95-1.52-.04z" stroke="#3a414a" stroke-width=".05" fill="#3a414a"/><path d="M6135.28 4840.02l-13.43 6.68 1.1-15.23z" fill="#3a414a"/><path d="M6138.22 4840.24l-18.06 8.97 1.5-20.46zm-14.68 3.95l8.8-4.4-8.07-5.6z" stroke="#3a414a" stroke-width=".05" fill="#3a414a"/><use xlink:href="#a" transform="matrix(1,0,0,1,5980.436060692071,4738.613164235028) translate(0 14.222222222222223)"/><path d="M6048.92 4826.07l8.08 10.23 5.9 6.83 4.93 5.27 4.4 4.3 4.04 3.66 3.8 3.15 3.63 2.76 3.5 2.44 3.42 2.17 3.37 1.94 3.32 1.76 3.33 1.56 3.34 1.4 3.37 1.26 3.43 1.12 3.5.98 3.6.84 3.72.7 3.86.58 4.03.42 4.25.27 3 .05-.06 3-3.08-.06-4.36-.3-4.16-.42-3.98-.6-3.84-.73-3.72-.87-3.63-1-3.55-1.16-3.5-1.3-3.45-1.46-3.44-1.62-3.46-1.8-3.47-2-3.53-2.24-3.6-2.5-3.73-2.84-3.9-3.23-4.13-3.73-4.5-4.4-5.02-5.36-5.96-6.93-8.16-10.3-5.76-7.73h3.74zm-53.53-65.92l4.13 3.73 4.5 4.4 5.02 5.36 5.98 6.94 13.6 18.25h-3.74l-12.2-16.37-5.88-6.8-4.94-5.28-4.4-4.3-4.05-3.66-3-2.47h4.72zm-50.8-23.34l3.98.6 3.84.73 3.73.87 3.62 1 3.55 1.16 3.5 1.3 3.45 1.46 3.44 1.62 3.46 1.8 3.28 1.9v3.53l-1.36-.86-3.36-1.93-3.34-1.74-3.33-1.57-3.34-1.4-3.37-1.26-3.43-1.12-3.5-.98-3.6-.84-3.72-.7-3.86-.58-1.8-.2.3-2.97z" stroke="#3a414a" stroke-width=".05" fill="#3a414a"/><path d="M6138.22 4879.78v3l-1.57-.03.06-3z" fill="#3a414a"/><path d="M6138.25 4879.76v3.05l-1.62-.03.06-3.05zm-1.57 2.96l1.52.03v-2.94l-1.46-.03z" stroke="#3a414a" stroke-width=".05" fill="#3a414a"/><path d="M5946.74 4746.27l-12.32-8.56 13.43-6.66z" fill="#3a414a"/><path d="M5948.04 4749l-16.56-11.5 18.06-8.97zm-10.68-11.07l8.08 5.6.72-9.98z" stroke="#3a414a" stroke-width=".05" fill="#3a414a"/><g><use xlink:href="#c" transform="matrix(1,0,0,1,6002.680156660374,4798.834462903873) translate(0 14.222222222222223)"/></g><path d="M6014.9 5025.93l-6.54 10.8-5.3 8-4.6 6.33-4.1 5.2-3.8 4.4-3.53 3.77-3.33 3.26-3.18 2.86-3.06 2.53-2.96 2.24-2.88 2-2.82 1.8-2.78 1.6-2.75 1.43-2.73 1.3-2.73 1.14-2.72 1.02-2.75.9-2.8.77-2.8.66-2.9.55-1.06.16-.44-2.96 1-.15 2.76-.53 2.7-.63 2.66-.75 2.63-.86 2.6-.98 2.62-1.1 2.62-1.23 2.64-1.4 2.66-1.54 2.72-1.72 2.78-1.93 2.86-2.16 2.96-2.45 3.08-2.8 3.25-3.17 3.43-3.68 3.7-4.3 4.05-5.1 4.52-6.23 5.23-7.88 6.45-10.68 24.7-47.65h3.38zm36.7-70.45h-3.4l3.83-7.02h3.42zm85.15-72.67l-1.65.05-3 .18-2.9.3-2.83.43-2.76.52-2.7.64-2.65.74-2.64.86-2.6.97-2.62 1.1-2.6 1.22-2.65 1.38-2.67 1.54-2.72 1.73-2.77 1.93-2.86 2.17-2.95 2.45-3.1 2.78-3.23 3.18-3.45 3.67-3.7 4.3-4.05 5.1-4.52 6.23-.56.85h-3.6l1.7-2.56 4.6-6.33 4.1-5.2 3.8-4.4 3.53-3.76 3.34-3.27 3.2-2.85 3.04-2.53 2.96-2.25 2.88-2 2.82-1.8 2.78-1.6 2.75-1.44 2.73-1.28 2.73-1.15 2.73-1.02 2.75-.9 2.78-.77 2.83-.65 2.87-.55 2.94-.44 3.05-.3 3.13-.2 1.7-.05z" stroke="#3a414a" stroke-width=".05" fill="#3a414a"/><path d="M6138.22 4882.78l-1.5.03-.07-3 1.57-.02z" fill="#3a414a"/><path d="M6138.25 4882.8l-1.56.04-.07-3.05 1.62-.05zm-1.57-2.96l.06 2.95 1.46-.04v-2.95z" stroke="#3a414a" stroke-width=".05" fill="#3a414a"/><path d="M5948.03 5094l-13.62-6.28 12.08-8.9z" fill="#3a414a"/><path d="M5949.8 5096.46l-18.32-8.44 16.22-11.98zm-12.46-9.04l8.93 4.12-1.02-9.96z" stroke="#3a414a" stroke-width=".05" fill="#3a414a"/><g><use xlink:href="#K" transform="matrix(1,0,0,1,6008.245545841195,4955.476683802918) translate(0 14.222222222222223)"/></g><path d="M6013.67 4977.82l-6.08 9.18-5.07 6.98-4.45 5.62-4.04 4.68-3.74 3.98-3.5 3.45-3.36 3.02-3.2 2.66-3.1 2.35-3.03 2.1-2.95 1.9-2.92 1.67-2.9 1.52-2.87 1.35-2.88 1.2-2.9 1.08-2.9.95-2.95.82-3 .7-3.08.6-3.15.46-3.25.34-3.37.2-1.97.06-.05-3 1.9-.04 3.25-.2 3.12-.34 3.03-.44 2.95-.56 2.88-.68 2.83-.8 2.8-.9 2.78-1.03 2.76-1.17 2.76-1.3 2.78-1.46 2.8-1.62 2.87-1.8 2.92-2.04 3-2.27 3.1-2.58 3.26-2.93 3.43-3.35 3.65-3.9 3.97-4.6 4.37-5.5 4.98-6.88 5.62-8.5h3.54zm13.14-22.34h-3.43l3.95-7.02h3.45zm100.57-111.07l-1.92.3-2.94.56-2.88.67-2.83.8-2.8.9-2.77 1.03-2.77 1.16-2.76 1.3-2.78 1.46-2.8 1.62-2.86 1.8-2.93 2.04-3 2.28-3.1 2.58-3.26 2.93-3.43 3.35-3.65 3.9-3.96 4.6-4.37 5.5-5 6.88-6 9.05-15.78 28.03h-3.45l16.67-29.6 6.1-9.18 5.05-6.98 4.45-5.62 4.04-4.68 3.74-3.98 3.52-3.46 3.34-3 3.2-2.67 3.1-2.36 3.03-2.1 2.96-1.87 2.9-1.68 2.9-1.5 2.88-1.37 2.88-1.2 2.9-1.08 2.9-.95 2.96-.83 3-.7 3.07-.6 1.98-.28z" stroke="#3a414a" stroke-width=".05" fill="#3a414a"/><path d="M5933.05 5034.67l-1.57.04v-3l1.5-.02z" fill="#3a414a"/><path d="M5933.08 5034.7l-1.63.03v-3.05l1.56-.03zm-1.58-2.97v2.95l1.53-.03-.06-2.95z" stroke="#3a414a" stroke-width=".05" fill="#3a414a"/><path d="M6135.3 4842.42l-12.13 8.84-1.46-15.2z" fill="#3a414a"/><path d="M6138.22 4842.14l-16.3 11.88-1.95-20.44zm-13.8 6.36l7.94-5.8-8.9-4.17z" stroke="#3a414a" stroke-width=".05" fill="#3a414a"/><g><use xlink:href="#a" transform="matrix(1,0,0,1,5994.687713903499,4927.126752919133) translate(0 14.222222222222223)"/></g><path d="M6792.65 4537.12a6 6 0 0 1 6-6h228a6 6 0 0 1 6 6v148a6 6 0 0 1-6 6h-228a6 6 0 0 1-6-6z" stroke="#3a414a" stroke-width="3" fill="#fff"/><g><use xlink:href="#d" transform="matrix(1,0,0,1,6800.655325911618,4539.122139170019) translate(70.7962962962963 62.77777777777778)"/><use xlink:href="#C" transform="matrix(1,0,0,1,6800.655325911618,4539.122139170019) translate(48.512345679012334 89.44444444444446)"/></g><path d="M6702.86 5084.83h-3V4771h3zm0-335.17h-3v-304.23h3z" stroke="#3a414a" stroke-width=".05" fill="#3a414a"/><path d="M6702.86 5086.34h-3v-1.55h3z" fill="#3a414a"/><path d="M6702.9 5086.36h-3.06v-1.6h3.05zm-3-1.54v1.5h2.94v-1.5z" stroke="#3a414a" stroke-width=".05" fill="#3a414a"/><path d="M6709 4450.17h-15.27l7.63-12.9z" fill="#3a414a"/><path d="M6711.63 4451.67h-20.53l10.26-17.35zm-15.28-3h10.02l-5-8.46z" stroke="#3a414a" stroke-width=".05" fill="#3a414a"/><g><use xlink:href="#B" transform="matrix(1,0,0,1,6672.792504217197,4749.656217426774) translate(0 14.222222222222223)"/></g><path d="M6914.15 4763.73h-3v-24.14h3zm0-45.47h-3v-14.53h3z" stroke="#3a414a" stroke-width=".05" fill="#3a414a"/><path d="M6914.15 4765.23h-3v-1.54h3z" fill="#3a414a"/><path d="M6914.18 4765.26h-3.05v-1.6h3.05zm-3-1.54v1.5h2.95v-1.5z" stroke="#3a414a" stroke-width=".05" fill="#3a414a"/><path d="M6920.3 4708.48H6905l7.63-12.9z" fill="#3a414a"/><path d="M6922.92 4709.98h-20.53l10.26-17.36zm-15.27-3h10l-5-8.46z" stroke="#3a414a" stroke-width=".05" fill="#3a414a"/><g><use xlink:href="#f" transform="matrix(1,0,0,1,6879.692362948656,4718.259426691554) translate(0 14.222222222222223)"/></g><defs><path fill="#333" d="M24-248c120-7 223 5 221 122C244-46 201 0 124 0H24v-248zM76-40c74 7 117-18 117-86 0-67-45-88-117-82v168" id="N"/><path fill="#333" d="M185-48c-13 30-37 53-82 52C43 2 14-33 14-96s30-98 90-98c62 0 83 45 84 108H66c0 31 8 55 39 56 18 0 30-7 34-22zm-45-69c5-46-57-63-70-21-2 6-4 13-4 21h74" id="O"/><path fill="#333" d="M135-194c53 0 70 44 70 98 0 56-19 98-73 100-31 1-45-17-59-34 3 33 2 69 2 105H25l-1-265h48c2 10 0 23 3 31 11-24 29-35 60-35zM114-30c33 0 39-31 40-66 0-38-9-64-40-64-56 0-55 130 0 130" id="P"/><path fill="#333" d="M25-224v-37h50v37H25zM25 0v-190h50V0H25" id="Q"/><path fill="#333" d="M190-63c-7 42-38 67-86 67-59 0-84-38-90-98-12-110 154-137 174-36l-49 2c-2-19-15-32-35-32-30 0-35 28-38 64-6 74 65 87 74 30" id="R"/><path fill="#333" d="M115-3C79 11 28 4 28-45v-112H4v-33h27l15-45h31v45h36v33H77v99c-1 23 16 31 38 25v30" id="S"/><path fill="#333" d="M110-194c64 0 96 36 96 99 0 64-35 99-97 99-61 0-95-36-95-99 0-62 34-99 96-99zm-1 164c35 0 45-28 45-65 0-40-10-65-43-65-34 0-45 26-45 65 0 36 10 65 43 65" id="T"/><path fill="#333" d="M135-194c87-1 58 113 63 194h-50c-7-57 23-157-34-157-59 0-34 97-39 157H25l-1-190h47c2 12-1 28 3 38 12-26 28-41 61-42" id="U"/><g id="a"><use transform="matrix(0.04938271604938272,0,0,0.04938271604938272,0,0)" xlink:href="#N"/><use transform="matrix(0.04938271604938272,0,0,0.04938271604938272,12.790123456790125,0)" xlink:href="#O"/><use transform="matrix(0.04938271604938272,0,0,0.04938271604938272,22.66666666666667,0)" xlink:href="#P"/><use transform="matrix(0.04938271604938272,0,0,0.04938271604938272,33.48148148148149,0)" xlink:href="#Q"/><use transform="matrix(0.04938271604938272,0,0,0.04938271604938272,38.41975308641976,0)" xlink:href="#R"/><use transform="matrix(0.04938271604938272,0,0,0.04938271604938272,48.296296296296305,0)" xlink:href="#S"/><use transform="matrix(0.04938271604938272,0,0,0.04938271604938272,54.17283950617284,0)" xlink:href="#Q"/><use transform="matrix(0.04938271604938272,0,0,0.04938271604938272,59.111111111111114,0)" xlink:href="#T"/><use transform="matrix(0.04938271604938272,0,0,0.04938271604938272,69.92592592592594,0)" xlink:href="#U"/></g><path fill="#333" d="M135-150c-39-12-60 13-60 57V0H25l-1-190h47c2 13-1 29 3 40 6-28 27-53 61-41v41" id="V"/><g id="b"><use transform="matrix(0.04938271604938272,0,0,0.04938271604938272,0,0)" xlink:href="#N"/><use transform="matrix(0.04938271604938272,0,0,0.04938271604938272,12.790123456790125,0)" xlink:href="#Q"/><use transform="matrix(0.04938271604938272,0,0,0.04938271604938272,17.7283950617284,0)" xlink:href="#P"/><use transform="matrix(0.04938271604938272,0,0,0.04938271604938272,28.54320987654322,0)" xlink:href="#Q"/><use transform="matrix(0.04938271604938272,0,0,0.04938271604938272,33.48148148148149,0)" xlink:href="#R"/><use transform="matrix(0.04938271604938272,0,0,0.04938271604938272,43.35802469135803,0)" xlink:href="#S"/><use transform="matrix(0.04938271604938272,0,0,0.04938271604938272,49.23456790123458,0)" xlink:href="#T"/><use transform="matrix(0.04938271604938272,0,0,0.04938271604938272,60.0493827160494,0)" xlink:href="#V"/></g><path fill="#333" d="M137-138c1-29-70-34-71-4 15 46 118 7 119 86 1 83-164 76-172 9l43-7c4 19 20 25 44 25 33 8 57-30 24-41C81-84 22-81 20-136c-2-80 154-74 161-7" id="W"/><g id="c"><use transform="matrix(0.04938271604938272,0,0,0.04938271604938272,0,0)" xlink:href="#N"/><use transform="matrix(0.04938271604938272,0,0,0.04938271604938272,12.790123456790125,0)" xlink:href="#O"/><use transform="matrix(0.04938271604938272,0,0,0.04938271604938272,22.66666666666667,0)" xlink:href="#P"/><use transform="matrix(0.04938271604938272,0,0,0.04938271604938272,33.48148148148149,0)" xlink:href="#Q"/><use transform="matrix(0.04938271604938272,0,0,0.04938271604938272,38.41975308641976,0)" xlink:href="#R"/><use transform="matrix(0.04938271604938272,0,0,0.04938271604938272,48.296296296296305,0)" xlink:href="#S"/><use transform="matrix(0.04938271604938272,0,0,0.04938271604938272,54.17283950617284,0)" xlink:href="#W"/></g><path fill="#3a414a" d="M67-125c0 53 21 87 73 88 37 1 54-22 65-47l45 17C233-25 199 4 140 4 58 4 20-42 15-125 8-235 124-281 211-232c18 10 29 29 36 50l-46 12c-8-25-30-41-62-41-52 0-71 34-72 86" id="X"/><path fill="#3a414a" d="M110-194c64 0 96 36 96 99 0 64-35 99-97 99-61 0-95-36-95-99 0-62 34-99 96-99zm-1 164c35 0 45-28 45-65 0-40-10-65-43-65-34 0-45 26-45 65 0 36 10 65 43 65" id="Y"/><path fill="#3a414a" d="M135-194c87-1 58 113 63 194h-50c-7-57 23-157-34-157-59 0-34 97-39 157H25l-1-190h47c2 12-1 28 3 38 12-26 28-41 61-42" id="Z"/><path fill="#3a414a" d="M115-3C79 11 28 4 28-45v-112H4v-33h27l15-45h31v45h36v33H77v99c-1 23 16 31 38 25v30" id="aa"/><path fill="#3a414a" d="M185-48c-13 30-37 53-82 52C43 2 14-33 14-96s30-98 90-98c62 0 83 45 84 108H66c0 31 8 55 39 56 18 0 30-7 34-22zm-45-69c5-46-57-63-70-21-2 6-4 13-4 21h74" id="ab"/><path fill="#3a414a" d="M144 0l-44-69L55 0H2l70-98-66-92h53l41 62 40-62h54l-67 91 71 99h-54" id="ac"/><g id="d"><use transform="matrix(0.06172839506172839,0,0,0.06172839506172839,0,0)" xlink:href="#X"/><use transform="matrix(0.06172839506172839,0,0,0.06172839506172839,15.987654320987653,0)" xlink:href="#Y"/><use transform="matrix(0.06172839506172839,0,0,0.06172839506172839,29.50617283950617,0)" xlink:href="#Z"/><use transform="matrix(0.06172839506172839,0,0,0.06172839506172839,43.02469135802469,0)" xlink:href="#aa"/><use transform="matrix(0.06172839506172839,0,0,0.06172839506172839,50.37037037037037,0)" xlink:href="#ab"/><use transform="matrix(0.06172839506172839,0,0,0.06172839506172839,62.716049382716044,0)" xlink:href="#ac"/><use transform="matrix(0.06172839506172839,0,0,0.06172839506172839,75.06172839506172,0)" xlink:href="#aa"/></g><path fill="#3a414a" d="M88-194c31-1 46 15 58 34l-1-101h50l1 261h-48c-2-10 0-23-3-31C134-8 116 4 84 4 32 4 16-41 15-95c0-56 19-97 73-99zm17 164c33 0 40-30 41-66 1-37-9-64-41-64s-38 30-39 65c0 43 13 65 39 65" id="ad"/><path fill="#3a414a" d="M135-194c53 0 70 44 70 98 0 56-19 98-73 100-31 1-45-17-59-34 3 33 2 69 2 105H25l-1-265h48c2 10 0 23 3 31 11-24 29-35 60-35zM114-30c33 0 39-31 40-66 0-38-9-64-40-64-56 0-55 130 0 130" id="ae"/><path fill="#3a414a" d="M14-72v-43h91v43H14" id="af"/><path fill="#3a414a" d="M23 0v-37h61v-169l-59 37v-38l62-41h46v211h57V0H23" id="ag"/><path fill="#3a414a" d="M182-182c0 78-84 86-111 141h115V0H12c-6-101 99-100 120-180 1-22-12-31-33-32-23 0-32 14-35 34l-49-3c5-45 32-70 84-70 51 0 83 22 83 69" id="ah"/><path fill="#3a414a" d="M4 7l51-268h42L46 7H4" id="ai"/><path fill="#3a414a" d="M137-138c1-29-70-34-71-4 15 46 118 7 119 86 1 83-164 76-172 9l43-7c4 19 20 25 44 25 33 8 57-30 24-41C81-84 22-81 20-136c-2-80 154-74 161-7" id="aj"/><path fill="#3a414a" d="M190-63c-7 42-38 67-86 67-59 0-84-38-90-98-12-110 154-137 174-36l-49 2c-2-19-15-32-35-32-30 0-35 28-38 64-6 74 65 87 74 30" id="ak"/><path fill="#3a414a" d="M101-251c68 0 84 54 84 127C185-50 166 4 99 4S15-52 14-124c-1-75 17-127 87-127zm-1 216c37-5 36-46 36-89s4-89-36-89c-39 0-36 45-36 89 0 43-3 85 36 89" id="al"/><g id="e"><use transform="matrix(0.06172839506172839,0,0,0.06172839506172839,0,0)" xlink:href="#ad"/><use transform="matrix(0.06172839506172839,0,0,0.06172839506172839,13.518518518518517,0)" xlink:href="#ae"/><use transform="matrix(0.06172839506172839,0,0,0.06172839506172839,27.037037037037035,0)" xlink:href="#af"/><use transform="matrix(0.06172839506172839,0,0,0.06172839506172839,34.382716049382715,0)" xlink:href="#ag"/><use transform="matrix(0.06172839506172839,0,0,0.06172839506172839,46.72839506172839,0)" xlink:href="#ah"/><use transform="matrix(0.06172839506172839,0,0,0.06172839506172839,59.07407407407407,0)" xlink:href="#ai"/><use transform="matrix(0.06172839506172839,0,0,0.06172839506172839,65.24691358024691,0)" xlink:href="#aj"/><use transform="matrix(0.06172839506172839,0,0,0.06172839506172839,77.5925925925926,0)" xlink:href="#ak"/><use transform="matrix(0.06172839506172839,0,0,0.06172839506172839,89.93827160493828,0)" xlink:href="#af"/><use transform="matrix(0.06172839506172839,0,0,0.06172839506172839,97.28395061728396,0)" xlink:href="#ag"/><use transform="matrix(0.06172839506172839,0,0,0.06172839506172839,109.62962962962965,0)" xlink:href="#al"/></g><path fill="#333" d="M67-125c0 53 21 87 73 88 37 1 54-22 65-47l45 17C233-25 199 4 140 4 58 4 20-42 15-125 8-235 124-281 211-232c18 10 29 29 36 50l-46 12c-8-25-30-41-62-41-52 0-71 34-72 86" id="am"/><path fill="#333" d="M144 0l-44-69L55 0H2l70-98-66-92h53l41 62 40-62h54l-67 91 71 99h-54" id="an"/><g id="f"><use transform="matrix(0.04938271604938272,0,0,0.04938271604938272,0,0)" xlink:href="#am"/><use transform="matrix(0.04938271604938272,0,0,0.04938271604938272,12.790123456790125,0)" xlink:href="#T"/><use transform="matrix(0.04938271604938272,0,0,0.04938271604938272,23.60493827160494,0)" xlink:href="#U"/><use transform="matrix(0.04938271604938272,0,0,0.04938271604938272,34.41975308641975,0)" xlink:href="#S"/><use transform="matrix(0.04938271604938272,0,0,0.04938271604938272,40.2962962962963,0)" xlink:href="#O"/><use transform="matrix(0.04938271604938272,0,0,0.04938271604938272,50.17283950617284,0)" xlink:href="#an"/><use transform="matrix(0.04938271604938272,0,0,0.04938271604938272,60.04938271604939,0)" xlink:href="#S"/></g><path fill="#333" d="M85 4C-2 5 27-109 22-190h50c7 57-23 150 33 157 60-5 35-97 40-157h50l1 190h-47c-2-12 1-28-3-38-12 25-28 42-61 42" id="ao"/><g id="g"><use transform="matrix(0.04938271604938272,0,0,0.04938271604938272,0,0)" xlink:href="#ao"/><use transform="matrix(0.04938271604938272,0,0,0.04938271604938272,10.814814814814815,0)" xlink:href="#W"/><use transform="matrix(0.04938271604938272,0,0,0.04938271604938272,20.69135802469136,0)" xlink:href="#O"/><use transform="matrix(0.04938271604938272,0,0,0.04938271604938272,30.567901234567906,0)" xlink:href="#W"/></g><path fill="#3a414a" d="M133-34C117-15 103 5 69 4 32 3 11-16 11-54c-1-60 55-63 116-61 1-26-3-47-28-47-18 1-26 9-28 27l-52-2c7-38 36-58 82-57s74 22 75 68l1 82c-1 14 12 18 25 15v27c-30 8-71 5-69-32zm-48 3c29 0 43-24 42-57-32 0-66-3-65 30 0 17 8 27 23 27" id="ap"/><g id="h"><use transform="matrix(0.06172839506172839,0,0,0.06172839506172839,0,0)" xlink:href="#ad"/><use transform="matrix(0.06172839506172839,0,0,0.06172839506172839,13.518518518518517,0)" xlink:href="#ae"/><use transform="matrix(0.06172839506172839,0,0,0.06172839506172839,27.037037037037035,0)" xlink:href="#af"/><use transform="matrix(0.06172839506172839,0,0,0.06172839506172839,34.382716049382715,0)" xlink:href="#ag"/><use transform="matrix(0.06172839506172839,0,0,0.06172839506172839,46.72839506172839,0)" xlink:href="#ah"/><use transform="matrix(0.06172839506172839,0,0,0.06172839506172839,59.07407407407407,0)" xlink:href="#ai"/><use transform="matrix(0.06172839506172839,0,0,0.06172839506172839,65.24691358024691,0)" xlink:href="#ap"/><use transform="matrix(0.06172839506172839,0,0,0.06172839506172839,77.5925925925926,0)" xlink:href="#aj"/><use transform="matrix(0.06172839506172839,0,0,0.06172839506172839,89.93827160493828,0)" xlink:href="#aa"/><use transform="matrix(0.06172839506172839,0,0,0.06172839506172839,97.28395061728396,0)" xlink:href="#af"/><use transform="matrix(0.06172839506172839,0,0,0.06172839506172839,104.62962962962965,0)" xlink:href="#ag"/><use transform="matrix(0.06172839506172839,0,0,0.06172839506172839,115.74074074074076,0)" xlink:href="#ag"/></g><path fill="#3a414a" d="M199 0l-22-63H83L61 0H9l90-248h61L250 0h-51zm-33-102l-36-108c-10 38-24 72-36 108h72" id="aq"/><g id="i"><use transform="matrix(0.06172839506172839,0,0,0.06172839506172839,0,0)" xlink:href="#aq"/><use transform="matrix(0.06172839506172839,0,0,0.06172839506172839,15.987654320987653,0)" xlink:href="#aj"/><use transform="matrix(0.06172839506172839,0,0,0.06172839506172839,28.333333333333332,0)" xlink:href="#aj"/><use transform="matrix(0.06172839506172839,0,0,0.06172839506172839,40.67901234567901,0)" xlink:href="#ab"/><use transform="matrix(0.06172839506172839,0,0,0.06172839506172839,53.02469135802469,0)" xlink:href="#aa"/></g><g id="j"><use transform="matrix(0.06172839506172839,0,0,0.06172839506172839,0,0)" xlink:href="#ap"/><use transform="matrix(0.06172839506172839,0,0,0.06172839506172839,12.345679012345679,0)" xlink:href="#aj"/><use transform="matrix(0.06172839506172839,0,0,0.06172839506172839,24.691358024691358,0)" xlink:href="#aa"/><use transform="matrix(0.06172839506172839,0,0,0.06172839506172839,32.03703703703704,0)" xlink:href="#af"/><use transform="matrix(0.06172839506172839,0,0,0.06172839506172839,39.382716049382715,0)" xlink:href="#ag"/><use transform="matrix(0.06172839506172839,0,0,0.06172839506172839,51.72839506172839,0)" xlink:href="#al"/></g><path fill="#3a414a" d="M135-150c-39-12-60 13-60 57V0H25l-1-190h47c2 13-1 29 3 40 6-28 27-53 61-41v41" id="ar"/><path fill="#3a414a" d="M85 4C-2 5 27-109 22-190h50c7 57-23 150 33 157 60-5 35-97 40-157h50l1 190h-47c-2-12 1-28-3-38-12 25-28 42-61 42" id="as"/><path fill="#3a414a" d="M136-208V0H84v-208H4v-40h212v40h-80" id="at"/><path fill="#3a414a" d="M123 10C108 53 80 86 19 72V37c35 8 53-11 59-39L3-190h52l48 148c12-52 28-100 44-148h51" id="au"/><path fill="#3a414a" d="M35-132v-50h50v50H35zM35 0v-49h50V0H35" id="av"/><g id="k"><use transform="matrix(0.06172839506172839,0,0,0.06172839506172839,0,0)" xlink:href="#aj"/><use transform="matrix(0.06172839506172839,0,0,0.06172839506172839,12.345679012345679,0)" xlink:href="#aa"/><use transform="matrix(0.06172839506172839,0,0,0.06172839506172839,19.691358024691358,0)" xlink:href="#ar"/><use transform="matrix(0.06172839506172839,0,0,0.06172839506172839,28.333333333333332,0)" xlink:href="#as"/><use transform="matrix(0.06172839506172839,0,0,0.06172839506172839,41.85185185185185,0)" xlink:href="#ak"/><use transform="matrix(0.06172839506172839,0,0,0.06172839506172839,54.197530864197525,0)" xlink:href="#at"/><use transform="matrix(0.06172839506172839,0,0,0.06172839506172839,66.04938271604938,0)" xlink:href="#au"/><use transform="matrix(0.06172839506172839,0,0,0.06172839506172839,78.39506172839506,0)" xlink:href="#ae"/><use transform="matrix(0.06172839506172839,0,0,0.06172839506172839,91.91358024691358,0)" xlink:href="#ab"/><use transform="matrix(0.06172839506172839,0,0,0.06172839506172839,104.25925925925927,0)" xlink:href="#av"/></g><path fill="#3a414a" d="M25-224v-37h50v37H25zM25 0v-190h50V0H25" id="aw"/><path fill="#3a414a" d="M195-6C206 82 75 100 31 46c-4-6-6-13-8-21l49-6c3 16 16 24 34 25 40 0 42-37 40-79-11 22-30 35-61 35-53 0-70-43-70-97 0-56 18-96 73-97 30 0 46 14 59 34l2-30h47zm-90-29c32 0 41-27 41-63 0-35-9-62-40-62-32 0-39 29-40 63 0 36 9 62 39 62" id="ax"/><path fill="#3a414a" d="M25 0v-261h50V0H25" id="ay"/><path fill="#3a414a" d="M24 0v-54h51V0H24" id="az"/><g id="l"><use transform="matrix(0.06172839506172839,0,0,0.06172839506172839,0,0)" xlink:href="#ad"/><use transform="matrix(0.06172839506172839,0,0,0.06172839506172839,13.518518518518517,0)" xlink:href="#aw"/><use transform="matrix(0.06172839506172839,0,0,0.06172839506172839,19.691358024691358,0)" xlink:href="#ax"/><use transform="matrix(0.06172839506172839,0,0,0.06172839506172839,33.20987654320987,0)" xlink:href="#aw"/><use transform="matrix(0.06172839506172839,0,0,0.06172839506172839,39.382716049382715,0)" xlink:href="#aa"/><use transform="matrix(0.06172839506172839,0,0,0.06172839506172839,46.72839506172839,0)" xlink:href="#ap"/><use transform="matrix(0.06172839506172839,0,0,0.06172839506172839,59.07407407407407,0)" xlink:href="#ay"/><use transform="matrix(0.06172839506172839,0,0,0.06172839506172839,65.24691358024691,0)" xlink:href="#az"/><use transform="matrix(0.06172839506172839,0,0,0.06172839506172839,71.41975308641975,0)" xlink:href="#ak"/><use transform="matrix(0.06172839506172839,0,0,0.06172839506172839,83.76543209876543,0)" xlink:href="#ax"/><use transform="matrix(0.06172839506172839,0,0,0.06172839506172839,97.28395061728395,0)" xlink:href="#aw"/></g><path fill="#3a414a" d="M121-226c-27-7-43 5-38 36h38v33H83V0H34v-157H6v-33h28c-9-59 32-81 87-68v32" id="aA"/><g id="m"><use transform="matrix(0.06172839506172839,0,0,0.06172839506172839,0,0)" xlink:href="#aA"/><use transform="matrix(0.06172839506172839,0,0,0.06172839506172839,7.345679012345679,0)" xlink:href="#as"/><use transform="matrix(0.06172839506172839,0,0,0.06172839506172839,20.864197530864196,0)" xlink:href="#Z"/><use transform="matrix(0.06172839506172839,0,0,0.06172839506172839,34.382716049382715,0)" xlink:href="#ak"/><use transform="matrix(0.06172839506172839,0,0,0.06172839506172839,46.72839506172839,0)" xlink:href="#at"/><use transform="matrix(0.06172839506172839,0,0,0.06172839506172839,58.58024691358025,0)" xlink:href="#au"/><use transform="matrix(0.06172839506172839,0,0,0.06172839506172839,70.92592592592592,0)" xlink:href="#ae"/><use transform="matrix(0.06172839506172839,0,0,0.06172839506172839,84.44444444444444,0)" xlink:href="#ab"/><use transform="matrix(0.06172839506172839,0,0,0.06172839506172839,96.79012345679013,0)" xlink:href="#av"/></g><g id="n"><use transform="matrix(0.06172839506172839,0,0,0.06172839506172839,0,0)" xlink:href="#ae"/><use transform="matrix(0.06172839506172839,0,0,0.06172839506172839,13.518518518518517,0)" xlink:href="#ar"/><use transform="matrix(0.06172839506172839,0,0,0.06172839506172839,22.160493827160494,0)" xlink:href="#Y"/><use transform="matrix(0.06172839506172839,0,0,0.06172839506172839,35.67901234567901,0)" xlink:href="#ae"/></g><g id="o"><use transform="matrix(0.06172839506172839,0,0,0.06172839506172839,0,0)" xlink:href="#ap"/><use transform="matrix(0.06172839506172839,0,0,0.06172839506172839,12.345679012345679,0)" xlink:href="#aj"/><use transform="matrix(0.06172839506172839,0,0,0.06172839506172839,24.691358024691358,0)" xlink:href="#aa"/><use transform="matrix(0.06172839506172839,0,0,0.06172839506172839,32.03703703703704,0)" xlink:href="#af"/><use transform="matrix(0.06172839506172839,0,0,0.06172839506172839,39.382716049382715,0)" xlink:href="#ag"/><use transform="matrix(0.06172839506172839,0,0,0.06172839506172839,50.49382716049382,0)" xlink:href="#ag"/></g><g id="p"><use transform="matrix(0.06172839506172839,0,0,0.06172839506172839,0,0)" xlink:href="#aj"/><use transform="matrix(0.06172839506172839,0,0,0.06172839506172839,12.345679012345679,0)" xlink:href="#aa"/><use transform="matrix(0.06172839506172839,0,0,0.06172839506172839,19.691358024691358,0)" xlink:href="#ar"/><use transform="matrix(0.06172839506172839,0,0,0.06172839506172839,28.333333333333332,0)" xlink:href="#as"/><use transform="matrix(0.06172839506172839,0,0,0.06172839506172839,41.85185185185185,0)" xlink:href="#ak"/><use transform="matrix(0.06172839506172839,0,0,0.06172839506172839,54.197530864197525,0)" xlink:href="#aa"/><use transform="matrix(0.06172839506172839,0,0,0.06172839506172839,61.5432098765432,0)" xlink:href="#at"/><use transform="matrix(0.06172839506172839,0,0,0.06172839506172839,75.06172839506172,0)" xlink:href="#ae"/><use transform="matrix(0.06172839506172839,0,0,0.06172839506172839,88.58024691358024,0)" xlink:href="#ab"/><use transform="matrix(0.06172839506172839,0,0,0.06172839506172839,100.92592592592592,0)" xlink:href="#av"/></g><path fill="#3a414a" d="M24-248c120-7 223 5 221 122C244-46 201 0 124 0H24v-248zM76-40c74 7 117-18 117-86 0-67-45-88-117-82v168" id="aB"/><g id="q"><use transform="matrix(0.06172839506172839,0,0,0.06172839506172839,0,0)" xlink:href="#aB"/><use transform="matrix(0.06172839506172839,0,0,0.06172839506172839,15.987654320987653,0)" xlink:href="#ab"/><use transform="matrix(0.06172839506172839,0,0,0.06172839506172839,28.333333333333332,0)" xlink:href="#ae"/><use transform="matrix(0.06172839506172839,0,0,0.06172839506172839,41.85185185185185,0)" xlink:href="#aw"/><use transform="matrix(0.06172839506172839,0,0,0.06172839506172839,48.02469135802469,0)" xlink:href="#ak"/><use transform="matrix(0.06172839506172839,0,0,0.06172839506172839,60.37037037037037,0)" xlink:href="#aa"/><use transform="matrix(0.06172839506172839,0,0,0.06172839506172839,67.71604938271605,0)" xlink:href="#aw"/><use transform="matrix(0.06172839506172839,0,0,0.06172839506172839,73.88888888888889,0)" xlink:href="#Y"/><use transform="matrix(0.06172839506172839,0,0,0.06172839506172839,87.4074074074074,0)" xlink:href="#Z"/></g><g id="r"><use transform="matrix(0.06172839506172839,0,0,0.06172839506172839,0,0)" xlink:href="#ad"/><use transform="matrix(0.06172839506172839,0,0,0.06172839506172839,13.518518518518517,0)" xlink:href="#ae"/><use transform="matrix(0.06172839506172839,0,0,0.06172839506172839,27.037037037037035,0)" xlink:href="#af"/><use transform="matrix(0.06172839506172839,0,0,0.06172839506172839,34.382716049382715,0)" xlink:href="#ag"/><use transform="matrix(0.06172839506172839,0,0,0.06172839506172839,46.72839506172839,0)" xlink:href="#ah"/></g><g id="s"><use transform="matrix(0.06172839506172839,0,0,0.06172839506172839,0,0)" xlink:href="#aa"/><use transform="matrix(0.06172839506172839,0,0,0.06172839506172839,7.345679012345679,0)" xlink:href="#au"/><use transform="matrix(0.06172839506172839,0,0,0.06172839506172839,19.691358024691358,0)" xlink:href="#ae"/><use transform="matrix(0.06172839506172839,0,0,0.06172839506172839,33.20987654320987,0)" xlink:href="#ab"/><use transform="matrix(0.06172839506172839,0,0,0.06172839506172839,45.55555555555555,0)" xlink:href="#av"/></g><g id="t"><use transform="matrix(0.06172839506172839,0,0,0.06172839506172839,0,0)" xlink:href="#ae"/><use transform="matrix(0.06172839506172839,0,0,0.06172839506172839,13.518518518518517,0)" xlink:href="#Y"/><use transform="matrix(0.06172839506172839,0,0,0.06172839506172839,27.037037037037035,0)" xlink:href="#ar"/><use transform="matrix(0.06172839506172839,0,0,0.06172839506172839,35.67901234567901,0)" xlink:href="#aa"/><use transform="matrix(0.06172839506172839,0,0,0.06172839506172839,43.02469135802469,0)" xlink:href="#ar"/><use transform="matrix(0.06172839506172839,0,0,0.06172839506172839,51.666666666666664,0)" xlink:href="#ap"/><use transform="matrix(0.06172839506172839,0,0,0.06172839506172839,64.01234567901234,0)" xlink:href="#au"/><use transform="matrix(0.06172839506172839,0,0,0.06172839506172839,76.35802469135803,0)" xlink:href="#ap"/><use transform="matrix(0.06172839506172839,0,0,0.06172839506172839,88.70370370370371,0)" xlink:href="#ay"/></g><g id="u"><use transform="matrix(0.06172839506172839,0,0,0.06172839506172839,0,0)" xlink:href="#ap"/><use transform="matrix(0.06172839506172839,0,0,0.06172839506172839,12.345679012345679,0)" xlink:href="#aj"/><use transform="matrix(0.06172839506172839,0,0,0.06172839506172839,24.691358024691358,0)" xlink:href="#aa"/><use transform="matrix(0.06172839506172839,0,0,0.06172839506172839,32.03703703703704,0)" xlink:href="#af"/><use transform="matrix(0.06172839506172839,0,0,0.06172839506172839,39.382716049382715,0)" xlink:href="#ag"/><use transform="matrix(0.06172839506172839,0,0,0.06172839506172839,51.72839506172839,0)" xlink:href="#ah"/></g><g id="v"><use transform="matrix(0.06172839506172839,0,0,0.06172839506172839,0,0)" xlink:href="#aj"/><use transform="matrix(0.06172839506172839,0,0,0.06172839506172839,12.345679012345679,0)" xlink:href="#aa"/><use transform="matrix(0.06172839506172839,0,0,0.06172839506172839,19.691358024691358,0)" xlink:href="#ar"/><use transform="matrix(0.06172839506172839,0,0,0.06172839506172839,28.333333333333332,0)" xlink:href="#as"/><use transform="matrix(0.06172839506172839,0,0,0.06172839506172839,41.85185185185185,0)" xlink:href="#ak"/><use transform="matrix(0.06172839506172839,0,0,0.06172839506172839,54.197530864197525,0)" xlink:href="#aa"/><use transform="matrix(0.06172839506172839,0,0,0.06172839506172839,61.5432098765432,0)" xlink:href="#at"/><use transform="matrix(0.06172839506172839,0,0,0.06172839506172839,73.39506172839505,0)" xlink:href="#au"/><use transform="matrix(0.06172839506172839,0,0,0.06172839506172839,85.74074074074073,0)" xlink:href="#ae"/><use transform="matrix(0.06172839506172839,0,0,0.06172839506172839,99.25925925925925,0)" xlink:href="#ab"/><use transform="matrix(0.06172839506172839,0,0,0.06172839506172839,111.60493827160494,0)" xlink:href="#av"/></g><path fill="#3a414a" d="M114-157C55-157 80-60 75 0H25v-261h50l-1 109c12-26 28-41 61-42 86-1 58 113 63 194h-50c-7-57 23-157-34-157" id="aC"/><g id="w"><use transform="matrix(0.06172839506172839,0,0,0.06172839506172839,0,0)" xlink:href="#ak"/><use transform="matrix(0.06172839506172839,0,0,0.06172839506172839,12.345679012345679,0)" xlink:href="#aC"/><use transform="matrix(0.06172839506172839,0,0,0.06172839506172839,25.864197530864196,0)" xlink:href="#ap"/><use transform="matrix(0.06172839506172839,0,0,0.06172839506172839,38.20987654320987,0)" xlink:href="#ar"/><use transform="matrix(0.06172839506172839,0,0,0.06172839506172839,46.85185185185185,0)" xlink:href="#ap"/><use transform="matrix(0.06172839506172839,0,0,0.06172839506172839,59.197530864197525,0)" xlink:href="#ak"/><use transform="matrix(0.06172839506172839,0,0,0.06172839506172839,71.5432098765432,0)" xlink:href="#aa"/><use transform="matrix(0.06172839506172839,0,0,0.06172839506172839,78.88888888888889,0)" xlink:href="#ab"/><use transform="matrix(0.06172839506172839,0,0,0.06172839506172839,91.23456790123457,0)" xlink:href="#ar"/></g><path fill="#3a414a" d="M24-248c93 1 206-16 204 79-1 75-69 88-152 82V0H24v-248zm52 121c47 0 100 7 100-41 0-47-54-39-100-39v80" id="aD"/><g id="x"><use transform="matrix(0.06172839506172839,0,0,0.06172839506172839,0,0)" xlink:href="#aD"/><use transform="matrix(0.06172839506172839,0,0,0.06172839506172839,14.814814814814813,0)" xlink:href="#ar"/><use transform="matrix(0.06172839506172839,0,0,0.06172839506172839,23.456790123456788,0)" xlink:href="#Y"/><use transform="matrix(0.06172839506172839,0,0,0.06172839506172839,36.9753086419753,0)" xlink:href="#ad"/><use transform="matrix(0.06172839506172839,0,0,0.06172839506172839,50.49382716049382,0)" xlink:href="#as"/><use transform="matrix(0.06172839506172839,0,0,0.06172839506172839,64.01234567901234,0)" xlink:href="#ak"/><use transform="matrix(0.06172839506172839,0,0,0.06172839506172839,76.35802469135803,0)" xlink:href="#aa"/><use transform="matrix(0.06172839506172839,0,0,0.06172839506172839,83.70370370370371,0)" xlink:href="#aw"/><use transform="matrix(0.06172839506172839,0,0,0.06172839506172839,89.87654320987654,0)" xlink:href="#Y"/><use transform="matrix(0.06172839506172839,0,0,0.06172839506172839,103.39506172839506,0)" xlink:href="#Z"/></g><path fill="#3a414a" d="M169-182c-1-43-94-46-97-3 18 66 151 10 154 114 3 95-165 93-204 36-6-8-10-19-12-30l50-8c3 46 112 56 116 5-17-69-150-10-154-114-4-87 153-88 188-35 5 8 8 18 10 28" id="aE"/><g id="y"><use transform="matrix(0.06172839506172839,0,0,0.06172839506172839,0,0)" xlink:href="#aE"/><use transform="matrix(0.06172839506172839,0,0,0.06172839506172839,14.814814814814813,0)" xlink:href="#ak"/><use transform="matrix(0.06172839506172839,0,0,0.06172839506172839,27.160493827160494,0)" xlink:href="#ab"/><use transform="matrix(0.06172839506172839,0,0,0.06172839506172839,39.50617283950617,0)" xlink:href="#Z"/><use transform="matrix(0.06172839506172839,0,0,0.06172839506172839,53.02469135802469,0)" xlink:href="#ab"/></g><g id="z"><use transform="matrix(0.06172839506172839,0,0,0.06172839506172839,0,0)" xlink:href="#aj"/><use transform="matrix(0.06172839506172839,0,0,0.06172839506172839,12.345679012345679,0)" xlink:href="#ak"/><use transform="matrix(0.06172839506172839,0,0,0.06172839506172839,24.691358024691358,0)" xlink:href="#af"/><use transform="matrix(0.06172839506172839,0,0,0.06172839506172839,32.03703703703704,0)" xlink:href="#ag"/><use transform="matrix(0.06172839506172839,0,0,0.06172839506172839,44.382716049382715,0)" xlink:href="#al"/></g><g id="A"><use transform="matrix(0.06172839506172839,0,0,0.06172839506172839,0,0)" xlink:href="#aj"/><use transform="matrix(0.06172839506172839,0,0,0.06172839506172839,12.345679012345679,0)" xlink:href="#ak"/><use transform="matrix(0.06172839506172839,0,0,0.06172839506172839,24.691358024691358,0)" xlink:href="#af"/><use transform="matrix(0.06172839506172839,0,0,0.06172839506172839,32.03703703703704,0)" xlink:href="#ag"/><use transform="matrix(0.06172839506172839,0,0,0.06172839506172839,43.14814814814815,0)" xlink:href="#ag"/></g><path fill="#333" d="M88-194c31-1 46 15 58 34l-1-101h50l1 261h-48c-2-10 0-23-3-31C134-8 116 4 84 4 32 4 16-41 15-95c0-56 19-97 73-99zm17 164c33 0 40-30 41-66 1-37-9-64-41-64s-38 30-39 65c0 43 13 65 39 65" id="aF"/><path fill="#333" d="M24 0v-248h52V0H24" id="aG"/><g id="B"><use transform="matrix(0.04938271604938272,0,0,0.04938271604938272,0,0)" xlink:href="#ao"/><use transform="matrix(0.04938271604938272,0,0,0.04938271604938272,10.814814814814815,0)" xlink:href="#W"/><use transform="matrix(0.04938271604938272,0,0,0.04938271604938272,20.69135802469136,0)" xlink:href="#O"/><use transform="matrix(0.04938271604938272,0,0,0.04938271604938272,30.567901234567906,0)" xlink:href="#aF"/><use transform="matrix(0.04938271604938272,0,0,0.04938271604938272,41.38271604938272,0)" xlink:href="#aG"/><use transform="matrix(0.04938271604938272,0,0,0.04938271604938272,46.320987654320994,0)" xlink:href="#U"/></g><g id="C"><use transform="matrix(0.06172839506172839,0,0,0.06172839506172839,0,0)" xlink:href="#ap"/><use transform="matrix(0.06172839506172839,0,0,0.06172839506172839,12.345679012345679,0)" xlink:href="#aj"/><use transform="matrix(0.06172839506172839,0,0,0.06172839506172839,24.691358024691358,0)" xlink:href="#aa"/><use transform="matrix(0.06172839506172839,0,0,0.06172839506172839,32.03703703703704,0)" xlink:href="#af"/><use transform="matrix(0.06172839506172839,0,0,0.06172839506172839,39.382716049382715,0)" xlink:href="#ag"/><use transform="matrix(0.06172839506172839,0,0,0.06172839506172839,51.72839506172839,0)" xlink:href="#al"/><use transform="matrix(0.06172839506172839,0,0,0.06172839506172839,64.07407407407408,0)" xlink:href="#ai"/><use transform="matrix(0.06172839506172839,0,0,0.06172839506172839,70.24691358024691,0)" xlink:href="#aj"/><use transform="matrix(0.06172839506172839,0,0,0.06172839506172839,82.5925925925926,0)" xlink:href="#ak"/><use transform="matrix(0.06172839506172839,0,0,0.06172839506172839,94.93827160493828,0)" xlink:href="#af"/><use transform="matrix(0.06172839506172839,0,0,0.06172839506172839,102.28395061728396,0)" xlink:href="#ag"/><use transform="matrix(0.06172839506172839,0,0,0.06172839506172839,114.62962962962965,0)" xlink:href="#al"/></g><g id="D"><use transform="matrix(0.06172839506172839,0,0,0.06172839506172839,0,0)" xlink:href="#X"/><use transform="matrix(0.06172839506172839,0,0,0.06172839506172839,15.987654320987653,0)" xlink:href="#aC"/><use transform="matrix(0.06172839506172839,0,0,0.06172839506172839,29.50617283950617,0)" xlink:href="#ap"/><use transform="matrix(0.06172839506172839,0,0,0.06172839506172839,41.85185185185185,0)" xlink:href="#ar"/><use transform="matrix(0.06172839506172839,0,0,0.06172839506172839,50.49382716049382,0)" xlink:href="#ap"/><use transform="matrix(0.06172839506172839,0,0,0.06172839506172839,62.8395061728395,0)" xlink:href="#ak"/><use transform="matrix(0.06172839506172839,0,0,0.06172839506172839,75.18518518518518,0)" xlink:href="#aa"/><use transform="matrix(0.06172839506172839,0,0,0.06172839506172839,82.53086419753086,0)" xlink:href="#ab"/><use transform="matrix(0.06172839506172839,0,0,0.06172839506172839,94.87654320987654,0)" xlink:href="#ar"/></g><g id="E"><use transform="matrix(0.06172839506172839,0,0,0.06172839506172839,0,0)" xlink:href="#ak"/><use transform="matrix(0.06172839506172839,0,0,0.06172839506172839,12.345679012345679,0)" xlink:href="#aC"/><use transform="matrix(0.06172839506172839,0,0,0.06172839506172839,25.864197530864196,0)" xlink:href="#ar"/><use transform="matrix(0.06172839506172839,0,0,0.06172839506172839,34.50617283950617,0)" xlink:href="#af"/><use transform="matrix(0.06172839506172839,0,0,0.06172839506172839,41.85185185185185,0)" xlink:href="#al"/><use transform="matrix(0.06172839506172839,0,0,0.06172839506172839,54.197530864197525,0)" xlink:href="#ag"/></g><g id="F"><use transform="matrix(0.06172839506172839,0,0,0.06172839506172839,0,0)" xlink:href="#ad"/><use transform="matrix(0.06172839506172839,0,0,0.06172839506172839,13.518518518518517,0)" xlink:href="#ae"/><use transform="matrix(0.06172839506172839,0,0,0.06172839506172839,27.037037037037035,0)" xlink:href="#af"/><use transform="matrix(0.06172839506172839,0,0,0.06172839506172839,34.382716049382715,0)" xlink:href="#ag"/><use transform="matrix(0.06172839506172839,0,0,0.06172839506172839,45.49382716049382,0)" xlink:href="#ag"/></g><g id="G"><use transform="matrix(0.06172839506172839,0,0,0.06172839506172839,0,0)" xlink:href="#ad"/><use transform="matrix(0.06172839506172839,0,0,0.06172839506172839,13.518518518518517,0)" xlink:href="#ab"/><use transform="matrix(0.06172839506172839,0,0,0.06172839506172839,25.864197530864196,0)" xlink:href="#ae"/><use transform="matrix(0.06172839506172839,0,0,0.06172839506172839,39.382716049382715,0)" xlink:href="#aw"/><use transform="matrix(0.06172839506172839,0,0,0.06172839506172839,45.55555555555556,0)" xlink:href="#ak"/><use transform="matrix(0.06172839506172839,0,0,0.06172839506172839,57.901234567901234,0)" xlink:href="#aa"/><use transform="matrix(0.06172839506172839,0,0,0.06172839506172839,65.24691358024691,0)" xlink:href="#aw"/><use transform="matrix(0.06172839506172839,0,0,0.06172839506172839,71.41975308641975,0)" xlink:href="#Y"/><use transform="matrix(0.06172839506172839,0,0,0.06172839506172839,84.93827160493827,0)" xlink:href="#Z"/></g><path fill="#3a414a" d="M175 0L67-191c6 58 2 128 3 191H24v-248h59L193-55c-6-58-2-129-3-193h46V0h-61" id="aH"/><path fill="#3a414a" d="M128 0H69L1-190h53L99-40l48-150h52" id="aI"/><path fill="#3a414a" d="M140-251c80 0 125 45 125 126S219 4 139 4C58 4 15-44 15-125s44-126 125-126zm-1 214c52 0 73-35 73-88 0-50-21-86-72-86-52 0-73 35-73 86s22 88 72 88" id="aJ"/><path fill="#3a414a" d="M135-194c52 0 70 43 70 98 0 56-19 99-73 100-30 1-46-15-58-35L72 0H24l1-261h50v104c11-23 29-37 60-37zM114-30c31 0 40-27 40-66 0-37-7-63-39-63s-41 28-41 65c0 36 8 64 40 64" id="aK"/><path fill="#3a414a" d="M25-224v-37h50v37H25zM75 22c2 45-34 59-81 51V38c22 5 31-5 31-27v-201h50V22" id="aL"/><g id="H"><use transform="matrix(0.06172839506172839,0,0,0.06172839506172839,0,0)" xlink:href="#aH"/><use transform="matrix(0.06172839506172839,0,0,0.06172839506172839,15.987654320987653,0)" xlink:href="#ap"/><use transform="matrix(0.06172839506172839,0,0,0.06172839506172839,28.333333333333332,0)" xlink:href="#ar"/><use transform="matrix(0.06172839506172839,0,0,0.06172839506172839,36.9753086419753,0)" xlink:href="#ar"/><use transform="matrix(0.06172839506172839,0,0,0.06172839506172839,45.61728395061728,0)" xlink:href="#ap"/><use transform="matrix(0.06172839506172839,0,0,0.06172839506172839,57.962962962962955,0)" xlink:href="#aa"/><use transform="matrix(0.06172839506172839,0,0,0.06172839506172839,65.30864197530863,0)" xlink:href="#aw"/><use transform="matrix(0.06172839506172839,0,0,0.06172839506172839,71.48148148148147,0)" xlink:href="#aI"/><use transform="matrix(0.06172839506172839,0,0,0.06172839506172839,83.82716049382715,0)" xlink:href="#ab"/><use transform="matrix(0.06172839506172839,0,0,0.06172839506172839,96.17283950617283,0)" xlink:href="#aJ"/><use transform="matrix(0.06172839506172839,0,0,0.06172839506172839,113.45679012345678,0)" xlink:href="#aK"/><use transform="matrix(0.06172839506172839,0,0,0.06172839506172839,126.9753086419753,0)" xlink:href="#aL"/><use transform="matrix(0.06172839506172839,0,0,0.06172839506172839,133.14814814814815,0)" xlink:href="#ab"/><use transform="matrix(0.06172839506172839,0,0,0.06172839506172839,145.49382716049382,0)" xlink:href="#ak"/><use transform="matrix(0.06172839506172839,0,0,0.06172839506172839,157.8395061728395,0)" xlink:href="#aa"/></g><g id="I"><use transform="matrix(0.06172839506172839,0,0,0.06172839506172839,0,0)" xlink:href="#Z"/><use transform="matrix(0.06172839506172839,0,0,0.06172839506172839,13.518518518518517,0)" xlink:href="#Y"/><use transform="matrix(0.06172839506172839,0,0,0.06172839506172839,27.037037037037035,0)" xlink:href="#af"/><use transform="matrix(0.06172839506172839,0,0,0.06172839506172839,34.382716049382715,0)" xlink:href="#ag"/><use transform="matrix(0.06172839506172839,0,0,0.06172839506172839,46.72839506172839,0)" xlink:href="#ah"/></g><g id="J"><use transform="matrix(0.06172839506172839,0,0,0.06172839506172839,0,0)" xlink:href="#ae"/><use transform="matrix(0.06172839506172839,0,0,0.06172839506172839,13.518518518518517,0)" xlink:href="#ar"/><use transform="matrix(0.06172839506172839,0,0,0.06172839506172839,22.160493827160494,0)" xlink:href="#Y"/><use transform="matrix(0.06172839506172839,0,0,0.06172839506172839,35.67901234567901,0)" xlink:href="#ae"/></g><g id="K"><use transform="matrix(0.04938271604938272,0,0,0.04938271604938272,0,0)" xlink:href="#N"/><use transform="matrix(0.04938271604938272,0,0,0.04938271604938272,12.790123456790125,0)" xlink:href="#O"/><use transform="matrix(0.04938271604938272,0,0,0.04938271604938272,22.66666666666667,0)" xlink:href="#P"/><use transform="matrix(0.04938271604938272,0,0,0.04938271604938272,33.48148148148149,0)" xlink:href="#Q"/><use transform="matrix(0.04938271604938272,0,0,0.04938271604938272,38.41975308641976,0)" xlink:href="#R"/><use transform="matrix(0.04938271604938272,0,0,0.04938271604938272,48.296296296296305,0)" xlink:href="#S"/><use transform="matrix(0.04938271604938272,0,0,0.04938271604938272,54.17283950617284,0)" xlink:href="#T"/><use transform="matrix(0.04938271604938272,0,0,0.04938271604938272,64.98765432098766,0)" xlink:href="#V"/></g><g id="L"><use transform="matrix(0.06172839506172839,0,0,0.06172839506172839,0,0)" xlink:href="#ad"/><use transform="matrix(0.06172839506172839,0,0,0.06172839506172839,13.518518518518517,0)" xlink:href="#ae"/><use transform="matrix(0.06172839506172839,0,0,0.06172839506172839,27.037037037037035,0)" xlink:href="#af"/><use transform="matrix(0.06172839506172839,0,0,0.06172839506172839,34.382716049382715,0)" xlink:href="#ag"/><use transform="matrix(0.06172839506172839,0,0,0.06172839506172839,46.72839506172839,0)" xlink:href="#al"/></g><g id="M"><use transform="matrix(0.06172839506172839,0,0,0.06172839506172839,0,0)" xlink:href="#Z"/><use transform="matrix(0.06172839506172839,0,0,0.06172839506172839,13.518518518518517,0)" xlink:href="#Y"/><use transform="matrix(0.06172839506172839,0,0,0.06172839506172839,27.037037037037035,0)" xlink:href="#af"/><use transform="matrix(0.06172839506172839,0,0,0.06172839506172839,34.382716049382715,0)" xlink:href="#ag"/><use transform="matrix(0.06172839506172839,0,0,0.06172839506172839,45.49382716049382,0)" xlink:href="#ag"/></g></defs></g></svg>