<svg xmlns="http://www.w3.org/2000/svg" xmlns:xlink="http://www.w3.org/1999/xlink" xmlns:lucid="lucid" width="1775.72" height="1515.02"><g transform="translate(-5747.835732444366 -5973.527741768474)" lucid:page-tab-id="0_0"><path d="M7022.6 7274.33a6 6 0 0 1 6-6h228a6 6 0 0 1 6 6v148a6 6 0 0 1-6 6h-228a6 6 0 0 1-6-6z" stroke="#3a414a" stroke-width="3" fill="#fff"/><use xlink:href="#a" transform="matrix(1,0,0,1,7030.606103774103,7276.332926892877) translate(60.24074074074074 62.77777777777778)"/><use xlink:href="#b" transform="matrix(1,0,0,1,7030.606103774103,7276.332926892877) translate(78.7283950617284 89.44444444444446)"/><path d="M6320.5 7318.52h-97.9v-3h97.9zm174.5 0h-107.53v-3H6495z" stroke="#3a414a" stroke-width=".05" fill="#3a414a"/><path d="M6496.5 7318.52h-1.55v-3h1.55z" fill="#3a414a"/><path d="M6496.52 7318.55h-1.6v-3.05h1.6zm-1.54-3v2.95h1.5v-2.95z" stroke="#3a414a" stroke-width=".05" fill="#3a414a"/><path d="M6227.33 7324.66l-12.9-7.64 12.9-7.63z" fill="#3a414a"/><path d="M6228.83 7327.3l-17.35-10.28 17.35-10.26zm-11.46-10.28l8.46 5v-10z" stroke="#3a414a" stroke-width=".05" fill="#3a414a"/><use xlink:href="#c" transform="matrix(1,0,0,1,6320.503700886433,7306.357284444521) translate(0 14.222222222222223)"/><path d="M6297.88 7376.2h-84.9v-3h84.9zm187.5 0h-106.76v-3h106.77z" stroke="#3a414a" stroke-width=".05" fill="#3a414a"/><path d="M6213.02 7376.2h-1.54v-3h1.54z" fill="#3a414a"/><path d="M6213.04 7376.22h-1.6v-3.05h1.6zm-1.54-3v2.95h1.5v-2.95z" stroke="#3a414a" stroke-width=".05" fill="#3a414a"/><path d="M6493.55 7374.7l-12.9 7.63v-15.27z" fill="#3a414a"/><path d="M6496.5 7374.7l-17.36 10.26v-20.53zm-14.36 5l8.46-5-8.46-5z" stroke="#3a414a" stroke-width=".05" fill="#3a414a"/><use xlink:href="#d" transform="matrix(1,0,0,1,6297.8778494971975,7364.031712968066) translate(0 14.222222222222223)"/><path d="M6848.28 7377.85H6741v-3h107.28zm161.72 0h-97.67v-3H7010z" stroke="#3a414a" stroke-width=".05" fill="#3a414a"/><path d="M6741.04 7377.85h-1.54v-3h1.54z" fill="#3a414a"/><path d="M6741.07 7377.87h-1.6v-3.05h1.6zm-1.55-3v2.95h1.5v-2.95z" stroke="#3a414a" stroke-width=".05" fill="#3a414a"/><path d="M7018.16 7376.35l-12.9 7.63v-15.27z" fill="#3a414a"/><path d="M7021.1 7376.35l-17.35 10.26v-20.52zm-14.35 5l8.46-5-8.45-5z" stroke="#3a414a" stroke-width=".05" fill="#3a414a"/><use xlink:href="#e" transform="matrix(1,0,0,1,6848.279503839152,7365.67955489643) translate(0 14.222222222222223)"/><path d="M6209.98 6838.67a6 6 0 0 1 6-6h228a6 6 0 0 1 6 6v148a6 6 0 0 1-6 6h-228a6 6 0 0 1-6-6z" stroke="#3a414a" stroke-width="3" fill="#fff"/><use xlink:href="#f" transform="matrix(1,0,0,1,6217.976657640504,6840.6662602262095) translate(70.7962962962963 62.77777777777778)"/><use xlink:href="#g" transform="matrix(1,0,0,1,6217.976657640504,6840.6662602262095) translate(47.339506172839506 89.44444444444446)"/><path d="M6331.48 6820.06h-3v-59.8h3zm0-81.14h-3v-69.4h3z" stroke="#3a414a" stroke-width=".05" fill="#3a414a"/><path d="M6331.48 6669.55h-3V6668h3z" fill="#3a414a"/><path d="M6331.5 6669.58h-3.05v-1.6h3.05zm-3-1.55v1.5h2.95v-1.5z" stroke="#3a414a" stroke-width=".05" fill="#3a414a"/><path d="M6329.98 6828.22l-7.64-12.9h15.27z" fill="#3a414a"/><path d="M6329.98 6831.17l-10.27-17.36h20.54zm-5-14.36l5 8.47 5-8.46z" stroke="#3a414a" stroke-width=".05" fill="#3a414a"/><use xlink:href="#h" transform="matrix(1,0,0,1,6314.69270702322,6738.922692980258) translate(0 14.222222222222223)"/><path d="M6491 7158.14l10.94 7.92 8.36 6.62 6.78 5.84 5.7 5.34 4.85 4.96 4.23 4.7 3.72 4.5 3.3 4.32 2.92 4.22 2.62 4.13 2.35 4.06 2.12 4.04 1.88 4.02 1.7 4.03 1.5 4.06 1.34 4.1 1.16 4.18 1 4.25.83 4.37.67 4.5.35 3.28-2.98.32-.34-3.24-.65-4.36-.8-4.24-.98-4.13-1.13-4.05-1.3-3.98-1.45-3.94-1.66-3.92-1.84-3.9-2.05-3.94-2.3-3.96-2.55-4.02-2.86-4.12-3.2-4.23-3.65-4.4-4.16-4.6-4.77-4.87-5.6-5.25-6.68-5.76-8.27-6.55-10.8-7.82-30.97-19.22h5.7zM6331.6 6999.1l.3 4.7.47 4.53.65 4.37.8 4.24.97 4.13 1.13 4.05 1.3 3.98 1.46 3.94 1.65 3.92 1.85 3.9 2.05 3.94 2.3 3.96 2.55 4.02 2.86 4.12 3.22 4.23 3.64 4.4 4.14 4.6 4.78 4.87 5.6 5.24 6.68 5.77 8.26 6.55 10.8 7.84 16.32 10.78 14.34 8.9h-5.7l-10.26-6.38-16.4-10.85-10.9-7.9-8.37-6.63-6.78-5.84-5.7-5.34-4.85-4.96-4.23-4.7-3.73-4.5-3.3-4.32-2.92-4.22-2.63-4.13-2.35-4.06-2.1-4.04-1.9-4.02-1.7-4.03-1.5-4.06-1.34-4.1-1.16-4.18-1-4.26-.83-4.36-.67-4.5-.48-4.64-.32-4.84-.07-3.52 3-.06z" stroke="#3a414a" stroke-width=".05" fill="#3a414a"/><path d="M6331.5 6995.68l-3 .06-.02-1.57h3z" fill="#3a414a"/><path d="M6331.53 6995.7l-3.05.07-.03-1.63h3.05zm-3.03-1.5l.03 1.5 2.95-.05-.03-1.46z" stroke="#3a414a" stroke-width=".05" fill="#3a414a"/><path d="M6558.18 7263.9l-8.46-12.4 15.24-1z" fill="#3a414a"/><path d="M6558.37 7266.83l-11.37-16.65 20.5-1.34zm-5.93-14l5.55 8.12 4.43-8.77z" stroke="#3a414a" stroke-width=".05" fill="#3a414a"/><use xlink:href="#i" transform="matrix(1,0,0,1,6411.996571317503,7120.075115697615) translate(0 14.222222222222223)"/><path d="M6498 6838.67a6 6 0 0 1 6-6h228a6 6 0 0 1 6 6v148a6 6 0 0 1-6 6h-228a6 6 0 0 1-6-6z" stroke="#3a414a" stroke-width="3" fill="#fff"/><use xlink:href="#f" transform="matrix(1,0,0,1,6505.998024684002,6840.6662602262095) translate(70.7962962962963 62.77777777777778)"/><use xlink:href="#j" transform="matrix(1,0,0,1,6505.998024684002,6840.6662602262095) translate(51.012345679012334 89.44444444444446)"/><path d="M6637.97 7265.33h-3v-124.17h3zm0-145.5h-3v-114.55h3z" stroke="#3a414a" stroke-width=".05" fill="#3a414a"/><path d="M6637.97 7266.83h-3v-1.54h3z" fill="#3a414a"/><path d="M6638 7266.86h-3.06v-1.6h3.06zm-3-1.55v1.5h2.94v-1.5z" stroke="#3a414a" stroke-width=".05" fill="#3a414a"/><path d="M6644.1 7010.02h-15.27l7.64-12.9z" fill="#3a414a"/><path d="M6646.73 7011.52h-20.53l10.27-17.35zm-15.27-3h10.02l-5-8.46z" stroke="#3a414a" stroke-width=".05" fill="#3a414a"/><use xlink:href="#h" transform="matrix(1,0,0,1,6621.1858235991795,7119.830873810933) translate(0 14.222222222222223)"/><path d="M6516.66 6761.76l13.07 6.46 8.78 4.82 6.65 4 5.28 3.52 4.35 3.15 3.65 2.9 3.1 2.7 2.7 2.5 2.35 2.4 2.07 2.3 1.82 2.2 1.62 2.14 1.43 2.07 1.3 2.04 1.15 2 1.03 1.97.93 1.96.8 1.94.74 1.94.63 1.95.55 1.95.46 2 .4 2 .3 2.05.22 2.1.13 2.14.02.7-3 .06-.02-.63-.12-2.03-.2-1.97-.3-1.92-.35-1.9-.44-1.85-.5-1.84-.6-1.83-.7-1.82-.75-1.82-.88-1.84-.97-1.85-1.1-1.9-1.2-1.93-1.4-1.97-1.53-2.03-1.74-2.1-1.98-2.2-2.26-2.3-2.6-2.45-3.02-2.6-3.56-2.82-4.24-3.08-5.18-3.43-6.52-3.96-8.68-4.76-12.96-6.4-9.88-4.46h.2v-3.2zm-123.64-81.98l.5 1.84.6 1.82.7 1.83.76 1.82.86 1.83.97 1.86 1.1 1.88 1.22 1.92 1.38 1.98 1.54 2.03 1.74 2.12 1.98 2.2 2.26 2.3 2.6 2.44 3.02 2.6 3.56 2.82 4.24 3.07 5.18 3.44 6.52 3.93 8.66 4.75 23.08 10.4h-.2v3.2l-24.22-10.9-8.8-4.84-6.65-4.02-5.27-3.5-4.35-3.15-3.65-2.9-3.1-2.68-2.7-2.54-2.35-2.4-2.07-2.28-1.8-2.2-1.63-2.14-1.44-2.08-1.3-2.03-1.15-2-1.03-1.96-.92-1.96-.8-1.93-.73-1.94-.64-1.95-.55-1.96-.26-1.15 2.92-.7z" stroke="#3a414a" stroke-width=".05" fill="#3a414a"/><path d="M6582.2 6831.17h-3l-.03-1.5 3-.08z" fill="#3a414a"/><path d="M6582.23 6831.2h-3.05l-.04-1.57 3.05-.06zm-3.04-1.52l.02 1.46h2.95l-.03-1.52z" stroke="#3a414a" stroke-width=".05" fill="#3a414a"/><path d="M6400.02 6682.52l-15.1 2.32 5.6-13.92z" fill="#3a414a"/><path d="M6402.85 6683.6l-20.3 3.13 7.5-18.72zm-15.55-.64l9.9-1.52-6.24-7.6z" stroke="#3a414a" stroke-width=".05" fill="#3a414a"/><use xlink:href="#k" transform="matrix(1,0,0,1,6465.2669750270325,6738.688116263945) translate(0 14.222222222222223)"/><path d="M6732.52 6763.7l-6.98 3.08-11.13 5.5-8.05 4.43-6.26 3.8-5.05 3.34-4.17 3.02-3.5 2.78-3 2.58-2.57 2.42-2.24 2.3-1.96 2.17-1.73 2.1-1.53 2-1.36 1.97-1.2 1.9-1.1 1.87-.95 1.83-.85 1.8-.76 1.8-.66 1.8-.58 1.8-.5 1.8-.43 1.8-.35 1.84-.28 1.88-.2 1.9-.12 1.97v.55l-3-.07v-.6l.13-2.1.22-2.03.3-2 .36-1.95.47-1.94.53-1.9.63-1.92.7-1.9.8-1.92.9-1.92 1.03-1.95 1.14-1.98 1.28-2 1.43-2.07 1.62-2.12 1.8-2.18 2.06-2.28 2.33-2.38 2.68-2.5 3.08-2.67 3.6-2.86 4.28-3.1 5.14-3.4 6.37-3.86 8.17-4.47 11.24-5.57 8.26-3.65zm145.62-91.1l-.2.8-.52 1.93-.63 1.9-.72 1.92-.8 1.9-.9 1.94-1.02 1.93-1.14 1.97-1.28 2.02-1.43 2.05-1.6 2.12-1.8 2.18-2.06 2.27-2.33 2.38-2.66 2.5-3.08 2.67-3.6 2.85-4.28 3.1-5.14 3.4-6.37 3.86-8.17 4.5-11.26 5.57-44.18 18.27v-3.25l42.94-17.77 11.1-5.5 8.07-4.42 6.26-3.77 5.04-3.35 4.17-3.02 3.5-2.78 3-2.58 2.57-2.42 2.26-2.28 1.96-2.2 1.73-2.08 1.53-2 1.36-1.97 1.2-1.9 1.1-1.86.95-1.85.84-1.8.76-1.8.66-1.8.58-1.78.5-1.8.18-.75z" stroke="#3a414a" stroke-width=".05" fill="#3a414a"/><path d="M6665 6829.66l-.04 1.5h-3l.03-1.57z" fill="#3a414a"/><path d="M6665 6829.63l-.02 1.56h-3.05l.03-1.63zm-3.02 1.5h2.95l.03-1.45-2.95-.06z" stroke="#3a414a" stroke-width=".05" fill="#3a414a"/><path d="M6883.02 6678.1l-15.1-2.38 9.58-11.55z" fill="#3a414a"/><path d="M6885.38 6680l-20.28-3.2 12.86-15.54zm-14.6-5.35l9.87 1.57-3.6-9.14z" stroke="#3a414a" stroke-width=".05" fill="#3a414a"/><use xlink:href="#k" transform="matrix(1,0,0,1,6732.517599971335,6742.712039591975) translate(0 14.222222222222223)"/><path d="M6786.02 6838.67a6 6 0 0 1 6-6h228a6 6 0 0 1 6 6v148a6 6 0 0 1-6 6h-228a6 6 0 0 1-6-6z" stroke="#3a414a" stroke-width="3" fill="#fff"/><use xlink:href="#f" transform="matrix(1,0,0,1,6794.0193917275,6840.6662602262095) translate(70.7962962962963 62.77777777777778)"/><use xlink:href="#l" transform="matrix(1,0,0,1,6794.0193917275,6840.6662602262095) translate(43.6358024691358 89.44444444444446)"/><path d="M6931.34 6820.06h-3v-75.44h3zm0-96.77h-3v-60.54h3z" stroke="#3a414a" stroke-width=".05" fill="#3a414a"/><path d="M6931.34 6662.8h-3v-1.54h3z" fill="#3a414a"/><path d="M6931.37 6662.82h-3.05v-1.6h3.05zm-3-1.54v1.5h2.95v-1.5z" stroke="#3a414a" stroke-width=".05" fill="#3a414a"/><path d="M6929.84 6828.22l-7.63-12.9h15.28z" fill="#3a414a"/><path d="M6929.84 6831.17l-10.26-17.36h20.53zm-5-14.36l5 8.47 5-8.46z" stroke="#3a414a" stroke-width=".05" fill="#3a414a"/><use xlink:href="#h" transform="matrix(1,0,0,1,6914.5596568407145,6723.289564646159) translate(0 14.222222222222223)"/><path d="M6747.54 7155.5l-13.8 9.14-9.93 7.2-7.78 6.16-6.4 5.5-5.37 5.06-4.63 4.72-4.02 4.46-3.53 4.27-3.13 4.13-2.8 4-2.47 3.92-2.23 3.86-2 3.83-1.8 3.8-1.6 3.8-1.4 3.82-1.26 3.87-1.1 3.9-.93 4-.78 4.1-.63 4.2-.27 2.68-3-.3.3-2.75.64-4.33.8-4.22.98-4.1 1.13-4.05 1.3-3.98 1.46-3.94 1.65-3.92 1.85-3.9 2.06-3.94 2.3-3.96 2.55-4.03 2.86-4.1 3.22-4.22 3.6-4.37 4.12-4.55 4.7-4.8 5.48-5.15 6.5-5.6 7.88-6.23 10.02-7.27 13.93-9.23 19.83-11.65h5.92zm159.95-159.8l-.08 3.32-.3 4.65-.46 4.48-.64 4.33-.8 4.22-.97 4.1-1.13 4.05-1.3 3.98-1.46 3.94-1.65 3.92-1.83 3.9-2.06 3.93-2.28 3.97-2.55 4.02-2.86 4.1-3.2 4.23-3.6 4.37-4.1 4.55-4.72 4.8-5.48 5.15-6.48 5.6-7.9 6.23-10 7.27-13.94 9.23-19.85 11.9H6802l24.08-14.44 13.82-9.14 9.92-7.2 7.78-6.16 6.4-5.5 5.38-5.06 4.62-4.72 4.02-4.47 3.54-4.26 3.13-4.13 2.77-4 2.5-3.92 2.22-3.86 1.98-3.83 1.8-3.8 1.6-3.8 1.4-3.83 1.27-3.86 1.1-3.9.93-4 .78-4.1.62-4.2.46-4.36.28-4.53.07-3.26z" stroke="#3a414a" stroke-width=".05" fill="#3a414a"/><path d="M6907.5 6995.74l-3-.06.02-1.5h3z" fill="#3a414a"/><path d="M6907.5 6995.77l-3.04-.07.03-1.56h3.05zm-2.96-1.58l-.03 1.45 2.96.06.03-1.5z" stroke="#3a414a" stroke-width=".05" fill="#3a414a"/><path d="M6676.3 7251.53l-8.5 12.36-6.73-13.4z" fill="#3a414a"/><path d="M6679.03 7250.22l-11.43 16.6-9.05-18zm-11.02 10.73l5.58-8.1-10-.68z" stroke="#3a414a" stroke-width=".05" fill="#3a414a"/><use xlink:href="#i" transform="matrix(1,0,0,1,6754.862039404275,7119.962142364993) translate(0 14.222222222222223)"/><path d="M6839.93 7327.25h-89.32v-3h89.33zm179.67 0h-98.93v-3h98.93z" stroke="#3a414a" stroke-width=".05" fill="#3a414a"/><path d="M7021.1 7327.25h-1.54v-3h1.55z" fill="#3a414a"/><path d="M7021.13 7327.27h-1.6v-3.05h1.6zm-1.54-3v2.95h1.48v-2.95z" stroke="#3a414a" stroke-width=".05" fill="#3a414a"/><path d="M6755.36 7333.4l-12.9-7.65 12.9-7.64z" fill="#3a414a"/><path d="M6756.86 7336.02l-17.36-10.27 17.36-10.27zm-11.47-10.27l8.46 5v-10z" stroke="#3a414a" stroke-width=".05" fill="#3a414a"/><use xlink:href="#d" transform="matrix(1,0,0,1,6839.92956656,7315.083739746167) translate(0 14.222222222222223)"/><path d="M6498 7274.33a6 6 0 0 1 6-6h228a6 6 0 0 1 6 6v148a6 6 0 0 1-6 6h-228a6 6 0 0 1-6-6z" stroke="#3a414a" stroke-width="3" fill="#fff"/><use xlink:href="#m" transform="matrix(1,0,0,1,6505.998024684002,7276.332926892877) translate(61.53703703703704 62.77777777777778)"/><use xlink:href="#n" transform="matrix(1,0,0,1,6505.998024684002,7276.332926892877) translate(82.46296296296296 89.44444444444446)"/><path d="M6498 7434.33a6 6 0 0 1 6-6h228a6 6 0 0 1 6 6v46.1a6 6 0 0 1-6 6h-228a6 6 0 0 1-6-6z" stroke="#3a414a" stroke-width="3" fill="#b8f5ed"/><use xlink:href="#o" transform="matrix(1,0,0,1,6500.902168619867,7431.237070828742) translate(40.5246913580247 31.02777777777778)"/><use xlink:href="#p" transform="matrix(1,0,0,1,6500.902168619867,7431.237070828742) translate(99.59876543209876 31.02777777777778)"/><path d="M5749.34 6672.5a6 6 0 0 1 6-6h228a6 6 0 0 1 6 6v148a6 6 0 0 1-6 6h-228a6 6 0 0 1-6-6z" stroke="#3a414a" stroke-width="3" fill="#fff"/><use xlink:href="#q" transform="matrix(1,0,0,1,5757.335732572256,6674.5100114641655) translate(81.81481481481481 62.77777777777778)"/><use xlink:href="#r" transform="matrix(1,0,0,1,5757.335732572256,6674.5100114641655) translate(79.96296296296296 89.44444444444446)"/><path d="M5749.34 6598.86a6 6 0 0 1 6-6h228a6 6 0 0 1 6 6v61.65a6 6 0 0 1-6 6h-228a6 6 0 0 1-6-6z" stroke="#3a414a" stroke-width="3" fill="#b8f5ed"/><use xlink:href="#s" transform="matrix(1,0,0,1,5753.0180274597005,6596.546408602718) translate(13.228395061728392 24.05902777777778)"/><use xlink:href="#t" transform="matrix(1,0,0,1,5753.0180274597005,6596.546408602718) translate(131.00617283950618 24.05902777777778)"/><use xlink:href="#u" transform="matrix(1,0,0,1,5753.0180274597005,6596.546408602718) translate(36.74691358024691 50.72569444444445)"/><use xlink:href="#v" transform="matrix(1,0,0,1,5753.0180274597005,6596.546408602718) translate(147.05555555555554 50.72569444444445)"/><path d="M7282.06 6672.5a6 6 0 0 1 6-6h228a6 6 0 0 1 6 6v148a6 6 0 0 1-6 6h-228a6 6 0 0 1-6-6z" stroke="#3a414a" stroke-width="3" fill="#fff"/><use xlink:href="#q" transform="matrix(1,0,0,1,7290.059434651018,6674.5100114641655) translate(81.81481481481481 62.77777777777778)"/><use xlink:href="#w" transform="matrix(1,0,0,1,7290.059434651018,6674.5100114641655) translate(76.25925925925927 89.44444444444446)"/><path d="M7282.06 6598.86a6 6 0 0 1 6-6h228a6 6 0 0 1 6 6v61.65a6 6 0 0 1-6 6h-228a6 6 0 0 1-6-6z" stroke="#3a414a" stroke-width="3" fill="#b8f5ed"/><use xlink:href="#x" transform="matrix(1,0,0,1,7285.741729538462,6596.546408602718) translate(14.895061728395063 24.05902777777778)"/><use xlink:href="#t" transform="matrix(1,0,0,1,7285.741729538462,6596.546408602718) translate(129.3395061728395 24.05902777777778)"/><use xlink:href="#u" transform="matrix(1,0,0,1,7285.741729538462,6596.546408602718) translate(15.759259259259267 50.72569444444445)"/><use xlink:href="#y" transform="matrix(1,0,0,1,7285.741729538462,6596.546408602718) translate(126.06790123456791 50.72569444444445)"/><path d="M6596.6 7255.72h-3v-114.55h3zm0-135.9l-3 .02v-124.17h3z" stroke="#3a414a" stroke-width=".05" fill="#3a414a"/><path d="M6596.6 6995.7h-3v-1.53h3z" fill="#3a414a"/><path d="M6596.62 6995.73h-3.05v-1.6h3.05zm-3-1.54v1.48h2.95v-1.5z" stroke="#3a414a" stroke-width=".05" fill="#3a414a"/><path d="M6595.1 7263.9l-7.64-12.92h15.27z" fill="#3a414a"/><path d="M6595.1 7266.83l-10.27-17.35h20.53zm-5-14.35l5 8.46 5-8.46z" stroke="#3a414a" stroke-width=".05" fill="#3a414a"/><use xlink:href="#z" transform="matrix(1,0,0,1,6583.289299330121,7119.834981919781) translate(0 14.222222222222223)"/><path d="M6962.47 6829.66h-3v-72.78h3zm0-94.12h-3v-63.18h3z" stroke="#3a414a" stroke-width=".05" fill="#3a414a"/><path d="M6962.47 6831.17h-3v-1.55h3z" fill="#3a414a"/><path d="M6962.5 6831.2h-3.05v-1.6h3.05zm-3-1.55v1.5h2.95v-1.5z" stroke="#3a414a" stroke-width=".05" fill="#3a414a"/><path d="M6968.6 6677.1h-15.26l7.63-12.9z" fill="#3a414a"/><path d="M6971.24 6678.6h-20.53l10.27-17.34zm-15.27-3h10l-5-8.45z" stroke="#3a414a" stroke-width=".05" fill="#3a414a"/><use xlink:href="#z" transform="matrix(1,0,0,1,6949.168783234328,6735.542947575253) translate(0 14.222222222222223)"/><path d="M5969.98 7274.33a6 6 0 0 1 6-6h228a6 6 0 0 1 6 6v148a6 6 0 0 1-6 6h-228a6 6 0 0 1-6-6z" stroke="#3a414a" stroke-width="3" fill="#fff"/><use xlink:href="#A" transform="matrix(1,0,0,1,5977.976657640504,7276.332926892877) translate(54.716049382716044 76.27777777777777)"/><path d="M5969.98 7434.96a6 6 0 0 1 6-6h228a6 6 0 0 1 6 6v46.08a6 6 0 0 1-6 6h-228a6 6 0 0 1-6-6z" stroke="#3a414a" stroke-width="3" fill="#b8f5ed"/><use xlink:href="#B" transform="matrix(1,0,0,1,5972.880801576368,7431.865445969212) translate(35.24691358024691 31.02777777777778)"/><use xlink:href="#C" transform="matrix(1,0,0,1,5972.880801576368,7431.865445969212) translate(145.55555555555554 31.02777777777778)"/><path d="M6498 5981.03a6 6 0 0 1 6-6h228a6 6 0 0 1 6 6v148a6 6 0 0 1-6 6h-228a6 6 0 0 1-6-6z" stroke="#3a414a" stroke-width="3" fill="#fff"/><use xlink:href="#D" transform="matrix(1,0,0,1,6505.998024684002,5983.0277417943225) translate(17.771604938271608 62.77777777777778)"/><use xlink:href="#E" transform="matrix(1,0,0,1,6505.998024684002,5983.0277417943225) translate(140.85802469135803 62.77777777777778)"/><use xlink:href="#F" transform="matrix(1,0,0,1,6505.998024684002,5983.0277417943225) translate(83.6358024691358 89.44444444444446)"/><path d="M6619.5 6829.66h-3V6494.5h3zm0-356.48h-3v-325.54h3z" stroke="#3a414a" stroke-width=".05" fill="#3a414a"/><path d="M6619.5 6831.17h-3v-1.55h3z" fill="#3a414a"/><path d="M6619.52 6831.2h-3.05v-1.6h3.05zm-3-1.56v1.5h2.95v-1.5z" stroke="#3a414a" stroke-width=".05" fill="#3a414a"/><path d="M6625.63 6152.4h-15.27l7.64-12.93z" fill="#3a414a"/><path d="M6628.26 6153.9h-20.53l10.27-17.37zm-15.27-3h10l-5-8.48z" stroke="#3a414a" stroke-width=".05" fill="#3a414a"/><use xlink:href="#G" transform="matrix(1,0,0,1,6589.430123449434,6473.1751246060585) translate(0 14.222222222222223)"/><path d="M6786.02 6210.7a6 6 0 0 1 6-6h228a6 6 0 0 1 6 6v148a6 6 0 0 1-6 6h-228a6 6 0 0 1-6-6z" stroke="#3a414a" stroke-width="3" fill="#fff"/><use xlink:href="#f" transform="matrix(1,0,0,1,6794.0193917275,6212.694380010375) translate(70.7962962962963 62.77777777777778)"/><use xlink:href="#H" transform="matrix(1,0,0,1,6794.0193917275,6212.694380010375) translate(44.80864197530863 89.44444444444446)"/><path d="M6700.07 6250.05l3.96 3.57 4.05 3.35 4.12 3.13 4.2 2.92 4.3 2.72 4.35 2.52 4.43 2.3 4.52 2.14 4.6 1.93 4.67 1.74 4.77 1.55 4.86 1.36 4.97 1.16 5.07.97 5.2.78 5.3.55 5.47.35 4.15.08-.06 3-4.22-.1-5.58-.34-5.44-.57-5.32-.78-5.2-1-5.1-1.2-4.97-1.38-4.9-1.6-4.8-1.78-4.7-1.98-4.62-2.18-4.55-2.38-4.47-2.57-4.38-2.78-4.3-3-4.24-3.2-4.13-3.43-4.05-3.66-2.52-2.46h4.3zm-45.02-95.14l.9 7.17 1.2 7.03 1.45 6.87 1.72 6.7 1.97 6.53 2.2 6.32 2.4 6.1 2.63 5.9 2.82 5.67 2.98 5.43 3.15 5.2 3.07 4.6h-3.6l-2-3-3.22-5.3-3.04-5.55-2.88-5.78-2.68-6-2.46-6.24-2.24-6.44-2-6.64-1.76-6.82-1.5-7-1.2-7.15-.92-7.28-.62-7.37 3-.25z" stroke="#3a414a" stroke-width=".05" fill="#3a414a"/><path d="M6784.52 6283.2v3l-1.57-.04.06-3z" fill="#3a414a"/><path d="M6784.54 6283.17v3.05l-1.62-.03.07-3.06zm-1.57 2.97l1.52.03v-2.95l-1.47-.03z" stroke="#3a414a" stroke-width=".05" fill="#3a414a"/><path d="M6660.92 6152.03l-15.25.68 7.05-13.23z" fill="#3a414a"/><path d="M6663.62 6153.4l-20.5.93 9.47-17.8zm-15.4-2.3l10-.45-5.37-8.23z" stroke="#3a414a" stroke-width=".05" fill="#3a414a"/><use xlink:href="#G" transform="matrix(1,0,0,1,6659.174818108584,6228.443654474159) translate(0 14.222222222222223)"/><path d="M6209.98 6210.7a6 6 0 0 1 6-6h228a6 6 0 0 1 6 6v148a6 6 0 0 1-6 6h-228a6 6 0 0 1-6-6z" stroke="#3a414a" stroke-width="3" fill="#fff"/><use xlink:href="#f" transform="matrix(1,0,0,1,6217.976657640504,6212.694380010375) translate(70.7962962962963 62.77777777777778)"/><use xlink:href="#I" transform="matrix(1,0,0,1,6217.976657640504,6212.694380010375) translate(48.512345679012334 89.44444444444446)"/><path d="M6536.2 6248.3l-3.6 3.84-3.67 3.6-3.72 3.33-3.76 3.12-3.82 2.9-3.87 2.7-3.93 2.48-4 2.3-4.03 2.12-4.12 1.93-4.18 1.76-4.25 1.57-4.34 1.4-4.4 1.24-4.53 1.07-4.63.9-4.75.7-4.9.5-5.03.32-3.66.06-.05-3 3.6-.07 4.9-.32 4.76-.5 4.64-.68 4.5-.86 4.4-1.03 4.3-1.2 4.22-1.36 4.14-1.54 4.06-1.7 4-1.9 3.93-2.05 3.86-2.23 3.83-2.43 3.76-2.63 3.72-2.83 3.67-3.04 3.63-3.26 3.56-3.5 1.9-2h4.1zm39-100.6l-.06 1.07-.67 8.05-1 7.9-1.3 7.75-1.6 7.53-1.88 7.3-2.13 7.02-2.35 6.75-2.56 6.46-2.73 6.15-2.9 5.84-3.04 5.53-1 1.65h-3.52l1.9-3.15 3-5.42 2.83-5.73 2.7-6.04 2.5-6.33 2.32-6.63 2.08-6.9 1.84-7.18 1.57-7.4 1.3-7.62.98-7.8.67-7.92.04-1z" stroke="#3a414a" stroke-width=".05" fill="#3a414a"/><path d="M6453.05 6286.16l-1.57.03v-3l1.5-.04z" fill="#3a414a"/><path d="M6453.07 6286.2l-1.62.02v-3.05l1.56-.03zm-1.57-2.98v2.95l1.52-.03-.06-2.95z" stroke="#3a414a" stroke-width=".05" fill="#3a414a"/><path d="M6581 6152.7l-15.26-.64 8.17-12.6z" fill="#3a414a"/><path d="M6583.57 6154.3l-20.5-.85 10.96-16.92zm-15.14-3.63l10 .4-4.65-8.65z" stroke="#3a414a" stroke-width=".05" fill="#3a414a"/><use xlink:href="#G" transform="matrix(1,0,0,1,6514.559845506302,6226.701072114526) translate(0 14.222222222222223)"/><path d="M6907.52 6438.67h-3v-24.82h3zm0-46.15h-3v-15.22h3z" stroke="#3a414a" stroke-width=".05" fill="#3a414a"/><path d="M6907.52 6440.17h-3v-1.54h3z" fill="#3a414a"/><path d="M6907.54 6440.2h-3.05v-1.6h3.04zm-3-1.54v1.5h2.95v-1.5z" stroke="#3a414a" stroke-width=".05" fill="#3a414a"/><path d="M6913.65 6382.05h-15.27l7.64-12.9z" fill="#3a414a"/><path d="M6916.28 6383.55h-20.53l10.27-17.36zm-15.27-3h10.02l-5-8.46z" stroke="#3a414a" stroke-width=".05" fill="#3a414a"/><use xlink:href="#h" transform="matrix(1,0,0,1,6890.735441110217,6392.516311554752) translate(0 14.222222222222223)"/><path d="M6331.48 6445.43h-3v-28.2h3zm0-49.54h-3v-18.6h3z" stroke="#3a414a" stroke-width=".05" fill="#3a414a"/><path d="M6331.48 6446.93h-3v-1.54h3z" fill="#3a414a"/><path d="M6331.5 6446.95h-3.05v-1.6h3.05zm-3-1.54v1.5h2.95v-1.5z" stroke="#3a414a" stroke-width=".05" fill="#3a414a"/><path d="M6337.6 6382.05h-15.26l7.64-12.9z" fill="#3a414a"/><path d="M6340.24 6383.55h-20.53l10.28-17.36zm-15.27-3h10l-5-8.46z" stroke="#3a414a" stroke-width=".05" fill="#3a414a"/><use xlink:href="#J" transform="matrix(1,0,0,1,6309.754435418281,6395.893484221623) translate(0 14.222222222222223)"/><path d="M6786.02 6447.67a6 6 0 0 1 6-6h228a6 6 0 0 1 6 6v148a6 6 0 0 1-6 6h-228a6 6 0 0 1-6-6z" stroke="#3a414a" stroke-width="3" fill="#fff"/><use xlink:href="#m" transform="matrix(1,0,0,1,6794.0193917275,6449.672686097456) translate(61.53703703703704 62.77777777777778)"/><use xlink:href="#K" transform="matrix(1,0,0,1,6794.0193917275,6449.672686097456) translate(82.46296296296296 89.44444444444446)"/><path d="M6786.02 6607.67a6 6 0 0 1 6-6h228a6 6 0 0 1 6 6v46.1a6 6 0 0 1-6 6h-228a6 6 0 0 1-6-6z" stroke="#3a414a" stroke-width="3" fill="#b8f5ed"/><use xlink:href="#o" transform="matrix(1,0,0,1,6788.923535663364,6604.57683003332) translate(38.73456790123457 31.02777777777778)"/><use xlink:href="#L" transform="matrix(1,0,0,1,6788.923535663364,6604.57683003332) translate(97.80864197530863 31.02777777777778)"/><path d="M6209.98 6454.43a6 6 0 0 1 6-6h228a6 6 0 0 1 6 6v148a6 6 0 0 1-6 6h-228a6 6 0 0 1-6-6z" stroke="#3a414a" stroke-width="3" fill="#fff"/><use xlink:href="#m" transform="matrix(1,0,0,1,6217.976657640504,6456.427132746886) translate(61.53703703703704 62.77777777777778)"/><use xlink:href="#M" transform="matrix(1,0,0,1,6217.976657640504,6456.427132746886) translate(82.46296296296296 89.44444444444446)"/><path d="M6209.98 6614.43a6 6 0 0 1 6-6h228a6 6 0 0 1 6 6v46.08a6 6 0 0 1-6 6h-228a6 6 0 0 1-6-6z" stroke="#3a414a" stroke-width="3" fill="#b8f5ed"/><use xlink:href="#o" transform="matrix(1,0,0,1,6212.880801576368,6611.33127668275) translate(38.73456790123457 31.02777777777778)"/><use xlink:href="#L" transform="matrix(1,0,0,1,6212.880801576368,6611.33127668275) translate(97.80864197530863 31.02777777777778)"/><path d="M6062.83 6673.02l-4.36 4.65-4.05 3.97-3.82 3.44-3.65 3.02-3.53 2.68-3.42 2.38-3.36 2.13-3.3 1.9-3.3 1.72-3.27 1.54-3.28 1.38-3.3 1.23-3.35 1.08-3.4.95-3.47.82-3.56.68-3.68.54-3.8.4-3.96.25-2.6.04-.08-3 2.56-.05 3.83-.25 3.67-.4 3.55-.5 3.43-.67 3.35-.78 3.28-.92 3.22-1.05 3.2-1.18 3.15-1.33 3.16-1.5 3.2-1.65 3.2-1.85 3.24-2.06 3.32-2.3 3.42-2.6 3.56-2.95 3.72-3.35 3.96-3.88 4.28-4.56 2.94-3.4h3.96zm20.15-26.76h-3.55l11.56-18.3h3.54zm114.57-115.7l-.6.08-3.55.52-3.44.66-3.35.78-3.27.92-3.22 1.05-3.18 1.18-3.16 1.33-3.16 1.5-3.17 1.65-3.2 1.85-3.25 2.06-3.33 2.3-3.42 2.6-3.55 2.95-3.73 3.35-3.96 3.88-4.3 4.56-4.7 5.47-5.42 6.83-6.63 9.15-9.87 14.93-4.07 6.45h-3.54l5.1-8.08 9.93-15 6.7-9.26 5.48-6.95 4.8-5.57 4.36-4.65 4.05-3.97 3.82-3.44 3.65-3.02 3.52-2.68 3.4-2.38 3.37-2.13 3.3-1.9 3.3-1.72 3.27-1.54 3.28-1.38 3.3-1.23 3.35-1.08 3.4-.95 3.47-.82 3.56-.68 3.67-.54.66-.07z" stroke="#3a414a" stroke-width=".05" fill="#3a414a"/><path d="M6205.54 6528.66l-12.26 8.65-1.22-15.22z" fill="#3a414a"/><path d="M6208.47 6528.43l-16.48 11.62-1.65-20.47zm-13.9 6.13l8.03-5.66-8.84-4.3z" stroke="#3a414a" stroke-width=".05" fill="#3a414a"/><path d="M5992.37 6707.87h-1.53v-3h1.53z" fill="#3a414a"/><path d="M5992.4 6707.9h-1.6v-3.05h1.6zm-1.54-3v2.95h1.5v-2.95z" stroke="#3a414a" stroke-width=".05" fill="#3a414a"/><use xlink:href="#d" transform="matrix(1,0,0,1,6059.127426068631,6606.632571013819) translate(0 14.222222222222223)"/><path d="M5749.34 6267.15a6 6 0 0 1 6-6h228a6 6 0 0 1 6 6v148a6 6 0 0 1-6 6h-228a6 6 0 0 1-6-6z" stroke="#3a414a" stroke-width="3" fill="#fff"/><use xlink:href="#N" transform="matrix(1,0,0,1,5757.335732572256,6269.154444658949) translate(29.40740740740742 62.77777777777778)"/><use xlink:href="#O" transform="matrix(1,0,0,1,5757.335732572256,6269.154444658949) translate(82.46296296296296 89.44444444444446)"/><path d="M5749.34 6427.15a6 6 0 0 1 6-6h228a6 6 0 0 1 6 6v46.1a6 6 0 0 1-6 6h-228a6 6 0 0 1-6-6z" stroke="#3a414a" stroke-width="3" fill="#b8f5ed"/><use xlink:href="#o" transform="matrix(1,0,0,1,5752.239876508121,6424.058588594813) translate(63.3641975308642 31.02777777777778)"/><use xlink:href="#P" transform="matrix(1,0,0,1,5752.239876508121,6424.058588594813) translate(122.43827160493828 31.02777777777778)"/><path d="M6136.35 6486.93l4.5 5.23 4.13 4.4 3.83 3.75 3.63 3.27 3.45 2.86 3.34 2.53 3.24 2.25 3.16 2.02 3.12 1.8 3.1 1.62 3.07 1.45 3.1 1.28 3.08 1.15 3.13 1.02 3.2.9 3.23.75 3.33.63 3.42.5.17.03-.3 2.98-.24-.03-3.54-.5-3.45-.67-3.36-.78-3.3-.93-3.24-1.05-3.22-1.2-3.2-1.34-3.18-1.5-3.2-1.68-3.23-1.86-3.27-2.1-3.35-2.3-3.43-2.62-3.55-2.94-3.72-3.35-3.92-3.85-4.2-4.48-4.6-5.33-2.56-3.24v-4.84zm-15.92-22.58h-3.52l-26.4-43.04h3.52zm-125.6-124.6l3.8.23 3.68.38 3.55.53 3.45.64 3.37.8 3.3.9 3.25 1.07 3.2 1.2 3.2 1.35 3.2 1.5 3.2 1.67 3.22 1.87 3.28 2.07 3.34 2.32 3.43 2.6 3.55 2.94 3.7 3.35 3.93 3.83 4.2 4.48 4.6 5.34 5.16 6.52 6.1 8.42 4.1 6.2h-3.6l-2.96-4.5-6.03-8.3-5.1-6.43-4.5-5.23-4.1-4.4-3.85-3.75-3.62-3.26-3.45-2.85-3.34-2.53-3.24-2.25-3.17-2.02-3.13-1.8-3.1-1.6-3.07-1.46-3.07-1.3-3.1-1.16-3.13-1-3.18-.9-3.24-.76-3.33-.63-3.42-.5-3.55-.38-3.68-.24-2.4-.04.07-3z" stroke="#3a414a" stroke-width=".05" fill="#3a414a"/><path d="M5992.4 6339.7l-.05 3-1.5-.05v-3z" fill="#3a414a"/><path d="M5992.43 6339.66l-.06 3.05-1.56-.02v-3.05zm-1.57 2.97l1.46.03.06-2.95-1.52-.02z" stroke="#3a414a" stroke-width=".05" fill="#3a414a"/><path d="M6205.54 6526.28l-13.5 6.54 1.27-15.22z" fill="#3a414a"/><path d="M6208.48 6526.52l-18.15 8.8 1.7-20.47zm-14.73 3.8l8.85-4.28-8.02-5.7z" stroke="#3a414a" stroke-width=".05" fill="#3a414a"/><use xlink:href="#d" transform="matrix(1,0,0,1,6045.350743205309,6399.9722250205505) translate(0 14.222222222222223)"/><path d="M6079.36 6691.76l-6.62 9.13-5.44 6.86-4.77 5.54-4.34 4.62-4.04 3.95-3.8 3.43-3.64 3-3.5 2.68-3.43 2.37-3.35 2.13-3.3 1.9-3.27 1.7-3.27 1.55-3.25 1.37-3.3 1.23-3.32 1.08-3.4.95-3.45.8-3.54.7-3.66.53-.6.06-.32-2.98.55-.06 3.54-.52 3.42-.65 3.33-.78 3.26-.9 3.2-1.06 3.18-1.2 3.15-1.3 3.14-1.5 3.16-1.65 3.2-1.84 3.23-2.05 3.3-2.3 3.42-2.6 3.54-2.92 3.7-3.34 3.95-3.88 4.25-4.53 4.7-5.45 5.35-6.78 6.52-9 14.14-22.47h3.55zm33.55-53.35l-4.93 7.87h-3.55l5.97-9.5 5.82-8.8h3.6zm94.1-69.3l-2.52.05-3.8.24-3.68.37-3.52.52-3.43.65-3.33.78-3.27.9-3.2 1.05-3.18 1.18-3.15 1.33-3.15 1.47-3.16 1.65-3.18 1.85-3.24 2.05-3.3 2.3-3.42 2.6-3.54 2.92-3.7 3.35-3.95 3.85-4.26 4.53-3.3 3.85h-3.94l.25-.32 4.78-5.52 4.34-4.63 4.03-3.95 3.8-3.43 3.65-3 3.5-2.67 3.42-2.38 3.34-2.12 3.3-1.9 3.28-1.72 3.26-1.53 3.27-1.38 3.3-1.22 3.32-1.08 3.37-.95 3.46-.8 3.55-.7 3.65-.52 3.78-.4 3.95-.25 2.6-.05z" stroke="#3a414a" stroke-width=".05" fill="#3a414a"/><path d="M6208.48 6569.06l-1.5.04-.08-3 1.58-.04z" fill="#3a414a"/><path d="M6208.5 6569.1l-1.56.02-.06-3.05 1.62-.03zm-1.57-2.98l.06 2.95 1.45-.03v-2.95z" stroke="#3a414a" stroke-width=".05" fill="#3a414a"/><path d="M6007.26 6752.85l-13.5-6.58 12.27-8.64z" fill="#3a414a"/><path d="M6008.96 6755.35l-18.12-8.84 16.47-11.6zm-12.25-9.3l8.85 4.3-.8-9.98z" stroke="#3a414a" stroke-width=".05" fill="#3a414a"/><use xlink:href="#Q" transform="matrix(1,0,0,1,6063.538245508903,6646.264624058209) translate(0 14.222222222222223)"/><path d="M6117.23 6501.14l8 12.1 6.03 8.3 5.1 6.43 4.5 5.23 4.12 4.4 3.83 3.75 3.63 3.26 3.45 2.87 3.34 2.53 3.24 2.25 3.16 2.02 3.12 1.8 3.1 1.6 3.07 1.46 3.1 1.3 3.08 1.15 3.13 1 3.2.9 3.23.76 3.33.63 3.42.5 3.55.38 3.7.23 2.38.05-.06 3-2.45-.05-3.82-.24-3.67-.38-3.54-.53-3.45-.65-3.36-.8-3.3-.9-3.24-1.07-3.22-1.2-3.2-1.33-3.18-1.5-3.2-1.67-3.23-1.87-3.27-2.08-3.35-2.32-3.43-2.6-3.55-2.95-3.72-3.35-3.92-3.84-4.2-4.5-4.6-5.32-5.16-6.52-6.1-8.42-8.07-12.2-10.47-17.06h3.52zm-46.8-74.74l6.13 8.44 18.1 29.5h-3.52l-17.08-27.83-6-8.3-5.1-6.4-.4-.5h3.85zm-68.12-45l3.55.53 3.45.65 3.37.8 3.3.9 3.25 1.07 3.2 1.2 3.2 1.34 3.2 1.5 3.2 1.66 3.22 1.87 3.28 2.08 3.34 2.33 3.43 2.6.05.06v3.88l-1.92-1.6-3.34-2.52-3.24-2.25-3.17-2-3.13-1.8-3.1-1.62-3.07-1.45-3.07-1.3-3.1-1.14-3.13-1.03-3.18-.9-3.24-.75-3.33-.63-3.42-.52-.17-.02.3-2.98z" stroke="#3a414a" stroke-width=".05" fill="#3a414a"/><path d="M6208.48 6566.06v3l-1.58-.03.07-3z" fill="#3a414a"/><path d="M6208.5 6566.04v3.05l-1.62-.04.06-3.05zm-1.57 2.97l1.52.04v-2.95l-1.46-.04z" stroke="#3a414a" stroke-width=".05" fill="#3a414a"/><path d="M6006 6391.12l-12.23-8.68 13.5-6.54z" fill="#3a414a"/><path d="M6007.28 6393.86l-16.44-11.66 18.14-8.8zm-10.57-11.18l8.03 5.7.83-9.98z" stroke="#3a414a" stroke-width=".05" fill="#3a414a"/><use xlink:href="#e" transform="matrix(1,0,0,1,6067.418065395987,6464.347694655391) translate(0 14.222222222222223)"/><path d="M7282.06 6267.15a6 6 0 0 1 6-6h228a6 6 0 0 1 6 6v148a6 6 0 0 1-6 6h-228a6 6 0 0 1-6-6z" stroke="#3a414a" stroke-width="3" fill="#fff"/><use xlink:href="#R" transform="matrix(1,0,0,1,7290.059434651018,6269.154444658949) translate(26.969135802469154 62.77777777777778)"/><use xlink:href="#S" transform="matrix(1,0,0,1,7290.059434651018,6269.154444658949) translate(82.46296296296296 89.44444444444446)"/><path d="M7282.06 6427.15a6 6 0 0 1 6-6h228a6 6 0 0 1 6 6v46.1a6 6 0 0 1-6 6h-228a6 6 0 0 1-6-6z" stroke="#3a414a" stroke-width="3" fill="#b8f5ed"/><g><use xlink:href="#o" transform="matrix(1,0,0,1,7284.963578586882,6424.058588594813) translate(38.05555555555556 31.02777777777778)"/><use xlink:href="#T" transform="matrix(1,0,0,1,7284.963578586882,6424.058588594813) translate(97.12962962962962 31.02777777777778)"/></g><path d="M7216.78 6687.25l4.13 2.87 4.04 2.55 3.96 2.3 3.93 2.05 3.93 1.85 3.93 1.65 3.96 1.48 4.03 1.3 4.1 1.15 4.2 1 4.34.82 4.5.66 4.67.5 4.9.3 3.7.08-.08 3-3.74-.07-5.02-.32-4.8-.5-4.62-.67-4.46-.85-4.33-1.02-4.23-1.18-4.15-1.35-4.08-1.52-4.07-1.7-4.03-1.9-4.05-2.1-4.07-2.36-4.13-2.62-4.23-2.94-2.25-1.7v-3.78zm-49.76-55.36l11.75 16.26 7.75 9.8 6.32 7.33 5.53 5.9 5.04 4.93 3.1 2.78h-4.48l-.67-.6-5.12-5-5.62-6-6.4-7.43-7.82-9.9-11.8-16.34-5.1-7.35h3.64zm-124.4-110.8l4.62.68 4.46.85 4.33 1.02 4.23 1.18 4.14 1.35 4.1 1.52 4.04 1.7 4.04 1.9 4.04 2.1 4.08 2.37 4.13 2.62 4.23 2.93 4.35 3.3 4.55 3.76 4.78 4.3 5.12 5.02 5.62 6 6.4 7.42 7.84 9.9 16.6 23.9h-3.65l-15.35-22.1-7.74-9.8-6.32-7.32-5.54-5.9-5.03-4.94-4.7-4.22-4.42-3.67-4.26-3.24-4.13-2.87-4.03-2.56-3.96-2.3-3.93-2.05-3.93-1.86-3.93-1.65-3.98-1.5-4.03-1.3-4.12-1.14-4.2-1-4.34-.82-4.5-.66-3.78-.4.3-2.98z" stroke="#3a414a" stroke-width=".05" fill="#3a414a"/><path d="M7280.56 6707.84v3l-1.57-.04.05-3z" fill="#3a414a"/><path d="M7280.58 6707.8v3.06l-1.62-.03.06-3.05zm-1.57 2.98l1.53.03v-2.94l-1.46-.03z" stroke="#3a414a" stroke-width=".05" fill="#3a414a"/><path d="M7042.88 6530.27l-12.42-8.42 13.36-6.82z" fill="#3a414a"/><path d="M7044.2 6533l-16.68-11.33 17.96-9.17zm-10.8-10.96l8.14 5.5.62-9.98z" stroke="#3a414a" stroke-width=".05" fill="#3a414a"/><g><use xlink:href="#d" transform="matrix(1,0,0,1,7113.513094432914,6604.946165077521) translate(0 14.222222222222223)"/></g><path d="M7127.18 6470.2l-1.5 1.75h-3.45v4l-1.96 2.27-5.9 6.3-5.34 5.23-4.94 4.45-4.68 3.87-4.47 3.4-4.34 3-4.22 2.7-4.17 2.4-4.13 2.17-4.14 1.95-4.15 1.73-4.2 1.56-4.25 1.37-4.35 1.22-4.45 1.03-4.6.88-4.76.7-4.4.47-.3-2.98 4.32-.47 4.63-.68 4.47-.85 4.34-1.02 4.22-1.18 4.14-1.34 4.08-1.52 4.03-1.7 4.03-1.9 4.03-2.1 4.07-2.34 4.12-2.62 4.23-2.94 4.37-3.32 4.57-3.8 4.85-4.36 5.24-5.13 5.84-6.22 6.8-7.86 7.86-10.76h3.72zm151.9-127.5l-3.88.07-5.07.3-4.84.52-4.65.68-4.47.85-4.34 1.02-4.22 1.18-4.14 1.34-4.08 1.52-4.03 1.68-4.02 1.9-4.03 2.1-4.07 2.35-4.13 2.62-4.22 2.94-4.38 3.3-4.57 3.8-4.84 4.36-5.23 5.14-5.83 6.2-6.8 7.9-8.82 11.16-22.4 30.6h-3.7l23.7-32.4 8.9-11.26 6.9-8 5.9-6.3 5.33-5.22 4.94-4.46 4.66-3.86 4.47-3.4 4.33-3 4.24-2.7 4.17-2.4 4.14-2.17 4.15-1.96 4.15-1.74 4.2-1.56 4.25-1.4 4.35-1.2 4.45-1.05 4.6-.88 4.76-.7 4.98-.53 5.2-.33 3.94-.08z" stroke="#3a414a" stroke-width=".05" fill="#3a414a"/><path d="M7280.56 6342.65l-1.5.04-.07-3 1.56-.05z" fill="#3a414a"/><path d="M7280.58 6342.68l-1.56.03-.06-3.04 1.62-.03zm-1.57-2.97l.07 2.96 1.46-.03v-2.95z" stroke="#3a414a" stroke-width=".05" fill="#3a414a"/><path d="M7043.8 6528.35l-13.34-6.85 12.43-8.4z" fill="#3a414a"/><path d="M7045.46 6530.88l-17.94-9.2 16.7-11.3zm-12.06-9.56l8.75 4.5-.6-10z" stroke="#3a414a" stroke-width=".05" fill="#3a414a"/><g><use xlink:href="#d" transform="matrix(1,0,0,1,7101.993044908917,6436.25211685977) translate(0 14.222222222222223)"/></g><path d="M7193.3 6706.1l5.47 5.38 5.03 4.53 4.7 3.9 4.5 3.42 4.34 3.02 4.23 2.68 4.16 2.4 4.13 2.16 4.12 1.94 4.13 1.74 4.2 1.55 4.24 1.4 4.34 1.2 4.46 1.05 4.6.88 4.8.7 4.88.52-.3 2.98-4.96-.5-4.9-.74-4.74-.9-4.6-1.1-4.45-1.23-4.36-1.42-4.3-1.6-4.24-1.8-4.24-1.98-4.23-2.22-4.28-2.46-4.34-2.77-4.44-3.08-4.6-3.5-4.8-3.97-5.12-4.6-5.57-5.47-6.26-6.67-1.12-1.28h4.02zm-62.58-79.67l10.7 13.57 29.26 38.9h-3.75l-27.88-37.07-10.65-13.5-1.77-2.05h3.96zm-97.52-55.1l5.4.34 5.1.54 4.93.73 4.73.9 4.58 1.08 4.47 1.26 4.37 1.4 4.3 1.6 4.25 1.8 4.24 2 4.23 2.2 4.26 2.48 4.34 2.75 4.44 3.08 4.6 3.5 4.8 3.97 5.12 4.6 2.15 2.12v4.2l-4.2-4.13-5.02-4.52-4.7-3.9-4.5-3.4-4.34-3.03-4.23-2.7-4.15-2.4-4.13-2.16-4.12-1.94-4.13-1.74-4.18-1.55-4.26-1.37-4.34-1.2-4.46-1.06-4.6-.88-4.8-.7-5-.54-5.26-.33-4.1-.1.07-2.98z" stroke="#3a414a" stroke-width=".05" fill="#3a414a"/><path d="M7029.1 6571.25l-.07 3-1.5-.04v-3z" fill="#3a414a"/><path d="M7029.12 6571.22l-.06 3.05-1.57-.03v-3.05zm-1.58 2.97l1.47.02.07-2.95-1.53-.03z" stroke="#3a414a" stroke-width=".05" fill="#3a414a"/><path d="M7277.62 6746.34l-13.34 6.87.9-15.24z" fill="#3a414a"/><path d="M7280.56 6746.5l-17.93 9.25 1.2-20.5zm-14.63 4.17l8.75-4.5-8.16-5.5z" stroke="#3a414a" stroke-width=".05" fill="#3a414a"/><g><use xlink:href="#Q" transform="matrix(1,0,0,1,7140.87097392435,6678.913331315621) translate(0 14.222222222222223)"/></g><path d="M7136.05 6510.02l-8.9 11.25-6.88 8-5.9 6.3-5.34 5.22-4.94 4.44-4.68 3.87-4.47 3.4-4.34 3.02-4.22 2.68-4.17 2.4-4.13 2.18-4.14 1.95-4.15 1.74-4.2 1.56-4.25 1.4-4.35 1.2-4.45 1.04-4.6.88-4.76.7-4.97.52-5.2.33-3.95.08-.06-3 3.88-.08 5.07-.32 4.84-.5 4.63-.7 4.47-.84 4.34-1.02 4.22-1.18 4.14-1.34 4.08-1.52 4.03-1.7 4.03-1.9 4.03-2.1 4.07-2.34 4.12-2.62 4.23-2.94 4.37-3.32 4.57-3.8 4.85-4.35 5.24-5.13 5.84-6.22 6.8-7.9 8.82-11.15 10.92-14.92h3.72zm27.87-38.07h-3.72l10.5-14.36 3.73-.02zm105.7-77.77l-4.33.45-4.65.7-4.47.84-4.34 1.02-4.22 1.17-4.14 1.34-4.08 1.53-4.03 1.7-4.02 1.9-4.03 2.1-4.07 2.34-4.13 2.62-4.22 2.93-4.38 3.32-4.57 3.8-4.84 4.35-5.23 5.14-5.83 6.22-6.8 7.87-.5.7v-4.7l5.07-5.88 5.92-6.3 5.33-5.23 4.94-4.45 4.66-3.87 4.47-3.4 4.33-3 4.24-2.7 4.17-2.4 4.14-2.17 4.15-1.95 4.15-1.74 4.2-1.56 4.25-1.4 4.35-1.2 4.45-1.04 4.6-.88 4.76-.7 4.4-.46z" stroke="#3a414a" stroke-width=".05" fill="#3a414a"/><path d="M7029.1 6574.18l-1.58.03v-3l1.5-.02z" fill="#3a414a"/><path d="M7029.12 6574.2l-1.63.04v-3.05l1.56-.04zm-1.58-2.96v2.95l1.53-.04-.06-2.95z" stroke="#3a414a" stroke-width=".05" fill="#3a414a"/><path d="M7277.62 6392.37l-12.43 8.4-.93-15.25z" fill="#3a414a"/><path d="M7280.56 6392.2l-16.7 11.28-1.24-20.5zm-14.03 5.85l8.15-5.5-8.75-4.5z" stroke="#3a414a" stroke-width=".05" fill="#3a414a"/><g><use xlink:href="#e" transform="matrix(1,0,0,1,7122.225634431289,6471.946374568665) translate(0 14.222222222222223)"/></g><defs><path fill="#3a414a" d="M67-125c0 53 21 87 73 88 37 1 54-22 65-47l45 17C233-25 199 4 140 4 58 4 20-42 15-125 8-235 124-281 211-232c18 10 29 29 36 50l-46 12c-8-25-30-41-62-41-52 0-71 34-72 86" id="U"/><path fill="#3a414a" d="M114-157C55-157 80-60 75 0H25v-261h50l-1 109c12-26 28-41 61-42 86-1 58 113 63 194h-50c-7-57 23-157-34-157" id="V"/><path fill="#3a414a" d="M133-34C117-15 103 5 69 4 32 3 11-16 11-54c-1-60 55-63 116-61 1-26-3-47-28-47-18 1-26 9-28 27l-52-2c7-38 36-58 82-57s74 22 75 68l1 82c-1 14 12 18 25 15v27c-30 8-71 5-69-32zm-48 3c29 0 43-24 42-57-32 0-66-3-65 30 0 17 8 27 23 27" id="W"/><path fill="#3a414a" d="M135-150c-39-12-60 13-60 57V0H25l-1-190h47c2 13-1 29 3 40 6-28 27-53 61-41v41" id="X"/><path fill="#3a414a" d="M190-63c-7 42-38 67-86 67-59 0-84-38-90-98-12-110 154-137 174-36l-49 2c-2-19-15-32-35-32-30 0-35 28-38 64-6 74 65 87 74 30" id="Y"/><path fill="#3a414a" d="M115-3C79 11 28 4 28-45v-112H4v-33h27l15-45h31v45h36v33H77v99c-1 23 16 31 38 25v30" id="Z"/><path fill="#3a414a" d="M185-48c-13 30-37 53-82 52C43 2 14-33 14-96s30-98 90-98c62 0 83 45 84 108H66c0 31 8 55 39 56 18 0 30-7 34-22zm-45-69c5-46-57-63-70-21-2 6-4 13-4 21h74" id="aa"/><g id="a"><use transform="matrix(0.06172839506172839,0,0,0.06172839506172839,0,0)" xlink:href="#U"/><use transform="matrix(0.06172839506172839,0,0,0.06172839506172839,15.987654320987653,0)" xlink:href="#V"/><use transform="matrix(0.06172839506172839,0,0,0.06172839506172839,29.50617283950617,0)" xlink:href="#W"/><use transform="matrix(0.06172839506172839,0,0,0.06172839506172839,41.85185185185185,0)" xlink:href="#X"/><use transform="matrix(0.06172839506172839,0,0,0.06172839506172839,50.49382716049382,0)" xlink:href="#W"/><use transform="matrix(0.06172839506172839,0,0,0.06172839506172839,62.8395061728395,0)" xlink:href="#Y"/><use transform="matrix(0.06172839506172839,0,0,0.06172839506172839,75.18518518518518,0)" xlink:href="#Z"/><use transform="matrix(0.06172839506172839,0,0,0.06172839506172839,82.53086419753086,0)" xlink:href="#aa"/><use transform="matrix(0.06172839506172839,0,0,0.06172839506172839,94.87654320987654,0)" xlink:href="#X"/></g><path fill="#3a414a" d="M14-72v-43h91v43H14" id="ab"/><path fill="#3a414a" d="M101-251c68 0 84 54 84 127C185-50 166 4 99 4S15-52 14-124c-1-75 17-127 87-127zm-1 216c37-5 36-46 36-89s4-89-36-89c-39 0-36 45-36 89 0 43-3 85 36 89" id="ac"/><path fill="#3a414a" d="M23 0v-37h61v-169l-59 37v-38l62-41h46v211h57V0H23" id="ad"/><g id="b"><use transform="matrix(0.06172839506172839,0,0,0.06172839506172839,0,0)" xlink:href="#Y"/><use transform="matrix(0.06172839506172839,0,0,0.06172839506172839,12.345679012345679,0)" xlink:href="#V"/><use transform="matrix(0.06172839506172839,0,0,0.06172839506172839,25.864197530864196,0)" xlink:href="#X"/><use transform="matrix(0.06172839506172839,0,0,0.06172839506172839,34.50617283950617,0)" xlink:href="#ab"/><use transform="matrix(0.06172839506172839,0,0,0.06172839506172839,41.85185185185185,0)" xlink:href="#ac"/><use transform="matrix(0.06172839506172839,0,0,0.06172839506172839,54.197530864197525,0)" xlink:href="#ad"/></g><path fill="#333" d="M24-248c120-7 223 5 221 122C244-46 201 0 124 0H24v-248zM76-40c74 7 117-18 117-86 0-67-45-88-117-82v168" id="ae"/><path fill="#333" d="M25-224v-37h50v37H25zM25 0v-190h50V0H25" id="af"/><path fill="#333" d="M135-194c53 0 70 44 70 98 0 56-19 98-73 100-31 1-45-17-59-34 3 33 2 69 2 105H25l-1-265h48c2 10 0 23 3 31 11-24 29-35 60-35zM114-30c33 0 39-31 40-66 0-38-9-64-40-64-56 0-55 130 0 130" id="ag"/><path fill="#333" d="M190-63c-7 42-38 67-86 67-59 0-84-38-90-98-12-110 154-137 174-36l-49 2c-2-19-15-32-35-32-30 0-35 28-38 64-6 74 65 87 74 30" id="ah"/><path fill="#333" d="M115-3C79 11 28 4 28-45v-112H4v-33h27l15-45h31v45h36v33H77v99c-1 23 16 31 38 25v30" id="ai"/><path fill="#333" d="M110-194c64 0 96 36 96 99 0 64-35 99-97 99-61 0-95-36-95-99 0-62 34-99 96-99zm-1 164c35 0 45-28 45-65 0-40-10-65-43-65-34 0-45 26-45 65 0 36 10 65 43 65" id="aj"/><path fill="#333" d="M135-150c-39-12-60 13-60 57V0H25l-1-190h47c2 13-1 29 3 40 6-28 27-53 61-41v41" id="ak"/><g id="c"><use transform="matrix(0.04938271604938272,0,0,0.04938271604938272,0,0)" xlink:href="#ae"/><use transform="matrix(0.04938271604938272,0,0,0.04938271604938272,12.790123456790125,0)" xlink:href="#af"/><use transform="matrix(0.04938271604938272,0,0,0.04938271604938272,17.7283950617284,0)" xlink:href="#ag"/><use transform="matrix(0.04938271604938272,0,0,0.04938271604938272,28.54320987654322,0)" xlink:href="#af"/><use transform="matrix(0.04938271604938272,0,0,0.04938271604938272,33.48148148148149,0)" xlink:href="#ah"/><use transform="matrix(0.04938271604938272,0,0,0.04938271604938272,43.35802469135803,0)" xlink:href="#ai"/><use transform="matrix(0.04938271604938272,0,0,0.04938271604938272,49.23456790123458,0)" xlink:href="#aj"/><use transform="matrix(0.04938271604938272,0,0,0.04938271604938272,60.0493827160494,0)" xlink:href="#ak"/></g><path fill="#333" d="M185-48c-13 30-37 53-82 52C43 2 14-33 14-96s30-98 90-98c62 0 83 45 84 108H66c0 31 8 55 39 56 18 0 30-7 34-22zm-45-69c5-46-57-63-70-21-2 6-4 13-4 21h74" id="al"/><path fill="#333" d="M135-194c87-1 58 113 63 194h-50c-7-57 23-157-34-157-59 0-34 97-39 157H25l-1-190h47c2 12-1 28 3 38 12-26 28-41 61-42" id="am"/><g id="d"><use transform="matrix(0.04938271604938272,0,0,0.04938271604938272,0,0)" xlink:href="#ae"/><use transform="matrix(0.04938271604938272,0,0,0.04938271604938272,12.790123456790125,0)" xlink:href="#al"/><use transform="matrix(0.04938271604938272,0,0,0.04938271604938272,22.66666666666667,0)" xlink:href="#ag"/><use transform="matrix(0.04938271604938272,0,0,0.04938271604938272,33.48148148148149,0)" xlink:href="#af"/><use transform="matrix(0.04938271604938272,0,0,0.04938271604938272,38.41975308641976,0)" xlink:href="#ah"/><use transform="matrix(0.04938271604938272,0,0,0.04938271604938272,48.296296296296305,0)" xlink:href="#ai"/><use transform="matrix(0.04938271604938272,0,0,0.04938271604938272,54.17283950617284,0)" xlink:href="#af"/><use transform="matrix(0.04938271604938272,0,0,0.04938271604938272,59.111111111111114,0)" xlink:href="#aj"/><use transform="matrix(0.04938271604938272,0,0,0.04938271604938272,69.92592592592594,0)" xlink:href="#am"/></g><path fill="#333" d="M137-138c1-29-70-34-71-4 15 46 118 7 119 86 1 83-164 76-172 9l43-7c4 19 20 25 44 25 33 8 57-30 24-41C81-84 22-81 20-136c-2-80 154-74 161-7" id="an"/><g id="e"><use transform="matrix(0.04938271604938272,0,0,0.04938271604938272,0,0)" xlink:href="#ae"/><use transform="matrix(0.04938271604938272,0,0,0.04938271604938272,12.790123456790125,0)" xlink:href="#al"/><use transform="matrix(0.04938271604938272,0,0,0.04938271604938272,22.66666666666667,0)" xlink:href="#ag"/><use transform="matrix(0.04938271604938272,0,0,0.04938271604938272,33.48148148148149,0)" xlink:href="#af"/><use transform="matrix(0.04938271604938272,0,0,0.04938271604938272,38.41975308641976,0)" xlink:href="#ah"/><use transform="matrix(0.04938271604938272,0,0,0.04938271604938272,48.296296296296305,0)" xlink:href="#ai"/><use transform="matrix(0.04938271604938272,0,0,0.04938271604938272,54.17283950617284,0)" xlink:href="#an"/></g><path fill="#3a414a" d="M110-194c64 0 96 36 96 99 0 64-35 99-97 99-61 0-95-36-95-99 0-62 34-99 96-99zm-1 164c35 0 45-28 45-65 0-40-10-65-43-65-34 0-45 26-45 65 0 36 10 65 43 65" id="ao"/><path fill="#3a414a" d="M135-194c87-1 58 113 63 194h-50c-7-57 23-157-34-157-59 0-34 97-39 157H25l-1-190h47c2 12-1 28 3 38 12-26 28-41 61-42" id="ap"/><path fill="#3a414a" d="M144 0l-44-69L55 0H2l70-98-66-92h53l41 62 40-62h54l-67 91 71 99h-54" id="aq"/><g id="f"><use transform="matrix(0.06172839506172839,0,0,0.06172839506172839,0,0)" xlink:href="#U"/><use transform="matrix(0.06172839506172839,0,0,0.06172839506172839,15.987654320987653,0)" xlink:href="#ao"/><use transform="matrix(0.06172839506172839,0,0,0.06172839506172839,29.50617283950617,0)" xlink:href="#ap"/><use transform="matrix(0.06172839506172839,0,0,0.06172839506172839,43.02469135802469,0)" xlink:href="#Z"/><use transform="matrix(0.06172839506172839,0,0,0.06172839506172839,50.37037037037037,0)" xlink:href="#aa"/><use transform="matrix(0.06172839506172839,0,0,0.06172839506172839,62.716049382716044,0)" xlink:href="#aq"/><use transform="matrix(0.06172839506172839,0,0,0.06172839506172839,75.06172839506172,0)" xlink:href="#Z"/></g><path fill="#3a414a" d="M137-138c1-29-70-34-71-4 15 46 118 7 119 86 1 83-164 76-172 9l43-7c4 19 20 25 44 25 33 8 57-30 24-41C81-84 22-81 20-136c-2-80 154-74 161-7" id="ar"/><path fill="#3a414a" d="M4 7l51-268h42L46 7H4" id="as"/><path fill="#3a414a" d="M88-194c31-1 46 15 58 34l-1-101h50l1 261h-48c-2-10 0-23-3-31C134-8 116 4 84 4 32 4 16-41 15-95c0-56 19-97 73-99zm17 164c33 0 40-30 41-66 1-37-9-64-41-64s-38 30-39 65c0 43 13 65 39 65" id="at"/><path fill="#3a414a" d="M135-194c53 0 70 44 70 98 0 56-19 98-73 100-31 1-45-17-59-34 3 33 2 69 2 105H25l-1-265h48c2 10 0 23 3 31 11-24 29-35 60-35zM114-30c33 0 39-31 40-66 0-38-9-64-40-64-56 0-55 130 0 130" id="au"/><g id="g"><use transform="matrix(0.06172839506172839,0,0,0.06172839506172839,0,0)" xlink:href="#W"/><use transform="matrix(0.06172839506172839,0,0,0.06172839506172839,12.345679012345679,0)" xlink:href="#ar"/><use transform="matrix(0.06172839506172839,0,0,0.06172839506172839,24.691358024691358,0)" xlink:href="#Z"/><use transform="matrix(0.06172839506172839,0,0,0.06172839506172839,32.03703703703704,0)" xlink:href="#ab"/><use transform="matrix(0.06172839506172839,0,0,0.06172839506172839,39.382716049382715,0)" xlink:href="#ac"/><use transform="matrix(0.06172839506172839,0,0,0.06172839506172839,51.72839506172839,0)" xlink:href="#ad"/><use transform="matrix(0.06172839506172839,0,0,0.06172839506172839,64.07407407407408,0)" xlink:href="#as"/><use transform="matrix(0.06172839506172839,0,0,0.06172839506172839,70.24691358024691,0)" xlink:href="#at"/><use transform="matrix(0.06172839506172839,0,0,0.06172839506172839,83.76543209876543,0)" xlink:href="#au"/><use transform="matrix(0.06172839506172839,0,0,0.06172839506172839,97.28395061728395,0)" xlink:href="#ab"/><use transform="matrix(0.06172839506172839,0,0,0.06172839506172839,104.62962962962963,0)" xlink:href="#ac"/><use transform="matrix(0.06172839506172839,0,0,0.06172839506172839,116.97530864197532,0)" xlink:href="#ad"/></g><path fill="#333" d="M114-157C55-157 80-60 75 0H25v-261h50l-1 109c12-26 28-41 61-42 86-1 58 113 63 194h-50c-7-57 23-157-34-157" id="av"/><path fill="#333" d="M133-34C117-15 103 5 69 4 32 3 11-16 11-54c-1-60 55-63 116-61 1-26-3-47-28-47-18 1-26 9-28 27l-52-2c7-38 36-58 82-57s74 22 75 68l1 82c-1 14 12 18 25 15v27c-30 8-71 5-69-32zm-48 3c29 0 43-24 42-57-32 0-66-3-65 30 0 17 8 27 23 27" id="aw"/><g id="h"><use transform="matrix(0.04938271604938272,0,0,0.04938271604938272,0,0)" xlink:href="#av"/><use transform="matrix(0.04938271604938272,0,0,0.04938271604938272,10.814814814814815,0)" xlink:href="#aw"/><use transform="matrix(0.04938271604938272,0,0,0.04938271604938272,20.69135802469136,0)" xlink:href="#an"/></g><path fill="#333" d="M85 4C-2 5 27-109 22-190h50c7 57-23 150 33 157 60-5 35-97 40-157h50l1 190h-47c-2-12 1-28-3-38-12 25-28 42-61 42" id="ax"/><path fill="#333" d="M88-194c31-1 46 15 58 34l-1-101h50l1 261h-48c-2-10 0-23-3-31C134-8 116 4 84 4 32 4 16-41 15-95c0-56 19-97 73-99zm17 164c33 0 40-30 41-66 1-37-9-64-41-64s-38 30-39 65c0 43 13 65 39 65" id="ay"/><path fill="#333" d="M182-130c37 4 62 22 62 59C244 23 116-4 24 0v-248c84 5 203-23 205 63 0 31-19 50-47 55zM76-148c40-3 101 13 101-30 0-44-60-28-101-31v61zm0 110c48-3 116 14 116-37 0-48-69-32-116-35v72" id="az"/><path fill="#333" d="M123 10C108 53 80 86 19 72V37c35 8 53-11 59-39L3-190h52l48 148c12-52 28-100 44-148h51" id="aA"/><g id="i"><use transform="matrix(0.04938271604938272,0,0,0.04938271604938272,0,0)" xlink:href="#ax"/><use transform="matrix(0.04938271604938272,0,0,0.04938271604938272,10.814814814814815,0)" xlink:href="#an"/><use transform="matrix(0.04938271604938272,0,0,0.04938271604938272,20.69135802469136,0)" xlink:href="#al"/><use transform="matrix(0.04938271604938272,0,0,0.04938271604938272,30.567901234567906,0)" xlink:href="#ay"/><use transform="matrix(0.04938271604938272,0,0,0.04938271604938272,41.38271604938272,0)" xlink:href="#az"/><use transform="matrix(0.04938271604938272,0,0,0.04938271604938272,54.17283950617284,0)" xlink:href="#aA"/></g><g id="j"><use transform="matrix(0.06172839506172839,0,0,0.06172839506172839,0,0)" xlink:href="#at"/><use transform="matrix(0.06172839506172839,0,0,0.06172839506172839,13.518518518518517,0)" xlink:href="#au"/><use transform="matrix(0.06172839506172839,0,0,0.06172839506172839,27.037037037037035,0)" xlink:href="#ab"/><use transform="matrix(0.06172839506172839,0,0,0.06172839506172839,34.382716049382715,0)" xlink:href="#ac"/><use transform="matrix(0.06172839506172839,0,0,0.06172839506172839,46.72839506172839,0)" xlink:href="#ad"/><use transform="matrix(0.06172839506172839,0,0,0.06172839506172839,59.07407407407407,0)" xlink:href="#as"/><use transform="matrix(0.06172839506172839,0,0,0.06172839506172839,65.24691358024691,0)" xlink:href="#ar"/><use transform="matrix(0.06172839506172839,0,0,0.06172839506172839,77.5925925925926,0)" xlink:href="#Y"/><use transform="matrix(0.06172839506172839,0,0,0.06172839506172839,89.93827160493828,0)" xlink:href="#ab"/><use transform="matrix(0.06172839506172839,0,0,0.06172839506172839,97.28395061728396,0)" xlink:href="#ad"/><use transform="matrix(0.06172839506172839,0,0,0.06172839506172839,109.62962962962965,0)" xlink:href="#ac"/></g><g id="k"><use transform="matrix(0.04938271604938272,0,0,0.04938271604938272,0,0)" xlink:href="#ax"/><use transform="matrix(0.04938271604938272,0,0,0.04938271604938272,10.814814814814815,0)" xlink:href="#an"/><use transform="matrix(0.04938271604938272,0,0,0.04938271604938272,20.69135802469136,0)" xlink:href="#al"/><use transform="matrix(0.04938271604938272,0,0,0.04938271604938272,30.567901234567906,0)" xlink:href="#an"/></g><path fill="#3a414a" d="M231 0h-52l-39-155L100 0H48L-1-190h46L77-45c9-52 24-97 36-145h53l37 145 32-145h46" id="aB"/><path fill="#3a414a" d="M135-194c52 0 70 43 70 98 0 56-19 99-73 100-30 1-46-15-58-35L72 0H24l1-261h50v104c11-23 29-37 60-37zM114-30c31 0 40-27 40-66 0-37-7-63-39-63s-41 28-41 65c0 36 8 64 40 64" id="aC"/><g id="l"><use transform="matrix(0.06172839506172839,0,0,0.06172839506172839,0,0)" xlink:href="#aB"/><use transform="matrix(0.06172839506172839,0,0,0.06172839506172839,17.28395061728395,0)" xlink:href="#X"/><use transform="matrix(0.06172839506172839,0,0,0.06172839506172839,25.925925925925924,0)" xlink:href="#aC"/><use transform="matrix(0.06172839506172839,0,0,0.06172839506172839,39.44444444444444,0)" xlink:href="#ab"/><use transform="matrix(0.06172839506172839,0,0,0.06172839506172839,46.79012345679012,0)" xlink:href="#ac"/><use transform="matrix(0.06172839506172839,0,0,0.06172839506172839,59.1358024691358,0)" xlink:href="#ad"/><use transform="matrix(0.06172839506172839,0,0,0.06172839506172839,71.48148148148148,0)" xlink:href="#as"/><use transform="matrix(0.06172839506172839,0,0,0.06172839506172839,77.65432098765432,0)" xlink:href="#at"/><use transform="matrix(0.06172839506172839,0,0,0.06172839506172839,91.17283950617283,0)" xlink:href="#au"/><use transform="matrix(0.06172839506172839,0,0,0.06172839506172839,104.69135802469135,0)" xlink:href="#ab"/><use transform="matrix(0.06172839506172839,0,0,0.06172839506172839,112.03703703703704,0)" xlink:href="#ac"/><use transform="matrix(0.06172839506172839,0,0,0.06172839506172839,124.38271604938272,0)" xlink:href="#ad"/></g><path fill="#3a414a" d="M24-248c120-7 223 5 221 122C244-46 201 0 124 0H24v-248zM76-40c74 7 117-18 117-86 0-67-45-88-117-82v168" id="aD"/><path fill="#3a414a" d="M25-224v-37h50v37H25zM25 0v-190h50V0H25" id="aE"/><g id="m"><use transform="matrix(0.06172839506172839,0,0,0.06172839506172839,0,0)" xlink:href="#aD"/><use transform="matrix(0.06172839506172839,0,0,0.06172839506172839,15.987654320987653,0)" xlink:href="#aa"/><use transform="matrix(0.06172839506172839,0,0,0.06172839506172839,28.333333333333332,0)" xlink:href="#au"/><use transform="matrix(0.06172839506172839,0,0,0.06172839506172839,41.85185185185185,0)" xlink:href="#aE"/><use transform="matrix(0.06172839506172839,0,0,0.06172839506172839,48.02469135802469,0)" xlink:href="#Y"/><use transform="matrix(0.06172839506172839,0,0,0.06172839506172839,60.37037037037037,0)" xlink:href="#Z"/><use transform="matrix(0.06172839506172839,0,0,0.06172839506172839,67.71604938271605,0)" xlink:href="#aE"/><use transform="matrix(0.06172839506172839,0,0,0.06172839506172839,73.88888888888889,0)" xlink:href="#ao"/><use transform="matrix(0.06172839506172839,0,0,0.06172839506172839,87.4074074074074,0)" xlink:href="#ap"/></g><g id="n"><use transform="matrix(0.06172839506172839,0,0,0.06172839506172839,0,0)" xlink:href="#at"/><use transform="matrix(0.06172839506172839,0,0,0.06172839506172839,13.518518518518517,0)" xlink:href="#au"/><use transform="matrix(0.06172839506172839,0,0,0.06172839506172839,27.037037037037035,0)" xlink:href="#ab"/><use transform="matrix(0.06172839506172839,0,0,0.06172839506172839,34.382716049382715,0)" xlink:href="#ac"/><use transform="matrix(0.06172839506172839,0,0,0.06172839506172839,46.72839506172839,0)" xlink:href="#ad"/></g><path fill="#3a414a" d="M123 10C108 53 80 86 19 72V37c35 8 53-11 59-39L3-190h52l48 148c12-52 28-100 44-148h51" id="aF"/><path fill="#3a414a" d="M35-132v-50h50v50H35zM35 0v-49h50V0H35" id="aG"/><g id="o"><use transform="matrix(0.06172839506172839,0,0,0.06172839506172839,0,0)" xlink:href="#Z"/><use transform="matrix(0.06172839506172839,0,0,0.06172839506172839,7.345679012345679,0)" xlink:href="#aF"/><use transform="matrix(0.06172839506172839,0,0,0.06172839506172839,19.691358024691358,0)" xlink:href="#au"/><use transform="matrix(0.06172839506172839,0,0,0.06172839506172839,33.20987654320987,0)" xlink:href="#aa"/><use transform="matrix(0.06172839506172839,0,0,0.06172839506172839,45.55555555555555,0)" xlink:href="#aG"/></g><path fill="#3a414a" d="M25 0v-261h50V0H25" id="aH"/><g id="p"><use transform="matrix(0.06172839506172839,0,0,0.06172839506172839,0,0)" xlink:href="#au"/><use transform="matrix(0.06172839506172839,0,0,0.06172839506172839,13.518518518518517,0)" xlink:href="#ao"/><use transform="matrix(0.06172839506172839,0,0,0.06172839506172839,27.037037037037035,0)" xlink:href="#X"/><use transform="matrix(0.06172839506172839,0,0,0.06172839506172839,35.67901234567901,0)" xlink:href="#Z"/><use transform="matrix(0.06172839506172839,0,0,0.06172839506172839,43.02469135802469,0)" xlink:href="#X"/><use transform="matrix(0.06172839506172839,0,0,0.06172839506172839,51.666666666666664,0)" xlink:href="#W"/><use transform="matrix(0.06172839506172839,0,0,0.06172839506172839,64.01234567901234,0)" xlink:href="#aF"/><use transform="matrix(0.06172839506172839,0,0,0.06172839506172839,76.35802469135803,0)" xlink:href="#W"/><use transform="matrix(0.06172839506172839,0,0,0.06172839506172839,88.70370370370371,0)" xlink:href="#aH"/></g><path fill="#3a414a" d="M199 0l-22-63H83L61 0H9l90-248h61L250 0h-51zm-33-102l-36-108c-10 38-24 72-36 108h72" id="aI"/><g id="q"><use transform="matrix(0.06172839506172839,0,0,0.06172839506172839,0,0)" xlink:href="#aI"/><use transform="matrix(0.06172839506172839,0,0,0.06172839506172839,15.987654320987653,0)" xlink:href="#ar"/><use transform="matrix(0.06172839506172839,0,0,0.06172839506172839,28.333333333333332,0)" xlink:href="#ar"/><use transform="matrix(0.06172839506172839,0,0,0.06172839506172839,40.67901234567901,0)" xlink:href="#aa"/><use transform="matrix(0.06172839506172839,0,0,0.06172839506172839,53.02469135802469,0)" xlink:href="#Z"/></g><g id="r"><use transform="matrix(0.06172839506172839,0,0,0.06172839506172839,0,0)" xlink:href="#W"/><use transform="matrix(0.06172839506172839,0,0,0.06172839506172839,12.345679012345679,0)" xlink:href="#ar"/><use transform="matrix(0.06172839506172839,0,0,0.06172839506172839,24.691358024691358,0)" xlink:href="#Z"/><use transform="matrix(0.06172839506172839,0,0,0.06172839506172839,32.03703703703704,0)" xlink:href="#ab"/><use transform="matrix(0.06172839506172839,0,0,0.06172839506172839,39.382716049382715,0)" xlink:href="#ac"/><use transform="matrix(0.06172839506172839,0,0,0.06172839506172839,51.72839506172839,0)" xlink:href="#ad"/></g><path fill="#3a414a" d="M85 4C-2 5 27-109 22-190h50c7 57-23 150 33 157 60-5 35-97 40-157h50l1 190h-47c-2-12 1-28-3-38-12 25-28 42-61 42" id="aJ"/><path fill="#3a414a" d="M136-208V0H84v-208H4v-40h212v40h-80" id="aK"/><g id="s"><use transform="matrix(0.06172839506172839,0,0,0.06172839506172839,0,0)" xlink:href="#ar"/><use transform="matrix(0.06172839506172839,0,0,0.06172839506172839,12.345679012345679,0)" xlink:href="#Z"/><use transform="matrix(0.06172839506172839,0,0,0.06172839506172839,19.691358024691358,0)" xlink:href="#X"/><use transform="matrix(0.06172839506172839,0,0,0.06172839506172839,28.333333333333332,0)" xlink:href="#aJ"/><use transform="matrix(0.06172839506172839,0,0,0.06172839506172839,41.85185185185185,0)" xlink:href="#Y"/><use transform="matrix(0.06172839506172839,0,0,0.06172839506172839,54.197530864197525,0)" xlink:href="#aK"/><use transform="matrix(0.06172839506172839,0,0,0.06172839506172839,66.04938271604938,0)" xlink:href="#aF"/><use transform="matrix(0.06172839506172839,0,0,0.06172839506172839,78.39506172839506,0)" xlink:href="#au"/><use transform="matrix(0.06172839506172839,0,0,0.06172839506172839,91.91358024691358,0)" xlink:href="#aa"/><use transform="matrix(0.06172839506172839,0,0,0.06172839506172839,104.25925925925927,0)" xlink:href="#aG"/></g><g id="t"><use transform="matrix(0.06172839506172839,0,0,0.06172839506172839,0,0)" xlink:href="#au"/><use transform="matrix(0.06172839506172839,0,0,0.06172839506172839,13.518518518518517,0)" xlink:href="#V"/><use transform="matrix(0.06172839506172839,0,0,0.06172839506172839,27.037037037037035,0)" xlink:href="#aF"/><use transform="matrix(0.06172839506172839,0,0,0.06172839506172839,39.382716049382715,0)" xlink:href="#ar"/><use transform="matrix(0.06172839506172839,0,0,0.06172839506172839,51.72839506172839,0)" xlink:href="#aE"/><use transform="matrix(0.06172839506172839,0,0,0.06172839506172839,57.901234567901234,0)" xlink:href="#Y"/><use transform="matrix(0.06172839506172839,0,0,0.06172839506172839,70.24691358024691,0)" xlink:href="#W"/><use transform="matrix(0.06172839506172839,0,0,0.06172839506172839,82.5925925925926,0)" xlink:href="#aH"/></g><path fill="#3a414a" d="M121-226c-27-7-43 5-38 36h38v33H83V0H34v-157H6v-33h28c-9-59 32-81 87-68v32" id="aL"/><g id="u"><use transform="matrix(0.06172839506172839,0,0,0.06172839506172839,0,0)" xlink:href="#aL"/><use transform="matrix(0.06172839506172839,0,0,0.06172839506172839,7.345679012345679,0)" xlink:href="#aJ"/><use transform="matrix(0.06172839506172839,0,0,0.06172839506172839,20.864197530864196,0)" xlink:href="#ap"/><use transform="matrix(0.06172839506172839,0,0,0.06172839506172839,34.382716049382715,0)" xlink:href="#Y"/><use transform="matrix(0.06172839506172839,0,0,0.06172839506172839,46.72839506172839,0)" xlink:href="#aK"/><use transform="matrix(0.06172839506172839,0,0,0.06172839506172839,58.58024691358025,0)" xlink:href="#aF"/><use transform="matrix(0.06172839506172839,0,0,0.06172839506172839,70.92592592592592,0)" xlink:href="#au"/><use transform="matrix(0.06172839506172839,0,0,0.06172839506172839,84.44444444444444,0)" xlink:href="#aa"/><use transform="matrix(0.06172839506172839,0,0,0.06172839506172839,96.79012345679013,0)" xlink:href="#aG"/></g><g id="v"><use transform="matrix(0.06172839506172839,0,0,0.06172839506172839,0,0)" xlink:href="#au"/><use transform="matrix(0.06172839506172839,0,0,0.06172839506172839,13.518518518518517,0)" xlink:href="#X"/><use transform="matrix(0.06172839506172839,0,0,0.06172839506172839,22.160493827160494,0)" xlink:href="#ao"/><use transform="matrix(0.06172839506172839,0,0,0.06172839506172839,35.67901234567901,0)" xlink:href="#au"/></g><g id="w"><use transform="matrix(0.06172839506172839,0,0,0.06172839506172839,0,0)" xlink:href="#aB"/><use transform="matrix(0.06172839506172839,0,0,0.06172839506172839,17.28395061728395,0)" xlink:href="#X"/><use transform="matrix(0.06172839506172839,0,0,0.06172839506172839,25.925925925925924,0)" xlink:href="#aC"/><use transform="matrix(0.06172839506172839,0,0,0.06172839506172839,39.44444444444444,0)" xlink:href="#ab"/><use transform="matrix(0.06172839506172839,0,0,0.06172839506172839,46.79012345679012,0)" xlink:href="#ac"/><use transform="matrix(0.06172839506172839,0,0,0.06172839506172839,59.1358024691358,0)" xlink:href="#ad"/></g><g id="x"><use transform="matrix(0.06172839506172839,0,0,0.06172839506172839,0,0)" xlink:href="#ar"/><use transform="matrix(0.06172839506172839,0,0,0.06172839506172839,12.345679012345679,0)" xlink:href="#Z"/><use transform="matrix(0.06172839506172839,0,0,0.06172839506172839,19.691358024691358,0)" xlink:href="#X"/><use transform="matrix(0.06172839506172839,0,0,0.06172839506172839,28.333333333333332,0)" xlink:href="#aJ"/><use transform="matrix(0.06172839506172839,0,0,0.06172839506172839,41.85185185185185,0)" xlink:href="#Y"/><use transform="matrix(0.06172839506172839,0,0,0.06172839506172839,54.197530864197525,0)" xlink:href="#Z"/><use transform="matrix(0.06172839506172839,0,0,0.06172839506172839,61.5432098765432,0)" xlink:href="#aK"/><use transform="matrix(0.06172839506172839,0,0,0.06172839506172839,75.06172839506172,0)" xlink:href="#au"/><use transform="matrix(0.06172839506172839,0,0,0.06172839506172839,88.58024691358024,0)" xlink:href="#aa"/><use transform="matrix(0.06172839506172839,0,0,0.06172839506172839,100.92592592592592,0)" xlink:href="#aG"/></g><path fill="#3a414a" d="M220-157c-53 9-28 100-34 157h-49v-107c1-27-5-49-29-50C55-147 81-57 75 0H25l-1-190h47c2 12-1 28 3 38 10-53 101-56 108 0 13-22 24-43 59-42 82 1 51 116 57 194h-49v-107c-1-25-5-48-29-50" id="aM"/><g id="y"><use transform="matrix(0.06172839506172839,0,0,0.06172839506172839,0,0)" xlink:href="#Y"/><use transform="matrix(0.06172839506172839,0,0,0.06172839506172839,12.345679012345679,0)" xlink:href="#ao"/><use transform="matrix(0.06172839506172839,0,0,0.06172839506172839,25.864197530864196,0)" xlink:href="#ar"/><use transform="matrix(0.06172839506172839,0,0,0.06172839506172839,38.20987654320987,0)" xlink:href="#Z"/><use transform="matrix(0.06172839506172839,0,0,0.06172839506172839,45.55555555555555,0)" xlink:href="#aJ"/><use transform="matrix(0.06172839506172839,0,0,0.06172839506172839,59.07407407407407,0)" xlink:href="#aM"/><use transform="matrix(0.06172839506172839,0,0,0.06172839506172839,78.82716049382715,0)" xlink:href="#aa"/></g><path fill="#333" d="M121-226c-27-7-43 5-38 36h38v33H83V0H34v-157H6v-33h28c-9-59 32-81 87-68v32" id="aN"/><g id="z"><use transform="matrix(0.04938271604938272,0,0,0.04938271604938272,0,0)" xlink:href="#aN"/><use transform="matrix(0.04938271604938272,0,0,0.04938271604938272,5.8765432098765435,0)" xlink:href="#aj"/><use transform="matrix(0.04938271604938272,0,0,0.04938271604938272,16.691358024691358,0)" xlink:href="#ak"/></g><path fill="#3a414a" d="M24-248c93 1 206-16 204 79-1 75-69 88-152 82V0H24v-248zm52 121c47 0 100 7 100-41 0-47-54-39-100-39v80" id="aO"/><g id="A"><use transform="matrix(0.06172839506172839,0,0,0.06172839506172839,0,0)" xlink:href="#aO"/><use transform="matrix(0.06172839506172839,0,0,0.06172839506172839,14.814814814814813,0)" xlink:href="#W"/><use transform="matrix(0.06172839506172839,0,0,0.06172839506172839,27.160493827160494,0)" xlink:href="#X"/><use transform="matrix(0.06172839506172839,0,0,0.06172839506172839,35.80246913580247,0)" xlink:href="#Z"/><use transform="matrix(0.06172839506172839,0,0,0.06172839506172839,43.148148148148145,0)" xlink:href="#aE"/><use transform="matrix(0.06172839506172839,0,0,0.06172839506172839,49.32098765432099,0)" xlink:href="#Y"/><use transform="matrix(0.06172839506172839,0,0,0.06172839506172839,61.666666666666664,0)" xlink:href="#aE"/><use transform="matrix(0.06172839506172839,0,0,0.06172839506172839,67.8395061728395,0)" xlink:href="#au"/><use transform="matrix(0.06172839506172839,0,0,0.06172839506172839,81.35802469135803,0)" xlink:href="#W"/><use transform="matrix(0.06172839506172839,0,0,0.06172839506172839,93.70370370370371,0)" xlink:href="#ap"/><use transform="matrix(0.06172839506172839,0,0,0.06172839506172839,107.22222222222223,0)" xlink:href="#Z"/></g><g id="B"><use transform="matrix(0.06172839506172839,0,0,0.06172839506172839,0,0)" xlink:href="#aL"/><use transform="matrix(0.06172839506172839,0,0,0.06172839506172839,7.345679012345679,0)" xlink:href="#aJ"/><use transform="matrix(0.06172839506172839,0,0,0.06172839506172839,20.864197530864196,0)" xlink:href="#ap"/><use transform="matrix(0.06172839506172839,0,0,0.06172839506172839,34.382716049382715,0)" xlink:href="#Y"/><use transform="matrix(0.06172839506172839,0,0,0.06172839506172839,46.72839506172839,0)" xlink:href="#aK"/><use transform="matrix(0.06172839506172839,0,0,0.06172839506172839,58.58024691358025,0)" xlink:href="#aF"/><use transform="matrix(0.06172839506172839,0,0,0.06172839506172839,70.92592592592592,0)" xlink:href="#au"/><use transform="matrix(0.06172839506172839,0,0,0.06172839506172839,84.44444444444444,0)" xlink:href="#aa"/><use transform="matrix(0.06172839506172839,0,0,0.06172839506172839,96.79012345679013,0)" xlink:href="#aG"/></g><g id="C"><use transform="matrix(0.06172839506172839,0,0,0.06172839506172839,0,0)" xlink:href="#W"/><use transform="matrix(0.06172839506172839,0,0,0.06172839506172839,12.345679012345679,0)" xlink:href="#Y"/><use transform="matrix(0.06172839506172839,0,0,0.06172839506172839,24.691358024691358,0)" xlink:href="#Z"/><use transform="matrix(0.06172839506172839,0,0,0.06172839506172839,32.03703703703704,0)" xlink:href="#ao"/><use transform="matrix(0.06172839506172839,0,0,0.06172839506172839,45.55555555555556,0)" xlink:href="#X"/></g><g id="D"><use transform="matrix(0.06172839506172839,0,0,0.06172839506172839,0,0)" xlink:href="#aO"/><use transform="matrix(0.06172839506172839,0,0,0.06172839506172839,14.814814814814813,0)" xlink:href="#X"/><use transform="matrix(0.06172839506172839,0,0,0.06172839506172839,23.456790123456788,0)" xlink:href="#ao"/><use transform="matrix(0.06172839506172839,0,0,0.06172839506172839,36.9753086419753,0)" xlink:href="#at"/><use transform="matrix(0.06172839506172839,0,0,0.06172839506172839,50.49382716049382,0)" xlink:href="#aJ"/><use transform="matrix(0.06172839506172839,0,0,0.06172839506172839,64.01234567901234,0)" xlink:href="#Y"/><use transform="matrix(0.06172839506172839,0,0,0.06172839506172839,76.35802469135803,0)" xlink:href="#Z"/><use transform="matrix(0.06172839506172839,0,0,0.06172839506172839,83.70370370370371,0)" xlink:href="#aE"/><use transform="matrix(0.06172839506172839,0,0,0.06172839506172839,89.87654320987654,0)" xlink:href="#ao"/><use transform="matrix(0.06172839506172839,0,0,0.06172839506172839,103.39506172839506,0)" xlink:href="#ap"/></g><path fill="#3a414a" d="M169-182c-1-43-94-46-97-3 18 66 151 10 154 114 3 95-165 93-204 36-6-8-10-19-12-30l50-8c3 46 112 56 116 5-17-69-150-10-154-114-4-87 153-88 188-35 5 8 8 18 10 28" id="aP"/><g id="E"><use transform="matrix(0.06172839506172839,0,0,0.06172839506172839,0,0)" xlink:href="#aP"/><use transform="matrix(0.06172839506172839,0,0,0.06172839506172839,14.814814814814813,0)" xlink:href="#Y"/><use transform="matrix(0.06172839506172839,0,0,0.06172839506172839,27.160493827160494,0)" xlink:href="#aa"/><use transform="matrix(0.06172839506172839,0,0,0.06172839506172839,39.50617283950617,0)" xlink:href="#ap"/><use transform="matrix(0.06172839506172839,0,0,0.06172839506172839,53.02469135802469,0)" xlink:href="#aa"/></g><g id="F"><use transform="matrix(0.06172839506172839,0,0,0.06172839506172839,0,0)" xlink:href="#ar"/><use transform="matrix(0.06172839506172839,0,0,0.06172839506172839,12.345679012345679,0)" xlink:href="#Y"/><use transform="matrix(0.06172839506172839,0,0,0.06172839506172839,24.691358024691358,0)" xlink:href="#ab"/><use transform="matrix(0.06172839506172839,0,0,0.06172839506172839,32.03703703703704,0)" xlink:href="#ad"/><use transform="matrix(0.06172839506172839,0,0,0.06172839506172839,44.382716049382715,0)" xlink:href="#ac"/></g><path fill="#333" d="M24 0v-248h52V0H24" id="aQ"/><g id="G"><use transform="matrix(0.04938271604938272,0,0,0.04938271604938272,0,0)" xlink:href="#ax"/><use transform="matrix(0.04938271604938272,0,0,0.04938271604938272,10.814814814814815,0)" xlink:href="#an"/><use transform="matrix(0.04938271604938272,0,0,0.04938271604938272,20.69135802469136,0)" xlink:href="#al"/><use transform="matrix(0.04938271604938272,0,0,0.04938271604938272,30.567901234567906,0)" xlink:href="#ay"/><use transform="matrix(0.04938271604938272,0,0,0.04938271604938272,41.38271604938272,0)" xlink:href="#aQ"/><use transform="matrix(0.04938271604938272,0,0,0.04938271604938272,46.320987654320994,0)" xlink:href="#am"/></g><g id="H"><use transform="matrix(0.06172839506172839,0,0,0.06172839506172839,0,0)" xlink:href="#aB"/><use transform="matrix(0.06172839506172839,0,0,0.06172839506172839,17.28395061728395,0)" xlink:href="#X"/><use transform="matrix(0.06172839506172839,0,0,0.06172839506172839,25.925925925925924,0)" xlink:href="#aC"/><use transform="matrix(0.06172839506172839,0,0,0.06172839506172839,39.44444444444444,0)" xlink:href="#ab"/><use transform="matrix(0.06172839506172839,0,0,0.06172839506172839,46.79012345679012,0)" xlink:href="#ac"/><use transform="matrix(0.06172839506172839,0,0,0.06172839506172839,59.1358024691358,0)" xlink:href="#ad"/><use transform="matrix(0.06172839506172839,0,0,0.06172839506172839,71.48148148148148,0)" xlink:href="#as"/><use transform="matrix(0.06172839506172839,0,0,0.06172839506172839,77.65432098765432,0)" xlink:href="#ar"/><use transform="matrix(0.06172839506172839,0,0,0.06172839506172839,90,0)" xlink:href="#Y"/><use transform="matrix(0.06172839506172839,0,0,0.06172839506172839,102.34567901234568,0)" xlink:href="#ab"/><use transform="matrix(0.06172839506172839,0,0,0.06172839506172839,109.69135802469137,0)" xlink:href="#ad"/><use transform="matrix(0.06172839506172839,0,0,0.06172839506172839,122.03703703703705,0)" xlink:href="#ac"/></g><g id="I"><use transform="matrix(0.06172839506172839,0,0,0.06172839506172839,0,0)" xlink:href="#W"/><use transform="matrix(0.06172839506172839,0,0,0.06172839506172839,12.345679012345679,0)" xlink:href="#ar"/><use transform="matrix(0.06172839506172839,0,0,0.06172839506172839,24.691358024691358,0)" xlink:href="#Z"/><use transform="matrix(0.06172839506172839,0,0,0.06172839506172839,32.03703703703704,0)" xlink:href="#ab"/><use transform="matrix(0.06172839506172839,0,0,0.06172839506172839,39.382716049382715,0)" xlink:href="#ac"/><use transform="matrix(0.06172839506172839,0,0,0.06172839506172839,51.72839506172839,0)" xlink:href="#ad"/><use transform="matrix(0.06172839506172839,0,0,0.06172839506172839,64.07407407407408,0)" xlink:href="#as"/><use transform="matrix(0.06172839506172839,0,0,0.06172839506172839,70.24691358024691,0)" xlink:href="#ar"/><use transform="matrix(0.06172839506172839,0,0,0.06172839506172839,82.5925925925926,0)" xlink:href="#Y"/><use transform="matrix(0.06172839506172839,0,0,0.06172839506172839,94.93827160493828,0)" xlink:href="#ab"/><use transform="matrix(0.06172839506172839,0,0,0.06172839506172839,102.28395061728396,0)" xlink:href="#ad"/><use transform="matrix(0.06172839506172839,0,0,0.06172839506172839,114.62962962962965,0)" xlink:href="#ac"/></g><path fill="#333" d="M128 0H69L1-190h53L99-40l48-150h52" id="aR"/><g id="J"><use transform="matrix(0.04938271604938272,0,0,0.04938271604938272,0,0)" xlink:href="#av"/><use transform="matrix(0.04938271604938272,0,0,0.04938271604938272,10.814814814814815,0)" xlink:href="#aw"/><use transform="matrix(0.04938271604938272,0,0,0.04938271604938272,20.69135802469136,0)" xlink:href="#an"/><use transform="matrix(0.04938271604938272,0,0,0.04938271604938272,30.567901234567906,0)" xlink:href="#aR"/></g><path fill="#3a414a" d="M128-127c34 4 56 21 59 58 7 91-148 94-172 28-4-9-6-17-7-26l51-5c1 24 16 35 40 36 23 0 39-12 38-36-1-31-31-36-65-34v-40c32 2 59-3 59-33 0-20-13-33-34-33s-33 13-35 32l-50-3c6-44 37-68 86-68 50 0 83 20 83 66 0 35-22 52-53 58" id="aS"/><g id="K"><use transform="matrix(0.06172839506172839,0,0,0.06172839506172839,0,0)" xlink:href="#at"/><use transform="matrix(0.06172839506172839,0,0,0.06172839506172839,13.518518518518517,0)" xlink:href="#au"/><use transform="matrix(0.06172839506172839,0,0,0.06172839506172839,27.037037037037035,0)" xlink:href="#ab"/><use transform="matrix(0.06172839506172839,0,0,0.06172839506172839,34.382716049382715,0)" xlink:href="#ac"/><use transform="matrix(0.06172839506172839,0,0,0.06172839506172839,46.72839506172839,0)" xlink:href="#aS"/></g><g id="L"><use transform="matrix(0.06172839506172839,0,0,0.06172839506172839,0,0)" xlink:href="#at"/><use transform="matrix(0.06172839506172839,0,0,0.06172839506172839,13.518518518518517,0)" xlink:href="#aa"/><use transform="matrix(0.06172839506172839,0,0,0.06172839506172839,25.864197530864196,0)" xlink:href="#au"/><use transform="matrix(0.06172839506172839,0,0,0.06172839506172839,39.382716049382715,0)" xlink:href="#aE"/><use transform="matrix(0.06172839506172839,0,0,0.06172839506172839,45.55555555555556,0)" xlink:href="#Y"/><use transform="matrix(0.06172839506172839,0,0,0.06172839506172839,57.901234567901234,0)" xlink:href="#Z"/><use transform="matrix(0.06172839506172839,0,0,0.06172839506172839,65.24691358024691,0)" xlink:href="#aE"/><use transform="matrix(0.06172839506172839,0,0,0.06172839506172839,71.41975308641975,0)" xlink:href="#ao"/><use transform="matrix(0.06172839506172839,0,0,0.06172839506172839,84.93827160493827,0)" xlink:href="#ap"/></g><path fill="#3a414a" d="M182-182c0 78-84 86-111 141h115V0H12c-6-101 99-100 120-180 1-22-12-31-33-32-23 0-32 14-35 34l-49-3c5-45 32-70 84-70 51 0 83 22 83 69" id="aT"/><g id="M"><use transform="matrix(0.06172839506172839,0,0,0.06172839506172839,0,0)" xlink:href="#at"/><use transform="matrix(0.06172839506172839,0,0,0.06172839506172839,13.518518518518517,0)" xlink:href="#au"/><use transform="matrix(0.06172839506172839,0,0,0.06172839506172839,27.037037037037035,0)" xlink:href="#ab"/><use transform="matrix(0.06172839506172839,0,0,0.06172839506172839,34.382716049382715,0)" xlink:href="#ac"/><use transform="matrix(0.06172839506172839,0,0,0.06172839506172839,46.72839506172839,0)" xlink:href="#aT"/></g><path fill="#3a414a" d="M175 0L67-191c6 58 2 128 3 191H24v-248h59L193-55c-6-58-2-129-3-193h46V0h-61" id="aU"/><path fill="#3a414a" d="M128 0H69L1-190h53L99-40l48-150h52" id="aV"/><path fill="#3a414a" d="M140-251c80 0 125 45 125 126S219 4 139 4C58 4 15-44 15-125s44-126 125-126zm-1 214c52 0 73-35 73-88 0-50-21-86-72-86-52 0-73 35-73 86s22 88 72 88" id="aW"/><path fill="#3a414a" d="M25-224v-37h50v37H25zM75 22c2 45-34 59-81 51V38c22 5 31-5 31-27v-201h50V22" id="aX"/><g id="N"><use transform="matrix(0.06172839506172839,0,0,0.06172839506172839,0,0)" xlink:href="#aU"/><use transform="matrix(0.06172839506172839,0,0,0.06172839506172839,15.987654320987653,0)" xlink:href="#W"/><use transform="matrix(0.06172839506172839,0,0,0.06172839506172839,28.333333333333332,0)" xlink:href="#X"/><use transform="matrix(0.06172839506172839,0,0,0.06172839506172839,36.9753086419753,0)" xlink:href="#X"/><use transform="matrix(0.06172839506172839,0,0,0.06172839506172839,45.61728395061728,0)" xlink:href="#W"/><use transform="matrix(0.06172839506172839,0,0,0.06172839506172839,57.962962962962955,0)" xlink:href="#Z"/><use transform="matrix(0.06172839506172839,0,0,0.06172839506172839,65.30864197530863,0)" xlink:href="#aE"/><use transform="matrix(0.06172839506172839,0,0,0.06172839506172839,71.48148148148147,0)" xlink:href="#aV"/><use transform="matrix(0.06172839506172839,0,0,0.06172839506172839,83.82716049382715,0)" xlink:href="#aa"/><use transform="matrix(0.06172839506172839,0,0,0.06172839506172839,96.17283950617283,0)" xlink:href="#aW"/><use transform="matrix(0.06172839506172839,0,0,0.06172839506172839,113.45679012345678,0)" xlink:href="#aC"/><use transform="matrix(0.06172839506172839,0,0,0.06172839506172839,126.9753086419753,0)" xlink:href="#aX"/><use transform="matrix(0.06172839506172839,0,0,0.06172839506172839,133.14814814814815,0)" xlink:href="#aa"/><use transform="matrix(0.06172839506172839,0,0,0.06172839506172839,145.49382716049382,0)" xlink:href="#Y"/><use transform="matrix(0.06172839506172839,0,0,0.06172839506172839,157.8395061728395,0)" xlink:href="#Z"/></g><g id="O"><use transform="matrix(0.06172839506172839,0,0,0.06172839506172839,0,0)" xlink:href="#ap"/><use transform="matrix(0.06172839506172839,0,0,0.06172839506172839,13.518518518518517,0)" xlink:href="#ao"/><use transform="matrix(0.06172839506172839,0,0,0.06172839506172839,27.037037037037035,0)" xlink:href="#ab"/><use transform="matrix(0.06172839506172839,0,0,0.06172839506172839,34.382716049382715,0)" xlink:href="#ac"/><use transform="matrix(0.06172839506172839,0,0,0.06172839506172839,46.72839506172839,0)" xlink:href="#ad"/></g><g id="P"><use transform="matrix(0.06172839506172839,0,0,0.06172839506172839,0,0)" xlink:href="#au"/><use transform="matrix(0.06172839506172839,0,0,0.06172839506172839,13.518518518518517,0)" xlink:href="#X"/><use transform="matrix(0.06172839506172839,0,0,0.06172839506172839,22.160493827160494,0)" xlink:href="#ao"/><use transform="matrix(0.06172839506172839,0,0,0.06172839506172839,35.67901234567901,0)" xlink:href="#au"/></g><g id="Q"><use transform="matrix(0.04938271604938272,0,0,0.04938271604938272,0,0)" xlink:href="#ae"/><use transform="matrix(0.04938271604938272,0,0,0.04938271604938272,12.790123456790125,0)" xlink:href="#al"/><use transform="matrix(0.04938271604938272,0,0,0.04938271604938272,22.66666666666667,0)" xlink:href="#ag"/><use transform="matrix(0.04938271604938272,0,0,0.04938271604938272,33.48148148148149,0)" xlink:href="#af"/><use transform="matrix(0.04938271604938272,0,0,0.04938271604938272,38.41975308641976,0)" xlink:href="#ah"/><use transform="matrix(0.04938271604938272,0,0,0.04938271604938272,48.296296296296305,0)" xlink:href="#ai"/><use transform="matrix(0.04938271604938272,0,0,0.04938271604938272,54.17283950617284,0)" xlink:href="#aj"/><use transform="matrix(0.04938271604938272,0,0,0.04938271604938272,64.98765432098766,0)" xlink:href="#ak"/></g><path fill="#3a414a" d="M195-6C206 82 75 100 31 46c-4-6-6-13-8-21l49-6c3 16 16 24 34 25 40 0 42-37 40-79-11 22-30 35-61 35-53 0-70-43-70-97 0-56 18-96 73-97 30 0 46 14 59 34l2-30h47zm-90-29c32 0 41-27 41-63 0-35-9-62-40-62-32 0-39 29-40 63 0 36 9 62 39 62" id="aY"/><g id="R"><use transform="matrix(0.06172839506172839,0,0,0.06172839506172839,0,0)" xlink:href="#aU"/><use transform="matrix(0.06172839506172839,0,0,0.06172839506172839,15.987654320987653,0)" xlink:href="#W"/><use transform="matrix(0.06172839506172839,0,0,0.06172839506172839,28.333333333333332,0)" xlink:href="#X"/><use transform="matrix(0.06172839506172839,0,0,0.06172839506172839,36.9753086419753,0)" xlink:href="#X"/><use transform="matrix(0.06172839506172839,0,0,0.06172839506172839,45.61728395061728,0)" xlink:href="#W"/><use transform="matrix(0.06172839506172839,0,0,0.06172839506172839,57.962962962962955,0)" xlink:href="#Z"/><use transform="matrix(0.06172839506172839,0,0,0.06172839506172839,65.30864197530863,0)" xlink:href="#aE"/><use transform="matrix(0.06172839506172839,0,0,0.06172839506172839,71.48148148148147,0)" xlink:href="#aV"/><use transform="matrix(0.06172839506172839,0,0,0.06172839506172839,83.82716049382715,0)" xlink:href="#aa"/><use transform="matrix(0.06172839506172839,0,0,0.06172839506172839,96.17283950617283,0)" xlink:href="#aP"/><use transform="matrix(0.06172839506172839,0,0,0.06172839506172839,110.98765432098764,0)" xlink:href="#Z"/><use transform="matrix(0.06172839506172839,0,0,0.06172839506172839,118.33333333333333,0)" xlink:href="#aF"/><use transform="matrix(0.06172839506172839,0,0,0.06172839506172839,130.679012345679,0)" xlink:href="#aH"/><use transform="matrix(0.06172839506172839,0,0,0.06172839506172839,136.85185185185185,0)" xlink:href="#aE"/><use transform="matrix(0.06172839506172839,0,0,0.06172839506172839,143.02469135802468,0)" xlink:href="#ap"/><use transform="matrix(0.06172839506172839,0,0,0.06172839506172839,156.5432098765432,0)" xlink:href="#aY"/></g><g id="S"><use transform="matrix(0.06172839506172839,0,0,0.06172839506172839,0,0)" xlink:href="#ap"/><use transform="matrix(0.06172839506172839,0,0,0.06172839506172839,13.518518518518517,0)" xlink:href="#ao"/><use transform="matrix(0.06172839506172839,0,0,0.06172839506172839,27.037037037037035,0)" xlink:href="#ab"/><use transform="matrix(0.06172839506172839,0,0,0.06172839506172839,34.382716049382715,0)" xlink:href="#ac"/><use transform="matrix(0.06172839506172839,0,0,0.06172839506172839,46.72839506172839,0)" xlink:href="#aT"/></g><g id="T"><use transform="matrix(0.06172839506172839,0,0,0.06172839506172839,0,0)" xlink:href="#aB"/><use transform="matrix(0.06172839506172839,0,0,0.06172839506172839,17.28395061728395,0)" xlink:href="#W"/><use transform="matrix(0.06172839506172839,0,0,0.06172839506172839,29.629629629629626,0)" xlink:href="#X"/><use transform="matrix(0.06172839506172839,0,0,0.06172839506172839,38.2716049382716,0)" xlink:href="#at"/><use transform="matrix(0.06172839506172839,0,0,0.06172839506172839,51.79012345679012,0)" xlink:href="#X"/><use transform="matrix(0.06172839506172839,0,0,0.06172839506172839,60.432098765432094,0)" xlink:href="#ao"/><use transform="matrix(0.06172839506172839,0,0,0.06172839506172839,73.9506172839506,0)" xlink:href="#aC"/><use transform="matrix(0.06172839506172839,0,0,0.06172839506172839,87.46913580246913,0)" xlink:href="#aa"/></g></defs></g></svg>