<svg xmlns="http://www.w3.org/2000/svg" xmlns:xlink="http://www.w3.org/1999/xlink" xmlns:lucid="lucid" width="1448.08" height="453.44"><g transform="translate(-6260.458067015036 -2381.4129168615873)" lucid:page-tab-id="0_0"><path d="M7467.03 2620.65a6 6 0 0 1 6-6h228a6 6 0 0 1 6 6v148a6 6 0 0 1-6 6h-228a6 6 0 0 1-6-6z" stroke="#3a414a" stroke-width="3" fill="#fff"/><use xlink:href="#a" transform="matrix(1,0,0,1,7475.033905606412,2622.6461552985284) translate(60.24074074074074 76.27777777777777)"/><path d="M6764.93 2664.84H6667v-3h97.93zm174.5 0h-107.54v-3h107.52z" stroke="#3a414a" stroke-width=".05" fill="#3a414a"/><path d="M6940.93 2664.84h-1.55v-3h1.55z" fill="#3a414a"/><path d="M6940.95 2664.86h-1.6v-3.05h1.6zm-1.54-3v2.95h1.5v-2.94z" stroke="#3a414a" stroke-width=".05" fill="#3a414a"/><path d="M6671.76 2670.97l-12.9-7.63 12.9-7.64z" fill="#3a414a"/><path d="M6673.26 2673.6l-17.36-10.26 17.36-10.27zm-11.46-10.26l8.46 5v-10z" stroke="#3a414a" stroke-width=".05" fill="#3a414a"/><use xlink:href="#b" transform="matrix(1,0,0,1,6764.931502718742,2652.670512850172) translate(0 14.222222222222223)"/><path d="M6474.45 2580.96l20.1 5.08 9.76 2.93 6.38 2.2 4.57 1.8 3.45 1.54 2.7 1.35 2.16 1.2 1.78 1.06 1.47 1 1.25.9 1.06.82.92.8.8.73.68.7.6.67.53.64.47.62.4.6.38.58.33.56.3.56.26.54.22.54.2.53.17.52.15.53.13.53.1.52.06.43-2.98.44-.05-.37-.08-.4-.1-.4-.12-.4-.13-.42-.16-.4-.18-.43-.2-.44-.24-.43-.26-.46-.3-.46-.35-.5-.4-.52-.44-.54-.52-.58-.6-.6-.7-.66-.8-.7-.96-.76-1.14-.83-1.37-.9-1.66-1-2.06-1.14-2.57-1.27-3.34-1.5-4.46-1.74-6.25-2.18-9.65-2.9-20.02-5.05-.23-.05v-3.1zm-86.1-27.24l.8.7.97.76 1.14.83 1.37.92 1.67 1 2.05 1.13 2.6 1.28 3.32 1.48 4.46 1.77 6.25 2.17 9.62 2.9 20.33 4.82v3.08l-21.1-5.02-9.78-2.93-6.37-2.22-4.57-1.8-3.44-1.53-2.7-1.34-2.16-1.18-1.78-1.07-1.47-.98-1.24-.9-1.05-.84-.9-.78-.75-.7 2.05-2.2z" stroke="#3a414a" stroke-width=".05" fill="#3a414a"/><path d="M6535.9 2613.15h-3l-.03-1.5 3-.07z" fill="#3a414a"/><path d="M6535.93 2613.17h-3.05l-.03-1.56 3.05-.05zm-3.03-1.5l.03 1.45h2.95l-.03-1.52z" stroke="#3a414a" stroke-width=".05" fill="#3a414a"/><path d="M6396.83 2553.82l-12.95 8.1-.36-15z" fill="#3a414a"/><path d="M6399.86 2553.7l-17.42 10.87-.48-20.16zm-14.55 5.54l8.5-5.3-8.72-4.53z" stroke="#3a414a" stroke-width=".05" fill="#3a414a"/><use xlink:href="#c" transform="matrix(1,0,0,1,6442.931602553936,2567.970921801773) translate(0 14.222222222222223)"/><path d="M6261.96 2388.9a6 6 0 0 1 6-6h228a6 6 0 0 1 6 6v148a6 6 0 0 1-6 6h-228a6 6 0 0 1-6-6z" stroke="#3a414a" stroke-width="3" fill="#fff"/><use xlink:href="#d" transform="matrix(1,0,0,1,6269.958067054858,2390.912916887436) translate(74.40740740740742 76.27777777777777)"/><path d="M6742.3 2722.5h-84.9v-3h84.9zm187.52 0h-106.77v-3h106.77z" stroke="#3a414a" stroke-width=".05" fill="#3a414a"/><path d="M6657.45 2722.5h-1.55v-3h1.55z" fill="#3a414a"/><path d="M6657.47 2722.54h-1.6v-3.05h1.6zm-1.54-3v2.95h1.5v-2.96z" stroke="#3a414a" stroke-width=".05" fill="#3a414a"/><path d="M6937.98 2721l-12.9 7.65v-15.27z" fill="#3a414a"/><path d="M6940.93 2721l-17.36 10.28v-20.53zm-14.36 5.02l8.46-5-8.46-5z" stroke="#3a414a" stroke-width=".05" fill="#3a414a"/><use xlink:href="#e" transform="matrix(1,0,0,1,6742.305651329508,2710.344941373717) translate(0 14.222222222222223)"/><path d="M7292.7 2724.16h-107.27v-3h107.28zm161.73 0h-97.67v-3h97.66z" stroke="#3a414a" stroke-width=".05" fill="#3a414a"/><path d="M7185.47 2724.16h-1.54v-3h1.54z" fill="#3a414a"/><path d="M7185.5 2724.18h-1.6v-3.05h1.6zm-1.55-3v2.95h1.5v-2.95z" stroke="#3a414a" stroke-width=".05" fill="#3a414a"/><path d="M7462.6 2722.66l-12.92 7.64V2715z" fill="#3a414a"/><path d="M7465.53 2722.66l-17.35 10.27v-20.54zm-14.35 5l8.46-5-8.46-5z" stroke="#3a414a" stroke-width=".05" fill="#3a414a"/><use xlink:href="#f" transform="matrix(1,0,0,1,7292.707305671462,2711.9927833020815) translate(0 14.222222222222223)"/><path d="M7284.36 2673.56h-89.32v-3h89.32zm179.67 0h-98.93v-3h98.93z" stroke="#3a414a" stroke-width=".05" fill="#3a414a"/><path d="M7465.53 2673.56H7464v-3h1.53z" fill="#3a414a"/><path d="M7465.56 2673.6h-1.6v-3.06h1.6zm-1.54-3v2.94h1.5v-2.95z" stroke="#3a414a" stroke-width=".05" fill="#3a414a"/><path d="M7199.78 2679.7l-12.9-7.64 12.9-7.63z" fill="#3a414a"/><path d="M7201.28 2682.33l-17.35-10.27 17.35-10.26zm-11.46-10.27l8.46 5v-10z" stroke="#3a414a" stroke-width=".05" fill="#3a414a"/><use xlink:href="#e" transform="matrix(1,0,0,1,7284.35736839231,2661.396968151818) translate(0 14.222222222222223)"/><path d="M6942.43 2620.65a6 6 0 0 1 6-6h228a6 6 0 0 1 6 6v148a6 6 0 0 1-6 6h-228a6 6 0 0 1-6-6z" stroke="#3a414a" stroke-width="3" fill="#fff"/><use xlink:href="#g" transform="matrix(1,0,0,1,6950.425826516312,2622.6461552985284) translate(61.53703703703704 76.27777777777777)"/><path d="M6942.43 2780.65a6 6 0 0 1 6-6h228a6 6 0 0 1 6 6v46.08a6 6 0 0 1-6 6h-228a6 6 0 0 1-6-6z" stroke="#3a414a" stroke-width="3" fill="#b8f5ed"/><use xlink:href="#h" transform="matrix(1,0,0,1,6945.329970452176,2777.5502992343922) translate(40.5246913580247 31.02777777777778)"/><use xlink:href="#i" transform="matrix(1,0,0,1,6945.329970452176,2777.5502992343922) translate(99.59876543209876 31.02777777777778)"/><path d="M6414.4 2620.65a6 6 0 0 1 6-6h228a6 6 0 0 1 6 6v148a6 6 0 0 1-6 6h-228a6 6 0 0 1-6-6z" stroke="#3a414a" stroke-width="3" fill="#fff"/><use xlink:href="#j" transform="matrix(1,0,0,1,6422.404459472813,2622.6461552985284) translate(54.716049382716044 76.27777777777777)"/><path d="M6414.4 2781.28a6 6 0 0 1 6-6h228a6 6 0 0 1 6 6v46.08a6 6 0 0 1-6 6h-228a6 6 0 0 1-6-6z" stroke="#3a414a" stroke-width="3" fill="#b8f5ed"/><use xlink:href="#k" transform="matrix(1,0,0,1,6417.308603408677,2778.178674374863) translate(35.24691358024691 31.02777777777778)"/><use xlink:href="#l" transform="matrix(1,0,0,1,6417.308603408677,2778.178674374863) translate(145.55555555555554 31.02777777777778)"/><path d="M6577.48 2395.75a6 6 0 0 1 6-6h228a6 6 0 0 1 6 6v148a6 6 0 0 1-6 6h-228a6 6 0 0 1-6-6z" stroke="#3a414a" stroke-width="3" fill="#fff"/><use xlink:href="#m" transform="matrix(1,0,0,1,6585.478173562201,2397.752392825366) translate(87.98765432098766 62.77777777777778)"/><use xlink:href="#n" transform="matrix(1,0,0,1,6585.478173562201,2397.752392825366) translate(32.771604938271594 89.44444444444446)"/><use xlink:href="#o" transform="matrix(1,0,0,1,6585.478173562201,2397.752392825366) translate(137.03086419753086 89.44444444444446)"/><path d="M6600.64 2586.8l-22.66 4.66-11.63 2.96-7.12 2.14-4.87 1.7-3.55 1.4-2.66 1.18-2.1 1.03-1.64.9-1.34.8-1.1.74-.9.67-.76.6-.64.55-.55.52-.46.48-.4.45-.35.42-.32.4-.26.36-.23.37-.2.34-.2.34-.14.34-.13.3-.12.32-.1.3-.07.3-.07.3-.05.27-2.94-.56.07-.34.1-.42.1-.4.15-.43.16-.42.18-.44.2-.42.24-.45.26-.46.3-.47.34-.48.38-.5.43-.52.48-.54.56-.57.65-.6.74-.64.85-.68 1-.74 1.2-.8 1.45-.87 1.77-.96 2.2-1.08 2.78-1.24 3.66-1.45 5-1.73 7.25-2.17 11.76-3 23.34-4.8zm92.26-25.18l-.26.2-1.02.74-1.2.8-1.44.86-1.76.97-2.2 1.08-2.8 1.24-3.65 1.45-5 1.73-7.24 2.17-11.76 3-23.36 4.7v-3.05l22.7-4.58 11.63-2.96 7.12-2.14 4.88-1.7 3.54-1.4 2.68-1.18 2.08-1.03 1.65-.9 1.34-.8 1.1-.74.9-.67.2-.17z" stroke="#3a414a" stroke-width=".05" fill="#3a414a"/><path d="M6535.94 2611.64l-.03 1.5h-3l.04-1.56z" fill="#3a414a"/><path d="M6535.96 2611.6l-.03 1.57h-3.05l.03-1.62zm-3.03 1.52h2.95l.03-1.46-2.94-.06z" stroke="#3a414a" stroke-width=".05" fill="#3a414a"/><path d="M6693.87 2568.48l-12.1-9.3 13.9-5.6z" fill="#3a414a"/><path d="M6695.04 2571.27l-16.28-12.5 18.72-7.52zm-10.28-11.68l7.94 6.1 1.2-9.77z" stroke="#3a414a" stroke-width=".05" fill="#3a414a"/><g><use xlink:href="#c" transform="matrix(1,0,0,1,6600.6443469500755,2571.4664349795667) translate(0 14.222222222222223)"/></g><defs><path fill="#3a414a" d="M67-125c0 53 21 87 73 88 37 1 54-22 65-47l45 17C233-25 199 4 140 4 58 4 20-42 15-125 8-235 124-281 211-232c18 10 29 29 36 50l-46 12c-8-25-30-41-62-41-52 0-71 34-72 86" id="p"/><path fill="#3a414a" d="M114-157C55-157 80-60 75 0H25v-261h50l-1 109c12-26 28-41 61-42 86-1 58 113 63 194h-50c-7-57 23-157-34-157" id="q"/><path fill="#3a414a" d="M133-34C117-15 103 5 69 4 32 3 11-16 11-54c-1-60 55-63 116-61 1-26-3-47-28-47-18 1-26 9-28 27l-52-2c7-38 36-58 82-57s74 22 75 68l1 82c-1 14 12 18 25 15v27c-30 8-71 5-69-32zm-48 3c29 0 43-24 42-57-32 0-66-3-65 30 0 17 8 27 23 27" id="r"/><path fill="#3a414a" d="M135-150c-39-12-60 13-60 57V0H25l-1-190h47c2 13-1 29 3 40 6-28 27-53 61-41v41" id="s"/><path fill="#3a414a" d="M190-63c-7 42-38 67-86 67-59 0-84-38-90-98-12-110 154-137 174-36l-49 2c-2-19-15-32-35-32-30 0-35 28-38 64-6 74 65 87 74 30" id="t"/><path fill="#3a414a" d="M115-3C79 11 28 4 28-45v-112H4v-33h27l15-45h31v45h36v33H77v99c-1 23 16 31 38 25v30" id="u"/><path fill="#3a414a" d="M185-48c-13 30-37 53-82 52C43 2 14-33 14-96s30-98 90-98c62 0 83 45 84 108H66c0 31 8 55 39 56 18 0 30-7 34-22zm-45-69c5-46-57-63-70-21-2 6-4 13-4 21h74" id="v"/><g id="a"><use transform="matrix(0.06172839506172839,0,0,0.06172839506172839,0,0)" xlink:href="#p"/><use transform="matrix(0.06172839506172839,0,0,0.06172839506172839,15.987654320987653,0)" xlink:href="#q"/><use transform="matrix(0.06172839506172839,0,0,0.06172839506172839,29.50617283950617,0)" xlink:href="#r"/><use transform="matrix(0.06172839506172839,0,0,0.06172839506172839,41.85185185185185,0)" xlink:href="#s"/><use transform="matrix(0.06172839506172839,0,0,0.06172839506172839,50.49382716049382,0)" xlink:href="#r"/><use transform="matrix(0.06172839506172839,0,0,0.06172839506172839,62.8395061728395,0)" xlink:href="#t"/><use transform="matrix(0.06172839506172839,0,0,0.06172839506172839,75.18518518518518,0)" xlink:href="#u"/><use transform="matrix(0.06172839506172839,0,0,0.06172839506172839,82.53086419753086,0)" xlink:href="#v"/><use transform="matrix(0.06172839506172839,0,0,0.06172839506172839,94.87654320987654,0)" xlink:href="#s"/></g><path fill="#333" d="M24-248c120-7 223 5 221 122C244-46 201 0 124 0H24v-248zM76-40c74 7 117-18 117-86 0-67-45-88-117-82v168" id="w"/><path fill="#333" d="M25-224v-37h50v37H25zM25 0v-190h50V0H25" id="x"/><path fill="#333" d="M135-194c53 0 70 44 70 98 0 56-19 98-73 100-31 1-45-17-59-34 3 33 2 69 2 105H25l-1-265h48c2 10 0 23 3 31 11-24 29-35 60-35zM114-30c33 0 39-31 40-66 0-38-9-64-40-64-56 0-55 130 0 130" id="y"/><path fill="#333" d="M190-63c-7 42-38 67-86 67-59 0-84-38-90-98-12-110 154-137 174-36l-49 2c-2-19-15-32-35-32-30 0-35 28-38 64-6 74 65 87 74 30" id="z"/><path fill="#333" d="M115-3C79 11 28 4 28-45v-112H4v-33h27l15-45h31v45h36v33H77v99c-1 23 16 31 38 25v30" id="A"/><path fill="#333" d="M110-194c64 0 96 36 96 99 0 64-35 99-97 99-61 0-95-36-95-99 0-62 34-99 96-99zm-1 164c35 0 45-28 45-65 0-40-10-65-43-65-34 0-45 26-45 65 0 36 10 65 43 65" id="B"/><path fill="#333" d="M135-150c-39-12-60 13-60 57V0H25l-1-190h47c2 13-1 29 3 40 6-28 27-53 61-41v41" id="C"/><g id="b"><use transform="matrix(0.04938271604938272,0,0,0.04938271604938272,0,0)" xlink:href="#w"/><use transform="matrix(0.04938271604938272,0,0,0.04938271604938272,12.790123456790125,0)" xlink:href="#x"/><use transform="matrix(0.04938271604938272,0,0,0.04938271604938272,17.7283950617284,0)" xlink:href="#y"/><use transform="matrix(0.04938271604938272,0,0,0.04938271604938272,28.54320987654322,0)" xlink:href="#x"/><use transform="matrix(0.04938271604938272,0,0,0.04938271604938272,33.48148148148149,0)" xlink:href="#z"/><use transform="matrix(0.04938271604938272,0,0,0.04938271604938272,43.35802469135803,0)" xlink:href="#A"/><use transform="matrix(0.04938271604938272,0,0,0.04938271604938272,49.23456790123458,0)" xlink:href="#B"/><use transform="matrix(0.04938271604938272,0,0,0.04938271604938272,60.0493827160494,0)" xlink:href="#C"/></g><path fill="#333" d="M114-157C55-157 80-60 75 0H25v-261h50l-1 109c12-26 28-41 61-42 86-1 58 113 63 194h-50c-7-57 23-157-34-157" id="D"/><path fill="#333" d="M133-34C117-15 103 5 69 4 32 3 11-16 11-54c-1-60 55-63 116-61 1-26-3-47-28-47-18 1-26 9-28 27l-52-2c7-38 36-58 82-57s74 22 75 68l1 82c-1 14 12 18 25 15v27c-30 8-71 5-69-32zm-48 3c29 0 43-24 42-57-32 0-66-3-65 30 0 17 8 27 23 27" id="E"/><path fill="#333" d="M137-138c1-29-70-34-71-4 15 46 118 7 119 86 1 83-164 76-172 9l43-7c4 19 20 25 44 25 33 8 57-30 24-41C81-84 22-81 20-136c-2-80 154-74 161-7" id="F"/><g id="c"><use transform="matrix(0.04938271604938272,0,0,0.04938271604938272,0,0)" xlink:href="#D"/><use transform="matrix(0.04938271604938272,0,0,0.04938271604938272,10.814814814814815,0)" xlink:href="#E"/><use transform="matrix(0.04938271604938272,0,0,0.04938271604938272,20.69135802469136,0)" xlink:href="#F"/></g><path fill="#3a414a" d="M24-248c93 1 206-16 204 79-1 75-69 88-152 82V0H24v-248zm52 121c47 0 100 7 100-41 0-47-54-39-100-39v80" id="G"/><path fill="#3a414a" d="M137-138c1-29-70-34-71-4 15 46 118 7 119 86 1 83-164 76-172 9l43-7c4 19 20 25 44 25 33 8 57-30 24-41C81-84 22-81 20-136c-2-80 154-74 161-7" id="H"/><path fill="#3a414a" d="M110-194c64 0 96 36 96 99 0 64-35 99-97 99-61 0-95-36-95-99 0-62 34-99 96-99zm-1 164c35 0 45-28 45-65 0-40-10-65-43-65-34 0-45 26-45 65 0 36 10 65 43 65" id="I"/><path fill="#3a414a" d="M135-194c87-1 58 113 63 194h-50c-7-57 23-157-34-157-59 0-34 97-39 157H25l-1-190h47c2 12-1 28 3 38 12-26 28-41 61-42" id="J"/><g id="d"><use transform="matrix(0.06172839506172839,0,0,0.06172839506172839,0,0)" xlink:href="#G"/><use transform="matrix(0.06172839506172839,0,0,0.06172839506172839,14.814814814814813,0)" xlink:href="#v"/><use transform="matrix(0.06172839506172839,0,0,0.06172839506172839,27.160493827160494,0)" xlink:href="#s"/><use transform="matrix(0.06172839506172839,0,0,0.06172839506172839,35.80246913580247,0)" xlink:href="#H"/><use transform="matrix(0.06172839506172839,0,0,0.06172839506172839,48.148148148148145,0)" xlink:href="#I"/><use transform="matrix(0.06172839506172839,0,0,0.06172839506172839,61.666666666666664,0)" xlink:href="#J"/></g><path fill="#333" d="M185-48c-13 30-37 53-82 52C43 2 14-33 14-96s30-98 90-98c62 0 83 45 84 108H66c0 31 8 55 39 56 18 0 30-7 34-22zm-45-69c5-46-57-63-70-21-2 6-4 13-4 21h74" id="K"/><path fill="#333" d="M135-194c87-1 58 113 63 194h-50c-7-57 23-157-34-157-59 0-34 97-39 157H25l-1-190h47c2 12-1 28 3 38 12-26 28-41 61-42" id="L"/><g id="e"><use transform="matrix(0.04938271604938272,0,0,0.04938271604938272,0,0)" xlink:href="#w"/><use transform="matrix(0.04938271604938272,0,0,0.04938271604938272,12.790123456790125,0)" xlink:href="#K"/><use transform="matrix(0.04938271604938272,0,0,0.04938271604938272,22.66666666666667,0)" xlink:href="#y"/><use transform="matrix(0.04938271604938272,0,0,0.04938271604938272,33.48148148148149,0)" xlink:href="#x"/><use transform="matrix(0.04938271604938272,0,0,0.04938271604938272,38.41975308641976,0)" xlink:href="#z"/><use transform="matrix(0.04938271604938272,0,0,0.04938271604938272,48.296296296296305,0)" xlink:href="#A"/><use transform="matrix(0.04938271604938272,0,0,0.04938271604938272,54.17283950617284,0)" xlink:href="#x"/><use transform="matrix(0.04938271604938272,0,0,0.04938271604938272,59.111111111111114,0)" xlink:href="#B"/><use transform="matrix(0.04938271604938272,0,0,0.04938271604938272,69.92592592592594,0)" xlink:href="#L"/></g><g id="f"><use transform="matrix(0.04938271604938272,0,0,0.04938271604938272,0,0)" xlink:href="#w"/><use transform="matrix(0.04938271604938272,0,0,0.04938271604938272,12.790123456790125,0)" xlink:href="#K"/><use transform="matrix(0.04938271604938272,0,0,0.04938271604938272,22.66666666666667,0)" xlink:href="#y"/><use transform="matrix(0.04938271604938272,0,0,0.04938271604938272,33.48148148148149,0)" xlink:href="#x"/><use transform="matrix(0.04938271604938272,0,0,0.04938271604938272,38.41975308641976,0)" xlink:href="#z"/><use transform="matrix(0.04938271604938272,0,0,0.04938271604938272,48.296296296296305,0)" xlink:href="#A"/><use transform="matrix(0.04938271604938272,0,0,0.04938271604938272,54.17283950617284,0)" xlink:href="#F"/></g><path fill="#3a414a" d="M24-248c120-7 223 5 221 122C244-46 201 0 124 0H24v-248zM76-40c74 7 117-18 117-86 0-67-45-88-117-82v168" id="M"/><path fill="#3a414a" d="M135-194c53 0 70 44 70 98 0 56-19 98-73 100-31 1-45-17-59-34 3 33 2 69 2 105H25l-1-265h48c2 10 0 23 3 31 11-24 29-35 60-35zM114-30c33 0 39-31 40-66 0-38-9-64-40-64-56 0-55 130 0 130" id="N"/><path fill="#3a414a" d="M25-224v-37h50v37H25zM25 0v-190h50V0H25" id="O"/><g id="g"><use transform="matrix(0.06172839506172839,0,0,0.06172839506172839,0,0)" xlink:href="#M"/><use transform="matrix(0.06172839506172839,0,0,0.06172839506172839,15.987654320987653,0)" xlink:href="#v"/><use transform="matrix(0.06172839506172839,0,0,0.06172839506172839,28.333333333333332,0)" xlink:href="#N"/><use transform="matrix(0.06172839506172839,0,0,0.06172839506172839,41.85185185185185,0)" xlink:href="#O"/><use transform="matrix(0.06172839506172839,0,0,0.06172839506172839,48.02469135802469,0)" xlink:href="#t"/><use transform="matrix(0.06172839506172839,0,0,0.06172839506172839,60.37037037037037,0)" xlink:href="#u"/><use transform="matrix(0.06172839506172839,0,0,0.06172839506172839,67.71604938271605,0)" xlink:href="#O"/><use transform="matrix(0.06172839506172839,0,0,0.06172839506172839,73.88888888888889,0)" xlink:href="#I"/><use transform="matrix(0.06172839506172839,0,0,0.06172839506172839,87.4074074074074,0)" xlink:href="#J"/></g><path fill="#3a414a" d="M123 10C108 53 80 86 19 72V37c35 8 53-11 59-39L3-190h52l48 148c12-52 28-100 44-148h51" id="P"/><path fill="#3a414a" d="M35-132v-50h50v50H35zM35 0v-49h50V0H35" id="Q"/><g id="h"><use transform="matrix(0.06172839506172839,0,0,0.06172839506172839,0,0)" xlink:href="#u"/><use transform="matrix(0.06172839506172839,0,0,0.06172839506172839,7.345679012345679,0)" xlink:href="#P"/><use transform="matrix(0.06172839506172839,0,0,0.06172839506172839,19.691358024691358,0)" xlink:href="#N"/><use transform="matrix(0.06172839506172839,0,0,0.06172839506172839,33.20987654320987,0)" xlink:href="#v"/><use transform="matrix(0.06172839506172839,0,0,0.06172839506172839,45.55555555555555,0)" xlink:href="#Q"/></g><path fill="#3a414a" d="M25 0v-261h50V0H25" id="R"/><g id="i"><use transform="matrix(0.06172839506172839,0,0,0.06172839506172839,0,0)" xlink:href="#N"/><use transform="matrix(0.06172839506172839,0,0,0.06172839506172839,13.518518518518517,0)" xlink:href="#I"/><use transform="matrix(0.06172839506172839,0,0,0.06172839506172839,27.037037037037035,0)" xlink:href="#s"/><use transform="matrix(0.06172839506172839,0,0,0.06172839506172839,35.67901234567901,0)" xlink:href="#u"/><use transform="matrix(0.06172839506172839,0,0,0.06172839506172839,43.02469135802469,0)" xlink:href="#s"/><use transform="matrix(0.06172839506172839,0,0,0.06172839506172839,51.666666666666664,0)" xlink:href="#r"/><use transform="matrix(0.06172839506172839,0,0,0.06172839506172839,64.01234567901234,0)" xlink:href="#P"/><use transform="matrix(0.06172839506172839,0,0,0.06172839506172839,76.35802469135803,0)" xlink:href="#r"/><use transform="matrix(0.06172839506172839,0,0,0.06172839506172839,88.70370370370371,0)" xlink:href="#R"/></g><g id="j"><use transform="matrix(0.06172839506172839,0,0,0.06172839506172839,0,0)" xlink:href="#G"/><use transform="matrix(0.06172839506172839,0,0,0.06172839506172839,14.814814814814813,0)" xlink:href="#r"/><use transform="matrix(0.06172839506172839,0,0,0.06172839506172839,27.160493827160494,0)" xlink:href="#s"/><use transform="matrix(0.06172839506172839,0,0,0.06172839506172839,35.80246913580247,0)" xlink:href="#u"/><use transform="matrix(0.06172839506172839,0,0,0.06172839506172839,43.148148148148145,0)" xlink:href="#O"/><use transform="matrix(0.06172839506172839,0,0,0.06172839506172839,49.32098765432099,0)" xlink:href="#t"/><use transform="matrix(0.06172839506172839,0,0,0.06172839506172839,61.666666666666664,0)" xlink:href="#O"/><use transform="matrix(0.06172839506172839,0,0,0.06172839506172839,67.8395061728395,0)" xlink:href="#N"/><use transform="matrix(0.06172839506172839,0,0,0.06172839506172839,81.35802469135803,0)" xlink:href="#r"/><use transform="matrix(0.06172839506172839,0,0,0.06172839506172839,93.70370370370371,0)" xlink:href="#J"/><use transform="matrix(0.06172839506172839,0,0,0.06172839506172839,107.22222222222223,0)" xlink:href="#u"/></g><path fill="#3a414a" d="M121-226c-27-7-43 5-38 36h38v33H83V0H34v-157H6v-33h28c-9-59 32-81 87-68v32" id="S"/><path fill="#3a414a" d="M85 4C-2 5 27-109 22-190h50c7 57-23 150 33 157 60-5 35-97 40-157h50l1 190h-47c-2-12 1-28-3-38-12 25-28 42-61 42" id="T"/><path fill="#3a414a" d="M136-208V0H84v-208H4v-40h212v40h-80" id="U"/><g id="k"><use transform="matrix(0.06172839506172839,0,0,0.06172839506172839,0,0)" xlink:href="#S"/><use transform="matrix(0.06172839506172839,0,0,0.06172839506172839,7.345679012345679,0)" xlink:href="#T"/><use transform="matrix(0.06172839506172839,0,0,0.06172839506172839,20.864197530864196,0)" xlink:href="#J"/><use transform="matrix(0.06172839506172839,0,0,0.06172839506172839,34.382716049382715,0)" xlink:href="#t"/><use transform="matrix(0.06172839506172839,0,0,0.06172839506172839,46.72839506172839,0)" xlink:href="#U"/><use transform="matrix(0.06172839506172839,0,0,0.06172839506172839,58.58024691358025,0)" xlink:href="#P"/><use transform="matrix(0.06172839506172839,0,0,0.06172839506172839,70.92592592592592,0)" xlink:href="#N"/><use transform="matrix(0.06172839506172839,0,0,0.06172839506172839,84.44444444444444,0)" xlink:href="#v"/><use transform="matrix(0.06172839506172839,0,0,0.06172839506172839,96.79012345679013,0)" xlink:href="#Q"/></g><g id="l"><use transform="matrix(0.06172839506172839,0,0,0.06172839506172839,0,0)" xlink:href="#r"/><use transform="matrix(0.06172839506172839,0,0,0.06172839506172839,12.345679012345679,0)" xlink:href="#t"/><use transform="matrix(0.06172839506172839,0,0,0.06172839506172839,24.691358024691358,0)" xlink:href="#u"/><use transform="matrix(0.06172839506172839,0,0,0.06172839506172839,32.03703703703704,0)" xlink:href="#I"/><use transform="matrix(0.06172839506172839,0,0,0.06172839506172839,45.55555555555556,0)" xlink:href="#s"/></g><path fill="#3a414a" d="M240-174c0 40-23 61-54 70L253 0h-59l-57-94H76V0H24v-248c93 4 217-23 216 74zM76-134c48-2 112 12 112-38 0-48-66-32-112-35v73" id="V"/><g id="m"><use transform="matrix(0.06172839506172839,0,0,0.06172839506172839,0,0)" xlink:href="#V"/><use transform="matrix(0.06172839506172839,0,0,0.06172839506172839,15.987654320987653,0)" xlink:href="#I"/><use transform="matrix(0.06172839506172839,0,0,0.06172839506172839,29.50617283950617,0)" xlink:href="#R"/><use transform="matrix(0.06172839506172839,0,0,0.06172839506172839,35.67901234567901,0)" xlink:href="#v"/></g><g id="n"><use transform="matrix(0.06172839506172839,0,0,0.06172839506172839,0,0)" xlink:href="#s"/><use transform="matrix(0.06172839506172839,0,0,0.06172839506172839,8.641975308641975,0)" xlink:href="#I"/><use transform="matrix(0.06172839506172839,0,0,0.06172839506172839,22.160493827160494,0)" xlink:href="#R"/><use transform="matrix(0.06172839506172839,0,0,0.06172839506172839,28.333333333333332,0)" xlink:href="#v"/><use transform="matrix(0.06172839506172839,0,0,0.06172839506172839,40.67901234567901,0)" xlink:href="#U"/><use transform="matrix(0.06172839506172839,0,0,0.06172839506172839,52.53086419753087,0)" xlink:href="#P"/><use transform="matrix(0.06172839506172839,0,0,0.06172839506172839,64.87654320987654,0)" xlink:href="#N"/><use transform="matrix(0.06172839506172839,0,0,0.06172839506172839,78.39506172839506,0)" xlink:href="#v"/><use transform="matrix(0.06172839506172839,0,0,0.06172839506172839,90.74074074074075,0)" xlink:href="#Q"/></g><g id="o"><use transform="matrix(0.06172839506172839,0,0,0.06172839506172839,0,0)" xlink:href="#r"/><use transform="matrix(0.06172839506172839,0,0,0.06172839506172839,12.345679012345679,0)" xlink:href="#t"/><use transform="matrix(0.06172839506172839,0,0,0.06172839506172839,24.691358024691358,0)" xlink:href="#u"/><use transform="matrix(0.06172839506172839,0,0,0.06172839506172839,32.03703703703704,0)" xlink:href="#I"/><use transform="matrix(0.06172839506172839,0,0,0.06172839506172839,45.55555555555556,0)" xlink:href="#s"/></g></defs></g></svg>