<svg xmlns="http://www.w3.org/2000/svg" xmlns:xlink="http://www.w3.org/1999/xlink" xmlns:lucid="lucid" width="2493.08" height="1051.86"><g transform="translate(-6266.871217112629 -2994.485241726824)" lucid:page-tab-id="0_0"><path d="M7463.83 3451.6a6 6 0 0 1 6-6h228a6 6 0 0 1 6 6v148a6 6 0 0 1-6 6h-228a6 6 0 0 1-6-6z" stroke="#3a414a" stroke-width="3" fill="#fff"/><use xlink:href="#a" transform="matrix(1,0,0,1,7471.827330557616,3453.6023225449126) translate(60.24074074074074 76.27777777777777)"/><path d="M6771.35 3277.9h-97.92v-3h97.9zm174.48 0H6838.3v-3h107.53z" stroke="#3a414a" stroke-width=".05" fill="#3a414a"/><path d="M6947.34 3277.9h-1.54v-3h1.54z" fill="#3a414a"/><path d="M6947.36 3277.93h-1.6v-3.04h1.6zm-1.54-3v2.96h1.5v-2.97z" stroke="#3a414a" stroke-width=".05" fill="#3a414a"/><path d="M6678.18 3284.05l-12.92-7.64 12.9-7.63z" fill="#3a414a"/><path d="M6679.68 3286.68l-17.36-10.27 17.36-10.26zm-11.47-10.27l8.48 5v-10z" stroke="#3a414a" stroke-width=".05" fill="#3a414a"/><use xlink:href="#b" transform="matrix(1,0,0,1,6771.344652816334,3265.7428377154088) translate(0 14.222222222222223)"/><path d="M6480.86 3194.03l20.1 5.08 9.76 2.94 6.37 2.2 4.56 1.8 3.45 1.54 2.7 1.34 2.18 1.2 1.77 1.06 1.47.98 1.25.9 1.05.84.9.78.8.74.7.7.6.67.52.63.47.62.43.6.37.58.32.57.3.55.25.55.23.53.2.54.17.53.14.52.14.53.1.52.06.43-2.97.44-.05-.37-.08-.4-.1-.4-.1-.4-.14-.4-.15-.43-.17-.42-.2-.43-.23-.46-.27-.46-.3-.47-.35-.5-.4-.5-.44-.55-.52-.57-.6-.6-.7-.67-.8-.7-.97-.75-1.14-.83-1.35-.9-1.67-1-2.05-1.14-2.6-1.28-3.33-1.48-4.45-1.76-6.25-2.17-9.64-2.9-20-5.06-.25-.05v-3.1zm-86.1-27.24l.82.7.96.75 1.14.83 1.36.9 1.67 1 2.06 1.14 2.6 1.28 3.33 1.5 4.44 1.74 6.25 2.17 9.6 2.9 20.35 4.83v3.1l-21.1-5.03-9.78-2.93-6.37-2.2-4.57-1.82-3.45-1.53-2.7-1.34-2.17-1.2-1.76-1.06-1.48-.97-1.24-.9-1.06-.84-.9-.78-.75-.7 2.06-2.18z" stroke="#3a414a" stroke-width=".05" fill="#3a414a"/><path d="M6542.32 3226.22h-3l-.03-1.5 2.98-.07z" fill="#3a414a"/><path d="M6542.34 3226.24h-3.05l-.04-1.55 3.05-.08zm-3.03-1.5l.04 1.45h2.95l-.04-1.53z" stroke="#3a414a" stroke-width=".05" fill="#3a414a"/><path d="M6403.25 3166.9l-12.96 8.08-.37-15z" fill="#3a414a"/><path d="M6406.27 3166.77l-17.4 10.88-.5-20.16zm-14.54 5.55l8.5-5.3-8.74-4.54z" stroke="#3a414a" stroke-width=".05" fill="#3a414a"/><use xlink:href="#c" transform="matrix(1,0,0,1,6449.344752651528,3181.04324666701) translate(0 14.222222222222223)"/><path d="M6268.37 3002a6 6 0 0 1 6-6h228a6 6 0 0 1 6 6v148a6 6 0 0 1-6 6h-228a6 6 0 0 1-6-6z" stroke="#3a414a" stroke-width="3" fill="#fff"/><use xlink:href="#d" transform="matrix(1,0,0,1,6276.37121715245,3003.9852417526727) translate(74.40740740740742 76.27777777777777)"/><path d="M6748.72 3335.58h-84.9v-3h84.9zm187.5 0h-106.76v-3h106.77z" stroke="#3a414a" stroke-width=".05" fill="#3a414a"/><path d="M6663.86 3335.58h-1.54v-3h1.54z" fill="#3a414a"/><path d="M6663.9 3335.6h-1.6v-3.04h1.6zm-1.56-3v2.96h1.5v-2.95z" stroke="#3a414a" stroke-width=".05" fill="#3a414a"/><path d="M6944.4 3334.08l-12.92 7.64v-15.27z" fill="#3a414a"/><path d="M6947.34 3334.08l-17.36 10.27v-20.53zm-14.36 5l8.47-5-8.47-5z" stroke="#3a414a" stroke-width=".05" fill="#3a414a"/><use xlink:href="#e" transform="matrix(1,0,0,1,6748.7188014271005,3323.4172662389537) translate(0 14.222222222222223)"/><path d="M7351.63 3481l8.78 12.13 7.02 8.86 6.06 7.02 5.47 5.83 5.04 4.94 4.73 4.26 4.52 3.74 4.34 3.3 4.2 2.94 4.14 2.62 4.07 2.35 4.04 2.1 4 1.9 4.04 1.7 4.05 1.5 4.1 1.34 4.18 1.16 4.28 1 4.38.84 4.53.67 3.8.4-.32 3-3.87-.42-4.64-.68-4.5-.86-4.4-1.03-4.3-1.2-4.22-1.36-4.17-1.55-4.14-1.76-4.13-1.94-4.14-2.16-4.17-2.42-4.25-2.68-4.32-3-4.45-3.4-4.6-3.8-4.84-4.36-5.14-5.03-5.55-5.92-6.14-7.13-7.08-8.96-8.87-12.24-17.6-27.45h3.55zm-48.12-74.36l14.8 22.4 3.12 4.88h-3.57l-2.08-3.25-14.73-22.33-2.54-3.5h3.7zm-107.9-72.3l5.03.32 4.82.5 4.66.7 4.5.85 4.4 1.04 4.3 1.2 4.22 1.37 4.17 1.56 4.13 1.74 4.13 1.95 4.14 2.16 4.18 2.42 4.23 2.7 4.34 3 4.44 3.38 4.62 3.8 4.83 4.37 5.14 5.03 5.54 5.92 4.5 5.18h-.08v4.58l-.57-.72-6.07-7.04-5.46-5.82-5.04-4.94-4.74-4.28-4.52-3.73-4.35-3.3-4.22-2.94-4.13-2.6-4.06-2.36-4.03-2.1-4.02-1.9-4-1.7-4.07-1.5-4.1-1.33-4.17-1.16-4.27-1-4.4-.83-4.52-.66-4.7-.5-4.9-.3-3.67-.08.07-3z" stroke="#3a414a" stroke-width=".05" fill="#3a414a"/><path d="M7191.9 3334.26l-.05 3-1.5-.03v-3z" fill="#3a414a"/><path d="M7191.94 3334.24l-.07 3.05-1.56-.04v-3.05zm-1.58 2.97l1.47.04.06-2.95-1.54-.04z" stroke="#3a414a" stroke-width=".05" fill="#3a414a"/><path d="M7459.4 3553.43l-13.37 6.83.94-15.24z" fill="#3a414a"/><path d="M7462.33 3553.62l-17.96 9.17 1.27-20.5zm-14.64 4.1l8.74-4.47-8.13-5.52z" stroke="#3a414a" stroke-width=".05" fill="#3a414a"/><use xlink:href="#f" transform="matrix(1,0,0,1,7294.4538455610655,3433.9149018341527) translate(0 14.222222222222223)"/><path d="M7360.4 3442.53l7.02 8.86 6.06 7.03 5.47 5.82 5.04 4.95 4.73 4.27 4.52 3.74 4.34 3.3 4.2 2.94 4.14 2.62 4.07 2.35 4.04 2.12 4 1.9 4.04 1.68 4.05 1.5 4.1 1.34 4.18 1.17 4.28 1 4.38.84 4.53.67 4.68.5 4.9.3 3.67.1-.06 3-3.74-.1-5.03-.3-4.82-.5-4.64-.7-4.5-.86-4.4-1.03-4.3-1.2-4.22-1.36-4.17-1.55-4.14-1.75-4.13-1.95-4.14-2.16-4.17-2.4-4.25-2.7-4.32-3-4.45-3.38-4.6-3.82-4.84-4.36-5.14-5.03-5.55-5.9-6.14-7.14-6.6-8.34v-5.05zm-23.5-34.45l14.72 22.33 2.54 3.5h-3.7l-1.3-1.8-14.78-22.38-3.13-4.88h3.56zm-131.45-123.5l4.66.67 4.5.86 4.4 1.04 4.3 1.2 4.22 1.38 4.17 1.55 4.13 1.74 4.13 1.95 4.14 2.17 4.18 2.4 4.23 2.7 4.34 3 4.44 3.38 4.62 3.82 4.83 4.35 5.14 5.04 5.54 5.92 6.16 7.13 7.1 8.96 8.86 12.25 17.6 27.45h-3.56l-16.52-25.76-8.78-12.12-7-8.86-6.08-7.03-5.46-5.82-5.04-4.94-4.74-4.27-4.52-3.75-4.35-3.3-4.22-2.93-4.13-2.63-4.06-2.36-4.03-2.1-4.02-1.9-4-1.68-4.07-1.5-4.1-1.34-4.17-1.17-4.27-1-4.4-.84-4.52-.66-3.8-.4.3-2.98z" stroke="#3a414a" stroke-width=".05" fill="#3a414a"/><path d="M7462.33 3501.52v3l-1.58-.03.07-3z" fill="#3a414a"/><path d="M7462.35 3501.5v3.05l-1.62-.04.06-3.04zm-1.57 2.96l1.52.03v-2.96l-1.46-.03z" stroke="#3a414a" stroke-width=".05" fill="#3a414a"/><path d="M7205.7 3293.74l-12.42-8.42 13.36-6.83z" fill="#3a414a"/><path d="M7207.03 3296.45l-16.7-11.3 17.97-9.2zm-10.8-10.95l8.13 5.52.62-10z" stroke="#3a414a" stroke-width=".05" fill="#3a414a"/><use xlink:href="#e" transform="matrix(1,0,0,1,7285.817403551501,3383.503341731368) translate(0 14.222222222222223)"/><path d="M6948.84 3233.72a6 6 0 0 1 6-6h228a6 6 0 0 1 6 6v148a6 6 0 0 1-6 6h-228a6 6 0 0 1-6-6z" stroke="#3a414a" stroke-width="3" fill="#fff"/><use xlink:href="#g" transform="matrix(1,0,0,1,6956.838976613904,3235.718480163765) translate(61.53703703703704 76.27777777777777)"/><path d="M6948.84 3393.72a6 6 0 0 1 6-6h228a6 6 0 0 1 6 6v46.08a6 6 0 0 1-6 6h-228a6 6 0 0 1-6-6z" stroke="#3a414a" stroke-width="3" fill="#b8f5ed"/><use xlink:href="#h" transform="matrix(1,0,0,1,6951.743120549769,3390.622624099629) translate(40.5246913580247 31.02777777777778)"/><use xlink:href="#i" transform="matrix(1,0,0,1,6951.743120549769,3390.622624099629) translate(99.59876543209876 31.02777777777778)"/><path d="M6420.82 3233.72a6 6 0 0 1 6-6h228a6 6 0 0 1 6 6v148a6 6 0 0 1-6 6h-228a6 6 0 0 1-6-6z" stroke="#3a414a" stroke-width="3" fill="#fff"/><use xlink:href="#j" transform="matrix(1,0,0,1,6428.817609570406,3235.718480163765) translate(54.716049382716044 76.27777777777777)"/><path d="M6420.82 3394.35a6 6 0 0 1 6-6h228a6 6 0 0 1 6 6v46.08a6 6 0 0 1-6 6h-228a6 6 0 0 1-6-6z" stroke="#3a414a" stroke-width="3" fill="#b8f5ed"/><use xlink:href="#k" transform="matrix(1,0,0,1,6423.72175350627,3391.2509992400996) translate(35.24691358024691 31.02777777777778)"/><use xlink:href="#l" transform="matrix(1,0,0,1,6423.72175350627,3391.2509992400996) translate(145.55555555555554 31.02777777777778)"/><path d="M6583.9 3008.82a6 6 0 0 1 6-6h228a6 6 0 0 1 6 6v148a6 6 0 0 1-6 6h-228a6 6 0 0 1-6-6z" stroke="#3a414a" stroke-width="3" fill="#fff"/><use xlink:href="#m" transform="matrix(1,0,0,1,6591.891323659794,3010.8247176906025) translate(87.98765432098766 62.77777777777778)"/><use xlink:href="#n" transform="matrix(1,0,0,1,6591.891323659794,3010.8247176906025) translate(32.771604938271594 89.44444444444446)"/><use xlink:href="#o" transform="matrix(1,0,0,1,6591.891323659794,3010.8247176906025) translate(137.03086419753086 89.44444444444446)"/><path d="M6607.06 3199.86l-22.66 4.67-11.64 2.96-7.12 2.13-4.87 1.7-3.54 1.4-2.68 1.18-2.08 1.04-1.66.9-1.32.8-1.1.74-.9.66-.77.6-.63.56-.55.5-.47.5-.4.44-.35.42-.3.4-.27.38-.23.36-.2.35-.17.33-.16.33-.13.32-.1.3-.1.32-.1.3-.07.3-.05.27-2.95-.56.07-.34.1-.4.1-.43.15-.43.15-.42.18-.43.2-.45.24-.45.27-.45.3-.47.33-.5.38-.5.43-.5.5-.55.54-.57.64-.6.74-.63.86-.68 1-.74 1.2-.78 1.45-.87 1.78-.97 2.2-1.1 2.8-1.23 3.65-1.44 5-1.73 7.23-2.17 11.77-3 23.33-4.8zm92.25-25.17l-.25.2-1 .73-1.2.8-1.46.87-1.77.96-2.2 1.1-2.8 1.23-3.65 1.44-5 1.73-7.23 2.17-11.77 3-23.35 4.7v-3.05l22.68-4.6 11.65-2.95 7.1-2.14 4.9-1.68 3.53-1.4 2.68-1.18 2.08-1.03 1.66-.9 1.33-.8 1.1-.74.9-.66.22-.16z" stroke="#3a414a" stroke-width=".05" fill="#3a414a"/><path d="M6542.35 3224.7l-.03 1.52h-3l.03-1.57z" fill="#3a414a"/><path d="M6542.38 3224.7l-.04 1.54h-3.05l.03-1.62zm-3.04 1.5h2.95l.02-1.46-2.94-.07z" stroke="#3a414a" stroke-width=".05" fill="#3a414a"/><path d="M6700.28 3181.55l-12.1-9.3 13.9-5.6z" fill="#3a414a"/><path d="M6701.45 3184.34l-16.28-12.5 18.72-7.52zm-10.28-11.68l7.94 6.1 1.2-9.76z" stroke="#3a414a" stroke-width=".05" fill="#3a414a"/><use xlink:href="#c" transform="matrix(1,0,0,1,6607.057497047669,3184.5387598448046) translate(0 14.222222222222223)"/><path d="M7806.76 3498.88h-99.93v-3h99.93zm171.06 0h-90.32v-3h90.32z" stroke="#3a414a" stroke-width=".05" fill="#3a414a"/><path d="M7706.87 3498.88h-1.54v-3h1.54z" fill="#3a414a"/><path d="M7706.9 3498.9h-1.6v-3.04h1.6zm-1.55-3v2.96h1.5v-2.95z" stroke="#3a414a" stroke-width=".05" fill="#3a414a"/><path d="M7985.98 3497.38l-12.9 7.64v-15.27z" fill="#3a414a"/><path d="M7988.93 3497.38l-17.36 10.27v-20.53zm-14.36 5l8.47-5-8.47-5z" stroke="#3a414a" stroke-width=".05" fill="#3a414a"/><use xlink:href="#e" transform="matrix(1,0,0,1,7806.760738202693,3486.7151639917506) translate(0 14.222222222222223)"/><path d="M8340.96 3495.28h-107.52v-3h107.52zm164.88 0h-97.92v-3h97.92z" stroke="#3a414a" stroke-width=".05" fill="#3a414a"/><path d="M8233.47 3495.28h-1.54v-3h1.54z" fill="#3a414a"/><path d="M8233.5 3495.3h-1.6v-3.04h1.6zm-1.54-3v2.96h1.5v-2.95z" stroke="#3a414a" stroke-width=".05" fill="#3a414a"/><path d="M8514 3493.78l-12.9 7.64v-15.27z" fill="#3a414a"/><path d="M8516.95 3493.78l-17.36 10.27v-20.53zm-14.36 5l8.46-5-8.47-5z" stroke="#3a414a" stroke-width=".05" fill="#3a414a"/><use xlink:href="#b" transform="matrix(1,0,0,1,8340.961988896102,3483.1170759617194) translate(0 14.222222222222223)"/><path d="M7847.28 3558.25h-130.84v-3h130.84zm140.15 0h-81.04v-3h81.03z" stroke="#3a414a" stroke-width=".05" fill="#3a414a"/><path d="M7988.93 3558.25h-1.54v-3h1.53z" fill="#3a414a"/><path d="M7988.96 3558.28h-1.6v-3.06h1.6zm-1.55-3v2.94h1.5v-2.94z" stroke="#3a414a" stroke-width=".05" fill="#3a414a"/><path d="M7721.2 3564.4l-12.93-7.65 12.9-7.64z" fill="#3a414a"/><path d="M7722.7 3567.02l-17.37-10.27 17.36-10.26zm-11.48-10.27l8.47 5v-10z" stroke="#3a414a" stroke-width=".05" fill="#3a414a"/><use xlink:href="#p" transform="matrix(1,0,0,1,7847.278890329709,3546.0836032115094) translate(0 14.222222222222223)"/><path d="M8334.07 3549.26h-91.03v-3h91.03zm181.38 0H8414.8v-3h100.65z" stroke="#3a414a" stroke-width=".05" fill="#3a414a"/><path d="M8516.95 3549.26h-1.54v-3h1.55z" fill="#3a414a"/><path d="M8516.98 3549.28h-1.6v-3.05h1.6zm-1.55-3v2.95h1.5v-2.95z" stroke="#3a414a" stroke-width=".05" fill="#3a414a"/><path d="M8247.8 3555.4l-12.92-7.64 12.9-7.64z" fill="#3a414a"/><path d="M8249.3 3558.02l-17.37-10.26 17.36-10.27zm-11.48-10.26l8.47 5v-10z" stroke="#3a414a" stroke-width=".05" fill="#3a414a"/><use xlink:href="#e" transform="matrix(1,0,0,1,8334.068861195063,3537.0883854841154) translate(0 14.222222222222223)"/><path d="M7990.43 3447.76a6 6 0 0 1 6-6h228a6 6 0 0 1 6 6v148a6 6 0 0 1-6 6h-228a6 6 0 0 1-6-6z" stroke="#3a414a" stroke-width="3" fill="#fff"/><use xlink:href="#g" transform="matrix(1,0,0,1,7998.430668121371,3449.763385768201) translate(61.53703703703704 76.27777777777777)"/><path d="M7990.43 3607.76a6 6 0 0 1 6-6h228a6 6 0 0 1 6 6v46.1a6 6 0 0 1-6 6h-228a6 6 0 0 1-6-6z" stroke="#3a414a" stroke-width="3" fill="#b8f5ed"/><use xlink:href="#h" transform="matrix(1,0,0,1,7993.3348120572355,3604.6675297040647) translate(40.5246913580247 31.02777777777778)"/><use xlink:href="#i" transform="matrix(1,0,0,1,7993.3348120572355,3604.6675297040647) translate(99.59876543209876 31.02777777777778)"/><path d="M8518.45 3447.76a6 6 0 0 1 6-6h228a6 6 0 0 1 6 6v148a6 6 0 0 1-6 6h-228a6 6 0 0 1-6-6z" stroke="#3a414a" stroke-width="3" fill="#fff"/><use xlink:href="#q" transform="matrix(1,0,0,1,8526.45203516487,3449.7633857682013) translate(81.81481481481481 76.27777777777777)"/><path d="M8518.45 3606.35a6 6 0 0 1 6-6h228a6 6 0 0 1 6 6v51.34a6 6 0 0 1-6 6h-228a6 6 0 0 1-6-6z" stroke="#3a414a" stroke-width="3" fill="#b8f5ed"/><use xlink:href="#r" transform="matrix(1,0,0,1,8521.618701831536,3603.518534595525) translate(2.709876543209873 21.34027777777778)"/><use xlink:href="#s" transform="matrix(1,0,0,1,8521.618701831536,3603.518534595525) translate(127.83333333333333 21.34027777777778)"/><use xlink:href="#t" transform="matrix(1,0,0,1,8521.618701831536,3603.518534595525) translate(11.907407407407405 48.00694444444444)"/><use xlink:href="#u" transform="matrix(1,0,0,1,8521.618701831536,3603.518534595525) translate(122.21604938271605 48.00694444444444)"/><path d="M6771.14 3651.1h-97.92v-3h97.92zm174.5 0H6838.1v-3h107.53z" stroke="#3a414a" stroke-width=".05" fill="#3a414a"/><path d="M6947.13 3651.1h-1.54v-3h1.53z" fill="#3a414a"/><path d="M6947.16 3651.1h-1.6v-3.04h1.6zm-1.55-3v2.96h1.5v-2.95z" stroke="#3a414a" stroke-width=".05" fill="#3a414a"/><path d="M6677.97 3657.22l-12.9-7.63 12.9-7.65z" fill="#3a414a"/><path d="M6679.47 3659.85l-17.36-10.26 17.37-10.28zM6668 3649.6l8.47 5v-10.02z" stroke="#3a414a" stroke-width=".05" fill="#3a414a"/><use xlink:href="#b" transform="matrix(1,0,0,1,6771.137939911734,3638.9185023377736) translate(0 14.222222222222223)"/><path d="M6449.26 3857.36l-26.95 5.96-7.68 2.3-5.18 1.8-3.75 1.5-2.84 1.24-2.2 1.1-1.74.95-1.4.86-1.17.77-.96.7-.82.64-1.86-2.35.86-.68 1.06-.77 1.27-.84 1.53-.92 1.85-1 2.3-1.15 2.95-1.3 3.86-1.53 5.3-1.84 7.85-2.36 27.7-6.14zm92.7-34.5l-.1.5-.1.45-.1.46-.16.44-.17.46-.2.46-.2.46-.26.47-.28.5-.32.5-.36.5-.4.52-.45.55-.52.58-.6.6-.66.63-.8.67-.9.72-1.06.77-1.26.83-1.52.9-1.86 1.03-2.3 1.14-2.94 1.3-3.87 1.54-5.32 1.84-7.83 2.35-13.43 3.4-14.2 3.16v-3.1l13.5-2.98 13.33-3.38 7.7-2.32 5.2-1.8 3.74-1.48 2.82-1.25 2.2-1.1 1.74-.95 1.4-.86 1.17-.78.96-.7.8-.63.68-.6.58-.55.5-.5.43-.5.37-.44.32-.42.28-.4.24-.4.22-.37.2-.35.16-.36.14-.35.13-.33.1-.33.1-.34.07-.32.08-.4z" stroke="#3a414a" stroke-width=".05" fill="#3a414a"/><path d="M6542.08 3822.68l-3-.07.03-1.5h3z" fill="#3a414a"/><path d="M6542.1 3822.7l-3.05-.06.04-1.56h3.04zm-2.97-1.57l-.03 1.46 2.95.05.04-1.52z" stroke="#3a414a" stroke-width=".05" fill="#3a414a"/><path d="M6403.87 3875l-13.77 5.97 1.4-14.94z" fill="#3a414a"/><path d="M6406.88 3875.34l-18.5 8 1.9-20.07zm-15.05 3.24l9.03-3.9-8.1-5.9z" stroke="#3a414a" stroke-width=".05" fill="#3a414a"/><use xlink:href="#c" transform="matrix(1,0,0,1,6449.256116708869,3841.768758036306) translate(0 14.222222222222223)"/><path d="M6268.37 3890.85a6 6 0 0 1 6-6h228a6 6 0 0 1 6 6v148a6 6 0 0 1-6 6h-228a6 6 0 0 1-6-6z" stroke="#3a414a" stroke-width="3" fill="#fff"/><use xlink:href="#d" transform="matrix(1,0,0,1,6276.37121715245,3892.8491773814812) translate(74.40740740740742 76.27777777777777)"/><path d="M6748.5 3708.76h-84.9v-3h84.9zm187.52 0h-106.77v-3h106.77z" stroke="#3a414a" stroke-width=".05" fill="#3a414a"/><path d="M6663.65 3708.76h-1.54v-3h1.55z" fill="#3a414a"/><path d="M6663.68 3708.78h-1.6v-3.05h1.6zm-1.54-3v2.95h1.5v-2.95z" stroke="#3a414a" stroke-width=".05" fill="#3a414a"/><path d="M6944.2 3707.26l-12.93 7.63v-15.28z" fill="#3a414a"/><path d="M6947.13 3707.26l-17.36 10.26V3697zm-14.36 5l8.47-5-8.47-5z" stroke="#3a414a" stroke-width=".05" fill="#3a414a"/><use xlink:href="#e" transform="matrix(1,0,0,1,6748.5120885225,3696.5929308613186) translate(0 14.222222222222223)"/><path d="M7315.43 3645.74l-12.6 13.48-8.4 8.25-6.98 6.3-6.22 5.14-5.76 4.38-5.47 3.8-5.28 3.36-5.16 2.98-5.1 2.67-5.1 2.4-5.13 2.14-5.2 1.94-5.3 1.72-5.43 1.52-5.62 1.3-5.85 1.13-6.12.9-6.43.68-6.84.43-5.76.12-.07-3 5.7-.12 6.72-.42 6.32-.67 6-.88 5.7-1.1 5.5-1.3 5.33-1.47 5.18-1.7 5.07-1.88 5-2.1 5-2.35 5-2.6 5.05-2.93 5.17-3.28 5.37-3.74 5.67-4.3 6.12-5.07 6.87-6.22 8.3-8.16 12.55-13.4 1.5-1.68h4.04zm135.9-90.23l-2.9.18-6.3.67-6 .88-5.72 1.1-5.5 1.28-5.3 1.5-5.2 1.68-5.06 1.9-5.02 2.1-4.98 2.34-5 2.6-5.05 2.93-5.18 3.3-5.37 3.72-5.66 4.3-6.13 5.07-6.88 6.2-8.32 8.15-13.8 15.3h-4.03l15.67-17.4 8.4-8.25 4.27-3.83h4.18v-3.67l4.75-3.93 5.76-4.38 5.46-3.8 5.28-3.36 5.16-2.98 5.1-2.67 5.1-2.4 5.13-2.15 5.2-1.93 5.3-1.72 5.43-1.52 5.62-1.3 5.85-1.13 6.12-.9 6.44-.67 2.93-.2z" stroke="#3a414a" stroke-width=".05" fill="#3a414a"/><path d="M7191.7 3710.38l-1.57.03v-3l1.5-.02z" fill="#3a414a"/><path d="M7191.73 3710.4l-1.62.03v-3.05l1.57-.03zm-1.57-2.97v2.95l1.52-.03-.06-2.95z" stroke="#3a414a" stroke-width=".05" fill="#3a414a"/><path d="M7459.38 3553.75l-12.55 8.2-.7-15.25z" fill="#3a414a"/><path d="M7462.33 3553.62l-16.88 11.03-.93-20.5zm-14.12 5.64l8.24-5.38-8.68-4.62z" stroke="#3a414a" stroke-width=".05" fill="#3a414a"/><use xlink:href="#f" transform="matrix(1,0,0,1,7294.3296564513685,3620.706363794294) translate(0 14.222222222222223)"/><path d="M7302.84 3608.6l-8.4 8.27-7 6.3-6.2 5.14-5.77 4.4-5.47 3.8-5.28 3.34-5.16 2.98-5.1 2.68-5.1 2.4-5.13 2.15-5.2 1.93-5.3 1.72-5.43 1.52-5.62 1.32-5.85 1.1-6.12.92-6.43.67-2.94.2-.2-3 2.9-.2 6.3-.65 6-.9 5.72-1.08 5.5-1.3 5.32-1.47 5.18-1.68 5.07-1.9 5-2.1 5-2.34 5-2.6 5.05-2.92 5.17-3.3 5.37-3.72 5.67-4.3 6.12-5.07 6.87-6.2 8.3-8.16 13.8-15.32h4.04zm158-104.05l-5.7.12-6.7.42-6.32.65-6 .9-5.7 1.08-5.5 1.3-5.33 1.47-5.2 1.68-5.06 1.9-5.02 2.1-4.98 2.34-5 2.62-5.05 2.92-5.18 3.28-5.37 3.73-5.66 4.3-6.13 5.07-6.88 6.2-8.32 8.16-12.54 13.4-1.5 1.7h-4.04l3.33-3.7 12.6-13.5 8.4-8.24 6.98-6.3 6.23-5.14 5.76-4.38 5.46-3.8 5.28-3.35 5.16-3 5.1-2.66 5.1-2.4 5.13-2.16 5.2-1.93 5.3-1.72 5.43-1.52 5.62-1.3 5.85-1.12 6.12-.9 6.44-.68 6.83-.43 5.76-.12z" stroke="#3a414a" stroke-width=".05" fill="#3a414a"/><path d="M7462.33 3504.52l-1.5.03-.08-3 1.58-.03z" fill="#3a414a"/><path d="M7462.35 3504.55l-1.56.03-.07-3.05 1.62-.04zm-1.57-2.97l.06 2.95 1.46-.03v-2.95z" stroke="#3a414a" stroke-width=".05" fill="#3a414a"/><path d="M7206.32 3665.22l-13.24-7.04 12.55-8.2z" fill="#3a414a"/><path d="M7207.94 3667.78l-17.8-9.47 16.87-11.03zm-11.92-9.73l8.68 4.6-.45-10z" stroke="#3a414a" stroke-width=".05" fill="#3a414a"/><use xlink:href="#e" transform="matrix(1,0,0,1,7285.734879756597,3569.8875443935885) translate(0 14.222222222222223)"/><path d="M6948.63 3606.9a6 6 0 0 1 6-6h228a6 6 0 0 1 6 6v148a6 6 0 0 1-6 6h-228a6 6 0 0 1-6-6z" stroke="#3a414a" stroke-width="3" fill="#fff"/><use xlink:href="#g" transform="matrix(1,0,0,1,6956.6322637093035,3608.89414478613) translate(61.53703703703704 76.27777777777777)"/><path d="M6948.63 3766.9a6 6 0 0 1 6-6h228a6 6 0 0 1 6 6v46.08a6 6 0 0 1-6 6h-228a6 6 0 0 1-6-6z" stroke="#3a414a" stroke-width="3" fill="#b8f5ed"/><use xlink:href="#h" transform="matrix(1,0,0,1,6951.536407645168,3763.7982887219937) translate(40.5246913580247 31.02777777777778)"/><use xlink:href="#i" transform="matrix(1,0,0,1,6951.536407645168,3763.7982887219937) translate(99.59876543209876 31.02777777777778)"/><path d="M6420.6 3606.9a6 6 0 0 1 6-6h228a6 6 0 0 1 6 6v148a6 6 0 0 1-6 6h-228a6 6 0 0 1-6-6z" stroke="#3a414a" stroke-width="3" fill="#fff"/><use xlink:href="#j" transform="matrix(1,0,0,1,6428.610896665805,3608.89414478613) translate(54.716049382716044 76.27777777777777)"/><path d="M6420.6 3767.52a6 6 0 0 1 6-6h228a6 6 0 0 1 6 6v46.1a6 6 0 0 1-6 6h-228a6 6 0 0 1-6-6z" stroke="#3a414a" stroke-width="3" fill="#b8f5ed"/><use xlink:href="#k" transform="matrix(1,0,0,1,6423.515040601669,3764.4266638624645) translate(29.135802469135797 31.02777777777778)"/><use xlink:href="#v" transform="matrix(1,0,0,1,6423.515040601669,3764.4266638624645) translate(139.44444444444446 31.02777777777778)"/><path d="M6583.9 3890.85a6 6 0 0 1 6-6h228a6 6 0 0 1 6 6v148a6 6 0 0 1-6 6h-228a6 6 0 0 1-6-6z" stroke="#3a414a" stroke-width="3" fill="#fff"/><g><use xlink:href="#m" transform="matrix(1,0,0,1,6591.891323659794,3892.8491773814812) translate(87.98765432098766 62.77777777777778)"/><use xlink:href="#n" transform="matrix(1,0,0,1,6591.891323659794,3892.8491773814812) translate(3.265432098765416 89.44444444444446)"/><use xlink:href="#w" transform="matrix(1,0,0,1,6591.891323659794,3892.8491773814812) translate(107.52469135802468 89.44444444444446)"/></g><path d="M6660.56 3858.52l11.9 3.03 7.32 2.2 5.03 1.74 3.7 1.45 2.82 1.25 2.2 1.1 1.8.97 1.45.88 1.2.8 1.03.74.34.26-1.86 2.36-.3-.24-.9-.66-1.12-.74-1.35-.8-1.65-.93-2.1-1.03-2.7-1.2-3.58-1.4-4.92-1.72-7.2-2.16-11.76-3-22.37-4.55v-3.07zm-118.3-35.9l.08.3.08.3.1.3.12.3.13.33.16.33.18.34.2.35.24.37.27.38.3.4.37.43.4.45.48.5.55.5.65.56.77.6.92.68 1.1.73 1.35.82 1.66.9 2.1 1.04 2.7 1.2 3.57 1.4 4.92 1.72 7.2 2.15 11.76 3 22.36 4.6v3.05l-23.02-4.7-11.9-3.04-7.3-2.2-5.05-1.74-3.7-1.45-2.82-1.24-2.2-1.1-1.8-.98-1.45-.88-1.2-.8-1.02-.74-.86-.68-.74-.65-.65-.6-.56-.57-.5-.55-.44-.5-.38-.52-.34-.48-.3-.47-.26-.47-.24-.45-.2-.43-.2-.43-.15-.43-.15-.42-.12-.42-.1-.42-.06-.36 2.94-.56z" stroke="#3a414a" stroke-width=".05" fill="#3a414a"/><path d="M6542.14 3822.6l-3 .08-.03-1.57h3z" fill="#3a414a"/><path d="M6542.17 3822.64l-3.05.06-.03-1.62h3.04zm-3.03-1.5l.03 1.5 2.95-.05-.03-1.47z" stroke="#3a414a" stroke-width=".05" fill="#3a414a"/><path d="M6702.1 3881l-13.9-5.63 12.14-9.26z" fill="#3a414a"/><path d="M6703.9 3883.35l-18.7-7.57 16.32-12.46zm-12.7-8.38l9.12 3.7-1.16-9.77z" stroke="#3a414a" stroke-width=".05" fill="#3a414a"/><g><use xlink:href="#c" transform="matrix(1,0,0,1,6606.964120698775,3841.5778371342526) translate(0 14.222222222222223)"/></g><defs><path fill="#3a414a" d="M67-125c0 53 21 87 73 88 37 1 54-22 65-47l45 17C233-25 199 4 140 4 58 4 20-42 15-125 8-235 124-281 211-232c18 10 29 29 36 50l-46 12c-8-25-30-41-62-41-52 0-71 34-72 86" id="x"/><path fill="#3a414a" d="M114-157C55-157 80-60 75 0H25v-261h50l-1 109c12-26 28-41 61-42 86-1 58 113 63 194h-50c-7-57 23-157-34-157" id="y"/><path fill="#3a414a" d="M133-34C117-15 103 5 69 4 32 3 11-16 11-54c-1-60 55-63 116-61 1-26-3-47-28-47-18 1-26 9-28 27l-52-2c7-38 36-58 82-57s74 22 75 68l1 82c-1 14 12 18 25 15v27c-30 8-71 5-69-32zm-48 3c29 0 43-24 42-57-32 0-66-3-65 30 0 17 8 27 23 27" id="z"/><path fill="#3a414a" d="M135-150c-39-12-60 13-60 57V0H25l-1-190h47c2 13-1 29 3 40 6-28 27-53 61-41v41" id="A"/><path fill="#3a414a" d="M190-63c-7 42-38 67-86 67-59 0-84-38-90-98-12-110 154-137 174-36l-49 2c-2-19-15-32-35-32-30 0-35 28-38 64-6 74 65 87 74 30" id="B"/><path fill="#3a414a" d="M115-3C79 11 28 4 28-45v-112H4v-33h27l15-45h31v45h36v33H77v99c-1 23 16 31 38 25v30" id="C"/><path fill="#3a414a" d="M185-48c-13 30-37 53-82 52C43 2 14-33 14-96s30-98 90-98c62 0 83 45 84 108H66c0 31 8 55 39 56 18 0 30-7 34-22zm-45-69c5-46-57-63-70-21-2 6-4 13-4 21h74" id="D"/><g id="a"><use transform="matrix(0.06172839506172839,0,0,0.06172839506172839,0,0)" xlink:href="#x"/><use transform="matrix(0.06172839506172839,0,0,0.06172839506172839,15.987654320987653,0)" xlink:href="#y"/><use transform="matrix(0.06172839506172839,0,0,0.06172839506172839,29.50617283950617,0)" xlink:href="#z"/><use transform="matrix(0.06172839506172839,0,0,0.06172839506172839,41.85185185185185,0)" xlink:href="#A"/><use transform="matrix(0.06172839506172839,0,0,0.06172839506172839,50.49382716049382,0)" xlink:href="#z"/><use transform="matrix(0.06172839506172839,0,0,0.06172839506172839,62.8395061728395,0)" xlink:href="#B"/><use transform="matrix(0.06172839506172839,0,0,0.06172839506172839,75.18518518518518,0)" xlink:href="#C"/><use transform="matrix(0.06172839506172839,0,0,0.06172839506172839,82.53086419753086,0)" xlink:href="#D"/><use transform="matrix(0.06172839506172839,0,0,0.06172839506172839,94.87654320987654,0)" xlink:href="#A"/></g><path fill="#333" d="M24-248c120-7 223 5 221 122C244-46 201 0 124 0H24v-248zM76-40c74 7 117-18 117-86 0-67-45-88-117-82v168" id="E"/><path fill="#333" d="M25-224v-37h50v37H25zM25 0v-190h50V0H25" id="F"/><path fill="#333" d="M135-194c53 0 70 44 70 98 0 56-19 98-73 100-31 1-45-17-59-34 3 33 2 69 2 105H25l-1-265h48c2 10 0 23 3 31 11-24 29-35 60-35zM114-30c33 0 39-31 40-66 0-38-9-64-40-64-56 0-55 130 0 130" id="G"/><path fill="#333" d="M190-63c-7 42-38 67-86 67-59 0-84-38-90-98-12-110 154-137 174-36l-49 2c-2-19-15-32-35-32-30 0-35 28-38 64-6 74 65 87 74 30" id="H"/><path fill="#333" d="M115-3C79 11 28 4 28-45v-112H4v-33h27l15-45h31v45h36v33H77v99c-1 23 16 31 38 25v30" id="I"/><path fill="#333" d="M110-194c64 0 96 36 96 99 0 64-35 99-97 99-61 0-95-36-95-99 0-62 34-99 96-99zm-1 164c35 0 45-28 45-65 0-40-10-65-43-65-34 0-45 26-45 65 0 36 10 65 43 65" id="J"/><path fill="#333" d="M135-150c-39-12-60 13-60 57V0H25l-1-190h47c2 13-1 29 3 40 6-28 27-53 61-41v41" id="K"/><g id="b"><use transform="matrix(0.04938271604938272,0,0,0.04938271604938272,0,0)" xlink:href="#E"/><use transform="matrix(0.04938271604938272,0,0,0.04938271604938272,12.790123456790125,0)" xlink:href="#F"/><use transform="matrix(0.04938271604938272,0,0,0.04938271604938272,17.7283950617284,0)" xlink:href="#G"/><use transform="matrix(0.04938271604938272,0,0,0.04938271604938272,28.54320987654322,0)" xlink:href="#F"/><use transform="matrix(0.04938271604938272,0,0,0.04938271604938272,33.48148148148149,0)" xlink:href="#H"/><use transform="matrix(0.04938271604938272,0,0,0.04938271604938272,43.35802469135803,0)" xlink:href="#I"/><use transform="matrix(0.04938271604938272,0,0,0.04938271604938272,49.23456790123458,0)" xlink:href="#J"/><use transform="matrix(0.04938271604938272,0,0,0.04938271604938272,60.0493827160494,0)" xlink:href="#K"/></g><path fill="#333" d="M114-157C55-157 80-60 75 0H25v-261h50l-1 109c12-26 28-41 61-42 86-1 58 113 63 194h-50c-7-57 23-157-34-157" id="L"/><path fill="#333" d="M133-34C117-15 103 5 69 4 32 3 11-16 11-54c-1-60 55-63 116-61 1-26-3-47-28-47-18 1-26 9-28 27l-52-2c7-38 36-58 82-57s74 22 75 68l1 82c-1 14 12 18 25 15v27c-30 8-71 5-69-32zm-48 3c29 0 43-24 42-57-32 0-66-3-65 30 0 17 8 27 23 27" id="M"/><path fill="#333" d="M137-138c1-29-70-34-71-4 15 46 118 7 119 86 1 83-164 76-172 9l43-7c4 19 20 25 44 25 33 8 57-30 24-41C81-84 22-81 20-136c-2-80 154-74 161-7" id="N"/><g id="c"><use transform="matrix(0.04938271604938272,0,0,0.04938271604938272,0,0)" xlink:href="#L"/><use transform="matrix(0.04938271604938272,0,0,0.04938271604938272,10.814814814814815,0)" xlink:href="#M"/><use transform="matrix(0.04938271604938272,0,0,0.04938271604938272,20.69135802469136,0)" xlink:href="#N"/></g><path fill="#3a414a" d="M24-248c93 1 206-16 204 79-1 75-69 88-152 82V0H24v-248zm52 121c47 0 100 7 100-41 0-47-54-39-100-39v80" id="O"/><path fill="#3a414a" d="M137-138c1-29-70-34-71-4 15 46 118 7 119 86 1 83-164 76-172 9l43-7c4 19 20 25 44 25 33 8 57-30 24-41C81-84 22-81 20-136c-2-80 154-74 161-7" id="P"/><path fill="#3a414a" d="M110-194c64 0 96 36 96 99 0 64-35 99-97 99-61 0-95-36-95-99 0-62 34-99 96-99zm-1 164c35 0 45-28 45-65 0-40-10-65-43-65-34 0-45 26-45 65 0 36 10 65 43 65" id="Q"/><path fill="#3a414a" d="M135-194c87-1 58 113 63 194h-50c-7-57 23-157-34-157-59 0-34 97-39 157H25l-1-190h47c2 12-1 28 3 38 12-26 28-41 61-42" id="R"/><g id="d"><use transform="matrix(0.06172839506172839,0,0,0.06172839506172839,0,0)" xlink:href="#O"/><use transform="matrix(0.06172839506172839,0,0,0.06172839506172839,14.814814814814813,0)" xlink:href="#D"/><use transform="matrix(0.06172839506172839,0,0,0.06172839506172839,27.160493827160494,0)" xlink:href="#A"/><use transform="matrix(0.06172839506172839,0,0,0.06172839506172839,35.80246913580247,0)" xlink:href="#P"/><use transform="matrix(0.06172839506172839,0,0,0.06172839506172839,48.148148148148145,0)" xlink:href="#Q"/><use transform="matrix(0.06172839506172839,0,0,0.06172839506172839,61.666666666666664,0)" xlink:href="#R"/></g><path fill="#333" d="M185-48c-13 30-37 53-82 52C43 2 14-33 14-96s30-98 90-98c62 0 83 45 84 108H66c0 31 8 55 39 56 18 0 30-7 34-22zm-45-69c5-46-57-63-70-21-2 6-4 13-4 21h74" id="S"/><path fill="#333" d="M135-194c87-1 58 113 63 194h-50c-7-57 23-157-34-157-59 0-34 97-39 157H25l-1-190h47c2 12-1 28 3 38 12-26 28-41 61-42" id="T"/><g id="e"><use transform="matrix(0.04938271604938272,0,0,0.04938271604938272,0,0)" xlink:href="#E"/><use transform="matrix(0.04938271604938272,0,0,0.04938271604938272,12.790123456790125,0)" xlink:href="#S"/><use transform="matrix(0.04938271604938272,0,0,0.04938271604938272,22.66666666666667,0)" xlink:href="#G"/><use transform="matrix(0.04938271604938272,0,0,0.04938271604938272,33.48148148148149,0)" xlink:href="#F"/><use transform="matrix(0.04938271604938272,0,0,0.04938271604938272,38.41975308641976,0)" xlink:href="#H"/><use transform="matrix(0.04938271604938272,0,0,0.04938271604938272,48.296296296296305,0)" xlink:href="#I"/><use transform="matrix(0.04938271604938272,0,0,0.04938271604938272,54.17283950617284,0)" xlink:href="#F"/><use transform="matrix(0.04938271604938272,0,0,0.04938271604938272,59.111111111111114,0)" xlink:href="#J"/><use transform="matrix(0.04938271604938272,0,0,0.04938271604938272,69.92592592592594,0)" xlink:href="#T"/></g><g id="f"><use transform="matrix(0.04938271604938272,0,0,0.04938271604938272,0,0)" xlink:href="#E"/><use transform="matrix(0.04938271604938272,0,0,0.04938271604938272,12.790123456790125,0)" xlink:href="#S"/><use transform="matrix(0.04938271604938272,0,0,0.04938271604938272,22.66666666666667,0)" xlink:href="#G"/><use transform="matrix(0.04938271604938272,0,0,0.04938271604938272,33.48148148148149,0)" xlink:href="#F"/><use transform="matrix(0.04938271604938272,0,0,0.04938271604938272,38.41975308641976,0)" xlink:href="#H"/><use transform="matrix(0.04938271604938272,0,0,0.04938271604938272,48.296296296296305,0)" xlink:href="#I"/><use transform="matrix(0.04938271604938272,0,0,0.04938271604938272,54.17283950617284,0)" xlink:href="#N"/></g><path fill="#3a414a" d="M24-248c120-7 223 5 221 122C244-46 201 0 124 0H24v-248zM76-40c74 7 117-18 117-86 0-67-45-88-117-82v168" id="U"/><path fill="#3a414a" d="M135-194c53 0 70 44 70 98 0 56-19 98-73 100-31 1-45-17-59-34 3 33 2 69 2 105H25l-1-265h48c2 10 0 23 3 31 11-24 29-35 60-35zM114-30c33 0 39-31 40-66 0-38-9-64-40-64-56 0-55 130 0 130" id="V"/><path fill="#3a414a" d="M25-224v-37h50v37H25zM25 0v-190h50V0H25" id="W"/><g id="g"><use transform="matrix(0.06172839506172839,0,0,0.06172839506172839,0,0)" xlink:href="#U"/><use transform="matrix(0.06172839506172839,0,0,0.06172839506172839,15.987654320987653,0)" xlink:href="#D"/><use transform="matrix(0.06172839506172839,0,0,0.06172839506172839,28.333333333333332,0)" xlink:href="#V"/><use transform="matrix(0.06172839506172839,0,0,0.06172839506172839,41.85185185185185,0)" xlink:href="#W"/><use transform="matrix(0.06172839506172839,0,0,0.06172839506172839,48.02469135802469,0)" xlink:href="#B"/><use transform="matrix(0.06172839506172839,0,0,0.06172839506172839,60.37037037037037,0)" xlink:href="#C"/><use transform="matrix(0.06172839506172839,0,0,0.06172839506172839,67.71604938271605,0)" xlink:href="#W"/><use transform="matrix(0.06172839506172839,0,0,0.06172839506172839,73.88888888888889,0)" xlink:href="#Q"/><use transform="matrix(0.06172839506172839,0,0,0.06172839506172839,87.4074074074074,0)" xlink:href="#R"/></g><path fill="#3a414a" d="M123 10C108 53 80 86 19 72V37c35 8 53-11 59-39L3-190h52l48 148c12-52 28-100 44-148h51" id="X"/><path fill="#3a414a" d="M35-132v-50h50v50H35zM35 0v-49h50V0H35" id="Y"/><g id="h"><use transform="matrix(0.06172839506172839,0,0,0.06172839506172839,0,0)" xlink:href="#C"/><use transform="matrix(0.06172839506172839,0,0,0.06172839506172839,7.345679012345679,0)" xlink:href="#X"/><use transform="matrix(0.06172839506172839,0,0,0.06172839506172839,19.691358024691358,0)" xlink:href="#V"/><use transform="matrix(0.06172839506172839,0,0,0.06172839506172839,33.20987654320987,0)" xlink:href="#D"/><use transform="matrix(0.06172839506172839,0,0,0.06172839506172839,45.55555555555555,0)" xlink:href="#Y"/></g><path fill="#3a414a" d="M25 0v-261h50V0H25" id="Z"/><g id="i"><use transform="matrix(0.06172839506172839,0,0,0.06172839506172839,0,0)" xlink:href="#V"/><use transform="matrix(0.06172839506172839,0,0,0.06172839506172839,13.518518518518517,0)" xlink:href="#Q"/><use transform="matrix(0.06172839506172839,0,0,0.06172839506172839,27.037037037037035,0)" xlink:href="#A"/><use transform="matrix(0.06172839506172839,0,0,0.06172839506172839,35.67901234567901,0)" xlink:href="#C"/><use transform="matrix(0.06172839506172839,0,0,0.06172839506172839,43.02469135802469,0)" xlink:href="#A"/><use transform="matrix(0.06172839506172839,0,0,0.06172839506172839,51.666666666666664,0)" xlink:href="#z"/><use transform="matrix(0.06172839506172839,0,0,0.06172839506172839,64.01234567901234,0)" xlink:href="#X"/><use transform="matrix(0.06172839506172839,0,0,0.06172839506172839,76.35802469135803,0)" xlink:href="#z"/><use transform="matrix(0.06172839506172839,0,0,0.06172839506172839,88.70370370370371,0)" xlink:href="#Z"/></g><g id="j"><use transform="matrix(0.06172839506172839,0,0,0.06172839506172839,0,0)" xlink:href="#O"/><use transform="matrix(0.06172839506172839,0,0,0.06172839506172839,14.814814814814813,0)" xlink:href="#z"/><use transform="matrix(0.06172839506172839,0,0,0.06172839506172839,27.160493827160494,0)" xlink:href="#A"/><use transform="matrix(0.06172839506172839,0,0,0.06172839506172839,35.80246913580247,0)" xlink:href="#C"/><use transform="matrix(0.06172839506172839,0,0,0.06172839506172839,43.148148148148145,0)" xlink:href="#W"/><use transform="matrix(0.06172839506172839,0,0,0.06172839506172839,49.32098765432099,0)" xlink:href="#B"/><use transform="matrix(0.06172839506172839,0,0,0.06172839506172839,61.666666666666664,0)" xlink:href="#W"/><use transform="matrix(0.06172839506172839,0,0,0.06172839506172839,67.8395061728395,0)" xlink:href="#V"/><use transform="matrix(0.06172839506172839,0,0,0.06172839506172839,81.35802469135803,0)" xlink:href="#z"/><use transform="matrix(0.06172839506172839,0,0,0.06172839506172839,93.70370370370371,0)" xlink:href="#R"/><use transform="matrix(0.06172839506172839,0,0,0.06172839506172839,107.22222222222223,0)" xlink:href="#C"/></g><path fill="#3a414a" d="M121-226c-27-7-43 5-38 36h38v33H83V0H34v-157H6v-33h28c-9-59 32-81 87-68v32" id="aa"/><path fill="#3a414a" d="M85 4C-2 5 27-109 22-190h50c7 57-23 150 33 157 60-5 35-97 40-157h50l1 190h-47c-2-12 1-28-3-38-12 25-28 42-61 42" id="ab"/><path fill="#3a414a" d="M136-208V0H84v-208H4v-40h212v40h-80" id="ac"/><g id="k"><use transform="matrix(0.06172839506172839,0,0,0.06172839506172839,0,0)" xlink:href="#aa"/><use transform="matrix(0.06172839506172839,0,0,0.06172839506172839,7.345679012345679,0)" xlink:href="#ab"/><use transform="matrix(0.06172839506172839,0,0,0.06172839506172839,20.864197530864196,0)" xlink:href="#R"/><use transform="matrix(0.06172839506172839,0,0,0.06172839506172839,34.382716049382715,0)" xlink:href="#B"/><use transform="matrix(0.06172839506172839,0,0,0.06172839506172839,46.72839506172839,0)" xlink:href="#ac"/><use transform="matrix(0.06172839506172839,0,0,0.06172839506172839,58.58024691358025,0)" xlink:href="#X"/><use transform="matrix(0.06172839506172839,0,0,0.06172839506172839,70.92592592592592,0)" xlink:href="#V"/><use transform="matrix(0.06172839506172839,0,0,0.06172839506172839,84.44444444444444,0)" xlink:href="#D"/><use transform="matrix(0.06172839506172839,0,0,0.06172839506172839,96.79012345679013,0)" xlink:href="#Y"/></g><g id="l"><use transform="matrix(0.06172839506172839,0,0,0.06172839506172839,0,0)" xlink:href="#z"/><use transform="matrix(0.06172839506172839,0,0,0.06172839506172839,12.345679012345679,0)" xlink:href="#B"/><use transform="matrix(0.06172839506172839,0,0,0.06172839506172839,24.691358024691358,0)" xlink:href="#C"/><use transform="matrix(0.06172839506172839,0,0,0.06172839506172839,32.03703703703704,0)" xlink:href="#Q"/><use transform="matrix(0.06172839506172839,0,0,0.06172839506172839,45.55555555555556,0)" xlink:href="#A"/></g><path fill="#3a414a" d="M240-174c0 40-23 61-54 70L253 0h-59l-57-94H76V0H24v-248c93 4 217-23 216 74zM76-134c48-2 112 12 112-38 0-48-66-32-112-35v73" id="ad"/><g id="m"><use transform="matrix(0.06172839506172839,0,0,0.06172839506172839,0,0)" xlink:href="#ad"/><use transform="matrix(0.06172839506172839,0,0,0.06172839506172839,15.987654320987653,0)" xlink:href="#Q"/><use transform="matrix(0.06172839506172839,0,0,0.06172839506172839,29.50617283950617,0)" xlink:href="#Z"/><use transform="matrix(0.06172839506172839,0,0,0.06172839506172839,35.67901234567901,0)" xlink:href="#D"/></g><g id="n"><use transform="matrix(0.06172839506172839,0,0,0.06172839506172839,0,0)" xlink:href="#A"/><use transform="matrix(0.06172839506172839,0,0,0.06172839506172839,8.641975308641975,0)" xlink:href="#Q"/><use transform="matrix(0.06172839506172839,0,0,0.06172839506172839,22.160493827160494,0)" xlink:href="#Z"/><use transform="matrix(0.06172839506172839,0,0,0.06172839506172839,28.333333333333332,0)" xlink:href="#D"/><use transform="matrix(0.06172839506172839,0,0,0.06172839506172839,40.67901234567901,0)" xlink:href="#ac"/><use transform="matrix(0.06172839506172839,0,0,0.06172839506172839,52.53086419753087,0)" xlink:href="#X"/><use transform="matrix(0.06172839506172839,0,0,0.06172839506172839,64.87654320987654,0)" xlink:href="#V"/><use transform="matrix(0.06172839506172839,0,0,0.06172839506172839,78.39506172839506,0)" xlink:href="#D"/><use transform="matrix(0.06172839506172839,0,0,0.06172839506172839,90.74074074074075,0)" xlink:href="#Y"/></g><g id="o"><use transform="matrix(0.06172839506172839,0,0,0.06172839506172839,0,0)" xlink:href="#z"/><use transform="matrix(0.06172839506172839,0,0,0.06172839506172839,12.345679012345679,0)" xlink:href="#B"/><use transform="matrix(0.06172839506172839,0,0,0.06172839506172839,24.691358024691358,0)" xlink:href="#C"/><use transform="matrix(0.06172839506172839,0,0,0.06172839506172839,32.03703703703704,0)" xlink:href="#Q"/><use transform="matrix(0.06172839506172839,0,0,0.06172839506172839,45.55555555555556,0)" xlink:href="#A"/></g><g id="p"><use transform="matrix(0.04938271604938272,0,0,0.04938271604938272,0,0)" xlink:href="#E"/><use transform="matrix(0.04938271604938272,0,0,0.04938271604938272,12.790123456790125,0)" xlink:href="#F"/><use transform="matrix(0.04938271604938272,0,0,0.04938271604938272,17.7283950617284,0)" xlink:href="#G"/><use transform="matrix(0.04938271604938272,0,0,0.04938271604938272,28.54320987654322,0)" xlink:href="#F"/><use transform="matrix(0.04938271604938272,0,0,0.04938271604938272,33.48148148148149,0)" xlink:href="#H"/><use transform="matrix(0.04938271604938272,0,0,0.04938271604938272,43.35802469135803,0)" xlink:href="#I"/><use transform="matrix(0.04938271604938272,0,0,0.04938271604938272,49.23456790123458,0)" xlink:href="#N"/></g><path fill="#3a414a" d="M199 0l-22-63H83L61 0H9l90-248h61L250 0h-51zm-33-102l-36-108c-10 38-24 72-36 108h72" id="ae"/><g id="q"><use transform="matrix(0.06172839506172839,0,0,0.06172839506172839,0,0)" xlink:href="#ae"/><use transform="matrix(0.06172839506172839,0,0,0.06172839506172839,15.987654320987653,0)" xlink:href="#P"/><use transform="matrix(0.06172839506172839,0,0,0.06172839506172839,28.333333333333332,0)" xlink:href="#P"/><use transform="matrix(0.06172839506172839,0,0,0.06172839506172839,40.67901234567901,0)" xlink:href="#D"/><use transform="matrix(0.06172839506172839,0,0,0.06172839506172839,53.02469135802469,0)" xlink:href="#C"/></g><g id="r"><use transform="matrix(0.06172839506172839,0,0,0.06172839506172839,0,0)" xlink:href="#P"/><use transform="matrix(0.06172839506172839,0,0,0.06172839506172839,12.345679012345679,0)" xlink:href="#C"/><use transform="matrix(0.06172839506172839,0,0,0.06172839506172839,19.691358024691358,0)" xlink:href="#A"/><use transform="matrix(0.06172839506172839,0,0,0.06172839506172839,28.333333333333332,0)" xlink:href="#ab"/><use transform="matrix(0.06172839506172839,0,0,0.06172839506172839,41.85185185185185,0)" xlink:href="#B"/><use transform="matrix(0.06172839506172839,0,0,0.06172839506172839,54.197530864197525,0)" xlink:href="#C"/><use transform="matrix(0.06172839506172839,0,0,0.06172839506172839,61.5432098765432,0)" xlink:href="#ac"/><use transform="matrix(0.06172839506172839,0,0,0.06172839506172839,73.39506172839505,0)" xlink:href="#X"/><use transform="matrix(0.06172839506172839,0,0,0.06172839506172839,85.74074074074073,0)" xlink:href="#V"/><use transform="matrix(0.06172839506172839,0,0,0.06172839506172839,99.25925925925925,0)" xlink:href="#D"/><use transform="matrix(0.06172839506172839,0,0,0.06172839506172839,111.60493827160494,0)" xlink:href="#Y"/></g><path fill="#3a414a" d="M88-194c31-1 46 15 58 34l-1-101h50l1 261h-48c-2-10 0-23-3-31C134-8 116 4 84 4 32 4 16-41 15-95c0-56 19-97 73-99zm17 164c33 0 40-30 41-66 1-37-9-64-41-64s-38 30-39 65c0 43 13 65 39 65" id="af"/><path fill="#3a414a" d="M195-6C206 82 75 100 31 46c-4-6-6-13-8-21l49-6c3 16 16 24 34 25 40 0 42-37 40-79-11 22-30 35-61 35-53 0-70-43-70-97 0-56 18-96 73-97 30 0 46 14 59 34l2-30h47zm-90-29c32 0 41-27 41-63 0-35-9-62-40-62-32 0-39 29-40 63 0 36 9 62 39 62" id="ag"/><path fill="#3a414a" d="M24 0v-54h51V0H24" id="ah"/><g id="s"><use transform="matrix(0.06172839506172839,0,0,0.06172839506172839,0,0)" xlink:href="#af"/><use transform="matrix(0.06172839506172839,0,0,0.06172839506172839,13.518518518518517,0)" xlink:href="#W"/><use transform="matrix(0.06172839506172839,0,0,0.06172839506172839,19.691358024691358,0)" xlink:href="#ag"/><use transform="matrix(0.06172839506172839,0,0,0.06172839506172839,33.20987654320987,0)" xlink:href="#W"/><use transform="matrix(0.06172839506172839,0,0,0.06172839506172839,39.382716049382715,0)" xlink:href="#C"/><use transform="matrix(0.06172839506172839,0,0,0.06172839506172839,46.72839506172839,0)" xlink:href="#z"/><use transform="matrix(0.06172839506172839,0,0,0.06172839506172839,59.07407407407407,0)" xlink:href="#Z"/><use transform="matrix(0.06172839506172839,0,0,0.06172839506172839,65.24691358024691,0)" xlink:href="#ah"/><use transform="matrix(0.06172839506172839,0,0,0.06172839506172839,71.41975308641975,0)" xlink:href="#B"/><use transform="matrix(0.06172839506172839,0,0,0.06172839506172839,83.76543209876543,0)" xlink:href="#ag"/><use transform="matrix(0.06172839506172839,0,0,0.06172839506172839,97.28395061728395,0)" xlink:href="#W"/></g><g id="t"><use transform="matrix(0.06172839506172839,0,0,0.06172839506172839,0,0)" xlink:href="#aa"/><use transform="matrix(0.06172839506172839,0,0,0.06172839506172839,7.345679012345679,0)" xlink:href="#ab"/><use transform="matrix(0.06172839506172839,0,0,0.06172839506172839,20.864197530864196,0)" xlink:href="#R"/><use transform="matrix(0.06172839506172839,0,0,0.06172839506172839,34.382716049382715,0)" xlink:href="#B"/><use transform="matrix(0.06172839506172839,0,0,0.06172839506172839,46.72839506172839,0)" xlink:href="#ac"/><use transform="matrix(0.06172839506172839,0,0,0.06172839506172839,58.58024691358025,0)" xlink:href="#X"/><use transform="matrix(0.06172839506172839,0,0,0.06172839506172839,70.92592592592592,0)" xlink:href="#V"/><use transform="matrix(0.06172839506172839,0,0,0.06172839506172839,84.44444444444444,0)" xlink:href="#D"/><use transform="matrix(0.06172839506172839,0,0,0.06172839506172839,96.79012345679013,0)" xlink:href="#Y"/></g><g id="u"><use transform="matrix(0.06172839506172839,0,0,0.06172839506172839,0,0)" xlink:href="#B"/><use transform="matrix(0.06172839506172839,0,0,0.06172839506172839,12.345679012345679,0)" xlink:href="#y"/><use transform="matrix(0.06172839506172839,0,0,0.06172839506172839,25.864197530864196,0)" xlink:href="#z"/><use transform="matrix(0.06172839506172839,0,0,0.06172839506172839,38.20987654320987,0)" xlink:href="#A"/><use transform="matrix(0.06172839506172839,0,0,0.06172839506172839,46.85185185185185,0)" xlink:href="#z"/><use transform="matrix(0.06172839506172839,0,0,0.06172839506172839,59.197530864197525,0)" xlink:href="#B"/><use transform="matrix(0.06172839506172839,0,0,0.06172839506172839,71.5432098765432,0)" xlink:href="#C"/><use transform="matrix(0.06172839506172839,0,0,0.06172839506172839,78.88888888888889,0)" xlink:href="#D"/><use transform="matrix(0.06172839506172839,0,0,0.06172839506172839,91.23456790123457,0)" xlink:href="#A"/></g><g id="v"><use transform="matrix(0.06172839506172839,0,0,0.06172839506172839,0,0)" xlink:href="#P"/><use transform="matrix(0.06172839506172839,0,0,0.06172839506172839,12.345679012345679,0)" xlink:href="#C"/><use transform="matrix(0.06172839506172839,0,0,0.06172839506172839,19.691358024691358,0)" xlink:href="#ab"/><use transform="matrix(0.06172839506172839,0,0,0.06172839506172839,33.20987654320987,0)" xlink:href="#R"/><use transform="matrix(0.06172839506172839,0,0,0.06172839506172839,46.72839506172839,0)" xlink:href="#C"/><use transform="matrix(0.06172839506172839,0,0,0.06172839506172839,54.07407407407407,0)" xlink:href="#P"/></g><g id="w"><use transform="matrix(0.06172839506172839,0,0,0.06172839506172839,0,0)" xlink:href="#z"/><use transform="matrix(0.06172839506172839,0,0,0.06172839506172839,12.345679012345679,0)" xlink:href="#B"/><use transform="matrix(0.06172839506172839,0,0,0.06172839506172839,24.691358024691358,0)" xlink:href="#C"/><use transform="matrix(0.06172839506172839,0,0,0.06172839506172839,32.03703703703704,0)" xlink:href="#Q"/><use transform="matrix(0.06172839506172839,0,0,0.06172839506172839,45.55555555555556,0)" xlink:href="#A"/><use transform="matrix(0.06172839506172839,0,0,0.06172839506172839,52.96296296296296,0)" xlink:href="#ah"/><use transform="matrix(0.06172839506172839,0,0,0.06172839506172839,59.135802469135804,0)" xlink:href="#P"/><use transform="matrix(0.06172839506172839,0,0,0.06172839506172839,71.48148148148148,0)" xlink:href="#C"/><use transform="matrix(0.06172839506172839,0,0,0.06172839506172839,78.82716049382717,0)" xlink:href="#ab"/><use transform="matrix(0.06172839506172839,0,0,0.06172839506172839,92.34567901234568,0)" xlink:href="#R"/><use transform="matrix(0.06172839506172839,0,0,0.06172839506172839,105.8641975308642,0)" xlink:href="#C"/></g></defs></g></svg>