<svg xmlns="http://www.w3.org/2000/svg" xmlns:xlink="http://www.w3.org/1999/xlink" xmlns:lucid="lucid" width="2007.97" height="1192.76"><g transform="translate(-8344.730894374488 -4297.072146915289)" lucid:page-tab-id="0_0"><path d="M8973.77 5322.12h-100.64v-3h100.64zm171.77 0h-91.03v-3h91.04z" stroke="#3a414a" stroke-width=".05" fill="#3a414a"/><path d="M8873.17 5322.12h-1.55v-3h1.55z" fill="#3a414a"/><path d="M8873.2 5322.14h-1.6v-3.05h1.6zm-1.55-3v2.95h1.5v-2.96z" stroke="#3a414a" stroke-width=".05" fill="#3a414a"/><path d="M9153.7 5320.62l-12.9 7.63v-15.27z" fill="#3a414a"/><path d="M9156.65 5320.62l-17.36 10.26v-20.53zm-14.36 5l8.45-5-8.46-5z" stroke="#3a414a" stroke-width=".05" fill="#3a414a"/><use xlink:href="#a" transform="matrix(1,0,0,1,8973.766749292618,5309.949703933734) translate(0 14.222222222222223)"/><path d="M9673.57 5316.88l-.02 3-97.9-.5v-3zm-164.9-.82v3l-107.53-.53.02-3z" stroke="#3a414a" stroke-width=".05" fill="#3a414a"/><path d="M9401.2 5315.53l-.02 3h-1.53v-3z" fill="#3a414a"/><path d="M9401.22 5315.5v3.05h-1.6v-3.06zm-1.55 3h1.5v-2.95h-1.5z" stroke="#3a414a" stroke-width=".05" fill="#3a414a"/><path d="M9681.72 5318.41l-12.95 7.6.08-15.28z" fill="#3a414a"/><path d="M9684.67 5318.43l-17.4 10.18.1-20.52zm-14.4 4.93l8.5-4.96-8.44-5.05z" stroke="#3a414a" stroke-width=".05" fill="#3a414a"/><use xlink:href="#b" transform="matrix(1,0,0,1,9508.677002793862,5307.0573748235865) translate(0 14.222222222222223)"/><path d="M9011.96 5381.48h-129.23v-3h129.23zm143.18 0H9076v-3h79.14z" stroke="#3a414a" stroke-width=".05" fill="#3a414a"/><path d="M9156.65 5381.48h-1.55v-3h1.55z" fill="#3a414a"/><path d="M9156.67 5381.5h-1.6v-3.04h1.6zm-1.54-3v2.96h1.5v-2.95z" stroke="#3a414a" stroke-width=".05" fill="#3a414a"/><path d="M8887.48 5387.62l-12.9-7.64 12.9-7.63z" fill="#3a414a"/><path d="M8888.98 5390.25l-17.36-10.27 17.36-10.26zm-11.46-10.27l8.46 5v-10z" stroke="#3a414a" stroke-width=".05" fill="#3a414a"/><use xlink:href="#c" transform="matrix(1,0,0,1,9011.964283117526,5369.318143153492) translate(0 14.222222222222223)"/><path d="M8346.23 5079.1a6 6 0 0 1 6-6h228a6 6 0 0 1 6 6v148a6 6 0 0 1-6 6h-228a6 6 0 0 1-6-6z" stroke="#3a414a" stroke-width="3" fill="#fff"/><use xlink:href="#d" transform="matrix(1,0,0,1,8354.230894502378,5081.08955098989) translate(81.81481481481481 62.77777777777778)"/><use xlink:href="#e" transform="matrix(1,0,0,1,8354.230894502378,5081.08955098989) translate(79.96296296296296 89.44444444444446)"/><path d="M8346.23 5005.44a6 6 0 0 1 6-6h228a6 6 0 0 1 6 6v61.65a6 6 0 0 1-6 6h-228a6 6 0 0 1-6-6z" stroke="#3a414a" stroke-width="3" fill="#b8f5ed"/><use xlink:href="#f" transform="matrix(1,0,0,1,8349.913189389823,5003.125948128441) translate(5.882716049382708 24.05902777777778)"/><use xlink:href="#g" transform="matrix(1,0,0,1,8349.913189389823,5003.125948128441) translate(123.6604938271605 24.05902777777778)"/><use xlink:href="#h" transform="matrix(1,0,0,1,8349.913189389823,5003.125948128441) translate(36.74691358024691 50.72569444444445)"/><use xlink:href="#i" transform="matrix(1,0,0,1,8349.913189389823,5003.125948128441) translate(147.05555555555554 50.72569444444445)"/><path d="M10111.2 5079.1a6 6 0 0 1 6-6h228a6 6 0 0 1 6 6v148a6 6 0 0 1-6 6h-228a6 6 0 0 1-6-6z" stroke="#3a414a" stroke-width="3" fill="#fff"/><use xlink:href="#d" transform="matrix(1,0,0,1,10119.197164343961,5081.08955098989) translate(81.81481481481481 62.77777777777778)"/><use xlink:href="#j" transform="matrix(1,0,0,1,10119.197164343961,5081.08955098989) translate(80.58024691358025 89.44444444444446)"/><path d="M10111.2 5005.44a6 6 0 0 1 6-6h228a6 6 0 0 1 6 6v61.65a6 6 0 0 1-6 6h-228a6 6 0 0 1-6-6z" stroke="#3a414a" stroke-width="3" fill="#b8f5ed"/><use xlink:href="#k" transform="matrix(1,0,0,1,10114.879459231406,5003.125948128441) translate(7.549382716049394 24.05902777777778)"/><use xlink:href="#g" transform="matrix(1,0,0,1,10114.879459231406,5003.125948128441) translate(121.99382716049384 24.05902777777778)"/><use xlink:href="#h" transform="matrix(1,0,0,1,10114.879459231406,5003.125948128441) translate(36.74691358024691 50.72569444444445)"/><use xlink:href="#i" transform="matrix(1,0,0,1,10114.879459231406,5003.125948128441) translate(147.05555555555554 50.72569444444445)"/><path d="M9683.17 5370.9v3l-100.65-.5v-3zm-181.4-.9v3l-91.02-.45v-3z" stroke="#3a414a" stroke-width=".05" fill="#3a414a"/><path d="M9684.67 5370.9v3h-1.55v-3z" fill="#3a414a"/><path d="M9684.7 5370.88v3.05h-1.6v-3.06zm-1.56 3h1.5v-2.95h-1.48z" stroke="#3a414a" stroke-width=".05" fill="#3a414a"/><path d="M9415.47 5378.7l-12.88-7.7 12.94-7.57z" fill="#3a414a"/><path d="M9416.95 5381.34l-17.3-10.35 17.4-10.2zm-11.4-10.32l8.43 5.05.05-10z" stroke="#3a414a" stroke-width=".05" fill="#3a414a"/><use xlink:href="#a" transform="matrix(1,0,0,1,9501.78387509282,5361.028684345559) translate(0 14.222222222222223)"/><path d="M9158.15 5271a6 6 0 0 1 6-6h228a6 6 0 0 1 6 6v148a6 6 0 0 1-6 6h-228a6 6 0 0 1-6-6z" stroke="#3a414a" stroke-width="3" fill="#fff"/><use xlink:href="#l" transform="matrix(1,0,0,1,9166.145682019132,5272.997925710185) translate(61.53703703703704 62.77777777777778)"/><use xlink:href="#m" transform="matrix(1,0,0,1,9166.145682019132,5272.997925710185) translate(82.46296296296296 89.44444444444446)"/><path d="M9158.15 5432.4a6 6 0 0 1 6-6h228a6 6 0 0 1 6 6v46.1a6 6 0 0 1-6 6h-228a6 6 0 0 1-6-6z" stroke="#3a414a" stroke-width="3" fill="#b8f5ed"/><use xlink:href="#n" transform="matrix(1,0,0,1,9161.049825954997,5429.3135874853915) translate(40.5246913580247 31.02777777777778)"/><use xlink:href="#o" transform="matrix(1,0,0,1,9161.049825954997,5429.3135874853915) translate(99.59876543209876 31.02777777777778)"/><path d="M9686.17 5272.4a6 6 0 0 1 6-6h228a6 6 0 0 1 6 6v148a6 6 0 0 1-6 6h-228a6 6 0 0 1-6-6z" stroke="#3a414a" stroke-width="3" fill="#fff"/><use xlink:href="#d" transform="matrix(1,0,0,1,9694.16704906263,5274.409443549528) translate(81.81481481481481 62.77777777777778)"/><use xlink:href="#p" transform="matrix(1,0,0,1,9694.16704906263,5274.409443549528) translate(79.96296296296296 89.44444444444446)"/><path d="M9686.17 5431a6 6 0 0 1 6-6h228a6 6 0 0 1 6 6v51.33a6 6 0 0 1-6 6h-228a6 6 0 0 1-6-6z" stroke="#3a414a" stroke-width="3" fill="#b8f5ed"/><use xlink:href="#q" transform="matrix(1,0,0,1,9689.333715729295,5428.164592376852) translate(2.709876543209873 21.34027777777778)"/><use xlink:href="#g" transform="matrix(1,0,0,1,9689.333715729295,5428.164592376852) translate(127.83333333333333 21.34027777777778)"/><use xlink:href="#h" transform="matrix(1,0,0,1,9689.333715729295,5428.164592376852) translate(11.907407407407405 48.00694444444444)"/><use xlink:href="#r" transform="matrix(1,0,0,1,9689.333715729295,5428.164592376852) translate(122.21604938271605 48.00694444444444)"/><path d="M8916.26 4304.57a6 6 0 0 1 6-6h228a6 6 0 0 1 6 6v148a6 6 0 0 1-6 6h-228a6 6 0 0 1-6-6z" stroke="#3a414a" stroke-width="3" fill="#fff"/><use xlink:href="#s" transform="matrix(1,0,0,1,8924.262095489126,4306.572146941137) translate(17.771604938271608 62.77777777777778)"/><use xlink:href="#t" transform="matrix(1,0,0,1,8924.262095489126,4306.572146941137) translate(140.85802469135803 62.77777777777778)"/><use xlink:href="#u" transform="matrix(1,0,0,1,8924.262095489126,4306.572146941137) translate(83.6358024691358 89.44444444444446)"/><path d="M9391.45 5041.94l-11.2 16.1-9.13 14.37-7.77 13.45-6.77 12.94-5.98 12.7-5.34 12.7-4.77 12.84-4.27 13.1-3.78 13.56-3.32 14.12-2.83 14.86-2.32 15.76-1.77 16.9-1.14 18.23-.18 8.85-3-.06.2-8.9 1.14-18.4 1.78-17 2.34-15.88 2.86-14.98 3.34-14.25 3.8-13.66 4.32-13.25 4.8-12.95 5.4-12.8 6.03-12.84 6.82-13.05 7.83-13.55 9.2-14.48 11.3-16.25 43.27-52.53h3.9zm176.22-350.66l-.4 18.5-1.14 18.38-1.78 17-2.35 15.9-2.85 14.98-3.34 14.24-3.8 13.67-4.3 13.24-4.82 12.94-5.4 12.8-6.03 12.84-6.82 13.05-7.83 13.55-9.2 14.48-11.3 16.23-15.25 20.05-27.27 33.1h-3.9l28.8-34.97 15.2-19.95 11.22-16.13 9.13-14.37 7.77-13.44 6.77-12.96 5.98-12.7 5.34-12.7 4.76-12.84 4.26-13.12 3.78-13.54 3.32-14.13 2.83-14.84 2.32-15.77 1.77-16.9 1.15-18.24.37-18.44z" stroke="#3a414a" stroke-width=".05" fill="#3a414a"/><path d="M9567.67 4691.32l-3-.06.03-1.52h3z" fill="#3a414a"/><path d="M9567.7 4691.34l-3.06-.06.03-1.57h3.05zm-2.98-1.58l-.03 1.47 2.94.06.03-1.54z" stroke="#3a414a" stroke-width=".05" fill="#3a414a"/><path d="M9327.1 5247.8l-7.9 12.75-7.35-13.06z" fill="#3a414a"/><path d="M9329.77 5246.36l-10.62 17.14-9.9-17.57zm-10.5 11.25l5.18-8.35-10-.2z" stroke="#3a414a" stroke-width=".05" fill="#3a414a"/><use xlink:href="#v" transform="matrix(1,0,0,1,9422.829467310197,4966.255540755319) translate(0 14.222222222222223)"/><path d="M9440.86 4304.57a6 6 0 0 1 6-6h228a6 6 0 0 1 6 6v148a6 6 0 0 1-6 6h-228a6 6 0 0 1-6-6z" stroke="#3a414a" stroke-width="3" fill="#fff"/><use xlink:href="#s" transform="matrix(1,0,0,1,9448.856685554361,4306.572146941137) translate(17.771604938271608 62.77777777777778)"/><use xlink:href="#t" transform="matrix(1,0,0,1,9448.856685554361,4306.572146941137) translate(140.85802469135803 62.77777777777778)"/><use xlink:href="#w" transform="matrix(1,0,0,1,9448.856685554361,4306.572146941137) translate(84.25308641975309 89.44444444444446)"/><path d="M9169.54 5007.06l17.44 25 11.62 18.27 9.18 15.9 7.7 14.72 6.7 14.18 5.87 14 5.22 14.05 4.66 14.33 4.13 14.8 3.63 15.47 3.1 16.33 2.57 17.43 1.97 18.8 1.28 20.53.24 11.5-3 .05-.23-11.42-1.28-20.4-1.96-18.67-2.56-17.3-3.1-16.2-3.6-15.35-4.08-14.68-4.62-14.2-5.18-13.94-5.84-13.88-6.62-14.06-7.65-14.64-9.1-15.77-11.57-18.18-17.38-24.92-15.93-21.73h3.72zm-131.3-294.8l1.26 20.38 1.96 18.7 2.55 17.3 3.1 16.2 3.6 15.34 4.1 14.68 4.6 14.2 5.2 13.95 5.83 13.88 6.62 14.07 7.65 14.62 9.12 15.78 11.54 18.15 33.9 46.24h-3.73l-32.65-44.54-11.63-18.3-9.18-15.88-7.7-14.74-6.68-14.18-5.9-14-5.22-14.04-4.66-14.33-4.13-14.8-3.63-15.46-3.1-16.33-2.58-17.44-2-18.8-1.27-20.52-.44-21.1 3-.07z" stroke="#3a414a" stroke-width=".05" fill="#3a414a"/><path d="M9253.53 5260.54l-7.9-12.75 15.27-.32z" fill="#3a414a"/><path d="M9253.6 5263.5l-10.63-17.15 20.53-.43zm-5.3-14.26l5.17 8.36 4.83-8.57z" stroke="#3a414a" stroke-width=".05" fill="#3a414a"/><path d="M9037.76 4691.28h-3v-1.54h3z" fill="#3a414a"/><path d="M9037.8 4691.3h-3.06v-1.6h3.05zm-3-1.54v1.5h2.94v-1.5z" stroke="#3a414a" stroke-width=".05" fill="#3a414a"/><use xlink:href="#v" transform="matrix(1,0,0,1,9124.990598698725,4965.741519178772) translate(0 14.222222222222223)"/><path d="M9037.76 4515.63h-3v-11.56h3zm0-32.9h-3v-21.16h3z" stroke="#3a414a" stroke-width=".05" fill="#3a414a"/><path d="M9036.26 4523.8l-7.63-12.92h15.27z" fill="#3a414a"/><path d="M9036.26 4526.74l-10.26-17.36h20.53zm-5-14.36l5 8.46 5-8.46z" stroke="#3a414a" stroke-width=".05" fill="#3a414a"/><path d="M9037.76 4461.6h-3v-1.53h3z" fill="#3a414a"/><path d="M9037.8 4461.64h-3.06v-1.6h3.05zm-3-1.54v1.5h2.94v-1.5z" stroke="#3a414a" stroke-width=".05" fill="#3a414a"/><use xlink:href="#x" transform="matrix(1,0,0,1,9003.299132526165,4482.7382993869605) translate(0 14.222222222222223)"/><path d="M8916.26 4534.24a6 6 0 0 1 6-6h228a6 6 0 0 1 6 6v148a6 6 0 0 1-6 6h-228a6 6 0 0 1-6-6z" stroke="#3a414a" stroke-width="3" fill="#fff"/><use xlink:href="#y" transform="matrix(1,0,0,1,8924.262095489126,4536.23878515719) translate(70.7962962962963 62.77777777777778)"/><use xlink:href="#z" transform="matrix(1,0,0,1,8924.262095489126,4536.23878515719) translate(48.512345679012334 89.44444444444446)"/><path d="M9446.2 4534.24a6 6 0 0 1 6-6h228a6 6 0 0 1 6 6v148a6 6 0 0 1-6 6h-228a6 6 0 0 1-6-6z" stroke="#3a414a" stroke-width="3" fill="#fff"/><use xlink:href="#y" transform="matrix(1,0,0,1,9454.197167157614,4536.23878515719) translate(70.7962962962963 62.77777777777778)"/><use xlink:href="#A" transform="matrix(1,0,0,1,9454.197167157614,4536.23878515719) translate(51.62962962962962 89.44444444444446)"/><path d="M8958.8 4775.74l-9.2 6.1-6 4.35-4.58 3.6-3.7 3.2-3.07 2.88-2.62 2.68-2.28 2.52-2 2.4-1.76 2.33-1.57 2.27-1.4 2.2-1.25 2.17-1.13 2.15-1 2.13-.9 2.14-.8 2.15-.72 2.18-.6 2.22-.54 2.26-.34 1.7-2.95-.56.35-1.77.56-2.38.66-2.34.75-2.3.85-2.27.95-2.26 1.06-2.25 1.2-2.26 1.3-2.28 1.47-2.32 1.64-2.35 1.83-2.42 2.08-2.5 2.36-2.63 2.72-2.77 3.17-2.97 3.78-3.27 4.68-3.7 6.1-4.44 5.88-3.87h5.46zm78.93-84.47l-.03 1.3-.17 2.7-.27 2.6-.37 2.53-.48 2.45-.56 2.38-.65 2.34-.74 2.3-.84 2.27-.95 2.25-1.06 2.25-1.17 2.26-1.32 2.28-1.45 2.3-1.64 2.37-1.83 2.42-2.08 2.5-2.37 2.63-2.7 2.77-3.18 2.97-3.8 3.26-4.65 3.7-6.14 4.44-5.8 3.6h-5.67l9.8-6.1 5.98-4.33 4.57-3.6 3.7-3.2 3.07-2.88 2.63-2.68 2.27-2.53 2-2.4 1.76-2.3 1.57-2.27 1.4-2.2 1.25-2.17 1.12-2.15 1-2.13.9-2.14.8-2.15.72-2.18.62-2.22.53-2.26.43-2.32.35-2.4.26-2.47.16-2.58.03-1.24z" stroke="#3a414a" stroke-width=".05" fill="#3a414a"/><path d="M8920.4 4825.33l-9.14 11.9-6.03-13.73z" fill="#3a414a"/><path d="M8923.18 4824.15l-12.27 16-8.1-18.45zm-11.56 10.16l5.98-7.8-9.94-1.2z" stroke="#3a414a" stroke-width=".05" fill="#3a414a"/><path d="M9037.76 4691.28h-3v-1.54h3z" fill="#3a414a"/><path d="M9037.8 4691.3h-3.06v-1.6h3.05zm-3-1.54v1.5h2.94v-1.5z" stroke="#3a414a" stroke-width=".05" fill="#3a414a"/><use xlink:href="#v" transform="matrix(1,0,0,1,8953.283153076756,4754.153277908478) translate(0 14.222222222222223)"/><path d="M9567.7 4515.63h-3v-11.56h3zm0-32.9h-3v-21.16h3z" stroke="#3a414a" stroke-width=".05" fill="#3a414a"/><path d="M9567.7 4461.6h-3v-1.53h3z" fill="#3a414a"/><path d="M9567.72 4461.64h-3.05v-1.6h3.05zm-3-1.54v1.5h2.95v-1.5z" stroke="#3a414a" stroke-width=".05" fill="#3a414a"/><path d="M9566.2 4523.8l-7.64-12.92h15.27z" fill="#3a414a"/><path d="M9566.2 4526.74l-10.27-17.36h20.53zm-5-14.36l5 8.47 5-8.47z" stroke="#3a414a" stroke-width=".05" fill="#3a414a"/><use xlink:href="#x" transform="matrix(1,0,0,1,9533.23420419465,4482.739298206893) translate(0 14.222222222222223)"/><path d="M9650.78 4780.64l5.25 4.15 4.1 3.52 3.37 3.17 2.86 2.9 2.48 2.76 2.16 2.6 1.92 2.54 1.7 2.45 1.53 2.4 1.37 2.37 1.23 2.35 1.1 2.35 1 2.35.87 2.37.78 2.4.7 2.45.57 2.5.5 2.52-2.96.56-.46-2.46-.56-2.38-.65-2.33-.74-2.27-.85-2.26-.94-2.23-1.04-2.23-1.17-2.23-1.32-2.26-1.45-2.3-1.64-2.34-1.85-2.42-2.08-2.52-2.4-2.65-2.77-2.84-3.28-3.08-4-3.45-5.1-4.03-30.9-20.7h5.38zm-83.02-88l.17 2.73.28 2.63.38 2.53.47 2.45.55 2.38.65 2.33.75 2.27.83 2.25.94 2.24 1.06 2.23 1.17 2.23 1.3 2.26 1.46 2.3 1.63 2.34 1.83 2.42 2.1 2.52 2.38 2.65 2.78 2.83 3.3 3.08 1.96 1.7h-4.54l-2.82-2.63-2.86-2.9-2.47-2.76-2.17-2.62-1.9-2.52-1.72-2.45-1.52-2.4-1.37-2.37-1.23-2.35-1.1-2.35-1-2.35-.88-2.38-.78-2.4-.68-2.45-.6-2.5-.48-2.57-.4-2.65-.28-2.76-.18-2.87-.03-1.48 3-.06z" stroke="#3a414a" stroke-width=".05" fill="#3a414a"/><path d="M9567.73 4691.25l-3 .06-.03-1.56h3z" fill="#3a414a"/><path d="M9567.75 4691.27l-3.05.07-.03-1.63h3.05zm-3.03-1.5l.03 1.5 2.95-.05-.03-1.46z" stroke="#3a414a" stroke-width=".05" fill="#3a414a"/><path d="M9683.36 4837.23l-9.05-11.96 15.2-1.73z" fill="#3a414a"/><path d="M9683.7 4840.16l-12.17-16.1 20.4-2.3zm-6.6-13.7l5.92 7.84 4.02-8.97z" stroke="#3a414a" stroke-width=".05" fill="#3a414a"/><use xlink:href="#v" transform="matrix(1,0,0,1,9584.832636519724,4741.046654097572) translate(0 14.222222222222223)"/><path d="M8630.12 5271a6 6 0 0 1 6-6h228a6 6 0 0 1 6 6v148a6 6 0 0 1-6 6h-228a6 6 0 0 1-6-6z" stroke="#3a414a" stroke-width="3" fill="#fff"/><use xlink:href="#B" transform="matrix(1,0,0,1,8638.124314975636,5272.997925710185) translate(60.24074074074074 62.77777777777778)"/><use xlink:href="#C" transform="matrix(1,0,0,1,8638.124314975636,5272.997925710185) translate(78.7283950617284 89.44444444444446)"/><path d="M9563.7 4847.66a6 6 0 0 1 6-6h228a6 6 0 0 1 6 6v148a6 6 0 0 1-6 6h-228a6 6 0 0 1-6-6z" stroke="#3a414a" stroke-width="3" fill="#fff"/><use xlink:href="#l" transform="matrix(1,0,0,1,9571.689175282932,4849.658995892749) translate(61.53703703703704 62.77777777777778)"/><use xlink:href="#D" transform="matrix(1,0,0,1,9571.689175282932,4849.658995892749) translate(83.08024691358025 89.44444444444446)"/><path d="M9563.7 5007.66a6 6 0 0 1 6-6h228a6 6 0 0 1 6 6v46.08a6 6 0 0 1-6 6h-228a6 6 0 0 1-6-6z" stroke="#3a414a" stroke-width="3" fill="#b8f5ed"/><use xlink:href="#n" transform="matrix(1,0,0,1,9566.593319218797,5004.563139828613) translate(38.73456790123457 31.02777777777778)"/><use xlink:href="#E" transform="matrix(1,0,0,1,9566.593319218797,5004.563139828613) translate(97.80864197530863 31.02777777777778)"/><path d="M10111.2 4701.98a6 6 0 0 1 6-6h228a6 6 0 0 1 6 6v148a6 6 0 0 1-6 6h-228a6 6 0 0 1-6-6z" stroke="#3a414a" stroke-width="3" fill="#fff"/><use xlink:href="#F" transform="matrix(1,0,0,1,10119.197164343961,4703.974877961902) translate(29.40740740740742 62.77777777777778)"/><use xlink:href="#G" transform="matrix(1,0,0,1,10119.197164343961,4703.974877961902) translate(82.46296296296296 89.44444444444446)"/><path d="M10111.2 4861.98a6 6 0 0 1 6-6h228a6 6 0 0 1 6 6v46.08a6 6 0 0 1-6 6h-228a6 6 0 0 1-6-6z" stroke="#3a414a" stroke-width="3" fill="#b8f5ed"/><use xlink:href="#n" transform="matrix(1,0,0,1,10114.101308279825,4858.8790218977665) translate(63.3641975308642 31.02777777777778)"/><use xlink:href="#H" transform="matrix(1,0,0,1,10114.101308279825,4858.8790218977665) translate(122.43827160493828 31.02777777777778)"/><path d="M9932.1 4874.3l-9.8 8.12-8.13 6.18-7.3 5.08-6.84 4.34-6.57 3.8-6.4 3.35-6.37 3-6.4 2.67-6.46 2.4-6.6 2.16-6.83 1.9-7.07 1.66-7.4 1.4-7.84 1.17-8.33.87-7.38.46-.2-3 7.32-.45 8.2-.85 7.7-1.14 7.3-1.38 6.95-1.63 6.7-1.88 6.48-2.1 6.35-2.37 6.27-2.63 6.25-2.94 6.3-3.3 6.45-3.73 6.73-4.27 7.2-5 8.03-6.1 7.9-6.55h4.6zm176.12-96.8l-8.05.17-8.8.55-8.2.86-7.7 1.14-7.3 1.4-6.95 1.62-6.7 1.87-6.5 2.12-6.33 2.36-6.28 2.63-6.25 2.95-6.3 3.3-6.46 3.73-6.7 4.27-7.22 5-8.02 6.1-9.7 8.04-15.22 13.78-13.74 12.8h-4.4l16.1-15 15.3-13.86 9.8-8.1 8.12-6.2 7.3-5.07 6.84-4.34 6.56-3.78 6.42-3.35 6.36-3 6.38-2.68 6.47-2.4 6.6-2.16 6.82-1.9 7.1-1.67 7.4-1.4 7.83-1.16 8.32-.87 8.92-.56 8.12-.16z" stroke="#3a414a" stroke-width=".05" fill="#3a414a"/><path d="M10109.7 4777.48l-1.5.03-.08-3 1.58-.03z" fill="#3a414a"/><path d="M10109.72 4777.5l-1.56.03-.06-3.05 1.62-.03zm-1.57-2.97l.06 2.95 1.47-.03v-2.95z" stroke="#3a414a" stroke-width=".05" fill="#3a414a"/><path d="M9821.3 4928.72l-13.17-7.17 12.63-8.1z" fill="#3a414a"/><path d="M9822.9 4931.3l-17.7-9.64 16.97-10.88zm-11.82-9.85l8.64 4.7-.36-10z" stroke="#3a414a" stroke-width=".05" fill="#3a414a"/><use xlink:href="#a" transform="matrix(1,0,0,1,9901.7901422456,4852.194169998077) translate(0 14.222222222222223)"/><path d="M9947.38 4911.5l-15.3 13.85-9.78 8.1-8.13 6.2-7.3 5.07-6.84 4.34-6.57 3.8-6.4 3.35-6.37 3-6.4 2.7-6.46 2.4-6.6 2.14-6.83 1.9-7.07 1.66-7.4 1.4-7.84 1.17-8.33.87-8.93.56-8.12.17-.06-3 8.06-.17 8.8-.55 8.2-.86 7.7-1.14 7.3-1.4 6.95-1.63 6.7-1.86 6.48-2.1 6.35-2.38 6.27-2.64 6.25-2.94 6.3-3.3 6.45-3.72 6.73-4.28 7.2-5 8.03-6.1 9.7-8.04 13.73-12.45h4.45zm151.3-82.7l-7.3.47-8.2.85-7.7 1.14-7.3 1.4-6.96 1.62-6.7 1.87-6.5 2.1-6.33 2.37-6.28 2.64-6.25 2.94-6.3 3.3-6.46 3.72-6.7 4.27-7.22 5-8.02 6.1-9.68 8.03-13.6 12.67h-4.4l16.02-14.93 9.8-8.12 8.12-6.17 7.3-5.1 6.84-4.32 6.56-3.8 6.42-3.35 6.36-2.98 6.38-2.7 6.47-2.4 6.6-2.14 6.82-1.9 7.1-1.66 7.4-1.42 7.83-1.15 8.32-.88 7.38-.46z" stroke="#3a414a" stroke-width=".05" fill="#3a414a"/><path d="M9806.76 4974.17l-1.57.03v-3l1.5-.03z" fill="#3a414a"/><path d="M9806.8 4974.2l-1.64.03v-3.05l1.57-.04zm-1.6-2.97v2.95l1.54-.04-.06-2.95z" stroke="#3a414a" stroke-width=".05" fill="#3a414a"/><path d="M10106.75 4827.12l-12.63 8.1-.54-15.27z" fill="#3a414a"/><path d="M10109.7 4827.02l-16.98 10.88-.74-20.52zm-14.17 5.5l8.28-5.3-8.63-4.7z" stroke="#3a414a" stroke-width=".05" fill="#3a414a"/><use xlink:href="#c" transform="matrix(1,0,0,1,9925.521765548234,4889.300709362924) translate(0 14.222222222222223)"/><path d="M9990.4 5097.8l8.4 8.24 7.24 6.52 6.55 5.43 6.1 4.63 5.83 4.05 5.64 3.58 5.52 3.2 5.45 2.85 5.45 2.57 5.48 2.3 5.55 2.07 5.66 1.84 5.8 1.62 6 1.4 6.22 1.2 6.52.95 6.85.72 4 .25-.2 3-4.06-.26-6.98-.73-6.64-.98-6.35-1.2-6.12-1.45-5.93-1.65-5.78-1.88-5.66-2.1-5.6-2.36-5.56-2.6-5.58-2.92-5.63-3.25-5.73-3.65-5.93-4.12-6.22-4.72-6.64-5.5-7.33-6.6-8.53-8.38-23.22-26.47h4zm-52.6-59.96l12.48 14.2h-4l-10.7-12.2-10.38-11.1h4.1zm-124.74-66.48l7.4.47 6.97.73 6.63.98 6.36 1.2 6.12 1.45 5.92 1.64 5.78 1.88 5.67 2.1 5.6 2.36 5.57 2.62 5.57 2.9 5.63 3.26 5.75 3.65 5.93 4.13 6.2 4.72 6.66 5.5 6.1 5.5v4.1l-.82-.8-7.23-6.52-6.55-5.43-6.12-4.64-5.82-4.05-5.64-3.57-5.52-3.2-5.46-2.85-5.45-2.56-5.5-2.3-5.54-2.07-5.66-1.84-5.8-1.6-6-1.4-6.24-1.2-6.5-.96-6.86-.72-7.26-.46-6.28-.13.07-3z" stroke="#3a414a" stroke-width=".05" fill="#3a414a"/><path d="M9806.76 4971.23l-.06 3-1.5-.03v-3z" fill="#3a414a"/><path d="M9806.8 4971.2l-.07 3.06-1.57-.03v-3.06zm-1.6 2.98l1.48.03.06-2.94-1.53-.03z" stroke="#3a414a" stroke-width=".05" fill="#3a414a"/><path d="M10106.75 5152.97l-13.2 7.1.6-15.26z" fill="#3a414a"/><path d="M10109.7 5153.1l-17.77 9.54.84-20.52zm-14.55 4.4l8.66-4.65-8.24-5.35z" stroke="#3a414a" stroke-width=".05" fill="#3a414a"/><use xlink:href="#I" transform="matrix(1,0,0,1,9921.6900415307,5052.052461427795) translate(0 14.222222222222223)"/><path d="M9997.1 5062.34l7.42 7.27 6.62 5.97 6.1 5.07 5.8 4.38 5.53 3.86 5.4 3.42 5.28 3.06 5.25 2.74 5.23 2.46 5.26 2.2 5.3 2 5.43 1.75 5.55 1.56 5.72 1.34 5.93 1.13 6.18.9 6.5.7 6.83.42 5.8.12-.07 3-5.86-.12-6.96-.44-6.6-.68-6.3-.93-6.07-1.16-5.84-1.37-5.67-1.6-5.54-1.8-5.44-2-5.37-2.27-5.34-2.52-5.35-2.8-5.4-3.1-5.5-3.5-5.63-3.93-5.88-4.46-6.22-5.15-6.72-6.06-7.5-7.37-1.37-1.45v-4.4zm-21.23-23.85l11.66 13.55h-3.96l-10-11.63-9.53-11.67h3.87zm-156.32-117.75l6.6.7 6.3.92 6.06 1.16 5.85 1.37 5.67 1.58 5.54 1.8 5.44 2.02 5.38 2.26 5.35 2.52 5.35 2.8 5.4 3.12 5.5 3.5 5.64 3.9 5.88 4.48 6.2 5.14 6.72 6.05 7.5 7.36 8.95 9.54 21.6 26.45h-3.86l-20-24.47-8.82-9.42-7.4-7.27-6.63-5.97-6.12-5.07-5.77-4.4-5.55-3.85-5.38-3.42-5.3-3.05-5.23-2.73-5.24-2.47-5.26-2.2-5.32-2-5.42-1.75-5.55-1.55-5.7-1.34-5.94-1.13-6.18-.9-6.48-.7-3.1-.18.18-3z" stroke="#3a414a" stroke-width=".05" fill="#3a414a"/><path d="M10109.7 5112.7v3l-1.58-.03.07-3z" fill="#3a414a"/><path d="M10109.72 5112.68v3.05l-1.62-.03.06-3.05zm-1.57 2.97l1.52.03v-2.95l-1.46-.03z" stroke="#3a414a" stroke-width=".05" fill="#3a414a"/><path d="M9820.7 4930l-12.57-8.2 13.24-7.07z" fill="#3a414a"/><path d="M9822.08 4932.68l-16.9-11.02 17.8-9.5zm-11-10.76l8.23 5.38.45-10z" stroke="#3a414a" stroke-width=".05" fill="#3a414a"/><use xlink:href="#a" transform="matrix(1,0,0,1,9916.887949329435,5007.417126097594) translate(0 14.222222222222223)"/><path d="M8795.98 4847.66a6 6 0 0 1 6-6h228a6 6 0 0 1 6 6v148a6 6 0 0 1-6 6h-228a6 6 0 0 1-6-6z" stroke="#3a414a" stroke-width="3" fill="#fff"/><use xlink:href="#l" transform="matrix(1,0,0,1,8803.97498426726,4849.658995892749) translate(61.53703703703704 62.77777777777778)"/><use xlink:href="#J" transform="matrix(1,0,0,1,8803.97498426726,4849.658995892749) translate(82.46296296296296 89.44444444444446)"/><path d="M8795.98 5007.66a6 6 0 0 1 6-6h228a6 6 0 0 1 6 6v46.08a6 6 0 0 1-6 6h-228a6 6 0 0 1-6-6z" stroke="#3a414a" stroke-width="3" fill="#b8f5ed"/><use xlink:href="#n" transform="matrix(1,0,0,1,8798.879128203125,5004.563139828613) translate(38.73456790123457 31.02777777777778)"/><use xlink:href="#E" transform="matrix(1,0,0,1,8798.879128203125,5004.563139828613) translate(97.80864197530863 31.02777777777778)"/><path d="M8346.23 4701.98a6 6 0 0 1 6-6h228a6 6 0 0 1 6 6v148a6 6 0 0 1-6 6h-228a6 6 0 0 1-6-6z" stroke="#3a414a" stroke-width="3" fill="#fff"/><use xlink:href="#F" transform="matrix(1,0,0,1,8354.230894502378,4703.974877961902) translate(29.40740740740742 62.77777777777778)"/><use xlink:href="#K" transform="matrix(1,0,0,1,8354.230894502378,4703.974877961902) translate(83.08024691358025 89.44444444444446)"/><path d="M8346.23 4861.98a6 6 0 0 1 6-6h228a6 6 0 0 1 6 6v46.08a6 6 0 0 1-6 6h-228a6 6 0 0 1-6-6z" stroke="#3a414a" stroke-width="3" fill="#b8f5ed"/><g><use xlink:href="#n" transform="matrix(1,0,0,1,8349.135038438242,4858.8790218977665) translate(63.3641975308642 31.02777777777778)"/><use xlink:href="#H" transform="matrix(1,0,0,1,8349.135038438242,4858.8790218977665) translate(122.43827160493828 31.02777777777778)"/></g><path d="M8724.08 4886.88l4.4 4.3 4.04 3.65 3.8 3.15 3.63 2.76 3.5 2.43 3.43 2.17 3.36 1.95 3.34 1.73 3.32 1.57 3.35 1.4 3.37 1.26 3.43 1.1 3.5 1 3.6.83 3.72.7 3.86.57 1.8.2-.3 2.98-1.87-.2-4-.6-3.83-.72-3.72-.87-3.62-1.02-3.55-1.15-3.5-1.3-3.45-1.46-3.44-1.62-3.45-1.8-3.48-2-3.52-2.25-3.6-2.5-3.74-2.84-3.9-3.23-4.14-3.73-3.44-3.37v-4.3zm-10.8-12.1l3.05 3.57h-3.96l-1.44-1.68-27.73-37.2h3.74zm-120.95-100.2l4.36.26 4.15.44 3.98.6 3.84.72 3.73.87 3.62 1.02 3.55 1.14 3.5 1.3 3.45 1.45 3.45 1.6 3.44 1.8 3.5 2.02 3.5 2.24 3.62 2.5 3.73 2.84 3.9 3.23 4.14 3.73 4.47 4.4 5.03 5.36 5.18 6h-3.96l-3.45-4-4.94-5.27-4.4-4.3-4.05-3.65-3.8-3.15-3.63-2.76-3.5-2.44-3.42-2.17-3.36-1.96-3.34-1.74-3.33-1.57-3.34-1.4-3.38-1.26-3.42-1.1-3.5-1-3.6-.83-3.73-.7-3.86-.58-4.03-.43-4.23-.26-3-.06.06-3z" stroke="#3a414a" stroke-width=".05" fill="#3a414a"/><path d="M8589.3 4774.5l-.06 3-1.5-.02v-3z" fill="#3a414a"/><path d="M8589.33 4774.48l-.07 3.05-1.55-.03v-3.05zm-1.57 2.97l1.46.03.06-2.95-1.52-.03z" stroke="#3a414a" stroke-width=".05" fill="#3a414a"/><path d="M8791.54 4919.54l-13.44 6.68 1.1-15.24z" fill="#3a414a"/><path d="M8794.48 4919.76l-18.06 8.97 1.5-20.48zm-14.7 3.94l8.82-4.37-8.08-5.6z" stroke="#3a414a" stroke-width=".05" fill="#3a414a"/><g><use xlink:href="#a" transform="matrix(1,0,0,1,8636.687378856697,4818.129061390381) translate(0 14.222222222222223)"/></g><path d="M8705.17 4905.58l8.08 10.24 5.9 6.83 4.93 5.27 4.4 4.3 4.04 3.65 3.8 3.15 3.63 2.76 3.5 2.43 3.43 2.18 3.36 1.95 3.34 1.74 3.32 1.57 3.35 1.4 3.37 1.26 3.43 1.1 3.5 1 3.6.84 3.72.7 3.86.57 4.03.44 4.24.26 3 .07-.06 3-3.07-.07-4.36-.27-4.14-.44-4-.6-3.83-.73-3.72-.87-3.62-1-3.55-1.17-3.5-1.3-3.45-1.45-3.44-1.62-3.45-1.8-3.48-2-3.52-2.25-3.6-2.5-3.74-2.83-3.9-3.22-4.14-3.74-4.5-4.4-5.02-5.35-5.96-6.92-8.15-10.32-5.77-7.72h3.74zm-53.52-65.9l4.14 3.72 4.47 4.4 5.03 5.36 5.98 6.94 13.6 18.25h-3.74l-12.2-16.37-5.87-6.8-4.94-5.28-4.4-4.3-4.05-3.66-3-2.48h4.72zm-50.8-23.36l3.98.6 3.84.72 3.73.88 3.62 1 3.55 1.16 3.5 1.3 3.45 1.45 3.45 1.62 3.44 1.8 3.3 1.9v3.54l-1.37-.87-3.36-1.95-3.34-1.74-3.33-1.56-3.34-1.4-3.38-1.27-3.42-1.1-3.5-.98-3.6-.84-3.73-.7-3.86-.58-1.8-.2.3-2.98z" stroke="#3a414a" stroke-width=".05" fill="#3a414a"/><path d="M8794.48 4959.3v3l-1.58-.04.07-3z" fill="#3a414a"/><path d="M8794.5 4959.27v3.05l-1.62-.03.06-3.06zm-1.57 2.97l1.52.03v-2.95l-1.46-.03z" stroke="#3a414a" stroke-width=".05" fill="#3a414a"/><path d="M8603 4825.8l-12.33-8.57 13.43-6.67z" fill="#3a414a"/><path d="M8604.3 4828.52l-16.57-11.5 18.06-8.98zm-10.7-11.08l8.1 5.6.72-9.97z" stroke="#3a414a" stroke-width=".05" fill="#3a414a"/><g><use xlink:href="#c" transform="matrix(1,0,0,1,8658.931474825,4878.350360059227) translate(0 14.222222222222223)"/></g><path d="M8671.15 5105.44l-6.53 10.82-5.3 8-4.6 6.32-4.12 5.2-3.78 4.4-3.54 3.76-3.33 3.27-3.18 2.88-3.06 2.52-2.95 2.25-2.88 2-2.82 1.8-2.78 1.6-2.75 1.44-2.73 1.28-2.74 1.14-2.73 1.02-2.75.9-2.8.77-2.8.67-2.9.55-1.06.16-.44-2.97 1-.14 2.76-.52 2.7-.64 2.67-.74 2.64-.85 2.62-.97 2.6-1.1 2.63-1.23 2.63-1.38 2.67-1.54 2.7-1.72 2.8-1.94 2.85-2.17 2.96-2.45 3.1-2.78 3.24-3.18 3.44-3.67 3.7-4.3 4.05-5.1 4.52-6.23 5.23-7.9 6.45-10.66 24.7-47.65h3.38zm36.7-70.45h-3.4l3.83-7.02h3.42zm85.15-72.67l-1.65.03-3 .2-2.9.3-2.83.4-2.76.54-2.7.63-2.66.75-2.64.85-2.6.98-2.63 1.1-2.6 1.24-2.65 1.38-2.67 1.54-2.7 1.72-2.78 1.93-2.86 2.18-2.96 2.45-3.1 2.78-3.23 3.2-3.45 3.67-3.7 4.3-4.05 5.1-4.52 6.23-.56.84h-3.6l1.7-2.55 4.58-6.34 4.13-5.2 3.8-4.4 3.52-3.76 3.34-3.27 3.18-2.87 3.05-2.53 2.95-2.24 2.88-2.02 2.83-1.8 2.77-1.6 2.75-1.43 2.73-1.3 2.74-1.14 2.74-1 2.75-.9 2.78-.77 2.84-.67 2.88-.55 2.95-.42 3.03-.32 3.13-.2 1.7-.03z" stroke="#3a414a" stroke-width=".05" fill="#3a414a"/><path d="M8794.48 4962.3l-1.5.03-.08-3 1.58-.03z" fill="#3a414a"/><path d="M8794.5 4962.32l-1.56.03-.06-3.05 1.62-.03zm-1.57-2.97l.06 2.95 1.45-.03v-2.95z" stroke="#3a414a" stroke-width=".05" fill="#3a414a"/><path d="M8604.3 5173.52l-13.64-6.28 12.07-8.9z" fill="#3a414a"/><path d="M8606.05 5175.98l-18.32-8.44 16.22-11.98zm-12.46-9.04l8.92 4.1-1.02-9.94z" stroke="#3a414a" stroke-width=".05" fill="#3a414a"/><g><use xlink:href="#I" transform="matrix(1,0,0,1,8664.496864005821,5034.99258095827) translate(0 14.222222222222223)"/></g><path d="M8669.92 5057.34l-6.08 9.18-5.06 6.97-4.45 5.6-4.04 4.7-3.75 3.98-3.5 3.45-3.35 3-3.2 2.66-3.12 2.35-3.02 2.1-2.96 1.88-2.92 1.7-2.9 1.5-2.87 1.35-2.87 1.2-2.9 1.1-2.9.94-2.95.82-3 .7-3.08.6-3.15.46-3.25.34-3.36.2-1.98.05-.06-3 1.9-.05 3.25-.2 3.12-.33 3.03-.45 2.95-.56 2.88-.66 2.83-.8 2.8-.9 2.77-1.03 2.76-1.16 2.75-1.3 2.78-1.45 2.8-1.63 2.87-1.82 2.92-2.03 3-2.28 3.1-2.57 3.26-2.93 3.43-3.36 3.66-3.9 3.96-4.58 4.37-5.52 4.98-6.87 5.62-8.47h3.53zm13.15-22.35h-3.45l3.96-7.02h3.44zm100.55-111.07l-1.92.28-2.94.57-2.88.68-2.84.8-2.8.9-2.76 1.03-2.76 1.16-2.77 1.3-2.78 1.45-2.8 1.6-2.86 1.83-2.9 2.03-3.02 2.28-3.1 2.57-3.26 2.94-3.42 3.36-3.66 3.9-3.95 4.58-4.38 5.52-5 6.88-6 9.05-15.78 28h-3.44l16.67-29.57 6.1-9.2 5.06-6.97 4.44-5.63 4.04-4.68 3.75-4 3.52-3.44 3.34-3.02 3.22-2.65 3.1-2.37 3.02-2.1 2.97-1.88 2.93-1.7 2.9-1.5 2.87-1.35 2.87-1.2 2.9-1.1 2.9-.94 2.96-.82 3-.7 3.08-.6 1.98-.28z" stroke="#3a414a" stroke-width=".05" fill="#3a414a"/><path d="M8589.3 5114.2l-1.57.02v-3l1.5-.03z" fill="#3a414a"/><path d="M8589.33 5114.22l-1.62.03v-3.05l1.56-.03zm-1.57-2.97v2.95l1.52-.03-.06-2.95z" stroke="#3a414a" stroke-width=".05" fill="#3a414a"/><path d="M8791.54 4921.94l-12.12 8.83-1.46-15.2z" fill="#3a414a"/><path d="M8794.48 4921.66l-16.3 11.88-1.96-20.44zm-13.82 6.35l7.95-5.78-8.9-4.17z" stroke="#3a414a" stroke-width=".05" fill="#3a414a"/><g><use xlink:href="#a" transform="matrix(1,0,0,1,8650.939032068125,5006.642650074486) translate(0 14.222222222222223)"/></g><defs><path fill="#333" d="M24-248c120-7 223 5 221 122C244-46 201 0 124 0H24v-248zM76-40c74 7 117-18 117-86 0-67-45-88-117-82v168" id="L"/><path fill="#333" d="M185-48c-13 30-37 53-82 52C43 2 14-33 14-96s30-98 90-98c62 0 83 45 84 108H66c0 31 8 55 39 56 18 0 30-7 34-22zm-45-69c5-46-57-63-70-21-2 6-4 13-4 21h74" id="M"/><path fill="#333" d="M135-194c53 0 70 44 70 98 0 56-19 98-73 100-31 1-45-17-59-34 3 33 2 69 2 105H25l-1-265h48c2 10 0 23 3 31 11-24 29-35 60-35zM114-30c33 0 39-31 40-66 0-38-9-64-40-64-56 0-55 130 0 130" id="N"/><path fill="#333" d="M25-224v-37h50v37H25zM25 0v-190h50V0H25" id="O"/><path fill="#333" d="M190-63c-7 42-38 67-86 67-59 0-84-38-90-98-12-110 154-137 174-36l-49 2c-2-19-15-32-35-32-30 0-35 28-38 64-6 74 65 87 74 30" id="P"/><path fill="#333" d="M115-3C79 11 28 4 28-45v-112H4v-33h27l15-45h31v45h36v33H77v99c-1 23 16 31 38 25v30" id="Q"/><path fill="#333" d="M110-194c64 0 96 36 96 99 0 64-35 99-97 99-61 0-95-36-95-99 0-62 34-99 96-99zm-1 164c35 0 45-28 45-65 0-40-10-65-43-65-34 0-45 26-45 65 0 36 10 65 43 65" id="R"/><path fill="#333" d="M135-194c87-1 58 113 63 194h-50c-7-57 23-157-34-157-59 0-34 97-39 157H25l-1-190h47c2 12-1 28 3 38 12-26 28-41 61-42" id="S"/><g id="a"><use transform="matrix(0.04938271604938272,0,0,0.04938271604938272,0,0)" xlink:href="#L"/><use transform="matrix(0.04938271604938272,0,0,0.04938271604938272,12.790123456790125,0)" xlink:href="#M"/><use transform="matrix(0.04938271604938272,0,0,0.04938271604938272,22.66666666666667,0)" xlink:href="#N"/><use transform="matrix(0.04938271604938272,0,0,0.04938271604938272,33.48148148148149,0)" xlink:href="#O"/><use transform="matrix(0.04938271604938272,0,0,0.04938271604938272,38.41975308641976,0)" xlink:href="#P"/><use transform="matrix(0.04938271604938272,0,0,0.04938271604938272,48.296296296296305,0)" xlink:href="#Q"/><use transform="matrix(0.04938271604938272,0,0,0.04938271604938272,54.17283950617284,0)" xlink:href="#O"/><use transform="matrix(0.04938271604938272,0,0,0.04938271604938272,59.111111111111114,0)" xlink:href="#R"/><use transform="matrix(0.04938271604938272,0,0,0.04938271604938272,69.92592592592594,0)" xlink:href="#S"/></g><path fill="#333" d="M135-150c-39-12-60 13-60 57V0H25l-1-190h47c2 13-1 29 3 40 6-28 27-53 61-41v41" id="T"/><g id="b"><use transform="matrix(0.04938271604938272,0,0,0.04938271604938272,0,0)" xlink:href="#L"/><use transform="matrix(0.04938271604938272,0,0,0.04938271604938272,12.790123456790125,0)" xlink:href="#O"/><use transform="matrix(0.04938271604938272,0,0,0.04938271604938272,17.7283950617284,0)" xlink:href="#N"/><use transform="matrix(0.04938271604938272,0,0,0.04938271604938272,28.54320987654322,0)" xlink:href="#O"/><use transform="matrix(0.04938271604938272,0,0,0.04938271604938272,33.48148148148149,0)" xlink:href="#P"/><use transform="matrix(0.04938271604938272,0,0,0.04938271604938272,43.35802469135803,0)" xlink:href="#Q"/><use transform="matrix(0.04938271604938272,0,0,0.04938271604938272,49.23456790123458,0)" xlink:href="#R"/><use transform="matrix(0.04938271604938272,0,0,0.04938271604938272,60.0493827160494,0)" xlink:href="#T"/></g><path fill="#333" d="M137-138c1-29-70-34-71-4 15 46 118 7 119 86 1 83-164 76-172 9l43-7c4 19 20 25 44 25 33 8 57-30 24-41C81-84 22-81 20-136c-2-80 154-74 161-7" id="U"/><g id="c"><use transform="matrix(0.04938271604938272,0,0,0.04938271604938272,0,0)" xlink:href="#L"/><use transform="matrix(0.04938271604938272,0,0,0.04938271604938272,12.790123456790125,0)" xlink:href="#M"/><use transform="matrix(0.04938271604938272,0,0,0.04938271604938272,22.66666666666667,0)" xlink:href="#N"/><use transform="matrix(0.04938271604938272,0,0,0.04938271604938272,33.48148148148149,0)" xlink:href="#O"/><use transform="matrix(0.04938271604938272,0,0,0.04938271604938272,38.41975308641976,0)" xlink:href="#P"/><use transform="matrix(0.04938271604938272,0,0,0.04938271604938272,48.296296296296305,0)" xlink:href="#Q"/><use transform="matrix(0.04938271604938272,0,0,0.04938271604938272,54.17283950617284,0)" xlink:href="#U"/></g><path fill="#3a414a" d="M199 0l-22-63H83L61 0H9l90-248h61L250 0h-51zm-33-102l-36-108c-10 38-24 72-36 108h72" id="V"/><path fill="#3a414a" d="M137-138c1-29-70-34-71-4 15 46 118 7 119 86 1 83-164 76-172 9l43-7c4 19 20 25 44 25 33 8 57-30 24-41C81-84 22-81 20-136c-2-80 154-74 161-7" id="W"/><path fill="#3a414a" d="M185-48c-13 30-37 53-82 52C43 2 14-33 14-96s30-98 90-98c62 0 83 45 84 108H66c0 31 8 55 39 56 18 0 30-7 34-22zm-45-69c5-46-57-63-70-21-2 6-4 13-4 21h74" id="X"/><path fill="#3a414a" d="M115-3C79 11 28 4 28-45v-112H4v-33h27l15-45h31v45h36v33H77v99c-1 23 16 31 38 25v30" id="Y"/><g id="d"><use transform="matrix(0.06172839506172839,0,0,0.06172839506172839,0,0)" xlink:href="#V"/><use transform="matrix(0.06172839506172839,0,0,0.06172839506172839,15.987654320987653,0)" xlink:href="#W"/><use transform="matrix(0.06172839506172839,0,0,0.06172839506172839,28.333333333333332,0)" xlink:href="#W"/><use transform="matrix(0.06172839506172839,0,0,0.06172839506172839,40.67901234567901,0)" xlink:href="#X"/><use transform="matrix(0.06172839506172839,0,0,0.06172839506172839,53.02469135802469,0)" xlink:href="#Y"/></g><path fill="#3a414a" d="M133-34C117-15 103 5 69 4 32 3 11-16 11-54c-1-60 55-63 116-61 1-26-3-47-28-47-18 1-26 9-28 27l-52-2c7-38 36-58 82-57s74 22 75 68l1 82c-1 14 12 18 25 15v27c-30 8-71 5-69-32zm-48 3c29 0 43-24 42-57-32 0-66-3-65 30 0 17 8 27 23 27" id="Z"/><path fill="#3a414a" d="M14-72v-43h91v43H14" id="aa"/><path fill="#3a414a" d="M23 0v-37h61v-169l-59 37v-38l62-41h46v211h57V0H23" id="ab"/><path fill="#3a414a" d="M101-251c68 0 84 54 84 127C185-50 166 4 99 4S15-52 14-124c-1-75 17-127 87-127zm-1 216c37-5 36-46 36-89s4-89-36-89c-39 0-36 45-36 89 0 43-3 85 36 89" id="ac"/><g id="e"><use transform="matrix(0.06172839506172839,0,0,0.06172839506172839,0,0)" xlink:href="#Z"/><use transform="matrix(0.06172839506172839,0,0,0.06172839506172839,12.345679012345679,0)" xlink:href="#W"/><use transform="matrix(0.06172839506172839,0,0,0.06172839506172839,24.691358024691358,0)" xlink:href="#Y"/><use transform="matrix(0.06172839506172839,0,0,0.06172839506172839,32.03703703703704,0)" xlink:href="#aa"/><use transform="matrix(0.06172839506172839,0,0,0.06172839506172839,39.382716049382715,0)" xlink:href="#ab"/><use transform="matrix(0.06172839506172839,0,0,0.06172839506172839,51.72839506172839,0)" xlink:href="#ac"/></g><path fill="#3a414a" d="M135-150c-39-12-60 13-60 57V0H25l-1-190h47c2 13-1 29 3 40 6-28 27-53 61-41v41" id="ad"/><path fill="#3a414a" d="M85 4C-2 5 27-109 22-190h50c7 57-23 150 33 157 60-5 35-97 40-157h50l1 190h-47c-2-12 1-28-3-38-12 25-28 42-61 42" id="ae"/><path fill="#3a414a" d="M190-63c-7 42-38 67-86 67-59 0-84-38-90-98-12-110 154-137 174-36l-49 2c-2-19-15-32-35-32-30 0-35 28-38 64-6 74 65 87 74 30" id="af"/><path fill="#3a414a" d="M136-208V0H84v-208H4v-40h212v40h-80" id="ag"/><path fill="#3a414a" d="M123 10C108 53 80 86 19 72V37c35 8 53-11 59-39L3-190h52l48 148c12-52 28-100 44-148h51" id="ah"/><path fill="#3a414a" d="M135-194c53 0 70 44 70 98 0 56-19 98-73 100-31 1-45-17-59-34 3 33 2 69 2 105H25l-1-265h48c2 10 0 23 3 31 11-24 29-35 60-35zM114-30c33 0 39-31 40-66 0-38-9-64-40-64-56 0-55 130 0 130" id="ai"/><path fill="#3a414a" d="M35-132v-50h50v50H35zM35 0v-49h50V0H35" id="aj"/><g id="f"><use transform="matrix(0.06172839506172839,0,0,0.06172839506172839,0,0)" xlink:href="#W"/><use transform="matrix(0.06172839506172839,0,0,0.06172839506172839,12.345679012345679,0)" xlink:href="#Y"/><use transform="matrix(0.06172839506172839,0,0,0.06172839506172839,19.691358024691358,0)" xlink:href="#ad"/><use transform="matrix(0.06172839506172839,0,0,0.06172839506172839,28.333333333333332,0)" xlink:href="#ae"/><use transform="matrix(0.06172839506172839,0,0,0.06172839506172839,41.85185185185185,0)" xlink:href="#af"/><use transform="matrix(0.06172839506172839,0,0,0.06172839506172839,54.197530864197525,0)" xlink:href="#ag"/><use transform="matrix(0.06172839506172839,0,0,0.06172839506172839,66.04938271604938,0)" xlink:href="#ah"/><use transform="matrix(0.06172839506172839,0,0,0.06172839506172839,78.39506172839506,0)" xlink:href="#ai"/><use transform="matrix(0.06172839506172839,0,0,0.06172839506172839,91.91358024691358,0)" xlink:href="#X"/><use transform="matrix(0.06172839506172839,0,0,0.06172839506172839,104.25925925925927,0)" xlink:href="#aj"/></g><path fill="#3a414a" d="M88-194c31-1 46 15 58 34l-1-101h50l1 261h-48c-2-10 0-23-3-31C134-8 116 4 84 4 32 4 16-41 15-95c0-56 19-97 73-99zm17 164c33 0 40-30 41-66 1-37-9-64-41-64s-38 30-39 65c0 43 13 65 39 65" id="ak"/><path fill="#3a414a" d="M25-224v-37h50v37H25zM25 0v-190h50V0H25" id="al"/><path fill="#3a414a" d="M195-6C206 82 75 100 31 46c-4-6-6-13-8-21l49-6c3 16 16 24 34 25 40 0 42-37 40-79-11 22-30 35-61 35-53 0-70-43-70-97 0-56 18-96 73-97 30 0 46 14 59 34l2-30h47zm-90-29c32 0 41-27 41-63 0-35-9-62-40-62-32 0-39 29-40 63 0 36 9 62 39 62" id="am"/><path fill="#3a414a" d="M25 0v-261h50V0H25" id="an"/><path fill="#3a414a" d="M24 0v-54h51V0H24" id="ao"/><g id="g"><use transform="matrix(0.06172839506172839,0,0,0.06172839506172839,0,0)" xlink:href="#ak"/><use transform="matrix(0.06172839506172839,0,0,0.06172839506172839,13.518518518518517,0)" xlink:href="#al"/><use transform="matrix(0.06172839506172839,0,0,0.06172839506172839,19.691358024691358,0)" xlink:href="#am"/><use transform="matrix(0.06172839506172839,0,0,0.06172839506172839,33.20987654320987,0)" xlink:href="#al"/><use transform="matrix(0.06172839506172839,0,0,0.06172839506172839,39.382716049382715,0)" xlink:href="#Y"/><use transform="matrix(0.06172839506172839,0,0,0.06172839506172839,46.72839506172839,0)" xlink:href="#Z"/><use transform="matrix(0.06172839506172839,0,0,0.06172839506172839,59.07407407407407,0)" xlink:href="#an"/><use transform="matrix(0.06172839506172839,0,0,0.06172839506172839,65.24691358024691,0)" xlink:href="#ao"/><use transform="matrix(0.06172839506172839,0,0,0.06172839506172839,71.41975308641975,0)" xlink:href="#af"/><use transform="matrix(0.06172839506172839,0,0,0.06172839506172839,83.76543209876543,0)" xlink:href="#am"/><use transform="matrix(0.06172839506172839,0,0,0.06172839506172839,97.28395061728395,0)" xlink:href="#al"/></g><path fill="#3a414a" d="M121-226c-27-7-43 5-38 36h38v33H83V0H34v-157H6v-33h28c-9-59 32-81 87-68v32" id="ap"/><path fill="#3a414a" d="M135-194c87-1 58 113 63 194h-50c-7-57 23-157-34-157-59 0-34 97-39 157H25l-1-190h47c2 12-1 28 3 38 12-26 28-41 61-42" id="aq"/><g id="h"><use transform="matrix(0.06172839506172839,0,0,0.06172839506172839,0,0)" xlink:href="#ap"/><use transform="matrix(0.06172839506172839,0,0,0.06172839506172839,7.345679012345679,0)" xlink:href="#ae"/><use transform="matrix(0.06172839506172839,0,0,0.06172839506172839,20.864197530864196,0)" xlink:href="#aq"/><use transform="matrix(0.06172839506172839,0,0,0.06172839506172839,34.382716049382715,0)" xlink:href="#af"/><use transform="matrix(0.06172839506172839,0,0,0.06172839506172839,46.72839506172839,0)" xlink:href="#ag"/><use transform="matrix(0.06172839506172839,0,0,0.06172839506172839,58.58024691358025,0)" xlink:href="#ah"/><use transform="matrix(0.06172839506172839,0,0,0.06172839506172839,70.92592592592592,0)" xlink:href="#ai"/><use transform="matrix(0.06172839506172839,0,0,0.06172839506172839,84.44444444444444,0)" xlink:href="#X"/><use transform="matrix(0.06172839506172839,0,0,0.06172839506172839,96.79012345679013,0)" xlink:href="#aj"/></g><path fill="#3a414a" d="M110-194c64 0 96 36 96 99 0 64-35 99-97 99-61 0-95-36-95-99 0-62 34-99 96-99zm-1 164c35 0 45-28 45-65 0-40-10-65-43-65-34 0-45 26-45 65 0 36 10 65 43 65" id="ar"/><g id="i"><use transform="matrix(0.06172839506172839,0,0,0.06172839506172839,0,0)" xlink:href="#ai"/><use transform="matrix(0.06172839506172839,0,0,0.06172839506172839,13.518518518518517,0)" xlink:href="#ad"/><use transform="matrix(0.06172839506172839,0,0,0.06172839506172839,22.160493827160494,0)" xlink:href="#ar"/><use transform="matrix(0.06172839506172839,0,0,0.06172839506172839,35.67901234567901,0)" xlink:href="#ai"/></g><g id="j"><use transform="matrix(0.06172839506172839,0,0,0.06172839506172839,0,0)" xlink:href="#Z"/><use transform="matrix(0.06172839506172839,0,0,0.06172839506172839,12.345679012345679,0)" xlink:href="#W"/><use transform="matrix(0.06172839506172839,0,0,0.06172839506172839,24.691358024691358,0)" xlink:href="#Y"/><use transform="matrix(0.06172839506172839,0,0,0.06172839506172839,32.03703703703704,0)" xlink:href="#aa"/><use transform="matrix(0.06172839506172839,0,0,0.06172839506172839,39.382716049382715,0)" xlink:href="#ab"/><use transform="matrix(0.06172839506172839,0,0,0.06172839506172839,50.49382716049382,0)" xlink:href="#ab"/></g><g id="k"><use transform="matrix(0.06172839506172839,0,0,0.06172839506172839,0,0)" xlink:href="#W"/><use transform="matrix(0.06172839506172839,0,0,0.06172839506172839,12.345679012345679,0)" xlink:href="#Y"/><use transform="matrix(0.06172839506172839,0,0,0.06172839506172839,19.691358024691358,0)" xlink:href="#ad"/><use transform="matrix(0.06172839506172839,0,0,0.06172839506172839,28.333333333333332,0)" xlink:href="#ae"/><use transform="matrix(0.06172839506172839,0,0,0.06172839506172839,41.85185185185185,0)" xlink:href="#af"/><use transform="matrix(0.06172839506172839,0,0,0.06172839506172839,54.197530864197525,0)" xlink:href="#Y"/><use transform="matrix(0.06172839506172839,0,0,0.06172839506172839,61.5432098765432,0)" xlink:href="#ag"/><use transform="matrix(0.06172839506172839,0,0,0.06172839506172839,75.06172839506172,0)" xlink:href="#ai"/><use transform="matrix(0.06172839506172839,0,0,0.06172839506172839,88.58024691358024,0)" xlink:href="#X"/><use transform="matrix(0.06172839506172839,0,0,0.06172839506172839,100.92592592592592,0)" xlink:href="#aj"/></g><path fill="#3a414a" d="M24-248c120-7 223 5 221 122C244-46 201 0 124 0H24v-248zM76-40c74 7 117-18 117-86 0-67-45-88-117-82v168" id="as"/><g id="l"><use transform="matrix(0.06172839506172839,0,0,0.06172839506172839,0,0)" xlink:href="#as"/><use transform="matrix(0.06172839506172839,0,0,0.06172839506172839,15.987654320987653,0)" xlink:href="#X"/><use transform="matrix(0.06172839506172839,0,0,0.06172839506172839,28.333333333333332,0)" xlink:href="#ai"/><use transform="matrix(0.06172839506172839,0,0,0.06172839506172839,41.85185185185185,0)" xlink:href="#al"/><use transform="matrix(0.06172839506172839,0,0,0.06172839506172839,48.02469135802469,0)" xlink:href="#af"/><use transform="matrix(0.06172839506172839,0,0,0.06172839506172839,60.37037037037037,0)" xlink:href="#Y"/><use transform="matrix(0.06172839506172839,0,0,0.06172839506172839,67.71604938271605,0)" xlink:href="#al"/><use transform="matrix(0.06172839506172839,0,0,0.06172839506172839,73.88888888888889,0)" xlink:href="#ar"/><use transform="matrix(0.06172839506172839,0,0,0.06172839506172839,87.4074074074074,0)" xlink:href="#aq"/></g><path fill="#3a414a" d="M182-182c0 78-84 86-111 141h115V0H12c-6-101 99-100 120-180 1-22-12-31-33-32-23 0-32 14-35 34l-49-3c5-45 32-70 84-70 51 0 83 22 83 69" id="at"/><g id="m"><use transform="matrix(0.06172839506172839,0,0,0.06172839506172839,0,0)" xlink:href="#ak"/><use transform="matrix(0.06172839506172839,0,0,0.06172839506172839,13.518518518518517,0)" xlink:href="#ai"/><use transform="matrix(0.06172839506172839,0,0,0.06172839506172839,27.037037037037035,0)" xlink:href="#aa"/><use transform="matrix(0.06172839506172839,0,0,0.06172839506172839,34.382716049382715,0)" xlink:href="#ab"/><use transform="matrix(0.06172839506172839,0,0,0.06172839506172839,46.72839506172839,0)" xlink:href="#at"/></g><g id="n"><use transform="matrix(0.06172839506172839,0,0,0.06172839506172839,0,0)" xlink:href="#Y"/><use transform="matrix(0.06172839506172839,0,0,0.06172839506172839,7.345679012345679,0)" xlink:href="#ah"/><use transform="matrix(0.06172839506172839,0,0,0.06172839506172839,19.691358024691358,0)" xlink:href="#ai"/><use transform="matrix(0.06172839506172839,0,0,0.06172839506172839,33.20987654320987,0)" xlink:href="#X"/><use transform="matrix(0.06172839506172839,0,0,0.06172839506172839,45.55555555555555,0)" xlink:href="#aj"/></g><g id="o"><use transform="matrix(0.06172839506172839,0,0,0.06172839506172839,0,0)" xlink:href="#ai"/><use transform="matrix(0.06172839506172839,0,0,0.06172839506172839,13.518518518518517,0)" xlink:href="#ar"/><use transform="matrix(0.06172839506172839,0,0,0.06172839506172839,27.037037037037035,0)" xlink:href="#ad"/><use transform="matrix(0.06172839506172839,0,0,0.06172839506172839,35.67901234567901,0)" xlink:href="#Y"/><use transform="matrix(0.06172839506172839,0,0,0.06172839506172839,43.02469135802469,0)" xlink:href="#ad"/><use transform="matrix(0.06172839506172839,0,0,0.06172839506172839,51.666666666666664,0)" xlink:href="#Z"/><use transform="matrix(0.06172839506172839,0,0,0.06172839506172839,64.01234567901234,0)" xlink:href="#ah"/><use transform="matrix(0.06172839506172839,0,0,0.06172839506172839,76.35802469135803,0)" xlink:href="#Z"/><use transform="matrix(0.06172839506172839,0,0,0.06172839506172839,88.70370370370371,0)" xlink:href="#an"/></g><g id="p"><use transform="matrix(0.06172839506172839,0,0,0.06172839506172839,0,0)" xlink:href="#Z"/><use transform="matrix(0.06172839506172839,0,0,0.06172839506172839,12.345679012345679,0)" xlink:href="#W"/><use transform="matrix(0.06172839506172839,0,0,0.06172839506172839,24.691358024691358,0)" xlink:href="#Y"/><use transform="matrix(0.06172839506172839,0,0,0.06172839506172839,32.03703703703704,0)" xlink:href="#aa"/><use transform="matrix(0.06172839506172839,0,0,0.06172839506172839,39.382716049382715,0)" xlink:href="#ab"/><use transform="matrix(0.06172839506172839,0,0,0.06172839506172839,51.72839506172839,0)" xlink:href="#at"/></g><g id="q"><use transform="matrix(0.06172839506172839,0,0,0.06172839506172839,0,0)" xlink:href="#W"/><use transform="matrix(0.06172839506172839,0,0,0.06172839506172839,12.345679012345679,0)" xlink:href="#Y"/><use transform="matrix(0.06172839506172839,0,0,0.06172839506172839,19.691358024691358,0)" xlink:href="#ad"/><use transform="matrix(0.06172839506172839,0,0,0.06172839506172839,28.333333333333332,0)" xlink:href="#ae"/><use transform="matrix(0.06172839506172839,0,0,0.06172839506172839,41.85185185185185,0)" xlink:href="#af"/><use transform="matrix(0.06172839506172839,0,0,0.06172839506172839,54.197530864197525,0)" xlink:href="#Y"/><use transform="matrix(0.06172839506172839,0,0,0.06172839506172839,61.5432098765432,0)" xlink:href="#ag"/><use transform="matrix(0.06172839506172839,0,0,0.06172839506172839,73.39506172839505,0)" xlink:href="#ah"/><use transform="matrix(0.06172839506172839,0,0,0.06172839506172839,85.74074074074073,0)" xlink:href="#ai"/><use transform="matrix(0.06172839506172839,0,0,0.06172839506172839,99.25925925925925,0)" xlink:href="#X"/><use transform="matrix(0.06172839506172839,0,0,0.06172839506172839,111.60493827160494,0)" xlink:href="#aj"/></g><path fill="#3a414a" d="M114-157C55-157 80-60 75 0H25v-261h50l-1 109c12-26 28-41 61-42 86-1 58 113 63 194h-50c-7-57 23-157-34-157" id="au"/><g id="r"><use transform="matrix(0.06172839506172839,0,0,0.06172839506172839,0,0)" xlink:href="#af"/><use transform="matrix(0.06172839506172839,0,0,0.06172839506172839,12.345679012345679,0)" xlink:href="#au"/><use transform="matrix(0.06172839506172839,0,0,0.06172839506172839,25.864197530864196,0)" xlink:href="#Z"/><use transform="matrix(0.06172839506172839,0,0,0.06172839506172839,38.20987654320987,0)" xlink:href="#ad"/><use transform="matrix(0.06172839506172839,0,0,0.06172839506172839,46.85185185185185,0)" xlink:href="#Z"/><use transform="matrix(0.06172839506172839,0,0,0.06172839506172839,59.197530864197525,0)" xlink:href="#af"/><use transform="matrix(0.06172839506172839,0,0,0.06172839506172839,71.5432098765432,0)" xlink:href="#Y"/><use transform="matrix(0.06172839506172839,0,0,0.06172839506172839,78.88888888888889,0)" xlink:href="#X"/><use transform="matrix(0.06172839506172839,0,0,0.06172839506172839,91.23456790123457,0)" xlink:href="#ad"/></g><path fill="#3a414a" d="M24-248c93 1 206-16 204 79-1 75-69 88-152 82V0H24v-248zm52 121c47 0 100 7 100-41 0-47-54-39-100-39v80" id="av"/><g id="s"><use transform="matrix(0.06172839506172839,0,0,0.06172839506172839,0,0)" xlink:href="#av"/><use transform="matrix(0.06172839506172839,0,0,0.06172839506172839,14.814814814814813,0)" xlink:href="#ad"/><use transform="matrix(0.06172839506172839,0,0,0.06172839506172839,23.456790123456788,0)" xlink:href="#ar"/><use transform="matrix(0.06172839506172839,0,0,0.06172839506172839,36.9753086419753,0)" xlink:href="#ak"/><use transform="matrix(0.06172839506172839,0,0,0.06172839506172839,50.49382716049382,0)" xlink:href="#ae"/><use transform="matrix(0.06172839506172839,0,0,0.06172839506172839,64.01234567901234,0)" xlink:href="#af"/><use transform="matrix(0.06172839506172839,0,0,0.06172839506172839,76.35802469135803,0)" xlink:href="#Y"/><use transform="matrix(0.06172839506172839,0,0,0.06172839506172839,83.70370370370371,0)" xlink:href="#al"/><use transform="matrix(0.06172839506172839,0,0,0.06172839506172839,89.87654320987654,0)" xlink:href="#ar"/><use transform="matrix(0.06172839506172839,0,0,0.06172839506172839,103.39506172839506,0)" xlink:href="#aq"/></g><path fill="#3a414a" d="M169-182c-1-43-94-46-97-3 18 66 151 10 154 114 3 95-165 93-204 36-6-8-10-19-12-30l50-8c3 46 112 56 116 5-17-69-150-10-154-114-4-87 153-88 188-35 5 8 8 18 10 28" id="aw"/><g id="t"><use transform="matrix(0.06172839506172839,0,0,0.06172839506172839,0,0)" xlink:href="#aw"/><use transform="matrix(0.06172839506172839,0,0,0.06172839506172839,14.814814814814813,0)" xlink:href="#af"/><use transform="matrix(0.06172839506172839,0,0,0.06172839506172839,27.160493827160494,0)" xlink:href="#X"/><use transform="matrix(0.06172839506172839,0,0,0.06172839506172839,39.50617283950617,0)" xlink:href="#aq"/><use transform="matrix(0.06172839506172839,0,0,0.06172839506172839,53.02469135802469,0)" xlink:href="#X"/></g><g id="u"><use transform="matrix(0.06172839506172839,0,0,0.06172839506172839,0,0)" xlink:href="#W"/><use transform="matrix(0.06172839506172839,0,0,0.06172839506172839,12.345679012345679,0)" xlink:href="#af"/><use transform="matrix(0.06172839506172839,0,0,0.06172839506172839,24.691358024691358,0)" xlink:href="#aa"/><use transform="matrix(0.06172839506172839,0,0,0.06172839506172839,32.03703703703704,0)" xlink:href="#ab"/><use transform="matrix(0.06172839506172839,0,0,0.06172839506172839,44.382716049382715,0)" xlink:href="#ac"/></g><path fill="#333" d="M85 4C-2 5 27-109 22-190h50c7 57-23 150 33 157 60-5 35-97 40-157h50l1 190h-47c-2-12 1-28-3-38-12 25-28 42-61 42" id="ax"/><g id="v"><use transform="matrix(0.04938271604938272,0,0,0.04938271604938272,0,0)" xlink:href="#ax"/><use transform="matrix(0.04938271604938272,0,0,0.04938271604938272,10.814814814814815,0)" xlink:href="#U"/><use transform="matrix(0.04938271604938272,0,0,0.04938271604938272,20.69135802469136,0)" xlink:href="#M"/><use transform="matrix(0.04938271604938272,0,0,0.04938271604938272,30.567901234567906,0)" xlink:href="#U"/></g><g id="w"><use transform="matrix(0.06172839506172839,0,0,0.06172839506172839,0,0)" xlink:href="#W"/><use transform="matrix(0.06172839506172839,0,0,0.06172839506172839,12.345679012345679,0)" xlink:href="#af"/><use transform="matrix(0.06172839506172839,0,0,0.06172839506172839,24.691358024691358,0)" xlink:href="#aa"/><use transform="matrix(0.06172839506172839,0,0,0.06172839506172839,32.03703703703704,0)" xlink:href="#ab"/><use transform="matrix(0.06172839506172839,0,0,0.06172839506172839,43.14814814814815,0)" xlink:href="#ab"/></g><path fill="#333" d="M67-125c0 53 21 87 73 88 37 1 54-22 65-47l45 17C233-25 199 4 140 4 58 4 20-42 15-125 8-235 124-281 211-232c18 10 29 29 36 50l-46 12c-8-25-30-41-62-41-52 0-71 34-72 86" id="ay"/><path fill="#333" d="M144 0l-44-69L55 0H2l70-98-66-92h53l41 62 40-62h54l-67 91 71 99h-54" id="az"/><g id="x"><use transform="matrix(0.04938271604938272,0,0,0.04938271604938272,0,0)" xlink:href="#ay"/><use transform="matrix(0.04938271604938272,0,0,0.04938271604938272,12.790123456790125,0)" xlink:href="#R"/><use transform="matrix(0.04938271604938272,0,0,0.04938271604938272,23.60493827160494,0)" xlink:href="#S"/><use transform="matrix(0.04938271604938272,0,0,0.04938271604938272,34.41975308641975,0)" xlink:href="#Q"/><use transform="matrix(0.04938271604938272,0,0,0.04938271604938272,40.2962962962963,0)" xlink:href="#M"/><use transform="matrix(0.04938271604938272,0,0,0.04938271604938272,50.17283950617284,0)" xlink:href="#az"/><use transform="matrix(0.04938271604938272,0,0,0.04938271604938272,60.04938271604939,0)" xlink:href="#Q"/></g><path fill="#3a414a" d="M67-125c0 53 21 87 73 88 37 1 54-22 65-47l45 17C233-25 199 4 140 4 58 4 20-42 15-125 8-235 124-281 211-232c18 10 29 29 36 50l-46 12c-8-25-30-41-62-41-52 0-71 34-72 86" id="aA"/><path fill="#3a414a" d="M144 0l-44-69L55 0H2l70-98-66-92h53l41 62 40-62h54l-67 91 71 99h-54" id="aB"/><g id="y"><use transform="matrix(0.06172839506172839,0,0,0.06172839506172839,0,0)" xlink:href="#aA"/><use transform="matrix(0.06172839506172839,0,0,0.06172839506172839,15.987654320987653,0)" xlink:href="#ar"/><use transform="matrix(0.06172839506172839,0,0,0.06172839506172839,29.50617283950617,0)" xlink:href="#aq"/><use transform="matrix(0.06172839506172839,0,0,0.06172839506172839,43.02469135802469,0)" xlink:href="#Y"/><use transform="matrix(0.06172839506172839,0,0,0.06172839506172839,50.37037037037037,0)" xlink:href="#X"/><use transform="matrix(0.06172839506172839,0,0,0.06172839506172839,62.716049382716044,0)" xlink:href="#aB"/><use transform="matrix(0.06172839506172839,0,0,0.06172839506172839,75.06172839506172,0)" xlink:href="#Y"/></g><path fill="#3a414a" d="M4 7l51-268h42L46 7H4" id="aC"/><g id="z"><use transform="matrix(0.06172839506172839,0,0,0.06172839506172839,0,0)" xlink:href="#Z"/><use transform="matrix(0.06172839506172839,0,0,0.06172839506172839,12.345679012345679,0)" xlink:href="#W"/><use transform="matrix(0.06172839506172839,0,0,0.06172839506172839,24.691358024691358,0)" xlink:href="#Y"/><use transform="matrix(0.06172839506172839,0,0,0.06172839506172839,32.03703703703704,0)" xlink:href="#aa"/><use transform="matrix(0.06172839506172839,0,0,0.06172839506172839,39.382716049382715,0)" xlink:href="#ab"/><use transform="matrix(0.06172839506172839,0,0,0.06172839506172839,51.72839506172839,0)" xlink:href="#ac"/><use transform="matrix(0.06172839506172839,0,0,0.06172839506172839,64.07407407407408,0)" xlink:href="#aC"/><use transform="matrix(0.06172839506172839,0,0,0.06172839506172839,70.24691358024691,0)" xlink:href="#W"/><use transform="matrix(0.06172839506172839,0,0,0.06172839506172839,82.5925925925926,0)" xlink:href="#af"/><use transform="matrix(0.06172839506172839,0,0,0.06172839506172839,94.93827160493828,0)" xlink:href="#aa"/><use transform="matrix(0.06172839506172839,0,0,0.06172839506172839,102.28395061728396,0)" xlink:href="#ab"/><use transform="matrix(0.06172839506172839,0,0,0.06172839506172839,114.62962962962965,0)" xlink:href="#ac"/></g><g id="A"><use transform="matrix(0.06172839506172839,0,0,0.06172839506172839,0,0)" xlink:href="#W"/><use transform="matrix(0.06172839506172839,0,0,0.06172839506172839,12.345679012345679,0)" xlink:href="#af"/><use transform="matrix(0.06172839506172839,0,0,0.06172839506172839,24.691358024691358,0)" xlink:href="#aa"/><use transform="matrix(0.06172839506172839,0,0,0.06172839506172839,32.03703703703704,0)" xlink:href="#ab"/><use transform="matrix(0.06172839506172839,0,0,0.06172839506172839,43.14814814814815,0)" xlink:href="#ab"/><use transform="matrix(0.06172839506172839,0,0,0.06172839506172839,55.49382716049383,0)" xlink:href="#aC"/><use transform="matrix(0.06172839506172839,0,0,0.06172839506172839,61.66666666666667,0)" xlink:href="#ak"/><use transform="matrix(0.06172839506172839,0,0,0.06172839506172839,75.18518518518519,0)" xlink:href="#ai"/><use transform="matrix(0.06172839506172839,0,0,0.06172839506172839,88.70370370370371,0)" xlink:href="#aa"/><use transform="matrix(0.06172839506172839,0,0,0.06172839506172839,96.0493827160494,0)" xlink:href="#ab"/><use transform="matrix(0.06172839506172839,0,0,0.06172839506172839,108.39506172839508,0)" xlink:href="#at"/></g><g id="B"><use transform="matrix(0.06172839506172839,0,0,0.06172839506172839,0,0)" xlink:href="#aA"/><use transform="matrix(0.06172839506172839,0,0,0.06172839506172839,15.987654320987653,0)" xlink:href="#au"/><use transform="matrix(0.06172839506172839,0,0,0.06172839506172839,29.50617283950617,0)" xlink:href="#Z"/><use transform="matrix(0.06172839506172839,0,0,0.06172839506172839,41.85185185185185,0)" xlink:href="#ad"/><use transform="matrix(0.06172839506172839,0,0,0.06172839506172839,50.49382716049382,0)" xlink:href="#Z"/><use transform="matrix(0.06172839506172839,0,0,0.06172839506172839,62.8395061728395,0)" xlink:href="#af"/><use transform="matrix(0.06172839506172839,0,0,0.06172839506172839,75.18518518518518,0)" xlink:href="#Y"/><use transform="matrix(0.06172839506172839,0,0,0.06172839506172839,82.53086419753086,0)" xlink:href="#X"/><use transform="matrix(0.06172839506172839,0,0,0.06172839506172839,94.87654320987654,0)" xlink:href="#ad"/></g><g id="C"><use transform="matrix(0.06172839506172839,0,0,0.06172839506172839,0,0)" xlink:href="#af"/><use transform="matrix(0.06172839506172839,0,0,0.06172839506172839,12.345679012345679,0)" xlink:href="#au"/><use transform="matrix(0.06172839506172839,0,0,0.06172839506172839,25.864197530864196,0)" xlink:href="#ad"/><use transform="matrix(0.06172839506172839,0,0,0.06172839506172839,34.50617283950617,0)" xlink:href="#aa"/><use transform="matrix(0.06172839506172839,0,0,0.06172839506172839,41.85185185185185,0)" xlink:href="#ac"/><use transform="matrix(0.06172839506172839,0,0,0.06172839506172839,54.197530864197525,0)" xlink:href="#ab"/></g><g id="D"><use transform="matrix(0.06172839506172839,0,0,0.06172839506172839,0,0)" xlink:href="#ak"/><use transform="matrix(0.06172839506172839,0,0,0.06172839506172839,13.518518518518517,0)" xlink:href="#ai"/><use transform="matrix(0.06172839506172839,0,0,0.06172839506172839,27.037037037037035,0)" xlink:href="#aa"/><use transform="matrix(0.06172839506172839,0,0,0.06172839506172839,34.382716049382715,0)" xlink:href="#ab"/><use transform="matrix(0.06172839506172839,0,0,0.06172839506172839,45.49382716049382,0)" xlink:href="#ab"/></g><g id="E"><use transform="matrix(0.06172839506172839,0,0,0.06172839506172839,0,0)" xlink:href="#ak"/><use transform="matrix(0.06172839506172839,0,0,0.06172839506172839,13.518518518518517,0)" xlink:href="#X"/><use transform="matrix(0.06172839506172839,0,0,0.06172839506172839,25.864197530864196,0)" xlink:href="#ai"/><use transform="matrix(0.06172839506172839,0,0,0.06172839506172839,39.382716049382715,0)" xlink:href="#al"/><use transform="matrix(0.06172839506172839,0,0,0.06172839506172839,45.55555555555556,0)" xlink:href="#af"/><use transform="matrix(0.06172839506172839,0,0,0.06172839506172839,57.901234567901234,0)" xlink:href="#Y"/><use transform="matrix(0.06172839506172839,0,0,0.06172839506172839,65.24691358024691,0)" xlink:href="#al"/><use transform="matrix(0.06172839506172839,0,0,0.06172839506172839,71.41975308641975,0)" xlink:href="#ar"/><use transform="matrix(0.06172839506172839,0,0,0.06172839506172839,84.93827160493827,0)" xlink:href="#aq"/></g><path fill="#3a414a" d="M175 0L67-191c6 58 2 128 3 191H24v-248h59L193-55c-6-58-2-129-3-193h46V0h-61" id="aD"/><path fill="#3a414a" d="M128 0H69L1-190h53L99-40l48-150h52" id="aE"/><path fill="#3a414a" d="M140-251c80 0 125 45 125 126S219 4 139 4C58 4 15-44 15-125s44-126 125-126zm-1 214c52 0 73-35 73-88 0-50-21-86-72-86-52 0-73 35-73 86s22 88 72 88" id="aF"/><path fill="#3a414a" d="M135-194c52 0 70 43 70 98 0 56-19 99-73 100-30 1-46-15-58-35L72 0H24l1-261h50v104c11-23 29-37 60-37zM114-30c31 0 40-27 40-66 0-37-7-63-39-63s-41 28-41 65c0 36 8 64 40 64" id="aG"/><path fill="#3a414a" d="M25-224v-37h50v37H25zM75 22c2 45-34 59-81 51V38c22 5 31-5 31-27v-201h50V22" id="aH"/><g id="F"><use transform="matrix(0.06172839506172839,0,0,0.06172839506172839,0,0)" xlink:href="#aD"/><use transform="matrix(0.06172839506172839,0,0,0.06172839506172839,15.987654320987653,0)" xlink:href="#Z"/><use transform="matrix(0.06172839506172839,0,0,0.06172839506172839,28.333333333333332,0)" xlink:href="#ad"/><use transform="matrix(0.06172839506172839,0,0,0.06172839506172839,36.9753086419753,0)" xlink:href="#ad"/><use transform="matrix(0.06172839506172839,0,0,0.06172839506172839,45.61728395061728,0)" xlink:href="#Z"/><use transform="matrix(0.06172839506172839,0,0,0.06172839506172839,57.962962962962955,0)" xlink:href="#Y"/><use transform="matrix(0.06172839506172839,0,0,0.06172839506172839,65.30864197530863,0)" xlink:href="#al"/><use transform="matrix(0.06172839506172839,0,0,0.06172839506172839,71.48148148148147,0)" xlink:href="#aE"/><use transform="matrix(0.06172839506172839,0,0,0.06172839506172839,83.82716049382715,0)" xlink:href="#X"/><use transform="matrix(0.06172839506172839,0,0,0.06172839506172839,96.17283950617283,0)" xlink:href="#aF"/><use transform="matrix(0.06172839506172839,0,0,0.06172839506172839,113.45679012345678,0)" xlink:href="#aG"/><use transform="matrix(0.06172839506172839,0,0,0.06172839506172839,126.9753086419753,0)" xlink:href="#aH"/><use transform="matrix(0.06172839506172839,0,0,0.06172839506172839,133.14814814814815,0)" xlink:href="#X"/><use transform="matrix(0.06172839506172839,0,0,0.06172839506172839,145.49382716049382,0)" xlink:href="#af"/><use transform="matrix(0.06172839506172839,0,0,0.06172839506172839,157.8395061728395,0)" xlink:href="#Y"/></g><g id="G"><use transform="matrix(0.06172839506172839,0,0,0.06172839506172839,0,0)" xlink:href="#aq"/><use transform="matrix(0.06172839506172839,0,0,0.06172839506172839,13.518518518518517,0)" xlink:href="#ar"/><use transform="matrix(0.06172839506172839,0,0,0.06172839506172839,27.037037037037035,0)" xlink:href="#aa"/><use transform="matrix(0.06172839506172839,0,0,0.06172839506172839,34.382716049382715,0)" xlink:href="#ab"/><use transform="matrix(0.06172839506172839,0,0,0.06172839506172839,46.72839506172839,0)" xlink:href="#at"/></g><g id="H"><use transform="matrix(0.06172839506172839,0,0,0.06172839506172839,0,0)" xlink:href="#ai"/><use transform="matrix(0.06172839506172839,0,0,0.06172839506172839,13.518518518518517,0)" xlink:href="#ad"/><use transform="matrix(0.06172839506172839,0,0,0.06172839506172839,22.160493827160494,0)" xlink:href="#ar"/><use transform="matrix(0.06172839506172839,0,0,0.06172839506172839,35.67901234567901,0)" xlink:href="#ai"/></g><g id="I"><use transform="matrix(0.04938271604938272,0,0,0.04938271604938272,0,0)" xlink:href="#L"/><use transform="matrix(0.04938271604938272,0,0,0.04938271604938272,12.790123456790125,0)" xlink:href="#M"/><use transform="matrix(0.04938271604938272,0,0,0.04938271604938272,22.66666666666667,0)" xlink:href="#N"/><use transform="matrix(0.04938271604938272,0,0,0.04938271604938272,33.48148148148149,0)" xlink:href="#O"/><use transform="matrix(0.04938271604938272,0,0,0.04938271604938272,38.41975308641976,0)" xlink:href="#P"/><use transform="matrix(0.04938271604938272,0,0,0.04938271604938272,48.296296296296305,0)" xlink:href="#Q"/><use transform="matrix(0.04938271604938272,0,0,0.04938271604938272,54.17283950617284,0)" xlink:href="#R"/><use transform="matrix(0.04938271604938272,0,0,0.04938271604938272,64.98765432098766,0)" xlink:href="#T"/></g><g id="J"><use transform="matrix(0.06172839506172839,0,0,0.06172839506172839,0,0)" xlink:href="#ak"/><use transform="matrix(0.06172839506172839,0,0,0.06172839506172839,13.518518518518517,0)" xlink:href="#ai"/><use transform="matrix(0.06172839506172839,0,0,0.06172839506172839,27.037037037037035,0)" xlink:href="#aa"/><use transform="matrix(0.06172839506172839,0,0,0.06172839506172839,34.382716049382715,0)" xlink:href="#ab"/><use transform="matrix(0.06172839506172839,0,0,0.06172839506172839,46.72839506172839,0)" xlink:href="#ac"/></g><g id="K"><use transform="matrix(0.06172839506172839,0,0,0.06172839506172839,0,0)" xlink:href="#aq"/><use transform="matrix(0.06172839506172839,0,0,0.06172839506172839,13.518518518518517,0)" xlink:href="#ar"/><use transform="matrix(0.06172839506172839,0,0,0.06172839506172839,27.037037037037035,0)" xlink:href="#aa"/><use transform="matrix(0.06172839506172839,0,0,0.06172839506172839,34.382716049382715,0)" xlink:href="#ab"/><use transform="matrix(0.06172839506172839,0,0,0.06172839506172839,45.49382716049382,0)" xlink:href="#ab"/></g></defs></g></svg>