<svg xmlns="http://www.w3.org/2000/svg" xmlns:xlink="http://www.w3.org/1999/xlink" xmlns:lucid="lucid" width="2099.25" height="1518.23"><g transform="translate(-8929.909787766019 -4275.154632084865)" lucid:page-tab-id="0_0"><path d="M9517.55 5627.08H9379.1v-3h138.45zm209.6 0h-128.86v-3h128.84z" stroke="#3a414a" stroke-width=".05" fill="#3a414a"/><path d="M9379.13 5627.08h-1.54v-3h1.53z" fill="#3a414a"/><path d="M9379.16 5627.1h-1.6v-3.05h1.6zm-1.55-3v2.95h1.5v-2.95z" stroke="#3a414a" stroke-width=".05" fill="#3a414a"/><path d="M9735.3 5625.58l-12.9 7.63v-15.26z" fill="#3a414a"/><path d="M9738.25 5625.58l-17.36 10.26v-20.53zm-14.36 5l8.46-5-8.47-5z" stroke="#3a414a" stroke-width=".05" fill="#3a414a"/><use xlink:href="#a" transform="matrix(1,0,0,1,9517.552158391854,5614.911595432818) translate(0 14.222222222222223)"/><path d="M10090.28 5623.48h-107.53v-3h107.53zm164.88 0h-97.92v-3h97.92z" stroke="#3a414a" stroke-width=".05" fill="#3a414a"/><path d="M9982.8 5623.48h-1.55v-3h1.54z" fill="#3a414a"/><path d="M9982.82 5623.5h-1.6v-3.05h1.6zm-1.55-3v2.95h1.5v-2.94z" stroke="#3a414a" stroke-width=".05" fill="#3a414a"/><path d="M10263.32 5621.98l-12.9 7.64v-15.27z" fill="#3a414a"/><path d="M10266.27 5621.98l-17.36 10.27v-20.53zm-14.36 5l8.48-5-8.47-5z" stroke="#3a414a" stroke-width=".05" fill="#3a414a"/><use xlink:href="#b" transform="matrix(1,0,0,1,10090.280544060257,5611.313507402787) translate(0 14.222222222222223)"/><path d="M9566.14 5686.45H9388.7v-3h177.44zm170.6 0h-111.5v-3h111.5z" stroke="#3a414a" stroke-width=".05" fill="#3a414a"/><path d="M9738.25 5686.45h-1.55v-3h1.55z" fill="#3a414a"/><path d="M9738.27 5686.47h-1.6v-3.05h1.6zm-1.54-3v2.95h1.5v-2.95z" stroke="#3a414a" stroke-width=".05" fill="#3a414a"/><path d="M9393.45 5692.58l-12.9-7.63 12.9-7.64z" fill="#3a414a"/><path d="M9394.95 5695.2l-17.36-10.25 17.35-10.27zm-11.47-10.25l8.47 5v-10z" stroke="#3a414a" stroke-width=".05" fill="#3a414a"/><use xlink:href="#c" transform="matrix(1,0,0,1,9566.140735232751,5674.280034652576) translate(0 14.222222222222223)"/><path d="M9566.28 5162.22a6 6 0 0 1 6-6h228a6 6 0 0 1 6 6v148a6 6 0 0 1-6 6h-228a6 6 0 0 1-6-6z" stroke="#3a414a" stroke-width="3" fill="#fff"/><use xlink:href="#d" transform="matrix(1,0,0,1,9574.282077119457,5164.222226135457) translate(70.7962962962963 62.77777777777778)"/><use xlink:href="#e" transform="matrix(1,0,0,1,9574.282077119457,5164.222226135457) translate(51.012345679012334 89.44444444444446)"/><path d="M9788.16 5462.63l8.75 8.2 6.5 6.6 5.2 5.8 4.4 5.3 3.8 5 3.33 4.8 2.95 4.63 2.63 4.56 2.38 4.52 2.12 4.5 1.9 4.55 1.7 4.58 1.53 4.68 1.34 4.8 1.16 4.94.98 5.14.8 5.35.6 5.6.36 5.95.1 4.78-3 .06-.1-4.73-.36-5.8-.58-5.5-.77-5.23-.95-5-1.13-4.84-1.3-4.67-1.5-4.56-1.65-4.48-1.86-4.43-2.07-4.4-2.32-4.4-2.57-4.45-2.87-4.54-3.25-4.68-3.72-4.9-4.32-5.2-5.14-5.7-6.4-6.53-8.64-8.1-13.06-11.2h4.6zm-99.9-132.9l.6 5.5.76 5.22.96 5 1.13 4.83 1.3 4.67 1.5 4.56 1.66 4.5 1.86 4.4 2.07 4.4 2.3 4.4 2.56 4.46 2.9 4.54 3.24 4.68 3.72 4.9 4.32 5.2 5.14 5.72 6.38 6.5 8.65 8.1 13.14 11.04h-4.66l-10.46-8.78-8.75-8.2-6.48-6.6-5.24-5.8-4.4-5.32-3.8-5-3.3-4.78-2.96-4.64-2.64-4.56-2.36-4.52-2.12-4.5-1.9-4.55-1.72-4.6-1.52-4.68-1.34-4.8-1.16-4.94-.97-5.13-.8-5.36-.6-5.63-.05-1.06 3-.17z" stroke="#3a414a" stroke-width=".05" fill="#3a414a"/><path d="M9840.7 5568.46h-3l-.04-1.5 3-.07z" fill="#3a414a"/><path d="M9840.72 5568.48h-3.05l-.03-1.55 3.05-.07zm-3.03-1.5l.02 1.46h2.95l-.03-1.53z" stroke="#3a414a" stroke-width=".05" fill="#3a414a"/><path d="M9694.75 5333.15l-15.25.8 6.94-13.28z" fill="#3a414a"/><path d="M9697.46 5334.5l-20.5 1.1 9.32-17.88zm-15.4-2.17l9.98-.54-5.45-8.2z" stroke="#3a414a" stroke-width=".05" fill="#3a414a"/><use xlink:href="#f" transform="matrix(1,0,0,1,9747.521164075066,5432.343072448332) translate(0 14.222222222222223)"/><path d="M9595.55 5080.5l8.1 5.87 5.88 4.65 4.67 4.03 3.87 3.63 3.3 3.36 2.84 3.16 2.5 3.02 2.22 2.9 1.97 2.84 1.75 2.78 1.58 2.73 1.42 2.7 1.27 2.72 1.14 2.7 1.02 2.74.9 2.76.78 2.82.68 2.88.56 2.96.45 3.05.33 3.17.2 3.3.05 1.92-3 .05-.04-1.86-.2-3.18-.32-3.04-.44-2.92-.54-2.84-.64-2.75-.76-2.7-.86-2.65-.97-2.6-1.1-2.6-1.2-2.6-1.37-2.6-1.52-2.63-1.7-2.68-1.9-2.72-2.12-2.8-2.42-2.93-2.77-3.07-3.2-3.27-3.78-3.55-4.6-3.94-5.77-4.58-7.98-5.78-8.8-5.8h5.44zm-91.88-89.6l.54 2.84.66 2.76.75 2.7.87 2.64.98 2.62 1.1 2.6 1.2 2.6 1.37 2.6 1.52 2.62 1.7 2.66 1.9 2.73 2.12 2.8 2.42 2.93 2.76 3.07 3.2 3.27 3.8 3.55 4.56 3.93 5.8 4.58 7.96 5.8 8.77 5.64h-5.54l-4.93-3.18-8.1-5.86-5.88-4.66-4.68-4.02-3.87-3.63-3.3-3.37-2.84-3.17-2.5-3.02-2.2-2.9-1.97-2.84-1.76-2.77-1.58-2.73-1.43-2.72-1.27-2.7-1.14-2.7-1.02-2.75-.9-2.77-.8-2.8-.66-2.9-.57-2.95-.23-1.66 2.97-.44z" stroke="#3a414a" stroke-width=".05" fill="#3a414a"/><path d="M9643.06 5154.72h-3l-.03-1.5 3-.07z" fill="#3a414a"/><path d="M9643.1 5154.75h-3.06l-.03-1.56 3.06-.07zm-3.04-1.5l.03 1.45h2.94l-.03-1.52z" stroke="#3a414a" stroke-width=".05" fill="#3a414a"/><path d="M9510.3 4993.48l-15.2 1.5 6.34-13.6z" fill="#3a414a"/><path d="M9513.06 4994.72l-20.43 2 8.52-18.28zm-15.5-1.5l9.97-.97-5.8-7.94z" stroke="#3a414a" stroke-width=".05" fill="#3a414a"/><use xlink:href="#g" transform="matrix(1,0,0,1,9551.186750310513,5055.837183145486) translate(0 14.222222222222223)"/><path d="M10111.2 5156.3a6 6 0 0 1 6-6h228a6 6 0 0 1 6 6v148a6 6 0 0 1-6 6h-228a6 6 0 0 1-6-6z" stroke="#3a414a" stroke-width="3" fill="#fff"/><use xlink:href="#d" transform="matrix(1,0,0,1,10119.197164343961,5158.293150542601) translate(70.7962962962963 62.77777777777778)"/><use xlink:href="#h" transform="matrix(1,0,0,1,10119.197164343961,5158.293150542601) translate(47.956790123456784 89.44444444444446)"/><path d="M10077.48 5449.26l-35.6 16.92-15.94 8.74-11.38 6.88-8.8 5.84-7.15 5.18-5.92 4.7-5.03 4.33-4.32 4.06-3.75 3.84-3.28 3.64-2.9 3.5-2.57 3.38-2.28 3.3-2.04 3.2-1.8 3.15-1.64 3.12-1.45 3.08-1.28 3.07-1.14 3.07-1 3.08-.87 3.1-.73 3.16-.6 3.2-.5 3.28-.35 3.35-.22 3.47-.04 2.12-3-.07.05-2.18.23-3.6.37-3.47.5-3.4.64-3.32.76-3.28.9-3.23 1.05-3.2 1.18-3.2 1.34-3.17 1.5-3.2 1.7-3.22 1.87-3.26 2.1-3.3 2.36-3.4 2.65-3.48 2.97-3.6 3.37-3.74 3.83-3.92 4.42-4.14 5.12-4.4 6.03-4.8 7.24-5.24 8.92-5.92 11.48-6.94 16.08-8.8 36.96-17.58zm155.27-126.17l-.42 2.87-.64 3.33-.78 3.27-.9 3.23-1.04 3.2-1.18 3.2-1.34 3.17-1.5 3.2-1.7 3.22-1.88 3.25-2.1 3.32-2.36 3.38-2.64 3.48-2.98 3.6-3.37 3.74-3.84 3.92-4.42 4.13-5.12 4.42-6.03 4.77-7.24 5.25-8.93 5.92-11.48 6.93-16.08 8.8-29.94 14.74-6.84 3.26v-3.33l5.54-2.63 29.85-14.7 15.96-8.74 11.36-6.87 8.82-5.85 7.14-5.17 5.93-4.7 5.02-4.33 4.32-4.05 3.75-3.83 3.28-3.65 2.9-3.5 2.57-3.38 2.28-3.3 2.04-3.2 1.82-3.16 1.63-3.1 1.45-3.1 1.3-3.06 1.13-3.06 1-3.1.87-3.1.74-3.15.6-3.2.42-2.82z" stroke="#3a414a" stroke-width=".05" fill="#3a414a"/><path d="M10238.18 5328.27l-15.2-1.36 8.75-12.17z" fill="#3a414a"/><path d="M10240.67 5330l-20.45-1.83 11.78-16.37zm-14.94-4.35l9.97.9-4.23-8.88z" stroke="#3a414a" stroke-width=".05" fill="#3a414a"/><path d="M9954.83 5566.92v1.54h-3v-1.54z" fill="#3a414a"/><path d="M9954.85 5566.9v1.6l-3.05-.02v-1.58zm-3 1.54h2.95v-1.5h-2.94z" stroke="#3a414a" stroke-width=".05" fill="#3a414a"/><use xlink:href="#f" transform="matrix(1,0,0,1,10077.476308160745,5429.664939421024) translate(0 14.222222222222223)"/><path d="M8931.4 4996.3a6 6 0 0 1 6-6h228a6 6 0 0 1 6 6v148a6 6 0 0 1-6 6h-228a6 6 0 0 1-6-6z" stroke="#3a414a" stroke-width="3" fill="#fff"/><use xlink:href="#i" transform="matrix(1,0,0,1,8939.409787893908,4998.293150542601) translate(81.81481481481481 62.77777777777778)"/><use xlink:href="#j" transform="matrix(1,0,0,1,8939.409787893908,4998.293150542601) translate(79.96296296296296 89.44444444444446)"/><path d="M8931.4 4922.65a6 6 0 0 1 6-6h228a6 6 0 0 1 6 6v61.64a6 6 0 0 1-6 6h-228a6 6 0 0 1-6-6z" stroke="#3a414a" stroke-width="3" fill="#b8f5ed"/><use xlink:href="#k" transform="matrix(1,0,0,1,8935.092082781353,4920.329547681153) translate(5.882716049382708 24.05902777777778)"/><use xlink:href="#l" transform="matrix(1,0,0,1,8935.092082781353,4920.329547681153) translate(123.6604938271605 24.05902777777778)"/><use xlink:href="#m" transform="matrix(1,0,0,1,8935.092082781353,4920.329547681153) translate(36.74691358024691 50.72569444444445)"/><use xlink:href="#n" transform="matrix(1,0,0,1,8935.092082781353,4920.329547681153) translate(147.05555555555554 50.72569444444445)"/><path d="M10787.66 4996.3a6 6 0 0 1 6-6h228a6 6 0 0 1 6 6v148a6 6 0 0 1-6 6h-228a6 6 0 0 1-6-6z" stroke="#3a414a" stroke-width="3" fill="#fff"/><use xlink:href="#i" transform="matrix(1,0,0,1,10795.662547549598,4998.293150542601) translate(81.81481481481481 62.77777777777778)"/><use xlink:href="#o" transform="matrix(1,0,0,1,10795.662547549598,4998.293150542601) translate(80.58024691358025 89.44444444444446)"/><path d="M10787.66 4922.65a6 6 0 0 1 6-6h228a6 6 0 0 1 6 6v61.64a6 6 0 0 1-6 6h-228a6 6 0 0 1-6-6z" stroke="#3a414a" stroke-width="3" fill="#b8f5ed"/><use xlink:href="#p" transform="matrix(1,0,0,1,10791.344842437044,4920.329547681153) translate(7.549382716049394 24.05902777777778)"/><use xlink:href="#l" transform="matrix(1,0,0,1,10791.344842437044,4920.329547681153) translate(121.99382716049384 24.05902777777778)"/><use xlink:href="#m" transform="matrix(1,0,0,1,10791.344842437044,4920.329547681153) translate(36.74691358024691 50.72569444444445)"/><use xlink:href="#n" transform="matrix(1,0,0,1,10791.344842437044,4920.329547681153) translate(147.05555555555554 50.72569444444445)"/><path d="M10083.4 5677.45h-91.04v-3h91.03zm181.37 0h-100.64v-3h100.64z" stroke="#3a414a" stroke-width=".05" fill="#3a414a"/><path d="M10266.27 5677.45h-1.54v-3h1.54z" fill="#3a414a"/><path d="M10266.3 5677.48h-1.6v-3.05h1.6zm-1.55-3v2.95h1.5v-2.95z" stroke="#3a414a" stroke-width=".05" fill="#3a414a"/><path d="M9997.1 5683.6l-12.9-7.65 12.9-7.63z" fill="#3a414a"/><path d="M9998.6 5686.22l-17.35-10.27 17.36-10.26zm-11.46-10.27l8.47 5v-10z" stroke="#3a414a" stroke-width=".05" fill="#3a414a"/><use xlink:href="#a" transform="matrix(1,0,0,1,10083.387416359214,5665.284816925183) translate(0 14.222222222222223)"/><path d="M9739.75 5575.96a6 6 0 0 1 6-6h228a6 6 0 0 1 6 6v148a6 6 0 0 1-6 6h-228a6 6 0 0 1-6-6z" stroke="#3a414a" stroke-width="3" fill="#fff"/><use xlink:href="#q" transform="matrix(1,0,0,1,9747.749223285526,5577.959817209269) translate(61.53703703703704 62.77777777777778)"/><use xlink:href="#r" transform="matrix(1,0,0,1,9747.749223285526,5577.959817209269) translate(82.46296296296296 89.44444444444446)"/><path d="M9739.75 5735.96a6 6 0 0 1 6-6h228a6 6 0 0 1 6 6v46.08a6 6 0 0 1-6 6h-228a6 6 0 0 1-6-6z" stroke="#3a414a" stroke-width="3" fill="#b8f5ed"/><use xlink:href="#s" transform="matrix(1,0,0,1,9742.65336722139,5732.863961145133) translate(40.5246913580247 31.02777777777778)"/><use xlink:href="#t" transform="matrix(1,0,0,1,9742.65336722139,5732.863961145133) translate(99.59876543209876 31.02777777777778)"/><path d="M10281.24 5075.12l-9.55 6.9-6.24 4.94-4.75 4.1-3.85 3.62-3.25 3.3-2.78 3.1-2.42 2.92-2.13 2.8-1.9 2.73-1.68 2.66-1.52 2.6-1.36 2.6-1.22 2.6-1.1 2.58-.96 2.62-.86 2.65-.76 2.7-.65 2.78-.54 2.85-.44 2.95-.33 3.07-.2 3.2-.04 1.92-3-.06.04-1.97.2-3.35.35-3.2.45-3.07.57-2.98.67-2.9.8-2.8.9-2.8 1.02-2.72 1.14-2.7 1.27-2.7 1.42-2.72 1.57-2.73 1.76-2.76 1.96-2.83 2.2-2.9 2.5-3.03 2.88-3.17 3.33-3.4 3.95-3.7 4.85-4.18 6.33-5 7.58-5.5h5.2zm79.6-85.38l-.26 1.82-.56 2.98-.68 2.9-.8 2.8-.9 2.78-1 2.74-1.15 2.7-1.28 2.7-1.42 2.72-1.57 2.72-1.76 2.77-1.96 2.82-2.2 2.9-2.5 3.03-2.87 3.18-3.33 3.4-3.95 3.7-4.85 4.2-6.34 5-7.63 5.22h-5.3l11.15-7.63 6.2-4.92 4.77-4.1 3.86-3.62 3.25-3.3 2.78-3.1 2.42-2.92 2.13-2.8 1.9-2.73 1.68-2.65 1.5-2.62 1.37-2.6 1.22-2.58 1.1-2.6.96-2.6.88-2.66.75-2.72.65-2.77.54-2.84.26-1.76z" stroke="#3a414a" stroke-width=".05" fill="#3a414a"/><path d="M10232.73 5147.28l-.03 1.5h-3l.03-1.56z" fill="#3a414a"/><path d="M10232.75 5147.26l-.03 1.56h-3.05l.03-1.62zm-3.03 1.5h2.95l.03-1.45-2.95-.05z" stroke="#3a414a" stroke-width=".05" fill="#3a414a"/><path d="M10366.23 4994.96l-15.2-1.46 8.84-12.12z" fill="#3a414a"/><path d="M10368.7 4996.7l-20.43-1.96 11.9-16.3zm-14.9-4.44l9.96.96-4.17-8.9z" stroke="#3a414a" stroke-width=".05" fill="#3a414a"/><use xlink:href="#g" transform="matrix(1,0,0,1,10275.364765555354,5052.824133050818) translate(0 14.222222222222223)"/><path d="M10267.77 5575.96a6 6 0 0 1 6-6h228a6 6 0 0 1 6 6v148a6 6 0 0 1-6 6h-228a6 6 0 0 1-6-6z" stroke="#3a414a" stroke-width="3" fill="#fff"/><use xlink:href="#i" transform="matrix(1,0,0,1,10275.770590329023,5577.959817209269) translate(81.81481481481481 62.77777777777778)"/><use xlink:href="#u" transform="matrix(1,0,0,1,10275.770590329023,5577.959817209269) translate(79.96296296296296 89.44444444444446)"/><path d="M10267.77 5734.55a6 6 0 0 1 6-6h228a6 6 0 0 1 6 6v51.33a6 6 0 0 1-6 6h-228a6 6 0 0 1-6-6z" stroke="#3a414a" stroke-width="3" fill="#b8f5ed"/><use xlink:href="#v" transform="matrix(1,0,0,1,10270.937256995689,5731.714966036593) translate(2.709876543209873 21.34027777777778)"/><use xlink:href="#l" transform="matrix(1,0,0,1,10270.937256995689,5731.714966036593) translate(127.83333333333333 21.34027777777778)"/><use xlink:href="#m" transform="matrix(1,0,0,1,10270.937256995689,5731.714966036593) translate(11.907407407407405 48.00694444444444)"/><use xlink:href="#w" transform="matrix(1,0,0,1,10270.937256995689,5731.714966036593) translate(122.21604938271605 48.00694444444444)"/><path d="M9664.1 4282.65a6 6 0 0 1 6-6h228a6 6 0 0 1 6 6v148a6 6 0 0 1-6 6h-228a6 6 0 0 1-6-6z" stroke="#3a414a" stroke-width="3" fill="#fff"/><use xlink:href="#x" transform="matrix(1,0,0,1,9672.111824401574,4284.6546321107135) translate(17.771604938271608 62.77777777777778)"/><use xlink:href="#y" transform="matrix(1,0,0,1,9672.111824401574,4284.6546321107135) translate(140.85802469135803 62.77777777777778)"/><use xlink:href="#z" transform="matrix(1,0,0,1,9672.111824401574,4284.6546321107135) translate(83.6358024691358 89.44444444444446)"/><path d="M9953.8 5209.96l-13.38 41.07-10.33 36.95-8.6 36.6-7.27 38.2-6.1 41.46-4.87 46.47-3.35 53.7-1.07 52.98-3-.06 1.08-53.03 3.37-53.84 4.88-46.6 6.12-41.58 7.3-38.34 8.62-36.7 10.35-37.08 13.42-41.2 30.9-80.03h3.2zm125.14-540.6l-1.27 62.63-3.35 53.82-4.88 46.6-6.13 41.58-7.3 38.34-8.6 36.7-10.36 37.08-13.42 41.2-24.68 65.67-5.63 14.6h-3.2l6.04-15.68 24.65-65.6 13.37-41.07 10.32-36.95 8.57-36.6 7.28-38.2 6.1-41.46 4.88-46.47 3.34-53.7 1.27-62.57z" stroke="#3a414a" stroke-width=".05" fill="#3a414a"/><path d="M10078.94 4669.4l-3-.06.03-1.52h3z" fill="#3a414a"/><path d="M10078.97 4669.43l-3.05-.06.03-1.57h3.05zm-2.97-1.58l-.03 1.47 2.95.06.03-1.53z" stroke="#3a414a" stroke-width=".05" fill="#3a414a"/><path d="M9905.07 5552.76l-7.9 12.75-7.37-13.05z" fill="#3a414a"/><path d="M9907.73 5551.3l-10.62 17.16-9.9-17.56zm-10.5 11.27l5.18-8.36-10-.2z" stroke="#3a414a" stroke-width=".05" fill="#3a414a"/><use xlink:href="#g" transform="matrix(1,0,0,1,9967.358470388486,5107.591220135735) translate(0 14.222222222222223)"/><path d="M9952.13 4282.65a6 6 0 0 1 6-6h228a6 6 0 0 1 6 6v148a6 6 0 0 1-6 6h-228a6 6 0 0 1-6-6z" stroke="#3a414a" stroke-width="3" fill="#fff"/><use xlink:href="#x" transform="matrix(1,0,0,1,9960.133191445071,4284.6546321107135) translate(17.771604938271608 62.77777777777778)"/><use xlink:href="#y" transform="matrix(1,0,0,1,9960.133191445071,4284.6546321107135) translate(140.85802469135803 62.77777777777778)"/><use xlink:href="#A" transform="matrix(1,0,0,1,9960.133191445071,4284.6546321107135) translate(84.25308641975309 89.44444444444446)"/><path d="M9723.92 4844.4l-12.08 51.13-7.94 41.62-6.24 42.3-4.94 47.18-3.5 56.37-1.4 70.24-3-.06 1.4-70.3 3.5-56.5 4.96-47.32 6.26-42.4 7.97-41.76 12.1-51.22 9.42-36.7h3.1zm61.47-395.1l-1.23 60.7-3.5 56.5-4.96 47.32-6.24 42.4-7.98 41.77-22.5 87.65h-3.08l22.65-88.3 7.95-41.62 6.23-42.3 4.94-47.18 3.5-56.37 1.22-60.65z" stroke="#3a414a" stroke-width=".05" fill="#3a414a"/><path d="M9687.8 5153.2l-.02 1.52h-3l.03-1.58z" fill="#3a414a"/><path d="M9687.84 5153.18l-.03 1.57h-3.04l.03-1.63zm-3.03 1.52h2.96l.03-1.47-2.96-.06z" stroke="#3a414a" stroke-width=".05" fill="#3a414a"/><path d="M9791.43 4454.16l-15.27-.3 7.9-12.76z" fill="#3a414a"/><path d="M9794.03 4455.7l-20.53-.4 10.6-17.15zm-15.2-3.3l10 .2-4.84-8.55z" stroke="#3a414a" stroke-width=".05" fill="#3a414a"/><use xlink:href="#B" transform="matrix(1,0,0,1,9706.140036613302,4785.645760863764) translate(0 14.222222222222223)"/><path d="M9704.83 4553.6l-4.08 3.66-4.17 3.45-4.26 3.24-4.34 3.02-4.42 2.8-4.5 2.6-4.6 2.4-4.66 2.2-4.75 2-4.85 1.8-4.93 1.6-5.03 1.4-5.14 1.22-5.24 1-5.37.8-5.5.57-5.63.35-4.25.1-.06-3 4.2-.1 5.5-.34 5.36-.57 5.24-.78 5.12-.98 5-1.17 4.92-1.37 4.82-1.57 4.72-1.76 4.64-1.94 4.55-2.15 4.48-2.34 4.4-2.54 4.32-2.74 4.24-2.94 4.16-3.16 4.07-3.37 3.83-3.47h4.3zm46.58-104.2l-.6 7.34-.92 7.25-1.2 7.1-1.5 6.96-1.73 6.8-2 6.6-2.23 6.42-2.46 6.2-2.67 6-2.87 5.77-3.05 5.54-3.2 5.3-2.33 3.5h-3.6l.1-.14 3.3-4.97 3.14-5.2 2.97-5.44 2.8-5.66 2.63-5.88 2.4-6.1 2.2-6.3 1.96-6.48 1.7-6.67 1.47-6.83 1.18-7 .9-7.1.62-7.28z" stroke="#3a414a" stroke-width=".05" fill="#3a414a"/><path d="M9619.16 4587.8l-1.57.02v-3l1.5-.03z" fill="#3a414a"/><path d="M9619.2 4587.8l-1.64.05v-3.05l1.56-.04zm-1.6-2.95v2.95l1.54-.04-.06-2.95z" stroke="#3a414a" stroke-width=".05" fill="#3a414a"/><path d="M9757.18 4454.34l-15.26-.7 8.2-12.54z" fill="#3a414a"/><path d="M9759.74 4455.95l-20.5-.9 11.02-16.9zm-15.13-3.68l10.02.45-4.63-8.68z" stroke="#3a414a" stroke-width=".05" fill="#3a414a"/><use xlink:href="#B" transform="matrix(1,0,0,1,9686.190814290785,4530.198703707121) translate(0 14.222222222222223)"/><path d="M9376.1 4512.32a6 6 0 0 1 6-6h228a6 6 0 0 1 6 6v148a6 6 0 0 1-6 6h-228a6 6 0 0 1-6-6z" stroke="#3a414a" stroke-width="3" fill="#fff"/><use xlink:href="#d" transform="matrix(1,0,0,1,9384.090457358077,4514.321270326766) translate(70.7962962962963 62.77777777777778)"/><use xlink:href="#C" transform="matrix(1,0,0,1,9384.090457358077,4514.321270326766) translate(48.512345679012334 89.44444444444446)"/><path d="M9957.47 4512.32a6 6 0 0 1 6-6h228a6 6 0 0 1 6 6v148a6 6 0 0 1-6 6h-228a6 6 0 0 1-6-6z" stroke="#3a414a" stroke-width="3" fill="#fff"/><use xlink:href="#d" transform="matrix(1,0,0,1,9965.473673048324,4514.321270326766) translate(70.7962962962963 62.77777777777778)"/><use xlink:href="#D" transform="matrix(1,0,0,1,9965.473673048324,4514.321270326766) translate(51.62962962962962 89.44444444444446)"/><path d="M9497.6 4755.86h-3v-32.6h3zm0-53.93h-3v-23h3z" stroke="#3a414a" stroke-width=".05" fill="#3a414a"/><path d="M9497.6 4757.36h-3v-1.54h3z" fill="#3a414a"/><path d="M9497.6 4757.4h-3.03v-1.6h3.05zm-3-1.55v1.5h2.97v-1.5z" stroke="#3a414a" stroke-width=".05" fill="#3a414a"/><path d="M9503.73 4683.68h-15.27l7.63-12.9z" fill="#3a414a"/><path d="M9506.36 4685.18h-20.53l10.26-17.36zm-15.28-3h10.02l-5-8.47z" stroke="#3a414a" stroke-width=".05" fill="#3a414a"/><use xlink:href="#f" transform="matrix(1,0,0,1,9480.806506740793,4701.924595775857) translate(0 14.222222222222223)"/><path d="M10078.97 4493.7h-3v-11.55h3zm0-32.88h-3v-21.16h3z" stroke="#3a414a" stroke-width=".05" fill="#3a414a"/><path d="M10078.97 4439.7h-3v-1.55h3z" fill="#3a414a"/><path d="M10079 4439.72h-3.05v-1.6h3.05zm-3-1.54v1.5h2.95v-1.5z" stroke="#3a414a" stroke-width=".05" fill="#3a414a"/><path d="M10077.47 4501.88l-7.63-12.92h15.27z" fill="#3a414a"/><path d="M10077.47 4504.82l-10.26-17.36h20.54zm-5-14.36l5 8.47 5-8.47z" stroke="#3a414a" stroke-width=".05" fill="#3a414a"/><use xlink:href="#f" transform="matrix(1,0,0,1,10062.18972243104,4460.821783376469) translate(0 14.222222222222223)"/><path d="M10307.7 4627.26l4.8 4.7 4.62 4.93 4.47 5.17 4.28 5.4 4.1 5.65 3.9 5.88 3.7 6.1 3.47 6.32 3.24 6.53 3 6.74 2.74 6.93 2.48 7.12 2.2 7.3 1.92 7.5 1.63 7.64 1.32 7.78 1 7.95.67 8.08.05 1.2-3 .12-.05-1.12-.66-7.96-.98-7.82-1.3-7.67-1.6-7.52-1.9-7.36-2.16-7.2-2.44-7-2.7-6.82-2.94-6.62-3.2-6.42-3.4-6.2-3.63-6-3.84-5.76-4-5.55-4.22-5.32-4.4-5.08-4.53-4.84-4.7-4.6-2.6-2.34h4.5zm-101.54-42.3l7.03.45 6.86.74 6.73 1 6.58 1.24 6.46 1.52 6.33 1.77 6.2 2 6.1 2.28 5.95 2.5 5.85 2.76 5.73 3 2.75 1.6h-6.18l-3.63-1.9-5.74-2.7-5.85-2.46-5.96-2.22-6.1-1.98-6.2-1.73-6.35-1.48-6.46-1.23-6.6-1-6.76-.7-6.9-.43-5.6-.12.07-3z" stroke="#3a414a" stroke-width=".05" fill="#3a414a"/><path d="M10200.55 4584.85l-.07 3-1.5-.03v-3z" fill="#3a414a"/><path d="M10200.57 4584.83l-.06 3.05-1.55-.03v-3.06zm-1.57 2.97l1.46.03.06-2.95-1.52-.03z" stroke="#3a414a" stroke-width=".05" fill="#3a414a"/><path d="M10360.03 4754.42l-8.15-12.6 15.26-.6z" fill="#3a414a"/><path d="M10360.16 4757.36l-10.97-16.92 20.5-.84zm-5.6-14.14l5.35 8.25 4.67-8.66z" stroke="#3a414a" stroke-width=".05" fill="#3a414a"/><use xlink:href="#g" transform="matrix(1,0,0,1,10272.135260534586,4605.79102322878) translate(0 14.222222222222223)"/><path d="M9136.1 5575.96a6 6 0 0 1 6-6h228a6 6 0 0 1 6 6v148a6 6 0 0 1-6 6h-228a6 6 0 0 1-6-6z" stroke="#3a414a" stroke-width="3" fill="#fff"/><use xlink:href="#E" transform="matrix(1,0,0,1,9144.090457358077,5577.959817209269) translate(60.24074074074074 62.77777777777778)"/><use xlink:href="#F" transform="matrix(1,0,0,1,9144.090457358077,5577.959817209269) translate(78.7283950617284 89.44444444444446)"/><path d="M10240.16 4764.86a6 6 0 0 1 6-6h228a6 6 0 0 1 6 6v148a6 6 0 0 1-6 6h-228a6 6 0 0 1-6-6z" stroke="#3a414a" stroke-width="3" fill="#fff"/><use xlink:href="#q" transform="matrix(1,0,0,1,10248.154558488572,4766.86259544546) translate(61.53703703703704 62.77777777777778)"/><use xlink:href="#G" transform="matrix(1,0,0,1,10248.154558488572,4766.86259544546) translate(83.08024691358025 89.44444444444446)"/><path d="M10240.16 4924.86a6 6 0 0 1 6-6h228a6 6 0 0 1 6 6v46.1a6 6 0 0 1-6 5.98h-228a6 6 0 0 1-6-6z" stroke="#3a414a" stroke-width="3" fill="#b8f5ed"/><use xlink:href="#s" transform="matrix(1,0,0,1,10243.058702424436,4921.766739381324) translate(38.73456790123457 31.02777777777778)"/><use xlink:href="#H" transform="matrix(1,0,0,1,10243.058702424436,4921.766739381324) translate(97.80864197530863 31.02777777777778)"/><path d="M10787.66 4619.18a6 6 0 0 1 6-6h228a6 6 0 0 1 6 6v148a6 6 0 0 1-6 6h-228a6 6 0 0 1-6-6z" stroke="#3a414a" stroke-width="3" fill="#fff"/><use xlink:href="#I" transform="matrix(1,0,0,1,10795.662547549598,4621.178477514613) translate(29.40740740740742 62.77777777777778)"/><use xlink:href="#J" transform="matrix(1,0,0,1,10795.662547549598,4621.178477514613) translate(82.46296296296296 89.44444444444446)"/><path d="M10787.66 4779.18a6 6 0 0 1 6-6h228a6 6 0 0 1 6 6v46.08a6 6 0 0 1-6 6h-228a6 6 0 0 1-6-6z" stroke="#3a414a" stroke-width="3" fill="#b8f5ed"/><use xlink:href="#s" transform="matrix(1,0,0,1,10790.566691485463,4776.082621450478) translate(63.3641975308642 31.02777777777778)"/><use xlink:href="#K" transform="matrix(1,0,0,1,10790.566691485463,4776.082621450478) translate(122.43827160493828 31.02777777777778)"/><path d="M10608.55 4791.5l-9.8 8.13-8.12 6.17-7.3 5.08-6.84 4.34-6.57 3.8-6.42 3.35-6.35 3-6.38 2.68-6.47 2.4-6.6 2.15-6.82 1.9-7.08 1.66-7.42 1.42-7.82 1.15-8.33.87-7.38.47-.18-3 7.3-.46 8.2-.85 7.7-1.13 7.3-1.4 6.96-1.62 6.7-1.87 6.5-2.1 6.34-2.37 6.26-2.64 6.25-2.94 6.3-3.3 6.46-3.72 6.73-4.27 7.2-5.02 8.02-6.1 7.9-6.55h4.6zm176.14-96.8l-8.07.18-8.8.55-8.2.86-7.7 1.12-7.28 1.4-6.96 1.63-6.7 1.86-6.5 2.12-6.35 2.36-6.26 2.64-6.26 2.94-6.3 3.3-6.46 3.72-6.73 4.28-7.2 5-8.03 6.1-9.68 8.04-15.23 13.8-13.73 12.8h-4.4l16.1-15.02 15.3-13.85 9.8-8.1 8.12-6.2 7.3-5.07 6.83-4.34 6.56-3.8 6.4-3.35 6.37-3 6.38-2.68 6.46-2.4 6.62-2.16 6.82-1.9 7.08-1.66 7.42-1.42 7.82-1.15 8.32-.86 8.93-.56 8.13-.17z" stroke="#3a414a" stroke-width=".05" fill="#3a414a"/><path d="M10786.16 4694.68l-1.5.03-.07-3 1.56-.02z" fill="#3a414a"/><path d="M10786.2 4694.7l-1.57.03-.07-3.04 1.63-.05zm-1.6-2.97l.07 2.95 1.47-.03v-2.95z" stroke="#3a414a" stroke-width=".05" fill="#3a414a"/><path d="M10497.77 4845.93l-13.17-7.17 12.63-8.1z" fill="#3a414a"/><path d="M10499.37 4848.5l-17.72-9.64 16.98-10.88zm-11.83-9.85l8.64 4.7-.36-10z" stroke="#3a414a" stroke-width=".05" fill="#3a414a"/><use xlink:href="#a" transform="matrix(1,0,0,1,10578.255525451239,4769.397769550789) translate(0 14.222222222222223)"/><path d="M10623.84 4828.7l-15.3 13.85-9.78 8.12-8.13 6.17-7.3 5.1-6.84 4.33-6.57 3.8-6.42 3.34-6.35 3-6.38 2.7-6.47 2.4-6.6 2.14-6.82 1.9-7.08 1.66-7.42 1.42-7.82 1.15-8.33.88-8.92.56-8.1.17-.07-3 8.05-.16 8.8-.55 8.2-.85 7.7-1.14 7.3-1.4 6.95-1.62 6.7-1.87 6.5-2.1 6.34-2.37 6.26-2.64 6.25-2.94 6.3-3.3 6.46-3.72 6.73-4.27 7.2-5 8.02-6.1 9.68-8.04 13.75-12.46h4.44zm151.3-82.7l-7.3.47-8.2.86-7.7 1.14-7.3 1.38-6.95 1.64-6.7 1.85-6.5 2.1-6.35 2.38-6.26 2.63-6.26 2.94-6.3 3.3-6.46 3.73-6.73 4.27-7.2 5-8.03 6.1-9.67 8.03-13.6 12.67h-4.4l16-14.92 9.8-8.12 8.14-6.18 7.3-5.08 6.83-4.34 6.56-3.8 6.4-3.35 6.37-2.98 6.38-2.7 6.46-2.4 6.62-2.14 6.82-1.9 7.08-1.66 7.42-1.4 7.82-1.17 8.32-.87 7.38-.46z" stroke="#3a414a" stroke-width=".05" fill="#3a414a"/><path d="M10483.23 4891.37l-1.57.03v-3l1.5-.03z" fill="#3a414a"/><path d="M10483.25 4891.4l-1.62.03v-3.05l1.56-.03zm-1.57-2.97v2.95l1.52-.03-.06-2.95z" stroke="#3a414a" stroke-width=".05" fill="#3a414a"/><path d="M10783.22 4744.32l-12.63 8.1-.56-15.26z" fill="#3a414a"/><path d="M10786.16 4744.22l-16.98 10.88-.73-20.52zm-14.17 5.52l8.27-5.3-8.64-4.7z" stroke="#3a414a" stroke-width=".05" fill="#3a414a"/><use xlink:href="#L" transform="matrix(1,0,0,1,10601.987148753871,4806.504308915635) translate(0 14.222222222222223)"/><path d="M10666.86 5015l8.4 8.25 7.25 6.52 6.56 5.42 6.1 4.63 5.84 4.06 5.63 3.56 5.52 3.2 5.47 2.85 5.44 2.57 5.5 2.3 5.54 2.07 5.65 1.84 5.8 1.62 6 1.4 6.24 1.2 6.5.96 6.86.72 4 .25-.2 3-4.05-.26-6.97-.74-6.64-.98-6.37-1.2-6.1-1.44-5.94-1.65-5.8-1.87-5.66-2.1-5.6-2.36-5.56-2.62-5.57-2.92-5.62-3.25-5.75-3.65-5.93-4.12-6.2-4.72-6.66-5.5-7.32-6.6-8.54-8.38-23.2-26.47h3.98zm-52.58-59.96l12.47 14.22h-4l-10.7-12.2-10.4-11.1h4.12zm-124.75-66.47l7.38.46 7 .73 6.63.98 6.35 1.2 6.12 1.45 5.93 1.64 5.78 1.88 5.68 2.1 5.6 2.36 5.56 2.62 5.57 2.9 5.64 3.27 5.74 3.64 5.93 4.14 6.23 4.72 6.64 5.5 6.08 5.48v4.1l-.8-.8-7.24-6.5-6.54-5.43-6.1-4.64-5.84-4.05-5.64-3.57-5.52-3.2-5.46-2.84-5.45-2.58-5.48-2.3-5.55-2.07-5.66-1.83-5.8-1.63-6-1.4-6.23-1.2-6.52-.96-6.84-.72-7.26-.46-6.27-.13.06-3z" stroke="#3a414a" stroke-width=".05" fill="#3a414a"/><path d="M10483.23 4888.44l-.06 3-1.5-.04v-3z" fill="#3a414a"/><path d="M10483.25 4888.4l-.06 3.06-1.57-.03v-3.05zm-1.57 2.98l1.46.03.06-2.94-1.52-.03z" stroke="#3a414a" stroke-width=".05" fill="#3a414a"/><path d="M10783.22 5070.17l-13.2 7.1.6-15.25z" fill="#3a414a"/><path d="M10786.16 5070.3l-17.76 9.54.84-20.5zm-14.55 4.4l8.67-4.65-8.25-5.34z" stroke="#3a414a" stroke-width=".05" fill="#3a414a"/><use xlink:href="#M" transform="matrix(1,0,0,1,10598.155424736336,4969.256060980505) translate(0 14.222222222222223)"/><path d="M10673.57 4979.54l7.42 7.27 6.6 5.98 6.12 5.06 5.78 4.4 5.54 3.84 5.4 3.42 5.28 3.06 5.24 2.74 5.23 2.46 5.25 2.2 5.32 2 5.42 1.76 5.54 1.54 5.72 1.34 5.93 1.14 6.17.9 6.48.7 6.84.42 5.8.12-.07 3-5.86-.13-6.97-.43-6.6-.7-6.3-.93-6.06-1.16-5.84-1.37-5.67-1.58-5.54-1.8-5.45-2.04-5.38-2.26-5.34-2.5-5.36-2.8-5.4-3.13-5.5-3.5-5.64-3.9-5.88-4.48-6.2-5.15-6.72-6.05-7.5-7.36-1.37-1.46v-4.4zm-21.24-23.85l11.67 13.56h-3.96l-10-11.64-9.54-11.67h3.88zM10496 4837.94l6.62.7 6.3.93 6.06 1.15 5.84 1.37 5.67 1.58 5.53 1.8 5.44 2.03 5.38 2.27 5.34 2.5 5.34 2.8 5.4 3.13 5.5 3.5 5.65 3.92 5.86 4.46 6.2 5.14 6.73 6.05 7.5 7.36 8.94 9.55 21.6 26.44h-3.87l-20-24.47-8.82-9.42-7.42-7.27-6.62-5.97-6.1-5.07-5.78-4.4-5.54-3.84-5.4-3.43-5.28-3.06-5.24-2.73-5.24-2.46-5.26-2.2-5.32-1.98-5.42-1.76-5.55-1.55-5.72-1.34-5.93-1.13-6.17-.9-6.5-.7-3.1-.18.2-3z" stroke="#3a414a" stroke-width=".05" fill="#3a414a"/><path d="M10786.16 5029.9v3l-1.57-.02.05-3z" fill="#3a414a"/><path d="M10786.2 5029.88v3.05l-1.64-.03.07-3.05zm-1.6 2.97l1.54.03v-2.95l-1.47-.03z" stroke="#3a414a" stroke-width=".05" fill="#3a414a"/><path d="M10497.16 4847.2l-12.56-8.2 13.23-7.06z" fill="#3a414a"/><path d="M10498.54 4849.9l-16.9-11.04 17.8-9.48zm-11-10.78l8.24 5.38.44-10z" stroke="#3a414a" stroke-width=".05" fill="#3a414a"/><use xlink:href="#a" transform="matrix(1,0,0,1,10593.353332535073,4924.620725650308) translate(0 14.222222222222223)"/><path d="M9381.15 4764.86a6 6 0 0 1 6-6h228a6 6 0 0 1 6 6v148a6 6 0 0 1-6 6h-228a6 6 0 0 1-6-6z" stroke="#3a414a" stroke-width="3" fill="#fff"/><use xlink:href="#q" transform="matrix(1,0,0,1,9389.153877658791,4766.86259544546) translate(61.53703703703704 62.77777777777778)"/><use xlink:href="#N" transform="matrix(1,0,0,1,9389.153877658791,4766.86259544546) translate(82.46296296296296 89.44444444444446)"/><path d="M9381.15 4924.86a6 6 0 0 1 6-6h228a6 6 0 0 1 6 6v46.1a6 6 0 0 1-6 5.98h-228a6 6 0 0 1-6-6z" stroke="#3a414a" stroke-width="3" fill="#b8f5ed"/><use xlink:href="#s" transform="matrix(1,0,0,1,9384.058021594656,4921.766739381324) translate(38.73456790123457 31.02777777777778)"/><use xlink:href="#H" transform="matrix(1,0,0,1,9384.058021594656,4921.766739381324) translate(97.80864197530863 31.02777777777778)"/><path d="M8931.4 4619.18a6 6 0 0 1 6-6h228a6 6 0 0 1 6 6v148a6 6 0 0 1-6 6h-228a6 6 0 0 1-6-6z" stroke="#3a414a" stroke-width="3" fill="#fff"/><g><use xlink:href="#I" transform="matrix(1,0,0,1,8939.409787893908,4621.178477514613) translate(29.40740740740742 62.77777777777778)"/><use xlink:href="#O" transform="matrix(1,0,0,1,8939.409787893908,4621.178477514613) translate(83.08024691358025 89.44444444444446)"/></g><path d="M8931.4 4779.18a6 6 0 0 1 6-6h228a6 6 0 0 1 6 6v46.08a6 6 0 0 1-6 6h-228a6 6 0 0 1-6-6z" stroke="#3a414a" stroke-width="3" fill="#b8f5ed"/><g><use xlink:href="#s" transform="matrix(1,0,0,1,8934.313931829773,4776.082621450478) translate(63.3641975308642 31.02777777777778)"/><use xlink:href="#K" transform="matrix(1,0,0,1,8934.313931829773,4776.082621450478) translate(122.43827160493828 31.02777777777778)"/></g><path d="M9309.26 4804.08l4.4 4.3 4.04 3.66 3.8 3.14 3.63 2.76 3.5 2.44 3.42 2.17 3.37 1.94 3.33 1.73 3.33 1.57 3.34 1.4 3.38 1.26 3.43 1.1 3.5 1 3.6.84 3.72.7 3.86.58 1.82.2-.3 2.97-1.88-.2-4-.6-3.83-.72-3.7-.87-3.64-1-3.55-1.17-3.48-1.3-3.46-1.46-3.44-1.62-3.45-1.8-3.47-2-3.53-2.24-3.6-2.5-3.73-2.85-3.9-3.22-4.14-3.72-3.44-3.38v-4.3zm-10.8-12.08l3.05 3.55h-3.95l-1.44-1.67-27.72-37.2h3.74zm-120.95-100.23l4.37.28 4.16.43 3.98.6 3.85.72 3.73.88 3.62 1 3.55 1.16 3.5 1.3 3.45 1.46 3.44 1.62 3.45 1.8 3.46 2 3.53 2.24 3.6 2.5 3.73 2.84 3.9 3.23 4.13 3.73 4.5 4.4 5.02 5.36 5.18 6h-3.96l-3.45-4-4.94-5.26-4.4-4.3-4.04-3.66-3.8-3.15-3.63-2.75-3.5-2.44-3.42-2.17-3.35-1.95-3.34-1.75-3.32-1.56-3.34-1.4-3.38-1.26-3.43-1.12-3.5-.98-3.6-.84-3.72-.7-3.85-.58-4.03-.42-4.23-.27-3.02-.06.06-3z" stroke="#3a414a" stroke-width=".05" fill="#3a414a"/><path d="M9174.48 4691.7l-.06 3-1.5-.02v-3z" fill="#3a414a"/><path d="M9174.5 4691.7l-.06 3.04-1.56-.04v-3.05zm-1.57 2.95l1.47.04.06-2.97-1.52-.03z" stroke="#3a414a" stroke-width=".05" fill="#3a414a"/><path d="M9376.7 4836.74l-13.42 6.68 1.1-15.23z" fill="#3a414a"/><path d="M9379.65 4836.96l-18.06 8.97 1.5-20.47zm-14.68 3.95l8.8-4.37-8.07-5.6z" stroke="#3a414a" stroke-width=".05" fill="#3a414a"/><g><use xlink:href="#a" transform="matrix(1,0,0,1,9221.866272248228,4735.332660943094) translate(0 14.222222222222223)"/></g><path d="M9290.35 4822.78l8.08 10.24 5.9 6.83 4.93 5.27 4.4 4.3 4.04 3.66 3.8 3.14 3.63 2.76 3.5 2.44 3.43 2.17 3.36 1.93 3.33 1.74 3.33 1.57 3.34 1.4 3.38 1.26 3.43 1.12 3.5.98 3.6.84 3.72.7 3.86.58 4.04.42 4.24.27 3 .07-.06 3-3.07-.07-4.36-.27-4.16-.44-4-.6-3.83-.73-3.7-.87-3.64-1-3.55-1.16-3.48-1.3-3.46-1.46-3.44-1.62-3.45-1.8-3.47-2-3.53-2.24-3.6-2.5-3.73-2.85-3.9-3.22-4.14-3.73-4.5-4.4-5.02-5.36-5.96-6.93-8.15-10.32-5.76-7.7h3.75zm-53.52-65.9l4.13 3.72 4.5 4.4 5.02 5.36 5.98 6.94 13.6 18.25h-3.74l-12.2-16.37-5.87-6.8-4.94-5.28-4.4-4.3-4.04-3.66-3-2.47h4.72zm-50.8-23.36l3.98.6 3.85.73 3.73.87 3.62 1 3.55 1.16 3.5 1.3 3.45 1.46 3.44 1.62 3.45 1.8 3.27 1.9v3.53l-1.36-.87-3.35-1.94-3.34-1.76-3.32-1.56-3.34-1.4-3.38-1.26-3.43-1.12-3.5-.98-3.6-.84-3.72-.7-3.85-.58-1.8-.2.3-2.97z" stroke="#3a414a" stroke-width=".05" fill="#3a414a"/><path d="M9379.65 4876.5v3l-1.57-.03.06-3z" fill="#3a414a"/><path d="M9379.68 4876.48v3.05l-1.62-.04.06-3.06zm-1.57 2.96l1.53.04v-2.96l-1.46-.03z" stroke="#3a414a" stroke-width=".05" fill="#3a414a"/><path d="M9188.17 4743l-12.32-8.56 13.43-6.68z" fill="#3a414a"/><path d="M9189.47 4745.72l-16.56-11.5 18.07-8.97zm-10.68-11.07l8.07 5.6.72-9.98z" stroke="#3a414a" stroke-width=".05" fill="#3a414a"/><g><use xlink:href="#L" transform="matrix(1,0,0,1,9244.110368216532,4795.553959611937) translate(0 14.222222222222223)"/></g><path d="M9256.33 5022.65l-6.54 10.8-5.3 8-4.6 6.33-4.12 5.2-3.8 4.4-3.52 3.77-3.33 3.26-3.18 2.88-3.06 2.53-2.97 2.26-2.88 2-2.82 1.8-2.78 1.6-2.75 1.43-2.73 1.28-2.73 1.14-2.73 1.02-2.74.9-2.8.77-2.8.68-2.9.55-1.07.16-.44-2.98 1-.15 2.76-.53 2.7-.63 2.67-.74 2.62-.85 2.62-.97 2.6-1.1 2.63-1.23 2.63-1.37 2.67-1.55 2.72-1.72 2.77-1.93 2.86-2.17 2.96-2.45 3.07-2.77 3.25-3.18 3.44-3.68 3.7-4.3 4.05-5.1 4.53-6.23 5.23-7.88 6.45-10.68 24.7-47.65h3.4zm36.7-70.45h-3.4l3.83-7.02h3.42zm85.15-72.67l-1.65.03-3 .2-2.9.3-2.83.42-2.76.52-2.7.64-2.67.74-2.63.85-2.62.98-2.6 1.1-2.62 1.24-2.64 1.38-2.67 1.54-2.73 1.73-2.77 1.92-2.86 2.17-2.96 2.44-3.1 2.78-3.23 3.18-3.45 3.67-3.7 4.3-4.05 5.1-4.52 6.23-.56.85h-3.6l1.7-2.56 4.6-6.34 4.1-5.2 3.8-4.4 3.53-3.76 3.34-3.27 3.18-2.86 3.05-2.53 2.96-2.25 2.88-2 2.83-1.8 2.78-1.6 2.76-1.45 2.73-1.28 2.72-1.15 2.74-1.02 2.75-.9 2.8-.77 2.82-.66 2.88-.55 2.95-.44 3.03-.32 3.13-.2 1.72-.03z" stroke="#3a414a" stroke-width=".05" fill="#3a414a"/><path d="M9379.65 4879.5l-1.5.03-.07-3 1.57-.03z" fill="#3a414a"/><path d="M9379.68 4879.52l-1.56.04-.06-3.05 1.62-.03zm-1.57-2.96l.07 2.95 1.46-.02v-2.95z" stroke="#3a414a" stroke-width=".05" fill="#3a414a"/><path d="M9189.46 5090.72l-13.62-6.28 12.07-8.9z" fill="#3a414a"/><path d="M9191.23 5093.18l-18.32-8.44 16.23-11.98zm-12.46-9.04l8.93 4.12-1.02-9.96z" stroke="#3a414a" stroke-width=".05" fill="#3a414a"/><g><use xlink:href="#M" transform="matrix(1,0,0,1,9249.675757397354,4952.196180510982) translate(0 14.222222222222223)"/></g><path d="M9255.1 4974.54l-6.08 9.18-5.06 6.97-4.45 5.62-4.03 4.68-3.74 3.98-3.5 3.45-3.35 3-3.2 2.67-3.12 2.35-3.02 2.1-2.96 1.9-2.92 1.67-2.9 1.5-2.87 1.37-2.9 1.2-2.88 1.07-2.9.95-2.97.82-3 .7-3.07.6-3.15.46-3.25.34-3.37.2-1.96.05-.06-3 1.9-.05 3.25-.2 3.12-.33 3.03-.44 2.95-.57 2.88-.66 2.84-.8 2.8-.9 2.77-1.03 2.77-1.15 2.76-1.3 2.78-1.46 2.82-1.63 2.86-1.8 2.92-2.04 3-2.28 3.1-2.58 3.26-2.93 3.43-3.35 3.64-3.9 3.96-4.6 4.37-5.52 4.98-6.87 5.63-8.47h3.53zm13.14-22.34h-3.44l3.95-7.02h3.45zm100.56-111.07l-1.92.28-2.94.57-2.9.68-2.82.8-2.8.9-2.76 1.03-2.77 1.16-2.77 1.3-2.78 1.46-2.8 1.62-2.86 1.8-2.93 2.04-3 2.28-3.12 2.58-3.25 2.93-3.42 3.35-3.66 3.9-3.95 4.58-4.37 5.53-5 6.88-6 9.05-15.78 28.02h-3.44l16.67-29.6 6.1-9.18 5.05-6.98 4.45-5.63 4.04-4.68 3.73-4 3.52-3.44 3.34-3 3.2-2.67 3.1-2.36 3.02-2.1 2.97-1.9 2.9-1.67 2.9-1.52 2.87-1.35 2.88-1.2 2.9-1.08 2.9-.95 2.96-.83 3-.7 3.08-.6 1.98-.28z" stroke="#3a414a" stroke-width=".05" fill="#3a414a"/><path d="M9174.48 5031.4l-1.57.03v-3l1.52-.04z" fill="#3a414a"/><path d="M9174.5 5031.42l-1.6.03v-3.05l1.54-.03zm-1.57-2.97v2.95l1.53-.03-.06-2.95z" stroke="#3a414a" stroke-width=".05" fill="#3a414a"/><path d="M9376.72 4839.14l-12.12 8.84-1.46-15.2z" fill="#3a414a"/><path d="M9379.65 4838.86l-16.3 11.88-1.95-20.44zm-13.8 6.36l7.94-5.8-8.92-4.17z" stroke="#3a414a" stroke-width=".05" fill="#3a414a"/><g><use xlink:href="#a" transform="matrix(1,0,0,1,9236.117925459655,4923.846249627198) translate(0 14.222222222222223)"/></g><defs><path fill="#333" d="M24-248c120-7 223 5 221 122C244-46 201 0 124 0H24v-248zM76-40c74 7 117-18 117-86 0-67-45-88-117-82v168" id="P"/><path fill="#333" d="M185-48c-13 30-37 53-82 52C43 2 14-33 14-96s30-98 90-98c62 0 83 45 84 108H66c0 31 8 55 39 56 18 0 30-7 34-22zm-45-69c5-46-57-63-70-21-2 6-4 13-4 21h74" id="Q"/><path fill="#333" d="M135-194c53 0 70 44 70 98 0 56-19 98-73 100-31 1-45-17-59-34 3 33 2 69 2 105H25l-1-265h48c2 10 0 23 3 31 11-24 29-35 60-35zM114-30c33 0 39-31 40-66 0-38-9-64-40-64-56 0-55 130 0 130" id="R"/><path fill="#333" d="M25-224v-37h50v37H25zM25 0v-190h50V0H25" id="S"/><path fill="#333" d="M190-63c-7 42-38 67-86 67-59 0-84-38-90-98-12-110 154-137 174-36l-49 2c-2-19-15-32-35-32-30 0-35 28-38 64-6 74 65 87 74 30" id="T"/><path fill="#333" d="M115-3C79 11 28 4 28-45v-112H4v-33h27l15-45h31v45h36v33H77v99c-1 23 16 31 38 25v30" id="U"/><path fill="#333" d="M110-194c64 0 96 36 96 99 0 64-35 99-97 99-61 0-95-36-95-99 0-62 34-99 96-99zm-1 164c35 0 45-28 45-65 0-40-10-65-43-65-34 0-45 26-45 65 0 36 10 65 43 65" id="V"/><path fill="#333" d="M135-194c87-1 58 113 63 194h-50c-7-57 23-157-34-157-59 0-34 97-39 157H25l-1-190h47c2 12-1 28 3 38 12-26 28-41 61-42" id="W"/><g id="a"><use transform="matrix(0.04938271604938272,0,0,0.04938271604938272,0,0)" xlink:href="#P"/><use transform="matrix(0.04938271604938272,0,0,0.04938271604938272,12.790123456790125,0)" xlink:href="#Q"/><use transform="matrix(0.04938271604938272,0,0,0.04938271604938272,22.66666666666667,0)" xlink:href="#R"/><use transform="matrix(0.04938271604938272,0,0,0.04938271604938272,33.48148148148149,0)" xlink:href="#S"/><use transform="matrix(0.04938271604938272,0,0,0.04938271604938272,38.41975308641976,0)" xlink:href="#T"/><use transform="matrix(0.04938271604938272,0,0,0.04938271604938272,48.296296296296305,0)" xlink:href="#U"/><use transform="matrix(0.04938271604938272,0,0,0.04938271604938272,54.17283950617284,0)" xlink:href="#S"/><use transform="matrix(0.04938271604938272,0,0,0.04938271604938272,59.111111111111114,0)" xlink:href="#V"/><use transform="matrix(0.04938271604938272,0,0,0.04938271604938272,69.92592592592594,0)" xlink:href="#W"/></g><path fill="#333" d="M135-150c-39-12-60 13-60 57V0H25l-1-190h47c2 13-1 29 3 40 6-28 27-53 61-41v41" id="X"/><g id="b"><use transform="matrix(0.04938271604938272,0,0,0.04938271604938272,0,0)" xlink:href="#P"/><use transform="matrix(0.04938271604938272,0,0,0.04938271604938272,12.790123456790125,0)" xlink:href="#S"/><use transform="matrix(0.04938271604938272,0,0,0.04938271604938272,17.7283950617284,0)" xlink:href="#R"/><use transform="matrix(0.04938271604938272,0,0,0.04938271604938272,28.54320987654322,0)" xlink:href="#S"/><use transform="matrix(0.04938271604938272,0,0,0.04938271604938272,33.48148148148149,0)" xlink:href="#T"/><use transform="matrix(0.04938271604938272,0,0,0.04938271604938272,43.35802469135803,0)" xlink:href="#U"/><use transform="matrix(0.04938271604938272,0,0,0.04938271604938272,49.23456790123458,0)" xlink:href="#V"/><use transform="matrix(0.04938271604938272,0,0,0.04938271604938272,60.0493827160494,0)" xlink:href="#X"/></g><path fill="#333" d="M137-138c1-29-70-34-71-4 15 46 118 7 119 86 1 83-164 76-172 9l43-7c4 19 20 25 44 25 33 8 57-30 24-41C81-84 22-81 20-136c-2-80 154-74 161-7" id="Y"/><g id="c"><use transform="matrix(0.04938271604938272,0,0,0.04938271604938272,0,0)" xlink:href="#P"/><use transform="matrix(0.04938271604938272,0,0,0.04938271604938272,12.790123456790125,0)" xlink:href="#S"/><use transform="matrix(0.04938271604938272,0,0,0.04938271604938272,17.7283950617284,0)" xlink:href="#R"/><use transform="matrix(0.04938271604938272,0,0,0.04938271604938272,28.54320987654322,0)" xlink:href="#S"/><use transform="matrix(0.04938271604938272,0,0,0.04938271604938272,33.48148148148149,0)" xlink:href="#T"/><use transform="matrix(0.04938271604938272,0,0,0.04938271604938272,43.35802469135803,0)" xlink:href="#U"/><use transform="matrix(0.04938271604938272,0,0,0.04938271604938272,49.23456790123458,0)" xlink:href="#Y"/></g><path fill="#3a414a" d="M67-125c0 53 21 87 73 88 37 1 54-22 65-47l45 17C233-25 199 4 140 4 58 4 20-42 15-125 8-235 124-281 211-232c18 10 29 29 36 50l-46 12c-8-25-30-41-62-41-52 0-71 34-72 86" id="Z"/><path fill="#3a414a" d="M110-194c64 0 96 36 96 99 0 64-35 99-97 99-61 0-95-36-95-99 0-62 34-99 96-99zm-1 164c35 0 45-28 45-65 0-40-10-65-43-65-34 0-45 26-45 65 0 36 10 65 43 65" id="aa"/><path fill="#3a414a" d="M135-194c87-1 58 113 63 194h-50c-7-57 23-157-34-157-59 0-34 97-39 157H25l-1-190h47c2 12-1 28 3 38 12-26 28-41 61-42" id="ab"/><path fill="#3a414a" d="M115-3C79 11 28 4 28-45v-112H4v-33h27l15-45h31v45h36v33H77v99c-1 23 16 31 38 25v30" id="ac"/><path fill="#3a414a" d="M185-48c-13 30-37 53-82 52C43 2 14-33 14-96s30-98 90-98c62 0 83 45 84 108H66c0 31 8 55 39 56 18 0 30-7 34-22zm-45-69c5-46-57-63-70-21-2 6-4 13-4 21h74" id="ad"/><path fill="#3a414a" d="M144 0l-44-69L55 0H2l70-98-66-92h53l41 62 40-62h54l-67 91 71 99h-54" id="ae"/><g id="d"><use transform="matrix(0.06172839506172839,0,0,0.06172839506172839,0,0)" xlink:href="#Z"/><use transform="matrix(0.06172839506172839,0,0,0.06172839506172839,15.987654320987653,0)" xlink:href="#aa"/><use transform="matrix(0.06172839506172839,0,0,0.06172839506172839,29.50617283950617,0)" xlink:href="#ab"/><use transform="matrix(0.06172839506172839,0,0,0.06172839506172839,43.02469135802469,0)" xlink:href="#ac"/><use transform="matrix(0.06172839506172839,0,0,0.06172839506172839,50.37037037037037,0)" xlink:href="#ad"/><use transform="matrix(0.06172839506172839,0,0,0.06172839506172839,62.716049382716044,0)" xlink:href="#ae"/><use transform="matrix(0.06172839506172839,0,0,0.06172839506172839,75.06172839506172,0)" xlink:href="#ac"/></g><path fill="#3a414a" d="M88-194c31-1 46 15 58 34l-1-101h50l1 261h-48c-2-10 0-23-3-31C134-8 116 4 84 4 32 4 16-41 15-95c0-56 19-97 73-99zm17 164c33 0 40-30 41-66 1-37-9-64-41-64s-38 30-39 65c0 43 13 65 39 65" id="af"/><path fill="#3a414a" d="M135-194c53 0 70 44 70 98 0 56-19 98-73 100-31 1-45-17-59-34 3 33 2 69 2 105H25l-1-265h48c2 10 0 23 3 31 11-24 29-35 60-35zM114-30c33 0 39-31 40-66 0-38-9-64-40-64-56 0-55 130 0 130" id="ag"/><path fill="#3a414a" d="M14-72v-43h91v43H14" id="ah"/><path fill="#3a414a" d="M23 0v-37h61v-169l-59 37v-38l62-41h46v211h57V0H23" id="ai"/><path fill="#3a414a" d="M182-182c0 78-84 86-111 141h115V0H12c-6-101 99-100 120-180 1-22-12-31-33-32-23 0-32 14-35 34l-49-3c5-45 32-70 84-70 51 0 83 22 83 69" id="aj"/><path fill="#3a414a" d="M4 7l51-268h42L46 7H4" id="ak"/><path fill="#3a414a" d="M137-138c1-29-70-34-71-4 15 46 118 7 119 86 1 83-164 76-172 9l43-7c4 19 20 25 44 25 33 8 57-30 24-41C81-84 22-81 20-136c-2-80 154-74 161-7" id="al"/><path fill="#3a414a" d="M190-63c-7 42-38 67-86 67-59 0-84-38-90-98-12-110 154-137 174-36l-49 2c-2-19-15-32-35-32-30 0-35 28-38 64-6 74 65 87 74 30" id="am"/><path fill="#3a414a" d="M101-251c68 0 84 54 84 127C185-50 166 4 99 4S15-52 14-124c-1-75 17-127 87-127zm-1 216c37-5 36-46 36-89s4-89-36-89c-39 0-36 45-36 89 0 43-3 85 36 89" id="an"/><g id="e"><use transform="matrix(0.06172839506172839,0,0,0.06172839506172839,0,0)" xlink:href="#af"/><use transform="matrix(0.06172839506172839,0,0,0.06172839506172839,13.518518518518517,0)" xlink:href="#ag"/><use transform="matrix(0.06172839506172839,0,0,0.06172839506172839,27.037037037037035,0)" xlink:href="#ah"/><use transform="matrix(0.06172839506172839,0,0,0.06172839506172839,34.382716049382715,0)" xlink:href="#ai"/><use transform="matrix(0.06172839506172839,0,0,0.06172839506172839,46.72839506172839,0)" xlink:href="#aj"/><use transform="matrix(0.06172839506172839,0,0,0.06172839506172839,59.07407407407407,0)" xlink:href="#ak"/><use transform="matrix(0.06172839506172839,0,0,0.06172839506172839,65.24691358024691,0)" xlink:href="#al"/><use transform="matrix(0.06172839506172839,0,0,0.06172839506172839,77.5925925925926,0)" xlink:href="#am"/><use transform="matrix(0.06172839506172839,0,0,0.06172839506172839,89.93827160493828,0)" xlink:href="#ah"/><use transform="matrix(0.06172839506172839,0,0,0.06172839506172839,97.28395061728396,0)" xlink:href="#ai"/><use transform="matrix(0.06172839506172839,0,0,0.06172839506172839,109.62962962962965,0)" xlink:href="#an"/></g><path fill="#333" d="M114-157C55-157 80-60 75 0H25v-261h50l-1 109c12-26 28-41 61-42 86-1 58 113 63 194h-50c-7-57 23-157-34-157" id="ao"/><path fill="#333" d="M133-34C117-15 103 5 69 4 32 3 11-16 11-54c-1-60 55-63 116-61 1-26-3-47-28-47-18 1-26 9-28 27l-52-2c7-38 36-58 82-57s74 22 75 68l1 82c-1 14 12 18 25 15v27c-30 8-71 5-69-32zm-48 3c29 0 43-24 42-57-32 0-66-3-65 30 0 17 8 27 23 27" id="ap"/><g id="f"><use transform="matrix(0.04938271604938272,0,0,0.04938271604938272,0,0)" xlink:href="#ao"/><use transform="matrix(0.04938271604938272,0,0,0.04938271604938272,10.814814814814815,0)" xlink:href="#ap"/><use transform="matrix(0.04938271604938272,0,0,0.04938271604938272,20.69135802469136,0)" xlink:href="#Y"/></g><path fill="#333" d="M85 4C-2 5 27-109 22-190h50c7 57-23 150 33 157 60-5 35-97 40-157h50l1 190h-47c-2-12 1-28-3-38-12 25-28 42-61 42" id="aq"/><g id="g"><use transform="matrix(0.04938271604938272,0,0,0.04938271604938272,0,0)" xlink:href="#aq"/><use transform="matrix(0.04938271604938272,0,0,0.04938271604938272,10.814814814814815,0)" xlink:href="#Y"/><use transform="matrix(0.04938271604938272,0,0,0.04938271604938272,20.69135802469136,0)" xlink:href="#Q"/><use transform="matrix(0.04938271604938272,0,0,0.04938271604938272,30.567901234567906,0)" xlink:href="#Y"/></g><path fill="#3a414a" d="M133-34C117-15 103 5 69 4 32 3 11-16 11-54c-1-60 55-63 116-61 1-26-3-47-28-47-18 1-26 9-28 27l-52-2c7-38 36-58 82-57s74 22 75 68l1 82c-1 14 12 18 25 15v27c-30 8-71 5-69-32zm-48 3c29 0 43-24 42-57-32 0-66-3-65 30 0 17 8 27 23 27" id="ar"/><g id="h"><use transform="matrix(0.06172839506172839,0,0,0.06172839506172839,0,0)" xlink:href="#af"/><use transform="matrix(0.06172839506172839,0,0,0.06172839506172839,13.518518518518517,0)" xlink:href="#ag"/><use transform="matrix(0.06172839506172839,0,0,0.06172839506172839,27.037037037037035,0)" xlink:href="#ah"/><use transform="matrix(0.06172839506172839,0,0,0.06172839506172839,34.382716049382715,0)" xlink:href="#ai"/><use transform="matrix(0.06172839506172839,0,0,0.06172839506172839,46.72839506172839,0)" xlink:href="#aj"/><use transform="matrix(0.06172839506172839,0,0,0.06172839506172839,59.07407407407407,0)" xlink:href="#ak"/><use transform="matrix(0.06172839506172839,0,0,0.06172839506172839,65.24691358024691,0)" xlink:href="#ar"/><use transform="matrix(0.06172839506172839,0,0,0.06172839506172839,77.5925925925926,0)" xlink:href="#al"/><use transform="matrix(0.06172839506172839,0,0,0.06172839506172839,89.93827160493828,0)" xlink:href="#ac"/><use transform="matrix(0.06172839506172839,0,0,0.06172839506172839,97.28395061728396,0)" xlink:href="#ah"/><use transform="matrix(0.06172839506172839,0,0,0.06172839506172839,104.62962962962965,0)" xlink:href="#ai"/><use transform="matrix(0.06172839506172839,0,0,0.06172839506172839,115.74074074074076,0)" xlink:href="#ai"/></g><path fill="#3a414a" d="M199 0l-22-63H83L61 0H9l90-248h61L250 0h-51zm-33-102l-36-108c-10 38-24 72-36 108h72" id="as"/><g id="i"><use transform="matrix(0.06172839506172839,0,0,0.06172839506172839,0,0)" xlink:href="#as"/><use transform="matrix(0.06172839506172839,0,0,0.06172839506172839,15.987654320987653,0)" xlink:href="#al"/><use transform="matrix(0.06172839506172839,0,0,0.06172839506172839,28.333333333333332,0)" xlink:href="#al"/><use transform="matrix(0.06172839506172839,0,0,0.06172839506172839,40.67901234567901,0)" xlink:href="#ad"/><use transform="matrix(0.06172839506172839,0,0,0.06172839506172839,53.02469135802469,0)" xlink:href="#ac"/></g><g id="j"><use transform="matrix(0.06172839506172839,0,0,0.06172839506172839,0,0)" xlink:href="#ar"/><use transform="matrix(0.06172839506172839,0,0,0.06172839506172839,12.345679012345679,0)" xlink:href="#al"/><use transform="matrix(0.06172839506172839,0,0,0.06172839506172839,24.691358024691358,0)" xlink:href="#ac"/><use transform="matrix(0.06172839506172839,0,0,0.06172839506172839,32.03703703703704,0)" xlink:href="#ah"/><use transform="matrix(0.06172839506172839,0,0,0.06172839506172839,39.382716049382715,0)" xlink:href="#ai"/><use transform="matrix(0.06172839506172839,0,0,0.06172839506172839,51.72839506172839,0)" xlink:href="#an"/></g><path fill="#3a414a" d="M135-150c-39-12-60 13-60 57V0H25l-1-190h47c2 13-1 29 3 40 6-28 27-53 61-41v41" id="at"/><path fill="#3a414a" d="M85 4C-2 5 27-109 22-190h50c7 57-23 150 33 157 60-5 35-97 40-157h50l1 190h-47c-2-12 1-28-3-38-12 25-28 42-61 42" id="au"/><path fill="#3a414a" d="M136-208V0H84v-208H4v-40h212v40h-80" id="av"/><path fill="#3a414a" d="M123 10C108 53 80 86 19 72V37c35 8 53-11 59-39L3-190h52l48 148c12-52 28-100 44-148h51" id="aw"/><path fill="#3a414a" d="M35-132v-50h50v50H35zM35 0v-49h50V0H35" id="ax"/><g id="k"><use transform="matrix(0.06172839506172839,0,0,0.06172839506172839,0,0)" xlink:href="#al"/><use transform="matrix(0.06172839506172839,0,0,0.06172839506172839,12.345679012345679,0)" xlink:href="#ac"/><use transform="matrix(0.06172839506172839,0,0,0.06172839506172839,19.691358024691358,0)" xlink:href="#at"/><use transform="matrix(0.06172839506172839,0,0,0.06172839506172839,28.333333333333332,0)" xlink:href="#au"/><use transform="matrix(0.06172839506172839,0,0,0.06172839506172839,41.85185185185185,0)" xlink:href="#am"/><use transform="matrix(0.06172839506172839,0,0,0.06172839506172839,54.197530864197525,0)" xlink:href="#av"/><use transform="matrix(0.06172839506172839,0,0,0.06172839506172839,66.04938271604938,0)" xlink:href="#aw"/><use transform="matrix(0.06172839506172839,0,0,0.06172839506172839,78.39506172839506,0)" xlink:href="#ag"/><use transform="matrix(0.06172839506172839,0,0,0.06172839506172839,91.91358024691358,0)" xlink:href="#ad"/><use transform="matrix(0.06172839506172839,0,0,0.06172839506172839,104.25925925925927,0)" xlink:href="#ax"/></g><path fill="#3a414a" d="M25-224v-37h50v37H25zM25 0v-190h50V0H25" id="ay"/><path fill="#3a414a" d="M195-6C206 82 75 100 31 46c-4-6-6-13-8-21l49-6c3 16 16 24 34 25 40 0 42-37 40-79-11 22-30 35-61 35-53 0-70-43-70-97 0-56 18-96 73-97 30 0 46 14 59 34l2-30h47zm-90-29c32 0 41-27 41-63 0-35-9-62-40-62-32 0-39 29-40 63 0 36 9 62 39 62" id="az"/><path fill="#3a414a" d="M25 0v-261h50V0H25" id="aA"/><path fill="#3a414a" d="M24 0v-54h51V0H24" id="aB"/><g id="l"><use transform="matrix(0.06172839506172839,0,0,0.06172839506172839,0,0)" xlink:href="#af"/><use transform="matrix(0.06172839506172839,0,0,0.06172839506172839,13.518518518518517,0)" xlink:href="#ay"/><use transform="matrix(0.06172839506172839,0,0,0.06172839506172839,19.691358024691358,0)" xlink:href="#az"/><use transform="matrix(0.06172839506172839,0,0,0.06172839506172839,33.20987654320987,0)" xlink:href="#ay"/><use transform="matrix(0.06172839506172839,0,0,0.06172839506172839,39.382716049382715,0)" xlink:href="#ac"/><use transform="matrix(0.06172839506172839,0,0,0.06172839506172839,46.72839506172839,0)" xlink:href="#ar"/><use transform="matrix(0.06172839506172839,0,0,0.06172839506172839,59.07407407407407,0)" xlink:href="#aA"/><use transform="matrix(0.06172839506172839,0,0,0.06172839506172839,65.24691358024691,0)" xlink:href="#aB"/><use transform="matrix(0.06172839506172839,0,0,0.06172839506172839,71.41975308641975,0)" xlink:href="#am"/><use transform="matrix(0.06172839506172839,0,0,0.06172839506172839,83.76543209876543,0)" xlink:href="#az"/><use transform="matrix(0.06172839506172839,0,0,0.06172839506172839,97.28395061728395,0)" xlink:href="#ay"/></g><path fill="#3a414a" d="M121-226c-27-7-43 5-38 36h38v33H83V0H34v-157H6v-33h28c-9-59 32-81 87-68v32" id="aC"/><g id="m"><use transform="matrix(0.06172839506172839,0,0,0.06172839506172839,0,0)" xlink:href="#aC"/><use transform="matrix(0.06172839506172839,0,0,0.06172839506172839,7.345679012345679,0)" xlink:href="#au"/><use transform="matrix(0.06172839506172839,0,0,0.06172839506172839,20.864197530864196,0)" xlink:href="#ab"/><use transform="matrix(0.06172839506172839,0,0,0.06172839506172839,34.382716049382715,0)" xlink:href="#am"/><use transform="matrix(0.06172839506172839,0,0,0.06172839506172839,46.72839506172839,0)" xlink:href="#av"/><use transform="matrix(0.06172839506172839,0,0,0.06172839506172839,58.58024691358025,0)" xlink:href="#aw"/><use transform="matrix(0.06172839506172839,0,0,0.06172839506172839,70.92592592592592,0)" xlink:href="#ag"/><use transform="matrix(0.06172839506172839,0,0,0.06172839506172839,84.44444444444444,0)" xlink:href="#ad"/><use transform="matrix(0.06172839506172839,0,0,0.06172839506172839,96.79012345679013,0)" xlink:href="#ax"/></g><g id="n"><use transform="matrix(0.06172839506172839,0,0,0.06172839506172839,0,0)" xlink:href="#ag"/><use transform="matrix(0.06172839506172839,0,0,0.06172839506172839,13.518518518518517,0)" xlink:href="#at"/><use transform="matrix(0.06172839506172839,0,0,0.06172839506172839,22.160493827160494,0)" xlink:href="#aa"/><use transform="matrix(0.06172839506172839,0,0,0.06172839506172839,35.67901234567901,0)" xlink:href="#ag"/></g><g id="o"><use transform="matrix(0.06172839506172839,0,0,0.06172839506172839,0,0)" xlink:href="#ar"/><use transform="matrix(0.06172839506172839,0,0,0.06172839506172839,12.345679012345679,0)" xlink:href="#al"/><use transform="matrix(0.06172839506172839,0,0,0.06172839506172839,24.691358024691358,0)" xlink:href="#ac"/><use transform="matrix(0.06172839506172839,0,0,0.06172839506172839,32.03703703703704,0)" xlink:href="#ah"/><use transform="matrix(0.06172839506172839,0,0,0.06172839506172839,39.382716049382715,0)" xlink:href="#ai"/><use transform="matrix(0.06172839506172839,0,0,0.06172839506172839,50.49382716049382,0)" xlink:href="#ai"/></g><g id="p"><use transform="matrix(0.06172839506172839,0,0,0.06172839506172839,0,0)" xlink:href="#al"/><use transform="matrix(0.06172839506172839,0,0,0.06172839506172839,12.345679012345679,0)" xlink:href="#ac"/><use transform="matrix(0.06172839506172839,0,0,0.06172839506172839,19.691358024691358,0)" xlink:href="#at"/><use transform="matrix(0.06172839506172839,0,0,0.06172839506172839,28.333333333333332,0)" xlink:href="#au"/><use transform="matrix(0.06172839506172839,0,0,0.06172839506172839,41.85185185185185,0)" xlink:href="#am"/><use transform="matrix(0.06172839506172839,0,0,0.06172839506172839,54.197530864197525,0)" xlink:href="#ac"/><use transform="matrix(0.06172839506172839,0,0,0.06172839506172839,61.5432098765432,0)" xlink:href="#av"/><use transform="matrix(0.06172839506172839,0,0,0.06172839506172839,75.06172839506172,0)" xlink:href="#ag"/><use transform="matrix(0.06172839506172839,0,0,0.06172839506172839,88.58024691358024,0)" xlink:href="#ad"/><use transform="matrix(0.06172839506172839,0,0,0.06172839506172839,100.92592592592592,0)" xlink:href="#ax"/></g><path fill="#3a414a" d="M24-248c120-7 223 5 221 122C244-46 201 0 124 0H24v-248zM76-40c74 7 117-18 117-86 0-67-45-88-117-82v168" id="aD"/><g id="q"><use transform="matrix(0.06172839506172839,0,0,0.06172839506172839,0,0)" xlink:href="#aD"/><use transform="matrix(0.06172839506172839,0,0,0.06172839506172839,15.987654320987653,0)" xlink:href="#ad"/><use transform="matrix(0.06172839506172839,0,0,0.06172839506172839,28.333333333333332,0)" xlink:href="#ag"/><use transform="matrix(0.06172839506172839,0,0,0.06172839506172839,41.85185185185185,0)" xlink:href="#ay"/><use transform="matrix(0.06172839506172839,0,0,0.06172839506172839,48.02469135802469,0)" xlink:href="#am"/><use transform="matrix(0.06172839506172839,0,0,0.06172839506172839,60.37037037037037,0)" xlink:href="#ac"/><use transform="matrix(0.06172839506172839,0,0,0.06172839506172839,67.71604938271605,0)" xlink:href="#ay"/><use transform="matrix(0.06172839506172839,0,0,0.06172839506172839,73.88888888888889,0)" xlink:href="#aa"/><use transform="matrix(0.06172839506172839,0,0,0.06172839506172839,87.4074074074074,0)" xlink:href="#ab"/></g><g id="r"><use transform="matrix(0.06172839506172839,0,0,0.06172839506172839,0,0)" xlink:href="#af"/><use transform="matrix(0.06172839506172839,0,0,0.06172839506172839,13.518518518518517,0)" xlink:href="#ag"/><use transform="matrix(0.06172839506172839,0,0,0.06172839506172839,27.037037037037035,0)" xlink:href="#ah"/><use transform="matrix(0.06172839506172839,0,0,0.06172839506172839,34.382716049382715,0)" xlink:href="#ai"/><use transform="matrix(0.06172839506172839,0,0,0.06172839506172839,46.72839506172839,0)" xlink:href="#aj"/></g><g id="s"><use transform="matrix(0.06172839506172839,0,0,0.06172839506172839,0,0)" xlink:href="#ac"/><use transform="matrix(0.06172839506172839,0,0,0.06172839506172839,7.345679012345679,0)" xlink:href="#aw"/><use transform="matrix(0.06172839506172839,0,0,0.06172839506172839,19.691358024691358,0)" xlink:href="#ag"/><use transform="matrix(0.06172839506172839,0,0,0.06172839506172839,33.20987654320987,0)" xlink:href="#ad"/><use transform="matrix(0.06172839506172839,0,0,0.06172839506172839,45.55555555555555,0)" xlink:href="#ax"/></g><g id="t"><use transform="matrix(0.06172839506172839,0,0,0.06172839506172839,0,0)" xlink:href="#ag"/><use transform="matrix(0.06172839506172839,0,0,0.06172839506172839,13.518518518518517,0)" xlink:href="#aa"/><use transform="matrix(0.06172839506172839,0,0,0.06172839506172839,27.037037037037035,0)" xlink:href="#at"/><use transform="matrix(0.06172839506172839,0,0,0.06172839506172839,35.67901234567901,0)" xlink:href="#ac"/><use transform="matrix(0.06172839506172839,0,0,0.06172839506172839,43.02469135802469,0)" xlink:href="#at"/><use transform="matrix(0.06172839506172839,0,0,0.06172839506172839,51.666666666666664,0)" xlink:href="#ar"/><use transform="matrix(0.06172839506172839,0,0,0.06172839506172839,64.01234567901234,0)" xlink:href="#aw"/><use transform="matrix(0.06172839506172839,0,0,0.06172839506172839,76.35802469135803,0)" xlink:href="#ar"/><use transform="matrix(0.06172839506172839,0,0,0.06172839506172839,88.70370370370371,0)" xlink:href="#aA"/></g><g id="u"><use transform="matrix(0.06172839506172839,0,0,0.06172839506172839,0,0)" xlink:href="#ar"/><use transform="matrix(0.06172839506172839,0,0,0.06172839506172839,12.345679012345679,0)" xlink:href="#al"/><use transform="matrix(0.06172839506172839,0,0,0.06172839506172839,24.691358024691358,0)" xlink:href="#ac"/><use transform="matrix(0.06172839506172839,0,0,0.06172839506172839,32.03703703703704,0)" xlink:href="#ah"/><use transform="matrix(0.06172839506172839,0,0,0.06172839506172839,39.382716049382715,0)" xlink:href="#ai"/><use transform="matrix(0.06172839506172839,0,0,0.06172839506172839,51.72839506172839,0)" xlink:href="#aj"/></g><g id="v"><use transform="matrix(0.06172839506172839,0,0,0.06172839506172839,0,0)" xlink:href="#al"/><use transform="matrix(0.06172839506172839,0,0,0.06172839506172839,12.345679012345679,0)" xlink:href="#ac"/><use transform="matrix(0.06172839506172839,0,0,0.06172839506172839,19.691358024691358,0)" xlink:href="#at"/><use transform="matrix(0.06172839506172839,0,0,0.06172839506172839,28.333333333333332,0)" xlink:href="#au"/><use transform="matrix(0.06172839506172839,0,0,0.06172839506172839,41.85185185185185,0)" xlink:href="#am"/><use transform="matrix(0.06172839506172839,0,0,0.06172839506172839,54.197530864197525,0)" xlink:href="#ac"/><use transform="matrix(0.06172839506172839,0,0,0.06172839506172839,61.5432098765432,0)" xlink:href="#av"/><use transform="matrix(0.06172839506172839,0,0,0.06172839506172839,73.39506172839505,0)" xlink:href="#aw"/><use transform="matrix(0.06172839506172839,0,0,0.06172839506172839,85.74074074074073,0)" xlink:href="#ag"/><use transform="matrix(0.06172839506172839,0,0,0.06172839506172839,99.25925925925925,0)" xlink:href="#ad"/><use transform="matrix(0.06172839506172839,0,0,0.06172839506172839,111.60493827160494,0)" xlink:href="#ax"/></g><path fill="#3a414a" d="M114-157C55-157 80-60 75 0H25v-261h50l-1 109c12-26 28-41 61-42 86-1 58 113 63 194h-50c-7-57 23-157-34-157" id="aE"/><g id="w"><use transform="matrix(0.06172839506172839,0,0,0.06172839506172839,0,0)" xlink:href="#am"/><use transform="matrix(0.06172839506172839,0,0,0.06172839506172839,12.345679012345679,0)" xlink:href="#aE"/><use transform="matrix(0.06172839506172839,0,0,0.06172839506172839,25.864197530864196,0)" xlink:href="#ar"/><use transform="matrix(0.06172839506172839,0,0,0.06172839506172839,38.20987654320987,0)" xlink:href="#at"/><use transform="matrix(0.06172839506172839,0,0,0.06172839506172839,46.85185185185185,0)" xlink:href="#ar"/><use transform="matrix(0.06172839506172839,0,0,0.06172839506172839,59.197530864197525,0)" xlink:href="#am"/><use transform="matrix(0.06172839506172839,0,0,0.06172839506172839,71.5432098765432,0)" xlink:href="#ac"/><use transform="matrix(0.06172839506172839,0,0,0.06172839506172839,78.88888888888889,0)" xlink:href="#ad"/><use transform="matrix(0.06172839506172839,0,0,0.06172839506172839,91.23456790123457,0)" xlink:href="#at"/></g><path fill="#3a414a" d="M24-248c93 1 206-16 204 79-1 75-69 88-152 82V0H24v-248zm52 121c47 0 100 7 100-41 0-47-54-39-100-39v80" id="aF"/><g id="x"><use transform="matrix(0.06172839506172839,0,0,0.06172839506172839,0,0)" xlink:href="#aF"/><use transform="matrix(0.06172839506172839,0,0,0.06172839506172839,14.814814814814813,0)" xlink:href="#at"/><use transform="matrix(0.06172839506172839,0,0,0.06172839506172839,23.456790123456788,0)" xlink:href="#aa"/><use transform="matrix(0.06172839506172839,0,0,0.06172839506172839,36.9753086419753,0)" xlink:href="#af"/><use transform="matrix(0.06172839506172839,0,0,0.06172839506172839,50.49382716049382,0)" xlink:href="#au"/><use transform="matrix(0.06172839506172839,0,0,0.06172839506172839,64.01234567901234,0)" xlink:href="#am"/><use transform="matrix(0.06172839506172839,0,0,0.06172839506172839,76.35802469135803,0)" xlink:href="#ac"/><use transform="matrix(0.06172839506172839,0,0,0.06172839506172839,83.70370370370371,0)" xlink:href="#ay"/><use transform="matrix(0.06172839506172839,0,0,0.06172839506172839,89.87654320987654,0)" xlink:href="#aa"/><use transform="matrix(0.06172839506172839,0,0,0.06172839506172839,103.39506172839506,0)" xlink:href="#ab"/></g><path fill="#3a414a" d="M169-182c-1-43-94-46-97-3 18 66 151 10 154 114 3 95-165 93-204 36-6-8-10-19-12-30l50-8c3 46 112 56 116 5-17-69-150-10-154-114-4-87 153-88 188-35 5 8 8 18 10 28" id="aG"/><g id="y"><use transform="matrix(0.06172839506172839,0,0,0.06172839506172839,0,0)" xlink:href="#aG"/><use transform="matrix(0.06172839506172839,0,0,0.06172839506172839,14.814814814814813,0)" xlink:href="#am"/><use transform="matrix(0.06172839506172839,0,0,0.06172839506172839,27.160493827160494,0)" xlink:href="#ad"/><use transform="matrix(0.06172839506172839,0,0,0.06172839506172839,39.50617283950617,0)" xlink:href="#ab"/><use transform="matrix(0.06172839506172839,0,0,0.06172839506172839,53.02469135802469,0)" xlink:href="#ad"/></g><g id="z"><use transform="matrix(0.06172839506172839,0,0,0.06172839506172839,0,0)" xlink:href="#al"/><use transform="matrix(0.06172839506172839,0,0,0.06172839506172839,12.345679012345679,0)" xlink:href="#am"/><use transform="matrix(0.06172839506172839,0,0,0.06172839506172839,24.691358024691358,0)" xlink:href="#ah"/><use transform="matrix(0.06172839506172839,0,0,0.06172839506172839,32.03703703703704,0)" xlink:href="#ai"/><use transform="matrix(0.06172839506172839,0,0,0.06172839506172839,44.382716049382715,0)" xlink:href="#an"/></g><g id="A"><use transform="matrix(0.06172839506172839,0,0,0.06172839506172839,0,0)" xlink:href="#al"/><use transform="matrix(0.06172839506172839,0,0,0.06172839506172839,12.345679012345679,0)" xlink:href="#am"/><use transform="matrix(0.06172839506172839,0,0,0.06172839506172839,24.691358024691358,0)" xlink:href="#ah"/><use transform="matrix(0.06172839506172839,0,0,0.06172839506172839,32.03703703703704,0)" xlink:href="#ai"/><use transform="matrix(0.06172839506172839,0,0,0.06172839506172839,43.14814814814815,0)" xlink:href="#ai"/></g><path fill="#333" d="M88-194c31-1 46 15 58 34l-1-101h50l1 261h-48c-2-10 0-23-3-31C134-8 116 4 84 4 32 4 16-41 15-95c0-56 19-97 73-99zm17 164c33 0 40-30 41-66 1-37-9-64-41-64s-38 30-39 65c0 43 13 65 39 65" id="aH"/><path fill="#333" d="M24 0v-248h52V0H24" id="aI"/><g id="B"><use transform="matrix(0.04938271604938272,0,0,0.04938271604938272,0,0)" xlink:href="#aq"/><use transform="matrix(0.04938271604938272,0,0,0.04938271604938272,10.814814814814815,0)" xlink:href="#Y"/><use transform="matrix(0.04938271604938272,0,0,0.04938271604938272,20.69135802469136,0)" xlink:href="#Q"/><use transform="matrix(0.04938271604938272,0,0,0.04938271604938272,30.567901234567906,0)" xlink:href="#aH"/><use transform="matrix(0.04938271604938272,0,0,0.04938271604938272,41.38271604938272,0)" xlink:href="#aI"/><use transform="matrix(0.04938271604938272,0,0,0.04938271604938272,46.320987654320994,0)" xlink:href="#W"/></g><g id="C"><use transform="matrix(0.06172839506172839,0,0,0.06172839506172839,0,0)" xlink:href="#ar"/><use transform="matrix(0.06172839506172839,0,0,0.06172839506172839,12.345679012345679,0)" xlink:href="#al"/><use transform="matrix(0.06172839506172839,0,0,0.06172839506172839,24.691358024691358,0)" xlink:href="#ac"/><use transform="matrix(0.06172839506172839,0,0,0.06172839506172839,32.03703703703704,0)" xlink:href="#ah"/><use transform="matrix(0.06172839506172839,0,0,0.06172839506172839,39.382716049382715,0)" xlink:href="#ai"/><use transform="matrix(0.06172839506172839,0,0,0.06172839506172839,51.72839506172839,0)" xlink:href="#an"/><use transform="matrix(0.06172839506172839,0,0,0.06172839506172839,64.07407407407408,0)" xlink:href="#ak"/><use transform="matrix(0.06172839506172839,0,0,0.06172839506172839,70.24691358024691,0)" xlink:href="#al"/><use transform="matrix(0.06172839506172839,0,0,0.06172839506172839,82.5925925925926,0)" xlink:href="#am"/><use transform="matrix(0.06172839506172839,0,0,0.06172839506172839,94.93827160493828,0)" xlink:href="#ah"/><use transform="matrix(0.06172839506172839,0,0,0.06172839506172839,102.28395061728396,0)" xlink:href="#ai"/><use transform="matrix(0.06172839506172839,0,0,0.06172839506172839,114.62962962962965,0)" xlink:href="#an"/></g><g id="D"><use transform="matrix(0.06172839506172839,0,0,0.06172839506172839,0,0)" xlink:href="#al"/><use transform="matrix(0.06172839506172839,0,0,0.06172839506172839,12.345679012345679,0)" xlink:href="#am"/><use transform="matrix(0.06172839506172839,0,0,0.06172839506172839,24.691358024691358,0)" xlink:href="#ah"/><use transform="matrix(0.06172839506172839,0,0,0.06172839506172839,32.03703703703704,0)" xlink:href="#ai"/><use transform="matrix(0.06172839506172839,0,0,0.06172839506172839,43.14814814814815,0)" xlink:href="#ai"/><use transform="matrix(0.06172839506172839,0,0,0.06172839506172839,55.49382716049383,0)" xlink:href="#ak"/><use transform="matrix(0.06172839506172839,0,0,0.06172839506172839,61.66666666666667,0)" xlink:href="#af"/><use transform="matrix(0.06172839506172839,0,0,0.06172839506172839,75.18518518518519,0)" xlink:href="#ag"/><use transform="matrix(0.06172839506172839,0,0,0.06172839506172839,88.70370370370371,0)" xlink:href="#ah"/><use transform="matrix(0.06172839506172839,0,0,0.06172839506172839,96.0493827160494,0)" xlink:href="#ai"/><use transform="matrix(0.06172839506172839,0,0,0.06172839506172839,108.39506172839508,0)" xlink:href="#aj"/></g><g id="E"><use transform="matrix(0.06172839506172839,0,0,0.06172839506172839,0,0)" xlink:href="#Z"/><use transform="matrix(0.06172839506172839,0,0,0.06172839506172839,15.987654320987653,0)" xlink:href="#aE"/><use transform="matrix(0.06172839506172839,0,0,0.06172839506172839,29.50617283950617,0)" xlink:href="#ar"/><use transform="matrix(0.06172839506172839,0,0,0.06172839506172839,41.85185185185185,0)" xlink:href="#at"/><use transform="matrix(0.06172839506172839,0,0,0.06172839506172839,50.49382716049382,0)" xlink:href="#ar"/><use transform="matrix(0.06172839506172839,0,0,0.06172839506172839,62.8395061728395,0)" xlink:href="#am"/><use transform="matrix(0.06172839506172839,0,0,0.06172839506172839,75.18518518518518,0)" xlink:href="#ac"/><use transform="matrix(0.06172839506172839,0,0,0.06172839506172839,82.53086419753086,0)" xlink:href="#ad"/><use transform="matrix(0.06172839506172839,0,0,0.06172839506172839,94.87654320987654,0)" xlink:href="#at"/></g><g id="F"><use transform="matrix(0.06172839506172839,0,0,0.06172839506172839,0,0)" xlink:href="#am"/><use transform="matrix(0.06172839506172839,0,0,0.06172839506172839,12.345679012345679,0)" xlink:href="#aE"/><use transform="matrix(0.06172839506172839,0,0,0.06172839506172839,25.864197530864196,0)" xlink:href="#at"/><use transform="matrix(0.06172839506172839,0,0,0.06172839506172839,34.50617283950617,0)" xlink:href="#ah"/><use transform="matrix(0.06172839506172839,0,0,0.06172839506172839,41.85185185185185,0)" xlink:href="#an"/><use transform="matrix(0.06172839506172839,0,0,0.06172839506172839,54.197530864197525,0)" xlink:href="#ai"/></g><g id="G"><use transform="matrix(0.06172839506172839,0,0,0.06172839506172839,0,0)" xlink:href="#af"/><use transform="matrix(0.06172839506172839,0,0,0.06172839506172839,13.518518518518517,0)" xlink:href="#ag"/><use transform="matrix(0.06172839506172839,0,0,0.06172839506172839,27.037037037037035,0)" xlink:href="#ah"/><use transform="matrix(0.06172839506172839,0,0,0.06172839506172839,34.382716049382715,0)" xlink:href="#ai"/><use transform="matrix(0.06172839506172839,0,0,0.06172839506172839,45.49382716049382,0)" xlink:href="#ai"/></g><g id="H"><use transform="matrix(0.06172839506172839,0,0,0.06172839506172839,0,0)" xlink:href="#af"/><use transform="matrix(0.06172839506172839,0,0,0.06172839506172839,13.518518518518517,0)" xlink:href="#ad"/><use transform="matrix(0.06172839506172839,0,0,0.06172839506172839,25.864197530864196,0)" xlink:href="#ag"/><use transform="matrix(0.06172839506172839,0,0,0.06172839506172839,39.382716049382715,0)" xlink:href="#ay"/><use transform="matrix(0.06172839506172839,0,0,0.06172839506172839,45.55555555555556,0)" xlink:href="#am"/><use transform="matrix(0.06172839506172839,0,0,0.06172839506172839,57.901234567901234,0)" xlink:href="#ac"/><use transform="matrix(0.06172839506172839,0,0,0.06172839506172839,65.24691358024691,0)" xlink:href="#ay"/><use transform="matrix(0.06172839506172839,0,0,0.06172839506172839,71.41975308641975,0)" xlink:href="#aa"/><use transform="matrix(0.06172839506172839,0,0,0.06172839506172839,84.93827160493827,0)" xlink:href="#ab"/></g><path fill="#3a414a" d="M175 0L67-191c6 58 2 128 3 191H24v-248h59L193-55c-6-58-2-129-3-193h46V0h-61" id="aJ"/><path fill="#3a414a" d="M128 0H69L1-190h53L99-40l48-150h52" id="aK"/><path fill="#3a414a" d="M140-251c80 0 125 45 125 126S219 4 139 4C58 4 15-44 15-125s44-126 125-126zm-1 214c52 0 73-35 73-88 0-50-21-86-72-86-52 0-73 35-73 86s22 88 72 88" id="aL"/><path fill="#3a414a" d="M135-194c52 0 70 43 70 98 0 56-19 99-73 100-30 1-46-15-58-35L72 0H24l1-261h50v104c11-23 29-37 60-37zM114-30c31 0 40-27 40-66 0-37-7-63-39-63s-41 28-41 65c0 36 8 64 40 64" id="aM"/><path fill="#3a414a" d="M25-224v-37h50v37H25zM75 22c2 45-34 59-81 51V38c22 5 31-5 31-27v-201h50V22" id="aN"/><g id="I"><use transform="matrix(0.06172839506172839,0,0,0.06172839506172839,0,0)" xlink:href="#aJ"/><use transform="matrix(0.06172839506172839,0,0,0.06172839506172839,15.987654320987653,0)" xlink:href="#ar"/><use transform="matrix(0.06172839506172839,0,0,0.06172839506172839,28.333333333333332,0)" xlink:href="#at"/><use transform="matrix(0.06172839506172839,0,0,0.06172839506172839,36.9753086419753,0)" xlink:href="#at"/><use transform="matrix(0.06172839506172839,0,0,0.06172839506172839,45.61728395061728,0)" xlink:href="#ar"/><use transform="matrix(0.06172839506172839,0,0,0.06172839506172839,57.962962962962955,0)" xlink:href="#ac"/><use transform="matrix(0.06172839506172839,0,0,0.06172839506172839,65.30864197530863,0)" xlink:href="#ay"/><use transform="matrix(0.06172839506172839,0,0,0.06172839506172839,71.48148148148147,0)" xlink:href="#aK"/><use transform="matrix(0.06172839506172839,0,0,0.06172839506172839,83.82716049382715,0)" xlink:href="#ad"/><use transform="matrix(0.06172839506172839,0,0,0.06172839506172839,96.17283950617283,0)" xlink:href="#aL"/><use transform="matrix(0.06172839506172839,0,0,0.06172839506172839,113.45679012345678,0)" xlink:href="#aM"/><use transform="matrix(0.06172839506172839,0,0,0.06172839506172839,126.9753086419753,0)" xlink:href="#aN"/><use transform="matrix(0.06172839506172839,0,0,0.06172839506172839,133.14814814814815,0)" xlink:href="#ad"/><use transform="matrix(0.06172839506172839,0,0,0.06172839506172839,145.49382716049382,0)" xlink:href="#am"/><use transform="matrix(0.06172839506172839,0,0,0.06172839506172839,157.8395061728395,0)" xlink:href="#ac"/></g><g id="J"><use transform="matrix(0.06172839506172839,0,0,0.06172839506172839,0,0)" xlink:href="#ab"/><use transform="matrix(0.06172839506172839,0,0,0.06172839506172839,13.518518518518517,0)" xlink:href="#aa"/><use transform="matrix(0.06172839506172839,0,0,0.06172839506172839,27.037037037037035,0)" xlink:href="#ah"/><use transform="matrix(0.06172839506172839,0,0,0.06172839506172839,34.382716049382715,0)" xlink:href="#ai"/><use transform="matrix(0.06172839506172839,0,0,0.06172839506172839,46.72839506172839,0)" xlink:href="#aj"/></g><g id="K"><use transform="matrix(0.06172839506172839,0,0,0.06172839506172839,0,0)" xlink:href="#ag"/><use transform="matrix(0.06172839506172839,0,0,0.06172839506172839,13.518518518518517,0)" xlink:href="#at"/><use transform="matrix(0.06172839506172839,0,0,0.06172839506172839,22.160493827160494,0)" xlink:href="#aa"/><use transform="matrix(0.06172839506172839,0,0,0.06172839506172839,35.67901234567901,0)" xlink:href="#ag"/></g><g id="L"><use transform="matrix(0.04938271604938272,0,0,0.04938271604938272,0,0)" xlink:href="#P"/><use transform="matrix(0.04938271604938272,0,0,0.04938271604938272,12.790123456790125,0)" xlink:href="#Q"/><use transform="matrix(0.04938271604938272,0,0,0.04938271604938272,22.66666666666667,0)" xlink:href="#R"/><use transform="matrix(0.04938271604938272,0,0,0.04938271604938272,33.48148148148149,0)" xlink:href="#S"/><use transform="matrix(0.04938271604938272,0,0,0.04938271604938272,38.41975308641976,0)" xlink:href="#T"/><use transform="matrix(0.04938271604938272,0,0,0.04938271604938272,48.296296296296305,0)" xlink:href="#U"/><use transform="matrix(0.04938271604938272,0,0,0.04938271604938272,54.17283950617284,0)" xlink:href="#Y"/></g><g id="M"><use transform="matrix(0.04938271604938272,0,0,0.04938271604938272,0,0)" xlink:href="#P"/><use transform="matrix(0.04938271604938272,0,0,0.04938271604938272,12.790123456790125,0)" xlink:href="#Q"/><use transform="matrix(0.04938271604938272,0,0,0.04938271604938272,22.66666666666667,0)" xlink:href="#R"/><use transform="matrix(0.04938271604938272,0,0,0.04938271604938272,33.48148148148149,0)" xlink:href="#S"/><use transform="matrix(0.04938271604938272,0,0,0.04938271604938272,38.41975308641976,0)" xlink:href="#T"/><use transform="matrix(0.04938271604938272,0,0,0.04938271604938272,48.296296296296305,0)" xlink:href="#U"/><use transform="matrix(0.04938271604938272,0,0,0.04938271604938272,54.17283950617284,0)" xlink:href="#V"/><use transform="matrix(0.04938271604938272,0,0,0.04938271604938272,64.98765432098766,0)" xlink:href="#X"/></g><g id="N"><use transform="matrix(0.06172839506172839,0,0,0.06172839506172839,0,0)" xlink:href="#af"/><use transform="matrix(0.06172839506172839,0,0,0.06172839506172839,13.518518518518517,0)" xlink:href="#ag"/><use transform="matrix(0.06172839506172839,0,0,0.06172839506172839,27.037037037037035,0)" xlink:href="#ah"/><use transform="matrix(0.06172839506172839,0,0,0.06172839506172839,34.382716049382715,0)" xlink:href="#ai"/><use transform="matrix(0.06172839506172839,0,0,0.06172839506172839,46.72839506172839,0)" xlink:href="#an"/></g><g id="O"><use transform="matrix(0.06172839506172839,0,0,0.06172839506172839,0,0)" xlink:href="#ab"/><use transform="matrix(0.06172839506172839,0,0,0.06172839506172839,13.518518518518517,0)" xlink:href="#aa"/><use transform="matrix(0.06172839506172839,0,0,0.06172839506172839,27.037037037037035,0)" xlink:href="#ah"/><use transform="matrix(0.06172839506172839,0,0,0.06172839506172839,34.382716049382715,0)" xlink:href="#ai"/><use transform="matrix(0.06172839506172839,0,0,0.06172839506172839,45.49382716049382,0)" xlink:href="#ai"/></g></defs></g></svg>