<svg xmlns="http://www.w3.org/2000/svg" xmlns:xlink="http://www.w3.org/1999/xlink" xmlns:lucid="lucid" width="1501" height="881"><g transform="translate(-119.49999999773674 -1059.4999999961328)" lucid:page-tab-id="0_0"><path d="M120 1066a6 6 0 0 1 6-6h868a6 6 0 0 1 6 6v868a6 6 0 0 1-6 6H126a6 6 0 0 1-6-6z" stroke="#3a414a" fill="#f2f3f5"/><use xlink:href="#a" transform="matrix(1,0,0,1,128,1068) translate(387.0617283950617 17.944444444444443)"/><path d="M1100 1066a6 6 0 0 1 6-6h508a6 6 0 0 1 6 6v868a6 6 0 0 1-6 6h-508a6 6 0 0 1-6-6z" stroke="#3a414a" fill="#f2f3f5"/><use xlink:href="#b" transform="matrix(1,0,0,1,1108,1068) translate(198.97530864197532 17.944444444444443)"/><path d="M160 1446a6 6 0 0 1 6-6h148a6 6 0 0 1 6 6v148a6 6 0 0 1-6 6H166a6 6 0 0 1-6-6z" stroke="#000" stroke-width="2" fill="#fff"/><use xlink:href="#c" transform="matrix(1,0,0,1,165,1445) translate(3.200000000000003 78.2486111111111)"/><path d="M480 1326a6 6 0 0 1 6-6h148a6 6 0 0 1 6 6v148a6 6 0 0 1-6 6H486a6 6 0 0 1-6-6z" stroke="#000" stroke-width="2" fill="#fff"/><use xlink:href="#d" transform="matrix(1,0,0,1,485,1325) translate(39.75555555555555 78.2486111111111)"/><path d="M480 1566a6 6 0 0 1 6-6h148a6 6 0 0 1 6 6v148a6 6 0 0 1-6 6H486a6 6 0 0 1-6-6z" stroke="#000" stroke-width="2" fill="#fff"/><use xlink:href="#d" transform="matrix(1,0,0,1,485,1565) translate(39.75555555555555 78.2486111111111)"/><path d="M1440 1226a6 6 0 0 1 6-6h148a6 6 0 0 1 6 6v148a6 6 0 0 1-6 6h-148a6 6 0 0 1-6-6z" stroke="#000" stroke-width="2" fill="#fff"/><use xlink:href="#e" transform="matrix(1,0,0,1,1445,1225) translate(-3.4777777777777885 78.13333333333333)"/><path d="M1440 1666a6 6 0 0 1 6-6h148a6 6 0 0 1 6 6v148a6 6 0 0 1-6 6h-148a6 6 0 0 1-6-6z" stroke="#000" stroke-width="2" fill="#fff"/><use xlink:href="#e" transform="matrix(1,0,0,1,1445,1665) translate(-3.4777777777777885 78.13333333333333)"/><path d="M800 1126a6 6 0 0 1 6-6h148a6 6 0 0 1 6 6v148a6 6 0 0 1-6 6H806a6 6 0 0 1-6-6z" stroke="#000" stroke-width="2" fill="#fff"/><use xlink:href="#f" transform="matrix(1,0,0,1,805,1125) translate(29.322222222222216 78.2486111111111)"/><path d="M800 1766a6 6 0 0 1 6-6h148a6 6 0 0 1 6 6v148a6 6 0 0 1-6 6H806a6 6 0 0 1-6-6z" stroke="#000" stroke-width="2" fill="#fff"/><use xlink:href="#f" transform="matrix(1,0,0,1,805,1765) translate(29.322222222222216 78.2486111111111)"/><path d="M800 1566a6 6 0 0 1 6-6h148a6 6 0 0 1 6 6v148a6 6 0 0 1-6 6H806a6 6 0 0 1-6-6z" stroke="#000" stroke-width="2" fill="#fff"/><use xlink:href="#g" transform="matrix(1,0,0,1,805,1565) translate(-7.711111111111123 78.13333333333333)"/><path d="M800 1326a6 6 0 0 1 6-6h148a6 6 0 0 1 6 6v148a6 6 0 0 1-6 6H806a6 6 0 0 1-6-6z" stroke="#000" stroke-width="2" fill="#fff"/><use xlink:href="#g" transform="matrix(1,0,0,1,805,1325) translate(-7.711111111111123 78.13333333333333)"/><path d="M1120 1666a6 6 0 0 1 6-6h148a6 6 0 0 1 6 6v148a6 6 0 0 1-6 6h-148a6 6 0 0 1-6-6z" stroke="#000" stroke-width="2" fill="#fff"/><use xlink:href="#d" transform="matrix(1,0,0,1,1125,1665) translate(39.75555555555555 78.2486111111111)"/><path d="M1120 1226a6 6 0 0 1 6-6h148a6 6 0 0 1 6 6v148a6 6 0 0 1-6 6h-148a6 6 0 0 1-6-6z" stroke="#000" stroke-width="2" fill="#fff"/><use xlink:href="#d" transform="matrix(1,0,0,1,1125,1225) translate(39.75555555555555 78.2486111111111)"/><path d="M322 1520.02l2.18.05 3.03.2 2.9.3 2.8.4 2.7.52 2.6.6 2.57.7 2.5.83 2.5.92 2.44 1.03 2.46 1.15 2.45 1.3 2.5 1.42 2.5 1.6 2.56 1.78 2.65 2 2.76 2.28 2.9 2.63 3.1 3.03 3.38 3.6 3.82 4.44 4.58 5.78 6.32 8.75 26 38.1 4.57 5.77 3.82 4.43 3.4 3.6 3.1 3.05 2.9 2.6 2.74 2.28 2.64 2 2.56 1.8 2.5 1.6 2.5 1.42 2.44 1.3 2.45 1.14 2.44 1.03 2.48.92 2.5.82 1.5.4" stroke="#000" stroke-width="2" stroke-linejoin="round" fill="none"/><path d="M322.05 1519.02l-.04 2-1-.02v-2z" stroke="#000" stroke-width=".05"/><path d="M475.8 1639.58l-14.76 2.74 1.2-9.2z" stroke="#000" stroke-width="2"/><path d="M322 1519.98l2.18-.05 3.03-.2 2.9-.3 2.8-.4 2.7-.52 2.6-.6 2.57-.7 2.5-.83 2.5-.92 2.44-1.03 2.46-1.15 2.45-1.3 2.5-1.42 2.5-1.6 2.56-1.78 2.65-2 2.76-2.28 2.9-2.63 3.1-3.03 3.38-3.6 3.82-4.44 4.58-5.78 6.32-8.75 26-38.1 4.57-5.77 3.82-4.43 3.4-3.6 3.1-3.05 2.9-2.6 2.74-2.28 2.64-2 2.56-1.8 2.5-1.6 2.5-1.42 2.44-1.3 2.45-1.14 2.44-1.03 2.48-.92 2.5-.82 1.5-.4" stroke="#000" stroke-width="2" stroke-linejoin="round" fill="none"/><path d="M322.05 1520.98l-1.05.02v-2l1-.02z" stroke="#000" stroke-width=".05"/><path d="M475.8 1400.42l-13.55 6.45-1.2-9.2z" stroke="#000" stroke-width="2"/><path d="M642 1640h138.5" stroke="#000" stroke-width="2" stroke-linejoin="round" fill="none"/><path d="M642.03 1641H641v-2h1.03z" stroke="#000" stroke-width=".05"/><path d="M795.76 1640l-14.26 4.63v-9.27z" stroke="#000" stroke-width="2"/><path d="M642 1399.98l.93-.02 1.88-.12 1.84-.2 1.8-.26 1.75-.33 1.73-.4 1.73-.5 1.7-.55 1.73-.64 1.7-.72 1.74-.82 1.76-.9 1.78-1.04 1.8-1.16 1.88-1.3 1.9-1.45 2-1.64 2.07-1.87 2.16-2.12 2.28-2.43 2.43-2.82 2.63-3.3 2.84-3.9 3.13-4.74 3.54-5.85 4.13-7.54 5.12-10.34 7.45-16.87 28.56-69.17 5.13-10.34 4.13-7.53 3.54-5.84 3.13-4.73 2.84-3.9 2.62-3.32 2.42-2.8 2.28-2.44 2.17-2.13 2.07-1.86 2-1.64 1.9-1.46 1.87-1.3 1.82-1.15 1.78-1.03 1.76-.92 1.58-.75" stroke="#000" stroke-width="2" stroke-linejoin="round" fill="none"/><path d="M642.05 1400.98l-1.05.02v-2l1-.02z" stroke="#000" stroke-width=".05"/><path d="M795.84 1200.67l-13 7.5-1.92-9.05z" stroke="#000" stroke-width="2"/><path d="M642 1400h138.5" stroke="#000" stroke-width="2" stroke-linejoin="round" fill="none"/><path d="M642.03 1401H641v-2h1.03z" stroke="#000" stroke-width=".05"/><path d="M795.76 1400l-14.26 4.63v-9.27z" stroke="#000" stroke-width="2"/><path d="M642 1640.02l.93.02 1.88.12 1.84.2 1.8.26 1.75.33 1.73.4 1.73.5 1.7.55 1.73.64 1.7.72 1.74.82 1.76.9 1.78 1.04 1.8 1.16 1.88 1.3 1.9 1.45 2 1.64 2.07 1.87 2.16 2.12 2.28 2.43 2.43 2.82 2.63 3.3 2.84 3.9 3.13 4.74 3.54 5.85 4.13 7.54 5.12 10.34 7.45 16.87 28.56 69.17 5.13 10.34 4.13 7.53 3.54 5.84 3.13 4.73 2.84 3.9 2.62 3.32 2.42 2.8 2.28 2.44 2.17 2.13 2.07 1.86 2 1.64 1.9 1.46 1.87 1.3 1.82 1.15 1.78 1.03 1.76.92 1.58.75" stroke="#000" stroke-width="2" stroke-linejoin="round" fill="none"/><path d="M642.05 1639.02l-.04 2-1-.02v-2z" stroke="#000" stroke-width=".05"/><path d="M795.84 1839.33l-14.92 1.55 1.93-9.07z" stroke="#000" stroke-width="2"/><path d="M1438 1740h-138.5" stroke="#000" stroke-width="2" stroke-linejoin="round" fill="none"/><path d="M1439 1741h-1.03v-2h1.03z" stroke="#000" stroke-width=".05"/><path d="M1284.24 1740l14.26-4.63v9.27z" stroke="#000" stroke-width="2"/><path d="M1118 1739.98l-2.8-.06-3.58-.22-3.4-.36-3.23-.48-3.1-.6-3-.7-2.92-.8-2.84-.93-2.8-1.03-2.75-1.16-2.75-1.3-2.75-1.43-2.77-1.6-2.82-1.78-2.9-2.02-3.02-2.3-3.2-2.64-3.45-3.12-3.86-3.8-4.6-4.9-6.4-7.45-24.54-30.05-4.6-4.9-3.86-3.8-3.46-3.1-3.18-2.65-3.02-2.3-2.9-2.02-2.83-1.8-2.77-1.6-2.75-1.42-2.74-1.3-2.75-1.15-2.8-1.03-2.83-.93-2.9-.8-1.77-.42" stroke="#000" stroke-width="2" stroke-linejoin="round" fill="none"/><path d="M1119 1739v2l-1.05-.02.04-2z" stroke="#000" stroke-width=".05"/><path d="M964.22 1640.35l14.68-3.04-1 9.22z" stroke="#000" stroke-width="2"/><path d="M1118 1740.02l-2.8.06-3.58.22-3.4.36-3.23.48-3.1.6-3 .7-2.92.8-2.84.93-2.8 1.03-2.75 1.16-2.75 1.3-2.75 1.43-2.77 1.6-2.82 1.78-2.9 2.02-3.02 2.3-3.2 2.64-3.45 3.12-3.86 3.8-4.6 4.9-6.4 7.45-24.54 30.05-4.6 4.9-3.86 3.8-3.46 3.1-3.18 2.65-3.02 2.3-2.9 2.02-2.83 1.8-2.77 1.6-2.75 1.42-2.74 1.3-2.75 1.15-2.8 1.03-2.83.93-2.9.8-1.77.42" stroke="#000" stroke-width="2" stroke-linejoin="round" fill="none"/><path d="M1119 1741l-1 .02-.05-2 1.05-.02z" stroke="#000" stroke-width=".05"/><path d="M964.22 1839.65l13.67-6.17 1 9.2z" stroke="#000" stroke-width="2"/><path d="M1438 1300h-138.5" stroke="#000" stroke-width="2" stroke-linejoin="round" fill="none"/><path d="M1439 1301h-1.03v-2h1.03z" stroke="#000" stroke-width=".05"/><path d="M1284.24 1300l14.26-4.63v9.27z" stroke="#000" stroke-width="2"/><path d="M1118 1299.98l-2.8-.06-3.58-.22-3.4-.36-3.23-.48-3.1-.6-3-.7-2.92-.8-2.84-.93-2.8-1.03-2.75-1.16-2.75-1.3-2.75-1.43-2.77-1.6-2.82-1.78-2.9-2.02-3.02-2.3-3.2-2.64-3.45-3.12-3.86-3.8-4.6-4.9-6.4-7.45-24.54-30.05-4.6-4.9-3.86-3.8-3.46-3.1-3.18-2.65-3.02-2.3-2.9-2.02-2.83-1.8-2.77-1.6-2.75-1.42-2.74-1.3-2.75-1.15-2.8-1.03-2.83-.93-2.9-.8-1.77-.42" stroke="#000" stroke-width="2" stroke-linejoin="round" fill="none"/><path d="M1119 1299v2l-1.05-.02.04-2z" stroke="#000" stroke-width=".05"/><path d="M964.22 1200.35l14.68-3.04-1 9.22z" stroke="#000" stroke-width="2"/><path d="M1118 1300.02l-2.8.06-3.58.22-3.4.36-3.23.48-3.1.6-3 .7-2.92.8-2.84.93-2.8 1.03-2.75 1.16-2.75 1.3-2.75 1.43-2.77 1.6-2.82 1.78-2.9 2.02-3.02 2.3-3.2 2.64-3.45 3.12-3.86 3.8-4.6 4.9-6.4 7.45-24.54 30.05-4.6 4.9-3.86 3.8-3.46 3.1-3.18 2.65-3.02 2.3-2.9 2.02-2.83 1.8-2.77 1.6-2.75 1.42-2.74 1.3-2.75 1.15-2.8 1.03-2.83.93-2.9.8-1.77.42" stroke="#000" stroke-width="2" stroke-linejoin="round" fill="none"/><path d="M1119 1301l-1 .02-.05-2 1.05-.02z" stroke="#000" stroke-width=".05"/><path d="M964.22 1399.65l13.67-6.17 1 9.2z" stroke="#000" stroke-width="2"/><defs><path fill="#3a414a" d="M190 0L58-211 59 0H30v-248h39L202-35l-2-213h31V0h-41" id="h"/><path fill="#3a414a" d="M141-36C126-15 110 5 73 4 37 3 15-17 15-53c-1-64 63-63 125-63 3-35-9-54-41-54-24 1-41 7-42 31l-33-3c5-37 33-52 76-52 45 0 72 20 72 64v82c-1 20 7 32 28 27v20c-31 9-61-2-59-35zM48-53c0 20 12 33 32 33 41-3 63-29 60-74-43 2-92-5-92 41" id="i"/><path fill="#3a414a" d="M114-163C36-179 61-72 57 0H25l-1-190h30c1 12-1 29 2 39 6-27 23-49 58-41v29" id="j"/><path fill="#3a414a" d="M59-47c-2 24 18 29 38 22v24C64 9 27 4 27-40v-127H5v-23h24l9-43h21v43h35v23H59v120" id="k"/><path fill="#3a414a" d="M24-231v-30h32v30H24zM24 0v-190h32V0H24" id="l"/><path fill="#3a414a" d="M108 0H70L1-190h34L89-25l56-165h34" id="m"/><path fill="#3a414a" d="M100-194c63 0 86 42 84 106H49c0 40 14 67 53 68 26 1 43-12 49-29l28 8c-11 28-37 45-77 45C44 4 14-33 15-96c1-61 26-98 85-98zm52 81c6-60-76-77-97-28-3 7-6 17-6 28h103" id="n"/><g id="a"><use transform="matrix(0.06172839506172839,0,0,0.06172839506172839,0,0)" xlink:href="#h"/><use transform="matrix(0.06172839506172839,0,0,0.06172839506172839,15.987654320987653,0)" xlink:href="#i"/><use transform="matrix(0.06172839506172839,0,0,0.06172839506172839,28.333333333333332,0)" xlink:href="#j"/><use transform="matrix(0.06172839506172839,0,0,0.06172839506172839,35.67901234567901,0)" xlink:href="#j"/><use transform="matrix(0.06172839506172839,0,0,0.06172839506172839,43.02469135802469,0)" xlink:href="#i"/><use transform="matrix(0.06172839506172839,0,0,0.06172839506172839,55.37037037037037,0)" xlink:href="#k"/><use transform="matrix(0.06172839506172839,0,0,0.06172839506172839,61.54320987654321,0)" xlink:href="#l"/><use transform="matrix(0.06172839506172839,0,0,0.06172839506172839,66.41975308641975,0)" xlink:href="#m"/><use transform="matrix(0.06172839506172839,0,0,0.06172839506172839,77.53086419753086,0)" xlink:href="#n"/></g><path fill="#3a414a" d="M30-248c87 1 191-15 191 75 0 78-77 80-158 76V0H30v-248zm33 125c57 0 124 11 124-50 0-59-68-47-124-48v98" id="o"/><path fill="#3a414a" d="M100-194c62-1 85 37 85 99 1 63-27 99-86 99S16-35 15-95c0-66 28-99 85-99zM99-20c44 1 53-31 53-75 0-43-8-75-51-75s-53 32-53 75 10 74 51 75" id="p"/><path fill="#3a414a" d="M85-194c31 0 48 13 60 33l-1-100h32l1 261h-30c-2-10 0-23-3-31C134-8 116 4 85 4 32 4 16-35 15-94c0-66 23-100 70-100zm9 24c-40 0-46 34-46 75 0 40 6 74 45 74 42 0 51-32 51-76 0-42-9-74-50-73" id="q"/><path fill="#3a414a" d="M84 4C-5 8 30-112 23-190h32v120c0 31 7 50 39 49 72-2 45-101 50-169h31l1 190h-30c-1-10 1-25-2-33-11 22-28 36-60 37" id="r"/><path fill="#3a414a" d="M96-169c-40 0-48 33-48 73s9 75 48 75c24 0 41-14 43-38l32 2c-6 37-31 61-74 61-59 0-76-41-82-99-10-93 101-131 147-64 4 7 5 14 7 22l-32 3c-4-21-16-35-41-35" id="s"/><path fill="#3a414a" d="M117-194c89-4 53 116 60 194h-32v-121c0-31-8-49-39-48C34-167 62-67 57 0H25l-1-190h30c1 10-1 24 2 32 11-22 29-35 61-36" id="t"/><g id="b"><use transform="matrix(0.06172839506172839,0,0,0.06172839506172839,0,0)" xlink:href="#o"/><use transform="matrix(0.06172839506172839,0,0,0.06172839506172839,14.814814814814813,0)" xlink:href="#j"/><use transform="matrix(0.06172839506172839,0,0,0.06172839506172839,22.160493827160494,0)" xlink:href="#p"/><use transform="matrix(0.06172839506172839,0,0,0.06172839506172839,34.50617283950617,0)" xlink:href="#q"/><use transform="matrix(0.06172839506172839,0,0,0.06172839506172839,46.85185185185185,0)" xlink:href="#r"/><use transform="matrix(0.06172839506172839,0,0,0.06172839506172839,59.197530864197525,0)" xlink:href="#s"/><use transform="matrix(0.06172839506172839,0,0,0.06172839506172839,70.30864197530863,0)" xlink:href="#k"/><use transform="matrix(0.06172839506172839,0,0,0.06172839506172839,76.48148148148147,0)" xlink:href="#l"/><use transform="matrix(0.06172839506172839,0,0,0.06172839506172839,81.35802469135801,0)" xlink:href="#p"/><use transform="matrix(0.06172839506172839,0,0,0.06172839506172839,93.7037037037037,0)" xlink:href="#t"/></g><path d="M467-163v-527h86V0h-84L171-522V0H85v-690h82" id="u"/><path d="M219 8C111 9 40-44 40-146c0-95 62-143 187-143h119v-58c-2-74-33-85-111-87-71 1-91 8-120 51l-60-42c37-60 84-82 181-83 128 1 190 38 190 161V0h-80v-49C318-4 291 7 219 8zm0-74c103 2 133-44 127-155-96 5-231-25-226 77 0 52 33 78 99 78" id="v"/><path d="M252-434c-66-1-107 53-107 121V0H65v-500h80v49c48-85 215-70 259 11l-68 48c-20-28-48-42-84-42" id="w"/><path d="M280 0C145 6 85-24 85-154v-274H21v-72h64v-110h80v110h115v72H165v254c-6 91 28 102 115 98V0" id="x"/><path d="M160 0H80v-500h80V0zm5-600H75v-90h90v90" id="y"/><path d="M252-102l152-398h90L294 0h-80L10-500h90" id="z"/><path d="M120-232c-4 96 38 168 128 168 58 0 98-19 119-56l62 44C394-17 345 7 254 8 120 9 40-82 40-218c0-172 41-291 198-290 154-1 209 109 198 276H120zm118-204c-73 0-113 45-118 134h235c-4-89-43-134-117-134" id="A"/><path d="M60-512c2-121 91-189 223-186 103 0 179 38 228 113l-67 48c-43-53-76-82-164-83-78 0-134 33-134 108 0 95 67 108 163 128 130 27 214 62 214 199C523-55 430 7 291 8 179 8 97-30 45-105l71-49c49 56 80 82 175 84 97 0 146-37 146-111 0-94-64-111-163-129-143-22-214-89-214-202" id="B"/><path d="M120-284c0 125 20 222 136 220 55 0 92-19 111-56l62 44C399-20 341 8 256 8 121 9 38-82 40-218v-66c-1-138 79-225 216-224 79 0 136 26 173 78l-63 44c-23-33-60-50-110-50-88-1-136 62-136 152" id="C"/><path d="M267-434c-71-1-122 51-122 122V0H65v-500h80v49c30-42 62-56 134-57 121 1 182 70 182 196V0h-80v-311c0-82-38-123-114-123" id="D"/><g id="c"><use transform="matrix(0.022222222222222223,0,0,0.022222222222222223,0,0)" xlink:href="#u"/><use transform="matrix(0.022222222222222223,0,0,0.022222222222222223,14.177777777777779,0)" xlink:href="#v"/><use transform="matrix(0.022222222222222223,0,0,0.022222222222222223,25.08888888888889,0)" xlink:href="#w"/><use transform="matrix(0.022222222222222223,0,0,0.022222222222222223,33.84444444444445,0)" xlink:href="#w"/><use transform="matrix(0.022222222222222223,0,0,0.022222222222222223,42.37777777777778,0)" xlink:href="#v"/><use transform="matrix(0.022222222222222223,0,0,0.022222222222222223,53.28888888888889,0)" xlink:href="#x"/><use transform="matrix(0.022222222222222223,0,0,0.022222222222222223,60.28888888888889,0)" xlink:href="#y"/><use transform="matrix(0.022222222222222223,0,0,0.022222222222222223,65.62222222222222,0)" xlink:href="#z"/><use transform="matrix(0.022222222222222223,0,0,0.022222222222222223,76.82222222222222,0)" xlink:href="#A"/><use transform="matrix(0.022222222222222223,0,0,0.022222222222222223,87.66666666666667,0)" xlink:href="#B"/><use transform="matrix(0.022222222222222223,0,0,0.022222222222222223,100.35555555555555,0)" xlink:href="#C"/><use transform="matrix(0.022222222222222223,0,0,0.022222222222222223,110.22222222222223,0)" xlink:href="#A"/><use transform="matrix(0.022222222222222223,0,0,0.022222222222222223,121.06666666666668,0)" xlink:href="#D"/><use transform="matrix(0.022222222222222223,0,0,0.022222222222222223,132.75555555555556,0)" xlink:href="#A"/></g><path d="M547-215C530-77 448 4 300 8 108 13 50-143 50-383c0-210 83-315 250-315 149 1 229 86 248 223h-84c-21-92-62-144-164-145-154-2-168 142-164 313 3 144 36 237 164 237 102 0 143-55 164-145h83" id="E"/><path d="M248-508c135-1 208 86 208 224C456-109 409 9 248 8 115 9 38-82 40-218v-66c-2-136 75-225 208-224zM120-284c0 121 16 221 128 220 106-1 128-100 128-220 0-90-42-152-128-152-85 0-128 63-128 152" id="F"/><path d="M286-256L468 0h-94L239-186 104 0H10l182-256L30-500h94l115 177 115-177h94" id="G"/><g id="d"><use transform="matrix(0.022222222222222223,0,0,0.022222222222222223,0,0)" xlink:href="#E"/><use transform="matrix(0.022222222222222223,0,0,0.022222222222222223,12.844444444444445,0)" xlink:href="#F"/><use transform="matrix(0.022222222222222223,0,0,0.022222222222222223,23.866666666666667,0)" xlink:href="#D"/><use transform="matrix(0.022222222222222223,0,0,0.022222222222222223,35.55555555555556,0)" xlink:href="#x"/><use transform="matrix(0.022222222222222223,0,0,0.022222222222222223,42.55555555555556,0)" xlink:href="#A"/><use transform="matrix(0.022222222222222223,0,0,0.022222222222222223,52.86666666666668,0)" xlink:href="#G"/><use transform="matrix(0.022222222222222223,0,0,0.022222222222222223,63.488888888888894,0)" xlink:href="#x"/></g><path d="M556-476c0 141-103 215-251 213H171V0H85v-690h220c148-2 251 72 251 214zM171-612v271h134c110 0 165-45 165-135 0-91-55-136-165-136H171" id="H"/><path d="M40-284c-2-134 70-224 200-224 63 0 108 19 136 58v-240h80V0h-80v-44C349-9 304 8 240 8 109 9 39-85 40-218v-66zm80 0c0 120 21 219 128 220 85 1 128-60 128-147 0-124-16-226-128-225-86 0-128 62-128 152" id="I"/><path d="M259-66c71 1 122-51 122-122v-312h80V0h-80v-49C351-7 319 7 247 8 126 7 65-62 65-188v-312h80v311c0 82 38 123 114 123" id="J"/><g id="e"><use transform="matrix(0.022222222222222223,0,0,0.022222222222222223,0,0)" xlink:href="#H"/><use transform="matrix(0.022222222222222223,0,0,0.022222222222222223,13.066666666666666,0)" xlink:href="#w"/><use transform="matrix(0.022222222222222223,0,0,0.022222222222222223,21.822222222222223,0)" xlink:href="#F"/><use transform="matrix(0.022222222222222223,0,0,0.022222222222222223,32.84444444444445,0)" xlink:href="#I"/><use transform="matrix(0.022222222222222223,0,0,0.022222222222222223,44.422222222222224,0)" xlink:href="#J"/><use transform="matrix(0.022222222222222223,0,0,0.022222222222222223,56.111111111111114,0)" xlink:href="#C"/><use transform="matrix(0.022222222222222223,0,0,0.022222222222222223,65.97777777777779,0)" xlink:href="#x"/><use transform="matrix(0.022222222222222223,0,0,0.022222222222222223,72.97777777777779,0)" xlink:href="#y"/><use transform="matrix(0.022222222222222223,0,0,0.022222222222222223,78.31111111111112,0)" xlink:href="#F"/><use transform="matrix(0.022222222222222223,0,0,0.022222222222222223,89.33333333333334,0)" xlink:href="#D"/><use transform="matrix(0.022222222222222223,0,0,0.022222222222222223,101.02222222222224,0)" xlink:href="#B"/><use transform="matrix(0.022222222222222223,0,0,0.022222222222222223,113.71111111111114,0)" xlink:href="#C"/><use transform="matrix(0.022222222222222223,0,0,0.022222222222222223,123.5777777777778,0)" xlink:href="#A"/><use transform="matrix(0.022222222222222223,0,0,0.022222222222222223,134.42222222222225,0)" xlink:href="#D"/><use transform="matrix(0.022222222222222223,0,0,0.022222222222222223,146.11111111111114,0)" xlink:href="#A"/></g><path d="M267-434c-71-1-122 51-122 122V0H65v-690h80v239c30-42 62-56 134-57 121 1 182 70 182 196V0h-80v-311c0-82-38-123-114-123" id="K"/><g id="f"><use transform="matrix(0.022222222222222223,0,0,0.022222222222222223,0,0)" xlink:href="#E"/><use transform="matrix(0.022222222222222223,0,0,0.022222222222222223,12.844444444444445,0)" xlink:href="#K"/><use transform="matrix(0.022222222222222223,0,0,0.022222222222222223,24.533333333333335,0)" xlink:href="#v"/><use transform="matrix(0.022222222222222223,0,0,0.022222222222222223,35.44444444444444,0)" xlink:href="#w"/><use transform="matrix(0.022222222222222223,0,0,0.022222222222222223,43.977777777777774,0)" xlink:href="#v"/><use transform="matrix(0.022222222222222223,0,0,0.022222222222222223,54.88888888888888,0)" xlink:href="#C"/><use transform="matrix(0.022222222222222223,0,0,0.022222222222222223,64.75555555555556,0)" xlink:href="#x"/><use transform="matrix(0.022222222222222223,0,0,0.022222222222222223,71.75555555555556,0)" xlink:href="#A"/><use transform="matrix(0.022222222222222223,0,0,0.022222222222222223,82.60000000000001,0)" xlink:href="#w"/></g><path d="M85-690h86v612h330V0H85v-690" id="L"/><g id="g"><use transform="matrix(0.022222222222222223,0,0,0.022222222222222223,0,0)" xlink:href="#u"/><use transform="matrix(0.022222222222222223,0,0,0.022222222222222223,14.177777777777779,0)" xlink:href="#v"/><use transform="matrix(0.022222222222222223,0,0,0.022222222222222223,25.08888888888889,0)" xlink:href="#w"/><use transform="matrix(0.022222222222222223,0,0,0.022222222222222223,33.84444444444445,0)" xlink:href="#w"/><use transform="matrix(0.022222222222222223,0,0,0.022222222222222223,42.37777777777778,0)" xlink:href="#v"/><use transform="matrix(0.022222222222222223,0,0,0.022222222222222223,53.28888888888889,0)" xlink:href="#x"/><use transform="matrix(0.022222222222222223,0,0,0.022222222222222223,60.28888888888889,0)" xlink:href="#y"/><use transform="matrix(0.022222222222222223,0,0,0.022222222222222223,65.62222222222222,0)" xlink:href="#z"/><use transform="matrix(0.022222222222222223,0,0,0.022222222222222223,76.82222222222222,0)" xlink:href="#A"/><use transform="matrix(0.022222222222222223,0,0,0.022222222222222223,87.66666666666667,0)" xlink:href="#L"/><use transform="matrix(0.022222222222222223,0,0,0.022222222222222223,98.8,0)" xlink:href="#F"/><use transform="matrix(0.022222222222222223,0,0,0.022222222222222223,109.82222222222225,0)" xlink:href="#C"/><use transform="matrix(0.022222222222222223,0,0,0.022222222222222223,119.46666666666667,0)" xlink:href="#v"/><use transform="matrix(0.022222222222222223,0,0,0.022222222222222223,130.3777777777778,0)" xlink:href="#x"/><use transform="matrix(0.022222222222222223,0,0,0.022222222222222223,137.3777777777778,0)" xlink:href="#y"/><use transform="matrix(0.022222222222222223,0,0,0.022222222222222223,142.71111111111114,0)" xlink:href="#F"/><use transform="matrix(0.022222222222222223,0,0,0.022222222222222223,153.73333333333335,0)" xlink:href="#D"/></g></defs></g></svg>